<svg xmlns="http://www.w3.org/2000/svg" width="47.976" height="55" viewBox="0 0 47.976 55">
  <g id="_000000ff" data-name="#000000ff" transform="translate(102 572)">
    <path id="Trazado_184817" data-name="Trazado 184817" d="M47.188,0H58.854A2.631,2.631,0,0,1,61.01,1.457a3.143,3.143,0,0,1,.283,1.308c2.575,0,5.151-.01,7.726.005a4.534,4.534,0,0,1,4.038,2.749,4.8,4.8,0,0,1,.364,1.993q0,4.984,0,9.969c.555-1.2,1.09-2.4,1.649-3.6a2.254,2.254,0,0,1,2.107-1.254,3.913,3.913,0,0,1,1.491.494,3.855,3.855,0,0,1,1.4.843,2.273,2.273,0,0,1,.36,2.492q-3.453,7.557-6.906,15.113a1.157,1.157,0,0,0-.1.538q.011,9.08,0,18.161a4.747,4.747,0,0,1-.409,2.07A4.559,4.559,0,0,1,69.066,55h-32a4.54,4.54,0,0,1-4.395-4.62q0-21.532,0-43.067a4.531,4.531,0,0,1,4.547-4.547q3.791-.006,7.582,0a3.034,3.034,0,0,1,.288-1.331A2.666,2.666,0,0,1,47.188,0M47.04,1.685a.981.981,0,0,0-.608.887c-.009.718-.014,1.436,0,2.154a.982.982,0,0,0,.994.921q5.586.01,11.171,0a.994.994,0,0,0,1.056-.911c.019-.722.013-1.447,0-2.17A.992.992,0,0,0,58.6,1.612c-3.656,0-7.31,0-10.966,0a1.693,1.693,0,0,0-.6.076M38,4.376V41.138a7.418,7.418,0,0,1-.026.978.8.8,0,0,1-1.583-.218q-.011-18.706,0-37.414a2.949,2.949,0,0,0-2.1,2.822q0,21.27,0,42.539a4.117,4.117,0,0,0,.222,1.743,2.928,2.928,0,0,0,2.712,1.8q10.715,0,21.429,0c.14-.628.286-1.255.426-1.882q-10.127.066-20.253.127a2.49,2.49,0,0,1-2.426-2.322c-.017-1.364,0-2.729-.006-4.092a.813.813,0,0,1,.715-.864.8.8,0,0,1,.887.765c.024,1.362-.01,2.726.015,4.088a.876.876,0,0,0,.928.815q10.25-.06,20.5-.128c.224-.981.437-1.964.663-2.943a14.782,14.782,0,0,1,1.027-2.543q3.348-7.328,6.7-14.658a1.834,1.834,0,0,0,.272-.851c-.006-4.906,0-9.813,0-14.72a1.016,1.016,0,0,1,.157-.661.807.807,0,0,1,1.095-.2.838.838,0,0,1,.361.755q0,5.773,0,11.547c.669-1.452,1.326-2.911,2-4.362a.935.935,0,0,0,.108-.411q0-6.5,0-13a4.01,4.01,0,0,0-.2-1.611A2.971,2.971,0,0,0,69.7,4.483c-.008,2.087,0,4.174-.005,6.262a.8.8,0,1,1-1.6,0c-.008-2.124,0-4.247,0-6.371q-3.4,0-6.805,0A2.71,2.71,0,0,1,60.152,6.8a2.633,2.633,0,0,1-1.546.461q-5.6,0-11.191,0a2.6,2.6,0,0,1-2.053-1.008,2.794,2.794,0,0,1-.552-1.876q-3.406,0-6.812,0M76.524,14.588c-.259.517-.481,1.053-.728,1.576.828.375,1.654.758,2.485,1.129.221-.515.472-1.016.692-1.531a.636.636,0,0,0-.284-.848c-.433-.218-.879-.41-1.322-.606a.634.634,0,0,0-.842.279m-1.4,3.044q-.227.5-.452.995c.826.375,1.653.75,2.477,1.131.154-.331.306-.663.454-1-.826-.378-1.649-.762-2.479-1.129M74,20.094Q67.941,33.368,61.876,46.643c.825.378,1.654.747,2.475,1.132q6.067-13.274,12.13-26.55c-.826-.378-1.651-.762-2.481-1.13M69.787,39.753a1.953,1.953,0,0,0-.087.85q0,4.191,0,8.381a2.5,2.5,0,0,1-2.277,2.458c-1.243.039-2.489.014-3.733.04-.466.637-.939,1.271-1.407,1.907q2.994,0,5.988,0a4.7,4.7,0,0,0,1.49-.133,2.922,2.922,0,0,0,1.917-1.917,4.772,4.772,0,0,0,.133-1.492q0-7.256,0-14.511c-.676,1.472-1.344,2.947-2.022,4.417m-3.942,8.631a8.644,8.644,0,0,1-.953,1.475c.769-.011,1.539,0,2.31-.019a.874.874,0,0,0,.883-.855c.014-1.836,0-3.672.005-5.508-.752,1.634-1.492,3.273-2.245,4.907m-4.384-.158c-.381,1.7-.766,3.4-1.143,5.106q1.558-2.1,3.111-4.212C62.77,48.825,62.118,48.52,61.461,48.226Z" transform="translate(-134.673 -572)" fill="#477fa2"/>
  </g>
</svg>
