<svg xmlns="http://www.w3.org/2000/svg" xmlns:xlink="http://www.w3.org/1999/xlink" width="135.092" height="145.181" viewBox="0 0 135.092 145.181">
  <defs>
    <clipPath id="clip-path">
      <rect id="Rectángulo_40230" data-name="Rectángulo 40230" width="129.228" height="129.228" fill="none"/>
    </clipPath>
    <clipPath id="clip-path-2">
      <path id="Trazado_191182" data-name="Trazado 191182" d="M3345.194,99.882A64.614,64.614,0,1,0,3280.58,164.5a64.614,64.614,0,0,0,64.614-64.614" transform="translate(-3215.966 -35.268)" fill="none"/>
    </clipPath>
    <radialGradient id="radial-gradient" cx="0.5" cy="0.5" r="0.5" gradientTransform="matrix(1, 0, 0, -1, 0, 2)" gradientUnits="objectBoundingBox">
      <stop offset="0"/>
      <stop offset="0.228"/>
      <stop offset="0.277" stop-color="#242424"/>
      <stop offset="0.352" stop-color="#575757"/>
      <stop offset="0.431" stop-color="#848484"/>
      <stop offset="0.511" stop-color="#aaa"/>
      <stop offset="0.595" stop-color="#c9c9c9"/>
      <stop offset="0.682" stop-color="#e0e0e0"/>
      <stop offset="0.774" stop-color="#f1f1f1"/>
      <stop offset="0.875" stop-color="#fbfbfb"/>
      <stop offset="1" stop-color="#fff"/>
    </radialGradient>
    <clipPath id="clip-path-3">
      <path id="Trazado_191184" data-name="Trazado 191184" d="M3281.954,147.361a50.525,50.525,0,1,1,26.235,7.378,50.545,50.545,0,0,1-26.235-7.378M3263.823,77.15a51.976,51.976,0,1,0,44.464-24.967,52,52,0,0,0-44.464,24.967" transform="translate(-3256.233 -52.183)" fill="none"/>
    </clipPath>
    <linearGradient id="linear-gradient" x1="-4.628" y1="1.035" x2="-4.626" y2="1.035" gradientUnits="objectBoundingBox">
      <stop offset="0" stop-color="#e2e1e1"/>
      <stop offset="0.445" stop-color="#f0f0f0"/>
      <stop offset="1" stop-color="#fff"/>
    </linearGradient>
  </defs>
  <g id="Grupo_148093" data-name="Grupo 148093" transform="translate(-393 -1095)">
    <g id="Grupo_147550" data-name="Grupo 147550" transform="translate(398.864 1110.953)" style="mix-blend-mode: multiply;isolation: isolate">
      <g id="Grupo_147399" data-name="Grupo 147399" transform="translate(0 0)">
        <g id="Grupo_147398" data-name="Grupo 147398" opacity="0.41" clip-path="url(#clip-path)">
          <g id="Grupo_147397" data-name="Grupo 147397" transform="translate(-0.001 0)">
            <g id="Grupo_147396" data-name="Grupo 147396" clip-path="url(#clip-path-2)">
              <rect id="Rectángulo_40229" data-name="Rectángulo 40229" width="129.228" height="129.228" transform="translate(0 0)" fill="url(#radial-gradient)"/>
            </g>
          </g>
        </g>
      </g>
    </g>
    <g id="Grupo_147551" data-name="Grupo 147551" transform="translate(398.156 1107.48)">
      <g id="Grupo_147403" data-name="Grupo 147403" clip-path="url(#clip-path-3)">
        <rect id="Rectángulo_40232" data-name="Rectángulo 40232" width="162.022" height="161.456" transform="matrix(0.857, -0.515, 0.515, 0.857, -59.018, 25.373)" fill="url(#linear-gradient)"/>
      </g>
    </g>
    <path id="Trazado_191444" data-name="Trazado 191444" d="M3292.207,128.968a64.5,64.5,0,0,1-56.9-34.113,5.351,5.351,0,0,1,2.636-7.449,58.891,58.891,0,1,0,0-45.844,5.352,5.352,0,0,1-2.636-7.449,64.515,64.515,0,1,1,56.9,94.855" transform="translate(-2841.675 1095)" fill="#9eb7e5"/>
    <path id="Trazado_191445" data-name="Trazado 191445" d="M3282.159,149.2a51.737,51.737,0,1,1,71.095-17.29,51.737,51.737,0,0,1-71.095,17.29" transform="translate(-2858.902 1054.472)" fill="#f9f9f9"/>
    <g id="icon_14_" transform="translate(413 1121.693)">
      <path id="Trazado_191449" data-name="Trazado 191449" d="M81.258,118.926H46.189A4.229,4.229,0,0,1,43.1,117.59l-4.52-4.819a4.229,4.229,0,0,0-3.089-1.335H20.773a4.229,4.229,0,0,0-4.229,4.229V162.83a4.234,4.234,0,0,0,4.234,4.234H81.25a4.234,4.234,0,0,0,4.234-4.234V123.156A4.229,4.229,0,0,0,81.258,118.926Z" transform="translate(-13.985 -96.075)" fill="#eab54e"/>
      <path id="Trazado_191450" data-name="Trazado 191450" d="M81.995,12.11h51.4V58.129h-51.4Z" transform="translate(-69.314 -12.11)" fill="#dbd8dd"/>
      <path id="Trazado_191451" data-name="Trazado 191451" d="M64.551,39.738h49.831V84.193H64.551Z" transform="translate(-54.568 -35.465)" fill="#eeefee"/>
      <g id="Grupo_147559" data-name="Grupo 147559" transform="translate(15.618 9.926)">
        <path id="Trazado_191452" data-name="Trazado 191452" d="M100.984,76.289h38.564v2.023H100.984Z" transform="translate(-100.984 -76.289)" fill="#dbd8dd"/>
        <path id="Trazado_191453" data-name="Trazado 191453" d="M100.984,117.849h38.564v2.023H100.984Z" transform="translate(-100.984 -111.421)" fill="#dbd8dd"/>
        <path id="Trazado_191454" data-name="Trazado 191454" d="M100.984,159.409h38.564v2.023H100.984Z" transform="translate(-100.984 -146.554)" fill="#dbd8dd"/>
      </g>
      <path id="Trazado_191455" data-name="Trazado 191455" d="M70.508,203.738H32.2a4.229,4.229,0,0,0-3.079,1.33l-4.522,4.8a4.229,4.229,0,0,1-3.079,1.33H4.229A4.229,4.229,0,0,0,0,215.427q0,.193.017.385L2.2,241.241a4.234,4.234,0,0,0,4.216,3.849H67.634a4.234,4.234,0,0,0,4.216-3.85l2.867-32.888a4.229,4.229,0,0,0-3.826-4.6Q70.7,203.738,70.508,203.738Z" transform="translate(0 -174.102)" fill="#f6c863"/>
    </g>
    <path id="Trazado_191374" data-name="Trazado 191374" d="M27.808,195.434,18.573,179.44v-8.275H9.8v8.275L.563,195.434a4.122,4.122,0,0,0,3.57,6.183H24.238a4.122,4.122,0,0,0,3.57-6.183Zm0,0" transform="translate(436.183 999.662)" fill="#e6e6e6"/>
    <path id="Trazado_191375" data-name="Trazado 191375" d="M18.569,156.193l-2.687-1.51-5.149.054-.94,1.456v8.275l-9.234,16a4.121,4.121,0,0,0,3.569,6.183H9.616c-1.441,0-2.342-3.435-1.621-6.183l4.194-16V160.22a1.581,1.581,0,0,1,1.581-1.581h4.8Zm0,0" transform="translate(436.187 1014.634)" fill="#ccc"/>
    <path id="Trazado_191376" data-name="Trazado 191376" d="M87.312,132.2a1.87,1.87,0,0,1-1.87,1.87h-11.4a1.87,1.87,0,0,1,0-3.741h11.4a1.87,1.87,0,0,1,1.87,1.87Zm0,0" transform="translate(370.626 1036.758)" fill="#ccc"/>
    <path id="Trazado_191380" data-name="Trazado 191380" d="M53.842,336.505a1.2,1.2,0,0,1-1.077.622H32.659a1.244,1.244,0,0,1-1.078-1.866l6.786-11.754h8.689l6.785,11.754a1.2,1.2,0,0,1,0,1.244Zm0,0" transform="translate(407.656 861.275)" fill="#84e8ed"/>
    <path id="Trazado_191381" data-name="Trazado 191381" d="M36.525,333.822a8.53,8.53,0,0,0-.164,3.305h-3.7a1.244,1.244,0,0,1-1.078-1.866l6.786-11.754h.862Zm0,0" transform="translate(407.656 861.274)" fill="#58dee4"/>
    <path id="Trazado_191456" data-name="Trazado 191456" d="M82.148,131.6a1.252,1.252,0,0,1-1.232,1.27H73.4a1.21,1.21,0,0,1-.871-.372,1.286,1.286,0,0,1-.361-.9,1.252,1.252,0,0,1,1.232-1.27h7.511a1.211,1.211,0,0,1,.871.372A1.287,1.287,0,0,1,82.148,131.6Zm0,0" transform="translate(375.79 1036.758)" fill="#e2e2e2"/>
  </g>
</svg>
