<svg xmlns="http://www.w3.org/2000/svg" xmlns:xlink="http://www.w3.org/1999/xlink" width="866.999" height="696.283" viewBox="0 0 866.999 696.283">
  <defs>
    <linearGradient id="linear-gradient" x1="0.5" x2="0.5" y2="1" gradientUnits="objectBoundingBox">
      <stop offset="0" stop-color="#c6e3d4"/>
      <stop offset="1" stop-color="#789c8a"/>
    </linearGradient>
    <filter id="Rectángulo_39653" x="0" y="0" width="397.093" height="320.778" filterUnits="userSpaceOnUse">
      <feOffset dy="3" input="SourceAlpha"/>
      <feGaussianBlur stdDeviation="3" result="blur"/>
      <feFlood flood-opacity="0.161"/>
      <feComposite operator="in" in2="blur"/>
      <feComposite in="SourceGraphic"/>
    </filter>
    <linearGradient id="linear-gradient-2" x1="0.5" x2="0.5" y2="1" gradientUnits="objectBoundingBox">
      <stop offset="0" stop-color="#ffea99"/>
      <stop offset="1" stop-color="#ffd329"/>
    </linearGradient>
    <filter id="Rectángulo_39658" x="455.715" y="375.505" width="411.284" height="320.778" filterUnits="userSpaceOnUse">
      <feOffset dy="3" input="SourceAlpha"/>
      <feGaussianBlur stdDeviation="3" result="blur-2"/>
      <feFlood flood-opacity="0.161"/>
      <feComposite operator="in" in2="blur-2"/>
      <feComposite in="SourceGraphic"/>
    </filter>
    <linearGradient id="linear-gradient-3" x1="0.5" x2="0.5" y2="1" gradientUnits="objectBoundingBox">
      <stop offset="0" stop-color="#68a58a"/>
      <stop offset="1" stop-color="#477fa2"/>
    </linearGradient>
    <filter id="Rectángulo_39655" x="0" y="375.505" width="397.093" height="320.778" filterUnits="userSpaceOnUse">
      <feOffset dy="3" input="SourceAlpha"/>
      <feGaussianBlur stdDeviation="3" result="blur-3"/>
      <feFlood flood-opacity="0.161"/>
      <feComposite operator="in" in2="blur-3"/>
      <feComposite in="SourceGraphic"/>
    </filter>
    <linearGradient id="linear-gradient-4" x1="0.5" x2="0.5" y2="1" gradientUnits="objectBoundingBox">
      <stop offset="0" stop-color="#91b2c7"/>
      <stop offset="1" stop-color="#355f7a"/>
    </linearGradient>
    <filter id="Rectángulo_39660" x="467.375" y="4.53" width="397.093" height="320.778" filterUnits="userSpaceOnUse">
      <feOffset dy="3" input="SourceAlpha"/>
      <feGaussianBlur stdDeviation="3" result="blur-4"/>
      <feFlood flood-opacity="0.161"/>
      <feComposite operator="in" in2="blur-4"/>
      <feComposite in="SourceGraphic"/>
    </filter>
    <linearGradient id="linear-gradient-9" x1="0.854" y1="0.854" x2="0.152" y2="0.152" gradientUnits="objectBoundingBox">
      <stop offset="0" stop-color="#fff"/>
      <stop offset="1" stop-color="#d9d9d9"/>
    </linearGradient>
  </defs>
  <g id="grafi" transform="translate(-345.008 -611.006)">
    <g id="Grupo_108272" data-name="Grupo 108272">
      <g transform="matrix(1, 0, 0, 1, 345.01, 611.01)" filter="url(#Rectángulo_39653)">
        <path id="Rectángulo_39653-2" data-name="Rectángulo 39653" d="M6.612,0h365.87a6.612,6.612,0,0,1,6.612,6.612V302.778a0,0,0,0,1,0,0H6.612A6.612,6.612,0,0,1,0,296.166V6.612A6.612,6.612,0,0,1,6.612,0Z" transform="translate(9 6)" fill="url(#linear-gradient)"/>
      </g>
      <rect id="Rectángulo_39657" data-name="Rectángulo 39657" width="250.2" height="326.516" rx="34" transform="translate(706.813 643.296) rotate(90)" fill="#fff" stroke="#ececec" stroke-width="3"/>
      <path id="Trazado_190055" data-name="Trazado 190055" d="M50.131,17.532H89.994c0,44.32-32.423,80.253-72.424,80.253V53.612C17.57,33.684,32.146,17.532,50.131,17.532Z" transform="translate(336.438 599.474)" fill="#fff"/>
    </g>
    <g id="Grupo_108274" data-name="Grupo 108274">
      <g transform="matrix(1, 0, 0, 1, 345.01, 611.01)" filter="url(#Rectángulo_39658)">
        <path id="Rectángulo_39658-2" data-name="Rectángulo 39658" d="M0,0H386.672a6.612,6.612,0,0,1,6.612,6.612V296.167a6.612,6.612,0,0,1-6.612,6.612H6.612A6.612,6.612,0,0,1,0,296.167V0A0,0,0,0,1,0,0Z" transform="translate(464.72 381.5)" fill="url(#linear-gradient-2)"/>
      </g>
      <rect id="Rectángulo_39659" data-name="Rectángulo 39659" width="250.2" height="338.18" rx="35" transform="translate(836.012 1268.999) rotate(-90)" fill="#fff" stroke="#ececec" stroke-width="3"/>
      <path id="Trazado_190057" data-name="Trazado 190057" d="M165.823,204.388H117.77a87.311,87.311,0,0,1,87.307-87.313v48.059A39.252,39.252,0,0,1,165.823,204.388Z" transform="translate(997.423 1090.9)" fill="#fff"/>
    </g>
    <g id="Grupo_108271" data-name="Grupo 108271">
      <g transform="matrix(1, 0, 0, 1, 345.01, 611.01)" filter="url(#Rectángulo_39655)">
        <path id="Rectángulo_39655-2" data-name="Rectángulo 39655" d="M6.612,0H379.093a0,0,0,0,1,0,0V296.167a6.612,6.612,0,0,1-6.612,6.612H6.612A6.612,6.612,0,0,1,0,296.167V6.612A6.612,6.612,0,0,1,6.612,0Z" transform="translate(9 381.5)" fill="url(#linear-gradient-3)"/>
      </g>
      <rect id="Rectángulo_39656" data-name="Rectángulo 39656" width="326.516" height="250.2" rx="40" transform="translate(380.297 1018.799)" fill="#fff" stroke="#ececec" stroke-width="3"/>
      <path id="Trazado_190060" data-name="Trazado 190060" d="M50.131,97.785H89.994c0-44.32-32.423-80.253-72.424-80.253V61.7C17.57,81.633,32.146,97.785,50.131,97.785Z" transform="translate(336.922 1197.918)" fill="#fff"/>
    </g>
    <g id="Grupo_108273" data-name="Grupo 108273">
      <g transform="matrix(1, 0, 0, 1, 345.01, 611.01)" filter="url(#Rectángulo_39660)">
        <path id="Rectángulo_39660-2" data-name="Rectángulo 39660" d="M6.612,0h365.87a6.612,6.612,0,0,1,6.612,6.612V296.166a6.612,6.612,0,0,1-6.612,6.612H0a0,0,0,0,1,0,0V6.612A6.612,6.612,0,0,1,6.612,0Z" transform="translate(476.38 10.53)" fill="url(#linear-gradient-4)"/>
      </g>
      <rect id="Rectángulo_39657-2" data-name="Rectángulo 39657" width="250.2" height="326.516" rx="36" transform="translate(1174.188 647.826) rotate(90)" fill="#fff" stroke="#ececec" stroke-width="3"/>
      <path id="Trazado_190062" data-name="Trazado 190062" d="M57.434,17.532H17.57c0,44.32,32.423,80.253,72.424,80.253V53.612C89.994,33.684,75.418,17.532,57.434,17.532Z" transform="translate(1110.484 604.003)" fill="#fff"/>
    </g>
    <g id="Circulo">
      <path id="Trazado_190052" data-name="Trazado 190052" d="M196.543,210.322H52.931a11.481,11.481,0,0,1-11.379-12.305c5.93-83.551,71.777-150.289,154.212-156.3a11.457,11.457,0,0,1,12.141,11.533V198.8A11.442,11.442,0,0,1,196.543,210.322Z" transform="translate(551.18 736.642)" fill="url(#linear-gradient)"/>
      <path id="Trazado_190061" data-name="Trazado 190061" d="M196.543,210.322H52.931a11.481,11.481,0,0,1-11.379-12.305c5.93-83.551,71.777-150.289,154.212-156.3a11.457,11.457,0,0,1,12.141,11.533V198.8A11.442,11.442,0,0,1,196.543,210.322Z" transform="matrix(0.017, -1, 1, 0.017, 547.733, 1174.447)" fill="url(#linear-gradient-3)"/>
      <path id="Trazado_190063" data-name="Trazado 190063" d="M196.543,210.322H52.931a11.481,11.481,0,0,1-11.379-12.305c5.93-83.551,71.777-150.289,154.212-156.3a11.457,11.457,0,0,1,12.141,11.533V198.8A11.442,11.442,0,0,1,196.543,210.322Z" transform="translate(995.574 736.805) rotate(90)" fill="url(#linear-gradient-4)"/>
      <path id="Trazado_190578" data-name="Trazado 190578" d="M196.543,210.322H52.931a11.481,11.481,0,0,1-11.379-12.305c5.93-83.551,71.777-150.289,154.212-156.3a11.457,11.457,0,0,1,12.141,11.533V198.8A11.442,11.442,0,0,1,196.543,210.322Z" transform="translate(996.906 1178.725) rotate(180)" fill="url(#linear-gradient-2)"/>
      <ellipse id="Elipse_5268" data-name="Elipse 5268" cx="146.195" cy="146.194" rx="146.195" ry="146.194" transform="translate(625.08 808.469)" fill="url(#linear-gradient-9)"/>
      <ellipse id="Elipse_5269" data-name="Elipse 5269" cx="132.837" cy="132.836" rx="132.837" ry="132.836" transform="translate(638.438 821.827)" fill="#fff"/>
    </g>
    <text id="Disminución_del_número_de_animales_e_insectos_involucrados_en_los_estudios_promoviendo_el_bienestar_animal." data-name="Disminución del número de animales e insectos involucrados en los estudios, promoviendo el bienestar animal." transform="translate(920.322 1106)" fill="#12263f" font-size="16" font-family="Roboto-Regular, Roboto"><tspan x="0" y="17">Disminución del número de </tspan><tspan x="0" y="41">animales e insectos involucrados </tspan><tspan x="0" y="65">en los estudios, promoviendo el </tspan><tspan x="0" y="89">bienestar animal.</tspan></text>
    <text id="Permiten_evitar_que_se_realicen_los_mismos_trámites_ante_los_países_que_han_implementado_la_aceptación_de_datos_mutua._" data-name="Permiten evitar que se realicen los mismos trámites ante los países que han implementado la aceptación de datos mutua. " transform="translate(406.322 1106)" fill="#12263f" font-size="16" font-family="Roboto-Regular, Roboto"><tspan x="0" y="17">Permiten evitar que se realicen los </tspan><tspan x="0" y="41">mismos trámites ante los países </tspan><tspan x="0" y="65">que han implementado la </tspan><tspan x="0" y="89">aceptación de datos mutua. </tspan></text>
    <text id="Participación_en_el_mercado_mundial_como_proveedor_de_servicios_de_evaluación_MAD_." data-name="Participación en el mercado mundial como proveedor de servicios de evaluación (MAD)." transform="translate(893.322 719)" fill="#12263f" font-size="16" font-family="Roboto-Regular, Roboto"><tspan x="0" y="17">Participación en el mercado </tspan><tspan x="0" y="41">mundial como proveedor de </tspan><tspan x="0" y="65">servicios de evaluación (MAD).</tspan></text>
    <text id="El_uso_de_las_Buenas_Prácticas_de_Laboratorio_puede_evitar_los_conflictos_en_el_momento_de_evaluar_los_riesgos_de_productos_que_se_comercializan_en_más_de_un_país_lo_cual_genera_un_ahorro_de_recursos_para_la_industria_el_gobierno_y_los_consumidores_final" data-name="El uso de las Buenas Prácticas de Laboratorio puede evitar los conflictos en el momento de evaluar los riesgos de productos que se comercializan en más de un país, lo cual genera un ahorro de recursos para la industria, el gobierno y los consumidores final" transform="translate(405.322 672)" fill="#12263f" font-size="16" font-family="Roboto-Regular, Roboto"><tspan x="0" y="17">El uso de las </tspan><tspan y="17" font-family="Roboto-Medium, Roboto" font-weight="500">Buenas Prácticas de </tspan><tspan x="0" y="41" font-family="Roboto-Medium, Roboto" font-weight="500">Laboratorio</tspan><tspan y="41" xml:space="preserve"> puede evitar los </tspan><tspan x="0" y="65">conflictos en el momento de </tspan><tspan x="0" y="89">evaluar los riesgos de productos </tspan><tspan x="0" y="113">que se comercializan en más de un </tspan><tspan x="0" y="137">país, lo cual genera un ahorro de </tspan><tspan x="0" y="161">recursos para la industria, el </tspan><tspan x="0" y="185">gobierno y los consumidores </tspan><tspan x="0" y="209">finales. </tspan></text>
    <text id="_04" data-name="04" transform="translate(1155.609 1273.578)" fill="#12263f" font-size="27" font-family="Roboto-Regular, Roboto"><tspan x="-15.161" y="0">04</tspan></text>
    <text id="_03" data-name="03" transform="translate(382.322 1268.483)" fill="#12263f" font-size="27" font-family="Roboto-Regular, Roboto"><tspan x="-15.161" y="0">03</tspan></text>
    <text id="_02" data-name="02" transform="translate(1170.609 658.515)" fill="#12263f" font-size="27" font-family="Roboto-Regular, Roboto"><tspan x="-15.161" y="0">02</tspan></text>
    <text id="_01" data-name="01" transform="translate(383.473 658.515)" fill="#12263f" font-size="27" font-family="Roboto-Regular, Roboto"><tspan x="-15.161" y="0">01</tspan></text>
    <text id="Algunos_de_los_beneficios_potenciales_de_la_aplicación_de_BPL:_" data-name="Algunos de los beneficios potenciales de la aplicación de BPL:
" transform="translate(651.322 918)" fill="#12263f" font-size="18" font-family="Roboto-Black, Roboto" font-weight="800"><tspan x="16.103" y="19">Algunos de los beneficios </tspan><tspan x="8.443" y="44">potenciales de la aplicación </tspan><tspan x="89.553" y="69">de BPL:</tspan></text>
  </g>
</svg>
