<svg xmlns="http://www.w3.org/2000/svg" xmlns:xlink="http://www.w3.org/1999/xlink" width="820" height="242" viewBox="0 0 820 242">
  <defs>
    <linearGradient id="linear-gradient" x1="0.5" x2="0.5" y2="1" gradientUnits="objectBoundingBox">
      <stop offset="0" stop-color="#68a58a"/>
      <stop offset="1" stop-color="#477fa2"/>
    </linearGradient>
  </defs>
  <g id="Grupo_108377" data-name="Grupo 108377" transform="translate(-410 -2300.895)">
    <g id="Grupo_108289" data-name="Grupo 108289" transform="translate(954.714 2305.68)">
      <g id="Grupo_108288" data-name="Grupo 108288" transform="translate(0 0)">
        <ellipse id="Elipse_833" data-name="Elipse 833" cx="75.096" cy="75.096" rx="75.096" ry="75.096" transform="translate(71.459 14.574)" fill="#fff"/>
        <path id="Trazado_37348" data-name="Trazado 37348" d="M284.4,157.567a77.9,77.9,0,1,1,77.9-77.9A77.987,77.987,0,0,1,284.4,157.567Zm0-150.244a72.345,72.345,0,1,0,72.345,72.345A72.427,72.427,0,0,0,284.4,7.324Z" transform="translate(-146.467 8.526)" fill="url(#linear-gradient)"/>
        <path id="Trazado_37349" data-name="Trazado 37349" d="M282.855,137.136l-5.991-21.623a.733.733,0,0,0-1.412.391l1.611,5.811H262.473l-1.719-6.2a.732.732,0,1,0-1.411.391l5.991,21.624a.734.734,0,0,0,.705.537.721.721,0,0,0,.2-.027.733.733,0,0,0,.511-.9l-1.319-4.758h14.589l1.427,5.15a.732.732,0,0,0,.705.537.714.714,0,0,0,.2-.027A.733.733,0,0,0,282.855,137.136Zm-17.833-6.222-2.144-7.734h14.589l2.143,7.734Z" transform="translate(-142.223 4.217)" fill="#1e4e90"/>
        <path id="Trazado_37350" data-name="Trazado 37350" d="M277.625,114.368H246.009a1.033,1.033,0,1,0,0,2.067h1l-5.731,20.684a.733.733,0,0,0,.511.9.72.72,0,0,0,.2.027.734.734,0,0,0,.705-.537l1.427-5.15H258.7l-1.319,4.758a.732.732,0,0,0,.511.9.713.713,0,0,0,.2.027.733.733,0,0,0,.705-.537l5.84-21.076h12.991a1.033,1.033,0,0,0,0-2.067ZM259.107,130.9H244.518l2.143-7.734H261.25Zm2.548-9.2H247.067l1.458-5.264h14.589Z" transform="translate(-140.471 4.235)" fill="#5373ac"/>
        <path id="Trazado_37351" data-name="Trazado 37351" d="M273.65,114.085a.218.218,0,0,1-.217.177h-6.319a.227.227,0,0,1-.228-.225v-3.525h2.424c-.037.762-.044,1,.1,1.282.256.476.739.622,1.442.893.257.1.558.2.888.343.519.212,1.127.471,1.8.8A.209.209,0,0,1,273.65,114.085Z" transform="translate(-142.397 4.532)" fill="#f9978a"/>
        <path id="Trazado_37352" data-name="Trazado 37352" d="M266.888,113.1v1.008a.231.231,0,0,0,.228.225h6.319a.222.222,0,0,0,.217-.177.218.218,0,0,0-.114-.254c-.681-.327-1.289-.586-1.8-.8Z" transform="translate(-142.397 4.454)" fill="#26376e"/>
        <path id="Trazado_37353" data-name="Trazado 37353" d="M258.593,114.085a.22.22,0,0,1-.218.177h-6.319a.227.227,0,0,1-.228-.225v-3.517c.805,0,1.618-.008,2.424-.008-.036.762-.044,1,.1,1.282.257.476.74.622,1.442.893.257.1.558.2.888.343.52.212,1.127.471,1.8.8A.21.21,0,0,1,258.593,114.085Z" transform="translate(-140.53 4.532)" fill="#f9978a"/>
        <path id="Trazado_37354" data-name="Trazado 37354" d="M251.83,113.1v1.008a.231.231,0,0,0,.228.225h6.319a.223.223,0,0,0,.218-.177.219.219,0,0,0-.115-.254c-.681-.327-1.289-.586-1.8-.8Z" transform="translate(-140.53 4.454)" fill="#26376e"/>
        <path id="Trazado_37355" data-name="Trazado 37355" d="M256.764,90.11q-.34,3.778-.622,7.681-.449,6.206-.732,12.162h-1.193c-.805,0-1.618.008-2.424.008h-1.017q-.133-9.907-.264-19.814C252.6,90.132,254.677,90.125,256.764,90.11Z" transform="translate(-140.346 5.185)" fill="#26376e"/>
        <path id="Trazado_37356" data-name="Trazado 37356" d="M270.069,109.951h-4.554q-.979-6.007-2.08-12.155-.7-3.9-1.435-7.717l6.561-.044Q269.318,100,270.069,109.951Z" transform="translate(-141.848 5.188)" fill="#26376e"/>
        <path id="Trazado_37357" data-name="Trazado 37357" d="M266.375,51.938c-.637-.4-1.23-.813-1.772-1.216.424,5.77.988,11.767,1.713,17.954.813,6.9,1.772,13.51,2.827,19.822l-20.627.131q.67-16.717,1.347-33.434,2.231-9.939,4.459-19.872c.732-.344,1.465-.7,2.2-1.04.988.1,1.969.212,2.958.315a3.673,3.673,0,0,1,1.238.373,5.232,5.232,0,0,1,2.109,1.808c1.911,2.658.542,6.619,2.907,9.717a13.33,13.33,0,0,0,2.658,2.087,37.972,37.972,0,0,0,6.224,3.536c-.96.8-1.911,1.589-2.871,2.38A25.313,25.313,0,0,1,266.375,51.938Z" transform="translate(-140.928 7.184)" fill="#afe1e1"/>
        <path id="Trazado_37358" data-name="Trazado 37358" d="M260.567,42.485q-.681.2-3.822-8.2c.988.1,1.969.212,2.958.315Q261.208,42.309,260.567,42.485Z" transform="translate(-141.025 7.323)" fill="#fff"/>
        <path id="Trazado_37359" data-name="Trazado 37359" d="M274.782,53.573a.307.307,0,1,0-.123-.417A.307.307,0,0,0,274.782,53.573Z" transform="translate(-143.066 6.654)" fill="#fff"/>
        <path id="Trazado_37360" data-name="Trazado 37360" d="M276.258,53.487a.307.307,0,1,0-.123-.417A.308.308,0,0,0,276.258,53.487Z" transform="translate(-143.246 6.657)" fill="#fff"/>
        <path id="Trazado_37361" data-name="Trazado 37361" d="M259.738,33.947c-.008.2-.021.4-.037.608a3.6,3.6,0,0,1-2.958-.315c-.022-.527-.045-1.054-.059-1.582a.282.282,0,0,0,.022.03,4.7,4.7,0,0,0,2.878,1.252A1.011,1.011,0,0,0,259.738,33.947Z" transform="translate(-140.979 7.395)" fill="#f9978a"/>
        <path id="Trazado_37362" data-name="Trazado 37362" d="M256.219,27.946a1.056,1.056,0,0,0,1.275.338c.923,1.153,1.549,1.365,1.976,1.286.687-.127.948-.986,1.9-1.163a2.118,2.118,0,0,1,1.079.11c.009.037.011.085.02.13-.035-.762-.1-1.852-.272-3.133-.111-.808-.191-1.366-.269-1.756-1.351.665-3.3-.832-4.3-.021-.424.338-.732,1.159-.219,3.2a.835.835,0,0,0-1.136-.11A.866.866,0,0,0,256.219,27.946Z" transform="translate(-141.038 7.93)" fill="#f9978a"/>
        <path id="Trazado_37363" data-name="Trazado 37363" d="M262.592,30.3c.037,1.347.052,2.028-.278,2.49a3.013,3.013,0,0,1-2.621.842,1.011,1.011,0,0,1-.154-.008,4.7,4.7,0,0,1-2.878-1.252.281.281,0,0,1-.022-.03c-.681-.7-.893-1.53-1.252-3.082a12.243,12.243,0,0,1-.315-3.559c.081-1.428.118-2.131.585-2.8a4.585,4.585,0,0,1,3.062-1.575c.417-.1,3.507-.8,4.078.315a1.72,1.72,0,0,1-.644,1.889,1.563,1.563,0,0,1-.249.161c-1.347.667-3.3-.834-4.3-.021-.424.337-.731,1.164-.219,3.2a.839.839,0,0,0-1.136-.11.864.864,0,0,0-.06,1.118,1.053,1.053,0,0,0,1.275.338c.923,1.157,1.544,1.359,1.976,1.286.689-.132.945-.988,1.9-1.163a2.045,2.045,0,0,1,1.079.11.713.713,0,0,1,.02.13A10.99,10.99,0,0,1,262.592,30.3Z" transform="translate(-140.974 7.998)" fill="#26376e"/>
        <path id="Trazado_37364" data-name="Trazado 37364" d="M253.67,48.765c0,1.076.022,2.138.058,3.171a2.72,2.72,0,0,1-.2-.2.03.03,0,0,1-.021-.029.491.491,0,0,1-.059-.073c-1.215-1.809-1.362-4.218.234-8.538.052-.073.089-.11.1-.11C253.7,44.84,253.656,46.765,253.67,48.765Z" transform="translate(-140.397 6.999)" fill="#88c8c7"/>
        <path id="Trazado_37365" data-name="Trazado 37365" d="M291.368,47.726a5.579,5.579,0,0,1-.754.39L250.041,65.453a5.639,5.639,0,0,1-7.381-2.965,5.547,5.547,0,0,1-.337-3.3,5.633,5.633,0,0,1,3.3-4.077l3.09-1.319,4.694-2.005,32.789-14.008A5.453,5.453,0,0,1,287,37.5l2.877,6.729Z" transform="translate(-141.174 7.151)" fill="#cae3f8" style="mix-blend-mode: multiply;isolation: isolate"/>
        <path id="Trazado_37366" data-name="Trazado 37366" d="M296.742,45.629a5,5,0,0,0-3.123-1.443A22.506,22.506,0,0,0,282.86,45.37c-11.815,4.979-17.791,9.3-25.812,11.964a41.987,41.987,0,0,1-14.725,2.03,5.547,5.547,0,0,0,.337,3.3,5.639,5.639,0,0,0,7.381,2.965Q270.7,56.769,291.368,47.9l2.691-1.128.186.455c.059.178.15.463.249.816.272.967.232,1.115.412,1.373a1.645,1.645,0,0,0,1.533.663,1.763,1.763,0,0,0,1.18-.866C298.234,48.137,297.569,46.54,296.742,45.629Z" transform="translate(-141.515 6.923)" fill="#bb5a9b"/>
        <path id="Trazado_37367" data-name="Trazado 37367" d="M265.248,59.754a2.8,2.8,0,0,1-.755,1.406,3.087,3.087,0,0,1-3.25.519c-.388-.176-.886-.762-2.021-1.508.5-.673,1-1.355,1.494-2.028,1.713.907,3.192-.213,3.9.5a.358.358,0,0,1,.139.293c-.066.447-1.45.491-1.45.747,0,.161.6.359,1.164.307A2.066,2.066,0,0,0,265.248,59.754Z" transform="translate(-141.415 6.456)" fill="#f9978a"/>
        <path id="Trazado_37368" data-name="Trazado 37368" d="M256.5,34.284l-2.49,7.41c-.161.4-.315.791-.454,1.164-1.6,4.32-1.449,6.729-.234,8.538a.493.493,0,0,0,.059.073.03.03,0,0,0,.021.029,1.823,1.823,0,0,0,.154.2L248.865,53.7c-2.467-3.808.161-16.131,3.954-18.173A12.014,12.014,0,0,1,256.5,34.284Z" transform="translate(-140.115 7.298)" fill="#afe1e1"/>
        <path id="Trazado_37369" data-name="Trazado 37369" d="M260.667,57.664c-.074.1-.155.212-.234.315-.491.673-1,1.355-1.494,2.028-.11.147-.22.3-.33.447-1.948-.967-8.457-4.409-9.673-6.2l-.044-.066,4.694-2.005C255.013,54.069,257.65,55.351,260.667,57.664Z" transform="translate(-140.365 6.66)" fill="#afe1e1"/>
        <path id="Trazado_37370" data-name="Trazado 37370" d="M257,59.173a.307.307,0,1,0,.1-.424A.307.307,0,0,0,257,59.173Z" transform="translate(-140.912 6.446)" fill="#fff"/>
        <path id="Trazado_37371" data-name="Trazado 37371" d="M258.33,59.816a.307.307,0,1,0,.1-.424A.307.307,0,0,0,258.33,59.816Z" transform="translate(-141.075 6.422)" fill="#fff"/>
        <path id="Trazado_37372" data-name="Trazado 37372" d="M274.421,55.47c-.368-.459.063-1.615.858-2.127,1.3-.835,3.15.32,3.145.971C278.418,55.184,275.07,56.278,274.421,55.47Z" transform="translate(-143.189 6.646)" fill="#f9978a"/>
        <path id="Trazado_37373" data-name="Trazado 37373" d="M294.693,48.787a1.466,1.466,0,0,1-1.915-.769L288.1,37.067a1.459,1.459,0,1,1,2.683-1.147l4.68,10.951A1.467,1.467,0,0,1,294.693,48.787Z" transform="translate(-145.056 7.282)" fill="#afe1e1" style="mix-blend-mode: multiply;isolation: isolate"/>
        <path id="Trazado_37374" data-name="Trazado 37374" d="M332.932,126.633,314.191,90.547q-.058-13.989-.116-27.977h-20.5q-.057,14.177-.116,28.354L275,126.633a7.837,7.837,0,0,0,1.668,7.45,8.826,8.826,0,0,0,6.505,2.537H324.76a8.823,8.823,0,0,0,6.5-2.537A7.834,7.834,0,0,0,332.932,126.633Z" transform="translate(-146.445 5.816)" fill="#cae3f8"/>
        <path id="Trazado_37375" data-name="Trazado 37375" d="M297.621,105.141a25.2,25.2,0,0,0-10.812-.2L275,127.783a7.837,7.837,0,0,0,1.668,7.45,8.83,8.83,0,0,0,6.505,2.537H324.76a8.827,8.827,0,0,0,6.5-2.537,7.834,7.834,0,0,0,1.668-7.45l-10.866-21.017c-3.763,3.505-6.887,4.235-8.931,4.32C307.539,111.319,304.873,106.937,297.621,105.141Z" transform="translate(-146.445 4.527)" fill="#bb5a9b"/>
        <path id="Trazado_37376" data-name="Trazado 37376" d="M315.965,62.451H292.849a2.108,2.108,0,1,1,0-4.215h23.117a2.108,2.108,0,1,1,0,4.215Z" transform="translate(-146.551 6.451)" fill="#bed8f1"/>
        <path id="Trazado_37377" data-name="Trazado 37377" d="M303.462,73.592a2.547,2.547,0,0,1-3.578,0c-.954-1.037-.3-3.724,1.788-6.516C303.76,69.868,304.415,72.555,303.462,73.592Z" transform="translate(-146.303 6.114)" fill="#bb5a9b"/>
        <path id="Trazado_37378" data-name="Trazado 37378" d="M307.03,95.433a3.3,3.3,0,0,1-4.638,0c-1.235-1.344-.387-4.827,2.319-8.446C307.418,90.606,308.266,94.089,307.03,95.433Z" transform="translate(-146.671 5.366)" fill="#bb5a9b"/>
        <path id="Trazado_37379" data-name="Trazado 37379" d="M322.568,126.893a3.04,3.04,0,1,0,3.04-3.04A3.04,3.04,0,0,0,322.568,126.893Z" transform="translate(-149.255 4.025)" fill="#9d2a8a"/>
        <path id="Trazado_37380" data-name="Trazado 37380" d="M309.8,116.5a1.553,1.553,0,1,0,1.552-1.552A1.553,1.553,0,0,0,309.8,116.5Z" transform="translate(-147.498 4.374)" fill="#9d2a8a"/>
        <ellipse id="Elipse_834" data-name="Elipse 834" cx="1.305" cy="1.305" rx="1.305" ry="1.305" transform="translate(137.053 133.209)" fill="#9d2a8a"/>
        <ellipse id="Elipse_835" data-name="Elipse 835" cx="2.284" cy="2.284" rx="2.284" ry="2.284" transform="translate(155.735 133.991)" fill="#9d2a8a"/>
        <path id="Trazado_37381" data-name="Trazado 37381" d="M288.393,120.87a3.9,3.9,0,1,0,3.9-3.9A3.9,3.9,0,0,0,288.393,120.87Z" transform="translate(-145.118 4.267)" fill="#9d2a8a"/>
        <path id="Trazado_37382" data-name="Trazado 37382" d="M297.386,53.2s1.878,46.185-3.755,59.327c0,0-4.039,15.2-13.1,16.048,0,0-25.578,9.861-12.436,10.236l18.024,2.253s7.134,4.881-4.13,4.13c0,0-13.893,3.754-.375,3.754,0,0,23.28,2.253,19.525-5.632,0,0-22.9-6.758-10.513-10.889C290.627,132.429,310.9,118.912,297.386,53.2Z" transform="translate(-143.632 5.649)" fill="#bb5a9b"/>
        <text id="No_seguir_instrucciones_y_cometer_errores" data-name="No seguir instrucciones y cometer errores" transform="translate(45.686 178.634)" fill="#4880a1" font-size="16" font-family="Roboto-Bold, Roboto" font-weight="700"><tspan x="0.473" y="17">No seguir instrucciones y </tspan><tspan x="34.094" y="39">cometer errores</tspan></text>
        <rect id="Rectángulo_39835" data-name="Rectángulo 39835" width="275" height="237" transform="translate(0.286 0.215)" fill="none"/>
      </g>
    </g>
    <g id="Grupo_108375" data-name="Grupo 108375" transform="translate(669.666 2300.8)">
      <g id="Grupo_108373" data-name="Grupo 108373" transform="translate(62.183 15.654)">
        <ellipse id="Elipse_831" data-name="Elipse 831" cx="75.096" cy="75.096" rx="75.096" ry="75.096" transform="translate(1.562 4.278)" fill="#fff"/>
        <path id="Trazado_37288" data-name="Trazado 37288" d="M-104.9,156.884a77.988,77.988,0,0,1-77.9-77.9,77.988,77.988,0,0,1,77.9-77.9A77.987,77.987,0,0,1-27,78.985,77.987,77.987,0,0,1-104.9,156.884Zm0-150.244a72.426,72.426,0,0,0-72.345,72.345A72.427,72.427,0,0,0-104.9,151.33,72.427,72.427,0,0,0-32.556,78.985,72.427,72.427,0,0,0-104.9,6.641Z" transform="translate(182.801 -1.086)" fill="url(#linear-gradient)"/>
      </g>
      <g id="Grupo_108374" data-name="Grupo 108374" transform="translate(98.059 33.867)">
        <path id="Trazado_37289" data-name="Trazado 37289" d="M-101.807,141.8l-6.339-22.88a.778.778,0,0,0-.953-.541.774.774,0,0,0-.54.953l1.7,6.149h-15.437l-1.818-6.562a.778.778,0,0,0-.953-.541.775.775,0,0,0-.541.953l6.339,22.88a.775.775,0,0,0,.746.569.792.792,0,0,0,.207-.028.775.775,0,0,0,.541-.953l-1.395-5.036h15.436l1.51,5.448a.775.775,0,0,0,.746.569.8.8,0,0,0,.207-.028A.774.774,0,0,0-101.807,141.8Zm-18.87-6.585-2.267-8.184h15.437l2.267,8.184Z" transform="translate(144.294 -23.982)" fill="#1e4e90"/>
        <path id="Trazado_37290" data-name="Trazado 37290" d="M-107.341,117.708h-33.453a1.1,1.1,0,0,0-1.094,1.093,1.1,1.1,0,0,0,1.094,1.093h1.054l-6.064,21.887a.774.774,0,0,0,.54.953.8.8,0,0,0,.207.028.775.775,0,0,0,.746-.569l1.51-5.448h15.436l-1.395,5.036a.775.775,0,0,0,.54.953.805.805,0,0,0,.208.028.775.775,0,0,0,.746-.569l6.178-22.3h13.746a1.1,1.1,0,0,0,1.093-1.093A1.1,1.1,0,0,0-107.341,117.708ZM-126.934,135.2h-15.437l2.267-8.184h15.437Zm2.7-9.733h-15.437l1.543-5.569h15.437Z" transform="translate(145.832 -23.964)" fill="#5373ac"/>
        <path id="Trazado_37291" data-name="Trazado 37291" d="M-65.845,143.064H-92.459a35.565,35.565,0,0,1,5.75-5.64,15.475,15.475,0,0,1,5.229-3.1,8.845,8.845,0,0,1,2.432-.34,8.929,8.929,0,0,1,1.109.069,13.526,13.526,0,0,1,5.663,2.286A22.379,22.379,0,0,1-65.845,143.064Z" transform="translate(140.332 -24.411)" fill="#26376e"/>
        <path id="Trazado_37292" data-name="Trazado 37292" d="M-57.834,132.655H-99.145a1.747,1.747,0,0,0-1.742,1.742,1.747,1.747,0,0,0,1.742,1.742h.741v6.889h39.829v-6.889h.741a1.747,1.747,0,0,0,1.742-1.742A1.747,1.747,0,0,0-57.834,132.655Z" transform="translate(140.185 -24.375)" fill="#bed8f1" style="mix-blend-mode: multiply;isolation: isolate"/>
        <path id="Trazado_37293" data-name="Trazado 37293" d="M-129.91,90.386h-2.3q.581-7.425,1.162-14.86Q-130.48,82.951-129.91,90.386Z" transform="translate(145.842 -22.087)" fill="#26376e"/>
        <path id="Trazado_37294" data-name="Trazado 37294" d="M-122.2,32.969a6.182,6.182,0,0,0-.922-.6,6.929,6.929,0,0,0-1.559-.589c-1.1-.016-2.191-.022-3.283-.038a11.712,11.712,0,0,0-3.673,3.549A13.4,13.4,0,0,0-132.707,47.4c-.194-.046-.387-.1-.588-.162a9.1,9.1,0,0,1-2.131-.969c-4.563-3.061,3.215-22.639,6.973-25.421a5.833,5.833,0,0,1,1.8-.875,5.525,5.525,0,0,1,4.153.635C-120.094,22.222-121.1,27.615-122.2,32.969Z" transform="translate(145.815 -19.812)" fill="#26376e"/>
        <path id="Trazado_37295" data-name="Trazado 37295" d="M-104.912,46.988a20.776,20.776,0,0,1-6.462,1.332,11.433,11.433,0,0,1-5.044-.535,7.453,7.453,0,0,1-2.689-1.914c-.038.806-.077,1.612-.116,2.41,0,0-.008.326-.016.883a17.127,17.127,0,0,0,2.053-.2c.178,1.147.349,2.3.519,3.455a19.583,19.583,0,0,1-2.17.5c-.108.016-.217.031-.325.054.016.162.022.364.038.6.264,4.091,1.589,18.711,3.526,38.259h-14.311q-.617-8.3-1.239-16.605-.627,8.3-1.264,16.605h-3.43c.155-2.092.317-4.192.48-6.284.085-1.2.155-2.146.194-2.658,0,0,1.526-20.679,3.207-26.366.031-.1.155-.518.295-1.1a21.113,21.113,0,0,0,.534-3.549c.016-.232.031-.465.031-.69.008-.2.016-.4.016-.6,0-.139-.008-.279-.008-.41-.1-.109-.194-.217-.287-.326a8.846,8.846,0,0,1-1.3-2.123,13.4,13.4,0,0,1,1.069-12.109,11.744,11.744,0,0,1,3.665-3.546c1.1.013,2.192.019,3.292.035a6.93,6.93,0,0,1,1.559.589,6.184,6.184,0,0,1,.922.6,10.9,10.9,0,0,1,2.565,3.339c2.339,4.014,3.509,6.02,5.183,6.834a10.031,10.031,0,0,0,4.354.674,16.831,16.831,0,0,0,4.037-.426C-105.663,44.811-105.283,45.9-104.912,46.988Z" transform="translate(145.059 -20.602)" fill="#afe1e1"/>
        <path id="Trazado_37296" data-name="Trazado 37296" d="M-112.786,116.848a.267.267,0,0,1-.241.187h-6.685a1,1,0,0,1-.233-.24,1.392,1.392,0,0,1-.15-.915v-.138c.016-.2.01-.412.018-.621,0-.426,0-.836-.023-1.231a.051.051,0,0,0,.016-.062,39.841,39.841,0,0,0-1.379-7.817,93.189,93.189,0,0,1-2.139-9.143c-.108-.744-.194-1.96-.248-3.339h5.649c.147,8.251.34,18.176.5,19.338a3.874,3.874,0,0,0,.155.643,2.679,2.679,0,0,0,.961,1.488,7.239,7.239,0,0,0,.836.364c.388.163.635.24.938.365a.348.348,0,0,1,.041.017c.039.016.091.037.145.06.5.225,1.063.465,1.706.783A.235.235,0,0,1-112.786,116.848Z" transform="translate(144.596 -22.821)" fill="#f9978a"/>
        <path id="Trazado_37297" data-name="Trazado 37297" d="M-126.386,116.783a.231.231,0,0,1-.225.187H-133.3a.255.255,0,0,1-.162-.07,1.258,1.258,0,0,1-.07-.163,1.785,1.785,0,0,1-.07-1.068c.039-.287.106-.6.168-.969.03-.24.069-.6.1-1.046a40.192,40.192,0,0,0-.217-7.933c-.488-4.68-.767-7.012-.767-9.352,0-.651.016-1.7.047-2.913l1.9,0c.031-.449.069-.9.1-1.346.03-.434.069-.868.1-1.3h2.1c.039.434.07.868.1,1.3.03.449.071.9.1,1.346l.828,0c-1.008,9.77-1.65,18.377-1.736,18.9a4.29,4.29,0,0,0-.054.705,3.554,3.554,0,0,0,.248,1.34,1.1,1.1,0,0,0,.3.38,5.283,5.283,0,0,0,.934.518c.279.14.522.186.94.365.543.232,1.182.5,1.9.85A.232.232,0,0,1-126.386,116.783Z" transform="translate(145.852 -22.736)" fill="#f9978a"/>
        <path id="Trazado_37298" data-name="Trazado 37298" d="M-126.483,117.22a.229.229,0,0,1,.116.265.23.23,0,0,1-.225.187h-6.686a.257.257,0,0,1-.162-.07,1.088,1.088,0,0,1-.07-.163,1.77,1.77,0,0,1-.07-1.068h5.2C-127.844,116.6-127.2,116.876-126.483,117.22Z" transform="translate(145.803 -23.516)" fill="#26376e"/>
        <path id="Trazado_37299" data-name="Trazado 37299" d="M-112.68,117.475a.265.265,0,0,1-.241.187h-6.685a.983.983,0,0,1-.233-.24,1.426,1.426,0,0,1-.15-.915v-.138h5.327c.533.235,1.153.5,1.851.843A.233.233,0,0,1-112.68,117.475Z" transform="translate(144.34 -23.515)" fill="#26376e"/>
        <path id="Trazado_37300" data-name="Trazado 37300" d="M-122.13,39.658q-.674.349-5.594-7.574c1.1.013,2.192.019,3.292.035Q-121.514,39.337-122.13,39.658Z" transform="translate(145.234 -20.444)" fill="#fff"/>
        <path id="Trazado_37301" data-name="Trazado 37301" d="M-124.467,31.836c0-.552-.013-1.107-.018-1.659a1.553,1.553,0,0,0,.649,0c1.478-.321,2.267-3.082,2.094-5.157a6.84,6.84,0,0,0-1.167-3.245c-.472.518-1,1.056-1.6,1.6a23.633,23.633,0,0,1-3.206,2.445.808.808,0,0,0-.957-.159.855.855,0,0,0-.289,1.01,1.114,1.114,0,0,0,1.247.633,5.74,5.74,0,0,1,.418,2.711,5.671,5.671,0,0,1-.465,1.786,2.626,2.626,0,0,0,1.805.616A2.606,2.606,0,0,0-124.467,31.836Z" transform="translate(145.308 -19.866)" fill="#f9978a"/>
        <path id="Trazado_37302" data-name="Trazado 37302" d="M-104.888,47.094a.326.326,0,0,1-.46.018.325.325,0,0,1-.018-.459.325.325,0,0,1,.459-.019A.326.326,0,0,1-104.888,47.094Z" transform="translate(143.086 -20.959)" fill="#fff"/>
        <path id="Trazado_37303" data-name="Trazado 37303" d="M-106.4,47.509a.325.325,0,0,1-.459.019.326.326,0,0,1-.019-.46.326.326,0,0,1,.46-.018A.325.325,0,0,1-106.4,47.509Z" transform="translate(143.247 -20.975)" fill="#fff"/>
        <path id="Trazado_37304" data-name="Trazado 37304" d="M-118.988,54.092a15.224,15.224,0,0,1-7.112-.131,15.033,15.033,0,0,1-4.866-2.255c.016-.34.016-.682.008-1.007a5.406,5.406,0,0,0,.566.549c1.735,1.5,3.788,1.86,5.757,2.193a17.294,17.294,0,0,0,5.61.047C-119.01,53.651-119,53.852-118.988,54.092Z" transform="translate(145.329 -21.121)" fill="#88c8c7"/>
        <path id="Trazado_37305" data-name="Trazado 37305" d="M-123.4,49.04a6.678,6.678,0,0,1-3.766-1.767,7.085,7.085,0,0,1-1.875-4.811c.062-.465.117-.93.178-1.395a10.459,10.459,0,0,0,3.432,6.625A10.188,10.188,0,0,0-123.4,49.04Z" transform="translate(145.375 -20.777)" fill="#88c8c7"/>
        <path id="Trazado_37306" data-name="Trazado 37306" d="M-116.8,52.655a.325.325,0,0,1-.459-.033.326.326,0,0,1,.033-.459.326.326,0,0,1,.459.033A.325.325,0,0,1-116.8,52.655Z" transform="translate(144.339 -21.162)" fill="#fff"/>
        <path id="Trazado_37307" data-name="Trazado 37307" d="M-118.345,52.895a.325.325,0,0,1-.459-.033.325.325,0,0,1,.033-.459.326.326,0,0,1,.459.033A.326.326,0,0,1-118.345,52.895Z" transform="translate(144.5 -21.17)" fill="#fff"/>
        <path id="Trazado_37308" data-name="Trazado 37308" d="M-80.525,74.546a2.724,2.724,0,0,1-1.893.776,2.725,2.725,0,0,1-1.894-.776c-1.009-1.1-.316-3.941,1.894-6.9C-80.209,70.606-79.516,73.448-80.525,74.546Z" transform="translate(140.701 -21.759)" fill="#bb5a9b"/>
        <path id="Trazado_37309" data-name="Trazado 37309" d="M-124.737,33.6l-.279.566-.085.162-4.068,8.22-.364.736a1.329,1.329,0,0,1-1.154.76,1.076,1.076,0,0,1-.512-.108,1.274,1.274,0,0,1-.488-1.72l.682-1.379-8.708-4.307c-2.293-1.132-3.394-3.627-2.449-5.533s3.6-2.541,5.881-1.4l8.708,4.307.682-1.371a1.28,1.28,0,0,1,1.666-.658A1.278,1.278,0,0,1-124.737,33.6Z" transform="translate(146.356 -20.345)" fill="#417bff"/>
        <path id="Trazado_37310" data-name="Trazado 37310" d="M-84.436,59.543A2.361,2.361,0,0,1-87.6,60.612l-3.417-1.689a4.657,4.657,0,0,1-4.571.271l-29.753-14.736-2.851-1.41a3.831,3.831,0,0,1-.6-.349l4.068-8.22.053.023a6.277,6.277,0,0,1,.6.24l32.6,16.146a4.632,4.632,0,0,1,2.557,3.8l3.417,1.7A2.363,2.363,0,0,1-84.436,59.543Z" transform="translate(143.554 -20.578)" fill="#cae3f8" style="mix-blend-mode: multiply;isolation: isolate"/>
        <path id="Trazado_37311" data-name="Trazado 37311" d="M-84.162,59.749a2.361,2.361,0,0,1-3.161,1.069l-3.417-1.689a4.657,4.657,0,0,1-4.571.271l-23.468-11.624L-109.556,42l18.352,9.09a4.627,4.627,0,0,1,1.8,1.587,4.7,4.7,0,0,1,.759,2.21l3.417,1.7A2.363,2.363,0,0,1-84.162,59.749Z" transform="translate(142.891 -20.844)" fill="#bb5a9b"/>
        <path id="Trazado_37312" data-name="Trazado 37312" d="M-106.208,43.455c.308-.549,1.371-.5,2.034-.242,1.036.4,1.854,1.6,1.549,2.179s-1.84.606-2.76-.1C-105.947,44.866-106.512,43.995-106.208,43.455Z" transform="translate(143.037 -20.836)" fill="#f9978a"/>
        <path id="Trazado_37313" data-name="Trazado 37313" d="M-117.1,50.143q.391.945.779,1.89a1.977,1.977,0,0,1,1.18-.123c.235.057.282.124.9.347a4.567,4.567,0,0,0,1.061.31,3.053,3.053,0,0,0,1.276-.255,7.757,7.757,0,0,0,1.043-.422l-3.138-1.527c.211-.044.379-.07.5-.087a1.149,1.149,0,0,0,.556-.195.339.339,0,0,0,.1-.272c-.029-.12-.189-.194-.458-.249a3.966,3.966,0,0,0-1.394,0c-.62.077-.933.117-1.035.138A6.774,6.774,0,0,0-117.1,50.143Z" transform="translate(144.076 -21.075)" fill="#f9978a"/>
      </g>
      <text id="No_utilizar_el_sentido_común_" data-name="No utilizar el sentido común " transform="translate(68.334 186.932)" fill="#4880a1" font-size="16" font-family="Roboto-Bold, Roboto" font-weight="700"><tspan x="26.791" y="17">No utilizar el </tspan><tspan x="18.869" y="39">sentido común </tspan></text>
      <rect id="Rectángulo_39842" data-name="Rectángulo 39842" width="280" height="237" transform="translate(0.334 0.095)" fill="none"/>
    </g>
    <ellipse id="Elipse_832" data-name="Elipse 832" cx="75.096" cy="75.096" rx="75.096" ry="75.096" transform="translate(475.6 2316.486)" fill="#fff"/>
    <path id="Trazado_37314" data-name="Trazado 37314" d="M-506.386,156.745a77.988,77.988,0,0,1-77.9-77.9,77.988,77.988,0,0,1,77.9-77.9,77.987,77.987,0,0,1,77.9,77.9A77.987,77.987,0,0,1-506.386,156.745Zm0-150.244a72.427,72.427,0,0,0-72.345,72.345,72.427,72.427,0,0,0,72.345,72.345,72.427,72.427,0,0,0,72.345-72.345A72.427,72.427,0,0,0-506.386,6.5Z" transform="translate(1057.837 2311.262)" fill="url(#linear-gradient)"/>
    <g id="Grupo_108376" data-name="Grupo 108376" transform="translate(492.001 2339.658)">
      <path id="Trazado_37315" data-name="Trazado 37315" d="M-553.6,76.329a19.645,19.645,0,0,0,1.093,16.63,19.525,19.525,0,0,0,26.584,7.7,19.694,19.694,0,0,0,7.712-26.582l-.058-.118a19.538,19.538,0,0,0-20.073-9.923c-3.709-6.687-3.494-6.246-7.2-12.933l-11.706,6.491c3.662,6.716,3.408,6.305,7.069,13.012A19.429,19.429,0,0,0-553.6,76.329Z" transform="translate(561.777 -30.452)" fill="#cae3f8"/>
      <path id="Trazado_37316" data-name="Trazado 37316" d="M-560.136,56.911a1.759,1.759,0,0,0,2.386.691l12.539-6.959a1.775,1.775,0,0,0,.688-2.4,1.759,1.759,0,0,0-2.386-.691l-12.539,6.959A1.775,1.775,0,0,0-560.136,56.911Z" transform="translate(562.195 -30.121)" fill="#bed8f1"/>
      <path id="Trazado_37317" data-name="Trazado 37317" d="M-527.941,121.771a1.578,1.578,0,0,1-.176.736h-13.707a1.577,1.577,0,0,1-.175-.736,1.712,1.712,0,0,1,1.709-1.706h10.651A1.7,1.7,0,0,1-527.941,121.771Z" transform="translate(561.27 -32.762)" fill="#1e4e90"/>
      <path id="Trazado_37318" data-name="Trazado 37318" d="M-523.947,124.233a1.658,1.658,0,0,1-1.65,1.656h-18.979a1.657,1.657,0,0,1-1.649-1.656,1.658,1.658,0,0,1,1.649-1.657H-525.6A1.658,1.658,0,0,1-523.947,124.233Z" transform="translate(561.405 -32.86)" fill="#5373ac"/>
      <path id="Trazado_37319" data-name="Trazado 37319" d="M-537.313,117.5a3.383,3.383,0,0,0,2.358.972,3.385,3.385,0,0,0,2.358-.972c1.257-1.373.394-4.93-2.358-8.627C-537.707,112.569-538.569,116.125-537.313,117.5Z" transform="translate(561.141 -32.4)" fill="#bb5a9b"/>
      <path id="Trazado_37320" data-name="Trazado 37320" d="M-552.44,93.607a19.525,19.525,0,0,0,26.584,7.7,19.694,19.694,0,0,0,7.712-26.582,17.479,17.479,0,0,1-7.41,4.245c-8.338,2.236-13.727-3.794-23.391-2.912a21.846,21.846,0,0,0-4.589.922A19.646,19.646,0,0,0-552.44,93.607Z" transform="translate(561.69 -31.242)" fill="#bb5a9b"/>
      <path id="Trazado_37321" data-name="Trazado 37321" d="M-525.059,89.234a2.586,2.586,0,0,0,2.581,2.592,2.586,2.586,0,0,0,2.58-2.592,2.587,2.587,0,0,0-2.58-2.593A2.587,2.587,0,0,0-525.059,89.234Z" transform="translate(560.671 -31.551)" fill="#9d2a8a"/>
      <path id="Trazado_37322" data-name="Trazado 37322" d="M-545.21,80.369a1.321,1.321,0,0,0,1.319,1.324,1.321,1.321,0,0,0,1.318-1.324,1.322,1.322,0,0,0-1.318-1.325A1.322,1.322,0,0,0-545.21,80.369Z" transform="translate(561.419 -31.26)" fill="#9d2a8a"/>
      <path id="Trazado_37323" data-name="Trazado 37323" d="M-533.006,89.276a1.11,1.11,0,0,0,1.108,1.113,1.11,1.11,0,0,0,1.108-1.113,1.111,1.111,0,0,0-1.108-1.114A1.111,1.111,0,0,0-533.006,89.276Z" transform="translate(560.972 -31.591)" fill="#9d2a8a"/>
      <path id="Trazado_37324" data-name="Trazado 37324" d="M-550.49,88.107a1.944,1.944,0,0,0,1.939,1.948,1.943,1.943,0,0,0,1.938-1.948,1.943,1.943,0,0,0-1.938-1.947A1.944,1.944,0,0,0-550.49,88.107Z" transform="translate(561.61 -31.526)" fill="#9d2a8a"/>
      <path id="Trazado_37325" data-name="Trazado 37325" d="M-543.232,95.455a3.322,3.322,0,0,0,3.314,3.329,3.322,3.322,0,0,0,3.316-3.329,3.323,3.323,0,0,0-3.316-3.33A3.322,3.322,0,0,0-543.232,95.455Z" transform="translate(561.336 -31.762)" fill="#9d2a8a"/>
      <path id="Trazado_37326" data-name="Trazado 37326" d="M-508.816,123.52l-6.7-38.845h.841a1.249,1.249,0,0,0,1.242-1.248,1.249,1.249,0,0,0-1.242-1.248h-41.953a1.249,1.249,0,0,0-1.242,1.248,1.249,1.249,0,0,0,1.242,1.248h1.126l-6.72,38.931a1.033,1.033,0,0,0,.722,1.255,1.029,1.029,0,0,0,1.1-.938l6.775-39.249H-517.4l6.76,39.162a1.026,1.026,0,0,0,1.1.933A1.031,1.031,0,0,0-508.816,123.52Z" transform="translate(562.247 -31.636)" fill="#5373ac"/>
      <path id="Trazado_37327" data-name="Trazado 37327" d="M-470.428,93.282h1.227a1.848,1.848,0,0,0,1.845-1.853,1.849,1.849,0,0,0-1.845-1.853h-24.452A1.849,1.849,0,0,0-495.5,91.43a1.848,1.848,0,0,0,1.844,1.853h.84l-3.591,33.236a.491.491,0,0,0,.418.539.489.489,0,0,0,.55-.419l2.953-21.589h21.724l2.953,21.589a.49.49,0,0,0,.536.421.49.49,0,0,0,.433-.541Zm-21.853,10.3,1.408-10.3h18.5l1.408,10.3Z" transform="translate(559.459 -31.883)" fill="#5373ac"/>
      <path id="Trazado_37328" data-name="Trazado 37328" d="M-458.533,81.134a11.067,11.067,0,0,0-6.668,3.442,10.616,10.616,0,0,0-2.2,3.775h-23.6a5.862,5.862,0,0,1-2.03-1.079c-2.46-2.02-3.056-6.1-1.856-10.394a40.235,40.235,0,0,0,.985-6.45c.02-.167.03-.345.04-.521a4.466,4.466,0,0,1-2.587-1.1c-.742-.726-1.24-1.755-1.454-3.864-.03-.294-.05-.568-.069-.863-.01-.216-.019-.432-.029-.656-.566-13.091,6.082-17.14,6.082-17.14A9.786,9.786,0,0,1-488.6,45c1.4.009,2.761.028,4.147.038a4.8,4.8,0,0,1,1.574.334c2.314.951,2.948,3.579,4.608,7.707,1.924,4.766,2.919,7.158,4.559,7.511,1.211.265,2.479-.4,4.881-1.716a24.015,24.015,0,0,0,3.095-2.02c.907.882,1.806,1.775,2.714,2.667a29.486,29.486,0,0,1-4.178,3.6c-3.007,2.138-5.428,3.834-7.81,3.108-.527-.157-2.246-.8-3.505-3.677q.029,3.883.157,7.922c.068,1.942.146,3.845.254,5.717,10.085,1.569,17.386,2.981,18.285,3.491a3.214,3.214,0,0,1,1.035.951A2.449,2.449,0,0,1-458.533,81.134Z" transform="translate(559.441 -30.157)" fill="#afe1e1"/>
      <path id="Trazado_37329" data-name="Trazado 37329" d="M-460.793,126.814c-.01.058-.107.137-.117.147a.582.582,0,0,1-.264.118h-8.63a.837.837,0,0,1-.664-.187c-.351-.324-.254-.931.01-1.872.284-.971.752-2.277,1.1-3.973a27.412,27.412,0,0,0,.42-3.031c.234-2.1.205-3.451.479-5.687.927-7.6,3.231-8.4,3.612-14.335a23.732,23.732,0,0,0-.361-5.844c-.118-.471-.233-.913-.361-1.334.342.392.693.774,1.045,1.166.517.638,1,1.275,1.426,1.883a31.978,31.978,0,0,1,2.48,4.187c.107.216.2.411.293.618s.185.392.264.579c.361.824.644,1.578.868,2.265q-3.441,10.118-6.9,20.229c-.351,1.52-.146,1.873-.146,1.873a1.718,1.718,0,0,0,.487.471,7.763,7.763,0,0,0,.831.49c.341.2.536.316.78.443.264.157.587.314,1.26.637C-461.827,126.167-460.734,126.618-460.793,126.814Z" transform="translate(558.623 -31.922)" fill="#f79083"/>
      <path id="Trazado_37330" data-name="Trazado 37330" d="M-470.467,127.857a.869.869,0,0,0,.664.187h8.63a.606.606,0,0,0,.264-.118c.011-.011.107-.093.117-.147.064-.2-1.042-.648-2.088-1.157-.676-.329-1-.488-1.26-.637h-6.316C-470.721,126.919-470.816,127.539-470.467,127.857Z" transform="translate(558.635 -32.976)" fill="#26376e"/>
      <path id="Trazado_37331" data-name="Trazado 37331" d="M-440.664,126.613a.3.3,0,0,1-.176.226.264.264,0,0,1-.125.026h-9.02a.819.819,0,0,1-.1-.026.455.455,0,0,1-.146-.108.312.312,0,0,1-.069-.186c-.088-.451-.2-1.049-.37-1.765-.1-.392-.2-.817-.331-1.278-1.386-4.912-3.4-7.629-4.784-10.139-2.938-5.314-1.67-7.214-3.291-12.088-.225-.687-.508-1.441-.868-2.265-.079-.187-.166-.382-.264-.579s-.186-.411-.293-.618a32.027,32.027,0,0,0-2.48-4.187c-.43-.608-.908-1.245-1.426-1.883-.351-.392-.7-.774-1.045-1.166q-.541-.6-1.082-1.208a10.616,10.616,0,0,1,2.2-3.775,11.067,11.067,0,0,1,6.668-3.442c.186.579.332,1.157.488,1.746,0-.019.01-.039.01-.058q4.305,18.532,8.61,37.044a4.342,4.342,0,0,0,1.406,2.618,14.446,14.446,0,0,0,2.509,1.108s.145.072.4.17c.839.343,2.783,1.157,3.417,1.48A.306.306,0,0,1-440.664,126.613Z" transform="translate(558.154 -31.654)" fill="#f9978a"/>
      <path id="Trazado_37332" data-name="Trazado 37332" d="M-450.223,125.983c.166.716.283,1.314.371,1.765a.312.312,0,0,0,.069.186.456.456,0,0,0,.146.108h9.245a.3.3,0,0,0,.176-.226.306.306,0,0,0-.166-.353c-.634-.323-2.577-1.137-3.417-1.48Z" transform="translate(557.707 -32.976)" fill="#26376e"/>
      <path id="Trazado_37333" data-name="Trazado 37333" d="M-478.637,68.587a31.968,31.968,0,0,1-3.5,1.274,32.653,32.653,0,0,1-11.645,1.205c.014-.187.026-.372.04-.559a32.262,32.262,0,0,0,4.562.082,32.856,32.856,0,0,0,10.519-2.345C-478.651,68.358-478.644,68.473-478.637,68.587Z" transform="translate(559.46 -30.865)" fill="#88c8c7"/>
      <path id="Trazado_37334" data-name="Trazado 37334" d="M-492.225,54.166c-.553,2.02-.931,3.775-1.191,5.157-.8,4.269-.264,5.043-.029,5.342.836,1.069,2.431,1.24,5.25,1.047,2.5-.171,5.351-.581,5.331-.762-.015-.13-1.512.043-4.4-.055-3.288-.112-4.964-.171-5.575-1.007-.632-.866-.283-1.793.244-5.475A38.031,38.031,0,0,0-492.225,54.166Z" transform="translate(559.488 -30.378)" fill="#88c8c7"/>
      <path id="Trazado_37335" data-name="Trazado 37335" d="M-482.94,53.791c-.624.235-2.437-2.7-5.4-8.788,1.377.01,2.761.028,4.147.038C-482.783,50.65-482.354,53.575-482.94,53.791Z" transform="translate(559.316 -30.029)" fill="#fff"/>
      <path id="Trazado_37336" data-name="Trazado 37336" d="M-479.368,67.3a.41.41,0,0,0-.532.231.413.413,0,0,0,.231.534.409.409,0,0,0,.532-.232A.412.412,0,0,0-479.368,67.3Z" transform="translate(559.036 -30.821)" fill="#fff"/>
      <path id="Trazado_37337" data-name="Trazado 37337" d="M-481.308,67.657a.409.409,0,0,0-.531.231.411.411,0,0,0,.231.534.408.408,0,0,0,.531-.232A.411.411,0,0,0-481.308,67.657Z" transform="translate(559.108 -30.835)" fill="#fff"/>
      <path id="Trazado_37338" data-name="Trazado 37338" d="M-480.482,36.054c-.029-.2-.058-.363-.1-.519a6.419,6.419,0,0,1-1-1.177,6.371,6.371,0,0,1-.976-2.53,9.684,9.684,0,0,1-5.428,5.226.934.934,0,0,0-1.357-.186,1.217,1.217,0,0,0-.3,1.108,1.774,1.774,0,0,0,1.5,1.255,6.951,6.951,0,0,1,.2,3.148,6.892,6.892,0,0,1-.789,2.2,9.787,9.787,0,0,0-3.31,1.283s-6.648,4.05-6.082,17.14c.01.225.02.441.029.656.019.295.039.569.069.824-3.662-2.255-4.52-4.285-4.618-5.726-.254-3.5,2.851-4.55,4.07-8.982,1.25-4.569-.868-5.834.889-8.707,1.581-2.578,3.885-2.03,6.033-5.657.655-1.1,1.143-2.892,2.275-4.01,2.949-2.942,8.493-2.207,10.1.588C-478.3,33.664-478.255,36.153-480.482,36.054Z" transform="translate(559.738 -29.513)" fill="#26376e"/>
      <path id="Trazado_37339" data-name="Trazado 37339" d="M-480.624,40.334c-.313.706-1.133,2.52-2.637,2.726a2.157,2.157,0,0,1-.781-.039c-.058.549-.116,1.111-.174,1.66a3.423,3.423,0,0,1-1.69.673,3.055,3.055,0,0,1-1.006-.049,3.7,3.7,0,0,1-1.451-.662,6.891,6.891,0,0,0,.789-2.2,6.949,6.949,0,0,0-.2-3.148,1.775,1.775,0,0,1-1.5-1.255,1.217,1.217,0,0,1,.3-1.108.934.934,0,0,1,1.357.186,9.684,9.684,0,0,0,5.428-5.226,6.371,6.371,0,0,0,.976,2.53,6.416,6.416,0,0,0,1,1.177c.039.157.068.323.1.519A7.29,7.29,0,0,1-480.624,40.334Z" transform="translate(559.329 -29.553)" fill="#f9978a"/>
      <path id="Trazado_37340" data-name="Trazado 37340" d="M-472.313,58.191c0,.212-.126.387-.279.387h-2.273c-.153,0-.279-.175-.279-.387s.126-.387.279-.387h2.273C-472.439,57.8-472.313,57.979-472.313,58.191Z" transform="translate(558.849 -30.475)" fill="#bed8f1"/>
      <path id="Trazado_37341" data-name="Trazado 37341" d="M-470.759,66.944l-1.937-4.7c0-1.215-.012-2.429-.016-3.644h-2.123l-.012,3.693-1.912,4.651a1.231,1.231,0,0,0,.173.971.807.807,0,0,0,.673.331h4.307a.809.809,0,0,0,.674-.331A1.241,1.241,0,0,0-470.759,66.944Z" transform="translate(558.888 -30.536)" fill="#cae3f8"/>
      <path id="Trazado_37342" data-name="Trazado 37342" d="M-470.759,67.027l-1.937-4.7c0-1.215-.012.512-.016-.7h-2.123c0,1.23-.008-.48-.012.751l-1.912,4.651a1.231,1.231,0,0,0,.173.971.807.807,0,0,0,.673.331h4.307a.809.809,0,0,0,.674-.331A1.241,1.241,0,0,0-470.759,67.027Z" transform="translate(558.888 -30.636)" fill="#bb5a9b"/>
      <path id="Trazado_37343" data-name="Trazado 37343" d="M-471.792,64.551a1.955,1.955,0,0,1-.654,1.039c-1.318,1.206-4.725,1.912-5.808,2.118-.059-1.128-.118-2.236-.176-3.363,1.581-.177,2.138-.588,2.333-.991a3.4,3.4,0,0,1,.762-1.1,3.083,3.083,0,0,1,.459-.333c.01.431.01.863.01,1.3a3.212,3.212,0,0,0,1.035.011c.8-.138,1.025-.53,1.405-.412C-471.939,62.971-471.646,63.854-471.792,64.551Z" transform="translate(558.945 -30.644)" fill="#26376e"/>
      <path id="Trazado_37344" data-name="Trazado 37344" d="M-466.976,53.591a.327.327,0,0,1,.062.445l-1.561,1.61a.322.322,0,0,1-.444-.051.325.325,0,0,1-.061-.444l1.56-1.61A.323.323,0,0,1-466.976,53.591Z" transform="translate(558.63 -30.321)" fill="#bed8f1"/>
      <path id="Trazado_37345" data-name="Trazado 37345" d="M-466.86,54.254l5.938,5.805a1.068,1.068,0,0,1,.022,1.5,1.059,1.059,0,0,1-1.5.019l-5.938-5.805a1,1,0,0,1-.105-.12l1.456-1.5A1.11,1.11,0,0,1-466.86,54.254Z" transform="translate(558.567 -30.364)" fill="#cae3f8"/>
      <path id="Trazado_37346" data-name="Trazado 37346" d="M-460.869,61.608a.99.99,0,0,1-1.384.128l-.742-.726-4.374-4.285,2.191-.806,4.4,4.3A1.213,1.213,0,0,1-460.869,61.608Z" transform="translate(558.535 -30.424)" fill="#417bff"/>
      <path id="Trazado_37347" data-name="Trazado 37347" d="M-464.3,58.9c-.656-.738-1.133-2.083-.529-2.719.508-.535,1.577-.358,2.22-.028,1.447.74,2.075,2.935,1.4,3.6C-461.792,60.315-463.435,59.877-464.3,58.9Z" transform="translate(558.472 -30.415)" fill="#26376e"/>
    </g>
    <text id="Actividades_de_indiferencia" data-name="Actividades de indiferencia" transform="translate(466.375 2484)" fill="#4880a1" font-size="16" font-family="Roboto-Bold, Roboto" font-weight="700"><tspan x="31.404" y="17">Actividades de </tspan><tspan x="41.786" y="39">indiferencia</tspan></text>
    <rect id="Rectángulo_39843" data-name="Rectángulo 39843" width="282" height="237" transform="translate(410 2300.895)" fill="none"/>
  </g>
</svg>
