<svg xmlns="http://www.w3.org/2000/svg" xmlns:xlink="http://www.w3.org/1999/xlink" width="1097.6" height="879.839" viewBox="0 0 1097.6 879.839">
  <defs>
    <clipPath id="clip-path">
      <path id="Trazado_37452" data-name="Trazado 37452" d="M-418.76-383.135c.171,4.417-2.192,10.15-8.023,10.142-4.576-.006-6.574-5.925-6.5-10.421.072-4.3,4.485-4.719,7.8-4.671C-422.623-388.043-418.935-387.682-418.76-383.135Z" fill="none"/>
    </clipPath>
    <clipPath id="clip-path-2">
      <rect id="Rectángulo_3525" data-name="Rectángulo 3525" width="181.117" height="189.483" transform="translate(0 -411.343)" fill="none"/>
    </clipPath>
    <clipPath id="clip-path-3">
      <rect id="Rectángulo_3526" data-name="Rectángulo 3526" width="181.117" height="189.483" transform="translate(-527.866 -1.053)" fill="none"/>
    </clipPath>
    <clipPath id="clip-path-4">
      <rect id="Rectángulo_3483" data-name="Rectángulo 3483" width="181.117" height="189.483" transform="translate(-3.245 17.81)" fill="none"/>
    </clipPath>
  </defs>
  <g id="Grupo_108442" data-name="Grupo 108442" transform="translate(-266.4 -3968.161)">
    <rect id="Rectángulo_3534" data-name="Rectángulo 3534" width="478.2" height="228.468" rx="13" transform="translate(266.4 4597.531)" fill="#fff"/>
    <text id="Zapatos:_En_el_caso_de_los_laboratorios_se_debe_usar_zapatos_totalmente_cerrados_y_que_no_sean_de_cuero_o_cuero_sintético_no_se_podrá_usar_sandalias_o_cualquier_zapato_que_deje_piel_al_descubierto_ni_con_tacones._INS_2011_p.40_." data-name="Zapatos:
En el caso de los laboratorios se debe usar zapatos totalmente cerrados y que no sean de cuero o cuero sintético, no se podrá usar sandalias o cualquier zapato que deje piel al descubierto ni con tacones. (INS, 2011, p.40)." transform="translate(302.8 4650.789)" fill="#12263f" font-size="16" font-family="ArialMT, Arial"><tspan x="0" y="14">Zapatos:</tspan><tspan x="0" y="38">En el caso de los laboratorios se debe usar zapatos </tspan><tspan x="0" y="62">totalmente cerrados y que no sean de cuero o cuero </tspan><tspan x="0" y="86">sintético, no se podrá usar sandalias o cualquier zapato </tspan><tspan x="0" y="110">que deje piel al descubierto ni con tacones. (INS, 2011, </tspan><tspan x="0" y="134">p.40).</tspan></text>
    <g id="Rectángulo_39341" data-name="Rectángulo 39341" transform="translate(280 4572)" fill="none" stroke="#367ea4" stroke-width="2">
      <rect width="451" height="266" rx="15" stroke="none"/>
      <rect x="1" y="1" width="449" height="264" rx="14" fill="none"/>
    </g>
    <rect id="Rectángulo_39828" data-name="Rectángulo 39828" width="478" height="237.402" rx="13" transform="translate(266.5 4121.799)" fill="#fff"/>
    <text id="Instrumental_de_campo_o_vestimenta_Guardapolvo_blanco_:_Primero_se_debe_aclarar_que_la_ropa_utilizada_en_laboratorio_o_en_campo_debe_proteger_tanto_de_salpicaduras_como_de_derrames_preferiblemente_un_guardapolvo_blanco_si_es_para_uno_de_cuencas_de_agu" data-name="Instrumental de campo o vestimenta (Guardapolvo blanco): 
Primero se debe aclarar que la ropa utilizada en laboratorio o en campo, debe proteger tanto de salpicaduras como de derrames, preferiblemente un guardapolvo blanco, si es para uno de cuencas de agu" transform="translate(302.8 4181.789)" fill="#12263f" font-size="16" font-family="ArialMT, Arial"><tspan x="0" y="14">Instrumental de campo o vestimenta (Guardapolvo blanco): </tspan><tspan x="0" y="38">Primero se debe aclarar que la ropa utilizada en laboratorio </tspan><tspan x="0" y="62">o en campo, debe proteger tanto de salpicaduras como de </tspan><tspan x="0" y="86">derrames, preferiblemente un guardapolvo blanco, si es </tspan><tspan x="0" y="110">para uno de cuencas de agua contaminadas este debe ser </tspan><tspan x="0" y="134">impermeable (Sociedad Americana de química, 2003, p.4).</tspan></text>
    <g id="Rectángulo_39338" data-name="Rectángulo 39338" transform="translate(280 4102)" fill="none" stroke="#367ea4" stroke-width="2">
      <rect width="451" height="284" rx="15" stroke="none"/>
      <rect x="1" y="1" width="449" height="282" rx="14" fill="none"/>
    </g>
    <g id="Grupo_11187" data-name="Grupo 11187" transform="translate(926.845 4379.504)" style="isolation: isolate">
      <path id="Trazado_37383" data-name="Trazado 37383" d="M-501.891-311.56s-4.032-14.876,9.951-28.668,3.063-23.346,10.121-42.005c4.417-11.676,16.316-22.292,39.92-22.457s29.606,17.835,39.275,20.475c17.536,4.789,26.886-2.91,38.177,5.284,14.56,10.568,2.373,27.911,4.74,39.146,3.387,16.075,11.862,17.3,11.507,28.225" fill="#dceef7"/>
      <path id="Trazado_37384" data-name="Trazado 37384" d="M-358.135-345.409a24.675,24.675,0,0,0,1.331,10.767c2.065,5.868,5.327,9.975,9.123,9.872s4.461-6.1,2-11.927-1-10.8-2.6-14.626S-358.069-354.428-358.135-345.409Z" fill="#dceef7"/>
      <path id="Trazado_37385" data-name="Trazado 37385" d="M-488.733-356.438a19.324,19.324,0,0,1-3.129,9.287,29.862,29.862,0,0,1-6.644,7.218c-2.458,1.882-8.2.046-3.343-7.218s7.432-9.747,7.7-13.022S-488.346-363.171-488.733-356.438Z" fill="#dceef7"/>
      <path id="Trazado_37386" data-name="Trazado 37386" d="M-348.716-311.858s4.032,14.876-9.951,28.669-3.063,23.345-10.121,42c-4.417,11.676-16.316,22.292-39.92,22.457s-29.606-17.835-39.275-20.475c-17.536-4.789-26.886,2.911-38.177-5.284-14.56-10.568-2.373-27.911-4.741-39.146-3.387-16.074-11.862-17.3-11.506-28.225" fill="#dceef7"/>
      <path id="Trazado_37387" data-name="Trazado 37387" d="M-492.472-278.009a24.663,24.663,0,0,0-1.332-10.766c-2.064-5.869-5.327-9.976-9.122-9.873s-4.461,6.1-2,11.927,1,10.8,2.6,14.627S-492.538-268.99-492.472-278.009Z" fill="#dceef7"/>
      <path id="Trazado_37388" data-name="Trazado 37388" d="M-361.874-266.979a19.326,19.326,0,0,1,3.129-9.288,29.838,29.838,0,0,1,6.644-7.217c2.457-1.883,8.2-.047,3.343,7.217s-7.432,9.747-7.7,13.022S-362.261-260.246-361.874-266.979Z" fill="#dceef7"/>
      <path id="Trazado_37389" data-name="Trazado 37389" d="M-417.616-370.971c1.873-3.735,3.648-9.123,2.338-17.957a10.242,10.242,0,0,0-10.646-8.938c-6.1.024-10.006,5.871-10.375,13.758a25.345,25.345,0,0,0,3.275,13.468c1.371,2.454,2.609,3.461,6.669,3.461C-423.838-367.179-419.786-366.643-417.616-370.971Z" fill="#fff"/>
      <path id="Trazado_37390" data-name="Trazado 37390" d="M-425.828-388.088h-1.677c0-.267-.209-6.639,1.783-9.771a4.384,4.384,0,0,1,1.808.122C-425.971-394.755-425.828-388.149-425.828-388.088Z" fill="#487fff"/>
      <path id="Trazado_37391" data-name="Trazado 37391" d="M-441.528-364.383c-.348,5.907.508,13.612.539,20.128.035,7.421,1.692,10.507,3.713,11.915,2.558,1.783,6.659,3.169,12.547,3.141,11.408-.054,11.4-1.335,13.652-5.627.807-1.538,1.128-4.753,1.368-7.25.3-3.073,1.306-5.346,1.288-9.142-.05-10.563,2.43-15.4-.078-16.329-4.992-1.841-8.915-4.746-9.627-4.3-1.113.693-3.458,1.669-7.862,1.69-3,.015-4.249-2.515-6.637-2.356-1.366.091-1.558,1.031-3.114,1.81C-439.311-368.918-441.328-367.775-441.528-364.383Z" fill="#fff"/>
      <path id="Trazado_37392" data-name="Trazado 37392" d="M-405.717-306.448c.484-10-2.527-21.969-5.36-28.378a15.81,15.81,0,0,1-6.112.973c-3.689.017-17.032-1.895-19.955-2.8-2.461,3.113-6.851,6.365-6.782,27.828.026,8.1,1.059,14.058,2.024,20.808.925,6.478,1.986,8.394,1.575,9.772-.286.959,1.134,1.271,1.14,2.479,0,.419-.434.8-.7,1.812-.294,1.127.24,8.188.6,11.58.9,7.313,2.229,21.252,5.188,22.713a.185.185,0,0,1,.037.3,82.633,82.633,0,0,1-6.914,5.853c-2.4,1.625-3.312,2.128-3.138,3.787s1.483,2.334,9.255,1.708,8.291-.646,8.62-1.793c.88-3.076.286-7.014-.9-8.8,1.369-1.106,2.215-17.211,2.138-24.566a.061.061,0,0,1,.122-.005c.666,6.067.08,11.444,1.4,25.032a2.071,2.071,0,0,0,.876,1.654.127.127,0,0,1,.056.152c-.288.84-2.215,6.638-1.641,9.426.393,1.907,2.185,3.227,5.847,2.919,3.466-.291,5.05-.893,4.866-4.631-.161-3.275-2.352-6.464-2.769-7.89a.133.133,0,0,1,.115-.168c2.128-.306,4.378-13.792,5.388-27.242.549-7.65.8-11,.8-11,0-.531.729-.944.318-2.7a2.119,2.119,0,0,1-.047-1.184C-407.714-284.473-406.221-296.041-405.717-306.448Z" fill="#fff"/>
      <path id="Trazado_37393" data-name="Trazado 37393" d="M-433.125-370.242c-.8-.9-2.7-.8-3.809-.574-1.071.223-2.032,1.716-2.117,1.722a3.8,3.8,0,0,0-2.007.6c-.912.782-.843,1.817-1.2,2-5.316,2.775-6.2,8.761-7.363,12.94-1.5,5.375-3.13,10.848-1.025,17.217a4.809,4.809,0,0,0,6.51,3.031c6.258-3.094,7.382-8.168,10.168-30.98C-433.776-365.853-432.812-368.691-433.125-370.242Z" fill="#fff"/>
      <path id="Trazado_37394" data-name="Trazado 37394" d="M-417.007-371.5a11.757,11.757,0,0,1,4.473,1.125,2.659,2.659,0,0,1,3.54,1.846,2.821,2.821,0,0,1,2.631,2.3c3.806,4.138,7.959,11.554,9.826,15.055,2.585,4.846,5.839,16.673,3.754,19.61-2.414,3.4-6.027.943-7.61.541-.515-.131-16.686-12.812-12.122-31.356C-412.207-363.629-417.548-370.322-417.007-371.5Z" fill="#fff"/>
      <path id="Trazado_37395" data-name="Trazado 37395" d="M-410.761-274.626c-1.464.631-2.717,1.682-4.276,2.1a.176.176,0,0,1-.093-.339c1.528-.4,2.756-1.441,4.192-2.06.2-.089.384.213.177.3Z" fill="#9fc6e6"/>
      <path id="Trazado_37396" data-name="Trazado 37396" d="M-411.015-277.651c-3.4,1.363-6.964,2.511-10.636,1.607-.219-.053-.126-.392.094-.338,3.6.887,7.115-.272,10.449-1.607.21-.084.3.255.093.338Z" fill="#9fc6e6"/>
      <path id="Trazado_37397" data-name="Trazado 37397" d="M-427.2-271.321c-4.089-.143-8.145-.631-11.633-2.94-.188-.124-.012-.428.177-.3,3.436,2.275,7.427,2.751,11.456,2.892.225.008.226.359,0,.351Z" fill="#9fc6e6"/>
      <path id="Trazado_37398" data-name="Trazado 37398" d="M-438.466-276.493a9.641,9.641,0,0,0,4.981.925.176.176,0,0,1,0,.351,9.989,9.989,0,0,1-5.158-.973.176.176,0,0,1,.177-.3Z" fill="#9fc6e6"/>
      <path id="Trazado_37399" data-name="Trazado 37399" d="M-439.068-279.187c2.679,1.473,6.167,2.353,9.182,1.56a.175.175,0,0,1,.093.338c-3.107.818-6.692-.077-9.452-1.6-.2-.109-.021-.412.177-.3Z" fill="#9fc6e6"/>
      <path id="Trazado_37400" data-name="Trazado 37400" d="M-423.974-272.228c-.439-.755-1.356-2.01-1.373-2.947a.711.711,0,0,1,.093-.411c.1-.182.456-.269.52-.449.21-.6-.215-.422-.375-.69-.565-.948-.19-2.464-.129-3.556.1-1.85.238-3.7.245-5.552.014-3.422-.67-6.8-.88-10.213-.188-3.054-.215-6.115-.407-9.169-.015-.226.336-.225.35,0,.181,2.863.216,5.733.374,8.6.179,3.237.817,6.441.9,9.678.043,1.627-.038,3.255-.131,4.879-.051.89-.108,1.779-.152,2.669a3.952,3.952,0,0,0,.413,2.671c.246.394.4.511.036.933-.4.459-.543.572-.3,1.189a16.194,16.194,0,0,0,1.115,2.193.176.176,0,0,1-.3.177Z" fill="#9fc6e6"/>
      <path id="Trazado_37401" data-name="Trazado 37401" d="M-426.693-305.8c2.891-3.176,5.784-6.853,10.14-7.967a.175.175,0,0,1,.093.338c-4.291,1.1-7.138,4.75-9.985,7.877-.152.168-.4-.081-.248-.248Z" fill="#9fc6e6"/>
      <path id="Trazado_37402" data-name="Trazado 37402" d="M-426.327-305.366a38.893,38.893,0,0,1,11.137-3.769c.22-.046.314.292.093.339a38.558,38.558,0,0,0-11.053,3.733c-.2.11-.375-.193-.177-.3Z" fill="#9fc6e6"/>
      <path id="Trazado_37403" data-name="Trazado 37403" d="M-428.154-305.858c-2.227-1.752-5.483-1.744-8.163-1.346-.221.033-.316-.3-.093-.338,2.817-.418,6.163-.406,8.5,1.436.177.139-.073.386-.248.248Z" fill="#9fc6e6"/>
      <path id="Trazado_37404" data-name="Trazado 37404" d="M-429.679-308.064a8.013,8.013,0,0,0-5.359-1.313c-.224.024-.222-.327,0-.35a8.3,8.3,0,0,1,5.536,1.36c.183.129.008.433-.177.3Z" fill="#9fc6e6"/>
      <path id="Trazado_37405" data-name="Trazado 37405" d="M-413.39-334.333a22.884,22.884,0,0,1,1.556,8.393c-.007.225-.358.226-.351,0a22.629,22.629,0,0,0-1.543-8.3c-.076-.214.263-.3.338-.094Z" fill="#9fc6e6"/>
      <path id="Trazado_37406" data-name="Trazado 37406" d="M-418.911-333.351a17.9,17.9,0,0,1,.224,6.9c-.048.221-.386.127-.338-.093a17.38,17.38,0,0,0-.224-6.718c-.038-.221.3-.316.338-.093Z" fill="#9fc6e6"/>
      <path id="Trazado_37407" data-name="Trazado 37407" d="M-436.381-333.63a21.622,21.622,0,0,0-2.557,8.721c-.008.225-.359.226-.351,0a22.111,22.111,0,0,1,2.605-8.9c.1-.2.4-.025.3.177Z" fill="#9fc6e6"/>
      <path id="Trazado_37408" data-name="Trazado 37408" d="M-419.263-333.187a29.664,29.664,0,0,0,1.464-9.084.176.176,0,0,1,.351,0,30,30,0,0,1-1.476,9.178c-.073.212-.412.121-.339-.094Z" fill="#9fc6e6"/>
      <path id="Trazado_37409" data-name="Trazado 37409" d="M-412.6-349.208a9.452,9.452,0,0,0,1.173-9.141c-.074-.213.265-.3.338-.093a9.788,9.788,0,0,1-1.263,9.482c-.141.177-.388-.073-.248-.248Z" fill="#9fc6e6"/>
      <path id="Trazado_37410" data-name="Trazado 37410" d="M-413.178-341.548a12.659,12.659,0,0,1-.7,7.456c-.085.205-.425.115-.338-.093a12.342,12.342,0,0,0,.7-7.27c-.046-.22.292-.314.338-.093Z" fill="#9fc6e6"/>
      <path id="Trazado_37411" data-name="Trazado 37411" d="M-425.755-333.265a15.045,15.045,0,0,1,.717,8.027c-.04.222-.378.128-.338-.093a14.732,14.732,0,0,0-.717-7.841c-.078-.212.261-.3.338-.093Z" fill="#9fc6e6"/>
      <path id="Trazado_37412" data-name="Trazado 37412" d="M-425.162-340.456a12,12,0,0,1-.608,7.258c-.085.206-.424.116-.338-.093a11.682,11.682,0,0,0,.608-7.072c-.05-.22.288-.314.338-.093Z" fill="#9fc6e6"/>
      <path id="Trazado_37413" data-name="Trazado 37413" d="M-436.237-333.674c-.888-2.241-2.193-4.291-2.445-6.736-.023-.224.328-.222.351,0,.247,2.4,1.56,4.443,2.433,6.643.083.21-.256.3-.339.093Z" fill="#9fc6e6"/>
      <path id="Trazado_37414" data-name="Trazado 37414" d="M-428.775-373.356a15.674,15.674,0,0,0-2.2,4.679,56.966,56.966,0,0,0-1.881,7.307,106.242,106.242,0,0,0-1.585,19.312,162.781,162.781,0,0,0,.536,16.543,55.731,55.731,0,0,0,2.137,11.9,23.145,23.145,0,0,0,3.421,6.956,6.5,6.5,0,0,0,2.2,2.083c.206.092.028.394-.177.3a5.648,5.648,0,0,1-1.746-1.487,20.19,20.19,0,0,1-3.341-5.828A44.376,44.376,0,0,1-434-323a141.555,141.555,0,0,1-.811-16.953,118.9,118.9,0,0,1,1.256-19.559,61.3,61.3,0,0,1,2.143-8.978,16.743,16.743,0,0,1,2.387-5.113c.139-.178.386.072.248.248Z" fill="#9fc6e6"/>
      <path id="Trazado_37415" data-name="Trazado 37415" d="M-424.735-373.138c-.791,2.883-1.8,5.683-2.466,8.605a87.889,87.889,0,0,0-1.913,17.666c-.137,6.174-.3,12.351-.236,18.527a89.2,89.2,0,0,0,.968,13.972c.565,3.336,1.45,6.629,2.223,9.923.051.219-.287.313-.338.093-.693-2.952-1.451-5.9-2.033-8.877a76.789,76.789,0,0,1-1.14-13.12c-.127-6.1.023-12.194.156-18.288a103.175,103.175,0,0,1,1.611-18.3c.71-3.516,1.884-6.854,2.83-10.3a.175.175,0,0,1,.338.093Z" fill="#9fc6e6"/>
      <path id="Trazado_37416" data-name="Trazado 37416" d="M-426.165-302.515c-.467-1.223-1.662-4.164-2.074-5.159-1.73-4.181-2.873-6.943-3.5-15.673-.062-.861-.16-1.946-.274-3.2-.594-6.574-1.588-17.578-.41-28.006,1.337-11.829,4.33-18.168,4.455-18.437l1.543.133c-.03.064-3.207,6.909-4.513,18.471-1.161,10.278-.175,21.187.414,27.705.114,1.264.213,2.355.276,3.23.612,8.488,1.718,11.162,3.392,15.209.357.863.23,1.793.55,2.879a3.029,3.029,0,0,1,.125.824Z" fill="#487fff"/>
      <path id="Trazado_37417" data-name="Trazado 37417" d="M-429.737-332.237a40.4,40.4,0,0,1-9.877-1.238,3.313,3.313,0,0,1,.169-1.634,40.084,40.084,0,0,0,10.541,1.363c12.975-.4,17.714-2.568,17.761-2.59l.636,1.352c-.2.1-5.069,2.32-18.351,2.732Q-429.3-332.239-429.737-332.237Z" fill="#487fff"/>
      <path id="Trazado_37418" data-name="Trazado 37418" d="M-425.269-369.147c-6.61.012-8.945-1.437-9.977-1.837a3.183,3.183,0,0,1,1.184-1.719c1.7.853,2.925,1.438,6.9,1.645a26.287,26.287,0,0,0,10.459-1.935c.2,0,.787,1.133.846,1.6A24.392,24.392,0,0,1-425.269-369.147Z" fill="#487fff"/>
      <g id="Grupo_11171" data-name="Grupo 11171">
        <g id="Grupo_11170" data-name="Grupo 11170" clip-path="url(#clip-path)">
          <path id="Trazado_37419" data-name="Trazado 37419" d="M-427.145-395.931a7.258,7.258,0,0,0-3.6-.69c-1.734,0-1.557,1.1-1.557.186,0-.474-.865-1.042-1.688-1.042-2.629,0-4.267,2.89-4.43,4.1-.263,1.955,1.529,1.633,1.529,1.633A3.209,3.209,0,0,0-438.4-389.2c.048,2.16.955,2.567.955,3.7,0,1.411-.605,1.8-.322,3.953.352,2.676,2.245,1.537,3.212,3.458.987,1.962,0,2.054,1.523,4.031a4.138,4.138,0,0,0,3.186,1.375c1.034,0,6.128-.376,7.128,0,3.176,1.195,1.781-1.559,4.15-2.525,2.87-1.169,3.32-1.882,2.268-3.815-1.027-1.887-.322-2.266.781-3.8,1.149-1.6,1.644-2.594,1.644-5.756,0-1.839-.882-3.855-2.609-4.321,1.1-.46,1.068-.921,1.058-1.288-.046-1.7-3-3.539-5.511-3.539-1.581,0-1.274,1.609-1.288,1.609a4.1,4.1,0,0,0-2.261-.037C-425.662-395.824-425.556-395.2-427.145-395.931Z" fill="#d6602a"/>
          <path id="Trazado_37420" data-name="Trazado 37420" d="M-419.552-379.706c.343.084.877-.039,1.21-.807a6.379,6.379,0,0,0,.764-2.809.955.955,0,0,0-1.471-.847Z" fill="#fabfa7"/>
          <path id="Trazado_37421" data-name="Trazado 37421" d="M-432.577-379.706c-.343.084-.877-.039-1.211-.807a6.392,6.392,0,0,1-.764-2.809.956.956,0,0,1,1.472-.847Z" fill="#fabfa7"/>
          <path id="Trazado_37422" data-name="Trazado 37422" d="M-421.381-372.023a7.906,7.906,0,0,1-.129-2.741c.045-.36.088-.585.088-.585.15-.184.287-.362.413-.542l-10.447-.694a6.315,6.315,0,0,0,1.046,1.47,2.724,2.724,0,0,1,.11.489,7.417,7.417,0,0,1,.04,2.024,2.567,2.567,0,0,1-1.854,2.23c.665,1.922,2.756,5.511,5.188,5.511,3.108,0,5.442-2.832,6.945-4.873A9.838,9.838,0,0,1-421.381-372.023Z" fill="#fabfa7"/>
          <path id="Trazado_37423" data-name="Trazado 37423" d="M-421.306-392.439a5.734,5.734,0,0,0-4.087-1.306c-2.777.183-8.091,1.413-8.354,8.687a28.194,28.194,0,0,0,.939,6.223,8.632,8.632,0,0,0,2.439,3.76,5.346,5.346,0,0,0,2.948,1.626l2.158.082a5.584,5.584,0,0,0,3.8-1.713,6.916,6.916,0,0,0,1.485-2.174,11.513,11.513,0,0,0,1.035-4.624C-418.985-384.783-417.661-389.357-421.306-392.439Z" fill="#fabfa7"/>
          <path id="Trazado_37424" data-name="Trazado 37424" d="M-427.542-379.854a8.042,8.042,0,0,1,.5-.9,5.576,5.576,0,0,0,.22-2.751c-.016-.176.26-.175.276,0a5.631,5.631,0,0,1-.281,2.938,6.147,6.147,0,0,0-.381.65c-.253.8,1.043.687,1.521.422.155-.087.294.152.139.238C-426.09-378.955-427.854-378.807-427.542-379.854Z" fill="#f2aa8a"/>
          <path id="Trazado_37425" data-name="Trazado 37425" d="M-427.936-377.4a5.238,5.238,0,0,0,3.733-.065c.2-.072.41-.107.261.063-.444.511-1.441,1.533-2.293,1.533-.689,0-1.366-.7-1.78-1.232C-428.268-377.43-428.117-377.467-427.936-377.4Z" fill="#f07759"/>
          <path id="Trazado_37426" data-name="Trazado 37426" d="M-430.185-383.777a2.844,2.844,0,0,1,1.2-.217.141.141,0,0,1,.129.125,1.511,1.511,0,0,1,.13.626c0,.571-.281,1.034-.627,1.034s-.627-.463-.627-1.034a1.6,1.6,0,0,1,.034-.324l-.17.056C-430.28-383.454-430.352-383.72-430.185-383.777Z" fill="#4f2b36"/>
          <path id="Trazado_37427" data-name="Trazado 37427" d="M-423.839-383.815a.139.139,0,0,1,.128-.125,2.853,2.853,0,0,1,1.2.217c.167.057.1.323-.073.266l-.171-.056a1.6,1.6,0,0,1,.035.324c0,.571-.281,1.034-.628,1.034s-.627-.463-.627-1.034A1.5,1.5,0,0,1-423.839-383.815Z" fill="#4f2b36"/>
          <path id="Trazado_37428" data-name="Trazado 37428" d="M-430.785-384.836a2.391,2.391,0,0,1,2.516-.155c.162.07.022.308-.14.238a2.1,2.1,0,0,0-2.236.155C-430.791-384.5-430.929-384.735-430.785-384.836Z" fill="#d65b25"/>
          <path id="Trazado_37429" data-name="Trazado 37429" d="M-424.54-384.991a2.391,2.391,0,0,1,2.516.155c.144.1.006.34-.14.238a2.1,2.1,0,0,0-2.236-.155C-424.562-384.683-424.7-384.921-424.54-384.991Z" fill="#d65b25"/>
          <g id="Grupo_11165" data-name="Grupo 11165">
            <path id="Trazado_37430" data-name="Trazado 37430" d="M-433.263-383.758a7.079,7.079,0,0,0,3.058,4.045c.215.13.516-.3.3-.428a6.834,6.834,0,0,1-2.976-3.791C-432.942-384.18-433.263-383.758-433.263-383.758Z" fill="#e1daf7"/>
          </g>
          <g id="Grupo_11166" data-name="Grupo 11166">
            <path id="Trazado_37431" data-name="Trazado 37431" d="M-419.006-383.79a6.225,6.225,0,0,1-3,3.708c-.227.133.066.586.292.453a6.691,6.691,0,0,0,3.111-4.055.208.208,0,1,0-.4-.106Z" fill="#e1daf7"/>
          </g>
          <g id="Grupo_11167" data-name="Grupo 11167">
            <path id="Trazado_37432" data-name="Trazado 37432" d="M-419.182-379.7a5.282,5.282,0,0,1-1.753,1.188c-.223.066-.1.468.126.4a3.718,3.718,0,0,0,1.8-1.188C-418.648-379.729-419.131-379.762-419.182-379.7Z" fill="#e1daf7"/>
          </g>
          <g id="Grupo_11168" data-name="Grupo 11168">
            <path id="Trazado_37433" data-name="Trazado 37433" d="M-432.909-379.7a5.272,5.272,0,0,0,1.753,1.188c.222.066.1.468-.126.4a3.964,3.964,0,0,1-1.8-1.188C-433.315-379.557-433.014-379.844-432.909-379.7Z" fill="#e1daf7"/>
          </g>
          <path id="Trazado_37434" data-name="Trazado 37434" d="M-420.734-377.893c0-1.751-1.33-3.006-2.883-3.882a6.333,6.333,0,0,0-2.992-1.054,5.383,5.383,0,0,0-2.965,1.268c-1.4.9-2.617,2.022-2.617,3.668,0,2.726,2.5,4.936,5.582,4.936S-420.734-375.167-420.734-377.893Z" fill="#fff"/>
          <path id="Trazado_37435" data-name="Trazado 37435" d="M-431.608-376.476c.505,2.236,2.784,3.519,5.2,3.519a5.794,5.794,0,0,0,5.4-3.356,8.622,8.622,0,0,1-5.4,1.8A8.142,8.142,0,0,1-431.608-376.476Z" fill="#e1daf7"/>
          <g id="Grupo_11169" data-name="Grupo 11169">
            <path id="Trazado_37436" data-name="Trazado 37436" d="M-428.575-381.2a4.312,4.312,0,0,1,2.046-.7,3.372,3.372,0,0,1,1.829.7c.19.127.367-.179.179-.305a3.692,3.692,0,0,0-2.008-.752,4.682,4.682,0,0,0-2.224.752c-.2.111-.021.416.178.305Z" fill="#e1daf7"/>
          </g>
          <path id="Trazado_37437" data-name="Trazado 37437" d="M-424.9-375.629a1.736,1.736,0,0,0-1.736-1.736,1.737,1.737,0,0,0-1.737,1.736,1.737,1.737,0,0,0,1.737,1.736A1.736,1.736,0,0,0-424.9-375.629Z" fill="#e1daf7"/>
          <circle id="Elipse_836" data-name="Elipse 836" cx="1.568" cy="1.568" r="1.568" transform="translate(-428.206 -377.146)" fill="#cac4de"/>
          <path id="Trazado_37438" data-name="Trazado 37438" d="M-418.844-384.319c-.449.066-1.146.132-1.594.2a.286.286,0,0,0-.188-.073.286.286,0,0,0-.163.056c-.606-.938-1.934-.693-2.929-.594-1.031.1-1.61.3-1.8,1.16a1.931,1.931,0,0,0-2.019-.078,2.082,2.082,0,0,0-.1-.28c-.416-.965-1.855-.853-2.742-.872-.87-.018-1.48.048-1.845.546a.283.283,0,0,0-.184-.071.282.282,0,0,0-.233.124l-.611-.042a1,1,0,0,1-.054.323c.138.016.524.031.662.047a.282.282,0,0,0,.179.118,2.726,2.726,0,0,0-.1.428.136.136,0,0,0-.007.029,2.512,2.512,0,0,0,2.957,2.448,2.379,2.379,0,0,0,2.138-2.406c.32-.491,1.53-.357,1.859.05a.133.133,0,0,0,.037.031c0,.042-.008.082-.01.126a2.549,2.549,0,0,0,3.2,2.164,2.3,2.3,0,0,0,1.827-2.74.283.283,0,0,0,.2-.176c.448-.066,1.145-.132,1.592-.2A1.3,1.3,0,0,1-418.844-384.319Zm-10.336,3.03a2.236,2.236,0,0,1-3.058-2,2.5,2.5,0,0,1,.159-.574.143.143,0,0,0,.031-.067c.236-.467.643-.525,1.375-.543a5.091,5.091,0,0,1,2.545.33,2.065,2.065,0,0,1,.312.728A1.937,1.937,0,0,1-429.18-381.289Zm7.4-.188a2.286,2.286,0,0,1-3.477-1.573c.056-1.141.533-1.253,1.538-1.353a5.133,5.133,0,0,1,2.356.062,2,2,0,0,1,.571,1.192A1.921,1.921,0,0,1-421.78-381.477Z" fill="#28b374"/>
          <path id="Trazado_37439" data-name="Trazado 37439" d="M-424.587-394.992a1.737,1.737,0,0,0-1.7,1.044,8.511,8.511,0,0,0-3.08-.512c-3.355,0-6.875,2.9-6.875,7.63a18.207,18.207,0,0,0,.11,1.931c.029.274.345.345.62.483.1-.008,1.139.05,1.242.05.48,0,.829-.227,1.685-1.471.784-1.139,1.147-2.058,2.1-1.949a5.651,5.651,0,0,0,2.032-.148c1.845-.445,1.61-.782,2.13-1.359,1.384,1.668,2.229.742,4.8,1.811,2.038.847,1.748,1.239,2.379,2.368.169.3.5,1,.963,1,1.976,0,2.456,2.388,2.456-.255C-415.717-389.9-420.528-394.992-424.587-394.992Z" fill="#d6602a"/>
          <path id="Trazado_37440" data-name="Trazado 37440" d="M-425.485-393.274c-.506.835-.859,2.151-.145,2.966a3.1,3.1,0,0,0,2.436.794c1.1-.009,2.048.025,2.581,1.13.092.191-.193.359-.286.167-.834-1.73-3.411-.469-4.782-1.679-1.035-.913-.735-2.481-.09-3.545A.166.166,0,0,1-425.485-393.274Z" fill="#bf4d1a"/>
          <path id="Trazado_37441" data-name="Trazado 37441" d="M-415.241-395.546a5.375,5.375,0,0,0-2.8-2.133c-.673-.244-1.89-.355-2.351.356-.8.051-1.315.43-1.07,1.388a.166.166,0,0,0,.319-.088c-.138-.539.173-.782.6-.884-.078.72.835,1.337,1.33,1.7.734.529,2.236,1.432,3.183.822.679-.438.112-1.188-.31-1.6a7.275,7.275,0,0,0-3.471-1.322,2.191,2.191,0,0,1,1.559-.094,5.8,5.8,0,0,1,1.868,1.065,3.285,3.285,0,0,1,.609.592,1.193,1.193,0,0,1-.694,1.908c-.209.038-.12.357.088.319A1.415,1.415,0,0,0-415.241-395.546Zm-4.855-1.423a5.805,5.805,0,0,1,.762.022,4.612,4.612,0,0,1,2.564,1.027c.5.42,1.055,1.038.114,1.321a2.73,2.73,0,0,1-1.909-.573,3.785,3.785,0,0,1-1.428-1.169A.866.866,0,0,1-420.1-396.969Z" fill="#bf4d1a"/>
          <path id="Trazado_37442" data-name="Trazado 37442" d="M-432.577-395.712c.446-1.762-1.91-2.08-3.013-1.635a4.924,4.924,0,0,0-2.991,2.825c-.25.707-.69,2.105.342,2.4a2.082,2.082,0,0,0,1.376-.208,6.751,6.751,0,0,0,1.351.2c.214.01.212-.321,0-.331a6.66,6.66,0,0,1-.9-.106c1.189-.717,2.281-2.066,2.063-3.047a1.121,1.121,0,0,0-1.508-.8,4.844,4.844,0,0,0-2.059,2.224,1.059,1.059,0,0,0,.555,1.69.908.908,0,0,1-.349.049c-.853-.077-.866-.908-.685-1.569a4.545,4.545,0,0,1,2.694-2.916,2.058,2.058,0,0,1,2.406.084,1.351,1.351,0,0,1,.4,1.056A.166.166,0,0,0-432.577-395.712Zm-4.346,3.011c-.066-.021-.134-.039-.2-.063-1.121-.429-.55-1.272-.055-1.965a5.031,5.031,0,0,1,.971-1.078c.5-.387,1.449-.5,1.55.376.1.843-1.014,1.814-1.6,2.266A6.394,6.394,0,0,1-436.923-392.7Z" fill="#bf4d1a"/>
          <path id="Trazado_37443" data-name="Trazado 37443" d="M-431.308-393.148a6.19,6.19,0,0,1-1.5,2.159c-1.012.869-2.093,1.279-2.748,2.535-.635,1.218-.9,2.342.275,3.321.163.136-.072.369-.234.234a2,2,0,0,1-.811-2.488,5.308,5.308,0,0,1,1.956-2.957,7.083,7.083,0,0,0,2.324-2.057c.295-.485.462-1.038.756-1.522a2.973,2.973,0,0,1,2.787-1.234.166.166,0,0,1,0,.331A2.7,2.7,0,0,0-431.308-393.148Z" fill="#bf4d1a"/>
          <path id="Trazado_37444" data-name="Trazado 37444" d="M-438.713-383.628c1.243-.148.51-2.294.431-2.934a5.063,5.063,0,0,1,.1-1.806,4.777,4.777,0,0,1,1.853-2.953c.179-.117.345.17.167.286a4.543,4.543,0,0,0-1.752,2.973,9.331,9.331,0,0,0,.246,3.054c.1.864-.085,1.6-1.049,1.711C-438.924-383.272-438.922-383.6-438.713-383.628Z" fill="#bf4d1a"/>
          <path id="Trazado_37445" data-name="Trazado 37445" d="M-422.981-392.484c.1,1.207,1.913,1.935,2.652,2.767a4.038,4.038,0,0,1,.825,1.369c.375,1.1-.02,2.277.888,3.194.15.152-.084.386-.234.234a2.4,2.4,0,0,1-.775-2.106,3.969,3.969,0,0,0-1.5-3c-.8-.69-2.094-1.274-2.187-2.456C-423.328-392.7-423-392.7-422.981-392.484Z" fill="#bf4d1a"/>
          <path id="Trazado_37446" data-name="Trazado 37446" d="M-415.677-383.98c2.264-.581,2.605-3.139,1.662-4.944a11.153,11.153,0,0,0-2.926-3.329,16.262,16.262,0,0,0-3.77-2.34,6.81,6.81,0,0,0-1.586-.515c-.561-.09-2.121-.185-2.324.483a.166.166,0,0,1-.319-.088c.341-1.126,2.539-.8,3.38-.551a14.777,14.777,0,0,1,4.984,2.886c1.414,1.177,2.939,2.736,3.348,4.6a3.435,3.435,0,0,1-2.361,4.117A.166.166,0,0,1-415.677-383.98Z" fill="#bf4d1a"/>
          <path id="Trazado_37447" data-name="Trazado 37447" d="M-416.132-376.445c.864-1.332-.778-2.184-1.233-3.3a4.052,4.052,0,0,1,.374-3.22c.089-.193.375-.025.285.167a4,4,0,0,0-.448,2.66,5.025,5.025,0,0,0,1.079,1.634,1.819,1.819,0,0,1,.525,1.463,2.2,2.2,0,0,1-.871,1.36c-.513.422-3,1.41-1.891,2.432.157.145-.078.379-.234.234C-420.162-374.506-416.73-375.524-416.132-376.445Z" fill="#bf4d1a"/>
          <path id="Trazado_37448" data-name="Trazado 37448" d="M-419-375.867a2.131,2.131,0,0,0-.286-2.33c-.164-.137.071-.37.234-.234a2.441,2.441,0,0,1,.453,2.484c-.391,1.007-1.628,1.6-1.554,2.782.013.213-.318.212-.331,0a2.322,2.322,0,0,1,.67-1.646A6.155,6.155,0,0,0-419-375.867Z" fill="#bf4d1a"/>
          <path id="Trazado_37449" data-name="Trazado 37449" d="M-433.108-378.413c-.044,1.673,1.376,2.535,2.04,3.926a1.6,1.6,0,0,1-.192,2.055c-.17.128-.335-.159-.167-.286,1.114-.841-.708-2.755-1.194-3.412a3.343,3.343,0,0,1-.818-2.283A.166.166,0,0,1-433.108-378.413Z" fill="#bf4d1a"/>
          <path id="Trazado_37450" data-name="Trazado 37450" d="M-432.644-375.078c-.018-.212.314-.211.331,0a3.375,3.375,0,0,1-.307,2.34c-.136.164-.369-.071-.234-.234C-432.434-373.481-432.594-374.48-432.644-375.078Z" fill="#bf4d1a"/>
          <path id="Trazado_37451" data-name="Trazado 37451" d="M-436.174-382.834c-.489,1.8,2.84,3.486,1.552,5.266-.124.171-.411.006-.286-.167.478-.661-.109-1.762-.5-2.339-.249-.373-.554-.712-.772-1.1a2.436,2.436,0,0,1-.319-1.743A.166.166,0,0,1-436.174-382.834Z" fill="#bf4d1a"/>
        </g>
      </g>
      <path id="Trazado_37453" data-name="Trazado 37453" d="M-418.584-383.135c.088,3.188-.953,6.719-3.539,8.762s-6.459,2.193-8.7-.4a11.046,11.046,0,0,1-2.225-4.772,10.7,10.7,0,0,1-.185-5.35c.977-3.073,4.79-3.383,7.5-3.366a10.386,10.386,0,0,1,4.7.812,4.825,4.825,0,0,1,2.442,4.316c.013.225-.337.225-.351,0a4.475,4.475,0,0,0-2.268-4.013,8.949,8.949,0,0,0-3.819-.751c-2.534-.079-6.3-.075-7.645,2.544-.745,1.449-.467,3.43-.191,4.972a12.446,12.446,0,0,0,1.585,4.393,5.851,5.851,0,0,0,8.54,1.633c2.783-1.909,3.887-5.542,3.8-8.778A.176.176,0,0,1-418.584-383.135Z" fill="#9fc6e6"/>
      <path id="Trazado_37454" data-name="Trazado 37454" d="M-450.505-349.7a3.893,3.893,0,0,1,1.619.9c.187.311.747.965.732,1.354s-2.756-.109-2.834-.623a6.315,6.315,0,0,1,.191-1.634Z" fill="#487fff"/>
      <rect id="Rectángulo_3464" data-name="Rectángulo 3464" width="28.686" height="4.657" transform="translate(-450.294 -347.755)" fill="#b5afc7"/>
      <path id="Trazado_37455" data-name="Trazado 37455" d="M-423.811-349.953a8.013,8.013,0,0,1,2.661-.229s1.332,2.054.951,2.3a8.487,8.487,0,0,1-2.719,0C-423.687-347.992-424.641-349.572-423.811-349.953Z" fill="#487fff"/>
      <g id="Grupo_11173" data-name="Grupo 11173">
        <path id="Trazado_37456" data-name="Trazado 37456" d="M-446.441-359.541a.187.187,0,0,0,.056-.114c.006-.231-.529-.43-1.194-.446s-1.208.159-1.213.389a.166.166,0,0,0,.018.071l-.02-.015.006,14.2a1.177,1.177,0,0,0,1.177,1.176,1.177,1.177,0,0,0,1.176-1.177Z" fill="#f0f8ff"/>
        <path id="Trazado_37457" data-name="Trazado 37457" d="M-448.79-350.923l0,5.465a1.177,1.177,0,0,0,1.177,1.176,1.177,1.177,0,0,0,1.176-1.177l0-5.465A2.394,2.394,0,0,1-448.79-350.923Z" fill="#ff97a2"/>
        <path id="Trazado_37458" data-name="Trazado 37458" d="M-448.79-349.2l0,3.739a1.177,1.177,0,0,0,1.177,1.176,1.177,1.177,0,0,0,1.176-1.177V-349.2A2.4,2.4,0,0,1-448.79-349.2Z" fill="#f8717e"/>
        <path id="Trazado_37459" data-name="Trazado 37459" d="M-448.466-359.141a3.579,3.579,0,0,0,.935.123,2.854,2.854,0,0,0,.763-.1l.006,13.655a.85.85,0,0,1-.849.849.85.85,0,0,1-.85-.848l-.005-13.683Zm2.025-.516a1.564,1.564,0,0,1-1.09.311,2.2,2.2,0,0,1-1.263-.31l.006,14.2a1.177,1.177,0,0,0,1.177,1.176,1.176,1.176,0,0,0,1.176-1.177l-.006-14.2Z" fill="#ccdfe8"/>
        <g id="Grupo_11172" data-name="Grupo 11172">
          <path id="Trazado_37460" data-name="Trazado 37460" d="M-447.605-358.986c-.659-.015-1.363-.214-1.354-.612s.728-.562,1.381-.549a2.879,2.879,0,0,1,.9.153c.379.141.455.328.452.46-.009.382-.663.549-1.3.549Zm.019-.833a1.51,1.51,0,0,0-1.046.225c.02.071.369.265,1.035.281s1.011-.157,1.045-.229A1.518,1.518,0,0,0-447.586-359.819Z" fill="#ccdfe8"/>
        </g>
        <path id="Trazado_37461" data-name="Trazado 37461" d="M-447.609-350.982c-.469-.011-.852.093-.855.233s.374.262.843.273.851-.093.854-.233S-447.141-350.971-447.609-350.982Z" fill="#f8717e"/>
      </g>
      <g id="Grupo_11175" data-name="Grupo 11175">
        <path id="Trazado_37462" data-name="Trazado 37462" d="M-441.772-359.541a.187.187,0,0,0,.056-.114c.006-.231-.529-.43-1.194-.446s-1.208.159-1.213.389a.154.154,0,0,0,.019.071l-.021-.015.006,14.2a1.177,1.177,0,0,0,1.177,1.176,1.177,1.177,0,0,0,1.176-1.177Z" fill="#f0f8ff"/>
        <path id="Trazado_37463" data-name="Trazado 37463" d="M-444.121-350.923l0,5.465a1.177,1.177,0,0,0,1.177,1.176,1.177,1.177,0,0,0,1.176-1.177l0-5.465A2.394,2.394,0,0,1-444.121-350.923Z" fill="#41b6e0"/>
        <path id="Trazado_37464" data-name="Trazado 37464" d="M-444.121-349.2l0,3.739a1.177,1.177,0,0,0,1.177,1.176,1.177,1.177,0,0,0,1.176-1.177V-349.2A2.4,2.4,0,0,1-444.121-349.2Z" fill="#80cce8"/>
        <path id="Trazado_37465" data-name="Trazado 37465" d="M-443.8-359.141a3.579,3.579,0,0,0,.935.123,2.854,2.854,0,0,0,.763-.1l.006,13.655a.85.85,0,0,1-.849.849.851.851,0,0,1-.85-.848l-.005-13.683Zm2.025-.516a1.564,1.564,0,0,1-1.09.311,2.2,2.2,0,0,1-1.263-.31l.006,14.2a1.177,1.177,0,0,0,1.177,1.176,1.176,1.176,0,0,0,1.176-1.177l-.006-14.2Z" fill="#ccdfe8"/>
        <g id="Grupo_11174" data-name="Grupo 11174">
          <path id="Trazado_37466" data-name="Trazado 37466" d="M-442.936-358.986a2.881,2.881,0,0,1-.9-.152c-.379-.142-.455-.328-.452-.46.01-.4.725-.562,1.381-.549s1.363.214,1.354.613c-.009.382-.663.549-1.3.549Zm.02-.833a1.507,1.507,0,0,0-1.047.225c.021.071.37.265,1.035.281s1.011-.156,1.045-.229A1.517,1.517,0,0,0-442.916-359.819Z" fill="#ccdfe8"/>
        </g>
        <path id="Trazado_37467" data-name="Trazado 37467" d="M-442.94-350.982c-.469-.011-.851.093-.855.233s.374.262.843.273.851-.093.854-.233S-442.472-350.971-442.94-350.982Z" fill="#80cce8"/>
      </g>
      <g id="Grupo_11177" data-name="Grupo 11177">
        <path id="Trazado_37468" data-name="Trazado 37468" d="M-437.1-359.541a.187.187,0,0,0,.056-.114c.006-.231-.529-.43-1.194-.446s-1.208.159-1.213.389a.154.154,0,0,0,.019.071l-.021-.015.006,14.2a1.177,1.177,0,0,0,1.177,1.176,1.177,1.177,0,0,0,1.176-1.177Z" fill="#f0f8ff"/>
        <path id="Trazado_37469" data-name="Trazado 37469" d="M-439.452-350.923l0,5.465a1.177,1.177,0,0,0,1.177,1.176,1.177,1.177,0,0,0,1.176-1.177l0-5.465A2.394,2.394,0,0,1-439.452-350.923Z" fill="#84d95f"/>
        <path id="Trazado_37470" data-name="Trazado 37470" d="M-439.451-349.2v3.739a1.177,1.177,0,0,0,1.177,1.176,1.177,1.177,0,0,0,1.176-1.177V-349.2A2.394,2.394,0,0,1-439.451-349.2Z" fill="#56d91d"/>
        <path id="Trazado_37471" data-name="Trazado 37471" d="M-439.128-359.141a3.579,3.579,0,0,0,.935.123,2.854,2.854,0,0,0,.763-.1l.006,13.655a.839.839,0,0,1-.249.6.839.839,0,0,1-.6.249.851.851,0,0,1-.85-.848l-.005-13.683Zm2.025-.516a1.564,1.564,0,0,1-1.09.311,2.2,2.2,0,0,1-1.263-.31l.006,14.2a1.177,1.177,0,0,0,1.177,1.176,1.176,1.176,0,0,0,1.176-1.177l-.006-14.2Z" fill="#ccdfe8"/>
        <g id="Grupo_11176" data-name="Grupo 11176">
          <path id="Trazado_37472" data-name="Trazado 37472" d="M-438.267-358.986a2.881,2.881,0,0,1-.9-.152c-.379-.142-.455-.328-.452-.46.01-.4.726-.562,1.381-.549a2.873,2.873,0,0,1,.9.153c.379.141.455.328.452.46s-.088.315-.473.439a2.785,2.785,0,0,1-.821.11Zm.02-.833c-.666-.02-1.023.162-1.047.225.021.071.37.265,1.035.281s1.011-.157,1.045-.229C-437.245-359.615-437.593-359.8-438.247-359.819Z" fill="#ccdfe8"/>
        </g>
        <path id="Trazado_37473" data-name="Trazado 37473" d="M-438.271-350.982c-.469-.011-.852.093-.855.233s.374.262.843.273.852-.093.855-.233S-437.8-350.971-438.271-350.982Z" fill="#56d91d"/>
      </g>
      <g id="Grupo_11179" data-name="Grupo 11179">
        <path id="Trazado_37474" data-name="Trazado 37474" d="M-423.1-359.541a.185.185,0,0,0,.055-.114c.006-.231-.529-.43-1.194-.446s-1.208.159-1.213.389a.154.154,0,0,0,.019.071l-.021-.015.006,14.2a1.177,1.177,0,0,0,1.177,1.176,1.176,1.176,0,0,0,1.176-1.177Z" fill="#f0f8ff"/>
        <path id="Trazado_37475" data-name="Trazado 37475" d="M-425.445-350.923l0,5.465a1.177,1.177,0,0,0,1.177,1.176,1.176,1.176,0,0,0,1.176-1.177l0-5.465A2.394,2.394,0,0,1-425.445-350.923Z" fill="#ffe72e"/>
        <path id="Trazado_37476" data-name="Trazado 37476" d="M-425.444-349.2v3.739a1.177,1.177,0,0,0,1.177,1.176,1.176,1.176,0,0,0,1.176-1.177V-349.2A2.394,2.394,0,0,1-425.444-349.2Z" fill="#ffed69"/>
        <path id="Trazado_37477" data-name="Trazado 37477" d="M-425.121-359.141a3.581,3.581,0,0,0,.936.123,2.847,2.847,0,0,0,.762-.1l.006,13.655a.85.85,0,0,1-.849.849.849.849,0,0,1-.849-.848l-.006-13.683Zm2.026-.516a1.567,1.567,0,0,1-1.09.311,2.2,2.2,0,0,1-1.264-.31l.006,14.2a1.177,1.177,0,0,0,1.177,1.176,1.176,1.176,0,0,0,1.176-1.177l-.005-14.2Z" fill="#ccdfe8"/>
        <g id="Grupo_11178" data-name="Grupo 11178">
          <path id="Trazado_37478" data-name="Trazado 37478" d="M-424.26-358.986c-.658-.015-1.363-.214-1.354-.612s.727-.562,1.381-.549a2.874,2.874,0,0,1,.9.153c.38.141.455.328.452.46-.009.382-.662.549-1.3.549Zm.02-.833a1.509,1.509,0,0,0-1.047.225c.021.071.37.265,1.035.281s1.011-.157,1.045-.229C-423.238-359.615-423.586-359.8-424.24-359.819Z" fill="#ccdfe8"/>
        </g>
        <path id="Trazado_37479" data-name="Trazado 37479" d="M-424.264-350.983c-.471-.011-.855.094-.858.234s.375.263.846.274.855-.093.858-.234S-423.793-350.972-424.264-350.983Z" fill="#ffed69"/>
      </g>
      <g id="Grupo_11181" data-name="Grupo 11181">
        <path id="Trazado_37480" data-name="Trazado 37480" d="M-432.434-359.541a.187.187,0,0,0,.056-.114c.006-.231-.529-.43-1.194-.446s-1.208.159-1.213.389a.154.154,0,0,0,.019.071l-.021-.015.006,14.2a1.177,1.177,0,0,0,1.177,1.176,1.177,1.177,0,0,0,1.176-1.177Z" fill="#f0f8ff"/>
        <path id="Trazado_37481" data-name="Trazado 37481" d="M-434.783-350.923l0,5.465a1.177,1.177,0,0,0,1.177,1.176,1.176,1.176,0,0,0,1.176-1.177l0-5.465A2.394,2.394,0,0,1-434.783-350.923Z" fill="#743ed6"/>
        <path id="Trazado_37482" data-name="Trazado 37482" d="M-434.782-349.2v3.739a1.177,1.177,0,0,0,1.177,1.176,1.176,1.176,0,0,0,1.176-1.177V-349.2A2.394,2.394,0,0,1-434.782-349.2Z" fill="#8c5fde"/>
        <path id="Trazado_37483" data-name="Trazado 37483" d="M-434.459-359.141a3.579,3.579,0,0,0,.935.123,2.85,2.85,0,0,0,.763-.1l.006,13.655a.839.839,0,0,1-.249.6.839.839,0,0,1-.6.249.851.851,0,0,1-.85-.848l-.005-13.683Zm2.025-.516a1.564,1.564,0,0,1-1.09.311,2.2,2.2,0,0,1-1.263-.31l.006,14.2a1.177,1.177,0,0,0,1.177,1.176,1.176,1.176,0,0,0,1.176-1.177l-.006-14.2Z" fill="#ccdfe8"/>
        <g id="Grupo_11180" data-name="Grupo 11180">
          <path id="Trazado_37484" data-name="Trazado 37484" d="M-433.6-358.986a2.881,2.881,0,0,1-.9-.152c-.379-.142-.455-.328-.452-.46.01-.4.728-.562,1.381-.549a2.874,2.874,0,0,1,.9.153c.379.141.455.328.452.46-.009.382-.663.549-1.3.549Zm.02-.833c-.667-.02-1.023.162-1.047.225.021.071.37.265,1.035.281s1.011-.157,1.045-.229C-432.576-359.615-432.924-359.8-433.578-359.819Z" fill="#ccdfe8"/>
        </g>
        <path id="Trazado_37485" data-name="Trazado 37485" d="M-433.6-350.982c-.469-.011-.851.093-.854.233s.374.262.842.273.851-.093.854-.233S-433.134-350.971-433.6-350.982Z" fill="#8c5fde"/>
      </g>
      <g id="Grupo_11183" data-name="Grupo 11183">
        <path id="Trazado_37486" data-name="Trazado 37486" d="M-427.764-359.541a.185.185,0,0,0,.055-.114c.006-.231-.529-.43-1.194-.446s-1.208.159-1.213.389a.154.154,0,0,0,.019.071l-.021-.015.006,14.2a1.177,1.177,0,0,0,1.177,1.176,1.176,1.176,0,0,0,1.176-1.177Z" fill="#f0f8ff"/>
        <path id="Trazado_37487" data-name="Trazado 37487" d="M-430.114-350.923l0,5.465a1.177,1.177,0,0,0,1.177,1.176,1.176,1.176,0,0,0,1.176-1.177l0-5.465A2.394,2.394,0,0,1-430.114-350.923Z" fill="#d65ebe"/>
        <path id="Trazado_37488" data-name="Trazado 37488" d="M-430.113-349.2v3.739a1.177,1.177,0,0,0,1.177,1.176,1.176,1.176,0,0,0,1.176-1.177V-349.2A2.394,2.394,0,0,1-430.113-349.2Z" fill="#bc49a5"/>
        <path id="Trazado_37489" data-name="Trazado 37489" d="M-429.79-359.141a3.579,3.579,0,0,0,.935.123,2.85,2.85,0,0,0,.763-.1l.006,13.655a.839.839,0,0,1-.249.6.839.839,0,0,1-.6.249.849.849,0,0,1-.849-.848l-.006-13.683Zm2.026-.516a1.569,1.569,0,0,1-1.091.311,2.2,2.2,0,0,1-1.263-.31l.006,14.2a1.177,1.177,0,0,0,1.177,1.176,1.176,1.176,0,0,0,1.176-1.177l-.005-14.2Z" fill="#ccdfe8"/>
        <g id="Grupo_11182" data-name="Grupo 11182">
          <path id="Trazado_37490" data-name="Trazado 37490" d="M-428.929-358.986a2.881,2.881,0,0,1-.9-.152c-.379-.142-.455-.328-.452-.46s.088-.315.473-.439a2.927,2.927,0,0,1,.908-.11,2.874,2.874,0,0,1,.9.153c.379.141.455.328.452.46-.009.382-.663.549-1.3.549Zm.02-.833c-.666-.015-1.023.161-1.047.225.021.071.37.265,1.035.281s1.011-.157,1.045-.229A1.517,1.517,0,0,0-428.909-359.819Z" fill="#ccdfe8"/>
        </g>
        <path id="Trazado_37491" data-name="Trazado 37491" d="M-428.933-350.982c-.469-.011-.851.093-.855.233s.374.262.843.273.851-.093.855-.233S-428.464-350.971-428.933-350.982Z" fill="#bc49a5"/>
      </g>
      <path id="Trazado_37492" data-name="Trazado 37492" d="M-420.946-343.464h-30.008a.366.366,0,0,0-.366.366.366.366,0,0,0,.366.366h30.008a.366.366,0,0,0,.366-.366A.366.366,0,0,0-420.946-343.464Z" fill="#c6bee0"/>
      <path id="Trazado_37493" data-name="Trazado 37493" d="M-420.946-352.521h-30.008a.366.366,0,0,0-.366.366.366.366,0,0,0,.366.366h30.008a.366.366,0,0,0,.366-.366A.366.366,0,0,0-420.946-352.521Z" fill="#c6bee0"/>
      <path id="Trazado_37494" data-name="Trazado 37494" d="M-420.946-347.992h-30.008a.366.366,0,0,0-.366.366.365.365,0,0,0,.366.365h30.008a.365.365,0,0,0,.366-.365A.366.366,0,0,0-420.946-347.992Z" fill="#c6bee0"/>
      <g id="Grupo_11184" data-name="Grupo 11184">
        <path id="Trazado_37495" data-name="Trazado 37495" d="M-450.293-356.445a.353.353,0,0,0-.353.353v13.756a.353.353,0,0,0,.353.352.353.353,0,0,0,.353-.352v-13.756A.353.353,0,0,0-450.293-356.445Z" fill="#c6bee0"/>
        <path id="Trazado_37496" data-name="Trazado 37496" d="M-421.607-356.445a.353.353,0,0,0-.353.353v13.756a.353.353,0,0,0,.353.352.353.353,0,0,0,.353-.352v-13.756A.353.353,0,0,0-421.607-356.445Z" fill="#c6bee0"/>
      </g>
      <path id="Trazado_37497" data-name="Trazado 37497" d="M-427.251-345.562a.07.07,0,0,0,.036-.133c-.58-.259-1.243-.622-1.044-1.21.342-1.01,2.105-.045,2.188-.266.046-.121-.969-.214-.759-.841s1.393-.453,3.07-.182c1.727.278,2.456.157,2.506.047V-350.2a7.009,7.009,0,0,1,2.38.459,7.131,7.131,0,0,1,1.884,1.088,13.094,13.094,0,0,1,2.4,2.713,2.591,2.591,0,0,0,1.335,1.16c-.13,1.253-.346,2.865-.659,6.469-.808-.849-1.664-1.892-2.524-2.115-1.738-.453-2.847-.586-4.578-.907-.472-.043-1.032-.11-1.732-.171-2.795-.243-5.7-.8-5.358-1.592.335-.778,2.879-.206,4.511-.234.577-.01.478-.093.074-.163-1.938-.336-4.665-.784-4.789-1.4S-427.787-345.605-427.251-345.562Z" fill="#487fff"/>
      <g id="Grupo_11185" data-name="Grupo 11185">
        <path id="Trazado_37498" data-name="Trazado 37498" d="M-425.863-347.281a23.787,23.787,0,0,0,4.82.919c.228.021.232.381,0,.359a24.194,24.194,0,0,1-4.915-.931C-426.176-347-426.084-347.35-425.863-347.281Z" fill="#3d71eb"/>
        <path id="Trazado_37499" data-name="Trazado 37499" d="M-426.893-345.81a17.032,17.032,0,0,0,5.293.59c.232-.009.233.35,0,.359a17.366,17.366,0,0,1-5.388-.6A.179.179,0,0,1-426.893-345.81Z" fill="#3d71eb"/>
      </g>
      <path id="Trazado_37500" data-name="Trazado 37500" d="M-451.915-348.328a2.251,2.251,0,0,1,.018-.886c.1-.44.754-.672,1.236-.516l.015,1.361a13.958,13.958,0,0,1,3.066.468c.544.2,1.175.389,1.219.863.038.418-.519.647-1.364.654a.034.034,0,0,0-.012.066,3.169,3.169,0,0,1,1.059.541.882.882,0,0,1,.357.729c-.015.219-.27.341-.578.409a4.481,4.481,0,0,1-.916.082.035.035,0,0,0-.013.067c.412.16,1.32.578,1.126,1.087a.8.8,0,0,1-.566.382,8.67,8.67,0,0,1-2.026.13.034.034,0,0,0-.007.068,3.435,3.435,0,0,1,1.5.447c.3.216.418.327.333.527-.077.181-.352.265-.707.257-1.422-.031-4.294-.71-4.455-1.23-.233-.756.3-.806.3-.806a.944.944,0,0,1,.149-1.465.869.869,0,0,1-.377-.783,1.053,1.053,0,0,1,.374-.78,2.026,2.026,0,0,1-.325-.711C-452.589-347.874-452.4-348.26-451.915-348.328Z" fill="#487fff"/>
      <g id="Grupo_11186" data-name="Grupo 11186">
        <path id="Trazado_37501" data-name="Trazado 37501" d="M-451.808-346.846l3.853.28c.23.017.165.371-.063.354l-3.852-.28C-452.1-346.509-452.036-346.862-451.808-346.846Z" fill="#3d71eb"/>
        <path id="Trazado_37502" data-name="Trazado 37502" d="M-451.74-345.351l3.627.588a.18.18,0,0,1-.062.354L-451.8-345A.18.18,0,0,1-451.74-345.351Z" fill="#3d71eb"/>
        <path id="Trazado_37503" data-name="Trazado 37503" d="M-451.7-343.546l1.858.478c.223.057.161.411-.063.353l-1.857-.477C-451.98-343.25-451.919-343.6-451.7-343.546Z" fill="#3d71eb"/>
      </g>
      <path id="Trazado_37504" data-name="Trazado 37504" d="M-413.917-338.389l-2.021-1.2a1.367,1.367,0,0,1-.671-1.267,6.911,6.911,0,0,1,2.2-4.323,1.073,1.073,0,0,1,1.021-.313l2.877.657Z" fill="#9fc6e6"/>
      <path id="Trazado_37505" data-name="Trazado 37505" d="M-407.375-331.678c-1.913-1.108-6.118-2.043-7.143-6.819a7.053,7.053,0,0,1,1.213-5.009,3.636,3.636,0,0,1,3.546-1.9c3.4.38,7.214,2.5,9.042,3.786s10.77,3.749,7.934,10.059C-393.959-328.948-401.18-328.089-407.375-331.678Z" fill="#fff"/>
      <path id="Trazado_37506" data-name="Trazado 37506" d="M-410.794-351.7a17.009,17.009,0,0,0,3.353,6.039c.114.146-.028.388-.213.276-1.269-.771-3.5.122-4.7.563-.213.078-.3-.261-.094-.338,1.273-.468,3.612-1.353,4.971-.528l-.212.275a17.473,17.473,0,0,1-3.444-6.193.176.176,0,0,1,.339-.094Z" fill="#9fc6e6"/>
    </g>
    <rect id="Rectángulo_39829" data-name="Rectángulo 39829" width="478" height="237.402" rx="13" transform="translate(881 4121.799)" fill="#fff"/>
    <text id="Bata_de_laboratorio:_Si_se_usa_la_bata_las_características_más_aconsejables_son:_Material:_algodón_dril_o_gabardina_Color:_blanco_Manga:_larga_con_puño_resortado_Largo_extensión_:_mínimo_hasta_el_muslo_3_4_Tipo_de_cierre:_de_abotonar_a_presión_INS" data-name="Bata de laboratorio:
Si se usa la bata las características más aconsejables son: Material: algodón, dril o gabardina, Color: blanco, Manga: larga con puño resortado, Largo (extensión): mínimo hasta el muslo (3/4), Tipo de cierre: de abotonar a presión (INS" transform="translate(914.8 4181.789)" fill="#12263f" font-size="16" font-family="ArialMT, Arial"><tspan x="0" y="14">Bata de laboratorio:</tspan><tspan x="0" y="38">Si se usa la bata las características más aconsejables son: </tspan><tspan x="0" y="62">Material: algodón, dril o gabardina, Color: blanco, Manga: </tspan><tspan x="0" y="86">larga con puño resortado, Largo (extensión): mínimo hasta </tspan><tspan x="0" y="110">el muslo (3/4), Tipo de cierre: de abotonar a presión (INS, </tspan><tspan x="0" y="134">2011, p.40).</tspan></text>
    <g id="Rectángulo_39339" data-name="Rectángulo 39339" transform="translate(897 4102)" fill="none" stroke="#367ea4" stroke-width="2">
      <rect width="451" height="284" rx="15" stroke="none"/>
      <rect x="1" y="1" width="449" height="282" rx="14" fill="none"/>
    </g>
    <g id="Grupo_11667" data-name="Grupo 11667" transform="translate(1023.845 4379.504)" style="isolation: isolate">
      <path id="Trazado_37743" data-name="Trazado 37743" d="M23.455-314.262s-4.032-14.876,9.951-28.669,3.063-23.346,10.121-42.005c4.417-11.675,16.316-22.291,39.92-22.457s29.606,17.835,39.275,20.476c17.536,4.788,26.886-2.911,38.177,5.284,14.56,10.568,2.373,27.911,4.741,39.146,3.386,16.074,11.861,17.3,11.506,28.225" fill="#dceef7"/>
      <path id="Trazado_37744" data-name="Trazado 37744" d="M167.211-348.111a24.67,24.67,0,0,0,1.331,10.766c2.065,5.869,5.328,9.976,9.123,9.873s4.461-6.1,2-11.927-1-10.8-2.6-14.627S167.277-357.13,167.211-348.111Z" fill="#dceef7"/>
      <path id="Trazado_37745" data-name="Trazado 37745" d="M36.613-359.141a19.323,19.323,0,0,1-3.129,9.287,29.825,29.825,0,0,1-6.644,7.218c-2.457,1.883-8.2.047-3.343-7.218s7.432-9.746,7.7-13.021S37-365.874,36.613-359.141Z" fill="#dceef7"/>
      <path id="Trazado_37746" data-name="Trazado 37746" d="M176.63-314.56s4.032,14.876-9.951,28.668-3.063,23.346-10.121,42.005c-4.417,11.675-16.316,22.292-39.92,22.457s-29.606-17.835-39.275-20.476c-17.536-4.788-26.886,2.911-38.177-5.284-14.56-10.568-2.373-27.91-4.741-39.145-3.386-16.075-11.861-17.3-11.506-28.225" fill="#dceef7"/>
      <path id="Trazado_37747" data-name="Trazado 37747" d="M32.874-280.711a24.675,24.675,0,0,0-1.331-10.767c-2.065-5.868-5.327-9.976-9.123-9.872s-4.461,6.1-2,11.927,1,10.8,2.6,14.626S32.808-271.693,32.874-280.711Z" fill="#dceef7"/>
      <path id="Trazado_37748" data-name="Trazado 37748" d="M163.472-269.682a19.324,19.324,0,0,1,3.129-9.287,29.826,29.826,0,0,1,6.644-7.218c2.458-1.882,8.2-.046,3.343,7.218s-7.432,9.746-7.7,13.022S163.085-262.949,163.472-269.682Z" fill="#dceef7"/>
      <g id="Grupo_11666" data-name="Grupo 11666">
        <g id="Grupo_11665" data-name="Grupo 11665" clip-path="url(#clip-path-2)">
          <g id="Grupo_11588" data-name="Grupo 11588">
            <path id="Trazado_37749" data-name="Trazado 37749" d="M99.8-254.931H71.045a153.275,153.275,0,0,0,.76,25.8l3.058,20.488h25.2Z" fill="#664f5a"/>
          </g>
          <g id="Grupo_11589" data-name="Grupo 11589">
            <path id="Trazado_37750" data-name="Trazado 37750" d="M130.845-212.055v-9.621a208.5,208.5,0,0,0-3.5-33.255H95.578l7.971,46.292h27.3Z" fill="#664f5a"/>
          </g>
          <g id="Grupo_11590" data-name="Grupo 11590">
            <rect id="Rectángulo_3515" data-name="Rectángulo 3515" width="34.981" height="23.572" transform="translate(81.163 -254.931)" fill="#664f5a"/>
          </g>
          <g id="Grupo_11591" data-name="Grupo 11591">
            <path id="Trazado_37751" data-name="Trazado 37751" d="M106.249-231.726H92.968l6.882,4.5Z" fill="#452235"/>
          </g>
          <g id="Grupo_11592" data-name="Grupo 11592">
            <rect id="Rectángulo_3516" data-name="Rectángulo 3516" width="1.143" height="23.572" transform="translate(102.048 -254.931)" fill="#452235"/>
          </g>
          <g id="Grupo_11593" data-name="Grupo 11593">
            <path id="Trazado_37752" data-name="Trazado 37752" d="M119.673-229.091l-1.14.082,1.457,20.371h1.146Z" fill="#452235"/>
          </g>
          <g id="Grupo_11594" data-name="Grupo 11594">
            <path id="Trazado_37753" data-name="Trazado 37753" d="M84.259-229.1,83.121-229l1.943,20.357h1.148Z" fill="#452235"/>
          </g>
          <g id="Grupo_11595" data-name="Grupo 11595">
            <path id="Trazado_37754" data-name="Trazado 37754" d="M71.9-245.434v-1.143a11.091,11.091,0,0,0,10.336-6.982l1.061.427A12.23,12.23,0,0,1,71.9-245.434Z" fill="#452235"/>
          </g>
          <g id="Grupo_11596" data-name="Grupo 11596">
            <path id="Trazado_37755" data-name="Trazado 37755" d="M126.863-245.434a12.228,12.228,0,0,1-11.4-7.7l1.06-.427a11.091,11.091,0,0,0,10.337,6.982Z" fill="#452235"/>
          </g>
          <g id="Grupo_11597" data-name="Grupo 11597">
            <rect id="Rectángulo_3517" data-name="Rectángulo 3517" width="12.659" height="1.143" transform="translate(93.239 -240.638)" fill="#452235"/>
          </g>
          <g id="Grupo_11598" data-name="Grupo 11598">
            <rect id="Rectángulo_3518" data-name="Rectángulo 3518" width="12.722" height="1.144" transform="matrix(0.995, -0.099, 0.099, 0.995, 93.182, -244.833)" fill="#452235"/>
          </g>
          <g id="Grupo_11601" data-name="Grupo 11601">
            <g id="Grupo_11600" data-name="Grupo 11600">
              <g id="Grupo_11599" data-name="Grupo 11599">
                <path id="Trazado_37756" data-name="Trazado 37756" d="M116.818-380.6v16.518a47.018,47.018,0,0,1-36.4,45.8c-.367.088-.738.167-1.1.242a45.392,45.392,0,0,1-6.3.85c-.375.03-.746.05-1.125.063q-1.032.049-2.076.05H68.346v-25.889a37.634,37.634,0,0,1,37.63-37.634Z" fill="#8f5252"/>
              </g>
            </g>
          </g>
          <g id="Grupo_11604" data-name="Grupo 11604">
            <g id="Grupo_11603" data-name="Grupo 11603">
              <g id="Grupo_11602" data-name="Grupo 11602">
                <path id="Trazado_37757" data-name="Trazado 37757" d="M108.89-378.188v1.126c-19.782,0-35.876,16.631-35.876,37.071v22.8c-.375.03-.746.05-1.125.063v-22.867C71.889-361.053,88.486-378.188,108.89-378.188Z" fill="#452235"/>
              </g>
            </g>
          </g>
          <g id="Grupo_11607" data-name="Grupo 11607">
            <g id="Grupo_11606" data-name="Grupo 11606">
              <g id="Grupo_11605" data-name="Grupo 11605">
                <path id="Trazado_37758" data-name="Trazado 37758" d="M111.041-373.032v1.1c-18.032,0-30.62,15.251-30.62,37.084v16.568c-.367.088-.738.167-1.1.242v-16.81c0-10.471,3.01-20.041,8.466-26.952A28.7,28.7,0,0,1,111.041-373.032Z" fill="#452235"/>
              </g>
            </g>
          </g>
          <g id="Grupo_11608" data-name="Grupo 11608">
            <path id="Trazado_37759" data-name="Trazado 37759" d="M74.151-275.226c6.686-25.439,2.021-34.258-2.115-45.206l1.215-17.916a11.291,11.291,0,0,1,6.805-10.361l5.376-3.022,13.812-7.762,13.188,7.428,5.949,3.349a11.305,11.305,0,0,1,6.792,10.362l1.2,16.94c-3.941,16.128-12.64,21.3-3.588,48.712a143.086,143.086,0,0,1,4.564,17.771h-56.3A104.5,104.5,0,0,1,74.151-275.226Z" fill="#c94956"/>
          </g>
          <g id="Grupo_11609" data-name="Grupo 11609">
            <path id="Trazado_37760" data-name="Trazado 37760" d="M106.328-352.788l-6.934,4.909-6.982-4.909a3.564,3.564,0,0,1-.983-2.527v-16.839h15.883v16.839A3.561,3.561,0,0,1,106.328-352.788Z" fill="#ff8f6e"/>
          </g>
          <path id="Trazado_37761" data-name="Trazado 37761" d="M91.429-365.4s5.653,8.531,7.965,8.531,7.918-8.627,7.918-8.627Z" fill="#452235"/>
          <g id="Grupo_11610" data-name="Grupo 11610">
            <path id="Trazado_37762" data-name="Trazado 37762" d="M127.342-254.931c-.493-2.555-1.054-5.139-1.689-7.729h-53.9c-.328,2.6-.559,5.181-.712,7.729Z" fill="#452235"/>
          </g>
          <g id="Grupo_11611" data-name="Grupo 11611">
            <path id="Trazado_37763" data-name="Trazado 37763" d="M63.415-289.512h0a7.484,7.484,0,0,1-4.587-9.539l15.583-43.605a7.484,7.484,0,0,1,9.539-4.587h0a7.485,7.485,0,0,1,4.588,9.539L72.955-294.1A7.485,7.485,0,0,1,63.415-289.512Z" fill="#f7ebf3"/>
          </g>
          <g id="Grupo_11612" data-name="Grupo 11612">
            <path id="Trazado_37764" data-name="Trazado 37764" d="M134.146-289.327h0a7.485,7.485,0,0,0,4.763-9.453l-14.776-43.885a7.485,7.485,0,0,0-9.453-4.763h0a7.485,7.485,0,0,0-4.763,9.453l14.776,43.885A7.484,7.484,0,0,0,134.146-289.327Z" fill="#f7ebf3"/>
          </g>
          <g id="Grupo_11613" data-name="Grupo 11613">
            <path id="Trazado_37765" data-name="Trazado 37765" d="M110.692-314.538v-1.143a11.094,11.094,0,0,0,10.337-6.982l1.06.426A12.23,12.23,0,0,1,110.692-314.538Z" fill="#452235"/>
          </g>
          <g id="Grupo_11614" data-name="Grupo 11614">
            <path id="Trazado_37766" data-name="Trazado 37766" d="M88.175-314.538a12.23,12.23,0,0,1-11.4-7.7l1.06-.426a11.094,11.094,0,0,0,10.337,6.982Z" fill="#452235"/>
          </g>
          <path id="Trazado_37767" data-name="Trazado 37767" d="M124.444-315.048c.105-.3.21-.593.313-.9a25.563,25.563,0,0,0,1.287-10.066l-.872-12.346a11.3,11.3,0,0,0-6.79-10.358l-6.175-3.477L99.267-318.6,86.4-352.275l-6.344,3.566a11.293,11.293,0,0,0-6.807,10.362l-.829,12.253a25.768,25.768,0,0,0,1.561,10.744L68.255-208.639h67.037Z" fill="#f7ebf3"/>
          <rect id="Rectángulo_3519" data-name="Rectángulo 3519" width="1.012" height="110.494" transform="translate(98.829 -319.133)" fill="#cfbcc7"/>
          <path id="Trazado_37768" data-name="Trazado 37768" d="M87.021-350.65l-3.654,5.836,6.671,4.394L85-334.548l13.537,14.024.734,1.922L83.509-334.471l4.941-5.925L82.1-344.625l4.5-7.133Z" fill="#cfbcc7"/>
          <path id="Trazado_37769" data-name="Trazado 37769" d="M111.594-350.6l3.5,5.786-6.671,4.394,5.042,5.871L100.033-320.59l-.765,1.987,15.687-15.868-4.941-5.925,6.353-4.229-4.326-7.133Z" fill="#cfbcc7"/>
          <g id="Grupo_11615" data-name="Grupo 11615">
            <rect id="Rectángulo_3520" data-name="Rectángulo 3520" width="12.716" height="6.476" transform="translate(90.402 -356.87) rotate(45)" fill="#c94956"/>
          </g>
          <g id="Grupo_11617" data-name="Grupo 11617">
            <g id="Grupo_11616" data-name="Grupo 11616">
              <rect id="Rectángulo_3521" data-name="Rectángulo 3521" width="12.716" height="6.476" transform="translate(112.965 -352.291) rotate(135)" fill="#c94956"/>
            </g>
          </g>
          <g id="Grupo_11619" data-name="Grupo 11619">
            <g id="Grupo_11618" data-name="Grupo 11618">
              <path id="Trazado_37770" data-name="Trazado 37770" d="M104.773-343.441l8.521-8.521-.658-.658-7.866,7.866-4.274-4.231-.655.662Z" fill="#452235"/>
            </g>
          </g>
          <g id="Grupo_11621" data-name="Grupo 11621">
            <g id="Grupo_11620" data-name="Grupo 11620">
              <path id="Trazado_37771" data-name="Trazado 37771" d="M93.882-343.579l4.756-5.077-.679-.636-4.1,4.381L86.1-352.572l-.652.664Z" fill="#452235"/>
            </g>
          </g>
          <g id="Grupo_11622" data-name="Grupo 11622">
            <path id="Trazado_37772" data-name="Trazado 37772" d="M112.227-298.874l.065-3.9-12.7-.15a3.635,3.635,0,0,0-3.678,3.574l-.114,6.828,9.766.115A6.579,6.579,0,0,0,112.227-298.874Z" fill="#ff8f6e"/>
          </g>
          <g id="Grupo_11623" data-name="Grupo 11623">
            <path id="Trazado_37773" data-name="Trazado 37773" d="M96.522-300.982l-.119,8.466-29.56,4.194a7.7,7.7,0,0,1-8.089-7.8h0a7.7,7.7,0,0,1,7.809-7.592Z" fill="#f7ebf3"/>
          </g>
          <g id="Grupo_11624" data-name="Grupo 11624">
            <path id="Trazado_37774" data-name="Trazado 37774" d="M152.383-331.087l.177-3.894-12.688-.514a3.635,3.635,0,0,0-3.778,3.468l-.31,6.821,9.759.4A6.581,6.581,0,0,0,152.383-331.087Z" fill="#ff8f6e"/>
          </g>
          <g id="Grupo_11625" data-name="Grupo 11625">
            <path id="Trazado_37775" data-name="Trazado 37775" d="M135.751-327.386l8.095,2.48-4.237,29.555a7.7,7.7,0,0,1-9.749,5.585h0a7.7,7.7,0,0,1-5.107-9.62Z" fill="#f7ebf3"/>
          </g>
          <path id="Trazado_37776" data-name="Trazado 37776" d="M108.2-259.1h-.025l.017-.008Z" fill="#664f5a"/>
          <g id="Grupo_11627" data-name="Grupo 11627">
            <g id="Grupo_11626" data-name="Grupo 11626">
              <path id="Trazado_37777" data-name="Trazado 37777" d="M81.093-388.194a19.2,19.2,0,0,0,19.2,19.2,19.2,19.2,0,0,0,19.2-19.2,19.026,19.026,0,0,0-.132-2.253c-.044-.384-.1-.768-.17-1.146a18.748,18.748,0,0,0-1.058-3.7c-.151-.391-.315-.768-.5-1.14a19.189,19.189,0,0,0-17.343-10.966,19.093,19.093,0,0,0-4.98.655c-.371.094-.736.208-1.1.334A17.54,17.54,0,0,0,91.7-405.36c-.384.182-.755.39-1.121.6A19.187,19.187,0,0,0,81.093-388.194Z" fill="#8f5252"/>
            </g>
          </g>
          <g id="Grupo_11629" data-name="Grupo 11629">
            <g id="Grupo_11628" data-name="Grupo 11628">
              <path id="Trazado_37778" data-name="Trazado 37778" d="M95.643-362.635a6.245,6.245,0,0,0,7.308,0s9.325-4.253,9.325-10.781v-18.666c0-8-5.811-13.222-12.979-13.222h0c-7.168,0-12.978,5.224-12.978,13.222v19.3C86.319-367.347,95.643-362.635,95.643-362.635Z" fill="#ff8f6e"/>
            </g>
          </g>
          <path id="Trazado_37779" data-name="Trazado 37779" d="M104.8-372.8a5.073,5.073,0,0,1-5.073,5.073,5.072,5.072,0,0,1-5.072-5.073Z" fill="#fff"/>
          <g id="Grupo_11631" data-name="Grupo 11631">
            <g id="Grupo_11630" data-name="Grupo 11630">
              <path id="Trazado_37780" data-name="Trazado 37780" d="M84.812-387.465h0a5.771,5.771,0,0,0,5.771-5.771v-7.607h0a5.771,5.771,0,0,0-5.771,5.771Z" fill="#8f5252"/>
            </g>
          </g>
          <g id="Grupo_11633" data-name="Grupo 11633">
            <g id="Grupo_11632" data-name="Grupo 11632">
              <path id="Rectángulo_3522" data-name="Rectángulo 3522" d="M0,0H16.26A10.544,10.544,0,0,1,26.8,10.544v2.162A5.394,5.394,0,0,1,21.411,18.1H15.938A15.938,15.938,0,0,1,0,2.162V0A0,0,0,0,1,0,0Z" transform="translate(116.01 -387.998) rotate(-180)" fill="#8f5252"/>
            </g>
          </g>
          <g id="Grupo_11635" data-name="Grupo 11635">
            <g id="Grupo_11634" data-name="Grupo 11634">
              <path id="Trazado_37781" data-name="Trazado 37781" d="M113.424-384.012a2.354,2.354,0,0,1,2.354,2.354v4.565a2.354,2.354,0,0,1-2.354,2.354h-1.148v-8.974A2.345,2.345,0,0,1,113.424-384.012Z" fill="#ff8f6e"/>
            </g>
          </g>
          <g id="Grupo_11637" data-name="Grupo 11637">
            <g id="Grupo_11636" data-name="Grupo 11636">
              <path id="Trazado_37782" data-name="Trazado 37782" d="M85.171-384.012a2.354,2.354,0,0,0-2.354,2.354v4.565a2.354,2.354,0,0,0,2.354,2.354h1.148v-8.974A2.345,2.345,0,0,0,85.171-384.012Z" fill="#ff8f6e"/>
            </g>
          </g>
          <g id="Grupo_11639" data-name="Grupo 11639">
            <g id="Grupo_11638" data-name="Grupo 11638">
              <path id="Trazado_37783" data-name="Trazado 37783" d="M98.613-375.234H99.7a1.166,1.166,0,0,0,1.166-1.166v-3.527H99.724v3a.547.547,0,0,1-.547.547h-.564Z" fill="#452235"/>
            </g>
          </g>
          <g id="Grupo_11641" data-name="Grupo 11641">
            <g id="Grupo_11640" data-name="Grupo 11640">
              <path id="Trazado_37784" data-name="Trazado 37784" d="M103.507-385.355a8.613,8.613,0,0,1,2.458-.463,8.613,8.613,0,0,1,2.458.463l.389-1.075a9.648,9.648,0,0,0-2.847-.532,9.648,9.648,0,0,0-2.847.532Z" fill="#452235"/>
            </g>
          </g>
          <g id="Grupo_11643" data-name="Grupo 11643">
            <g id="Grupo_11642" data-name="Grupo 11642">
              <path id="Trazado_37785" data-name="Trazado 37785" d="M90.279-385.355a8.613,8.613,0,0,1,2.458-.463,8.613,8.613,0,0,1,2.458.463l.389-1.075a9.648,9.648,0,0,0-2.847-.532,9.648,9.648,0,0,0-2.847.532Z" fill="#452235"/>
            </g>
          </g>
          <g id="Grupo_11645" data-name="Grupo 11645">
            <g id="Grupo_11644" data-name="Grupo 11644">
              <circle id="Elipse_856" data-name="Elipse 856" cx="1.524" cy="1.524" r="1.524" transform="translate(103.801 -382.791)" fill="#452235"/>
            </g>
          </g>
          <g id="Grupo_11647" data-name="Grupo 11647">
            <g id="Grupo_11646" data-name="Grupo 11646">
              <circle id="Elipse_857" data-name="Elipse 857" cx="1.524" cy="1.524" r="1.524" transform="translate(92.253 -382.791)" fill="#452235"/>
            </g>
          </g>
          <g id="Grupo_11649" data-name="Grupo 11649">
            <g id="Grupo_11648" data-name="Grupo 11648">
              <path id="Trazado_37786" data-name="Trazado 37786" d="M108.129-381.267a2.164,2.164,0,0,0-2.164-2.164,2.164,2.164,0,0,0-2.164,2.164Z" fill="#452235"/>
            </g>
          </g>
          <g id="Grupo_11651" data-name="Grupo 11651">
            <g id="Grupo_11650" data-name="Grupo 11650">
              <path id="Trazado_37787" data-name="Trazado 37787" d="M90.847-381.267a2.164,2.164,0,0,1,2.164-2.164,2.164,2.164,0,0,1,2.164,2.164Z" fill="#452235"/>
            </g>
          </g>
          <g id="Grupo_11653" data-name="Grupo 11653">
            <g id="Grupo_11652" data-name="Grupo 11652">
              <path id="Trazado_37788" data-name="Trazado 37788" d="M90.579-404.756a15.016,15.016,0,0,0,14.983,14.309h13.8c-.044-.384-.1-.768-.17-1.146H105.562A13.875,13.875,0,0,1,91.7-405.36C91.316-405.178,90.945-404.97,90.579-404.756Z" fill="#452235"/>
            </g>
          </g>
          <g id="Grupo_11655" data-name="Grupo 11655">
            <g id="Grupo_11654" data-name="Grupo 11654">
              <path id="Trazado_37789" data-name="Trazado 37789" d="M94.218-406.4a15.029,15.029,0,0,0,14.491,11.117h9.424c-.151-.391-.315-.768-.5-1.14h-8.927a13.883,13.883,0,0,1-13.4-10.311C94.942-406.645,94.577-406.531,94.218-406.4Z" fill="#452235"/>
            </g>
          </g>
          <g id="Grupo_11656" data-name="Grupo 11656">
            <path id="Trazado_37790" data-name="Trazado 37790" d="M93.714-376.683a4.282,4.282,0,0,1-4.277-4.277,4.282,4.282,0,0,1,4.277-4.277,4.282,4.282,0,0,1,4.277,4.277A4.282,4.282,0,0,1,93.714-376.683Zm0-7.927a3.654,3.654,0,0,0-3.65,3.65,3.654,3.654,0,0,0,3.65,3.65,3.654,3.654,0,0,0,3.65-3.65A3.654,3.654,0,0,0,93.714-384.61Z" fill="#452235"/>
          </g>
          <g id="Grupo_11657" data-name="Grupo 11657">
            <path id="Trazado_37791" data-name="Trazado 37791" d="M105.617-376.683a4.282,4.282,0,0,1-4.277-4.277,4.282,4.282,0,0,1,4.277-4.277,4.282,4.282,0,0,1,4.277,4.277A4.282,4.282,0,0,1,105.617-376.683Zm0-7.927a3.654,3.654,0,0,0-3.65,3.65,3.654,3.654,0,0,0,3.65,3.65,3.654,3.654,0,0,0,3.651-3.65A3.654,3.654,0,0,0,105.617-384.61Z" fill="#452235"/>
          </g>
          <g id="Grupo_11658" data-name="Grupo 11658">
            <path id="Trazado_37792" data-name="Trazado 37792" d="M101.7-381.208H97.634a.313.313,0,0,1-.313-.313.313.313,0,0,1,.313-.313H101.7a.314.314,0,0,1,.314.313A.314.314,0,0,1,101.7-381.208Z" fill="#452235"/>
          </g>
          <g id="Grupo_11659" data-name="Grupo 11659">
            <path id="Trazado_37793" data-name="Trazado 37793" d="M109.5-382.08a.312.312,0,0,1-.271-.155.313.313,0,0,1,.113-.428l3.1-1.814a.312.312,0,0,1,.428.112.311.311,0,0,1-.112.428l-3.1,1.814A.307.307,0,0,1,109.5-382.08Z" fill="#452235"/>
          </g>
          <g id="Grupo_11660" data-name="Grupo 11660">
            <path id="Trazado_37794" data-name="Trazado 37794" d="M90.068-382.2a.3.3,0,0,1-.109-.02l-4.027-1.5a.312.312,0,0,1-.185-.4.313.313,0,0,1,.4-.185l4.027,1.5a.312.312,0,0,1,.184.4A.312.312,0,0,1,90.068-382.2Z" fill="#452235"/>
          </g>
          <g id="Grupo_11662" data-name="Grupo 11662">
            <g id="Grupo_11661" data-name="Grupo 11661">
              <path id="Trazado_37795" data-name="Trazado 37795" d="M70.746-255.053h7.485v-1.2H70.8Z" fill="#cfbcc7"/>
            </g>
          </g>
          <g id="Grupo_11664" data-name="Grupo 11664">
            <g id="Grupo_11663" data-name="Grupo 11663">
              <path id="Trazado_37796" data-name="Trazado 37796" d="M123.149-255.053h7.411l-.122-1.2h-7.288Z" fill="#cfbcc7"/>
            </g>
          </g>
          <path id="Trazado_37797" data-name="Trazado 37797" d="M135.049-341.9v-3.626H138.5v3.626l2.476,6.08c.577,1.418,1.148,2.5,1.069,3.45a1.632,1.632,0,0,1-.747,1.363h-9.05c-.4-.136-.708-.854-.749-1.384-.073-.954.5-2.022,1.071-3.429Z" fill="#fff5e9"/>
          <rect id="Rectángulo_3523" data-name="Rectángulo 3523" width="3.983" height="0.709" rx="0.293" transform="translate(134.785 -345.881)" fill="#fff5e9"/>
          <path id="Trazado_37798" data-name="Trazado 37798" d="M134.534-337.682h4.484l.838,2.057a6.471,6.471,0,0,1,.783,2.528,1.2,1.2,0,0,1-.547,1h-6.631c-.295-.1-.519-.626-.549-1.014a6.489,6.489,0,0,1,.785-2.513Z" fill="#cfc515"/>
          <path id="Trazado_37799" data-name="Trazado 37799" d="M139.413-336.237a.7.7,0,0,1-.649.959.7.7,0,0,1-.65-.441l-1.547-3.877h1.506Z" fill="#fff" opacity="0.52"/>
          <path id="Trazado_37800" data-name="Trazado 37800" d="M103.419-311.856v-3.7h3.523v3.7l2.524,6.2c.588,1.445,1.171,2.547,1.09,3.517a1.663,1.663,0,0,1-.762,1.39h-9.227c-.411-.139-.722-.871-.764-1.411-.075-.972.508-2.061,1.092-3.5Z" fill="#fff5e9"/>
          <rect id="Rectángulo_3524" data-name="Rectángulo 3524" width="4.061" height="0.723" rx="0.299" transform="translate(103.15 -315.915)" fill="#fff5e9"/>
          <path id="Trazado_37801" data-name="Trazado 37801" d="M102.895-307.556h4.572l.853,2.1a6.594,6.594,0,0,1,.8,2.578,1.221,1.221,0,0,1-.558,1.019H101.8c-.3-.1-.529-.639-.559-1.034a6.63,6.63,0,0,1,.8-2.563Z" fill="#838f96"/>
          <path id="Trazado_37802" data-name="Trazado 37802" d="M107.869-306.082a.713.713,0,0,1-.662.977.713.713,0,0,1-.662-.449l-1.577-3.953H106.5Z" fill="#fff" opacity="0.52"/>
        </g>
      </g>
    </g>
    <rect id="Rectángulo_39830" data-name="Rectángulo 39830" width="483" height="237.402" rx="13" transform="translate(881 4604.693)" fill="#fff"/>
    <text id="Guantes_de_nitrilo_de_neopreno_gruesos_y_delgados:_Cualquier_manipulación_de_sustancias_corrosivas_irritantes_de_elevada_toxicidad_o_de_elevado_poder_de_penetración_a_través_de_la_piel_debe_ser_llevada_a_cabo_empleando_guantes_adecuados_y_limpios._Fin" data-name="Guantes de nitrilo, de neopreno, gruesos y delgados:
Cualquier manipulación de sustancias corrosivas, irritantes, de elevada toxicidad o de elevado poder de penetración a través de la piel, debe ser llevada a cabo empleando guantes adecuados y limpios. Fin" transform="translate(914.8 4640.789)" fill="#12263f" font-size="16" font-family="ArialMT, Arial"><tspan x="0" y="14">Guantes de nitrilo, de neopreno, gruesos y delgados:</tspan><tspan x="0" y="38">Cualquier manipulación de sustancias corrosivas, irritantes, </tspan><tspan x="0" y="62">de elevada toxicidad o de elevado poder de penetración a </tspan><tspan x="0" y="86">través de la piel, debe ser llevada a cabo empleando </tspan><tspan x="0" y="110">guantes adecuados y limpios. Finalizada la práctica, lave </tspan><tspan x="0" y="134">los guantes con abundante agua y jabón. Haga lo propio </tspan><tspan x="0" y="158">con sus manos. (Sociedad Americana de química, 2003, </tspan><tspan x="0" y="182">p.5)</tspan></text>
    <g id="Rectángulo_39340" data-name="Rectángulo 39340" transform="translate(897 4582)" fill="none" stroke="#367ea4" stroke-width="2">
      <rect width="451" height="266" rx="15" stroke="none"/>
      <rect x="1" y="1" width="449" height="264" rx="14" fill="none"/>
    </g>
    <g id="Grupo_11670" data-name="Grupo 11670" transform="translate(926.845 4452.504)" style="isolation: isolate">
      <path id="Trazado_37803" data-name="Trazado 37803" d="M-504.411,96.028s-4.032-14.876,9.951-28.669,3.063-23.345,10.121-42c4.417-11.676,16.316-22.292,39.92-22.457s29.606,17.835,39.275,20.475c17.536,4.789,26.886-2.911,38.177,5.284,14.56,10.568,2.373,27.911,4.74,39.146,3.387,16.074,11.862,17.295,11.507,28.225" fill="#dceef7"/>
      <path id="Trazado_37804" data-name="Trazado 37804" d="M-360.655,62.179a24.671,24.671,0,0,0,1.331,10.766c2.065,5.869,5.327,9.976,9.123,9.873s4.461-6.1,2-11.927-1-10.8-2.6-14.627S-360.589,53.16-360.655,62.179Z" fill="#dceef7"/>
      <path id="Trazado_37805" data-name="Trazado 37805" d="M-491.253,51.149a19.327,19.327,0,0,1-3.129,9.288,29.857,29.857,0,0,1-6.644,7.217c-2.458,1.883-8.2.047-3.344-7.217s7.433-9.747,7.7-13.022S-490.866,44.417-491.253,51.149Z" fill="#dceef7"/>
      <path id="Trazado_37806" data-name="Trazado 37806" d="M-351.236,95.73s4.031,14.876-9.951,28.669-3.063,23.345-10.122,42c-4.416,11.676-16.315,22.292-39.92,22.457s-29.605-17.835-39.274-20.475c-17.536-4.789-26.887,2.911-38.177-5.284-14.561-10.568-2.373-27.911-4.741-39.146-3.387-16.075-11.862-17.295-11.507-28.225" fill="#dceef7"/>
      <path id="Trazado_37807" data-name="Trazado 37807" d="M-494.992,129.579a24.663,24.663,0,0,0-1.332-10.766c-2.064-5.869-5.327-9.976-9.122-9.873s-4.462,6.1-2,11.927,1,10.8,2.6,14.627S-495.058,138.6-494.992,129.579Z" fill="#dceef7"/>
      <path id="Trazado_37808" data-name="Trazado 37808" d="M-364.394,140.608a19.324,19.324,0,0,1,3.129-9.287,29.863,29.863,0,0,1,6.644-7.218c2.457-1.882,8.2-.046,3.343,7.218s-7.432,9.747-7.7,13.022S-364.781,147.341-364.394,140.608Z" fill="#dceef7"/>
      <g id="Grupo_11669" data-name="Grupo 11669">
        <g id="Grupo_11668" data-name="Grupo 11668" clip-path="url(#clip-path-3)">
          <path id="Trazado_37809" data-name="Trazado 37809" d="M-418.729,73.465c-.411,15.645-36.411,10.822-36.271-.45l.334-26.99,36.27.449Z" fill="#febd95"/>
          <path id="Trazado_37810" data-name="Trazado 37810" d="M-454.895,64.55l.229-18.525,36.27.449-.333,26.991c-.135,5.159-4.15,8.081-9.453,9.291C-432.88,72-444,67.411-454.895,64.55Z" fill="#febd95"/>
          <path id="Trazado_37811" data-name="Trazado 37811" d="M-513.613,103.463H-411.36a52.128,52.128,0,0,0-7.689-32.9l-.975,6.552c-.361,2.365-4.007,3.664-8.79,3.971-8.43.56-20.379-1.985-23.556-7.22-4.981-8.195-10.9-6.01-10.9-6.01S-472.3,75.5-481.7,78.789C-505.8,84.1-512.133,95.864-513.613,103.463Z" fill="#5abde6"/>
          <path id="Trazado_37812" data-name="Trazado 37812" d="M-513.812,110.448h101.3a50.411,50.411,0,0,0,1.155-6.985H-513.613A19.037,19.037,0,0,0-513.812,110.448Z" fill="#1b495c"/>
          <path id="Trazado_37813" data-name="Trazado 37813" d="M-430.818,110.448h18.3a50.411,50.411,0,0,0,1.155-6.985,52.128,52.128,0,0,0-7.689-32.9l-.975,6.552c-.361,2.365-4.007,3.664-8.79,3.971-.054.217,1.5,12.22,1.209,15.993a58.719,58.719,0,0,1-.794,6.389,35.909,35.909,0,0,1-.867,3.7A19.109,19.109,0,0,1-430.818,110.448Z" fill="#5abde6" opacity="0.5" style="mix-blend-mode: multiply;isolation: isolate"/>
          <path id="Trazado_37814" data-name="Trazado 37814" d="M-360.045,88.917c-.41,15.645-36.41,10.822-36.271-.45l.334-26.99,36.271.45Z" fill="#febd95"/>
          <path id="Trazado_37815" data-name="Trazado 37815" d="M-396.211,80l.229-18.525,36.271.45-.334,26.99c-.135,5.159-4.149,8.081-9.453,9.291C-374.2,87.456-385.314,82.863-396.211,80Z" fill="#febd95"/>
          <path id="Trazado_37816" data-name="Trazado 37816" d="M-454.929,118.915h102.253a52.121,52.121,0,0,0-7.689-32.9l-.975,6.552c-.361,2.365-4.007,3.665-8.79,3.971-8.429.56-20.378-1.985-23.555-7.22-4.982-8.2-10.9-6.01-10.9-6.01s-9.024,7.653-18.428,10.938C-447.113,99.548-453.449,111.316-454.929,118.915Z" fill="#5abde6"/>
          <path id="Trazado_37817" data-name="Trazado 37817" d="M-455.127,125.9h101.3a50.278,50.278,0,0,0,1.155-6.986H-454.929A19.026,19.026,0,0,0-455.127,125.9Z" fill="#1b495c"/>
          <path id="Trazado_37818" data-name="Trazado 37818" d="M-372.134,125.9h18.3a50.278,50.278,0,0,0,1.155-6.986,52.121,52.121,0,0,0-7.689-32.9l-.975,6.552c-.361,2.365-4.007,3.665-8.79,3.971-.054.217,1.5,12.22,1.209,15.993a58.72,58.72,0,0,1-.794,6.389,35.912,35.912,0,0,1-.866,3.7A19.2,19.2,0,0,1-372.134,125.9Z" fill="#5abde6" opacity="0.5" style="mix-blend-mode: multiply;isolation: isolate"/>
          <path id="Trazado_37819" data-name="Trazado 37819" d="M-468.562,56.86" fill="#febd95"/>
          <path id="Trazado_37820" data-name="Trazado 37820" d="M-468.271,68.344s51.387,7.74,63.871,0l-.581-74.225h-63.581Z" fill="#fff"/>
          <path id="Trazado_37821" data-name="Trazado 37821" d="M-410.62,81.346s51.387,7.74,63.871,0l-.581-98.55h-63.58Z" fill="#fff"/>
          <path id="Trazado_37822" data-name="Trazado 37822" d="M-410.62,81.346l11.541,1.474V-1.053h-11.784Z" fill="#efeae8"/>
        </g>
      </g>
    </g>
    <g id="Grupo_11301" data-name="Grupo 11301" transform="translate(1023.845 4432.504)" style="isolation: isolate">
      <path id="Trazado_37568" data-name="Trazado 37568" d="M20.209,99.139S16.178,84.263,30.161,70.47s3.063-23.346,10.121-42.005C44.7,16.79,56.6,6.173,80.2,6.008s29.606,17.835,39.275,20.476c17.536,4.788,26.886-2.911,38.177,5.284,14.56,10.568,2.373,27.911,4.74,39.146,3.387,16.074,11.862,17.294,11.507,28.225" fill="#dceef7"/>
      <path id="Trazado_37569" data-name="Trazado 37569" d="M163.965,65.29A24.681,24.681,0,0,0,165.3,76.056c2.064,5.868,5.327,9.976,9.123,9.873s4.461-6.1,2-11.927-1-10.8-2.6-14.627S164.032,56.271,163.965,65.29Z" fill="#dceef7"/>
      <path id="Trazado_37570" data-name="Trazado 37570" d="M33.368,54.26a19.334,19.334,0,0,1-3.129,9.287,29.845,29.845,0,0,1-6.644,7.218c-2.458,1.883-8.2.047-3.344-7.218s7.433-9.746,7.7-13.021S33.755,47.527,33.368,54.26Z" fill="#dceef7"/>
      <path id="Trazado_37571" data-name="Trazado 37571" d="M173.385,98.841s4.031,14.876-9.951,28.668-3.063,23.346-10.122,42.005c-4.416,11.675-16.315,22.292-39.92,22.457s-29.6-17.835-39.274-20.476c-17.536-4.788-26.887,2.911-38.177-5.284C21.38,155.643,33.568,138.3,31.2,127.066c-3.387-16.075-11.862-17.295-11.507-28.225" fill="#dceef7"/>
      <path id="Trazado_37572" data-name="Trazado 37572" d="M29.629,132.69A24.686,24.686,0,0,0,28.3,121.923c-2.064-5.868-5.327-9.976-9.122-9.872s-4.462,6.1-2,11.927,1,10.8,2.6,14.626S29.562,141.708,29.629,132.69Z" fill="#dceef7"/>
      <path id="Trazado_37573" data-name="Trazado 37573" d="M160.226,143.719a19.337,19.337,0,0,1,3.13-9.287A29.825,29.825,0,0,1,170,127.214c2.457-1.882,8.2-.046,3.343,7.218s-7.432,9.746-7.7,13.022S159.84,150.452,160.226,143.719Z" fill="#dceef7"/>
      <g id="Grupo_11300" data-name="Grupo 11300">
        <g id="Grupo_11299" data-name="Grupo 11299" clip-path="url(#clip-path-4)">
          <path id="Trazado_37574" data-name="Trazado 37574" d="M74.9-190.766a13.33,13.33,0,0,0-12.054,10.85L46.915-94.253a491.933,491.933,0,0,0-6.8,128.207L46.9,120.822a13.324,13.324,0,0,0,26.567-2.075L66.683,31.879A465.25,465.25,0,0,1,73.114-89.382l15.93-85.663A13.325,13.325,0,0,0,78.38-190.58,13.354,13.354,0,0,0,74.9-190.766Z" fill="#fdc5c5"/>
          <path id="Trazado_37575" data-name="Trazado 37575" d="M44.158,85.713,46.9,120.822a13.324,13.324,0,0,0,26.567-2.075L70.725,83.638Z" fill="#5391ba"/>
          <path id="Trazado_37576" data-name="Trazado 37576" d="M44.028,84.053,70.6,81.979a1.666,1.666,0,0,1,.259,3.321L44.287,87.374a1.666,1.666,0,1,1-.259-3.321Z" fill="#5d9ec5"/>
          <path id="Trazado_37577" data-name="Trazado 37577" d="M79-194.532a17.342,17.342,0,0,1,14.015,20.091L72.5-59.31a3.137,3.137,0,0,1-3.639,2.538L40.935-61.746a3.138,3.138,0,0,1-2.538-3.64L58.9-180.517A17.342,17.342,0,0,1,79-194.532Z" fill="#69abd2"/>
          <path id="Trazado_37578" data-name="Trazado 37578" d="M38.4-65.386l2.594-14.563L75.1-73.874,72.5-59.31a3.137,3.137,0,0,1-3.639,2.539L40.935-61.746A3.138,3.138,0,0,1,38.4-65.386Z" fill="#6cbee6"/>
          <path id="Trazado_37579" data-name="Trazado 37579" d="M40.3,151.976a4.716,4.716,0,0,0,5.07,4.328,4.588,4.588,0,0,0,2.68-1.1.815.815,0,0,1,1.292.336,5.469,5.469,0,0,0,9.185,1.787.814.814,0,0,1,1.367.269,6.265,6.265,0,0,0,11.988-.756.814.814,0,0,1,1.36-.406,5.484,5.484,0,0,0,9.281-4.331s-.289-5.469-.376-7.652a.866.866,0,0,1,.8-.9c6.16-.474,7.286-8.54,4.521-17.669C84.222,115.166,72.5,97.018,58.732,98.685c-11.474,1.389-21.09,13.152-20.3,28.793C38.569,130.262,38.192,125.207,40.3,151.976Z" fill="#5391ba"/>
          <path id="Trazado_37580" data-name="Trazado 37580" d="M116.552-187.321a13.332,13.332,0,0,1,11.907,11.011l14.778,85.869a491.982,491.982,0,0,1,5.075,128.287l-7.95,86.769a13.324,13.324,0,1,1-26.536-2.431l7.949-86.769a465.28,465.28,0,0,0-4.8-121.337L102.2-171.791a13.324,13.324,0,0,1,10.871-15.39A13.34,13.34,0,0,1,116.552-187.321Z" fill="#fdc5c5"/>
          <path id="Trazado_37581" data-name="Trazado 37581" d="M143.575,89.547l-3.213,35.068a13.324,13.324,0,1,1-26.536-2.431l3.213-35.069Z" fill="#5391ba"/>
          <path id="Trazado_37582" data-name="Trazado 37582" d="M143.728,87.889l-26.537-2.432a1.665,1.665,0,0,0-.3,3.317l26.537,2.432a1.665,1.665,0,0,0,.3-3.317Z" fill="#5d9ec5"/>
          <path id="Trazado_37583" data-name="Trazado 37583" d="M112.506-191.142a17.342,17.342,0,0,0-14.284,19.9l18.959,115.4a3.138,3.138,0,0,0,3.605,2.588l27.993-4.6a3.138,3.138,0,0,0,2.587-3.6l-18.96-115.4A17.341,17.341,0,0,0,112.506-191.142Z" fill="#69abd2"/>
          <path id="Trazado_37584" data-name="Trazado 37584" d="M151.366-61.461l-2.4-14.6-34.185,5.616,2.4,14.6a3.137,3.137,0,0,0,3.6,2.588l27.994-4.6A3.137,3.137,0,0,0,151.366-61.461Z" fill="#6cbee6"/>
          <path id="Trazado_37585" data-name="Trazado 37585" d="M146.538,155.855a4.715,4.715,0,0,1-5.127,4.26,4.6,4.6,0,0,1-2.665-1.131.814.814,0,0,0-1.3.319,5.469,5.469,0,0,1-9.208,1.663.814.814,0,0,0-1.37.251,6.265,6.265,0,0,1-11.977-.918.815.815,0,0,0-1.355-.424,5.484,5.484,0,0,1-9.222-4.455s.362-5.465.479-7.646a.865.865,0,0,0-.785-.908c-6.153-.556-7.172-8.637-4.284-17.729,3.392-10.678,15.355-28.667,29.1-26.816,11.455,1.543,20.911,13.434,19.915,29.063C148.565,134.167,149.01,129.117,146.538,155.855Z" fill="#5391ba"/>
        </g>
      </g>
    </g>
  </g>
</svg>
