<svg xmlns="http://www.w3.org/2000/svg" width="397.393" height="302.761" viewBox="0 0 397.393 302.761">
  <g id="Grupo_11671" data-name="Grupo 11671" transform="translate(-6.934 -4.285)" style="isolation: isolate">
    <path id="Trazado_37823" data-name="Trazado 37823" d="M11.543,290.023S1.5,244.382,36.335,202.064,43.966,130.437,61.55,73.188C72.553,37.367,102.2,4.794,161,4.288s73.756,54.72,97.845,62.821c43.686,14.692,66.981-8.931,95.11,16.212,36.274,32.424,5.912,85.634,11.81,120.1,8.438,49.319,29.551,53.063,28.667,86.6" fill="#dceef7"/>
    <path id="Trazado_37824" data-name="Trazado 37824" d="M369.682,186.17A92.422,92.422,0,0,0,373,219.2c5.142,18,13.271,30.607,22.727,30.29s11.114-18.726,4.976-36.594-2.488-33.127-6.469-44.876S369.848,158.5,369.682,186.17Z" fill="#dceef7"/>
    <path id="Trazado_37825" data-name="Trazado 37825" d="M44.325,152.33a69.152,69.152,0,0,1-7.8,28.495,87.008,87.008,0,0,1-16.552,22.144c-6.123,5.776-20.432.143-8.33-22.144s18.517-29.9,19.19-39.953S45.288,131.673,44.325,152.33Z" fill="#dceef7"/>
    <rect id="Rectángulo_3535" data-name="Rectángulo 3535" width="385.727" height="29.69" rx="14.845" transform="translate(7.019 277.355)" fill="#4463aa"/>
    <path id="Trazado_37826" data-name="Trazado 37826" d="M99.063,82.442c0-.373,9.22-6.977,8.347-12.833-4.609,1.122-7.173,1.994-7.173,1.994s-14.63-4.236-23.726.5c-1.246,8.722,5.856,21.8,9.345,29.9s-.748,9.469-5.981,8.348-12.833-.872-12.708,8.846c-4.361-2.492-8.348,14.2,2.866,11.338s31.9-11.338,31.9-11.338l-11.462-29.4" fill="#ff7c57"/>
    <path id="Trazado_37827" data-name="Trazado 37827" d="M130.351,218.3l-26.122,67.1-4.94,1.959s-10.57-30.366,8.858-48.162c-4.734-15.347-5.551-34.448-5.551-34.448s-17.124,24.362-30.511,33.668c6.857,5.224,2.376,25.777-24.072,45.858l-2.286-1.8,25.6-80.506s43.192-8.489,43.845-9.142,16.326,6.857,16.326,6.857" fill="#2a2e51"/>
    <path id="Trazado_37828" data-name="Trazado 37828" d="M49.844,173.157v4.011l7.5,2.877,1.569,6.19a4.21,4.21,0,0,1-4.011-4.359l-2.79-1.134-2.7,6.278s4.1,5.841,1.482,10.724l-4.272-6.975s2.005,8.2-2.442,12.031l-.959-10.462s-.348,8.283-4.882,9.939c.7-4.969,1.308-8.544,1.308-8.544s-.959,5.144-4.708,6.452l2.179-8.544,8.613-13.776.542-5.754" fill="#ffb68b"/>
    <path id="Trazado_37829" data-name="Trazado 37829" d="M142.307,77.3c0-.255-2.723-18.892-4.425-20.338a49.832,49.832,0,0,1-7.488-3.489,3.574,3.574,0,0,0,2.042,4.34c-5.021-1.532-6.382-1.277-6.382-1.277S122.9,59.6,122.735,60.2s2.383,9.021,2.383,9.021l10.722,1.957,1.277,7.744" fill="#ffb68b"/>
    <path id="Trazado_37830" data-name="Trazado 37830" d="M92.055,113.229l-2.4-.9v3.481S59.272,130.79,47.034,141.972a173.08,173.08,0,0,0-2.426,32.493l6.963-.422,3.376-27.113s3.059,2.532,1.16-1.054c14.136-5.381,28.64-9.5,28.64-9.5s-6.064,19.1-10.284,29.75S63.281,199.995,60.327,209.7c8.123,8.651,38.189,16.774,52.009,16.352,0,0,6.119-16.668,7.385-21.732,1.477,8.651.844,20.888.844,20.888a29.641,29.641,0,0,0,17.3-11.921c3.165-16.563,2.532-53.064-4.642-68.783,7.069-3.27,4.431-9.073-1.688-15.4,10.444.738,22.471-5.486,22.471-5.486L143.985,76.037H135.44l4.853,35.658s-4.009-1.266-1.266,1.371l-28.273-1.16-.3-2.249-2.647,1.922" fill="#fff"/>
    <path id="Trazado_37831" data-name="Trazado 37831" d="M123.327,54.892l3.321,21.7s-5.406,12.259-6.1,14.007.695,2.289,5.019,1.9,20.235-3.321,21.547-3.862.437-2.283-2.137-4.81-10.929-8.551-10.929-8.551l-4.465-21.161s2.086-1.081-.54-1.158a17.948,17.948,0,0,0-5.852.927C122.168,54.2,121.705,54.892,123.327,54.892Z" fill="#c0f8f5" opacity="0.6"/>
    <path id="Trazado_37832" data-name="Trazado 37832" d="M126.729,54.562l-2.206.382,3.505,20.407,1.858-.833Z" fill="#fff" opacity="0.6"/>
    <path id="Trazado_37833" data-name="Trazado 37833" d="M137.882,56.963a49.832,49.832,0,0,1-7.488-3.489,3.574,3.574,0,0,0,2.042,4.34c-5.021-1.532-6.382-1.277-6.382-1.277S122.9,59.6,122.735,60.2s2.383,9.021,2.383,9.021l10.722,1.957" fill="#ffb68b"/>
    <path id="Trazado_37834" data-name="Trazado 37834" d="M92.055,113.229s16.291,13.12,23.982,23.066c0,0-6.1-24.533-9.813-27.981s-7.956,1.857-7.956,1.857" fill="#00c8bc"/>
    <path id="Trazado_37835" data-name="Trazado 37835" d="M98.205,74.53s1.35,9.45,8.25,13.35,17.85,12.749,1.35,23.7c-1.95,4.65-7.2,7.05-15.75,1.65-2.1-8.55-4.8-22.2-7.65-27.749S95.355,74.23,98.205,74.53Z" fill="#ffb68b"/>
    <path id="Trazado_37836" data-name="Trazado 37836" d="M95.823,73.97a30.684,30.684,0,0,1-11.8,15.325A28.487,28.487,0,0,1,81.246,78.58Z" fill="#ff7c57"/>
    <path id="Trazado_37837" data-name="Trazado 37837" d="M88.535,92.036s-5.545-3.613-7.414.623,5.981,6.728,7.538,3.613" fill="#ffb68b"/>
    <path id="Trazado_37838" data-name="Trazado 37838" d="M99.289,287.355l-2.083,4.152,29.4,1.837-23-7.7Z" fill="#00c8bc"/>
    <path id="Trazado_37839" data-name="Trazado 37839" d="M45.727,282.475l-15.19,11.788h15.19l2.286-9.992Z" fill="#00c8bc"/>
    <path id="Trazado_37840" data-name="Trazado 37840" d="M116.037,136.295s7.445,8.948,2.372,12.16c0,0,4.127,28.386,1.312,55.865" fill="none" stroke="#dedae8" stroke-miterlimit="10" stroke-width="1.038"/>
    <path id="Trazado_37841" data-name="Trazado 37841" d="M90.457,132.707s-6.792,17.572,7.564,18.116,35.2-6.319,35.2-6.319" fill="none" stroke="#dedae8" stroke-miterlimit="10" stroke-width="1.038"/>
    <path id="Trazado_37842" data-name="Trazado 37842" d="M89.655,115.809l1.813,9.253,7.821-3.34.948,6.518,10.8,3.178" fill="none" stroke="#dedae8" stroke-miterlimit="10" stroke-width="1.038"/>
    <path id="Trazado_37843" data-name="Trazado 37843" d="M110.754,111.906l6.689,7.128H112.4l5.042,3.4-1.973,8.987" fill="none" stroke="#dedae8" stroke-miterlimit="10" stroke-width="1.038"/>
    <path id="Trazado_37844" data-name="Trazado 37844" d="M131.536,129.1a132.087,132.087,0,0,0-10.257-10.835" fill="none" stroke="#dedae8" stroke-miterlimit="10" stroke-width="1.038"/>
    <path id="Trazado_37845" data-name="Trazado 37845" d="M77.784,195.033l.886-3.691L102,195.033l-.886,3.691" fill="none" stroke="#dedae8" stroke-miterlimit="10" stroke-width="1.038"/>
    <path id="Trazado_37846" data-name="Trazado 37846" d="M128.725,199.905v-3.839l9.893-4.725v4.873" fill="none" stroke="#dedae8" stroke-miterlimit="10" stroke-width="1.038"/>
    <path id="Trazado_37847" data-name="Trazado 37847" d="M100.346,88.337l2.425,4.284,3.257-2.021s-.307,3.678-1.982,4.25" fill="none" stroke="#f88d61" stroke-miterlimit="10" stroke-width="0.623"/>
    <path id="Trazado_37848" data-name="Trazado 37848" d="M103.685,98.963s-4.512-2.628-8.34-2.342" fill="none" stroke="#f88d61" stroke-miterlimit="10" stroke-width="0.623"/>
    <path id="Trazado_37849" data-name="Trazado 37849" d="M82.492,93.65s2.174-3.827,5.143.628c-2.515-.057.455,1.142.455,1.142" fill="none" stroke="#f88d61" stroke-miterlimit="10" stroke-width="0.623"/>
    <path id="Trazado_37850" data-name="Trazado 37850" d="M97.387,87.738c.277.615.167,1.264-.245,1.449s-.97-.163-1.247-.778-.167-1.264.245-1.449S97.11,87.123,97.387,87.738Z" fill="#2a2e51"/>
    <path id="Trazado_37851" data-name="Trazado 37851" d="M101.991,87.163c.276.615.167,1.264-.245,1.45s-.97-.163-1.247-.779-.167-1.264.245-1.449S101.714,86.548,101.991,87.163Z" fill="#2a2e51"/>
    <path id="Trazado_37852" data-name="Trazado 37852" d="M97.09,84.09s-5.216-3.8-4.995,2.122" fill="#ff7c57"/>
    <path id="Trazado_37853" data-name="Trazado 37853" d="M98.328,84.09s.453-4.308,3.917.012" fill="#ff7c57"/>
    <path id="Trazado_37854" data-name="Trazado 37854" d="M130.3,59.645l-3.058-.463-4.094,3.143" fill="none" stroke="#f88d61" stroke-miterlimit="10" stroke-width="0.623"/>
    <path id="Trazado_37855" data-name="Trazado 37855" d="M131.128,62.83l-3.533-.507-3.8,2.354" fill="none" stroke="#f88d61" stroke-miterlimit="10" stroke-width="0.623"/>
    <path id="Trazado_37856" data-name="Trazado 37856" d="M131.533,66.2c-.173-.064-3.243-.354-3.243-.354l-3.767,1.374" fill="none" stroke="#f88d61" stroke-miterlimit="10" stroke-width="0.623"/>
    <line id="Línea_181" data-name="Línea 181" x2="3.905" y2="0.788" transform="translate(132.436 57.814)" fill="none" stroke="#f88d61" stroke-miterlimit="10" stroke-width="0.623"/>
    <path id="Trazado_37857" data-name="Trazado 37857" d="M46.618,190.769l-.89-.94,1.608-5.456" fill="none" stroke="#f88d61" stroke-miterlimit="10" stroke-width="0.623"/>
    <line id="Línea_182" data-name="Línea 182" y1="6.486" x2="1.354" transform="translate(43.217 185.852)" fill="none" stroke="#f88d61" stroke-miterlimit="10" stroke-width="0.623"/>
    <path id="Trazado_37858" data-name="Trazado 37858" d="M39.643,193.733l.387-1.87,2.5-4.809" fill="none" stroke="#f88d61" stroke-miterlimit="10" stroke-width="0.623"/>
    <path id="Trazado_37859" data-name="Trazado 37859" d="M137.143,78.6l-10.137.314s-4.95,10.594-5.363,11.682,2.652,1.253,4.833.993,18.152-3.509,19.213-3.858.236-1.823-2.593-4.357S137.143,78.6,137.143,78.6Z" fill="#ff3c64"/>
    <path id="Trazado_37860" data-name="Trazado 37860" d="M131.72,85.211" fill="none" stroke="#fa2a57" stroke-miterlimit="10" stroke-width="1.038"/>
    <path id="Trazado_37861" data-name="Trazado 37861" d="M132.943,82.307v.076" fill="none" stroke="#fa2a57" stroke-miterlimit="10" stroke-width="1.038"/>
    <path id="Trazado_37862" data-name="Trazado 37862" d="M137.147,84.523" fill="none" stroke="#fa2a57" stroke-miterlimit="10" stroke-width="1.038"/>
    <path id="Trazado_37863" data-name="Trazado 37863" d="M136.994,82" fill="none" stroke="#fa2a57" stroke-miterlimit="10" stroke-width="1.038"/>
    <path id="Trazado_37864" data-name="Trazado 37864" d="M134.472,87.2l-.077-.076" fill="none" stroke="#fa2a57" stroke-miterlimit="10" stroke-width="1.038"/>
    <path id="Trazado_37865" data-name="Trazado 37865" d="M127.593,84.676l-.063-.013a.709.709,0,0,1-.014-.216" fill="none" stroke="#fa2a57" stroke-miterlimit="10" stroke-width="1.038"/>
    <path id="Trazado_37866" data-name="Trazado 37866" d="M129.351,82.077v.077" fill="none" stroke="#fa2a57" stroke-miterlimit="10" stroke-width="1.038"/>
    <path id="Trazado_37867" data-name="Trazado 37867" d="M127.287,89.338a.182.182,0,0,1,.077-.153" fill="none" stroke="#fa2a57" stroke-miterlimit="10" stroke-width="1.038"/>
    <path id="Trazado_37868" data-name="Trazado 37868" d="M130.956,88.192v-.077" fill="none" stroke="#fa2a57" stroke-miterlimit="10" stroke-width="1.038"/>
    <path id="Trazado_37869" data-name="Trazado 37869" d="M125.606,86.969" fill="none" stroke="#fa2a57" stroke-miterlimit="10" stroke-width="1.038"/>
    <path id="Trazado_37870" data-name="Trazado 37870" d="M141.962,85.975v-.229" fill="none" stroke="#fa2a57" stroke-miterlimit="10" stroke-width="1.038"/>
    <path id="Trazado_37871" data-name="Trazado 37871" d="M128.028,77.8s-5.062,11.77-4.875,12.8,2.071,1.338,2.758,0,3.975-12.8,3.975-12.8Z" fill="#fff" opacity="0.6"/>
    <path id="Trazado_37872" data-name="Trazado 37872" d="M318.836,33.718s-2.766,12.724-1.245,18.532,8.99,10.788,8.99,10.788a26.018,26.018,0,0,0,10.925-7.33c-3.6-1.66-9.4,4.426-9.4,4.426s-3.458,9.4-13,8.436c-.415,9.4,1.659,23.65,1.659,23.65L338.2,74.15a114.731,114.731,0,0,1,4.841-39.741c.968-6.223,2.351-8.021-4.288-5.532S318.836,33.718,318.836,33.718Z" fill="#ffb68b"/>
    <path id="Trazado_37873" data-name="Trazado 37873" d="M322.881,66.7l2.028,1.66c8.545-.454,12.6-12.654,12.6-12.654l-10.529,2.978L324,61.036a30.819,30.819,0,0,0,2.538,1.973A14.018,14.018,0,0,1,322.881,66.7Z" fill="#ff9d71"/>
    <path id="Trazado_37874" data-name="Trazado 37874" d="M343.039,34.409c.968-6.223,2.351-8.021-4.288-5.532s-19.915,4.841-19.915,4.841-2.766,12.724-1.245,18.532,8.99,10.788,8.99,10.788a26.018,26.018,0,0,0,10.925-7.33" fill="#ffb68b"/>
    <path id="Trazado_37875" data-name="Trazado 37875" d="M326.394,77.738,325.9,74.15,338,68.362l.543,6.718L325.9,82.672Z" fill="#ff3c64"/>
    <path id="Trazado_37876" data-name="Trazado 37876" d="M319.906,68.13l-.249,9.978-5.6,1.727-1.442-8.073Z" fill="#ff3c64"/>
    <path id="Trazado_37877" data-name="Trazado 37877" d="M365.753,277.986a51.541,51.541,0,0,0,10.86,6.525c5.691,2.363,18.363,9.235,19.866,13.316-8.7-.967-37.37-12.779-37.37-12.779l-.752-6.336" fill="#00c8bc"/>
    <path id="Trazado_37878" data-name="Trazado 37878" d="M318.189,267.406s-7.081,1.856-12.45,2.608-18.148,3.544-21.477,6.873c0,0,10.2,1.5,16.964.429s15.251-2.684,19.225-2.792,3.436-1.074,3.436-1.074l-2.148-6.044" fill="#00c8bc"/>
    <path id="Trazado_37879" data-name="Trazado 37879" d="M301.937,185.255s24.563-11.832,45.531-1.947-19.021-62.455-19.021-62.455L301.314,123.4Z" fill="#e5dcf4"/>
    <path id="Trazado_37880" data-name="Trazado 37880" d="M308.389,146.58s6.249,74.449,6.666,87.61,3.134,33.216,3.134,33.216,3.392,3.087,4.412,2.8.234-5.3,0-7.811,3.108-1.462,1.646-9.61,3.551-8.773,2.089-21.516-.836-68.938-.836-68.938a165.951,165.951,0,0,1,11.664,26.322c5.049,14.832,18.209,62.879,18,66.848s-4.6-.209-1.671,7.1-1.88,6.894-.626,10.236,5.849,8.774,5.849,8.774l7.037-3.625-16.02-101.651-10.445-33.017-22.561.418" fill="#2a2e51"/>
    <path id="Trazado_37881" data-name="Trazado 37881" d="M337.3,77.909l-9.983-2.486-7.664,6.6v-8.51l-7.04-1.753S301.71,94.5,301.33,108.026s6.383,33.65,6.383,33.65-2.705,1.86.676,4.9,26.717,3.382,28.915,2.029-1.521-49.572-1.521-49.572" fill="#ff3c64"/>
    <path id="Trazado_37882" data-name="Trazado 37882" d="M315.047,123.035c-.21.406,4.034,18.151,4.034,18.151s-4.66,4.759,1.982,7.933" fill="none" stroke="#e41149" stroke-miterlimit="10" stroke-width="1.049"/>
    <path id="Trazado_37883" data-name="Trazado 37883" d="M332.66,78.613,326.141,84.1V75.9" fill="none" stroke="#e41149" stroke-miterlimit="10" stroke-width="1.049"/>
    <path id="Trazado_37884" data-name="Trazado 37884" d="M319.081,73.983l-5.366,8.042.094-7.875" fill="none" stroke="#e41149" stroke-miterlimit="10" stroke-width="1.049"/>
    <path id="Trazado_37885" data-name="Trazado 37885" d="M319.081,82.759a47.746,47.746,0,0,0-3.483,11.6" fill="none" stroke="#e41149" stroke-miterlimit="10" stroke-width="1.049"/>
    <path id="Trazado_37886" data-name="Trazado 37886" d="M310.338,93.427l12.263-8.82,1.529,1.278L311.1,95.314Z" fill="#00c8bc"/>
    <path id="Trazado_37887" data-name="Trazado 37887" d="M327.987,99.037l-3.787-2.39s-3.481-6.275-4.543-7.53c-3.238.167-7.84.669-7.84.669l-4.1,2.434,1.841.494,2.845-.494s-2.259,4.762-1.841,5.682a37.147,37.147,0,0,0,2.761,3.849l3.431,1.841s1.087-1.423-.335-2.26c1.757.753,5.69-.669,5.69-.669l2.677,4.937Z" fill="#ffb68b"/>
    <path id="Trazado_37888" data-name="Trazado 37888" d="M328.253,88.906s3.728-11,10.051-18.422a43.187,43.187,0,0,1,3.4,3.666s10.384,3.413,11.715,3.759c3.062,9.932,11.049,42.814,10.517,53.33-7.455.932-21.966-7.321-21.966-7.321s18.238,34.745,19.437,61.37c-1.465,13.313-27.291,18.105-27.291,18.105s4.127-19.3.4-44.463C332.3,143.978,322.6,106.41,322.6,106.41c.231.866,5.386-7.373,5.386-7.373l-2.57-1.622Z" fill="#fff"/>
    <path id="Trazado_37889" data-name="Trazado 37889" d="M319.906,68.13s-7.768,7.47-11.939,20.878-4.171,48.48-3.791,59.855,3.033,48.4,1.327,54.53c0,0-7.394-13.377-8.342-22.864S296.4,95.97,296.4,95.97l-13.65-6.2s16.683-24.047,18.01-25.793l16.3,3.617Z" fill="#fff"/>
    <path id="Trazado_37890" data-name="Trazado 37890" d="M323.354,128.192,308.389,84.607l-30.716.9,15.277,42.686Z" fill="#2a2e51"/>
    <path id="Trazado_37891" data-name="Trazado 37891" d="M303.326,112.075h2.329a44.721,44.721,0,0,1,2.923-4.445c.877-.962,5.312-2.416,5.921-2.936.219,1.1-1.754,3.289-1.754,3.289l3.346-.946L315.6,105.6a3.406,3.406,0,0,1,2.41,1c.877,1.023,1.9,7.09,1.9,7.09s-4.822,2.7-6.43,3-6.944-1.315-6.944-1.315l-4.24,1.023Z" fill="#ffb68b"/>
    <path id="Trazado_37892" data-name="Trazado 37892" d="M280.508,93.427S269.675,109.7,268.6,121.716c12.283.945,35.366-4.184,35.366-4.184l-.81-6.969-16.873-1.016Z" fill="#f6f6f7"/>
    <path id="Trazado_37893" data-name="Trazado 37893" d="M340.412,45.036a25.43,25.43,0,0,1,2.1-14.8c-10.308,9.832-23.1,8.686-17.467,5.155-9.067,3.149-15.223,2.863-10-.764-2.888.477-.874-2.863,4.61-4.963-3.489.477-3.776-2.1,5.483-4.105s19.938.1,21.232.669c-1.57,7.445-4.72,18.8-4.72,18.8Z" fill="#2a2e51"/>
    <path id="Trazado_37894" data-name="Trazado 37894" d="M339.307,44.91s3.823-4.359,6.27-2.677-.994,11.7-7.035,5.812" fill="#ffb68b"/>
    <path id="Trazado_37895" data-name="Trazado 37895" d="M325.9,45.524l-2.507,8.614,3.928-2.825" fill="none" stroke="#f88d61" stroke-miterlimit="10" stroke-width="0.63"/>
    <path id="Trazado_37896" data-name="Trazado 37896" d="M325.357,56.757s3.838-2.309,6.237-1.585" fill="none" stroke="#f88d61" stroke-miterlimit="10" stroke-width="0.63"/>
    <path id="Trazado_37897" data-name="Trazado 37897" d="M344.549,45.036s-.414-2.819-4.962,1.729c2.688.138,0,1.034,0,1.034" fill="none" stroke="#f88d61" stroke-miterlimit="10" stroke-width="0.63"/>
    <ellipse id="Elipse_858" data-name="Elipse 858" cx="0.884" cy="1.227" rx="0.884" ry="1.227" transform="translate(328.729 45.344)" fill="#2a2e51"/>
    <path id="Trazado_37898" data-name="Trazado 37898" d="M323.393,47.091c0,.678-.4,1.227-.884,1.227s-.884-.549-.884-1.227.4-1.228.884-1.228S323.393,46.413,323.393,47.091Z" fill="#2a2e51"/>
    <path id="Trazado_37899" data-name="Trazado 37899" d="M327.7,42.887s3.331-5.509,5.551-.246" fill="#2a2e51"/>
    <path id="Trazado_37900" data-name="Trazado 37900" d="M324.735,43.545s-2.056-5.16-4.687.586" fill="#2a2e51"/>
    <path id="Trazado_37901" data-name="Trazado 37901" d="M341.7,74.15l2.85,6.16-10.3-.475,2.378,4.465-8.37,4.606" fill="none" stroke="#dedae8" stroke-miterlimit="10" stroke-width="1.049"/>
    <path id="Trazado_37902" data-name="Trazado 37902" d="M317.5,67.672l-11.337,5.81,6.965,2.035-5.411,1.8,2.359,6" fill="none" stroke="#dedae8" stroke-miterlimit="10" stroke-width="1.049"/>
    <path id="Trazado_37903" data-name="Trazado 37903" d="M339.923,96.423l9.284,15.191s-2.609-3.529-1.535.307c-5.064-3.989-19.028-13.887-19.028-13.887l-.657,1" fill="none" stroke="#dedae8" stroke-miterlimit="10" stroke-width="1.049"/>
    <path id="Trazado_37904" data-name="Trazado 37904" d="M323.354,105.852s12.214,14.026,18.611,18.066" fill="none" stroke="#dedae8" stroke-miterlimit="10" stroke-width="1.049"/>
    <path id="Trazado_37905" data-name="Trazado 37905" d="M340.767,165.783l-.46-3.606,10.358-4.22.46,3.529" fill="none" stroke="#dedae8" stroke-miterlimit="10" stroke-width="1.049"/>
    <path id="Trazado_37906" data-name="Trazado 37906" d="M303.478,165.169v-3.3l-5.985-5.754V159.8" fill="none" stroke="#dedae8" stroke-miterlimit="10" stroke-width="1.049"/>
    <path id="Trazado_37907" data-name="Trazado 37907" d="M286.278,109.547s-6.017-.485-8.522.092" fill="none" stroke="#dedae8" stroke-miterlimit="10" stroke-width="0.63"/>
    <path id="Trazado_37908" data-name="Trazado 37908" d="M280.862,109.356a2.152,2.152,0,0,0-1.98-1.532" fill="none" stroke="#dedae8" stroke-miterlimit="10" stroke-width="1.049"/>
    <path id="Trazado_37909" data-name="Trazado 37909" d="M299.323,86.394l-1.238-3.079h-4.126s-.5-4.348-2.641-4.513-1.9,2.146-.825,5.117l-3.791.161.986,2.644Z" fill="#dedae8"/>
    <path id="Trazado_37910" data-name="Trazado 37910" d="M292.343,81.271c.26.794.121,1.553-.312,1.695s-1-.387-1.256-1.181-.121-1.553.312-1.7S292.082,80.476,292.343,81.271Z" fill="#fff"/>
    <path id="Trazado_37911" data-name="Trazado 37911" d="M183.688,58.746a2.27,2.27,0,1,0-.632-4.362,5.839,5.839,0,0,0,2.1-5.937,7.872,7.872,0,0,0-4.043-5.048,12.251,12.251,0,0,0-6.467-1.257,9.254,9.254,0,0,0-4.11,1.064,4.876,4.876,0,0,0-2.472,3.324,4.712,4.712,0,0,0-.2-2.043,1.611,1.611,0,0,0-1.6-1.072c-1.09.162-1.367,1.587-1.38,2.69a4.018,4.018,0,0,0-3.285-1.751,8.212,8.212,0,0,0-3.732.9c-3.727,1.724-6.938,5.064-7.476,9.136a6.782,6.782,0,0,0,.682,4.21,4.352,4.352,0,0,0,3.478,2.273A4.425,4.425,0,0,0,151.382,62a1.194,1.194,0,0,0-.37.5c-.155.5.319,1.008.831,1.095a2.762,2.762,0,0,0,1.5-.324,5.173,5.173,0,0,0-4.025,3.151,7.437,7.437,0,0,0-.074,5.24,5.886,5.886,0,0,0,2.284,3.191,3.37,3.37,0,0,0,3.759-.013,2.929,2.929,0,0,0-2.145,3.077,4.293,4.293,0,0,0,2.23,3.25c1.891,1.092,4.748.715,5.7-1.252a5.189,5.189,0,0,0,.435,3.63,3.4,3.4,0,0,0,3.066,1.779c1.518-.106,2.673-1.377,3.541-2.628a11.415,11.415,0,0,0,1.983-4.222,5.422,5.422,0,0,0-.935-4.451,3.325,3.325,0,0,0,.415,1.62,1.145,1.145,0,0,0,1.462.451c.579-.361.492-1.247.167-1.847a5.372,5.372,0,0,0,9.29-5.2" fill="#2a2e51"/>
    <path id="Trazado_37912" data-name="Trazado 37912" d="M178.111,75.7a5.558,5.558,0,0,0,2.381-6.647l3.2-10.3a2.376,2.376,0,0,0,2.47-2.584,2.117,2.117,0,0,0-.664-1.221c-3.418.375-14.355,2.974-12.537,20.738A5.536,5.536,0,0,0,178.111,75.7Z" fill="#191e3b"/>
    <path id="Trazado_37913" data-name="Trazado 37913" d="M205.623,67.934s.8,8.122-6.689,18.235l1.513,4.06-2.707-1.274s-3.026,4.539-5.176,5.654l-10.749-9.476-2.787,18.713-9.874-9.237L177.2,77.728s-3.623-7.487,4.021-16.087S202.995,59.255,205.623,67.934Z" fill="#ca6a58"/>
    <path id="Trazado_37914" data-name="Trazado 37914" d="M179.187,59.335c-7.644,8.6-1.99,18.393-1.99,18.393,4.232,2.96,6.727-5.547,8.63-5.091s5.709-2.283,6.851-7.155c5.024.152,12.945,2.452,12.945,2.452C202.995,59.255,186.831,50.735,179.187,59.335Z" fill="#2a2e51"/>
    <path id="Trazado_37915" data-name="Trazado 37915" d="M187.4,74.084s.025-5.785-3.553-5.253-3.653,9.99.685,9.3" fill="#ca6a58"/>
    <path id="Trazado_37916" data-name="Trazado 37916" d="M198.615,135.243s4.839,14.217-1.117,50.7S178.12,284.09,178.12,284.09l-5.377,1.989s-13.215-47.835,1.117-62.167a161.964,161.964,0,0,1-9.307-38.9l16.007-45.052" fill="#2a2e51"/>
    <path id="Trazado_37917" data-name="Trazado 37917" d="M207.185,124.228l3.8-.563a61.275,61.275,0,0,1,6.4-3.584c1.827-.7,9.35,5.416,10.613,7.651s-12.208.322-12.208.322l-3.672-1.29-5.306,1" fill="#ca6a58"/>
    <path id="Trazado_37918" data-name="Trazado 37918" d="M217.377,120.081a61.275,61.275,0,0,0-6.4,3.584l-.182.027.137,3.292,1.174-.22,3.672,1.29a68.7,68.7,0,0,0,10.25.723l1.578-1.6C225.651,124.635,219.071,119.429,217.377,120.081Z" fill="#d3eae7"/>
    <path id="Trazado_37919" data-name="Trazado 37919" d="M197.024,123.072l10.442-1.354,1.257,6.864-11.7,3.674" fill="#00b09f"/>
    <path id="Trazado_37920" data-name="Trazado 37920" d="M211.505,129.087s5.472-6.643,7.346-6.194,12.442,5.4,13.417,6.671-7.2,1.275-10.944,0c-1.124,2.774-7.5.956-7.5.956l-2.848,2.717Z" fill="#ca6a58"/>
    <path id="Trazado_37921" data-name="Trazado 37921" d="M199.9,130.021s-.972-10.586-11.018-20.74c-5.077-5.185-7.667-6.7-7.667-6.7l.754-2.889-13.827-9.986-1.08,5.585s-5.185,2.873-3.025,11.671,10.479,35.7,10.479,35.7-1.945-.169-1.621,3.156c0,0-13.5,10.022-17.931,45.993,0,0,11.558,15.851,35,21.32,4.753-19.268,7.994-51.35,9.506-74.358l12.639-5.293L211.246,127Z" fill="#00c8bc"/>
    <path id="Trazado_37922" data-name="Trazado 37922" d="M178.12,284.09l28,10.368h-34.5l1.121-8.379Z" fill="#ff3c64"/>
    <path id="Trazado_37923" data-name="Trazado 37923" d="M218.851,122.893c-1.439-.345-4.99,3.482-6.566,5.283l1.017,2.847.527-.5s6.371,1.818,7.5-.956c3.748,1.274,11.918,1.274,10.944,0S220.725,123.343,218.851,122.893Z" fill="#fff"/>
    <path id="Trazado_37924" data-name="Trazado 37924" d="M207.314,91.464l-4.731-4.171.291-.809-4.213-3.051,2.366-3.3,4.6,3.237.383-.685,4.974,3.86Z" fill="#2a2e51"/>
    <path id="Trazado_37925" data-name="Trazado 37925" d="M221.944,109.954l.372,2.428h5.293l.685-2.428Z" fill="#191e3b"/>
    <path id="Trazado_37926" data-name="Trazado 37926" d="M219.765,105.534v5.23h10.646l-.374-5.6Z" fill="#2a2e51"/>
    <path id="Trazado_37927" data-name="Trazado 37927" d="M206.006,92.086l5.354-6.757,8.156,6.508,15.564,5.354-.56,8.9H213.975l-.934-7.16Z" fill="#fff"/>
    <path id="Trazado_37928" data-name="Trazado 37928" d="M213.041,98.935l6.007-7.471.468.374-6.344,8.1Z" fill="#2a2e51"/>
    <path id="Trazado_37929" data-name="Trazado 37929" d="M219.765,105.16" fill="#2a2e51"/>
    <rect id="Rectángulo_3536" data-name="Rectángulo 3536" width="2.117" height="31.004" transform="translate(250.769 106.094)" fill="#191e3b"/>
    <path id="Trazado_37930" data-name="Trazado 37930" d="M246.224,115.709v6.724L239,123.8v6.739H254.94V114.9Z" fill="#d3eae7"/>
    <path id="Trazado_37931" data-name="Trazado 37931" d="M229.788,108.771c9.588,1.557,8.592,12.078,8.592,12.078l9.961.311-.125-11.766-18.428-2.49" fill="#fff"/>
    <circle id="Elipse_859" data-name="Elipse 859" cx="4.358" cy="4.358" r="4.358" transform="translate(234.645 114.156)" fill="#2a2e51"/>
    <rect id="Rectángulo_3537" data-name="Rectángulo 3537" width="29.136" height="3.288" transform="translate(220.823 131.521)" fill="#191e3b"/>
    <rect id="Rectángulo_3538" data-name="Rectángulo 3538" width="38.809" height="4.331" transform="translate(217.439 133.912)" fill="#2a2e51"/>
    <rect id="Rectángulo_3539" data-name="Rectángulo 3539" width="44.389" height="11.704" transform="translate(213.913 137.561)" fill="#f7f7f7"/>
    <rect id="Rectángulo_3540" data-name="Rectángulo 3540" width="57.66" height="144.636" transform="translate(208.723 149.198)" fill="#2a2e51"/>
    <path id="Trazado_37932" data-name="Trazado 37932" d="M193.63,88.723A9.063,9.063,0,0,1,190.662,84" fill="none" stroke="#a04c41" stroke-miterlimit="10" stroke-width="0.601"/>
    <path id="Trazado_37933" data-name="Trazado 37933" d="M183.538,71.247S185.551,69.434,185,75.2c-2.308-1.154-1.044,1.12-1.044,1.12" fill="none" stroke="#a04c41" stroke-miterlimit="10" stroke-width="0.601"/>
    <path id="Trazado_37934" data-name="Trazado 37934" d="M197.74,88.955l-1.033-.618.769-.55" fill="none" stroke="#a04c41" stroke-miterlimit="10" stroke-width="0.601"/>
    <path id="Trazado_37935" data-name="Trazado 37935" d="M201.9,79.714s.879-6.759-4.672-2.582" fill="#2a2e51"/>
    <path id="Trazado_37936" data-name="Trazado 37936" d="M199.585,81.784c-.353.512-.826.8-1.057.64s-.132-.7.222-1.216.826-.8,1.057-.64S199.938,81.272,199.585,81.784Z" fill="#2a2e51"/>
    <path id="Trazado_37937" data-name="Trazado 37937" d="M179.9,107.962l10.49,24.3s2.24-2.206,1.527.4l7.982-2.635" fill="none" stroke="#00a997" stroke-miterlimit="10" stroke-width="1.002"/>
    <path id="Trazado_37938" data-name="Trazado 37938" d="M199.471,138.771s-9.586,4.128-13.66,4.026c0,0-15.215-24.126-18.535-33.607" fill="none" stroke="#00a997" stroke-miterlimit="10" stroke-width="1.002"/>
    <path id="Trazado_37939" data-name="Trazado 37939" d="M181.126,180.58l1.385-3.87H192.94l-1.222,3.259" fill="none" stroke="#00a997" stroke-miterlimit="10" stroke-width="1.002"/>
    <path id="Trazado_37940" data-name="Trazado 37940" d="M167.065,95.294l13.982,10.8.17-3.51" fill="none" stroke="#00a997" stroke-miterlimit="10" stroke-width="1.002"/>
    <path id="Trazado_37941" data-name="Trazado 37941" d="M192.028,126.988l-.625-2.568,4.642-2.7.662,2.7" fill="none" stroke="#00a997" stroke-miterlimit="10" stroke-width="1.002"/>
  </g>
</svg>
