<svg xmlns="http://www.w3.org/2000/svg" xmlns:xlink="http://www.w3.org/1999/xlink" width="1236" height="221.255" viewBox="0 0 1236 221.255">
  <defs>
    <linearGradient id="linear-gradient" x1="-0.043" y1="-0.125" x2="0.664" y2="1.321" gradientUnits="objectBoundingBox">
      <stop offset="0" stop-color="#64f6f0"/>
      <stop offset="0.645" stop-color="#4b31a8"/>
      <stop offset="1" stop-color="#461698"/>
    </linearGradient>
    <clipPath id="clip-path">
      <path id="Rectangle_652" data-name="Rectangle 652" d="M19.464,0H1216.536C1227.285,0,1236,3.669,1236,8.195V213.06c0,4.526-8.715,8.195-19.464,8.195H19.464C8.715,221.255,0,217.586,0,213.06V8.195C0,3.669,8.715,0,19.464,0Z" fill="url(#linear-gradient)"/>
    </clipPath>
    <linearGradient id="linear-gradient-2" x1="0.789" y1="0.898" x2="0.236" y2="0.715" gradientUnits="objectBoundingBox">
      <stop offset="0" stop-color="#68a58a"/>
      <stop offset="1" stop-color="#477fa2"/>
    </linearGradient>
  </defs>
  <g id="Enmascarar_grupo_45" data-name="Enmascarar grupo 45" clip-path="url(#clip-path)">
    <path id="Sustracción_2" data-name="Sustracción 2" d="M336.979,377.814c185.94.15,336.605-84.243,336.521-188.5S522.614.423,336.674.272.068,84.516.152,188.771,151.038,377.664,336.979,377.814Z" transform="matrix(-0.966, -0.259, 0.259, -0.966, 533.157, 564.897)" opacity="0.786" fill="url(#linear-gradient-2)" style="mix-blend-mode: multiply;isolation: isolate"/>
    <path id="Sustracción_6" data-name="Sustracción 6" d="M372.1,0h0c-18.4,2.721-36.774,6.241-54.627,10.462a618.834,618.834,0,0,0-70.656,21.18A567.571,567.571,0,0,0,181.99,60.091a508.789,508.789,0,0,0-58.046,35.02A446.293,446.293,0,0,0,73.634,136,386.248,386.248,0,0,0,32,182.078,334.485,334.485,0,0,0,0,232.633H2.124c2.363-4.6,4.867-9.2,7.443-13.662a338.619,338.619,0,0,1,21.156-32.18A369.872,369.872,0,0,1,55.888,156.44c8.987-9.747,18.718-19.281,28.922-28.339,10.172-9.036,21.082-17.832,32.424-26.143S140.584,85.651,152.915,78.2c12.376-7.483,25.387-14.612,38.672-21.19,13.336-6.6,27.273-12.807,41.421-18.439,14.244-5.669,29.019-10.884,43.918-15.5,15.037-4.662,30.564-8.827,46.153-12.379C338.805,7.1,355,4.051,371.224,1.615l.872-.129V0Z" transform="translate(304.019 172.27) rotate(180)" fill="#fff"/>
    <path id="Sustracción_8" data-name="Sustracción 8" d="M372.1,0h0c-18.4,2.721-36.774,6.241-54.627,10.462a618.834,618.834,0,0,0-70.656,21.18A567.571,567.571,0,0,0,181.99,60.091a508.789,508.789,0,0,0-58.046,35.02A446.293,446.293,0,0,0,73.634,136,386.248,386.248,0,0,0,32,182.078,334.485,334.485,0,0,0,0,232.633H2.124c2.363-4.6,4.867-9.2,7.443-13.662a338.619,338.619,0,0,1,21.156-32.18A369.872,369.872,0,0,1,55.888,156.44c8.987-9.747,18.718-19.281,28.922-28.339,10.172-9.036,21.082-17.832,32.424-26.143S140.584,85.651,152.915,78.2c12.376-7.483,25.387-14.612,38.672-21.19,13.336-6.6,27.273-12.807,41.421-18.439,14.244-5.669,29.019-10.884,43.918-15.5,15.037-4.662,30.564-8.827,46.153-12.379C338.805,7.1,355,4.051,371.224,1.615l.872-.129V0Z" transform="translate(373.792 172.271) rotate(180)" fill="#fff"/>
    <path id="Sustracción_10" data-name="Sustracción 10" d="M372.924.558h0c-18.432,2.687-36.846,6.172-54.733,10.357a620.758,620.758,0,0,0-70.781,21.027,568.263,568.263,0,0,0-64.925,28.289,508.357,508.357,0,0,0-58.123,34.855A444.949,444.949,0,0,0,74,135.813a384.274,384.274,0,0,0-41.656,45.91,332.189,332.189,0,0,0-32,50.395l2.128,0c2.361-4.586,4.864-9.168,7.44-13.621a336.337,336.337,0,0,1,21.155-32.077,367.8,367.8,0,0,1,25.175-30.246c8.993-9.711,18.731-19.21,28.944-28.232,10.181-9,21.1-17.761,32.457-26.037s23.378-16.236,35.725-23.655C165.764,70.8,178.793,63.711,192.1,57.168c13.356-6.569,27.315-12.737,41.486-18.336,14.267-5.635,29.068-10.817,43.992-15.4C292.64,18.8,308.2,14.669,323.813,11.148,339.57,7.6,355.8,4.574,372.052,2.168l.874-.128,0-1.482Z" transform="translate(463.48 53.187) rotate(56)" fill="#fff"/>
    <path id="Sustracción_12" data-name="Sustracción 12" d="M372.924.558h0c-18.432,2.687-36.846,6.172-54.733,10.357a620.758,620.758,0,0,0-70.781,21.027,568.263,568.263,0,0,0-64.925,28.289,508.357,508.357,0,0,0-58.123,34.855A444.949,444.949,0,0,0,74,135.813a384.274,384.274,0,0,0-41.656,45.91,332.189,332.189,0,0,0-32,50.395l2.128,0c2.361-4.586,4.864-9.168,7.44-13.621a336.337,336.337,0,0,1,21.155-32.077,367.8,367.8,0,0,1,25.175-30.246c8.993-9.711,18.731-19.21,28.944-28.232,10.181-9,21.1-17.761,32.457-26.037s23.378-16.236,35.725-23.655C165.764,70.8,178.793,63.711,192.1,57.168c13.356-6.569,27.315-12.737,41.486-18.336,14.267-5.635,29.068-10.817,43.992-15.4C292.64,18.8,308.2,14.669,323.813,11.148,339.57,7.6,355.8,4.574,372.052,2.168l.874-.128,0-1.482Z" transform="translate(424.464 16.154) rotate(56)" fill="#fff"/>
  </g>
</svg>
