<svg xmlns="http://www.w3.org/2000/svg" xmlns:xlink="http://www.w3.org/1999/xlink" width="400" height="143.368" viewBox="0 0 400 143.368">
  <defs>
    <linearGradient id="linear-gradient" x1="0.994" y1="0.696" x2="0.026" y2="0.726" gradientUnits="objectBoundingBox">
      <stop offset="0" stop-color="#9eb7e5"/>
      <stop offset="1" stop-color="#e7f9fa"/>
    </linearGradient>
    <clipPath id="clip-path">
      <rect id="Rectángulo_3500" data-name="Rectángulo 3500" width="231.667" height="143.368" transform="translate(0 13)" fill="none"/>
    </clipPath>
  </defs>
  <g id="Grupo_147294" data-name="Grupo 147294" transform="translate(-5618 9367.368)">
    <g id="Grupo_147195" data-name="Grupo 147195">
      <g id="Grupo_147173" data-name="Grupo 147173" transform="translate(5618 -9351.759)">
        <path id="Rectángulo_5183" data-name="Rectángulo 5183" d="M0,0H272A128,128,0,0,1,400,128v0a0,0,0,0,1,0,0H0a0,0,0,0,1,0,0V0A0,0,0,0,1,0,0Z" transform="translate(0 -0.241)" fill="url(#linear-gradient)"/>
      </g>
      <g id="Grupo_147187" data-name="Grupo 147187" transform="translate(5702 -9380.368)">
        <g id="Grupo_11446" data-name="Grupo 11446" transform="translate(0)" clip-path="url(#clip-path)">
          <path id="Trazado_37649" data-name="Trazado 37649" d="M-207.554-839.27H-331.79a10.55,10.55,0,0,1-10.55-10.55,10.551,10.551,0,0,1,10.55-10.55h124.236A10.551,10.551,0,0,1-197-849.82,10.55,10.55,0,0,1-207.554-839.27Z" transform="translate(189.856 1448.714)" fill="#ded4db" style="mix-blend-mode: multiply;isolation: isolate"/>
          <g id="Grupo_11442" data-name="Grupo 11442" transform="translate(-2.364 23.927)">
            <path id="Trazado_37650" data-name="Trazado 37650" d="M-423.012-1217.718s33.867-16.8,27.677-48.745c0,0-8.538-26-33.544-32.067,0,0-51.188-17.577-54.5,50.133,0,0,.443,9.531,7.047,7.675Z" transform="translate(570.197 1301.923)" fill="#452235"/>
            <g id="Grupo_11416" data-name="Grupo 11416" transform="translate(16.094 46.807)">
              <g id="Grupo_11383" data-name="Grupo 11383" transform="translate(45.745 217.535)">
                <g id="Grupo_11380" data-name="Grupo 11380" transform="translate(0.003)">
                  <g id="Grupo_11379" data-name="Grupo 11379">
                    <path id="Trazado_37651" data-name="Trazado 37651" d="M-434.677-992.007c1.6,12.643,3.39,24.966,5.28,36.791,8,50.009,17.728,91,22.121,108.455,1.4,5.581,2.27,8.757,2.357,9.059v.019h22.209l.449-257.285-41.944,8.162c-.01.01-.01.019-.02.03-.507,1-.993,2-1.471,2.99a128.354,128.354,0,0,0-5.961,14.495C-441.564-1040.225-437.706-1015.824-434.677-992.007Z" transform="translate(438.023 1094.968)" fill="#a34737"/>
                  </g>
                </g>
                <path id="Trazado_37652" data-name="Trazado 37652" d="M-384.074-1088.565V-957h-38.816c-1.893-11.819-3.681-24.143-5.281-36.788-.107-.867-.228-1.734-.334-2.6-2.961-23-6.19-46.672,3.361-74.683a125.949,125.949,0,0,1,5.962-14.5c.467-.987.961-1.988,1.468-2.988Z" transform="translate(431.516 1096.755)" fill="#664f5a"/>
                <g id="Grupo_11382" data-name="Grupo 11382" transform="translate(8.908 257.271)">
                  <g id="Grupo_11381" data-name="Grupo 11381">
                    <path id="Trazado_37653" data-name="Trazado 37653" d="M-438.682-871.981h47.7l-.3-4.969-1-16.865-26.082-.019c-9.534,0-17.527,7.192-19.721,16.884A24.211,24.211,0,0,0-438.682-871.981Z" transform="translate(438.682 893.834)" fill="#452235"/>
                  </g>
                </g>
              </g>
              <path id="Trazado_37654" data-name="Trazado 37654" d="M-445.984-1206.14h0a15.189,15.189,0,0,1,18.377-11.123l81.775,20.111a15.188,15.188,0,0,1,11.122,18.378h0a15.189,15.189,0,0,1-18.377,11.122l-81.775-20.111A15.19,15.19,0,0,1-445.984-1206.14Z" transform="translate(446.526 1278.247)" fill="#f5ecf2"/>
              <g id="Grupo_11384" data-name="Grupo 11384">
                <path id="Trazado_37655" data-name="Trazado 37655" d="M-363.974-1263.286l-16.048-1.751-.861,74.215a14.188,14.188,0,0,0,12.076,14.2h0c9.032,1.361,17.279-6.092,16.26-15.169C-357.325-1234.326-363.974-1263.286-363.974-1263.286Z" transform="translate(380.883 1265.037)" fill="#f5ecf2"/>
              </g>
              <path id="Trazado_37656" data-name="Trazado 37656" d="M-467.759-961.053l60.193,86.871,19.886-14.482s-21.65-54.281-38.378-95.553a24.03,24.03,0,0,0-39.413-7.815h0A24.03,24.03,0,0,0-467.759-961.053Z" transform="translate(533.11 1339.224)" fill="#cc715e"/>
              <g id="Grupo_11385" data-name="Grupo 11385" transform="translate(62.935 218.603)">
                <path id="Trazado_37657" data-name="Trazado 37657" d="M-401.915-994.84c-10.485,18.675-23.983,33.827-29.812,45.9l-31.787-6.509-15.886-3.255,8.124-36.135,20.7-92.17,1.254-5.589.347-1.534,10.578,1.534,38.335,5.561C-379.639-1049.635-388.2-1019.224-401.915-994.84Z" transform="translate(479.4 1094.133)" fill="#664f5a"/>
              </g>
              <path id="Trazado_37658" data-name="Trazado 37658" d="M-384.724-995.175h-91.664c-2.961-23-6.19-46.672,3.361-74.683a125.934,125.934,0,0,1,5.962-14.5c.467-.988.961-1.988,1.468-2.988h32.213l1.254-5.589h10.925l38.335,5.562C-362.449-1049.97-371.013-1019.558-384.724-995.175Z" transform="translate(525.145 1313.071)" fill="#f5ecf2"/>
              <g id="Grupo_11387" data-name="Grupo 11387" transform="translate(59.561 65.588)">
                <g id="Grupo_11386" data-name="Grupo 11386">
                  <path id="Trazado_37659" data-name="Trazado 37659" d="M-482.19-1160.359v113.386l82.714-6.673a86.746,86.746,0,0,1-3.043-14.2c-2.054-14.781-2.48-39.244,9.988-64.408a81.887,81.887,0,0,0,8.784-34.7l-.065-32.024-16.76-9.808-10.473-4.979h-1.937l-34.916.029a106.571,106.571,0,0,0-13.941,12.172C-471.332-1191.767-482.19-1176.958-482.19-1160.359Z" transform="translate(482.19 1213.76)" fill="#f5ecf2"/>
                </g>
              </g>
              <path id="Trazado_37660" data-name="Trazado 37660" d="M-467.891-1129.163l22.839,20.576,1.582-14.2Z" transform="translate(583.185 1302.959)" fill="#452235"/>
              <rect id="Rectángulo_3495" data-name="Rectángulo 3495" width="2.356" height="170.154" transform="translate(68.37 147.743)" fill="#c2b1bb"/>
              <path id="Trazado_37661" data-name="Trazado 37661" d="M-443.935-1143.44h46.8a21.9,21.9,0,0,0,21.9-21.9h0a21.9,21.9,0,0,0-21.9-21.9h-46.8a21.9,21.9,0,0,0-21.9,21.9h0A21.9,21.9,0,0,0-443.935-1143.44Z" transform="translate(512.316 1286.75)" fill="#f5ecf2"/>
              <g id="Grupo_11388" data-name="Grupo 11388" transform="translate(69.3 73.992)">
                <path id="Trazado_37662" data-name="Trazado 37662" d="M-411.94-1159.422l-5.115-21.49,17.828-2.786-3.181-23.492c-.779.961-1.607,1.954-2.456,3.01l2.48,18.365-18.1,2.833,5.334,22.4-43.437,25.673-3.035,4.69Z" transform="translate(461.618 1207.19)" fill="#c2b1bb"/>
              </g>
              <g id="Grupo_11389" data-name="Grupo 11389" transform="translate(55.11 77.767)">
                <path id="Trazado_37663" data-name="Trazado 37663" d="M-430.07-1169.527l21.935-15.922-5.8-8.868,20.092-9.922c-.263.989-.523,2.031-.815,3.112l-16.026,8.578,5.913,9.1-21.92,15.421,12.126,33.362-1.7,4.209Z" transform="translate(430.07 1204.239)" fill="#c2b1bb"/>
              </g>
              <path id="Trazado_37664" data-name="Trazado 37664" d="M-457.924-1127.581s4.288-10.9,16.961-32.036c1.307-2.168,2.7-4.453,4.181-6.832,15.936-25.618,40.482-40.281,40.482-40.281l-28.8,2.132-9.989-2.591s-15.57,17.278-22.838,36.559a48.385,48.385,0,0,0-2.473,9.6C-463.024-1144.271-457.924-1127.581-457.924-1127.581Z" transform="translate(527.391 1281.182)" fill="#c7bd14"/>
              <g id="Grupo_11400" data-name="Grupo 11400" transform="translate(93.827 23.015)">
                <g id="Grupo_11399" data-name="Grupo 11399">
                  <g id="Grupo_11398" data-name="Grupo 11398">
                    <g id="Grupo_11397" data-name="Grupo 11397">
                      <g id="Grupo_11396" data-name="Grupo 11396">
                        <g id="Grupo_11395" data-name="Grupo 11395">
                          <g id="Grupo_11394" data-name="Grupo 11394">
                            <g id="Grupo_11393" data-name="Grupo 11393">
                              <g id="Grupo_11392" data-name="Grupo 11392">
                                <g id="Grupo_11391" data-name="Grupo 11391">
                                  <g id="Grupo_11390" data-name="Grupo 11390">
                                    <path id="Trazado_37665" data-name="Trazado 37665" d="M-460.815-1199.882s-1.108,7.288,12.476,7.288,24.367-7.288,24.367-7.288v-47.162h-36.843Z" transform="translate(460.837 1247.044)" fill="#cc715e"/>
                                  </g>
                                </g>
                              </g>
                            </g>
                          </g>
                        </g>
                      </g>
                    </g>
                  </g>
                </g>
              </g>
              <g id="Grupo_11411" data-name="Grupo 11411" transform="translate(93.848 34.305)">
                <g id="Grupo_11410" data-name="Grupo 11410" transform="translate(0)">
                  <g id="Grupo_11409" data-name="Grupo 11409">
                    <g id="Grupo_11408" data-name="Grupo 11408">
                      <g id="Grupo_11407" data-name="Grupo 11407">
                        <g id="Grupo_11406" data-name="Grupo 11406">
                          <g id="Grupo_11405" data-name="Grupo 11405">
                            <g id="Grupo_11404" data-name="Grupo 11404">
                              <g id="Grupo_11403" data-name="Grupo 11403">
                                <g id="Grupo_11402" data-name="Grupo 11402">
                                  <g id="Grupo_11401" data-name="Grupo 11401">
                                    <path id="Trazado_37666" data-name="Trazado 37666" d="M-458.125-1228.442v-9.775h33.374a42.969,42.969,0,0,1-11.312,19.428C-444.308-1210.829-458.125-1216.983-458.125-1228.442Z" transform="translate(458.125 1238.217)" fill="#452235"/>
                                  </g>
                                </g>
                              </g>
                            </g>
                          </g>
                        </g>
                      </g>
                    </g>
                  </g>
                </g>
              </g>
              <path id="Trazado_37667" data-name="Trazado 37667" d="M-470.112-1089.315h0a15.188,15.188,0,0,0,13.031-17.076l-11.211-83.463a15.189,15.189,0,0,0-17.076-13.031h0a15.189,15.189,0,0,0-13.031,17.076l11.211,83.463A15.189,15.189,0,0,0-470.112-1089.315Z" transform="translate(635.856 1282.345)" fill="#f5ecf2"/>
              <g id="Grupo_11415" data-name="Grupo 11415" transform="translate(114.228 450.559)">
                <g id="Grupo_11414" data-name="Grupo 11414" transform="translate(0)">
                  <g id="Grupo_11413" data-name="Grupo 11413">
                    <g id="Grupo_11412" data-name="Grupo 11412">
                      <path id="Trazado_37668" data-name="Trazado 37668" d="M-474.552-866.689l35.095-25.537-1.821-4.821-5.97-15.743-22.313,16.236a21.6,21.6,0,0,0-7.364,25.446A21.115,21.115,0,0,0-474.552-866.689Z" transform="translate(478.452 912.79)" fill="#452235"/>
                    </g>
                  </g>
                </g>
              </g>
            </g>
            <path id="Trazado_37669" data-name="Trazado 37669" d="M-365.459-1253.773l11.885,4.543a9.568,9.568,0,0,0,12.268-5.3l2.313-5.633c1.907-4.644-1.425-10.318-7.4-12.6L-367-1280.643l-5.86,14.27C-374.767-1261.73-371.435-1256.056-365.459-1253.773Z" transform="translate(373.397 1307.488)" fill="#cc715e"/>
            <g id="Grupo_11430" data-name="Grupo 11430" transform="translate(92.324 1.467)">
              <g id="Grupo_11429" data-name="Grupo 11429">
                <g id="Grupo_11428" data-name="Grupo 11428">
                  <g id="Grupo_11427" data-name="Grupo 11427">
                    <g id="Grupo_11426" data-name="Grupo 11426">
                      <g id="Grupo_11417" data-name="Grupo 11417">
                        <ellipse id="Elipse_843" data-name="Elipse 843" cx="37.161" cy="37.161" rx="37.161" ry="37.161" fill="#452235"/>
                      </g>
                      <g id="Grupo_11420" data-name="Grupo 11420" transform="translate(54.861 49.617)">
                        <g id="Grupo_11419" data-name="Grupo 11419" transform="translate(0)">
                          <g id="Grupo_11418" data-name="Grupo 11418">
                            <path id="Rectángulo_3496" data-name="Rectángulo 3496" d="M3.635,0H5.664A3.635,3.635,0,0,1,9.3,3.635V14.569a4.613,4.613,0,0,1-4.613,4.613H0a0,0,0,0,1,0,0V3.635A3.635,3.635,0,0,1,3.635,0Z" fill="#cc715e"/>
                          </g>
                        </g>
                      </g>
                      <g id="Grupo_11421" data-name="Grupo 11421" transform="translate(1.867 18.41)">
                        <path id="Trazado_37670" data-name="Trazado 37670" d="M-434.651-1286.091h0a26.5,26.5,0,0,1,26.5,26.5v23.819a26.5,26.5,0,0,1-26.5,26.5h0a26.5,26.5,0,0,1-26.5-26.5v-23.819A26.5,26.5,0,0,1-434.651-1286.091Z" transform="translate(461.149 1286.091)" fill="#cc715e"/>
                      </g>
                      <g id="Grupo_11422" data-name="Grupo 11422" transform="translate(24.893 40.941)">
                        <path id="Trazado_37671" data-name="Trazado 37671" d="M-447.126-1264.089a1.678,1.678,0,0,0,.674-.14,13.193,13.193,0,0,1,4.641-.87,14.83,14.83,0,0,1,4.871.889,1.686,1.686,0,0,0,2.2-.941,1.689,1.689,0,0,0-.934-2.2,18.1,18.1,0,0,0-6.133-1.131,16.407,16.407,0,0,0-5.991,1.15,1.688,1.688,0,0,0-.874,2.223A1.686,1.686,0,0,0-447.126-1264.089Z" transform="translate(448.817 1268.476)" fill="#452235"/>
                      </g>
                      <g id="Grupo_11423" data-name="Grupo 11423" transform="translate(2.545 41.355)">
                        <path id="Trazado_37672" data-name="Trazado 37672" d="M-426.175-1263.768a1.668,1.668,0,0,0,.976-.311h0a4.447,4.447,0,0,1,2.205-.7,4.452,4.452,0,0,1,2.218.7,1.7,1.7,0,0,0,2.347-.423,1.682,1.682,0,0,0-.4-2.341,7.761,7.761,0,0,0-4.162-1.317,7.765,7.765,0,0,0-4.161,1.317,1.692,1.692,0,0,0-.4,2.357A1.693,1.693,0,0,0-426.175-1263.768Z" transform="translate(427.867 1268.153)" fill="#452235"/>
                      </g>
                      <g id="Grupo_11424" data-name="Grupo 11424" transform="translate(51.347 27.026)">
                        <rect id="Rectángulo_3497" data-name="Rectángulo 3497" width="3.515" height="32.182" transform="translate(0)" fill="#452235"/>
                      </g>
                      <g id="Grupo_11425" data-name="Grupo 11425" transform="translate(42.67 14.011)">
                        <path id="Rectángulo_3498" data-name="Rectángulo 3498" d="M0,0H9.848a0,0,0,0,1,0,0V26.029a0,0,0,0,1,0,0H5.579A5.579,5.579,0,0,1,0,20.45V0A0,0,0,0,1,0,0Z" transform="translate(0)" fill="#452235"/>
                      </g>
                    </g>
                  </g>
                </g>
              </g>
            </g>
            <path id="Trazado_37673" data-name="Trazado 37673" d="M-408.3-1278.472s-20.409-3.365-32.07,5c-13.36,9.589-13.3,19.2-13.3,19.2s-1.412-28.746,14.413-35.555a52.08,52.08,0,0,1,30.89-2.836Z" transform="translate(545.957 1303.814)" fill="#452235"/>
            <path id="Trazado_37674" data-name="Trazado 37674" d="M-443.806-1241.885h21.962S-436.2-1224.369-443.806-1241.885Z" transform="translate(546.845 1318.306)" fill="#fff"/>
            <g id="Grupo_11431" data-name="Grupo 11431" transform="translate(102.743 63.282)">
              <path id="Trazado_37675" data-name="Trazado 37675" d="M-424.676-1244.238a7.928,7.928,0,0,1-7.919-7.919h3.066a4.858,4.858,0,0,0,4.853,4.853Z" transform="translate(432.595 1252.157)" fill="#452235"/>
            </g>
            <ellipse id="Elipse_844" data-name="Elipse 844" cx="3.116" cy="4.598" rx="3.116" ry="4.598" transform="translate(117.665 51.383)" fill="#452235"/>
            <path id="Trazado_37676" data-name="Trazado 37676" d="M-420.2-1256.783c0,2.462-1.207,4.459-2.7,4.459s-2.694-2-2.694-4.459,1.206-4.458,2.694-4.458S-420.2-1259.246-420.2-1256.783Z" transform="translate(521.896 1312.903)" fill="#452235"/>
            <g id="Grupo_11433" data-name="Grupo 11433" transform="translate(119.145 104.042)">
              <g id="Grupo_11432" data-name="Grupo 11432">
                <path id="Trazado_37677" data-name="Trazado 37677" d="M-471.374-1200.22l13.461,13.938,27.658-22.8-.857-.829-10.787-10.384-28.193,19.2Z" transform="translate(471.374 1220.291)" fill="#c7bd14"/>
              </g>
            </g>
            <g id="Grupo_11436" data-name="Grupo 11436" transform="translate(119.105 114.416)">
              <g id="Grupo_11435" data-name="Grupo 11435" transform="translate(0)">
                <g id="Grupo_11434" data-name="Grupo 11434">
                  <path id="Trazado_37678" data-name="Trazado 37678" d="M-472.273-1202.519l.039.036,13.461,13.938.958.994,27.85-22.657-1.15-1.133-.846-.839-.01.01-25.4,21.021-12.482-12.957Z" transform="translate(472.273 1212.18)" fill="#452235"/>
                </g>
              </g>
            </g>
            <g id="Grupo_11438" data-name="Grupo 11438" transform="translate(97.579 108.744)">
              <g id="Grupo_11437" data-name="Grupo 11437" transform="translate(0)">
                <path id="Trazado_37679" data-name="Trazado 37679" d="M-439.288-1206.716l3.181,13.1,18.463-7.432-.836-.92-.848-1.119-10.261-13.524-8.9,9.161Z" transform="translate(439.288 1216.614)" fill="#c7bd14"/>
              </g>
            </g>
            <g id="Grupo_11441" data-name="Grupo 11441" transform="translate(96.504 117.905)">
              <g id="Grupo_11440" data-name="Grupo 11440" transform="translate(0)">
                <g id="Grupo_11439" data-name="Grupo 11439">
                  <path id="Trazado_37680" data-name="Trazado 37680" d="M-439.308-1207.723l3.286,12.962,19.433-8.289.026-.023-1.71-2.017-15.975,6.828-3.184-11.191Z" transform="translate(439.308 1209.452)" fill="#452235"/>
                </g>
              </g>
            </g>
            <path id="Trazado_37681" data-name="Trazado 37681" d="M-497.391-1142.864l-2.536,13.776,54.752,23.69a15,15,0,0,0,17.945-8.125h0a15.012,15.012,0,0,0-10.664-20.94Z" transform="translate(622.65 1345.942)" fill="#f5ecf2"/>
            <path id="Trazado_37682" data-name="Trazado 37682" d="M-436.066-1127.129l21.915,2.527,2.144-15.276c.7-4.972-3.937-9.643-10.292-10.376l-21.916-2.526-2.142,15.276C-447.055-1132.533-442.422-1127.862-436.066-1127.129Z" transform="translate(540.293 1343.175)" fill="#cc715e"/>
            <path id="Trazado_37683" data-name="Trazado 37683" d="M-455.6-1281.036s6.369-2.91,0-9.774c0,0-21.241-19.93-22.975-5.695Z" transform="translate(622.246 1301.631)" fill="#452235"/>
          </g>
          <g id="Grupo_11445" data-name="Grupo 11445" transform="translate(135.667 313.154)">
            <g id="Grupo_11444" data-name="Grupo 11444" transform="translate(0)">
              <g id="Grupo_11443" data-name="Grupo 11443">
                <rect id="Rectángulo_3499" data-name="Rectángulo 3499" width="22.233" height="2.306" fill="#c2b1bb"/>
              </g>
            </g>
          </g>
          <path id="Trazado_37684" data-name="Trazado 37684" d="M-478.341-1254.757c.015-.7.876-6.617.92-7.3l.23-3.465c.993-2.334,2.739-2.634,2.7-4.949a20.228,20.228,0,0,1,3.679-4.236c.015-.045.043-.091.058-.137a22.23,22.23,0,0,1,7.982-4.493,24.339,24.339,0,0,1,4.825-1.005,27.3,27.3,0,0,1,4.245-.183c.581.015,1.176.046,1.784.106a46.121,46.121,0,0,1,12.808,3.185,32.71,32.71,0,0,1,11.745,7.648,25.9,25.9,0,0,1,2.053,2.377c.495.624.948,1.248,1.387,1.9a34.246,34.246,0,0,1,2.548,4.584v.017a37.691,37.691,0,0,1,2.25,6.564,48.454,48.454,0,0,1,1.273,8.09,61.912,61.912,0,0,1,.043,9.156c-.028.381-.057.762-.084,1.127q-.065.892-.17,1.783v.015q-1.276,1.623-2.746,3.153c-.325.35-.651.686-.991,1.022-.522.532-1.062,1.035-1.613,1.538-.4.381-.82.747-1.23,1.1-.715.61-1.445,1.2-2.181,1.764l.5,10.182c9.217-2.451,18.978-9.048,28.328-22.656a77.562,77.562,0,0,0,3.438-8.029,16.593,16.593,0,0,0,.807-8.2c-.481-4.844-.241-25.929-3.071-29.738s-21.467-18.784-26.647-20.81c-5.193-2.042-25.459-1.523-29.124-2.8-3.666-1.265-24.862,21.09-28.634,33.133-4.38,13.983-8.672,37.08,2.805,36.516" transform="translate(569.933 1323.919)" fill="#9dd0eb" opacity="0.7"/>
          <path id="Trazado_37685" data-name="Trazado 37685" d="M-408.912-1245.854v.015c-.042,1.2-1.372,3.168-2.617,4.723,0,.015-.015.031-.029.046-1.018,1.294-1.966,2.3-1.966,2.3s-.014,0,0-.017v-.075c.07-.595.127-1.188.17-1.8a63.867,63.867,0,0,0,.041-10.283,48.854,48.854,0,0,0-1.273-8,37.725,37.725,0,0,0-2.25-6.567v-.014a34.184,34.184,0,0,0-2.548-4.585c-.439-.655-.892-1.281-1.387-1.9a.711.711,0,0,0-.1-.122,27.887,27.887,0,0,0-1.953-2.255,32.743,32.743,0,0,0-11.745-7.648,46.165,46.165,0,0,0-12.808-3.185c-.567-.06-1.133-.091-1.671-.106h-.114a27.481,27.481,0,0,0-4.245.183,24.462,24.462,0,0,0-4.825,1.005c-.042.016-.072.031-.113.046a22.092,22.092,0,0,0-7.869,4.449c-.014.015-.042.031-.058.045a20.216,20.216,0,0,0-3.679,4.236c-.226.35-.326.564-.34.578a46.987,46.987,0,0,1,.5-5.468,2.639,2.639,0,0,1,.523-.961c0-.015.015-.029.028-.046a21.516,21.516,0,0,1,6.99-5.56h.015c6.184-3.245,16.062-5.3,29.125.487,8.335,3.686,14.774,8.745,18.905,15.8a34.9,34.9,0,0,1,3.327,7.618.334.334,0,0,0,.027.106,2.333,2.333,0,0,1,.1.351,45.369,45.369,0,0,1,1.656,8.881v.061A64.784,64.784,0,0,1-408.912-1245.854Z" transform="translate(565.385 1328.807)" fill="#9dd0eb"/>
          <path id="Trazado_37686" data-name="Trazado 37686" d="M-435.37-1285.742s-7.883-8.578,1.8-18.86c-.581,2.864-3.34,15.021.751,18.708Z" transform="translate(548.54 1324.729)" fill="#9dd0eb" opacity="0.7"/>
          <path id="Trazado_37687" data-name="Trazado 37687" d="M-452.036-1283.107c-.793-.32-1.557-.594-2.307-.838,0,0-4.8-15.082,9.227-20.657A23.405,23.405,0,0,0-452.036-1283.107Z" transform="translate(582.244 1324.729)" fill="#9dd0eb" opacity="0.7"/>
          <path id="Trazado_37688" data-name="Trazado 37688" d="M-452.806-1297.23c-.24,4.662-4.119,14.793-10.614,18.419h-.013a41.01,41.01,0,0,0-3.681-2.468l-.014-.017S-456.584-1281.706-452.806-1297.23Z" transform="translate(605.274 1326.786)" fill="#9dd0eb" opacity="0.7"/>
          <path id="Trazado_37689" data-name="Trazado 37689" d="M-461.592-1277.177a2.764,2.764,0,0,1-.925,2.49c-3.761,3.159-12.659,8.229-17.583,9.212a32.92,32.92,0,0,0-2.5-5.24c1.92.087,8.89-.046,17.531-6a3.571,3.571,0,0,0,1.5-2.812,47.553,47.553,0,0,0-.519-9.486C-463.733-1287.624-462.134-1281.089-461.592-1277.177Z" transform="translate(633.826 1329.08)" fill="#9dd0eb" opacity="0.7"/>
        </g>
      </g>
    </g>
  </g>
</svg>
