<svg xmlns="http://www.w3.org/2000/svg" width="1030" height="210" viewBox="0 0 1030 210">
  <g id="Grupo_148082" data-name="Grupo 148082" transform="translate(-285 -1469)">
    <g id="Grupo_148081" data-name="Grupo 148081">
      <rect id="Rectángulo_40053" data-name="Rectángulo 40053" width="328" height="99" rx="16" transform="translate(285 1580)" fill="#e7edf9"/>
      <rect id="Rectángulo_40054" data-name="Rectángulo 40054" width="328" height="99" rx="16" transform="translate(636 1580)" fill="#e7f9fa"/>
      <rect id="Rectángulo_40055" data-name="Rectángulo 40055" width="328" height="99" rx="16" transform="translate(987 1580)" fill="#f8f2e7"/>
      <g id="Grupo_148078" data-name="Grupo 148078">
        <ellipse id="Elipse_832" data-name="Elipse 832" cx="75.395" cy="75.394" rx="75.395" ry="75.394" transform="translate(364.06 1473.353)" fill="#fff"/>
        <path id="Trazado_37314" data-name="Trazado 37314" d="M-506.077,157.363a78.3,78.3,0,0,1-78.21-78.208A78.3,78.3,0,0,1-506.077.946a78.3,78.3,0,0,1,78.209,78.208A78.3,78.3,0,0,1-506.077,157.363Zm0-150.84a72.715,72.715,0,0,0-72.632,72.632,72.714,72.714,0,0,0,72.632,72.632,72.714,72.714,0,0,0,72.632-72.632A72.714,72.714,0,0,0-506.077,6.523Z" transform="translate(946.706 1468.111)" fill="#9eb7e5"/>
        <g id="Grupo_108376" data-name="Grupo 108376" transform="translate(380.943 1496.617)">
          <path id="Trazado_37315" data-name="Trazado 37315" d="M-553.583,76.429a19.723,19.723,0,0,0,1.1,16.7,19.6,19.6,0,0,0,26.69,7.727,19.772,19.772,0,0,0,7.743-26.687l-.059-.118a19.616,19.616,0,0,0-20.152-9.962c-3.724-6.714-3.508-6.271-7.233-12.984l-11.752,6.517c3.676,6.743,3.421,6.33,7.1,13.063A19.5,19.5,0,0,0-553.583,76.429Z" transform="translate(561.795 -30.37)" fill="#cae3f8"/>
          <path id="Trazado_37316" data-name="Trazado 37316" d="M-560.135,56.949a1.766,1.766,0,0,0,2.4.693l12.589-6.986a1.782,1.782,0,0,0,.69-2.4,1.767,1.767,0,0,0-2.4-.693l-12.589,6.986A1.781,1.781,0,0,0-560.135,56.949Z" transform="translate(562.202 -30.053)" fill="#bed8f1"/>
          <path id="Trazado_37317" data-name="Trazado 37317" d="M-527.885,121.778a1.584,1.584,0,0,1-.177.739h-13.762a1.583,1.583,0,0,1-.176-.739,1.719,1.719,0,0,1,1.716-1.713h10.693A1.711,1.711,0,0,1-527.885,121.778Z" transform="translate(561.346 -32.416)" fill="#1e4e90"/>
          <path id="Trazado_37318" data-name="Trazado 37318" d="M-523.858,124.24a1.664,1.664,0,0,1-1.657,1.663h-19.054a1.664,1.664,0,0,1-1.656-1.663,1.664,1.664,0,0,1,1.656-1.664h19.054A1.664,1.664,0,0,1-523.858,124.24Z" transform="translate(561.465 -32.504)" fill="#5373ac"/>
          <path id="Trazado_37319" data-name="Trazado 37319" d="M-537.311,117.533a3.4,3.4,0,0,0,2.367.975,3.4,3.4,0,0,0,2.368-.975c1.262-1.379.4-4.949-2.368-8.661C-537.706,112.583-538.572,116.154-537.311,117.533Z" transform="translate(561.233 -32.097)" fill="#ca115c"/>
          <path id="Trazado_37320" data-name="Trazado 37320" d="M-552.43,93.682a19.6,19.6,0,0,0,26.69,7.727A19.772,19.772,0,0,0-518,74.722a17.549,17.549,0,0,1-7.439,4.262c-8.371,2.245-13.781-3.809-23.484-2.923a21.932,21.932,0,0,0-4.607.926A19.724,19.724,0,0,0-552.43,93.682Z" transform="translate(561.717 -31.07)" fill="#84e8ed"/>
          <path id="Trazado_37321" data-name="Trazado 37321" d="M-525.059,89.244a2.6,2.6,0,0,0,2.591,2.6,2.6,2.6,0,0,0,2.59-2.6,2.6,2.6,0,0,0-2.59-2.6A2.6,2.6,0,0,0-525.059,89.244Z" transform="translate(560.812 -31.333)" fill="#6bc3c7"/>
          <path id="Trazado_37322" data-name="Trazado 37322" d="M-545.21,80.374a1.326,1.326,0,0,0,1.324,1.329,1.326,1.326,0,0,0,1.323-1.329,1.327,1.327,0,0,0-1.323-1.33A1.327,1.327,0,0,0-545.21,80.374Z" transform="translate(561.483 -31.071)" fill="#6bc3c7"/>
          <path id="Trazado_37323" data-name="Trazado 37323" d="M-533.006,89.28a1.115,1.115,0,0,0,1.112,1.117,1.114,1.114,0,0,0,1.112-1.117,1.115,1.115,0,0,0-1.112-1.118A1.115,1.115,0,0,0-533.006,89.28Z" transform="translate(561.083 -31.367)" fill="#6bc3c7"/>
          <path id="Trazado_37324" data-name="Trazado 37324" d="M-550.49,88.115a1.952,1.952,0,0,0,1.947,1.956,1.951,1.951,0,0,0,1.946-1.956,1.951,1.951,0,0,0-1.946-1.955A1.952,1.952,0,0,0-550.49,88.115Z" transform="translate(561.654 -31.31)" fill="#6bc3c7"/>
          <path id="Trazado_37325" data-name="Trazado 37325" d="M-543.232,95.468a3.335,3.335,0,0,0,3.328,3.342,3.335,3.335,0,0,0,3.329-3.342,3.336,3.336,0,0,0-3.329-3.343A3.336,3.336,0,0,0-543.232,95.468Z" transform="translate(561.408 -31.522)" fill="#6bc3c7"/>
          <path id="Trazado_37326" data-name="Trazado 37326" d="M-508.6,123.684l-6.731-39h.845a1.254,1.254,0,0,0,1.247-1.253,1.254,1.254,0,0,0-1.247-1.253h-42.12a1.253,1.253,0,0,0-1.247,1.253,1.254,1.254,0,0,0,1.247,1.253h1.131l-6.747,39.086a1.037,1.037,0,0,0,.724,1.26,1.033,1.033,0,0,0,1.1-.941l6.8-39.4h36.377L-510.433,124a1.03,1.03,0,0,0,1.1.936A1.035,1.035,0,0,0-508.6,123.684Z" transform="translate(562.247 -31.436)" fill="#5373ac"/>
          <path id="Trazado_37327" data-name="Trazado 37327" d="M-470.325,93.3h1.232a1.855,1.855,0,0,0,1.852-1.86,1.856,1.856,0,0,0-1.852-1.86h-24.549a1.856,1.856,0,0,0-1.851,1.86,1.855,1.855,0,0,0,1.851,1.86h.844l-3.6,33.368a.492.492,0,0,0,.42.541.491.491,0,0,0,.553-.421l2.964-21.675h21.81l2.964,21.675a.492.492,0,0,0,.538.423.492.492,0,0,0,.435-.543Zm-21.939,10.336L-490.85,93.3h18.578l1.414,10.336Z" transform="translate(559.71 -31.655)" fill="#5373ac"/>
          <path id="Trazado_37328" data-name="Trazado 37328" d="M-458.376,81.277a11.111,11.111,0,0,0-6.694,3.456,10.657,10.657,0,0,0-2.206,3.79h-23.69A5.885,5.885,0,0,1-493,87.44c-2.47-2.028-3.068-6.123-1.863-10.435a40.394,40.394,0,0,0,.989-6.476c.02-.168.03-.347.04-.523a4.483,4.483,0,0,1-2.6-1.1c-.745-.728-1.245-1.762-1.46-3.879-.03-.295-.05-.57-.069-.866-.01-.217-.02-.434-.029-.659-.568-13.143,6.107-17.208,6.107-17.208A9.824,9.824,0,0,1-488.564,45c1.4.009,2.772.028,4.163.038a4.817,4.817,0,0,1,1.58.335c2.323.955,2.96,3.593,4.626,7.737,1.931,4.784,2.93,7.186,4.577,7.541,1.216.266,2.489-.4,4.9-1.722A24.119,24.119,0,0,0-465.61,56.9c.911.886,1.813,1.782,2.724,2.677a29.6,29.6,0,0,1-4.195,3.613c-3.019,2.146-5.449,3.849-7.841,3.121-.529-.157-2.255-.807-3.519-3.692q.029,3.9.157,7.954c.068,1.95.146,3.86.255,5.739,10.125,1.575,17.456,2.993,18.358,3.5a3.227,3.227,0,0,1,1.039.955A2.454,2.454,0,0,1-458.376,81.277Z" transform="translate(559.684 -30.098)" fill="#afe1e1"/>
          <path id="Trazado_37329" data-name="Trazado 37329" d="M-460.754,126.957c-.01.059-.107.138-.117.147a.584.584,0,0,1-.265.118H-469.8a.841.841,0,0,1-.667-.187c-.352-.325-.255-.934.01-1.88.285-.974.755-2.286,1.107-3.989a27.524,27.524,0,0,0,.422-3.043c.235-2.106.206-3.464.48-5.709.931-7.63,3.244-8.436,3.626-14.392a23.825,23.825,0,0,0-.362-5.867c-.118-.473-.234-.917-.362-1.34.344.394.7.777,1.049,1.171.52.641,1,1.28,1.432,1.89a32.1,32.1,0,0,1,2.49,4.2c.107.217.205.413.294.62s.186.393.265.581c.362.827.646,1.585.872,2.274q-3.455,10.159-6.931,20.31c-.352,1.526-.146,1.881-.146,1.881a1.726,1.726,0,0,0,.489.473,7.788,7.788,0,0,0,.834.492c.343.2.538.317.783.445.265.157.59.315,1.265.64C-461.792,126.307-460.694,126.76-460.754,126.957Z" transform="translate(558.973 -31.688)" fill="#f79083"/>
          <path id="Trazado_37330" data-name="Trazado 37330" d="M-470.466,127.865a.872.872,0,0,0,.667.187h8.664a.608.608,0,0,0,.265-.118c.011-.011.107-.094.117-.147.064-.2-1.046-.65-2.1-1.162-.679-.33-1-.49-1.265-.64h-6.341C-470.721,126.922-470.816,127.545-470.466,127.865Z" transform="translate(558.985 -32.607)" fill="#26376e"/>
          <path id="Trazado_37331" data-name="Trazado 37331" d="M-440.561,126.79a.3.3,0,0,1-.177.227.265.265,0,0,1-.126.026h-9.056a.823.823,0,0,1-.1-.026.457.457,0,0,1-.146-.108.313.313,0,0,1-.069-.186c-.088-.453-.2-1.054-.372-1.772-.1-.394-.205-.82-.332-1.283-1.391-4.932-3.411-7.659-4.8-10.179-2.95-5.335-1.677-7.243-3.3-12.136-.226-.689-.51-1.447-.872-2.274-.079-.187-.167-.384-.265-.581s-.187-.413-.294-.62a32.149,32.149,0,0,0-2.49-4.2c-.432-.61-.912-1.25-1.431-1.89-.352-.394-.7-.777-1.049-1.171q-.543-.606-1.087-1.213a10.659,10.659,0,0,1,2.206-3.79,11.111,11.111,0,0,1,6.694-3.456c.186.581.333,1.162.49,1.753,0-.02.01-.039.01-.059q4.322,18.605,8.644,37.191a4.36,4.36,0,0,0,1.412,2.629,14.5,14.5,0,0,0,2.519,1.112s.146.072.4.171c.843.345,2.794,1.162,3.43,1.486A.307.307,0,0,1-440.561,126.79Z" transform="translate(558.518 -31.453)" fill="#f9978a"/>
          <path id="Trazado_37332" data-name="Trazado 37332" d="M-450.223,125.983c.167.719.284,1.319.372,1.772a.313.313,0,0,0,.069.187.457.457,0,0,0,.146.108h9.282a.3.3,0,0,0,.177-.227.307.307,0,0,0-.167-.354c-.637-.324-2.588-1.141-3.43-1.486Z" transform="translate(558.134 -32.607)" fill="#26376e"/>
          <path id="Trazado_37333" data-name="Trazado 37333" d="M-478.577,68.589a32.093,32.093,0,0,1-3.509,1.279,32.783,32.783,0,0,1-11.692,1.21c.014-.187.026-.374.04-.561a32.39,32.39,0,0,0,4.58.082A32.987,32.987,0,0,0-478.6,68.244C-478.591,68.358-478.584,68.473-478.577,68.589Z" transform="translate(559.721 -30.717)" fill="#88c8c7"/>
          <path id="Trazado_37334" data-name="Trazado 37334" d="M-492.218,54.166c-.556,2.028-.934,3.79-1.2,5.178-.807,4.285-.265,5.063-.029,5.363.84,1.073,2.441,1.245,5.271,1.052,2.512-.172,5.372-.583,5.352-.765-.015-.131-1.518.043-4.414-.056-3.3-.112-4.984-.172-5.6-1.011-.635-.869-.284-1.8.245-5.5A38.185,38.185,0,0,0-492.218,54.166Z" transform="translate(559.749 -30.284)" fill="#88c8c7"/>
          <path id="Trazado_37335" data-name="Trazado 37335" d="M-482.919,53.826c-.627.236-2.447-2.71-5.417-8.823,1.383.01,2.772.028,4.163.038C-482.76,50.672-482.33,53.609-482.919,53.826Z" transform="translate(559.598 -29.97)" fill="#fff"/>
          <path id="Trazado_37336" data-name="Trazado 37336" d="M-479.366,67.3a.411.411,0,0,0-.534.232.414.414,0,0,0,.232.536.411.411,0,0,0,.534-.233A.414.414,0,0,0-479.366,67.3Z" transform="translate(559.35 -30.676)" fill="#fff"/>
          <path id="Trazado_37337" data-name="Trazado 37337" d="M-481.306,67.657a.41.41,0,0,0-.533.232.413.413,0,0,0,.232.536.41.41,0,0,0,.533-.233A.413.413,0,0,0-481.306,67.657Z" transform="translate(559.415 -30.689)" fill="#fff"/>
          <path id="Trazado_37338" data-name="Trazado 37338" d="M-480.393,36.08c-.029-.2-.059-.364-.1-.521a6.445,6.445,0,0,1-1-1.181,6.4,6.4,0,0,1-.98-2.54,9.722,9.722,0,0,1-5.449,5.246.938.938,0,0,0-1.362-.186,1.222,1.222,0,0,0-.3,1.112,1.781,1.781,0,0,0,1.509,1.26,6.978,6.978,0,0,1,.2,3.161,6.919,6.919,0,0,1-.792,2.208A9.826,9.826,0,0,0-492,45.926s-6.675,4.066-6.107,17.208c.01.226.02.442.029.659.019.3.039.571.069.827-3.676-2.264-4.538-4.3-4.636-5.749-.255-3.514,2.862-4.568,4.086-9.017,1.255-4.587-.872-5.858.893-8.742,1.588-2.588,3.9-2.038,6.057-5.68.657-1.1,1.147-2.9,2.284-4.026,2.96-2.954,8.527-2.215,10.145.591C-478.206,33.68-478.158,36.179-480.393,36.08Z" transform="translate(559.965 -29.514)" fill="#26376e"/>
          <path id="Trazado_37339" data-name="Trazado 37339" d="M-480.589,40.367c-.314.709-1.138,2.53-2.647,2.737a2.165,2.165,0,0,1-.784-.039c-.059.551-.116,1.115-.175,1.667a3.436,3.436,0,0,1-1.7.676,3.067,3.067,0,0,1-1.01-.049,3.712,3.712,0,0,1-1.457-.665,6.92,6.92,0,0,0,.792-2.208,6.976,6.976,0,0,0-.2-3.161,1.782,1.782,0,0,1-1.508-1.26,1.222,1.222,0,0,1,.3-1.112.938.938,0,0,1,1.362.186,9.722,9.722,0,0,0,5.449-5.246,6.4,6.4,0,0,0,.98,2.54,6.44,6.44,0,0,0,1,1.181c.039.157.068.324.1.521A7.319,7.319,0,0,1-480.589,40.367Z" transform="translate(559.608 -29.544)" fill="#f9978a"/>
          <path id="Trazado_37340" data-name="Trazado 37340" d="M-472.3,58.193c0,.213-.127.389-.28.389h-2.282c-.153,0-.28-.176-.28-.389s.127-.389.28-.389h2.282C-472.429,57.8-472.3,57.98-472.3,58.193Z" transform="translate(559.182 -30.366)" fill="#bed8f1"/>
          <path id="Trazado_37341" data-name="Trazado 37341" d="M-470.735,66.977l-1.945-4.718c0-1.22-.012-2.439-.016-3.659h-2.132l-.012,3.707-1.92,4.669a1.235,1.235,0,0,0,.174.974.81.81,0,0,0,.676.332h4.324a.812.812,0,0,0,.677-.332A1.246,1.246,0,0,0-470.735,66.977Z" transform="translate(559.215 -30.425)" fill="#cae3f8"/>
          <path id="Trazado_37342" data-name="Trazado 37342" d="M-470.735,67.048l-1.945-4.718c0-1.22-.012.514-.016-.7h-2.132c0,1.235-.008-.482-.012.754l-1.92,4.669a1.235,1.235,0,0,0,.174.974.81.81,0,0,0,.676.332h4.324a.812.812,0,0,0,.677-.332A1.246,1.246,0,0,0-470.735,67.048Z" transform="translate(559.215 -30.514)" fill="#bb5a9b"/>
          <path id="Trazado_37343" data-name="Trazado 37343" d="M-471.766,64.561a1.963,1.963,0,0,1-.657,1.043c-1.323,1.211-4.743,1.92-5.831,2.127-.06-1.133-.118-2.245-.177-3.376,1.588-.178,2.146-.591,2.342-.995a3.416,3.416,0,0,1,.765-1.1,3.094,3.094,0,0,1,.461-.334c.01.433.01.866.01,1.308a3.225,3.225,0,0,0,1.039.011c.8-.139,1.029-.532,1.411-.414C-471.913,62.976-471.619,63.862-471.766,64.561Z" transform="translate(559.264 -30.52)" fill="#26376e"/>
          <path id="Trazado_37344" data-name="Trazado 37344" d="M-466.968,53.591a.328.328,0,0,1,.062.447l-1.567,1.616a.323.323,0,0,1-.446-.051.327.327,0,0,1-.061-.446l1.566-1.616A.324.324,0,0,1-466.968,53.591Z" transform="translate(558.985 -30.229)" fill="#bed8f1"/>
          <path id="Trazado_37345" data-name="Trazado 37345" d="M-466.853,54.255l5.962,5.828a1.072,1.072,0,0,1,.022,1.507,1.063,1.063,0,0,1-1.5.02l-5.962-5.828a1.01,1.01,0,0,1-.105-.12l1.462-1.51A1.113,1.113,0,0,1-466.853,54.255Z" transform="translate(558.925 -30.27)" fill="#cae3f8"/>
          <path id="Trazado_37346" data-name="Trazado 37346" d="M-460.844,61.631a.993.993,0,0,1-1.389.129l-.745-.728-4.391-4.3,2.2-.809,4.415,4.315A1.218,1.218,0,0,1-460.844,61.631Z" transform="translate(558.898 -30.323)" fill="#417bff"/>
          <path id="Trazado_37347" data-name="Trazado 37347" d="M-464.3,58.916c-.659-.741-1.138-2.091-.531-2.73.51-.537,1.583-.359,2.229-.028,1.453.743,2.084,2.947,1.4,3.611C-461.778,60.333-463.429,59.893-464.3,58.916Z" transform="translate(558.843 -30.314)" fill="#26376e"/>
        </g>
      </g>
      <path id="Trazado_194613" data-name="Trazado 194613" d="M30.982,14.656H26.873L26.092,17H23.6L27.834,5.625h2.172L34.264,17H31.771Zm-3.477-1.9H30.35L28.92,8.5Zm11.187,2.578a1.481,1.481,0,0,0,1.016-.344,1.2,1.2,0,0,0,.406-.914h2.117a2.9,2.9,0,0,1-.469,1.574A3.093,3.093,0,0,1,40.5,16.762a3.949,3.949,0,0,1-1.77.395A3.67,3.67,0,0,1,35.873,16a4.56,4.56,0,0,1-1.047-3.184v-.148a4.508,4.508,0,0,1,1.039-3.117,3.627,3.627,0,0,1,2.852-1.164,3.555,3.555,0,0,1,2.543.9,3.2,3.2,0,0,1,.973,2.4H40.115a1.551,1.551,0,0,0-.406-1.072,1.51,1.51,0,0,0-2.223.163,3.333,3.333,0,0,0-.4,1.866v.235a3.375,3.375,0,0,0,.4,1.878A1.377,1.377,0,0,0,38.693,15.336Zm7.531-8.867V8.547H47.67V10.2H46.225v4.219a1.007,1.007,0,0,0,.18.672.9.9,0,0,0,.688.2,3.6,3.6,0,0,0,.664-.055v1.711a4.648,4.648,0,0,1-1.367.2,2.156,2.156,0,0,1-2.422-2.4V10.2H42.732V8.547h1.234V6.469ZM51.31,17H49.045V8.547H51.31Zm-2.4-10.641a1.112,1.112,0,0,1,.34-.836,1.465,1.465,0,0,1,1.848,0,1.105,1.105,0,0,1,.344.836A1.108,1.108,0,0,1,51.1,7.2a1.448,1.448,0,0,1-1.836,0A1.108,1.108,0,0,1,48.912,6.359Zm7.422,7.883,1.57-5.7h2.359L57.412,17H55.256L52.4,8.547h2.359ZM63.639,17H61.373V8.547h2.266ZM61.24,6.359a1.112,1.112,0,0,1,.34-.836,1.465,1.465,0,0,1,1.848,0,1.105,1.105,0,0,1,.344.836,1.108,1.108,0,0,1-.348.844,1.448,1.448,0,0,1-1.836,0A1.108,1.108,0,0,1,61.24,6.359Zm3.906,6.352a5.094,5.094,0,0,1,.887-3.148,2.877,2.877,0,0,1,2.426-1.172,2.589,2.589,0,0,1,2.039.922V5h2.266V17H70.725l-.109-.9a2.657,2.657,0,0,1-2.172,1.055,2.869,2.869,0,0,1-2.395-1.176A5.258,5.258,0,0,1,65.146,12.711Zm2.258.168a3.337,3.337,0,0,0,.414,1.823,1.349,1.349,0,0,0,1.2.634,1.511,1.511,0,0,0,1.477-.884V11.111a1.489,1.489,0,0,0-1.461-.884Q67.4,10.227,67.4,12.879ZM79.412,17a2.507,2.507,0,0,1-.227-.758,2.732,2.732,0,0,1-2.133.914,3,3,0,0,1-2.059-.719,2.312,2.312,0,0,1-.816-1.812,2.389,2.389,0,0,1,1-2.062,4.915,4.915,0,0,1,2.879-.727h1.039v-.484a1.393,1.393,0,0,0-.3-.937,1.183,1.183,0,0,0-.949-.352,1.345,1.345,0,0,0-.895.273.929.929,0,0,0-.324.75H74.365a2.268,2.268,0,0,1,.453-1.359,3,3,0,0,1,1.281-.98,4.669,4.669,0,0,1,1.859-.355,3.689,3.689,0,0,1,2.48.785,2.747,2.747,0,0,1,.918,2.207v3.664a4.041,4.041,0,0,0,.336,1.82V17Zm-1.867-1.57a1.945,1.945,0,0,0,.922-.223,1.462,1.462,0,0,0,.625-.6V13.156h-.844q-1.7,0-1.8,1.172l-.008.133a.9.9,0,0,0,.3.7A1.153,1.153,0,0,0,77.545,15.43Zm5.2-2.719a5.094,5.094,0,0,1,.887-3.148,2.877,2.877,0,0,1,2.426-1.172,2.589,2.589,0,0,1,2.039.922V5h2.266V17H88.318l-.109-.9a2.657,2.657,0,0,1-2.172,1.055,2.869,2.869,0,0,1-2.395-1.176A5.258,5.258,0,0,1,82.74,12.711ZM85,12.879a3.337,3.337,0,0,0,.414,1.823,1.349,1.349,0,0,0,1.2.634,1.511,1.511,0,0,0,1.477-.884V11.111a1.489,1.489,0,0,0-1.461-.884Q85,10.227,85,12.879Zm11,4.277a4.15,4.15,0,0,1-3.027-1.141A4.054,4.054,0,0,1,91.8,12.977v-.219a5.106,5.106,0,0,1,.492-2.277,3.612,3.612,0,0,1,1.395-1.547,3.914,3.914,0,0,1,2.059-.543,3.508,3.508,0,0,1,2.73,1.094,4.444,4.444,0,0,1,1,3.1v.922H94.092a2.1,2.1,0,0,0,.66,1.328,2,2,0,0,0,1.395.5,2.437,2.437,0,0,0,2.039-.945l1.109,1.242a3.389,3.389,0,0,1-1.375,1.121A4.511,4.511,0,0,1,96,17.156Zm-.258-6.945a1.411,1.411,0,0,0-1.09.455,2.357,2.357,0,0,0-.535,1.3h3.141v-.181a1.681,1.681,0,0,0-.406-1.165A1.456,1.456,0,0,0,95.74,10.211Zm9.594,4.453a.727.727,0,0,0-.41-.652,4.659,4.659,0,0,0-1.316-.426q-3.016-.633-3.016-2.562a2.323,2.323,0,0,1,.934-1.879,3.766,3.766,0,0,1,2.441-.754,4.053,4.053,0,0,1,2.574.758,2.388,2.388,0,0,1,.965,1.969h-2.258a1.092,1.092,0,0,0-.312-.8,1.322,1.322,0,0,0-.977-.316,1.351,1.351,0,0,0-.883.258.814.814,0,0,0-.312.656.7.7,0,0,0,.355.605,3.657,3.657,0,0,0,1.2.4,9.8,9.8,0,0,1,1.422.379,2.336,2.336,0,0,1,1.789,2.273,2.2,2.2,0,0,1-.992,1.871,4.28,4.28,0,0,1-2.562.715,4.47,4.47,0,0,1-1.887-.379,3.166,3.166,0,0,1-1.293-1.039,2.414,2.414,0,0,1-.469-1.426h2.141a1.179,1.179,0,0,0,.445.922,1.766,1.766,0,0,0,1.109.32,1.635,1.635,0,0,0,.98-.246A.766.766,0,0,0,105.334,14.664Zm7.281-1.953a5.094,5.094,0,0,1,.887-3.148,2.877,2.877,0,0,1,2.426-1.172,2.589,2.589,0,0,1,2.039.922V5h2.266V17h-2.039l-.109-.9a2.657,2.657,0,0,1-2.172,1.055,2.869,2.869,0,0,1-2.395-1.176A5.258,5.258,0,0,1,112.615,12.711Zm2.258.168a3.337,3.337,0,0,0,.414,1.823,1.349,1.349,0,0,0,1.2.634,1.511,1.511,0,0,0,1.477-.884V11.111a1.489,1.489,0,0,0-1.461-.884Q114.873,10.227,114.873,12.879Zm11,4.277a4.15,4.15,0,0,1-3.027-1.141,4.054,4.054,0,0,1-1.168-3.039v-.219a5.106,5.106,0,0,1,.492-2.277,3.612,3.612,0,0,1,1.395-1.547,3.914,3.914,0,0,1,2.059-.543,3.508,3.508,0,0,1,2.73,1.094,4.444,4.444,0,0,1,1,3.1v.922h-5.383a2.1,2.1,0,0,0,.66,1.328,2,2,0,0,0,1.395.5,2.437,2.437,0,0,0,2.039-.945l1.109,1.242a3.389,3.389,0,0,1-1.375,1.121A4.511,4.511,0,0,1,125.873,17.156Zm-.258-6.945a1.411,1.411,0,0,0-1.09.455,2.357,2.357,0,0,0-.535,1.3h3.141v-.181a1.681,1.681,0,0,0-.406-1.165A1.456,1.456,0,0,0,125.615,10.211ZM137,17h-2.266V8.547H137ZM134.6,6.359a1.112,1.112,0,0,1,.34-.836,1.465,1.465,0,0,1,1.848,0,1.105,1.105,0,0,1,.344.836,1.109,1.109,0,0,1-.348.844,1.448,1.448,0,0,1-1.836,0A1.109,1.109,0,0,1,134.6,6.359Zm6.336,2.188.07.977a2.951,2.951,0,0,1,2.43-1.133,2.453,2.453,0,0,1,2,.789,3.682,3.682,0,0,1,.672,2.359V17H143.85V11.594a1.465,1.465,0,0,0-.312-1.043,1.4,1.4,0,0,0-1.039-.324,1.553,1.553,0,0,0-1.43.813V17H138.81V8.547Zm6.531,4.164a5.094,5.094,0,0,1,.887-3.148,2.877,2.877,0,0,1,2.426-1.172,2.589,2.589,0,0,1,2.039.922V5h2.266V17h-2.039l-.109-.9a2.657,2.657,0,0,1-2.172,1.055,2.869,2.869,0,0,1-2.395-1.176A5.258,5.258,0,0,1,147.467,12.711Zm2.258.168a3.337,3.337,0,0,0,.414,1.823,1.349,1.349,0,0,0,1.2.634,1.511,1.511,0,0,0,1.477-.884V11.111a1.489,1.489,0,0,0-1.461-.884Q149.725,10.227,149.725,12.879ZM159.217,17h-2.266V8.547h2.266Zm-2.4-10.641a1.112,1.112,0,0,1,.34-.836,1.465,1.465,0,0,1,1.848,0,1.105,1.105,0,0,1,.344.836A1.109,1.109,0,0,1,159,7.2a1.448,1.448,0,0,1-1.836,0A1.109,1.109,0,0,1,156.818,6.359ZM161.693,17V10.2h-1.258V8.547h1.258V7.828a2.918,2.918,0,0,1,.816-2.207,3.162,3.162,0,0,1,2.285-.785,5.278,5.278,0,0,1,1.148.156l-.023,1.75a2.878,2.878,0,0,0-.687-.07q-1.273,0-1.273,1.2v.68h1.68V10.2h-1.68V17Zm9.008.156a4.15,4.15,0,0,1-3.027-1.141,4.054,4.054,0,0,1-1.168-3.039v-.219A5.106,5.106,0,0,1,167,10.48a3.612,3.612,0,0,1,1.395-1.547,3.914,3.914,0,0,1,2.059-.543,3.508,3.508,0,0,1,2.73,1.094,4.444,4.444,0,0,1,1,3.1v.922h-5.383a2.1,2.1,0,0,0,.66,1.328,2,2,0,0,0,1.395.5,2.437,2.437,0,0,0,2.039-.945L174,15.633a3.389,3.389,0,0,1-1.375,1.121A4.511,4.511,0,0,1,170.7,17.156Zm-.258-6.945a1.411,1.411,0,0,0-1.09.455,2.357,2.357,0,0,0-.535,1.3h3.141v-.181a1.681,1.681,0,0,0-.406-1.165A1.456,1.456,0,0,0,170.443,10.211Zm9.766.453a6.134,6.134,0,0,0-.812-.062,1.654,1.654,0,0,0-1.68.867V17h-2.258V8.547h2.133l.063,1.008a2.092,2.092,0,0,1,1.883-1.164,2.366,2.366,0,0,1,.7.1Zm4.977,6.492a4.15,4.15,0,0,1-3.027-1.141,4.054,4.054,0,0,1-1.168-3.039v-.219a5.106,5.106,0,0,1,.492-2.277,3.612,3.612,0,0,1,1.395-1.547,3.914,3.914,0,0,1,2.059-.543,3.508,3.508,0,0,1,2.73,1.094,4.444,4.444,0,0,1,1,3.1v.922h-5.383a2.1,2.1,0,0,0,.66,1.328,2,2,0,0,0,1.395.5,2.437,2.437,0,0,0,2.039-.945l1.109,1.242a3.389,3.389,0,0,1-1.375,1.121A4.511,4.511,0,0,1,185.185,17.156Zm-.258-6.945a1.411,1.411,0,0,0-1.09.455,2.357,2.357,0,0,0-.535,1.3h3.141v-.181a1.681,1.681,0,0,0-.406-1.165A1.456,1.456,0,0,0,184.928,10.211Zm7.094-1.664.07.977a2.951,2.951,0,0,1,2.43-1.133,2.453,2.453,0,0,1,2,.789,3.682,3.682,0,0,1,.672,2.359V17h-2.258V11.594a1.465,1.465,0,0,0-.312-1.043,1.4,1.4,0,0,0-1.039-.324,1.553,1.553,0,0,0-1.43.813V17H189.9V8.547Zm10.4,6.789a1.481,1.481,0,0,0,1.016-.344,1.2,1.2,0,0,0,.406-.914h2.117a2.9,2.9,0,0,1-.469,1.574,3.093,3.093,0,0,1-1.262,1.109,3.949,3.949,0,0,1-1.77.395A3.67,3.67,0,0,1,199.6,16a4.56,4.56,0,0,1-1.047-3.184v-.148a4.508,4.508,0,0,1,1.039-3.117,3.627,3.627,0,0,1,2.852-1.164,3.555,3.555,0,0,1,2.543.9,3.2,3.2,0,0,1,.973,2.4h-2.117a1.551,1.551,0,0,0-.406-1.072,1.51,1.51,0,0,0-2.223.163,3.333,3.333,0,0,0-.4,1.866v.235a3.375,3.375,0,0,0,.4,1.878A1.377,1.377,0,0,0,202.42,15.336ZM209.631,17h-2.266V8.547h2.266Zm-2.4-10.641a1.112,1.112,0,0,1,.34-.836,1.465,1.465,0,0,1,1.848,0,1.105,1.105,0,0,1,.344.836,1.109,1.109,0,0,1-.348.844,1.448,1.448,0,0,1-1.836,0A1.109,1.109,0,0,1,207.232,6.359ZM216.389,17a2.507,2.507,0,0,1-.227-.758,2.732,2.732,0,0,1-2.133.914,3,3,0,0,1-2.059-.719,2.312,2.312,0,0,1-.816-1.812,2.389,2.389,0,0,1,1-2.062,4.915,4.915,0,0,1,2.879-.727h1.039v-.484a1.393,1.393,0,0,0-.3-.937,1.183,1.183,0,0,0-.949-.352,1.345,1.345,0,0,0-.895.273.929.929,0,0,0-.324.75h-2.258a2.268,2.268,0,0,1,.453-1.359,3,3,0,0,1,1.281-.98,4.669,4.669,0,0,1,1.859-.355,3.689,3.689,0,0,1,2.48.785,2.747,2.747,0,0,1,.918,2.207v3.664a4.041,4.041,0,0,0,.336,1.82V17Zm-1.867-1.57a1.945,1.945,0,0,0,.922-.223,1.462,1.462,0,0,0,.625-.6V13.156h-.844q-1.7,0-1.8,1.172l-.008.133a.9.9,0,0,0,.3.7A1.153,1.153,0,0,0,214.521,15.43Z" transform="translate(318.405 1640.151)" fill="#4880a1"/>
      <path id="Trazado_194614" data-name="Trazado 194614" d="M30.881,17H28.537L23.975,9.516V17H21.631V5.625h2.344l4.57,7.5v-7.5h2.336Zm1.547-4.3a5.013,5.013,0,0,1,.484-2.242A3.546,3.546,0,0,1,34.307,8.93a4.069,4.069,0,0,1,2.113-.539,3.849,3.849,0,0,1,2.793,1.047,4.2,4.2,0,0,1,1.207,2.844l.016.578A4.418,4.418,0,0,1,39.35,15.98a4.209,4.209,0,0,1-5.832,0,4.5,4.5,0,0,1-1.09-3.187Zm2.258.16a3.16,3.16,0,0,0,.453,1.843,1.628,1.628,0,0,0,2.578.008,3.457,3.457,0,0,0,.461-2.015,3.128,3.128,0,0,0-.461-1.831,1.5,1.5,0,0,0-1.3-.649,1.474,1.474,0,0,0-1.281.646A3.516,3.516,0,0,0,34.685,12.856Zm16.188,3.285a2.831,2.831,0,0,1-2.312,1.016,2.67,2.67,0,0,1-2.074-.781,3.335,3.335,0,0,1-.73-2.289V8.547h2.258v5.467q0,1.322,1.2,1.322a1.63,1.63,0,0,0,1.578-.8V8.547H53.06V17H50.935Zm6.594-9.672V8.547h1.445V10.2H57.467v4.219a1.007,1.007,0,0,0,.18.672.9.9,0,0,0,.688.2A3.6,3.6,0,0,0,59,15.242v1.711a4.648,4.648,0,0,1-1.367.2,2.156,2.156,0,0,1-2.422-2.4V10.2H53.975V8.547h1.234V6.469ZM62.553,17H60.287V8.547h2.266Zm-2.4-10.641a1.112,1.112,0,0,1,.34-.836,1.465,1.465,0,0,1,1.848,0,1.105,1.105,0,0,1,.344.836,1.108,1.108,0,0,1-.348.844,1.448,1.448,0,0,1-1.836,0A1.108,1.108,0,0,1,60.154,6.359ZM66.795,17H64.529V5h2.266Zm4.242,0H68.771V8.547h2.266Zm-2.4-10.641a1.112,1.112,0,0,1,.34-.836,1.465,1.465,0,0,1,1.848,0,1.105,1.105,0,0,1,.344.836,1.108,1.108,0,0,1-.348.844,1.448,1.448,0,0,1-1.836,0A1.108,1.108,0,0,1,68.639,6.359Zm6.852,8.82h4.133V17H72.607V15.625l3.977-5.258H72.725V8.547H79.5v1.33ZM85.935,17a2.507,2.507,0,0,1-.227-.758,2.732,2.732,0,0,1-2.133.914,3,3,0,0,1-2.059-.719,2.312,2.312,0,0,1-.816-1.812,2.389,2.389,0,0,1,1-2.062,4.915,4.915,0,0,1,2.879-.727h1.039v-.484a1.393,1.393,0,0,0-.3-.937,1.183,1.183,0,0,0-.949-.352,1.345,1.345,0,0,0-.895.273.929.929,0,0,0-.324.75H80.889a2.268,2.268,0,0,1,.453-1.359,3,3,0,0,1,1.281-.98,4.669,4.669,0,0,1,1.859-.355,3.689,3.689,0,0,1,2.48.785,2.747,2.747,0,0,1,.918,2.207v3.664a4.041,4.041,0,0,0,.336,1.82V17Zm-1.867-1.57a1.945,1.945,0,0,0,.922-.223,1.462,1.462,0,0,0,.625-.6V13.156h-.844q-1.7,0-1.8,1.172l-.008.133a.9.9,0,0,0,.3.7A1.153,1.153,0,0,0,84.068,15.43Zm10.3-4.766a6.134,6.134,0,0,0-.812-.062,1.654,1.654,0,0,0-1.68.867V17H89.615V8.547h2.133l.063,1.008a2.092,2.092,0,0,1,1.883-1.164,2.366,2.366,0,0,1,.7.1Zm8.961,6.492a4.15,4.15,0,0,1-3.027-1.141,4.054,4.054,0,0,1-1.168-3.039v-.219a5.106,5.106,0,0,1,.492-2.277,3.612,3.612,0,0,1,1.395-1.547,3.914,3.914,0,0,1,2.059-.543,3.508,3.508,0,0,1,2.73,1.094,4.444,4.444,0,0,1,1,3.1v.922H101.42a2.1,2.1,0,0,0,.66,1.328,2,2,0,0,0,1.395.5,2.437,2.437,0,0,0,2.039-.945l1.109,1.242a3.389,3.389,0,0,1-1.375,1.121A4.511,4.511,0,0,1,103.326,17.156Zm-.258-6.945a1.411,1.411,0,0,0-1.09.455,2.357,2.357,0,0,0-.535,1.3h3.141v-.181a1.681,1.681,0,0,0-.406-1.165A1.456,1.456,0,0,0,103.068,10.211Zm7.4,6.789H108.2V5h2.266Zm10.422-2.336a.727.727,0,0,0-.41-.652,4.659,4.659,0,0,0-1.316-.426q-3.016-.633-3.016-2.562a2.323,2.323,0,0,1,.934-1.879,3.766,3.766,0,0,1,2.441-.754,4.053,4.053,0,0,1,2.574.758,2.388,2.388,0,0,1,.965,1.969H120.8a1.092,1.092,0,0,0-.312-.8,1.322,1.322,0,0,0-.977-.316,1.351,1.351,0,0,0-.883.258.814.814,0,0,0-.312.656.7.7,0,0,0,.355.605,3.657,3.657,0,0,0,1.2.4,9.8,9.8,0,0,1,1.422.379,2.336,2.336,0,0,1,1.789,2.273,2.2,2.2,0,0,1-.992,1.871,4.28,4.28,0,0,1-2.562.715,4.47,4.47,0,0,1-1.887-.379,3.166,3.166,0,0,1-1.293-1.039,2.414,2.414,0,0,1-.469-1.426h2.141a1.179,1.179,0,0,0,.445.922,1.766,1.766,0,0,0,1.109.32,1.635,1.635,0,0,0,.98-.246A.766.766,0,0,0,120.889,14.664Zm7.539,2.492a4.15,4.15,0,0,1-3.027-1.141,4.054,4.054,0,0,1-1.168-3.039v-.219a5.106,5.106,0,0,1,.492-2.277,3.612,3.612,0,0,1,1.395-1.547,3.914,3.914,0,0,1,2.059-.543,3.508,3.508,0,0,1,2.73,1.094,4.444,4.444,0,0,1,1,3.1v.922h-5.383a2.1,2.1,0,0,0,.66,1.328,2,2,0,0,0,1.395.5,2.437,2.437,0,0,0,2.039-.945l1.109,1.242a3.389,3.389,0,0,1-1.375,1.121A4.511,4.511,0,0,1,128.428,17.156Zm-.258-6.945a1.411,1.411,0,0,0-1.09.455,2.357,2.357,0,0,0-.535,1.3h3.141v-.181a1.681,1.681,0,0,0-.406-1.165A1.456,1.456,0,0,0,128.17,10.211Zm7.094-1.664.07.977a2.951,2.951,0,0,1,2.43-1.133,2.453,2.453,0,0,1,2,.789,3.682,3.682,0,0,1,.672,2.359V17h-2.258V11.594a1.465,1.465,0,0,0-.312-1.043,1.4,1.4,0,0,0-1.039-.324,1.553,1.553,0,0,0-1.43.813V17h-2.258V8.547Zm9.586-2.078V8.547h1.445V10.2H144.85v4.219a1.007,1.007,0,0,0,.18.672.9.9,0,0,0,.688.2,3.6,3.6,0,0,0,.664-.055v1.711a4.648,4.648,0,0,1-1.367.2,2.156,2.156,0,0,1-2.422-2.4V10.2h-1.234V8.547h1.234V6.469ZM149.935,17H147.67V8.547h2.266Zm-2.4-10.641a1.112,1.112,0,0,1,.34-.836,1.465,1.465,0,0,1,1.848,0,1.105,1.105,0,0,1,.344.836,1.109,1.109,0,0,1-.348.844,1.448,1.448,0,0,1-1.836,0A1.109,1.109,0,0,1,147.537,6.359Zm3.906,6.352a5.094,5.094,0,0,1,.887-3.148,2.877,2.877,0,0,1,2.426-1.172,2.589,2.589,0,0,1,2.039.922V5h2.266V17h-2.039l-.109-.9a2.657,2.657,0,0,1-2.172,1.055,2.869,2.869,0,0,1-2.395-1.176A5.258,5.258,0,0,1,151.443,12.711Zm2.258.168a3.337,3.337,0,0,0,.414,1.823,1.349,1.349,0,0,0,1.2.634,1.511,1.511,0,0,0,1.477-.884V11.111a1.489,1.489,0,0,0-1.461-.884Q153.7,10.227,153.7,12.879Zm6.758-.184a5.013,5.013,0,0,1,.484-2.242,3.546,3.546,0,0,1,1.395-1.523,4.069,4.069,0,0,1,2.113-.539,3.849,3.849,0,0,1,2.793,1.047,4.2,4.2,0,0,1,1.207,2.844l.016.578a4.418,4.418,0,0,1-1.086,3.121,4.209,4.209,0,0,1-5.832,0,4.5,4.5,0,0,1-1.09-3.187Zm2.258.16a3.16,3.16,0,0,0,.453,1.843,1.628,1.628,0,0,0,2.578.008,3.457,3.457,0,0,0,.461-2.015,3.128,3.128,0,0,0-.461-1.831,1.5,1.5,0,0,0-1.3-.649,1.474,1.474,0,0,0-1.281.646A3.516,3.516,0,0,0,162.717,12.856Zm14.641,2.48a1.481,1.481,0,0,0,1.016-.344,1.2,1.2,0,0,0,.406-.914H180.9a2.9,2.9,0,0,1-.469,1.574,3.093,3.093,0,0,1-1.262,1.109,3.949,3.949,0,0,1-1.77.395A3.67,3.67,0,0,1,174.537,16a4.56,4.56,0,0,1-1.047-3.184v-.148a4.508,4.508,0,0,1,1.039-3.117,3.627,3.627,0,0,1,2.852-1.164,3.555,3.555,0,0,1,2.543.9,3.2,3.2,0,0,1,.973,2.4h-2.117a1.551,1.551,0,0,0-.406-1.072,1.51,1.51,0,0,0-2.223.163,3.333,3.333,0,0,0-.4,1.866v.235a3.375,3.375,0,0,0,.4,1.878A1.377,1.377,0,0,0,177.357,15.336Zm4.477-2.641a5.013,5.013,0,0,1,.484-2.242,3.546,3.546,0,0,1,1.395-1.523,4.069,4.069,0,0,1,2.113-.539,3.849,3.849,0,0,1,2.793,1.047,4.2,4.2,0,0,1,1.207,2.844l.016.578a4.418,4.418,0,0,1-1.086,3.121,4.209,4.209,0,0,1-5.832,0,4.5,4.5,0,0,1-1.09-3.187Zm2.258.16a3.16,3.16,0,0,0,.453,1.843,1.628,1.628,0,0,0,2.578.008,3.457,3.457,0,0,0,.461-2.015,3.128,3.128,0,0,0-.461-1.831,1.5,1.5,0,0,0-1.3-.649,1.474,1.474,0,0,0-1.281.646A3.516,3.516,0,0,0,184.092,12.856Zm9.258-4.309.07.945a2.971,2.971,0,0,1,2.43-1.1,2.255,2.255,0,0,1,2.242,1.289,2.9,2.9,0,0,1,2.539-1.289,2.521,2.521,0,0,1,2.047.8,3.681,3.681,0,0,1,.672,2.41V17h-2.266V11.609a1.61,1.61,0,0,0-.281-1.051,1.246,1.246,0,0,0-.992-.332,1.409,1.409,0,0,0-1.406.969l.008,5.8h-2.258V11.617a1.59,1.59,0,0,0-.289-1.062,1.259,1.259,0,0,0-.984-.328,1.463,1.463,0,0,0-1.391.8V17h-2.258V8.547Zm16.8,7.594a2.831,2.831,0,0,1-2.312,1.016,2.67,2.67,0,0,1-2.074-.781,3.335,3.335,0,0,1-.73-2.289V8.547h2.258v5.467q0,1.322,1.2,1.322a1.63,1.63,0,0,0,1.578-.8V8.547h2.266V17h-2.125ZM209.139,5H211.6l-2.164,2.422H207.6Zm6.977,3.547.07.977a2.951,2.951,0,0,1,2.43-1.133,2.453,2.453,0,0,1,2,.789,3.682,3.682,0,0,1,.672,2.359V17h-2.258V11.594a1.465,1.465,0,0,0-.312-1.043,1.4,1.4,0,0,0-1.039-.324,1.553,1.553,0,0,0-1.43.813V17H213.99V8.547Z" transform="translate(669.162 1640.151)" fill="#4880a1"/>
      <path id="Trazado_194612" data-name="Trazado 194612" d="M82.863,17H80.52L75.957,9.516V17H73.613V5.625h2.344l4.57,7.5v-7.5h2.336Zm1.547-4.3a5.013,5.013,0,0,1,.484-2.242A3.546,3.546,0,0,1,86.289,8.93,4.069,4.069,0,0,1,88.4,8.391,3.849,3.849,0,0,1,91.2,9.438,4.2,4.2,0,0,1,92.4,12.281l.016.578a4.418,4.418,0,0,1-1.086,3.121,4.209,4.209,0,0,1-5.832,0A4.5,4.5,0,0,1,84.41,12.8Zm2.258.16a3.16,3.16,0,0,0,.453,1.843,1.628,1.628,0,0,0,2.578.008,3.457,3.457,0,0,0,.461-2.015A3.128,3.128,0,0,0,89.7,10.86a1.5,1.5,0,0,0-1.3-.649,1.474,1.474,0,0,0-1.281.646A3.516,3.516,0,0,0,86.668,12.856Zm15.7,1.808a.727.727,0,0,0-.41-.652,4.659,4.659,0,0,0-1.316-.426q-3.016-.633-3.016-2.562a2.323,2.323,0,0,1,.934-1.879A3.766,3.766,0,0,1,101,8.391a4.053,4.053,0,0,1,2.574.758,2.388,2.388,0,0,1,.965,1.969h-2.258a1.092,1.092,0,0,0-.312-.8A1.322,1.322,0,0,0,101,10a1.351,1.351,0,0,0-.883.258.814.814,0,0,0-.312.656.7.7,0,0,0,.355.605,3.657,3.657,0,0,0,1.2.4,9.8,9.8,0,0,1,1.422.379,2.336,2.336,0,0,1,1.789,2.273,2.2,2.2,0,0,1-.992,1.871,4.28,4.28,0,0,1-2.562.715,4.47,4.47,0,0,1-1.887-.379,3.166,3.166,0,0,1-1.293-1.039,2.414,2.414,0,0,1-.469-1.426H99.5a1.179,1.179,0,0,0,.445.922,1.766,1.766,0,0,0,1.109.32,1.635,1.635,0,0,0,.98-.246A.766.766,0,0,0,102.371,14.664Zm7.539,2.492a4.15,4.15,0,0,1-3.027-1.141,4.054,4.054,0,0,1-1.168-3.039v-.219a5.106,5.106,0,0,1,.492-2.277A3.612,3.612,0,0,1,107.6,8.934a3.914,3.914,0,0,1,2.059-.543,3.508,3.508,0,0,1,2.73,1.094,4.444,4.444,0,0,1,1,3.1v.922H108a2.1,2.1,0,0,0,.66,1.328,2,2,0,0,0,1.395.5,2.437,2.437,0,0,0,2.039-.945l1.109,1.242a3.389,3.389,0,0,1-1.375,1.121A4.511,4.511,0,0,1,109.91,17.156Zm-.258-6.945a1.411,1.411,0,0,0-1.09.455,2.357,2.357,0,0,0-.535,1.3h3.141v-.181a1.681,1.681,0,0,0-.406-1.165A1.456,1.456,0,0,0,109.652,10.211Zm4.688,2.5a4.954,4.954,0,0,1,.926-3.133,3,3,0,0,1,2.5-1.187,2.631,2.631,0,0,1,2.164.953l.094-.8h2.047v8.172a3.613,3.613,0,0,1-.5,1.93,3.236,3.236,0,0,1-1.418,1.25,4.985,4.985,0,0,1-2.141.43,4.635,4.635,0,0,1-1.812-.371A3.217,3.217,0,0,1,114.855,19l1-1.375a2.645,2.645,0,0,0,2.047.945,1.936,1.936,0,0,0,1.4-.48,1.8,1.8,0,0,0,.5-1.363v-.453a2.612,2.612,0,0,1-2.055.883,2.992,2.992,0,0,1-2.465-1.191,4.953,4.953,0,0,1-.941-3.16Zm2.258.168a3.085,3.085,0,0,0,.461,1.8,1.466,1.466,0,0,0,1.266.653,1.568,1.568,0,0,0,1.477-.775V11a1.564,1.564,0,0,0-1.461-.775,1.476,1.476,0,0,0-1.277.665A3.477,3.477,0,0,0,116.6,12.879Zm12.266,3.262a2.831,2.831,0,0,1-2.312,1.016,2.67,2.67,0,0,1-2.074-.781,3.335,3.335,0,0,1-.73-2.289V8.547H126v5.467q0,1.322,1.2,1.322a1.63,1.63,0,0,0,1.578-.8V8.547h2.266V17h-2.125Zm6.273.859h-2.266V8.547h2.266Zm-2.4-10.641a1.112,1.112,0,0,1,.34-.836,1.465,1.465,0,0,1,1.848,0,1.105,1.105,0,0,1,.344.836,1.109,1.109,0,0,1-.348.844,1.448,1.448,0,0,1-1.836,0A1.109,1.109,0,0,1,132.738,6.359Zm9.008,4.3a6.134,6.134,0,0,0-.812-.062,1.654,1.654,0,0,0-1.68.867V17H137V8.547h2.133l.063,1.008a2.092,2.092,0,0,1,1.883-1.164,2.366,2.366,0,0,1,.7.1ZM149.2,17h-2.266V8.547H149.2ZM146.8,6.359a1.112,1.112,0,0,1,.34-.836,1.465,1.465,0,0,1,1.848,0,1.105,1.105,0,0,1,.344.836,1.109,1.109,0,0,1-.348.844,1.448,1.448,0,0,1-1.836,0A1.109,1.109,0,0,1,146.8,6.359Zm6.336,2.188.07.977a2.951,2.951,0,0,1,2.43-1.133,2.453,2.453,0,0,1,2,.789,3.682,3.682,0,0,1,.672,2.359V17h-2.258V11.594a1.465,1.465,0,0,0-.312-1.043,1.4,1.4,0,0,0-1.039-.324,1.553,1.553,0,0,0-1.43.813V17h-2.258V8.547ZM164.6,14.664a.727.727,0,0,0-.41-.652,4.659,4.659,0,0,0-1.316-.426q-3.016-.633-3.016-2.562a2.323,2.323,0,0,1,.934-1.879,3.766,3.766,0,0,1,2.441-.754,4.053,4.053,0,0,1,2.574.758,2.388,2.388,0,0,1,.965,1.969h-2.258a1.092,1.092,0,0,0-.312-.8,1.322,1.322,0,0,0-.977-.316,1.351,1.351,0,0,0-.883.258.814.814,0,0,0-.312.656.7.7,0,0,0,.355.605,3.657,3.657,0,0,0,1.2.4A9.8,9.8,0,0,1,165,12.3a2.336,2.336,0,0,1,1.789,2.273,2.205,2.205,0,0,1-.992,1.871,4.28,4.28,0,0,1-2.562.715,4.47,4.47,0,0,1-1.887-.379,3.166,3.166,0,0,1-1.293-1.039,2.414,2.414,0,0,1-.469-1.426h2.141a1.179,1.179,0,0,0,.445.922,1.766,1.766,0,0,0,1.109.32,1.635,1.635,0,0,0,.98-.246A.766.766,0,0,0,164.6,14.664Zm6.352-8.2V8.547h1.445V10.2h-1.445v4.219a1.007,1.007,0,0,0,.18.672.9.9,0,0,0,.688.2,3.6,3.6,0,0,0,.664-.055v1.711a4.648,4.648,0,0,1-1.367.2,2.156,2.156,0,0,1-2.422-2.4V10.2h-1.234V8.547h1.234V6.469Zm7.453,4.2a6.134,6.134,0,0,0-.812-.062,1.654,1.654,0,0,0-1.68.867V17h-2.258V8.547h2.133l.063,1.008a2.092,2.092,0,0,1,1.883-1.164,2.366,2.366,0,0,1,.7.1Zm6.148,5.477a2.831,2.831,0,0,1-2.312,1.016,2.67,2.67,0,0,1-2.074-.781,3.335,3.335,0,0,1-.73-2.289V8.547h2.258v5.467q0,1.322,1.2,1.322a1.63,1.63,0,0,0,1.578-.8V8.547h2.266V17h-2.125Zm7.406-.8a1.481,1.481,0,0,0,1.016-.344,1.2,1.2,0,0,0,.406-.914H195.5a2.9,2.9,0,0,1-.469,1.574,3.093,3.093,0,0,1-1.262,1.109,3.949,3.949,0,0,1-1.77.395A3.67,3.67,0,0,1,189.137,16a4.56,4.56,0,0,1-1.047-3.184v-.148a4.508,4.508,0,0,1,1.039-3.117,3.627,3.627,0,0,1,2.852-1.164,3.555,3.555,0,0,1,2.543.9,3.2,3.2,0,0,1,.973,2.4h-2.117a1.551,1.551,0,0,0-.406-1.072,1.51,1.51,0,0,0-2.223.163,3.333,3.333,0,0,0-.4,1.866v.235a3.375,3.375,0,0,0,.4,1.878A1.377,1.377,0,0,0,191.957,15.336Zm8.344,0a1.481,1.481,0,0,0,1.016-.344,1.2,1.2,0,0,0,.406-.914h2.117a2.9,2.9,0,0,1-.469,1.574,3.093,3.093,0,0,1-1.262,1.109,3.949,3.949,0,0,1-1.77.395A3.67,3.67,0,0,1,197.48,16a4.56,4.56,0,0,1-1.047-3.184v-.148a4.508,4.508,0,0,1,1.039-3.117,3.627,3.627,0,0,1,2.852-1.164,3.555,3.555,0,0,1,2.543.9,3.2,3.2,0,0,1,.973,2.4h-2.117a1.551,1.551,0,0,0-.406-1.072,1.51,1.51,0,0,0-2.223.163,3.333,3.333,0,0,0-.4,1.866v.235a3.375,3.375,0,0,0,.4,1.878A1.377,1.377,0,0,0,200.3,15.336ZM207.512,17h-2.266V8.547h2.266Zm-2.4-10.641a1.112,1.112,0,0,1,.34-.836,1.465,1.465,0,0,1,1.848,0,1.105,1.105,0,0,1,.344.836,1.109,1.109,0,0,1-.348.844,1.448,1.448,0,0,1-1.836,0A1.109,1.109,0,0,1,205.113,6.359ZM209.02,12.7a5.013,5.013,0,0,1,.484-2.242A3.546,3.546,0,0,1,210.9,8.93a4.069,4.069,0,0,1,2.113-.539A3.849,3.849,0,0,1,215.8,9.438a4.2,4.2,0,0,1,1.207,2.844l.016.578a4.418,4.418,0,0,1-1.086,3.121,4.209,4.209,0,0,1-5.832,0,4.5,4.5,0,0,1-1.09-3.187Zm2.258.16a3.16,3.16,0,0,0,.453,1.843,1.628,1.628,0,0,0,2.578.008,3.457,3.457,0,0,0,.461-2.015,3.128,3.128,0,0,0-.461-1.831,1.5,1.5,0,0,0-1.3-.649,1.474,1.474,0,0,0-1.281.646A3.516,3.516,0,0,0,211.277,12.856ZM220.5,8.547l.07.977A2.951,2.951,0,0,1,223,8.391a2.453,2.453,0,0,1,2,.789,3.682,3.682,0,0,1,.672,2.359V17H223.41V11.594a1.465,1.465,0,0,0-.312-1.043,1.4,1.4,0,0,0-1.039-.324,1.553,1.553,0,0,0-1.43.813V17h-2.258V8.547Zm10.773,8.609a4.15,4.15,0,0,1-3.027-1.141,4.054,4.054,0,0,1-1.168-3.039v-.219a5.106,5.106,0,0,1,.492-2.277,3.612,3.612,0,0,1,1.395-1.547,3.914,3.914,0,0,1,2.059-.543,3.508,3.508,0,0,1,2.73,1.094,4.444,4.444,0,0,1,1,3.1v.922h-5.383a2.1,2.1,0,0,0,.66,1.328,2,2,0,0,0,1.395.5,2.437,2.437,0,0,0,2.039-.945l1.109,1.242a3.389,3.389,0,0,1-1.375,1.121A4.511,4.511,0,0,1,231.27,17.156Zm-.258-6.945a1.411,1.411,0,0,0-1.09.455,2.357,2.357,0,0,0-.535,1.3h3.141v-.181a1.681,1.681,0,0,0-.406-1.165A1.456,1.456,0,0,0,231.012,10.211Zm9.594,4.453a.727.727,0,0,0-.41-.652,4.659,4.659,0,0,0-1.316-.426q-3.016-.633-3.016-2.562a2.323,2.323,0,0,1,.934-1.879,3.766,3.766,0,0,1,2.441-.754,4.053,4.053,0,0,1,2.574.758,2.388,2.388,0,0,1,.965,1.969H240.52a1.092,1.092,0,0,0-.312-.8A1.322,1.322,0,0,0,239.23,10a1.351,1.351,0,0,0-.883.258.814.814,0,0,0-.312.656.7.7,0,0,0,.355.605,3.657,3.657,0,0,0,1.2.4,9.8,9.8,0,0,1,1.422.379A2.336,2.336,0,0,1,242.8,14.57a2.205,2.205,0,0,1-.992,1.871,4.28,4.28,0,0,1-2.562.715,4.47,4.47,0,0,1-1.887-.379,3.166,3.166,0,0,1-1.293-1.039,2.414,2.414,0,0,1-.469-1.426h2.141a1.179,1.179,0,0,0,.445.922,1.766,1.766,0,0,0,1.109.32,1.635,1.635,0,0,0,.98-.246A.766.766,0,0,0,240.605,14.664Zm10.789-.859,1.563-5.258h2.422l-3.4,9.766-.187.445a2.577,2.577,0,0,1-2.5,1.656,3.552,3.552,0,0,1-1-.148V18.555l.344.008a1.857,1.857,0,0,0,.957-.2,1.283,1.283,0,0,0,.5-.648l.266-.7-2.961-8.477h2.43Zm-138.8,21.531a1.481,1.481,0,0,0,1.016-.344,1.2,1.2,0,0,0,.406-.914h2.117a2.9,2.9,0,0,1-.469,1.574,3.093,3.093,0,0,1-1.262,1.109,3.949,3.949,0,0,1-1.77.395A3.67,3.67,0,0,1,109.773,36a4.56,4.56,0,0,1-1.047-3.184v-.148a4.508,4.508,0,0,1,1.039-3.117,3.627,3.627,0,0,1,2.852-1.164,3.555,3.555,0,0,1,2.543.9,3.2,3.2,0,0,1,.973,2.4h-2.117a1.551,1.551,0,0,0-.406-1.072,1.51,1.51,0,0,0-2.223.163,3.333,3.333,0,0,0-.4,1.866v.235a3.375,3.375,0,0,0,.4,1.878A1.377,1.377,0,0,0,112.594,35.336ZM117.07,32.7a5.013,5.013,0,0,1,.484-2.242,3.546,3.546,0,0,1,1.395-1.523,4.069,4.069,0,0,1,2.113-.539,3.849,3.849,0,0,1,2.793,1.047,4.2,4.2,0,0,1,1.207,2.844l.016.578a4.418,4.418,0,0,1-1.086,3.121,4.209,4.209,0,0,1-5.832,0,4.5,4.5,0,0,1-1.09-3.187Zm2.258.16a3.16,3.16,0,0,0,.453,1.843,1.628,1.628,0,0,0,2.578.008,3.457,3.457,0,0,0,.461-2.015,3.128,3.128,0,0,0-.461-1.831,1.5,1.5,0,0,0-1.3-.649,1.474,1.474,0,0,0-1.281.646A3.516,3.516,0,0,0,119.328,32.856Zm9.258-4.309.07.945a2.971,2.971,0,0,1,2.43-1.1,2.255,2.255,0,0,1,2.242,1.289,2.9,2.9,0,0,1,2.539-1.289,2.521,2.521,0,0,1,2.047.8,3.681,3.681,0,0,1,.672,2.41V37H136.32V31.609a1.61,1.61,0,0,0-.281-1.051,1.246,1.246,0,0,0-.992-.332,1.409,1.409,0,0,0-1.406.969l.008,5.8h-2.258V31.617a1.59,1.59,0,0,0-.289-1.062,1.259,1.259,0,0,0-.984-.328,1.463,1.463,0,0,0-1.391.8V37h-2.258V28.547Zm15.625,8.609a4.15,4.15,0,0,1-3.027-1.141,4.054,4.054,0,0,1-1.168-3.039v-.219a5.106,5.106,0,0,1,.492-2.277,3.612,3.612,0,0,1,1.395-1.547,3.914,3.914,0,0,1,2.059-.543,3.508,3.508,0,0,1,2.73,1.094,4.444,4.444,0,0,1,1,3.1v.922H142.3a2.1,2.1,0,0,0,.66,1.328,2,2,0,0,0,1.395.5,2.437,2.437,0,0,0,2.039-.945l1.109,1.242a3.389,3.389,0,0,1-1.375,1.121A4.511,4.511,0,0,1,144.211,37.156Zm-.258-6.945a1.411,1.411,0,0,0-1.09.455,2.357,2.357,0,0,0-.535,1.3h3.141v-.181a1.681,1.681,0,0,0-.406-1.165A1.456,1.456,0,0,0,143.953,30.211Zm7.719-3.742v2.078h1.445V30.2h-1.445v4.219a1.007,1.007,0,0,0,.18.672.9.9,0,0,0,.688.2,3.6,3.6,0,0,0,.664-.055v1.711a4.648,4.648,0,0,1-1.367.2,2.156,2.156,0,0,1-2.422-2.4V30.2H148.18V28.547h1.234V26.469Zm6.594,10.688a4.15,4.15,0,0,1-3.027-1.141,4.054,4.054,0,0,1-1.168-3.039v-.219a5.106,5.106,0,0,1,.492-2.277,3.612,3.612,0,0,1,1.395-1.547,3.914,3.914,0,0,1,2.059-.543,3.508,3.508,0,0,1,2.73,1.094,4.444,4.444,0,0,1,1,3.1v.922h-5.383a2.1,2.1,0,0,0,.66,1.328,2,2,0,0,0,1.395.5,2.437,2.437,0,0,0,2.039-.945l1.109,1.242a3.389,3.389,0,0,1-1.375,1.121A4.511,4.511,0,0,1,158.266,37.156Zm-.258-6.945a1.411,1.411,0,0,0-1.09.455,2.357,2.357,0,0,0-.535,1.3h3.141v-.181a1.681,1.681,0,0,0-.406-1.165A1.456,1.456,0,0,0,158.008,30.211Zm9.766.453a6.134,6.134,0,0,0-.812-.062,1.654,1.654,0,0,0-1.68.867V37h-2.258V28.547h2.133l.063,1.008a2.092,2.092,0,0,1,1.883-1.164,2.366,2.366,0,0,1,.7.1Zm8.961,6.492a4.15,4.15,0,0,1-3.027-1.141,4.054,4.054,0,0,1-1.168-3.039v-.219a5.106,5.106,0,0,1,.492-2.277,3.612,3.612,0,0,1,1.395-1.547,3.914,3.914,0,0,1,2.059-.543,3.508,3.508,0,0,1,2.73,1.094,4.444,4.444,0,0,1,1,3.1v.922h-5.383a2.1,2.1,0,0,0,.66,1.328,2,2,0,0,0,1.395.5,2.437,2.437,0,0,0,2.039-.945l1.109,1.242a3.389,3.389,0,0,1-1.375,1.121A4.511,4.511,0,0,1,176.734,37.156Zm-.258-6.945a1.411,1.411,0,0,0-1.09.455,2.357,2.357,0,0,0-.535,1.3h3.141v-.181a1.681,1.681,0,0,0-.406-1.165A1.456,1.456,0,0,0,176.477,30.211Zm9.766.453a6.134,6.134,0,0,0-.812-.062,1.654,1.654,0,0,0-1.68.867V37h-2.258V28.547h2.133l.063,1.008a2.092,2.092,0,0,1,1.883-1.164,2.366,2.366,0,0,1,.7.1Zm5.836,0a6.134,6.134,0,0,0-.812-.062,1.654,1.654,0,0,0-1.68.867V37h-2.258V28.547h2.133l.063,1.008a2.092,2.092,0,0,1,1.883-1.164,2.366,2.366,0,0,1,.7.1Zm.453,2.031a5.013,5.013,0,0,1,.484-2.242,3.546,3.546,0,0,1,1.395-1.523,4.069,4.069,0,0,1,2.113-.539,3.849,3.849,0,0,1,2.793,1.047,4.2,4.2,0,0,1,1.207,2.844l.016.578a4.418,4.418,0,0,1-1.086,3.121,4.209,4.209,0,0,1-5.832,0,4.5,4.5,0,0,1-1.09-3.187Zm2.258.16a3.16,3.16,0,0,0,.453,1.843,1.628,1.628,0,0,0,2.578.008,3.457,3.457,0,0,0,.461-2.015,3.128,3.128,0,0,0-.461-1.831,1.5,1.5,0,0,0-1.3-.649,1.474,1.474,0,0,0-1.281.646A3.516,3.516,0,0,0,194.789,32.856Zm11.891-2.192a6.134,6.134,0,0,0-.812-.062,1.654,1.654,0,0,0-1.68.867V37H201.93V28.547h2.133l.063,1.008a2.092,2.092,0,0,1,1.883-1.164,2.366,2.366,0,0,1,.7.1Zm4.977,6.492a4.15,4.15,0,0,1-3.027-1.141,4.054,4.054,0,0,1-1.168-3.039v-.219a5.106,5.106,0,0,1,.492-2.277,3.612,3.612,0,0,1,1.395-1.547,3.914,3.914,0,0,1,2.059-.543,3.508,3.508,0,0,1,2.73,1.094,4.444,4.444,0,0,1,1,3.1v.922H209.75a2.1,2.1,0,0,0,.66,1.328,2,2,0,0,0,1.395.5,2.437,2.437,0,0,0,2.039-.945l1.109,1.242a3.389,3.389,0,0,1-1.375,1.121A4.511,4.511,0,0,1,211.656,37.156Zm-.258-6.945a1.411,1.411,0,0,0-1.09.455,2.357,2.357,0,0,0-.535,1.3h3.141v-.181a1.681,1.681,0,0,0-.406-1.165A1.456,1.456,0,0,0,211.4,30.211Zm9.594,4.453a.727.727,0,0,0-.41-.652,4.659,4.659,0,0,0-1.316-.426q-3.016-.633-3.016-2.562a2.323,2.323,0,0,1,.934-1.879,3.766,3.766,0,0,1,2.441-.754,4.053,4.053,0,0,1,2.574.758,2.388,2.388,0,0,1,.965,1.969h-2.258a1.092,1.092,0,0,0-.312-.8,1.322,1.322,0,0,0-.977-.316,1.351,1.351,0,0,0-.883.258.814.814,0,0,0-.312.656.7.7,0,0,0,.355.605,3.657,3.657,0,0,0,1.2.4,9.8,9.8,0,0,1,1.422.379,2.336,2.336,0,0,1,1.789,2.273,2.205,2.205,0,0,1-.992,1.871,4.28,4.28,0,0,1-2.562.715,4.47,4.47,0,0,1-1.887-.379,3.166,3.166,0,0,1-1.293-1.039,2.414,2.414,0,0,1-.469-1.426h2.141a1.179,1.179,0,0,0,.445.922,1.766,1.766,0,0,0,1.109.32,1.635,1.635,0,0,0,.98-.246A.766.766,0,0,0,220.992,34.664Z" transform="translate(987 1634.151)" fill="#4880a1"/>
      <g id="Grupo_148079" data-name="Grupo 148079">
        <ellipse id="Elipse_5496" data-name="Elipse 5496" cx="75.395" cy="75.394" rx="75.395" ry="75.394" transform="translate(716 1472)" fill="#fff"/>
        <path id="Trazado_191057" data-name="Trazado 191057" d="M-506.077,157.363a78.3,78.3,0,0,1-78.21-78.208A78.3,78.3,0,0,1-506.077.946a78.3,78.3,0,0,1,78.209,78.208A78.3,78.3,0,0,1-506.077,157.363Zm0-150.84a72.715,72.715,0,0,0-72.632,72.632,72.714,72.714,0,0,0,72.632,72.632,72.714,72.714,0,0,0,72.632-72.632A72.714,72.714,0,0,0-506.077,6.523Z" transform="translate(1297.287 1468.054)" fill="#9eb7e5"/>
        <g id="Grupo_147153" data-name="Grupo 147153" transform="translate(749.338 1485.857)">
          <path id="Trazado_37289" data-name="Trazado 37289" d="M-101.807,141.8l-6.339-22.88a.778.778,0,0,0-.953-.541.774.774,0,0,0-.54.953l1.7,6.149h-15.437l-1.818-6.562a.778.778,0,0,0-.953-.541.775.775,0,0,0-.541.953l6.339,22.88a.775.775,0,0,0,.746.569.792.792,0,0,0,.207-.028.775.775,0,0,0,.541-.953l-1.395-5.036h15.436l1.51,5.448a.775.775,0,0,0,.746.569.8.8,0,0,0,.207-.028A.774.774,0,0,0-101.807,141.8Zm-18.87-6.585-2.267-8.184h15.437l2.267,8.184Z" transform="translate(144.294 -23.982)" fill="#1e4e90"/>
          <path id="Trazado_37290" data-name="Trazado 37290" d="M-107.341,117.708h-33.453a1.1,1.1,0,0,0-1.094,1.093,1.1,1.1,0,0,0,1.094,1.093h1.054l-6.064,21.887a.774.774,0,0,0,.54.953.8.8,0,0,0,.207.028.775.775,0,0,0,.746-.569l1.51-5.448h15.436l-1.395,5.036a.775.775,0,0,0,.54.953.805.805,0,0,0,.208.028.775.775,0,0,0,.746-.569l6.178-22.3h13.746a1.1,1.1,0,0,0,1.093-1.093A1.1,1.1,0,0,0-107.341,117.708ZM-126.934,135.2h-15.437l2.267-8.184h15.437Zm2.7-9.733h-15.437l1.543-5.569h15.437Z" transform="translate(145.832 -23.964)" fill="#5373ac"/>
          <path id="Trazado_37291" data-name="Trazado 37291" d="M-65.845,143.064H-92.459a35.565,35.565,0,0,1,5.75-5.64,15.475,15.475,0,0,1,5.229-3.1,8.845,8.845,0,0,1,2.432-.34,8.929,8.929,0,0,1,1.109.069,13.526,13.526,0,0,1,5.663,2.286A22.379,22.379,0,0,1-65.845,143.064Z" transform="translate(140.332 -24.411)" fill="#26376e"/>
          <path id="Trazado_37292" data-name="Trazado 37292" d="M-57.834,132.655H-99.145a1.747,1.747,0,0,0-1.742,1.742,1.747,1.747,0,0,0,1.742,1.742h.741v6.889h39.829v-6.889h.741a1.747,1.747,0,0,0,1.742-1.742A1.747,1.747,0,0,0-57.834,132.655Z" transform="translate(140.185 -24.375)" fill="#bed8f1" style="mix-blend-mode: multiply;isolation: isolate"/>
          <path id="Trazado_37293" data-name="Trazado 37293" d="M-129.91,90.386h-2.3q.581-7.425,1.162-14.86Q-130.48,82.951-129.91,90.386Z" transform="translate(145.842 -22.087)" fill="#26376e"/>
          <path id="Trazado_37294" data-name="Trazado 37294" d="M-122.2,32.969a6.182,6.182,0,0,0-.922-.6,6.929,6.929,0,0,0-1.559-.589c-1.1-.016-2.191-.022-3.283-.038a11.712,11.712,0,0,0-3.673,3.549A13.4,13.4,0,0,0-132.707,47.4c-.194-.046-.387-.1-.588-.162a9.1,9.1,0,0,1-2.131-.969c-4.563-3.061,3.215-22.639,6.973-25.421a5.833,5.833,0,0,1,1.8-.875,5.525,5.525,0,0,1,4.153.635C-120.094,22.222-121.1,27.615-122.2,32.969Z" transform="translate(145.815 -19.812)" fill="#26376e"/>
          <path id="Trazado_37295" data-name="Trazado 37295" d="M-104.912,46.988a20.776,20.776,0,0,1-6.462,1.332,11.433,11.433,0,0,1-5.044-.535,7.453,7.453,0,0,1-2.689-1.914c-.038.806-.077,1.612-.116,2.41,0,0-.008.326-.016.883a17.127,17.127,0,0,0,2.053-.2c.178,1.147.349,2.3.519,3.455a19.583,19.583,0,0,1-2.17.5c-.108.016-.217.031-.325.054.016.162.022.364.038.6.264,4.091,1.589,18.711,3.526,38.259h-14.311q-.617-8.3-1.239-16.605-.627,8.3-1.264,16.605h-3.43c.155-2.092.317-4.192.48-6.284.085-1.2.155-2.146.194-2.658,0,0,1.526-20.679,3.207-26.366.031-.1.155-.518.295-1.1a21.113,21.113,0,0,0,.534-3.549c.016-.232.031-.465.031-.69.008-.2.016-.4.016-.6,0-.139-.008-.279-.008-.41-.1-.109-.194-.217-.287-.326a8.846,8.846,0,0,1-1.3-2.123,13.4,13.4,0,0,1,1.069-12.109,11.744,11.744,0,0,1,3.665-3.546c1.1.013,2.192.019,3.292.035a6.93,6.93,0,0,1,1.559.589,6.184,6.184,0,0,1,.922.6,10.9,10.9,0,0,1,2.565,3.339c2.339,4.014,3.509,6.02,5.183,6.834a10.031,10.031,0,0,0,4.354.674,16.831,16.831,0,0,0,4.037-.426C-105.663,44.811-105.283,45.9-104.912,46.988Z" transform="translate(145.059 -20.602)" fill="#afe1e1"/>
          <path id="Trazado_37296" data-name="Trazado 37296" d="M-112.786,116.848a.267.267,0,0,1-.241.187h-6.685a1,1,0,0,1-.233-.24,1.392,1.392,0,0,1-.15-.915v-.138c.016-.2.01-.412.018-.621,0-.426,0-.836-.023-1.231a.051.051,0,0,0,.016-.062,39.841,39.841,0,0,0-1.379-7.817,93.189,93.189,0,0,1-2.139-9.143c-.108-.744-.194-1.96-.248-3.339h5.649c.147,8.251.34,18.176.5,19.338a3.874,3.874,0,0,0,.155.643,2.679,2.679,0,0,0,.961,1.488,7.239,7.239,0,0,0,.836.364c.388.163.635.24.938.365a.348.348,0,0,1,.041.017c.039.016.091.037.145.06.5.225,1.063.465,1.706.783A.235.235,0,0,1-112.786,116.848Z" transform="translate(144.596 -22.821)" fill="#f9978a"/>
          <path id="Trazado_37297" data-name="Trazado 37297" d="M-126.386,116.783a.231.231,0,0,1-.225.187H-133.3a.255.255,0,0,1-.162-.07,1.258,1.258,0,0,1-.07-.163,1.785,1.785,0,0,1-.07-1.068c.039-.287.106-.6.168-.969.03-.24.069-.6.1-1.046a40.192,40.192,0,0,0-.217-7.933c-.488-4.68-.767-7.012-.767-9.352,0-.651.016-1.7.047-2.913l1.9,0c.031-.449.069-.9.1-1.346.03-.434.069-.868.1-1.3h2.1c.039.434.07.868.1,1.3.03.449.071.9.1,1.346l.828,0c-1.008,9.77-1.65,18.377-1.736,18.9a4.29,4.29,0,0,0-.054.705,3.554,3.554,0,0,0,.248,1.34,1.1,1.1,0,0,0,.3.38,5.283,5.283,0,0,0,.934.518c.279.14.522.186.94.365.543.232,1.182.5,1.9.85A.232.232,0,0,1-126.386,116.783Z" transform="translate(145.852 -22.736)" fill="#f9978a"/>
          <path id="Trazado_37298" data-name="Trazado 37298" d="M-126.483,117.22a.229.229,0,0,1,.116.265.23.23,0,0,1-.225.187h-6.686a.257.257,0,0,1-.162-.07,1.088,1.088,0,0,1-.07-.163,1.77,1.77,0,0,1-.07-1.068h5.2C-127.844,116.6-127.2,116.876-126.483,117.22Z" transform="translate(145.803 -23.516)" fill="#26376e"/>
          <path id="Trazado_37299" data-name="Trazado 37299" d="M-112.68,117.475a.265.265,0,0,1-.241.187h-6.685a.983.983,0,0,1-.233-.24,1.426,1.426,0,0,1-.15-.915v-.138h5.327c.533.235,1.153.5,1.851.843A.233.233,0,0,1-112.68,117.475Z" transform="translate(144.34 -23.515)" fill="#26376e"/>
          <path id="Trazado_37300" data-name="Trazado 37300" d="M-122.13,39.658q-.674.349-5.594-7.574c1.1.013,2.192.019,3.292.035Q-121.514,39.337-122.13,39.658Z" transform="translate(145.234 -20.444)" fill="#fff"/>
          <path id="Trazado_37301" data-name="Trazado 37301" d="M-124.467,31.836c0-.552-.013-1.107-.018-1.659a1.553,1.553,0,0,0,.649,0c1.478-.321,2.267-3.082,2.094-5.157a6.84,6.84,0,0,0-1.167-3.245c-.472.518-1,1.056-1.6,1.6a23.633,23.633,0,0,1-3.206,2.445.808.808,0,0,0-.957-.159.855.855,0,0,0-.289,1.01,1.114,1.114,0,0,0,1.247.633,5.74,5.74,0,0,1,.418,2.711,5.671,5.671,0,0,1-.465,1.786,2.626,2.626,0,0,0,1.805.616A2.606,2.606,0,0,0-124.467,31.836Z" transform="translate(145.308 -19.866)" fill="#f9978a"/>
          <path id="Trazado_37302" data-name="Trazado 37302" d="M-104.888,47.094a.326.326,0,0,1-.46.018.325.325,0,0,1-.018-.459.325.325,0,0,1,.459-.019A.326.326,0,0,1-104.888,47.094Z" transform="translate(143.086 -20.959)" fill="#fff"/>
          <path id="Trazado_37303" data-name="Trazado 37303" d="M-106.4,47.509a.325.325,0,0,1-.459.019.326.326,0,0,1-.019-.46.326.326,0,0,1,.46-.018A.325.325,0,0,1-106.4,47.509Z" transform="translate(143.247 -20.975)" fill="#fff"/>
          <path id="Trazado_37304" data-name="Trazado 37304" d="M-118.988,54.092a15.224,15.224,0,0,1-7.112-.131,15.033,15.033,0,0,1-4.866-2.255c.016-.34.016-.682.008-1.007a5.406,5.406,0,0,0,.566.549c1.735,1.5,3.788,1.86,5.757,2.193a17.294,17.294,0,0,0,5.61.047C-119.01,53.651-119,53.852-118.988,54.092Z" transform="translate(145.329 -21.121)" fill="#88c8c7"/>
          <path id="Trazado_37305" data-name="Trazado 37305" d="M-123.4,49.04a6.678,6.678,0,0,1-3.766-1.767,7.085,7.085,0,0,1-1.875-4.811c.062-.465.117-.93.178-1.395a10.459,10.459,0,0,0,3.432,6.625A10.188,10.188,0,0,0-123.4,49.04Z" transform="translate(145.375 -20.777)" fill="#88c8c7"/>
          <path id="Trazado_37306" data-name="Trazado 37306" d="M-116.8,52.655a.325.325,0,0,1-.459-.033.326.326,0,0,1,.033-.459.326.326,0,0,1,.459.033A.325.325,0,0,1-116.8,52.655Z" transform="translate(144.339 -21.162)" fill="#fff"/>
          <path id="Trazado_37307" data-name="Trazado 37307" d="M-118.345,52.895a.325.325,0,0,1-.459-.033.325.325,0,0,1,.033-.459.326.326,0,0,1,.459.033A.326.326,0,0,1-118.345,52.895Z" transform="translate(144.5 -21.17)" fill="#fff"/>
          <path id="Trazado_37308" data-name="Trazado 37308" d="M-80.525,74.546a2.724,2.724,0,0,1-1.893.776,2.725,2.725,0,0,1-1.894-.776c-1.009-1.1-.316-3.941,1.894-6.9C-80.209,70.606-79.516,73.448-80.525,74.546Z" transform="translate(140.701 -21.759)" fill="#84e8ed"/>
          <path id="Trazado_37309" data-name="Trazado 37309" d="M-124.737,33.6l-.279.566-.085.162-4.068,8.22-.364.736a1.329,1.329,0,0,1-1.154.76,1.076,1.076,0,0,1-.512-.108,1.274,1.274,0,0,1-.488-1.72l.682-1.379-8.708-4.307c-2.293-1.132-3.394-3.627-2.449-5.533s3.6-2.541,5.881-1.4l8.708,4.307.682-1.371a1.28,1.28,0,0,1,1.666-.658A1.278,1.278,0,0,1-124.737,33.6Z" transform="translate(146.356 -20.345)" fill="#417bff"/>
          <path id="Trazado_37310" data-name="Trazado 37310" d="M-84.436,59.543A2.361,2.361,0,0,1-87.6,60.612l-3.417-1.689a4.657,4.657,0,0,1-4.571.271l-29.753-14.736-2.851-1.41a3.831,3.831,0,0,1-.6-.349l4.068-8.22.053.023a6.277,6.277,0,0,1,.6.24l32.6,16.146a4.632,4.632,0,0,1,2.557,3.8l3.417,1.7A2.363,2.363,0,0,1-84.436,59.543Z" transform="translate(143.554 -20.578)" fill="#cae3f8" style="mix-blend-mode: multiply;isolation: isolate"/>
          <path id="Trazado_37311" data-name="Trazado 37311" d="M-84.162,59.749a2.361,2.361,0,0,1-3.161,1.069l-3.417-1.689a4.657,4.657,0,0,1-4.571.271l-23.468-11.624L-109.556,42l18.352,9.09a4.627,4.627,0,0,1,1.8,1.587,4.7,4.7,0,0,1,.759,2.21l3.417,1.7A2.363,2.363,0,0,1-84.162,59.749Z" transform="translate(142.891 -20.844)" fill="#84e8ed"/>
          <path id="Trazado_37312" data-name="Trazado 37312" d="M-106.208,43.455c.308-.549,1.371-.5,2.034-.242,1.036.4,1.854,1.6,1.549,2.179s-1.84.606-2.76-.1C-105.947,44.866-106.512,43.995-106.208,43.455Z" transform="translate(143.037 -20.836)" fill="#f9978a"/>
          <path id="Trazado_37313" data-name="Trazado 37313" d="M-117.1,50.143q.391.945.779,1.89a1.977,1.977,0,0,1,1.18-.123c.235.057.282.124.9.347a4.567,4.567,0,0,0,1.061.31,3.053,3.053,0,0,0,1.276-.255,7.757,7.757,0,0,0,1.043-.422l-3.138-1.527c.211-.044.379-.07.5-.087a1.149,1.149,0,0,0,.556-.195.339.339,0,0,0,.1-.272c-.029-.12-.189-.194-.458-.249a3.966,3.966,0,0,0-1.394,0c-.62.077-.933.117-1.035.138A6.774,6.774,0,0,0-117.1,50.143Z" transform="translate(144.076 -21.075)" fill="#f9978a"/>
        </g>
      </g>
      <g id="Grupo_148080" data-name="Grupo 148080">
        <ellipse id="Elipse_5497" data-name="Elipse 5497" cx="75.395" cy="75.394" rx="75.395" ry="75.394" transform="translate(1065.573 1473.353)" fill="#fff"/>
        <path id="Trazado_191058" data-name="Trazado 191058" d="M-506.077,157.363a78.3,78.3,0,0,1-78.21-78.208A78.3,78.3,0,0,1-506.077.946a78.3,78.3,0,0,1,78.209,78.208A78.3,78.3,0,0,1-506.077,157.363Zm0-150.84a72.715,72.715,0,0,0-72.632,72.632,72.714,72.714,0,0,0,72.632,72.632,72.714,72.714,0,0,0,72.632-72.632A72.714,72.714,0,0,0-506.077,6.523Z" transform="translate(1648.219 1468.111)" fill="#9eb7e5"/>
        <g id="Grupo_147154" data-name="Grupo 147154" transform="translate(65.479 -355.419)">
          <path id="Trazado_37349" data-name="Trazado 37349" d="M282.855,137.136l-5.991-21.623a.733.733,0,0,0-1.412.391l1.611,5.811H262.473l-1.719-6.2a.732.732,0,1,0-1.411.391l5.991,21.624a.734.734,0,0,0,.705.537.721.721,0,0,0,.2-.027.733.733,0,0,0,.511-.9l-1.319-4.758h14.589l1.427,5.15a.732.732,0,0,0,.705.537.714.714,0,0,0,.2-.027A.733.733,0,0,0,282.855,137.136Zm-17.833-6.222-2.144-7.734h14.589l2.143,7.734Z" transform="translate(792.491 1816.426)" fill="#1e4e90"/>
          <path id="Trazado_37350" data-name="Trazado 37350" d="M277.625,114.368H246.009a1.033,1.033,0,1,0,0,2.067h1l-5.731,20.684a.733.733,0,0,0,.511.9.72.72,0,0,0,.2.027.734.734,0,0,0,.705-.537l1.427-5.15H258.7l-1.319,4.758a.732.732,0,0,0,.511.9.713.713,0,0,0,.2.027.733.733,0,0,0,.705-.537l5.84-21.076h12.991a1.033,1.033,0,0,0,0-2.067ZM259.107,130.9H244.518l2.143-7.734H261.25Zm2.548-9.2H247.067l1.458-5.264h14.589Z" transform="translate(794.244 1816.443)" fill="#5373ac"/>
          <path id="Trazado_37351" data-name="Trazado 37351" d="M273.65,114.085a.218.218,0,0,1-.217.177h-6.319a.227.227,0,0,1-.228-.225v-3.525h2.424c-.037.762-.044,1,.1,1.282.256.476.739.622,1.442.893.257.1.558.2.888.343.519.212,1.127.471,1.8.8A.209.209,0,0,1,273.65,114.085Z" transform="translate(792.317 1816.741)" fill="#f9978a"/>
          <path id="Trazado_37352" data-name="Trazado 37352" d="M266.888,113.1v1.008a.231.231,0,0,0,.228.225h6.319a.222.222,0,0,0,.217-.177.218.218,0,0,0-.114-.254c-.681-.327-1.289-.586-1.8-.8Z" transform="translate(792.317 1816.663)" fill="#26376e"/>
          <path id="Trazado_37353" data-name="Trazado 37353" d="M258.593,114.085a.22.22,0,0,1-.218.177h-6.319a.227.227,0,0,1-.228-.225v-3.517c.805,0,1.618-.008,2.424-.008-.036.762-.044,1,.1,1.282.257.476.74.622,1.442.893.257.1.558.2.888.343.52.212,1.127.471,1.8.8A.21.21,0,0,1,258.593,114.085Z" transform="translate(794.184 1816.741)" fill="#f9978a"/>
          <path id="Trazado_37354" data-name="Trazado 37354" d="M251.83,113.1v1.008a.231.231,0,0,0,.228.225h6.319a.223.223,0,0,0,.218-.177.219.219,0,0,0-.115-.254c-.681-.327-1.289-.586-1.8-.8Z" transform="translate(794.184 1816.663)" fill="#26376e"/>
          <path id="Trazado_37355" data-name="Trazado 37355" d="M256.764,90.11q-.34,3.778-.622,7.681-.449,6.206-.732,12.162h-1.193c-.805,0-1.618.008-2.424.008h-1.017q-.133-9.907-.264-19.814C252.6,90.132,254.677,90.125,256.764,90.11Z" transform="translate(794.368 1817.394)" fill="#26376e"/>
          <path id="Trazado_37356" data-name="Trazado 37356" d="M270.069,109.951h-4.554q-.979-6.007-2.08-12.155-.7-3.9-1.435-7.717l6.561-.044Q269.318,100,270.069,109.951Z" transform="translate(792.867 1817.397)" fill="#26376e"/>
          <path id="Trazado_37357" data-name="Trazado 37357" d="M266.375,51.938c-.637-.4-1.23-.813-1.772-1.216.424,5.77.988,11.767,1.713,17.954.813,6.9,1.772,13.51,2.827,19.822l-20.627.131q.67-16.717,1.347-33.434,2.231-9.939,4.459-19.872c.732-.344,1.465-.7,2.2-1.04.988.1,1.969.212,2.958.315a3.673,3.673,0,0,1,1.238.373,5.232,5.232,0,0,1,2.109,1.808c1.911,2.658.542,6.619,2.907,9.717a13.33,13.33,0,0,0,2.658,2.087,37.972,37.972,0,0,0,6.224,3.536c-.96.8-1.911,1.589-2.871,2.38A25.313,25.313,0,0,1,266.375,51.938Z" transform="translate(793.786 1819.393)" fill="#afe1e1"/>
          <path id="Trazado_37358" data-name="Trazado 37358" d="M260.567,42.485q-.681.2-3.822-8.2c.988.1,1.969.212,2.958.315Q261.208,42.309,260.567,42.485Z" transform="translate(793.689 1819.531)" fill="#fff"/>
          <path id="Trazado_37359" data-name="Trazado 37359" d="M274.782,53.573a.307.307,0,1,0-.123-.417A.307.307,0,0,0,274.782,53.573Z" transform="translate(791.648 1818.863)" fill="#fff"/>
          <path id="Trazado_37360" data-name="Trazado 37360" d="M276.258,53.487a.307.307,0,1,0-.123-.417A.308.308,0,0,0,276.258,53.487Z" transform="translate(791.469 1818.866)" fill="#fff"/>
          <path id="Trazado_37361" data-name="Trazado 37361" d="M259.738,33.947c-.008.2-.021.4-.037.608a3.6,3.6,0,0,1-2.958-.315c-.022-.527-.045-1.054-.059-1.582a.282.282,0,0,0,.022.03,4.7,4.7,0,0,0,2.878,1.252A1.011,1.011,0,0,0,259.738,33.947Z" transform="translate(793.736 1819.604)" fill="#f9978a"/>
          <path id="Trazado_37362" data-name="Trazado 37362" d="M256.219,27.946a1.056,1.056,0,0,0,1.275.338c.923,1.153,1.549,1.365,1.976,1.286.687-.127.948-.986,1.9-1.163a2.118,2.118,0,0,1,1.079.11c.009.037.011.085.02.13-.035-.762-.1-1.852-.272-3.133-.111-.808-.191-1.366-.269-1.756-1.351.665-3.3-.832-4.3-.021-.424.338-.732,1.159-.219,3.2a.835.835,0,0,0-1.136-.11A.866.866,0,0,0,256.219,27.946Z" transform="translate(793.676 1820.139)" fill="#f9978a"/>
          <path id="Trazado_37363" data-name="Trazado 37363" d="M262.592,30.3c.037,1.347.052,2.028-.278,2.49a3.013,3.013,0,0,1-2.621.842,1.011,1.011,0,0,1-.154-.008,4.7,4.7,0,0,1-2.878-1.252.281.281,0,0,1-.022-.03c-.681-.7-.893-1.53-1.252-3.082a12.243,12.243,0,0,1-.315-3.559c.081-1.428.118-2.131.585-2.8a4.585,4.585,0,0,1,3.062-1.575c.417-.1,3.507-.8,4.078.315a1.72,1.72,0,0,1-.644,1.889,1.563,1.563,0,0,1-.249.161c-1.347.667-3.3-.834-4.3-.021-.424.337-.731,1.164-.219,3.2a.839.839,0,0,0-1.136-.11.864.864,0,0,0-.06,1.118,1.053,1.053,0,0,0,1.275.338c.923,1.157,1.544,1.359,1.976,1.286.689-.132.945-.988,1.9-1.163a2.045,2.045,0,0,1,1.079.11.713.713,0,0,1,.02.13A10.99,10.99,0,0,1,262.592,30.3Z" transform="translate(793.74 1820.207)" fill="#26376e"/>
          <path id="Trazado_37364" data-name="Trazado 37364" d="M253.67,48.765c0,1.076.022,2.138.058,3.171a2.72,2.72,0,0,1-.2-.2.03.03,0,0,1-.021-.029.491.491,0,0,1-.059-.073c-1.215-1.809-1.362-4.218.234-8.538.052-.073.089-.11.1-.11C253.7,44.84,253.656,46.765,253.67,48.765Z" transform="translate(794.317 1819.208)" fill="#88c8c7"/>
          <path id="Trazado_37365" data-name="Trazado 37365" d="M291.368,47.726a5.579,5.579,0,0,1-.754.39L250.041,65.453a5.639,5.639,0,0,1-7.381-2.965,5.547,5.547,0,0,1-.337-3.3,5.633,5.633,0,0,1,3.3-4.077l3.09-1.319,4.694-2.005,32.789-14.008A5.453,5.453,0,0,1,287,37.5l2.877,6.729Z" transform="translate(793.541 1819.359)" fill="#cae3f8" style="mix-blend-mode: multiply;isolation: isolate"/>
          <path id="Trazado_37366" data-name="Trazado 37366" d="M296.742,45.629a5,5,0,0,0-3.123-1.443A22.506,22.506,0,0,0,282.86,45.37c-11.815,4.979-17.791,9.3-25.812,11.964a41.987,41.987,0,0,1-14.725,2.03,5.547,5.547,0,0,0,.337,3.3,5.639,5.639,0,0,0,7.381,2.965Q270.7,56.769,291.368,47.9l2.691-1.128.186.455c.059.178.15.463.249.816.272.967.232,1.115.412,1.373a1.645,1.645,0,0,0,1.533.663,1.763,1.763,0,0,0,1.18-.866C298.234,48.137,297.569,46.54,296.742,45.629Z" transform="translate(793.199 1819.132)" fill="#84e8ed"/>
          <path id="Trazado_37367" data-name="Trazado 37367" d="M265.248,59.754a2.8,2.8,0,0,1-.755,1.406,3.087,3.087,0,0,1-3.25.519c-.388-.176-.886-.762-2.021-1.508.5-.673,1-1.355,1.494-2.028,1.713.907,3.192-.213,3.9.5a.358.358,0,0,1,.139.293c-.066.447-1.45.491-1.45.747,0,.161.6.359,1.164.307A2.066,2.066,0,0,0,265.248,59.754Z" transform="translate(793.299 1818.665)" fill="#f9978a"/>
          <path id="Trazado_37368" data-name="Trazado 37368" d="M256.5,34.284l-2.49,7.41c-.161.4-.315.791-.454,1.164-1.6,4.32-1.449,6.729-.234,8.538a.493.493,0,0,0,.059.073.03.03,0,0,0,.021.029,1.823,1.823,0,0,0,.154.2L248.865,53.7c-2.467-3.808.161-16.131,3.954-18.173A12.014,12.014,0,0,1,256.5,34.284Z" transform="translate(794.6 1819.507)" fill="#afe1e1"/>
          <path id="Trazado_37369" data-name="Trazado 37369" d="M260.667,57.664c-.074.1-.155.212-.234.315-.491.673-1,1.355-1.494,2.028-.11.147-.22.3-.33.447-1.948-.967-8.457-4.409-9.673-6.2l-.044-.066,4.694-2.005C255.013,54.069,257.65,55.351,260.667,57.664Z" transform="translate(794.349 1818.869)" fill="#afe1e1"/>
          <path id="Trazado_37370" data-name="Trazado 37370" d="M257,59.173a.307.307,0,1,0,.1-.424A.307.307,0,0,0,257,59.173Z" transform="translate(793.802 1818.654)" fill="#fff"/>
          <path id="Trazado_37371" data-name="Trazado 37371" d="M258.33,59.816a.307.307,0,1,0,.1-.424A.307.307,0,0,0,258.33,59.816Z" transform="translate(793.64 1818.631)" fill="#fff"/>
          <path id="Trazado_37372" data-name="Trazado 37372" d="M274.421,55.47c-.368-.459.063-1.615.858-2.127,1.3-.835,3.15.32,3.145.971C278.418,55.184,275.07,56.278,274.421,55.47Z" transform="translate(791.525 1818.854)" fill="#f9978a"/>
          <path id="Trazado_37373" data-name="Trazado 37373" d="M294.693,48.787a1.466,1.466,0,0,1-1.915-.769L288.1,37.067a1.459,1.459,0,1,1,2.683-1.147l4.68,10.951A1.467,1.467,0,0,1,294.693,48.787Z" transform="translate(789.658 1819.491)" fill="#afe1e1" style="mix-blend-mode: multiply;isolation: isolate"/>
          <path id="Trazado_37374" data-name="Trazado 37374" d="M332.932,126.633,314.191,90.547q-.058-13.989-.116-27.977h-20.5q-.057,14.177-.116,28.354L275,126.633a7.837,7.837,0,0,0,1.668,7.45,8.826,8.826,0,0,0,6.505,2.537H324.76a8.823,8.823,0,0,0,6.5-2.537A7.834,7.834,0,0,0,332.932,126.633Z" transform="translate(788.269 1818.024)" fill="#cae3f8"/>
          <path id="Trazado_37375" data-name="Trazado 37375" d="M297.621,105.141a25.2,25.2,0,0,0-10.812-.2L275,127.783a7.837,7.837,0,0,0,1.668,7.45,8.83,8.83,0,0,0,6.505,2.537H324.76a8.827,8.827,0,0,0,6.5-2.537,7.834,7.834,0,0,0,1.668-7.45l-10.866-21.017c-3.763,3.505-6.887,4.235-8.931,4.32C307.539,111.319,304.873,106.937,297.621,105.141Z" transform="translate(788.269 1816.736)" fill="#84e8ed"/>
          <path id="Trazado_37376" data-name="Trazado 37376" d="M315.965,62.451H292.849a2.108,2.108,0,1,1,0-4.215h23.117a2.108,2.108,0,1,1,0,4.215Z" transform="translate(788.163 1818.66)" fill="#bed8f1"/>
          <path id="Trazado_37377" data-name="Trazado 37377" d="M303.462,73.592a2.547,2.547,0,0,1-3.578,0c-.954-1.037-.3-3.724,1.788-6.516C303.76,69.868,304.415,72.555,303.462,73.592Z" transform="translate(788.412 1818.322)" fill="#66b9bd"/>
          <path id="Trazado_37378" data-name="Trazado 37378" d="M307.03,95.433a3.3,3.3,0,0,1-4.638,0c-1.235-1.344-.387-4.827,2.319-8.446C307.418,90.606,308.266,94.089,307.03,95.433Z" transform="translate(788.043 1817.575)" fill="#66b9bd"/>
          <path id="Trazado_37379" data-name="Trazado 37379" d="M322.568,126.893a3.04,3.04,0,1,0,3.04-3.04A3.04,3.04,0,0,0,322.568,126.893Z" transform="translate(785.459 1816.233)" fill="#66b9bd"/>
          <path id="Trazado_37380" data-name="Trazado 37380" d="M309.8,116.5a1.553,1.553,0,1,0,1.552-1.552A1.553,1.553,0,0,0,309.8,116.5Z" transform="translate(787.216 1816.583)" fill="#66b9bd"/>
          <ellipse id="Elipse_834" data-name="Elipse 834" cx="1.305" cy="1.305" rx="1.305" ry="1.305" transform="translate(1071.767 1945.418)" fill="#66b9bd"/>
          <ellipse id="Elipse_835" data-name="Elipse 835" cx="2.284" cy="2.284" rx="2.284" ry="2.284" transform="translate(1090.45 1946.2)" fill="#66b9bd"/>
          <path id="Trazado_37381" data-name="Trazado 37381" d="M288.393,120.87a3.9,3.9,0,1,0,3.9-3.9A3.9,3.9,0,0,0,288.393,120.87Z" transform="translate(789.596 1816.476)" fill="#66b9bd"/>
          <path id="Trazado_37382" data-name="Trazado 37382" d="M297.386,53.2s1.878,46.185-3.755,59.327c0,0-4.039,15.2-13.1,16.048,0,0-25.578,9.861-12.436,10.236l18.024,2.253s7.134,4.881-4.13,4.13c0,0-13.893,3.754-.375,3.754,0,0,23.28,2.253,19.525-5.632,0,0-22.9-6.758-10.513-10.889C290.627,132.429,310.9,118.912,297.386,53.2Z" transform="translate(791.082 1817.857)" fill="#68d1d6"/>
        </g>
      </g>
    </g>
  </g>
</svg>
