<svg xmlns="http://www.w3.org/2000/svg" width="156.419" height="156.417" viewBox="0 0 156.419 156.417">
  <g id="Grupo_148079" data-name="Grupo 148079" transform="translate(-713 -1469)">
    <ellipse id="Elipse_5496" data-name="Elipse 5496" cx="75.395" cy="75.394" rx="75.395" ry="75.394" transform="translate(716 1472)" fill="#fff"/>
    <path id="Trazado_191057" data-name="Trazado 191057" d="M-506.077,157.363a78.3,78.3,0,0,1-78.21-78.208A78.3,78.3,0,0,1-506.077.946a78.3,78.3,0,0,1,78.209,78.208A78.3,78.3,0,0,1-506.077,157.363Zm0-150.84a72.715,72.715,0,0,0-72.632,72.632,72.714,72.714,0,0,0,72.632,72.632,72.714,72.714,0,0,0,72.632-72.632A72.714,72.714,0,0,0-506.077,6.523Z" transform="translate(1297.287 1468.054)" fill="#9eb7e5"/>
    <g id="Grupo_147153" data-name="Grupo 147153" transform="translate(749.338 1485.857)">
      <path id="Trazado_37289" data-name="Trazado 37289" d="M-101.807,141.8l-6.339-22.88a.778.778,0,0,0-.953-.541.774.774,0,0,0-.54.953l1.7,6.149h-15.437l-1.818-6.562a.778.778,0,0,0-.953-.541.775.775,0,0,0-.541.953l6.339,22.88a.775.775,0,0,0,.746.569.792.792,0,0,0,.207-.028.775.775,0,0,0,.541-.953l-1.395-5.036h15.436l1.51,5.448a.775.775,0,0,0,.746.569.8.8,0,0,0,.207-.028A.774.774,0,0,0-101.807,141.8Zm-18.87-6.585-2.267-8.184h15.437l2.267,8.184Z" transform="translate(144.294 -23.982)" fill="#1e4e90"/>
      <path id="Trazado_37290" data-name="Trazado 37290" d="M-107.341,117.708h-33.453a1.1,1.1,0,0,0-1.094,1.093,1.1,1.1,0,0,0,1.094,1.093h1.054l-6.064,21.887a.774.774,0,0,0,.54.953.8.8,0,0,0,.207.028.775.775,0,0,0,.746-.569l1.51-5.448h15.436l-1.395,5.036a.775.775,0,0,0,.54.953.805.805,0,0,0,.208.028.775.775,0,0,0,.746-.569l6.178-22.3h13.746a1.1,1.1,0,0,0,1.093-1.093A1.1,1.1,0,0,0-107.341,117.708ZM-126.934,135.2h-15.437l2.267-8.184h15.437Zm2.7-9.733h-15.437l1.543-5.569h15.437Z" transform="translate(145.832 -23.964)" fill="#5373ac"/>
      <path id="Trazado_37291" data-name="Trazado 37291" d="M-65.845,143.064H-92.459a35.565,35.565,0,0,1,5.75-5.64,15.475,15.475,0,0,1,5.229-3.1,8.845,8.845,0,0,1,2.432-.34,8.929,8.929,0,0,1,1.109.069,13.526,13.526,0,0,1,5.663,2.286A22.379,22.379,0,0,1-65.845,143.064Z" transform="translate(140.332 -24.411)" fill="#26376e"/>
      <path id="Trazado_37292" data-name="Trazado 37292" d="M-57.834,132.655H-99.145a1.747,1.747,0,0,0-1.742,1.742,1.747,1.747,0,0,0,1.742,1.742h.741v6.889h39.829v-6.889h.741a1.747,1.747,0,0,0,1.742-1.742A1.747,1.747,0,0,0-57.834,132.655Z" transform="translate(140.185 -24.375)" fill="#bed8f1" style="mix-blend-mode: multiply;isolation: isolate"/>
      <path id="Trazado_37293" data-name="Trazado 37293" d="M-129.91,90.386h-2.3q.581-7.425,1.162-14.86Q-130.48,82.951-129.91,90.386Z" transform="translate(145.842 -22.087)" fill="#26376e"/>
      <path id="Trazado_37294" data-name="Trazado 37294" d="M-122.2,32.969a6.182,6.182,0,0,0-.922-.6,6.929,6.929,0,0,0-1.559-.589c-1.1-.016-2.191-.022-3.283-.038a11.712,11.712,0,0,0-3.673,3.549A13.4,13.4,0,0,0-132.707,47.4c-.194-.046-.387-.1-.588-.162a9.1,9.1,0,0,1-2.131-.969c-4.563-3.061,3.215-22.639,6.973-25.421a5.833,5.833,0,0,1,1.8-.875,5.525,5.525,0,0,1,4.153.635C-120.094,22.222-121.1,27.615-122.2,32.969Z" transform="translate(145.815 -19.812)" fill="#26376e"/>
      <path id="Trazado_37295" data-name="Trazado 37295" d="M-104.912,46.988a20.776,20.776,0,0,1-6.462,1.332,11.433,11.433,0,0,1-5.044-.535,7.453,7.453,0,0,1-2.689-1.914c-.038.806-.077,1.612-.116,2.41,0,0-.008.326-.016.883a17.127,17.127,0,0,0,2.053-.2c.178,1.147.349,2.3.519,3.455a19.583,19.583,0,0,1-2.17.5c-.108.016-.217.031-.325.054.016.162.022.364.038.6.264,4.091,1.589,18.711,3.526,38.259h-14.311q-.617-8.3-1.239-16.605-.627,8.3-1.264,16.605h-3.43c.155-2.092.317-4.192.48-6.284.085-1.2.155-2.146.194-2.658,0,0,1.526-20.679,3.207-26.366.031-.1.155-.518.295-1.1a21.113,21.113,0,0,0,.534-3.549c.016-.232.031-.465.031-.69.008-.2.016-.4.016-.6,0-.139-.008-.279-.008-.41-.1-.109-.194-.217-.287-.326a8.846,8.846,0,0,1-1.3-2.123,13.4,13.4,0,0,1,1.069-12.109,11.744,11.744,0,0,1,3.665-3.546c1.1.013,2.192.019,3.292.035a6.93,6.93,0,0,1,1.559.589,6.184,6.184,0,0,1,.922.6,10.9,10.9,0,0,1,2.565,3.339c2.339,4.014,3.509,6.02,5.183,6.834a10.031,10.031,0,0,0,4.354.674,16.831,16.831,0,0,0,4.037-.426C-105.663,44.811-105.283,45.9-104.912,46.988Z" transform="translate(145.059 -20.602)" fill="#afe1e1"/>
      <path id="Trazado_37296" data-name="Trazado 37296" d="M-112.786,116.848a.267.267,0,0,1-.241.187h-6.685a1,1,0,0,1-.233-.24,1.392,1.392,0,0,1-.15-.915v-.138c.016-.2.01-.412.018-.621,0-.426,0-.836-.023-1.231a.051.051,0,0,0,.016-.062,39.841,39.841,0,0,0-1.379-7.817,93.189,93.189,0,0,1-2.139-9.143c-.108-.744-.194-1.96-.248-3.339h5.649c.147,8.251.34,18.176.5,19.338a3.874,3.874,0,0,0,.155.643,2.679,2.679,0,0,0,.961,1.488,7.239,7.239,0,0,0,.836.364c.388.163.635.24.938.365a.348.348,0,0,1,.041.017c.039.016.091.037.145.06.5.225,1.063.465,1.706.783A.235.235,0,0,1-112.786,116.848Z" transform="translate(144.596 -22.821)" fill="#f9978a"/>
      <path id="Trazado_37297" data-name="Trazado 37297" d="M-126.386,116.783a.231.231,0,0,1-.225.187H-133.3a.255.255,0,0,1-.162-.07,1.258,1.258,0,0,1-.07-.163,1.785,1.785,0,0,1-.07-1.068c.039-.287.106-.6.168-.969.03-.24.069-.6.1-1.046a40.192,40.192,0,0,0-.217-7.933c-.488-4.68-.767-7.012-.767-9.352,0-.651.016-1.7.047-2.913l1.9,0c.031-.449.069-.9.1-1.346.03-.434.069-.868.1-1.3h2.1c.039.434.07.868.1,1.3.03.449.071.9.1,1.346l.828,0c-1.008,9.77-1.65,18.377-1.736,18.9a4.29,4.29,0,0,0-.054.705,3.554,3.554,0,0,0,.248,1.34,1.1,1.1,0,0,0,.3.38,5.283,5.283,0,0,0,.934.518c.279.14.522.186.94.365.543.232,1.182.5,1.9.85A.232.232,0,0,1-126.386,116.783Z" transform="translate(145.852 -22.736)" fill="#f9978a"/>
      <path id="Trazado_37298" data-name="Trazado 37298" d="M-126.483,117.22a.229.229,0,0,1,.116.265.23.23,0,0,1-.225.187h-6.686a.257.257,0,0,1-.162-.07,1.088,1.088,0,0,1-.07-.163,1.77,1.77,0,0,1-.07-1.068h5.2C-127.844,116.6-127.2,116.876-126.483,117.22Z" transform="translate(145.803 -23.516)" fill="#26376e"/>
      <path id="Trazado_37299" data-name="Trazado 37299" d="M-112.68,117.475a.265.265,0,0,1-.241.187h-6.685a.983.983,0,0,1-.233-.24,1.426,1.426,0,0,1-.15-.915v-.138h5.327c.533.235,1.153.5,1.851.843A.233.233,0,0,1-112.68,117.475Z" transform="translate(144.34 -23.515)" fill="#26376e"/>
      <path id="Trazado_37300" data-name="Trazado 37300" d="M-122.13,39.658q-.674.349-5.594-7.574c1.1.013,2.192.019,3.292.035Q-121.514,39.337-122.13,39.658Z" transform="translate(145.234 -20.444)" fill="#fff"/>
      <path id="Trazado_37301" data-name="Trazado 37301" d="M-124.467,31.836c0-.552-.013-1.107-.018-1.659a1.553,1.553,0,0,0,.649,0c1.478-.321,2.267-3.082,2.094-5.157a6.84,6.84,0,0,0-1.167-3.245c-.472.518-1,1.056-1.6,1.6a23.633,23.633,0,0,1-3.206,2.445.808.808,0,0,0-.957-.159.855.855,0,0,0-.289,1.01,1.114,1.114,0,0,0,1.247.633,5.74,5.74,0,0,1,.418,2.711,5.671,5.671,0,0,1-.465,1.786,2.626,2.626,0,0,0,1.805.616A2.606,2.606,0,0,0-124.467,31.836Z" transform="translate(145.308 -19.866)" fill="#f9978a"/>
      <path id="Trazado_37302" data-name="Trazado 37302" d="M-104.888,47.094a.326.326,0,0,1-.46.018.325.325,0,0,1-.018-.459.325.325,0,0,1,.459-.019A.326.326,0,0,1-104.888,47.094Z" transform="translate(143.086 -20.959)" fill="#fff"/>
      <path id="Trazado_37303" data-name="Trazado 37303" d="M-106.4,47.509a.325.325,0,0,1-.459.019.326.326,0,0,1-.019-.46.326.326,0,0,1,.46-.018A.325.325,0,0,1-106.4,47.509Z" transform="translate(143.247 -20.975)" fill="#fff"/>
      <path id="Trazado_37304" data-name="Trazado 37304" d="M-118.988,54.092a15.224,15.224,0,0,1-7.112-.131,15.033,15.033,0,0,1-4.866-2.255c.016-.34.016-.682.008-1.007a5.406,5.406,0,0,0,.566.549c1.735,1.5,3.788,1.86,5.757,2.193a17.294,17.294,0,0,0,5.61.047C-119.01,53.651-119,53.852-118.988,54.092Z" transform="translate(145.329 -21.121)" fill="#88c8c7"/>
      <path id="Trazado_37305" data-name="Trazado 37305" d="M-123.4,49.04a6.678,6.678,0,0,1-3.766-1.767,7.085,7.085,0,0,1-1.875-4.811c.062-.465.117-.93.178-1.395a10.459,10.459,0,0,0,3.432,6.625A10.188,10.188,0,0,0-123.4,49.04Z" transform="translate(145.375 -20.777)" fill="#88c8c7"/>
      <path id="Trazado_37306" data-name="Trazado 37306" d="M-116.8,52.655a.325.325,0,0,1-.459-.033.326.326,0,0,1,.033-.459.326.326,0,0,1,.459.033A.325.325,0,0,1-116.8,52.655Z" transform="translate(144.339 -21.162)" fill="#fff"/>
      <path id="Trazado_37307" data-name="Trazado 37307" d="M-118.345,52.895a.325.325,0,0,1-.459-.033.325.325,0,0,1,.033-.459.326.326,0,0,1,.459.033A.326.326,0,0,1-118.345,52.895Z" transform="translate(144.5 -21.17)" fill="#fff"/>
      <path id="Trazado_37308" data-name="Trazado 37308" d="M-80.525,74.546a2.724,2.724,0,0,1-1.893.776,2.725,2.725,0,0,1-1.894-.776c-1.009-1.1-.316-3.941,1.894-6.9C-80.209,70.606-79.516,73.448-80.525,74.546Z" transform="translate(140.701 -21.759)" fill="#84e8ed"/>
      <path id="Trazado_37309" data-name="Trazado 37309" d="M-124.737,33.6l-.279.566-.085.162-4.068,8.22-.364.736a1.329,1.329,0,0,1-1.154.76,1.076,1.076,0,0,1-.512-.108,1.274,1.274,0,0,1-.488-1.72l.682-1.379-8.708-4.307c-2.293-1.132-3.394-3.627-2.449-5.533s3.6-2.541,5.881-1.4l8.708,4.307.682-1.371a1.28,1.28,0,0,1,1.666-.658A1.278,1.278,0,0,1-124.737,33.6Z" transform="translate(146.356 -20.345)" fill="#417bff"/>
      <path id="Trazado_37310" data-name="Trazado 37310" d="M-84.436,59.543A2.361,2.361,0,0,1-87.6,60.612l-3.417-1.689a4.657,4.657,0,0,1-4.571.271l-29.753-14.736-2.851-1.41a3.831,3.831,0,0,1-.6-.349l4.068-8.22.053.023a6.277,6.277,0,0,1,.6.24l32.6,16.146a4.632,4.632,0,0,1,2.557,3.8l3.417,1.7A2.363,2.363,0,0,1-84.436,59.543Z" transform="translate(143.554 -20.578)" fill="#cae3f8" style="mix-blend-mode: multiply;isolation: isolate"/>
      <path id="Trazado_37311" data-name="Trazado 37311" d="M-84.162,59.749a2.361,2.361,0,0,1-3.161,1.069l-3.417-1.689a4.657,4.657,0,0,1-4.571.271l-23.468-11.624L-109.556,42l18.352,9.09a4.627,4.627,0,0,1,1.8,1.587,4.7,4.7,0,0,1,.759,2.21l3.417,1.7A2.363,2.363,0,0,1-84.162,59.749Z" transform="translate(142.891 -20.844)" fill="#84e8ed"/>
      <path id="Trazado_37312" data-name="Trazado 37312" d="M-106.208,43.455c.308-.549,1.371-.5,2.034-.242,1.036.4,1.854,1.6,1.549,2.179s-1.84.606-2.76-.1C-105.947,44.866-106.512,43.995-106.208,43.455Z" transform="translate(143.037 -20.836)" fill="#f9978a"/>
      <path id="Trazado_37313" data-name="Trazado 37313" d="M-117.1,50.143q.391.945.779,1.89a1.977,1.977,0,0,1,1.18-.123c.235.057.282.124.9.347a4.567,4.567,0,0,0,1.061.31,3.053,3.053,0,0,0,1.276-.255,7.757,7.757,0,0,0,1.043-.422l-3.138-1.527c.211-.044.379-.07.5-.087a1.149,1.149,0,0,0,.556-.195.339.339,0,0,0,.1-.272c-.029-.12-.189-.194-.458-.249a3.966,3.966,0,0,0-1.394,0c-.62.077-.933.117-1.035.138A6.774,6.774,0,0,0-117.1,50.143Z" transform="translate(144.076 -21.075)" fill="#f9978a"/>
    </g>
  </g>
</svg>
