<svg xmlns="http://www.w3.org/2000/svg" width="156.419" height="156.417" viewBox="0 0 156.419 156.417">
  <g id="Grupo_148080" data-name="Grupo 148080" transform="translate(-1063.932 -1469.057)">
    <ellipse id="Elipse_5497" data-name="Elipse 5497" cx="75.395" cy="75.394" rx="75.395" ry="75.394" transform="translate(1065.573 1473.353)" fill="#fff"/>
    <path id="Trazado_191058" data-name="Trazado 191058" d="M-506.077,157.363a78.3,78.3,0,0,1-78.21-78.208A78.3,78.3,0,0,1-506.077.946a78.3,78.3,0,0,1,78.209,78.208A78.3,78.3,0,0,1-506.077,157.363Zm0-150.84a72.715,72.715,0,0,0-72.632,72.632,72.714,72.714,0,0,0,72.632,72.632,72.714,72.714,0,0,0,72.632-72.632A72.714,72.714,0,0,0-506.077,6.523Z" transform="translate(1648.219 1468.111)" fill="#9eb7e5"/>
    <g id="Grupo_147154" data-name="Grupo 147154" transform="translate(65.479 -355.419)">
      <path id="Trazado_37349" data-name="Trazado 37349" d="M282.855,137.136l-5.991-21.623a.733.733,0,0,0-1.412.391l1.611,5.811H262.473l-1.719-6.2a.732.732,0,1,0-1.411.391l5.991,21.624a.734.734,0,0,0,.705.537.721.721,0,0,0,.2-.027.733.733,0,0,0,.511-.9l-1.319-4.758h14.589l1.427,5.15a.732.732,0,0,0,.705.537.714.714,0,0,0,.2-.027A.733.733,0,0,0,282.855,137.136Zm-17.833-6.222-2.144-7.734h14.589l2.143,7.734Z" transform="translate(792.491 1816.426)" fill="#1e4e90"/>
      <path id="Trazado_37350" data-name="Trazado 37350" d="M277.625,114.368H246.009a1.033,1.033,0,1,0,0,2.067h1l-5.731,20.684a.733.733,0,0,0,.511.9.72.72,0,0,0,.2.027.734.734,0,0,0,.705-.537l1.427-5.15H258.7l-1.319,4.758a.732.732,0,0,0,.511.9.713.713,0,0,0,.2.027.733.733,0,0,0,.705-.537l5.84-21.076h12.991a1.033,1.033,0,0,0,0-2.067ZM259.107,130.9H244.518l2.143-7.734H261.25Zm2.548-9.2H247.067l1.458-5.264h14.589Z" transform="translate(794.244 1816.443)" fill="#5373ac"/>
      <path id="Trazado_37351" data-name="Trazado 37351" d="M273.65,114.085a.218.218,0,0,1-.217.177h-6.319a.227.227,0,0,1-.228-.225v-3.525h2.424c-.037.762-.044,1,.1,1.282.256.476.739.622,1.442.893.257.1.558.2.888.343.519.212,1.127.471,1.8.8A.209.209,0,0,1,273.65,114.085Z" transform="translate(792.317 1816.741)" fill="#f9978a"/>
      <path id="Trazado_37352" data-name="Trazado 37352" d="M266.888,113.1v1.008a.231.231,0,0,0,.228.225h6.319a.222.222,0,0,0,.217-.177.218.218,0,0,0-.114-.254c-.681-.327-1.289-.586-1.8-.8Z" transform="translate(792.317 1816.663)" fill="#26376e"/>
      <path id="Trazado_37353" data-name="Trazado 37353" d="M258.593,114.085a.22.22,0,0,1-.218.177h-6.319a.227.227,0,0,1-.228-.225v-3.517c.805,0,1.618-.008,2.424-.008-.036.762-.044,1,.1,1.282.257.476.74.622,1.442.893.257.1.558.2.888.343.52.212,1.127.471,1.8.8A.21.21,0,0,1,258.593,114.085Z" transform="translate(794.184 1816.741)" fill="#f9978a"/>
      <path id="Trazado_37354" data-name="Trazado 37354" d="M251.83,113.1v1.008a.231.231,0,0,0,.228.225h6.319a.223.223,0,0,0,.218-.177.219.219,0,0,0-.115-.254c-.681-.327-1.289-.586-1.8-.8Z" transform="translate(794.184 1816.663)" fill="#26376e"/>
      <path id="Trazado_37355" data-name="Trazado 37355" d="M256.764,90.11q-.34,3.778-.622,7.681-.449,6.206-.732,12.162h-1.193c-.805,0-1.618.008-2.424.008h-1.017q-.133-9.907-.264-19.814C252.6,90.132,254.677,90.125,256.764,90.11Z" transform="translate(794.368 1817.394)" fill="#26376e"/>
      <path id="Trazado_37356" data-name="Trazado 37356" d="M270.069,109.951h-4.554q-.979-6.007-2.08-12.155-.7-3.9-1.435-7.717l6.561-.044Q269.318,100,270.069,109.951Z" transform="translate(792.867 1817.397)" fill="#26376e"/>
      <path id="Trazado_37357" data-name="Trazado 37357" d="M266.375,51.938c-.637-.4-1.23-.813-1.772-1.216.424,5.77.988,11.767,1.713,17.954.813,6.9,1.772,13.51,2.827,19.822l-20.627.131q.67-16.717,1.347-33.434,2.231-9.939,4.459-19.872c.732-.344,1.465-.7,2.2-1.04.988.1,1.969.212,2.958.315a3.673,3.673,0,0,1,1.238.373,5.232,5.232,0,0,1,2.109,1.808c1.911,2.658.542,6.619,2.907,9.717a13.33,13.33,0,0,0,2.658,2.087,37.972,37.972,0,0,0,6.224,3.536c-.96.8-1.911,1.589-2.871,2.38A25.313,25.313,0,0,1,266.375,51.938Z" transform="translate(793.786 1819.393)" fill="#afe1e1"/>
      <path id="Trazado_37358" data-name="Trazado 37358" d="M260.567,42.485q-.681.2-3.822-8.2c.988.1,1.969.212,2.958.315Q261.208,42.309,260.567,42.485Z" transform="translate(793.689 1819.531)" fill="#fff"/>
      <path id="Trazado_37359" data-name="Trazado 37359" d="M274.782,53.573a.307.307,0,1,0-.123-.417A.307.307,0,0,0,274.782,53.573Z" transform="translate(791.648 1818.863)" fill="#fff"/>
      <path id="Trazado_37360" data-name="Trazado 37360" d="M276.258,53.487a.307.307,0,1,0-.123-.417A.308.308,0,0,0,276.258,53.487Z" transform="translate(791.469 1818.866)" fill="#fff"/>
      <path id="Trazado_37361" data-name="Trazado 37361" d="M259.738,33.947c-.008.2-.021.4-.037.608a3.6,3.6,0,0,1-2.958-.315c-.022-.527-.045-1.054-.059-1.582a.282.282,0,0,0,.022.03,4.7,4.7,0,0,0,2.878,1.252A1.011,1.011,0,0,0,259.738,33.947Z" transform="translate(793.736 1819.604)" fill="#f9978a"/>
      <path id="Trazado_37362" data-name="Trazado 37362" d="M256.219,27.946a1.056,1.056,0,0,0,1.275.338c.923,1.153,1.549,1.365,1.976,1.286.687-.127.948-.986,1.9-1.163a2.118,2.118,0,0,1,1.079.11c.009.037.011.085.02.13-.035-.762-.1-1.852-.272-3.133-.111-.808-.191-1.366-.269-1.756-1.351.665-3.3-.832-4.3-.021-.424.338-.732,1.159-.219,3.2a.835.835,0,0,0-1.136-.11A.866.866,0,0,0,256.219,27.946Z" transform="translate(793.676 1820.139)" fill="#f9978a"/>
      <path id="Trazado_37363" data-name="Trazado 37363" d="M262.592,30.3c.037,1.347.052,2.028-.278,2.49a3.013,3.013,0,0,1-2.621.842,1.011,1.011,0,0,1-.154-.008,4.7,4.7,0,0,1-2.878-1.252.281.281,0,0,1-.022-.03c-.681-.7-.893-1.53-1.252-3.082a12.243,12.243,0,0,1-.315-3.559c.081-1.428.118-2.131.585-2.8a4.585,4.585,0,0,1,3.062-1.575c.417-.1,3.507-.8,4.078.315a1.72,1.72,0,0,1-.644,1.889,1.563,1.563,0,0,1-.249.161c-1.347.667-3.3-.834-4.3-.021-.424.337-.731,1.164-.219,3.2a.839.839,0,0,0-1.136-.11.864.864,0,0,0-.06,1.118,1.053,1.053,0,0,0,1.275.338c.923,1.157,1.544,1.359,1.976,1.286.689-.132.945-.988,1.9-1.163a2.045,2.045,0,0,1,1.079.11.713.713,0,0,1,.02.13A10.99,10.99,0,0,1,262.592,30.3Z" transform="translate(793.74 1820.207)" fill="#26376e"/>
      <path id="Trazado_37364" data-name="Trazado 37364" d="M253.67,48.765c0,1.076.022,2.138.058,3.171a2.72,2.72,0,0,1-.2-.2.03.03,0,0,1-.021-.029.491.491,0,0,1-.059-.073c-1.215-1.809-1.362-4.218.234-8.538.052-.073.089-.11.1-.11C253.7,44.84,253.656,46.765,253.67,48.765Z" transform="translate(794.317 1819.208)" fill="#88c8c7"/>
      <path id="Trazado_37365" data-name="Trazado 37365" d="M291.368,47.726a5.579,5.579,0,0,1-.754.39L250.041,65.453a5.639,5.639,0,0,1-7.381-2.965,5.547,5.547,0,0,1-.337-3.3,5.633,5.633,0,0,1,3.3-4.077l3.09-1.319,4.694-2.005,32.789-14.008A5.453,5.453,0,0,1,287,37.5l2.877,6.729Z" transform="translate(793.541 1819.359)" fill="#cae3f8" style="mix-blend-mode: multiply;isolation: isolate"/>
      <path id="Trazado_37366" data-name="Trazado 37366" d="M296.742,45.629a5,5,0,0,0-3.123-1.443A22.506,22.506,0,0,0,282.86,45.37c-11.815,4.979-17.791,9.3-25.812,11.964a41.987,41.987,0,0,1-14.725,2.03,5.547,5.547,0,0,0,.337,3.3,5.639,5.639,0,0,0,7.381,2.965Q270.7,56.769,291.368,47.9l2.691-1.128.186.455c.059.178.15.463.249.816.272.967.232,1.115.412,1.373a1.645,1.645,0,0,0,1.533.663,1.763,1.763,0,0,0,1.18-.866C298.234,48.137,297.569,46.54,296.742,45.629Z" transform="translate(793.199 1819.132)" fill="#84e8ed"/>
      <path id="Trazado_37367" data-name="Trazado 37367" d="M265.248,59.754a2.8,2.8,0,0,1-.755,1.406,3.087,3.087,0,0,1-3.25.519c-.388-.176-.886-.762-2.021-1.508.5-.673,1-1.355,1.494-2.028,1.713.907,3.192-.213,3.9.5a.358.358,0,0,1,.139.293c-.066.447-1.45.491-1.45.747,0,.161.6.359,1.164.307A2.066,2.066,0,0,0,265.248,59.754Z" transform="translate(793.299 1818.665)" fill="#f9978a"/>
      <path id="Trazado_37368" data-name="Trazado 37368" d="M256.5,34.284l-2.49,7.41c-.161.4-.315.791-.454,1.164-1.6,4.32-1.449,6.729-.234,8.538a.493.493,0,0,0,.059.073.03.03,0,0,0,.021.029,1.823,1.823,0,0,0,.154.2L248.865,53.7c-2.467-3.808.161-16.131,3.954-18.173A12.014,12.014,0,0,1,256.5,34.284Z" transform="translate(794.6 1819.507)" fill="#afe1e1"/>
      <path id="Trazado_37369" data-name="Trazado 37369" d="M260.667,57.664c-.074.1-.155.212-.234.315-.491.673-1,1.355-1.494,2.028-.11.147-.22.3-.33.447-1.948-.967-8.457-4.409-9.673-6.2l-.044-.066,4.694-2.005C255.013,54.069,257.65,55.351,260.667,57.664Z" transform="translate(794.349 1818.869)" fill="#afe1e1"/>
      <path id="Trazado_37370" data-name="Trazado 37370" d="M257,59.173a.307.307,0,1,0,.1-.424A.307.307,0,0,0,257,59.173Z" transform="translate(793.802 1818.654)" fill="#fff"/>
      <path id="Trazado_37371" data-name="Trazado 37371" d="M258.33,59.816a.307.307,0,1,0,.1-.424A.307.307,0,0,0,258.33,59.816Z" transform="translate(793.64 1818.631)" fill="#fff"/>
      <path id="Trazado_37372" data-name="Trazado 37372" d="M274.421,55.47c-.368-.459.063-1.615.858-2.127,1.3-.835,3.15.32,3.145.971C278.418,55.184,275.07,56.278,274.421,55.47Z" transform="translate(791.525 1818.854)" fill="#f9978a"/>
      <path id="Trazado_37373" data-name="Trazado 37373" d="M294.693,48.787a1.466,1.466,0,0,1-1.915-.769L288.1,37.067a1.459,1.459,0,1,1,2.683-1.147l4.68,10.951A1.467,1.467,0,0,1,294.693,48.787Z" transform="translate(789.658 1819.491)" fill="#afe1e1" style="mix-blend-mode: multiply;isolation: isolate"/>
      <path id="Trazado_37374" data-name="Trazado 37374" d="M332.932,126.633,314.191,90.547q-.058-13.989-.116-27.977h-20.5q-.057,14.177-.116,28.354L275,126.633a7.837,7.837,0,0,0,1.668,7.45,8.826,8.826,0,0,0,6.505,2.537H324.76a8.823,8.823,0,0,0,6.5-2.537A7.834,7.834,0,0,0,332.932,126.633Z" transform="translate(788.269 1818.024)" fill="#cae3f8"/>
      <path id="Trazado_37375" data-name="Trazado 37375" d="M297.621,105.141a25.2,25.2,0,0,0-10.812-.2L275,127.783a7.837,7.837,0,0,0,1.668,7.45,8.83,8.83,0,0,0,6.505,2.537H324.76a8.827,8.827,0,0,0,6.5-2.537,7.834,7.834,0,0,0,1.668-7.45l-10.866-21.017c-3.763,3.505-6.887,4.235-8.931,4.32C307.539,111.319,304.873,106.937,297.621,105.141Z" transform="translate(788.269 1816.736)" fill="#84e8ed"/>
      <path id="Trazado_37376" data-name="Trazado 37376" d="M315.965,62.451H292.849a2.108,2.108,0,1,1,0-4.215h23.117a2.108,2.108,0,1,1,0,4.215Z" transform="translate(788.163 1818.66)" fill="#bed8f1"/>
      <path id="Trazado_37377" data-name="Trazado 37377" d="M303.462,73.592a2.547,2.547,0,0,1-3.578,0c-.954-1.037-.3-3.724,1.788-6.516C303.76,69.868,304.415,72.555,303.462,73.592Z" transform="translate(788.412 1818.322)" fill="#66b9bd"/>
      <path id="Trazado_37378" data-name="Trazado 37378" d="M307.03,95.433a3.3,3.3,0,0,1-4.638,0c-1.235-1.344-.387-4.827,2.319-8.446C307.418,90.606,308.266,94.089,307.03,95.433Z" transform="translate(788.043 1817.575)" fill="#66b9bd"/>
      <path id="Trazado_37379" data-name="Trazado 37379" d="M322.568,126.893a3.04,3.04,0,1,0,3.04-3.04A3.04,3.04,0,0,0,322.568,126.893Z" transform="translate(785.459 1816.233)" fill="#66b9bd"/>
      <path id="Trazado_37380" data-name="Trazado 37380" d="M309.8,116.5a1.553,1.553,0,1,0,1.552-1.552A1.553,1.553,0,0,0,309.8,116.5Z" transform="translate(787.216 1816.583)" fill="#66b9bd"/>
      <ellipse id="Elipse_834" data-name="Elipse 834" cx="1.305" cy="1.305" rx="1.305" ry="1.305" transform="translate(1071.767 1945.418)" fill="#66b9bd"/>
      <ellipse id="Elipse_835" data-name="Elipse 835" cx="2.284" cy="2.284" rx="2.284" ry="2.284" transform="translate(1090.45 1946.2)" fill="#66b9bd"/>
      <path id="Trazado_37381" data-name="Trazado 37381" d="M288.393,120.87a3.9,3.9,0,1,0,3.9-3.9A3.9,3.9,0,0,0,288.393,120.87Z" transform="translate(789.596 1816.476)" fill="#66b9bd"/>
      <path id="Trazado_37382" data-name="Trazado 37382" d="M297.386,53.2s1.878,46.185-3.755,59.327c0,0-4.039,15.2-13.1,16.048,0,0-25.578,9.861-12.436,10.236l18.024,2.253s7.134,4.881-4.13,4.13c0,0-13.893,3.754-.375,3.754,0,0,23.28,2.253,19.525-5.632,0,0-22.9-6.758-10.513-10.889C290.627,132.429,310.9,118.912,297.386,53.2Z" transform="translate(791.082 1817.857)" fill="#68d1d6"/>
    </g>
  </g>
</svg>
