<svg xmlns="http://www.w3.org/2000/svg" xmlns:xlink="http://www.w3.org/1999/xlink" width="295" height="236.541" viewBox="0 0 295 236.541">
  <defs>
    <linearGradient id="linear-gradient" x1="0.994" y1="0.696" x2="0.026" y2="0.726" gradientUnits="objectBoundingBox">
      <stop offset="0" stop-color="#9eb7e5"/>
      <stop offset="1" stop-color="#e7f9fa"/>
    </linearGradient>
    <clipPath id="clip-path">
      <rect id="Rectángulo_3482" data-name="Rectángulo 3482" width="188.097" height="236.54" transform="translate(38)" fill="none"/>
    </clipPath>
  </defs>
  <g id="Grupo_148083" data-name="Grupo 148083" transform="translate(-1020 -2329.163)">
    <g id="Grupo_147292" data-name="Grupo 147292" transform="translate(0 23.704)">
      <g id="Grupo_147288" data-name="Grupo 147288">
        <g id="Grupo_147194" data-name="Grupo 147194">
          <g id="Grupo_147157" data-name="Grupo 147157" transform="translate(1020 2381.185)">
            <path id="Trazado_191155" data-name="Trazado 191155" d="M0,0H164A131,131,0,0,1,295,131v30H0Z" transform="translate(0 -0.185)" fill="url(#linear-gradient)"/>
          </g>
        </g>
      </g>
      <g id="Grupo_147291" data-name="Grupo 147291" transform="translate(1564.045 3282.856)" style="isolation: isolate">
        <g id="Grupo_11297" data-name="Grupo 11297" transform="translate(-529.045 -977.397)">
          <g id="Grupo_11296" data-name="Grupo 11296" clip-path="url(#clip-path)">
            <rect id="Rectángulo_3465" data-name="Rectángulo 3465" width="60.827" height="100.084" transform="translate(102.53 329.468)" fill="#c2b1bb"/>
            <g id="Grupo_11189" data-name="Grupo 11189" transform="translate(157.842 145.023)">
              <g id="Grupo_11188" data-name="Grupo 11188">
                <path id="Trazado_37513" data-name="Trazado 37513" d="M-338.638-759.059h0a15.416,15.416,0,0,0,5.923-20.981l-41.021-73.3a15.416,15.416,0,0,0-20.98-5.923h0a15.416,15.416,0,0,0-5.923,20.981l41.019,73.3A15.417,15.417,0,0,0-338.638-759.059Z" transform="translate(402.604 861.225)" fill="#f5ecf2"/>
              </g>
            </g>
            <g id="Grupo_11191" data-name="Grupo 11191" transform="translate(82.313 123.005)">
              <g id="Grupo_11190" data-name="Grupo 11190">
                <path id="Trazado_37514" data-name="Trazado 37514" d="M-361.327-688.165H-463.108V-841.21c0-8.017,4.3-15.269,10.944-18.457l39.994-19.2,39.91,19.191c6.639,3.192,10.933,10.44,10.933,18.452Z" transform="translate(463.108 878.863)" fill="#77d0fd"/>
              </g>
            </g>
            <g id="Grupo_11193" data-name="Grupo 11193" transform="translate(82.313 313.703)">
              <g id="Grupo_11192" data-name="Grupo 11192">
                <path id="Trazado_37515" data-name="Trazado 37515" d="M-415.387-501.452h-23.268L-463.108-726.1H-410.5Z" transform="translate(463.108 726.102)" fill="#664f5a"/>
              </g>
            </g>
            <g id="Grupo_11195" data-name="Grupo 11195" transform="translate(104.192 313.703)">
              <g id="Grupo_11194" data-name="Grupo 11194">
                <rect id="Rectángulo_3466" data-name="Rectángulo 3466" width="56.352" height="32.787" fill="#664f5a"/>
              </g>
            </g>
            <g id="Grupo_11197" data-name="Grupo 11197" transform="translate(127.414 313.703)">
              <g id="Grupo_11196" data-name="Grupo 11196">
                <path id="Trazado_37516" data-name="Trazado 37516" d="M-360.875-501.452h-23.308l-42.8-224.65h56.68Z" transform="translate(426.979 726.102)" fill="#664f5a"/>
              </g>
            </g>
            <g id="Grupo_11199" data-name="Grupo 11199" transform="translate(87.246 317.664)">
              <g id="Grupo_11198" data-name="Grupo 11198">
                <path id="Trazado_37517" data-name="Trazado 37517" d="M-459.156-708.459c8.12,0,15.327-5.382,18.359-13.711l-1.708-.759c-2.75,7.552-9.286,12.434-16.652,12.434Z" transform="translate(459.156 722.929)" fill="#452235"/>
              </g>
            </g>
            <g id="Grupo_11201" data-name="Grupo 11201" transform="translate(165.499 316.564)">
              <g id="Grupo_11200" data-name="Grupo 11200">
                <path id="Trazado_37518" data-name="Trazado 37518" d="M-383.013-709.438v-2.036c-5.142,0-9.73-4.842-11.689-12.336l-1.769.566C-394.278-714.857-388.995-709.438-383.013-709.438Z" transform="translate(396.471 723.81)" fill="#452235"/>
              </g>
            </g>
            <g id="Grupo_11203" data-name="Grupo 11203" transform="translate(123.209 342.299)">
              <g id="Grupo_11202" data-name="Grupo 11202">
                <path id="Trazado_37519" data-name="Trazado 37519" d="M-408.953-703.195h-21.394l10.94,6.763Z" transform="translate(430.347 703.195)" fill="#452235"/>
              </g>
            </g>
            <g id="Grupo_11205" data-name="Grupo 11205" transform="translate(130.734 313.703)">
              <g id="Grupo_11204" data-name="Grupo 11204">
                <rect id="Rectángulo_3467" data-name="Rectángulo 3467" width="1.842" height="32.787" fill="#452235"/>
              </g>
            </g>
            <g id="Grupo_11207" data-name="Grupo 11207" transform="translate(176.083 528.658)">
              <g id="Grupo_11206" data-name="Grupo 11206">
                <rect id="Rectángulo_3468" data-name="Rectángulo 3468" width="16.421" height="2.036" fill="#452235"/>
              </g>
            </g>
            <g id="Grupo_11209" data-name="Grupo 11209" transform="translate(110.2 528.658)">
              <g id="Grupo_11208" data-name="Grupo 11208">
                <rect id="Rectángulo_3469" data-name="Rectángulo 3469" width="15.62" height="2.036" fill="#452235"/>
              </g>
            </g>
            <g id="Grupo_11211" data-name="Grupo 11211" transform="translate(164.396 350.482)">
              <g id="Grupo_11210" data-name="Grupo 11210">
                <path id="Trazado_37520" data-name="Trazado 37520" d="M-373.776-517.328l-21.749-179.077-1.829-.234,21.749,179.077Z" transform="translate(397.355 696.639)" fill="#452235"/>
              </g>
            </g>
            <g id="Grupo_11213" data-name="Grupo 11213" transform="translate(100.529 350.503)">
              <g id="Grupo_11212" data-name="Grupo 11212">
                <path id="Trazado_37521" data-name="Trazado 37521" d="M-433.973-517.353l-12.709-179.077-1.833-.194,12.709,179.077Z" transform="translate(448.515 696.623)" fill="#452235"/>
              </g>
            </g>
            <g id="Grupo_11215" data-name="Grupo 11215" transform="translate(170.285 538.353)">
              <g id="Grupo_11214" data-name="Grupo 11214">
                <path id="Trazado_37522" data-name="Trazado 37522" d="M-389.224-528.84h19.778l.042-17.3h-23.233Z" transform="translate(392.637 546.143)" fill="#452235"/>
              </g>
            </g>
            <g id="Grupo_11217" data-name="Grupo 11217" transform="translate(180.094 539.541)">
              <g id="Grupo_11216" data-name="Grupo 11216">
                <path id="Trazado_37523" data-name="Trazado 37523" d="M-372.487-545.192h0A12.292,12.292,0,0,0-384.779-532.9v3.822h24.586V-532.9A12.292,12.292,0,0,0-372.487-545.192Z" transform="translate(384.779 545.192)" fill="#452235"/>
              </g>
            </g>
            <g id="Grupo_11219" data-name="Grupo 11219" transform="translate(106.654 538.353)">
              <g id="Grupo_11218" data-name="Grupo 11218">
                <path id="Trazado_37524" data-name="Trazado 37524" d="M-443.609-528.84h23.315l.042-17.3h-23.233Z" transform="translate(443.609 546.143)" fill="#452235"/>
              </g>
            </g>
            <g id="Grupo_11221" data-name="Grupo 11221" transform="translate(97.395 539.54)">
              <g id="Grupo_11220" data-name="Grupo 11220">
                <path id="Rectángulo_3470" data-name="Rectángulo 3470" d="M9.044,0h6.5a9.044,9.044,0,0,1,9.044,9.044v7.072a0,0,0,0,1,0,0H0a0,0,0,0,1,0,0V9.044A9.044,9.044,0,0,1,9.044,0Z" fill="#452235"/>
              </g>
            </g>
            <g id="Grupo_11223" data-name="Grupo 11223" transform="translate(131.445 331.328)">
              <g id="Grupo_11222" data-name="Grupo 11222">
                <rect id="Rectángulo_3471" data-name="Rectángulo 3471" width="12.594" height="2.036" fill="#452235"/>
              </g>
            </g>
            <g id="Grupo_11225" data-name="Grupo 11225" transform="translate(131.298 321.623)">
              <g id="Grupo_11224" data-name="Grupo 11224">
                <path id="Trazado_37525" data-name="Trazado 37525" d="M-423.574-715.5l12.594-2.244-.293-2.01-12.594,2.244Z" transform="translate(423.868 719.757)" fill="#452235"/>
              </g>
            </g>
            <g id="Grupo_11227" data-name="Grupo 11227" transform="translate(82.313 299.937)">
              <g id="Grupo_11226" data-name="Grupo 11226">
                <rect id="Rectángulo_3472" data-name="Rectángulo 3472" width="101.781" height="13.766" fill="#452235"/>
              </g>
            </g>
            <g id="Grupo_11229" data-name="Grupo 11229" transform="translate(82.309 131.828)">
              <g id="Grupo_11228" data-name="Grupo 11228">
                <path id="Trazado_37526" data-name="Trazado 37526" d="M-430.559-871.795v306.6h-32.552V-842.971c0-8.016,4.3-15.266,10.947-18.452Z" transform="translate(463.111 871.795)" fill="#f5ecf2"/>
                <path id="Trazado_37527" data-name="Trazado 37527" d="M-370.033-565.268h-36.946V-871.489l20.776,9.99c6.646,3.186,10.936,10.436,10.936,18.452v153.053Z" transform="translate(477.051 871.871)" fill="#f5ecf2"/>
              </g>
            </g>
            <path id="Trazado_37528" data-name="Trazado 37528" d="M-438.995-781.212l-24.113,12.791v-12.707Z" transform="translate(545.421 1026.119)" fill="#452235"/>
            <g id="Grupo_11231" data-name="Grupo 11231" transform="translate(115.69 100.341)">
              <g id="Grupo_11230" data-name="Grupo 11230">
                <path id="Trazado_37529" data-name="Trazado 37529" d="M-402.626-862.529l-12.105,9.376a5.991,5.991,0,0,1-7.308,0l-12.105-9.376a5.694,5.694,0,0,1-2.227-4.5v-29.989H-400.4v29.989A5.694,5.694,0,0,1-402.626-862.529Z" transform="translate(436.371 897.018)" fill="#cc715e"/>
              </g>
            </g>
            <g id="Grupo_11233" data-name="Grupo 11233" transform="translate(122.427 149.929)">
              <g id="Grupo_11232" data-name="Grupo 11232">
                <path id="Trazado_37530" data-name="Trazado 37530" d="M-409.671-709.311l-10.509,13.473-10.794-14.181L-422.5-857.3h6.245Z" transform="translate(430.974 857.295)" fill="#664f5a"/>
              </g>
            </g>
            <g id="Grupo_11235" data-name="Grupo 11235" transform="translate(50.206 145.017)">
              <g id="Grupo_11234" data-name="Grupo 11234">
                <path id="Trazado_37531" data-name="Trazado 37531" d="M-477.743-750.412h0A15.415,15.415,0,0,1-488.2-769.54l23.616-80.6A15.415,15.415,0,0,1-445.457-860.6h0A15.415,15.415,0,0,1-435-841.475l-23.617,80.6A15.415,15.415,0,0,1-477.743-750.412Z" transform="translate(488.828 861.23)" fill="#f5ecf2"/>
              </g>
            </g>
            <path id="Trazado_37532" data-name="Trazado 37532" d="M-432.737-864.945l-14.9,16.658,10.914,9.64-14.853,13.887,18.834,39v5.234l-21.605-44.75,14.248-13.313-10.755-9.5,18.112-20.246Z" transform="translate(547.598 1004.48)" fill="#c2b1bb"/>
            <path id="Trazado_37533" data-name="Trazado 37533" d="M-406.979-864.945l14.9,16.658L-403-838.647l14.853,13.887-18.834,39v5.234l21.605-44.75-14.248-13.313,10.755-9.5-18.112-20.246Z" transform="translate(559.36 1004.48)" fill="#c2b1bb"/>
            <g id="Grupo_11236" data-name="Grupo 11236" transform="translate(103.996 125.783)">
              <rect id="Rectángulo_3473" data-name="Rectángulo 3473" width="27.811" height="14.164" transform="translate(10.016 0) rotate(45)" fill="#77d0fd"/>
            </g>
            <g id="Grupo_11238" data-name="Grupo 11238" transform="translate(133.676 125.783)">
              <g id="Grupo_11237" data-name="Grupo 11237">
                <rect id="Rectángulo_3474" data-name="Rectángulo 3474" width="27.811" height="14.164" transform="translate(29.681 10.016) rotate(135)" fill="#77d0fd"/>
              </g>
            </g>
            <g id="Grupo_11240" data-name="Grupo 11240" transform="translate(124.287 142.356)">
              <g id="Grupo_11239" data-name="Grupo 11239">
                <path id="Trazado_37534" data-name="Trazado 37534" d="M-420.148-847.1l-9.336-8.354,6.251-7.9,3.139,3.092,2.411-2.419,6.871,7.23Z" transform="translate(429.484 863.361)" fill="#664f5a"/>
              </g>
            </g>
            <g id="Grupo_11242" data-name="Grupo 11242" transform="translate(134.655 135.079)">
              <g id="Grupo_11241" data-name="Grupo 11241">
                <path id="Trazado_37535" data-name="Trazado 37535" d="M-410.392-849.115l18.635-18.636-1.44-1.44-17.2,17.2-9.347-9.252-1.432,1.447Z" transform="translate(421.178 869.191)" fill="#452235"/>
              </g>
            </g>
            <g id="Grupo_11244" data-name="Grupo 11244" transform="translate(103.173 135.183)">
              <g id="Grupo_11243" data-name="Grupo 11243">
                <path id="Trazado_37536" data-name="Trazado 37536" d="M-427.949-849.439l10.4-11.1-1.486-1.392-8.977,9.582-16.961-16.755-1.427,1.453Z" transform="translate(446.397 869.107)" fill="#452235"/>
              </g>
            </g>
            <circle id="Elipse_837" data-name="Elipse 837" cx="19.617" cy="19.617" r="19.617" transform="translate(135.615 207.906) rotate(-45)" fill="#fff"/>
            <path id="Trazado_37537" data-name="Trazado 37537" d="M-380.65-809.189A14.63,14.63,0,0,1-395.28-794.56a14.638,14.638,0,0,1-14.629-14.629,14.554,14.554,0,0,1,2.62-8.353h24.018A14.553,14.553,0,0,1-380.65-809.189Z" transform="translate(558.632 1017.096)" fill="#c06eff"/>
            <rect id="Rectángulo_3475" data-name="Rectángulo 3475" width="6.871" height="29.342" transform="translate(159.921 162.516)" fill="#fff"/>
            <path id="Trazado_37538" data-name="Trazado 37538" d="M-392.828-846.727h-8.535a1.218,1.218,0,0,1-1.218-1.218h0a1.219,1.219,0,0,1,1.218-1.22h8.535a1.219,1.219,0,0,1,1.218,1.22h0A1.218,1.218,0,0,1-392.828-846.727Z" transform="translate(560.452 1009.243)" fill="#fff"/>
            <circle id="Elipse_838" data-name="Elipse 838" cx="6.247" cy="6.247" r="6.247" transform="translate(161.916 195.412)" fill="#fff" opacity="0.52"/>
            <path id="Rectángulo_3476" data-name="Rectángulo 3476" d="M8.9,0H29.016a0,0,0,0,1,0,0V10.824a8.9,8.9,0,0,1-8.9,8.9H5.612A5.612,5.612,0,0,1,0,14.11V8.9A8.9,8.9,0,0,1,8.9,0Z" transform="matrix(-0.752, -0.66, 0.66, -0.752, 173.47, 193.817)" fill="#cc715e"/>
            <path id="Trazado_37539" data-name="Trazado 37539" d="M-340.1-768.079h0a14.46,14.46,0,0,0,4.126-20.031l-39.31-46.847-18.25,12.015,33.4,50.736A14.461,14.461,0,0,0-340.1-768.079Z" transform="translate(562.698 1012.771)" fill="#f5ecf2"/>
            <circle id="Elipse_839" data-name="Elipse 839" cx="22.534" cy="22.534" r="22.534" transform="translate(82.758 290.287) rotate(-80.099)" fill="#fff"/>
            <path id="Trazado_37540" data-name="Trazado 37540" d="M-421.721-757.629a16.805,16.805,0,0,1-16.805,16.805,16.815,16.815,0,0,1-16.805-16.805,16.717,16.717,0,0,1,3.01-9.594h27.592A16.716,16.716,0,0,1-421.721-757.629Z" transform="translate(547.352 1029.593)" fill="#cfc515"/>
            <rect id="Rectángulo_3477" data-name="Rectángulo 3477" width="7.893" height="33.707" transform="translate(104.885 219.822)" fill="#fff"/>
            <path id="Trazado_37541" data-name="Trazado 37541" d="M-435.709-800.749h-9.8a1.4,1.4,0,0,1-1.4-1.4h0a1.4,1.4,0,0,1,1.4-1.4h9.8a1.4,1.4,0,0,1,1.4,1.4h0A1.4,1.4,0,0,1-435.709-800.749Z" transform="translate(549.443 1020.571)" fill="#fff"/>
            <circle id="Elipse_840" data-name="Elipse 840" cx="7.176" cy="7.176" r="7.176" transform="translate(104.277 265.996) rotate(-51.843)" fill="#fff" opacity="0.52"/>
            <path id="Rectángulo_3478" data-name="Rectángulo 3478" d="M16.251,0H29.016a0,0,0,0,1,0,0V5.839A16.251,16.251,0,0,1,12.765,22.09H0a0,0,0,0,1,0,0V16.251A16.251,16.251,0,0,1,16.251,0Z" transform="translate(83.789 223.998)" fill="#cc715e"/>
            <path id="Trazado_37542" data-name="Trazado 37542" d="M-487.735-780.664h0A14.46,14.46,0,0,0-473.274-766.2l19.02-7.072v-21.85h-19.02A14.461,14.461,0,0,0-487.735-780.664Z" transform="translate(539.305 1022.663)" fill="#f5ecf2"/>
            <g id="Grupo_11246" data-name="Grupo 11246" transform="translate(82.313 301.486)">
              <g id="Grupo_11245" data-name="Grupo 11245">
                <rect id="Rectángulo_3479" data-name="Rectángulo 3479" width="12.594" height="2.036" fill="#c2b1bb"/>
              </g>
            </g>
            <g id="Grupo_11248" data-name="Grupo 11248" transform="translate(171.5 301.486)">
              <g id="Grupo_11247" data-name="Grupo 11247">
                <rect id="Rectángulo_3480" data-name="Rectángulo 3480" width="12.594" height="2.036" fill="#c2b1bb"/>
              </g>
            </g>
            <path id="Trazado_37543" data-name="Trazado 37543" d="M-399.616-898.893l-1.113,1.109.178,2.074-1.91.432-.865,1.246-.387,1.735-1.966.086-.524,1.629-1.75.12-.132,2.259-1.718.022-.558,1.82-.546,2.02-1.187.931-1.745-.321-1.013,1.278-1.52-.025-1.12,1.072-1.137,1.145-1.635-.792-1.518-.69L-422.9-880.5l-1.212,1.052-1.411-.586-1.207,2.023-1.389-.628-1.349.421-1.393.869-1.27-1.358-1.323-.121-1.479.934-1.155-1.238-1.238-.533-1.734,1.479-.9-1.821-.794-1.834-1.658.806-1.344-.22-1.01-1.032-1.539.122-.213-2.514-2.095,1.043-.771-1.365-1.383-.374-1.27-.6-.836-1.214-1.52-.367-.5-1.6-.284-1.75-.08-1.857-2.184.11-1.145-.932.272-2.057.257-1.93-2.487-.069.6-2.09-.284-1.495-1.605-.836-.37-1.487,1.288-2.12-1.151-1.144.438-1.685-1.916-1.05.978-1.78-1.238-1.341-.237-1.552,1.98-1.709-.084-1.5-1.848-1.56.91-1.536,1.857-1.354-1.965-1.843-.083-1.651,2.45-1.021-.279-1.676,1.381-1.139-1.059-2.069-.012-1.745,2.252-.61-.785-2.214.874-1.311,2.57-.083.11-1.764.524-1.505-.236-2.261,1.163-1.027,1.826-.258,1.374-.638.335-1.915,1.925.2.875-1.217,1.155-.792.69-1.641.563-2.062,1.807.5.775-1.816,1.936,1.205.672-2.349,1.184-.981,1.839,1.672,1.112-1.185.978-2.36,1.725,2.464,1.078-2.519,1.4.439,1.362.735,1.325-1.05,1.326.334,1.3.377,1.408-.786,1.359-.053,1.3.339,1.524-.706.956,1.794,1.544-.583.9,1.61,1.3.271,1.286.353,1.52-.136,1.517,0,1.142.822.85,1.322.239,2.233,1.225.555,2.237-.8.738,1.374,1.03.976-.447,2.627,2.4-.529-.5,2.481.645,1.279,1.308.721.172,1.657,1.345.777,1.384.835-.3,1.908,1.609.8-.616,1.987-.681,1.908.255,1.444,1.032,1.176.679,1.348.756,1.37.136,1.544.436,1.5-1.97,1.788.578,1.449,1.619,1.485.254,1.6-2.837,1.405,2.37,1.788-1.534,1.376-.151,1.556.348,1.706-1.9,1.072-.831,1.313-.469,1.428.636,1.958-1.639.885.473,2.013Z" transform="translate(545.188 982.249)" fill="#452235"/>
            <path id="Trazado_37544" data-name="Trazado 37544" d="M-358.18-919.671l-.478,1.8,1.455,1.984-1.721,1.61-.136,1.79.66,1.99-1.992,1.3.452,1.967-1.746,1.2,1.245,2.362-1.773,1.078.534,2.181.669,2.375-.664,1.67-2.01.749-.271,1.913-1.6.909-.508,1.771-.481,1.854-2.185.206-2,.237-.409,1.947-.616,1.807-1.826.275-.017,2.785-1.828.219-1.145,1.254-.917,1.733-2.152-.59-1.449.691-.966,1.852-1.958-.54-1.614.223-.9,2.559-2.053-1.283-1.948-1.364-1.231,1.833-1.532.6-1.681-.421-1.525,1.069-1.76-2.407-1.54,2.341-1.636-.9-1.666.472-1.69.17-1.612-.711-1.8.564-1.5-1.3-1.366-1.592-1.22-1.826-2.2,1.454-1.761-.238-.976-2.244-.914-2.106-2.627,1.459-.653-2.481-1.21-1.335-2.181.142-1.295-1.274.041-2.932-1.9-.448-.576-1.971-2.634.118-.073-2.4-2.108-.593-1.2-1.422,1.013-2.943-1-1.459-2.876-.439.006-2.11,1.1-2.509-3.171-.653-1.1-1.616,1.922-2.538-1.316-1.521.738-2-2.367-1.438-1.08-1.754,1.968-2-2.172-1.753.105-1.861,2.621-1.664-.965-1.848-.377-1.842-1.63-2.138.58-1.752,1.74-1.382,1.038-1.488-.823-2.14,2.121-.985.164-1.767.716-1.51-.287-2.081-.676-2.428,2.185-.6-.305-2.31,2.75.027-.739-2.785.631-1.718,2.934.558.431-1.88-.427-2.984,3.3,1.427-.421-3.207,1.724-.417,1.865-.1.734-1.874,1.583-.478,1.58-.416.983-1.66,1.381-.889,1.561-.458,1.152-1.649,2.092,1.224,1.248-1.538,1.917,1.075,1.517-.526,1.553-.434,1.5-1.072,1.578-.929,1.69.128,1.693.813,1.615,2.108,1.613-.192,1.834-2.185,1.608.934,1.668.352,1.143,2.927,2.176-2.012,1,2.812,1.454.9,1.8-.076,1.193,1.568,1.874-.042,1.949-.008.857,2.111,2.162-.181.576,2.385.46,2.345,1.149,1.3,1.793.552,1.531.943,1.624.918,1.086,1.476,1.371,1.244-.954,3.017,1.487,1.107,2.592.5,1.243,1.459-2.09,3.163,3.558.348-.753,2.333.8,1.664,1.406,1.509-1.316,2.248-.06,1.837.386,1.73,1.859,1.586-1.162,1.9,1.724,1.742Z" transform="translate(550.385 979.539)" fill="#452235"/>
            <g id="Grupo_11251" data-name="Grupo 11251" transform="translate(108.796 37.317)">
              <g id="Grupo_11250" data-name="Grupo 11250">
                <g id="Grupo_11249" data-name="Grupo 11249">
                  <path id="Trazado_37545" data-name="Trazado 37545" d="M-390.736-920.461v36.035a14.474,14.474,0,0,1-6.279,12.045l-12.1,8.083a12.865,12.865,0,0,1-14.407,0l-12.091-8.083a14.448,14.448,0,0,1-6.278-12.045v-36.035a28.472,28.472,0,0,1,1.1-7.88,27,27,0,0,1,2.3-5.6,26.638,26.638,0,0,1,5.007-6.574,25.039,25.039,0,0,1,4.428-3.394,24.314,24.314,0,0,1,12.738-3.6,24.331,24.331,0,0,1,12.919,3.713,25.84,25.84,0,0,1,5.166,4.212,27.3,27.3,0,0,1,3.213,4.143,27.933,27.933,0,0,1,2.964,6.4A28.383,28.383,0,0,1-390.736-920.461Z" transform="translate(441.893 947.504)" fill="#cc715e"/>
                </g>
              </g>
            </g>
            <g id="Grupo_11254" data-name="Grupo 11254" transform="translate(108.795 82.197)">
              <g id="Grupo_11253" data-name="Grupo 11253">
                <g id="Grupo_11252" data-name="Grupo 11252">
                  <path id="Trazado_37546" data-name="Trazado 37546" d="M-394.34-911.552l.015,7.986A20.363,20.363,0,0,1-414.693-883.2h-2.449a20.369,20.369,0,0,1-20.369-20.369v-7.986h-4.383v19.331a14.463,14.463,0,0,0,6.273,12.048l12.1,8.079a12.868,12.868,0,0,0,14.406,0l12.1-8.079a14.463,14.463,0,0,0,6.273-12.048l-.016-19.331Z" transform="translate(441.894 911.552)" fill="#452235"/>
                </g>
              </g>
            </g>
            <g id="Grupo_11255" data-name="Grupo 11255" transform="translate(120.886 100.151)">
              <path id="Rectángulo_3481" data-name="Rectángulo 3481" d="M0,0H26.326a0,0,0,0,1,0,0V5.3a9.684,9.684,0,0,1-9.684,9.684H9.684A9.684,9.684,0,0,1,0,5.3V0A0,0,0,0,1,0,0Z" fill="#cc715e"/>
            </g>
            <g id="Grupo_11256" data-name="Grupo 11256" transform="translate(156.354 55.789)">
              <path id="Trazado_37547" data-name="Trazado 37547" d="M-400.2-924.136v19.177h-3.6v-27.748h2.282A28.384,28.384,0,0,1-400.2-924.136Z" transform="translate(403.796 932.707)" fill="#452235"/>
            </g>
            <g id="Grupo_11259" data-name="Grupo 11259" transform="translate(117.038 37.317)">
              <g id="Grupo_11258" data-name="Grupo 11258">
                <g id="Grupo_11257" data-name="Grupo 11257">
                  <path id="Trazado_37548" data-name="Trazado 37548" d="M-396.656-935.436a17.626,17.626,0,0,1-9.4,5.892h-23.853a8.786,8.786,0,0,0-2.338.307h-.034c-.216.056-.432.125-.648.2h-2.362v-9.038a17.26,17.26,0,0,1,.171-2.44,25.039,25.039,0,0,1,4.428-3.394,24.314,24.314,0,0,1,12.738-3.6,24.331,24.331,0,0,1,12.919,3.713,25.839,25.839,0,0,1,5.166,4.212A27.3,27.3,0,0,1-396.656-935.436Z" transform="translate(435.291 947.504)" fill="#452235"/>
                </g>
              </g>
            </g>
            <g id="Grupo_11262" data-name="Grupo 11262" transform="translate(126.018 41.029)">
              <g id="Grupo_11261" data-name="Grupo 11261">
                <g id="Grupo_11260" data-name="Grupo 11260">
                  <path id="Trazado_37549" data-name="Trazado 37549" d="M-394.162-921.2v.76a16.89,16.89,0,0,1-3.61,1.68v-2.282a9.11,9.11,0,0,0-.75-3.655,9.176,9.176,0,0,0-1.157-1.965,9.213,9.213,0,0,0-7.334-3.621H-428.1a3.129,3.129,0,0,1,.1-.442,17.652,17.652,0,0,1,11.739-12.943,16.277,16.277,0,0,1,2.565-.613v-.011a17.659,17.659,0,0,1,2.917-.238h3.951a25.839,25.839,0,0,1,5.166,4.212,27.3,27.3,0,0,1,3.213,4.143A28.026,28.026,0,0,1-394.162-921.2Z" transform="translate(428.097 944.53)" fill="#452235"/>
                </g>
              </g>
            </g>
            <g id="Grupo_11265" data-name="Grupo 11265" transform="translate(109.897 40.916)">
              <g id="Grupo_11264" data-name="Grupo 11264">
                <g id="Grupo_11263" data-name="Grupo 11263">
                  <path id="Trazado_37550" data-name="Trazado 37550" d="M-425.219-937.662v7.4h-3.269a8.786,8.786,0,0,0-2.338.307h-.034c-.216.056-.432.125-.648.2a8.428,8.428,0,0,0-1.691.783h-6.608a8.355,8.355,0,0,1-1.2-.091,27,27,0,0,1,2.3-5.6,26.638,26.638,0,0,1,5.007-6.574,25.039,25.039,0,0,1,4.428-3.394A7.993,7.993,0,0,1-425.219-937.662Z" transform="translate(441.011 944.621)" fill="#452235"/>
                </g>
              </g>
            </g>
            <g id="Grupo_11266" data-name="Grupo 11266" transform="translate(102.253 62.937)">
              <path id="Trazado_37551" data-name="Trazado 37551" d="M-440.6-906.585h4.386v-20.4h-10.925Z" transform="translate(447.135 926.981)" fill="#452235"/>
            </g>
            <g id="Grupo_11269" data-name="Grupo 11269" transform="translate(107.681 49.961)">
              <g id="Grupo_11268" data-name="Grupo 11268">
                <g id="Grupo_11267" data-name="Grupo 11267">
                  <path id="Trazado_37552" data-name="Trazado 37552" d="M-426.569-932.2a9.186,9.186,0,0,0-1.811.828,9.682,9.682,0,0,0-4.85,8.385h0a3.271,3.271,0,0,1-3.293,3.247h-6.263v-3.414a29.6,29.6,0,0,1,1.18-8.314,28.168,28.168,0,0,1,2.467-5.906h.6a7.065,7.065,0,0,1,.875.047.264.264,0,0,1,.049.012,7.508,7.508,0,0,1,1.811.395.087.087,0,0,1,.072.025,9.209,9.209,0,0,1,1.775.838c1.4.875,7.38,2.121,8.073,3.606C-425.888-932.439-426.338-932.284-426.569-932.2Z" transform="translate(442.786 937.375)" fill="#452235"/>
                </g>
              </g>
            </g>
            <g id="Grupo_11272" data-name="Grupo 11272" transform="translate(144.647 49.961)">
              <g id="Grupo_11271" data-name="Grupo 11271">
                <g id="Grupo_11270" data-name="Grupo 11270">
                  <path id="Trazado_37553" data-name="Trazado 37553" d="M-412.492-932.2a9.143,9.143,0,0,1,1.81.828,9.679,9.679,0,0,1,4.85,8.385h0a3.272,3.272,0,0,0,3.294,3.247h6.263v-3.414a29.6,29.6,0,0,0-1.18-8.314,28.233,28.233,0,0,0-2.467-5.906h-.6a7.065,7.065,0,0,0-.875.047.264.264,0,0,0-.049.012,7.5,7.5,0,0,0-1.811.395.086.086,0,0,0-.072.025,9.211,9.211,0,0,0-1.775.838c-1.4.875-7.381,2.121-8.074,3.606C-413.174-932.439-412.723-932.284-412.492-932.2Z" transform="translate(413.174 937.375)" fill="#452235"/>
                </g>
              </g>
            </g>
            <g id="Grupo_11275" data-name="Grupo 11275" transform="translate(102.252 75.987)">
              <g id="Grupo_11274" data-name="Grupo 11274">
                <g id="Grupo_11273" data-name="Grupo 11273">
                  <path id="Trazado_37554" data-name="Trazado 37554" d="M-442.738-916.527a4.4,4.4,0,0,0-4.4,4.4v8.524a4.4,4.4,0,0,0,4.4,4.4h2.142v-16.757A4.375,4.375,0,0,0-442.738-916.527Z" transform="translate(447.135 916.527)" fill="#cc715e"/>
                </g>
              </g>
            </g>
            <g id="Grupo_11278" data-name="Grupo 11278" transform="translate(159.947 75.987)">
              <g id="Grupo_11277" data-name="Grupo 11277">
                <g id="Grupo_11276" data-name="Grupo 11276">
                  <path id="Trazado_37555" data-name="Trazado 37555" d="M-398.776-916.527a4.4,4.4,0,0,1,4.4,4.4v8.524a4.4,4.4,0,0,1-4.4,4.4h-2.142v-16.757A4.378,4.378,0,0,1-398.776-916.527Z" transform="translate(400.918 916.527)" fill="#cc715e"/>
                </g>
              </g>
            </g>
            <g id="Grupo_11281" data-name="Grupo 11281" transform="translate(129.685 90.43)">
              <g id="Grupo_11280" data-name="Grupo 11280">
                <g id="Grupo_11279" data-name="Grupo 11279">
                  <path id="Trazado_37556" data-name="Trazado 37556" d="M-420.949-900.657h-1.734a2.476,2.476,0,0,1-2.477-2.475v-1.825h2.136v1.006a1.16,1.16,0,0,0,1.159,1.16h.916Z" transform="translate(425.16 904.957)" fill="#452235"/>
                </g>
              </g>
            </g>
            <g id="Grupo_11284" data-name="Grupo 11284" transform="translate(118.663 71.324)">
              <g id="Grupo_11283" data-name="Grupo 11283">
                <g id="Grupo_11282" data-name="Grupo 11282">
                  <path id="Trazado_37557" data-name="Trazado 37557" d="M-425.2-915.689h-7.679c-.614,0-1.112-.745-1.112-1.664v-.031c0-.85.429-1.564.995-1.654l7.679-1.215c.658-.1,1.23.667,1.23,1.654v1.246C-424.086-916.434-424.584-915.689-425.2-915.689Z" transform="translate(433.989 920.262)" fill="#452235"/>
                </g>
              </g>
            </g>
            <g id="Grupo_11287" data-name="Grupo 11287" transform="translate(140.736 71.324)">
              <g id="Grupo_11286" data-name="Grupo 11286">
                <g id="Grupo_11285" data-name="Grupo 11285">
                  <path id="Trazado_37558" data-name="Trazado 37558" d="M-407.516-915.689h-7.679c-.614,0-1.112-.745-1.112-1.664V-918.6c0-.988.573-1.758,1.23-1.654l7.679,1.215c.567.09,1,.8,1,1.654v.031C-406.4-916.434-406.9-915.689-407.516-915.689Z" transform="translate(416.307 920.262)" fill="#452235"/>
                </g>
              </g>
            </g>
            <g id="Grupo_11290" data-name="Grupo 11290" transform="translate(120.768 80.023)">
              <g id="Grupo_11289" data-name="Grupo 11289">
                <g id="Grupo_11288" data-name="Grupo 11288">
                  <ellipse id="Elipse_841" data-name="Elipse 841" cx="2.846" cy="3.807" rx="2.846" ry="3.807" fill="#452235"/>
                </g>
              </g>
            </g>
            <g id="Grupo_11293" data-name="Grupo 11293" transform="translate(142.841 80.023)">
              <g id="Grupo_11292" data-name="Grupo 11292">
                <g id="Grupo_11291" data-name="Grupo 11291">
                  <path id="Trazado_37559" data-name="Trazado 37559" d="M-408.927-909.488c0,2.1-1.275,3.807-2.846,3.807s-2.847-1.7-2.847-3.807,1.275-3.806,2.847-3.806S-408.927-911.59-408.927-909.488Z" transform="translate(414.621 913.294)" fill="#452235"/>
                </g>
              </g>
            </g>
            <g id="Grupo_11294" data-name="Grupo 11294" transform="translate(127.3 106.242)">
              <path id="Trazado_37560" data-name="Trazado 37560" d="M-427.07-892.291a27.8,27.8,0,0,0,6.765,1.029,17.34,17.34,0,0,0,5.84-1.029s-1.588,4.388-5.908,4.388S-427.07-892.291-427.07-892.291Z" transform="translate(427.07 892.291)" fill="#452235"/>
            </g>
            <path id="Trazado_37561" data-name="Trazado 37561" d="M-411.335-897.17s-3.854,3.981-8.607,3.981-8.606-3.981-8.606-3.981Z" transform="translate(554.003 997.321)" fill="#fff"/>
            <path id="Trazado_37562" data-name="Trazado 37562" d="M-419.96-900.909h-7.581a4.668,4.668,0,0,0-4.668,4.668h12.249Z" transform="translate(553.094 996.393)" fill="#452235"/>
            <path id="Trazado_37563" data-name="Trazado 37563" d="M-420.931-900.909h7.58a4.668,4.668,0,0,1,4.668,4.668h-12.247Z" transform="translate(555.895 996.393)" fill="#452235"/>
            <path id="Trazado_37564" data-name="Trazado 37564" d="M-410.677-917.768h-25.812c-1.934,0-3.454,1.941-3.293,4.206l.578,8.114c.175,2.447,1.916,4.329,4.007,4.329h11.268a4.289,4.289,0,0,0,3.981-3.958l.092-.648a3.16,3.16,0,0,1,2.932-2.917h0a3.16,3.16,0,0,1,2.934,2.917l.095.662a4.274,4.274,0,0,0,3.967,3.945h11.266c2.1,0,3.845-1.889,4.02-4.344l.578-8.1c.161-2.265-1.359-4.206-3.293-4.206Z" transform="translate(551.211 992.206)" fill="#fff" opacity="0.65"/>
            <g id="Grupo_11295" data-name="Grupo 11295" transform="translate(110.864 73.883)">
              <path id="Trazado_37565" data-name="Trazado 37565" d="M-398.551-900.456h-11.266a4.808,4.808,0,0,1-4.517-4.42l-.094-.662a2.607,2.607,0,0,0-2.384-2.442,2.607,2.607,0,0,0-2.386,2.442l-.092.649a4.82,4.82,0,0,1-4.529,4.433h-11.268c-2.4,0-4.362-2.082-4.559-4.842l-.578-8.115a4.783,4.783,0,0,1,1.212-3.607,3.585,3.585,0,0,1,2.633-1.192h39.132a3.593,3.593,0,0,1,2.634,1.192,4.789,4.789,0,0,1,1.211,3.607l-.577,8.1C-394.176-902.543-396.142-900.456-398.551-900.456Zm-18.261-8.631a3.7,3.7,0,0,1,3.48,3.393l.095.662a3.717,3.717,0,0,0,3.419,3.469h11.266c1.791,0,3.316-1.682,3.468-3.829l.577-8.1a3.673,3.673,0,0,0-.918-2.774,2.494,2.494,0,0,0-1.823-.839h-39.132a2.493,2.493,0,0,0-1.823.839,3.677,3.677,0,0,0-.919,2.774l.578,8.115c.154,2.138,1.67,3.814,3.455,3.814h11.268a3.73,3.73,0,0,0,3.432-3.482l.092-.649A3.7,3.7,0,0,1-416.812-909.087Z" transform="translate(440.237 918.212)" fill="#fff"/>
            </g>
            <path id="Trazado_37566" data-name="Trazado 37566" d="M-436.2-918.022l-7.438.163.631,1.748,4.227,3.319-.062-3.332Z" transform="translate(550.257 992.143)" fill="#fff"/>
            <path id="Trazado_37567" data-name="Trazado 37567" d="M-405.468-918.022l7.208.158-.4,1.753-4.227,3.319.062-3.332Z" transform="translate(559.735 992.143)" fill="#fff"/>
          </g>
        </g>
      </g>
    </g>
  </g>
</svg>
