<svg xmlns="http://www.w3.org/2000/svg" width="156.419" height="156.417" viewBox="0 0 156.419 156.417">
  <g id="Grupo_148062" data-name="Grupo 148062" transform="translate(-362.419 -1469.057)">
    <ellipse id="Elipse_832" data-name="Elipse 832" cx="75.395" cy="75.394" rx="75.395" ry="75.394" transform="translate(364.06 1473.353)" fill="#fff"/>
    <path id="Trazado_37314" data-name="Trazado 37314" d="M-506.077,157.363a78.3,78.3,0,0,1-78.21-78.208A78.3,78.3,0,0,1-506.077.946a78.3,78.3,0,0,1,78.209,78.208A78.3,78.3,0,0,1-506.077,157.363Zm0-150.84a72.715,72.715,0,0,0-72.632,72.632,72.714,72.714,0,0,0,72.632,72.632,72.714,72.714,0,0,0,72.632-72.632A72.714,72.714,0,0,0-506.077,6.523Z" transform="translate(946.706 1468.111)" fill="#9eb7e5"/>
    <g id="Grupo_108376" data-name="Grupo 108376" transform="translate(380.943 1496.617)">
      <path id="Trazado_37315" data-name="Trazado 37315" d="M-553.583,76.429a19.723,19.723,0,0,0,1.1,16.7,19.6,19.6,0,0,0,26.69,7.727,19.772,19.772,0,0,0,7.743-26.687l-.059-.118a19.616,19.616,0,0,0-20.152-9.962c-3.724-6.714-3.508-6.271-7.233-12.984l-11.752,6.517c3.676,6.743,3.421,6.33,7.1,13.063A19.5,19.5,0,0,0-553.583,76.429Z" transform="translate(561.795 -30.37)" fill="#cae3f8"/>
      <path id="Trazado_37316" data-name="Trazado 37316" d="M-560.135,56.949a1.766,1.766,0,0,0,2.4.693l12.589-6.986a1.782,1.782,0,0,0,.69-2.4,1.767,1.767,0,0,0-2.4-.693l-12.589,6.986A1.781,1.781,0,0,0-560.135,56.949Z" transform="translate(562.202 -30.053)" fill="#bed8f1"/>
      <path id="Trazado_37317" data-name="Trazado 37317" d="M-527.885,121.778a1.584,1.584,0,0,1-.177.739h-13.762a1.583,1.583,0,0,1-.176-.739,1.719,1.719,0,0,1,1.716-1.713h10.693A1.711,1.711,0,0,1-527.885,121.778Z" transform="translate(561.346 -32.416)" fill="#1e4e90"/>
      <path id="Trazado_37318" data-name="Trazado 37318" d="M-523.858,124.24a1.664,1.664,0,0,1-1.657,1.663h-19.054a1.664,1.664,0,0,1-1.656-1.663,1.664,1.664,0,0,1,1.656-1.664h19.054A1.664,1.664,0,0,1-523.858,124.24Z" transform="translate(561.465 -32.504)" fill="#5373ac"/>
      <path id="Trazado_37319" data-name="Trazado 37319" d="M-537.311,117.533a3.4,3.4,0,0,0,2.367.975,3.4,3.4,0,0,0,2.368-.975c1.262-1.379.4-4.949-2.368-8.661C-537.706,112.583-538.572,116.154-537.311,117.533Z" transform="translate(561.233 -32.097)" fill="#ca115c"/>
      <path id="Trazado_37320" data-name="Trazado 37320" d="M-552.43,93.682a19.6,19.6,0,0,0,26.69,7.727A19.772,19.772,0,0,0-518,74.722a17.549,17.549,0,0,1-7.439,4.262c-8.371,2.245-13.781-3.809-23.484-2.923a21.932,21.932,0,0,0-4.607.926A19.724,19.724,0,0,0-552.43,93.682Z" transform="translate(561.717 -31.07)" fill="#84e8ed"/>
      <path id="Trazado_37321" data-name="Trazado 37321" d="M-525.059,89.244a2.6,2.6,0,0,0,2.591,2.6,2.6,2.6,0,0,0,2.59-2.6,2.6,2.6,0,0,0-2.59-2.6A2.6,2.6,0,0,0-525.059,89.244Z" transform="translate(560.812 -31.333)" fill="#6bc3c7"/>
      <path id="Trazado_37322" data-name="Trazado 37322" d="M-545.21,80.374a1.326,1.326,0,0,0,1.324,1.329,1.326,1.326,0,0,0,1.323-1.329,1.327,1.327,0,0,0-1.323-1.33A1.327,1.327,0,0,0-545.21,80.374Z" transform="translate(561.483 -31.071)" fill="#6bc3c7"/>
      <path id="Trazado_37323" data-name="Trazado 37323" d="M-533.006,89.28a1.115,1.115,0,0,0,1.112,1.117,1.114,1.114,0,0,0,1.112-1.117,1.115,1.115,0,0,0-1.112-1.118A1.115,1.115,0,0,0-533.006,89.28Z" transform="translate(561.083 -31.367)" fill="#6bc3c7"/>
      <path id="Trazado_37324" data-name="Trazado 37324" d="M-550.49,88.115a1.952,1.952,0,0,0,1.947,1.956,1.951,1.951,0,0,0,1.946-1.956,1.951,1.951,0,0,0-1.946-1.955A1.952,1.952,0,0,0-550.49,88.115Z" transform="translate(561.654 -31.31)" fill="#6bc3c7"/>
      <path id="Trazado_37325" data-name="Trazado 37325" d="M-543.232,95.468a3.335,3.335,0,0,0,3.328,3.342,3.335,3.335,0,0,0,3.329-3.342,3.336,3.336,0,0,0-3.329-3.343A3.336,3.336,0,0,0-543.232,95.468Z" transform="translate(561.408 -31.522)" fill="#6bc3c7"/>
      <path id="Trazado_37326" data-name="Trazado 37326" d="M-508.6,123.684l-6.731-39h.845a1.254,1.254,0,0,0,1.247-1.253,1.254,1.254,0,0,0-1.247-1.253h-42.12a1.253,1.253,0,0,0-1.247,1.253,1.254,1.254,0,0,0,1.247,1.253h1.131l-6.747,39.086a1.037,1.037,0,0,0,.724,1.26,1.033,1.033,0,0,0,1.1-.941l6.8-39.4h36.377L-510.433,124a1.03,1.03,0,0,0,1.1.936A1.035,1.035,0,0,0-508.6,123.684Z" transform="translate(562.247 -31.436)" fill="#5373ac"/>
      <path id="Trazado_37327" data-name="Trazado 37327" d="M-470.325,93.3h1.232a1.855,1.855,0,0,0,1.852-1.86,1.856,1.856,0,0,0-1.852-1.86h-24.549a1.856,1.856,0,0,0-1.851,1.86,1.855,1.855,0,0,0,1.851,1.86h.844l-3.6,33.368a.492.492,0,0,0,.42.541.491.491,0,0,0,.553-.421l2.964-21.675h21.81l2.964,21.675a.492.492,0,0,0,.538.423.492.492,0,0,0,.435-.543Zm-21.939,10.336L-490.85,93.3h18.578l1.414,10.336Z" transform="translate(559.71 -31.655)" fill="#5373ac"/>
      <path id="Trazado_37328" data-name="Trazado 37328" d="M-458.376,81.277a11.111,11.111,0,0,0-6.694,3.456,10.657,10.657,0,0,0-2.206,3.79h-23.69A5.885,5.885,0,0,1-493,87.44c-2.47-2.028-3.068-6.123-1.863-10.435a40.394,40.394,0,0,0,.989-6.476c.02-.168.03-.347.04-.523a4.483,4.483,0,0,1-2.6-1.1c-.745-.728-1.245-1.762-1.46-3.879-.03-.295-.05-.57-.069-.866-.01-.217-.02-.434-.029-.659-.568-13.143,6.107-17.208,6.107-17.208A9.824,9.824,0,0,1-488.564,45c1.4.009,2.772.028,4.163.038a4.817,4.817,0,0,1,1.58.335c2.323.955,2.96,3.593,4.626,7.737,1.931,4.784,2.93,7.186,4.577,7.541,1.216.266,2.489-.4,4.9-1.722A24.119,24.119,0,0,0-465.61,56.9c.911.886,1.813,1.782,2.724,2.677a29.6,29.6,0,0,1-4.195,3.613c-3.019,2.146-5.449,3.849-7.841,3.121-.529-.157-2.255-.807-3.519-3.692q.029,3.9.157,7.954c.068,1.95.146,3.86.255,5.739,10.125,1.575,17.456,2.993,18.358,3.5a3.227,3.227,0,0,1,1.039.955A2.454,2.454,0,0,1-458.376,81.277Z" transform="translate(559.684 -30.098)" fill="#afe1e1"/>
      <path id="Trazado_37329" data-name="Trazado 37329" d="M-460.754,126.957c-.01.059-.107.138-.117.147a.584.584,0,0,1-.265.118H-469.8a.841.841,0,0,1-.667-.187c-.352-.325-.255-.934.01-1.88.285-.974.755-2.286,1.107-3.989a27.524,27.524,0,0,0,.422-3.043c.235-2.106.206-3.464.48-5.709.931-7.63,3.244-8.436,3.626-14.392a23.825,23.825,0,0,0-.362-5.867c-.118-.473-.234-.917-.362-1.34.344.394.7.777,1.049,1.171.52.641,1,1.28,1.432,1.89a32.1,32.1,0,0,1,2.49,4.2c.107.217.205.413.294.62s.186.393.265.581c.362.827.646,1.585.872,2.274q-3.455,10.159-6.931,20.31c-.352,1.526-.146,1.881-.146,1.881a1.726,1.726,0,0,0,.489.473,7.788,7.788,0,0,0,.834.492c.343.2.538.317.783.445.265.157.59.315,1.265.64C-461.792,126.307-460.694,126.76-460.754,126.957Z" transform="translate(558.973 -31.688)" fill="#f79083"/>
      <path id="Trazado_37330" data-name="Trazado 37330" d="M-470.466,127.865a.872.872,0,0,0,.667.187h8.664a.608.608,0,0,0,.265-.118c.011-.011.107-.094.117-.147.064-.2-1.046-.65-2.1-1.162-.679-.33-1-.49-1.265-.64h-6.341C-470.721,126.922-470.816,127.545-470.466,127.865Z" transform="translate(558.985 -32.607)" fill="#26376e"/>
      <path id="Trazado_37331" data-name="Trazado 37331" d="M-440.561,126.79a.3.3,0,0,1-.177.227.265.265,0,0,1-.126.026h-9.056a.823.823,0,0,1-.1-.026.457.457,0,0,1-.146-.108.313.313,0,0,1-.069-.186c-.088-.453-.2-1.054-.372-1.772-.1-.394-.205-.82-.332-1.283-1.391-4.932-3.411-7.659-4.8-10.179-2.95-5.335-1.677-7.243-3.3-12.136-.226-.689-.51-1.447-.872-2.274-.079-.187-.167-.384-.265-.581s-.187-.413-.294-.62a32.149,32.149,0,0,0-2.49-4.2c-.432-.61-.912-1.25-1.431-1.89-.352-.394-.7-.777-1.049-1.171q-.543-.606-1.087-1.213a10.659,10.659,0,0,1,2.206-3.79,11.111,11.111,0,0,1,6.694-3.456c.186.581.333,1.162.49,1.753,0-.02.01-.039.01-.059q4.322,18.605,8.644,37.191a4.36,4.36,0,0,0,1.412,2.629,14.5,14.5,0,0,0,2.519,1.112s.146.072.4.171c.843.345,2.794,1.162,3.43,1.486A.307.307,0,0,1-440.561,126.79Z" transform="translate(558.518 -31.453)" fill="#f9978a"/>
      <path id="Trazado_37332" data-name="Trazado 37332" d="M-450.223,125.983c.167.719.284,1.319.372,1.772a.313.313,0,0,0,.069.187.457.457,0,0,0,.146.108h9.282a.3.3,0,0,0,.177-.227.307.307,0,0,0-.167-.354c-.637-.324-2.588-1.141-3.43-1.486Z" transform="translate(558.134 -32.607)" fill="#26376e"/>
      <path id="Trazado_37333" data-name="Trazado 37333" d="M-478.577,68.589a32.093,32.093,0,0,1-3.509,1.279,32.783,32.783,0,0,1-11.692,1.21c.014-.187.026-.374.04-.561a32.39,32.39,0,0,0,4.58.082A32.987,32.987,0,0,0-478.6,68.244C-478.591,68.358-478.584,68.473-478.577,68.589Z" transform="translate(559.721 -30.717)" fill="#88c8c7"/>
      <path id="Trazado_37334" data-name="Trazado 37334" d="M-492.218,54.166c-.556,2.028-.934,3.79-1.2,5.178-.807,4.285-.265,5.063-.029,5.363.84,1.073,2.441,1.245,5.271,1.052,2.512-.172,5.372-.583,5.352-.765-.015-.131-1.518.043-4.414-.056-3.3-.112-4.984-.172-5.6-1.011-.635-.869-.284-1.8.245-5.5A38.185,38.185,0,0,0-492.218,54.166Z" transform="translate(559.749 -30.284)" fill="#88c8c7"/>
      <path id="Trazado_37335" data-name="Trazado 37335" d="M-482.919,53.826c-.627.236-2.447-2.71-5.417-8.823,1.383.01,2.772.028,4.163.038C-482.76,50.672-482.33,53.609-482.919,53.826Z" transform="translate(559.598 -29.97)" fill="#fff"/>
      <path id="Trazado_37336" data-name="Trazado 37336" d="M-479.366,67.3a.411.411,0,0,0-.534.232.414.414,0,0,0,.232.536.411.411,0,0,0,.534-.233A.414.414,0,0,0-479.366,67.3Z" transform="translate(559.35 -30.676)" fill="#fff"/>
      <path id="Trazado_37337" data-name="Trazado 37337" d="M-481.306,67.657a.41.41,0,0,0-.533.232.413.413,0,0,0,.232.536.41.41,0,0,0,.533-.233A.413.413,0,0,0-481.306,67.657Z" transform="translate(559.415 -30.689)" fill="#fff"/>
      <path id="Trazado_37338" data-name="Trazado 37338" d="M-480.393,36.08c-.029-.2-.059-.364-.1-.521a6.445,6.445,0,0,1-1-1.181,6.4,6.4,0,0,1-.98-2.54,9.722,9.722,0,0,1-5.449,5.246.938.938,0,0,0-1.362-.186,1.222,1.222,0,0,0-.3,1.112,1.781,1.781,0,0,0,1.509,1.26,6.978,6.978,0,0,1,.2,3.161,6.919,6.919,0,0,1-.792,2.208A9.826,9.826,0,0,0-492,45.926s-6.675,4.066-6.107,17.208c.01.226.02.442.029.659.019.3.039.571.069.827-3.676-2.264-4.538-4.3-4.636-5.749-.255-3.514,2.862-4.568,4.086-9.017,1.255-4.587-.872-5.858.893-8.742,1.588-2.588,3.9-2.038,6.057-5.68.657-1.1,1.147-2.9,2.284-4.026,2.96-2.954,8.527-2.215,10.145.591C-478.206,33.68-478.158,36.179-480.393,36.08Z" transform="translate(559.965 -29.514)" fill="#26376e"/>
      <path id="Trazado_37339" data-name="Trazado 37339" d="M-480.589,40.367c-.314.709-1.138,2.53-2.647,2.737a2.165,2.165,0,0,1-.784-.039c-.059.551-.116,1.115-.175,1.667a3.436,3.436,0,0,1-1.7.676,3.067,3.067,0,0,1-1.01-.049,3.712,3.712,0,0,1-1.457-.665,6.92,6.92,0,0,0,.792-2.208,6.976,6.976,0,0,0-.2-3.161,1.782,1.782,0,0,1-1.508-1.26,1.222,1.222,0,0,1,.3-1.112.938.938,0,0,1,1.362.186,9.722,9.722,0,0,0,5.449-5.246,6.4,6.4,0,0,0,.98,2.54,6.44,6.44,0,0,0,1,1.181c.039.157.068.324.1.521A7.319,7.319,0,0,1-480.589,40.367Z" transform="translate(559.608 -29.544)" fill="#f9978a"/>
      <path id="Trazado_37340" data-name="Trazado 37340" d="M-472.3,58.193c0,.213-.127.389-.28.389h-2.282c-.153,0-.28-.176-.28-.389s.127-.389.28-.389h2.282C-472.429,57.8-472.3,57.98-472.3,58.193Z" transform="translate(559.182 -30.366)" fill="#bed8f1"/>
      <path id="Trazado_37341" data-name="Trazado 37341" d="M-470.735,66.977l-1.945-4.718c0-1.22-.012-2.439-.016-3.659h-2.132l-.012,3.707-1.92,4.669a1.235,1.235,0,0,0,.174.974.81.81,0,0,0,.676.332h4.324a.812.812,0,0,0,.677-.332A1.246,1.246,0,0,0-470.735,66.977Z" transform="translate(559.215 -30.425)" fill="#cae3f8"/>
      <path id="Trazado_37342" data-name="Trazado 37342" d="M-470.735,67.048l-1.945-4.718c0-1.22-.012.514-.016-.7h-2.132c0,1.235-.008-.482-.012.754l-1.92,4.669a1.235,1.235,0,0,0,.174.974.81.81,0,0,0,.676.332h4.324a.812.812,0,0,0,.677-.332A1.246,1.246,0,0,0-470.735,67.048Z" transform="translate(559.215 -30.514)" fill="#bb5a9b"/>
      <path id="Trazado_37343" data-name="Trazado 37343" d="M-471.766,64.561a1.963,1.963,0,0,1-.657,1.043c-1.323,1.211-4.743,1.92-5.831,2.127-.06-1.133-.118-2.245-.177-3.376,1.588-.178,2.146-.591,2.342-.995a3.416,3.416,0,0,1,.765-1.1,3.094,3.094,0,0,1,.461-.334c.01.433.01.866.01,1.308a3.225,3.225,0,0,0,1.039.011c.8-.139,1.029-.532,1.411-.414C-471.913,62.976-471.619,63.862-471.766,64.561Z" transform="translate(559.264 -30.52)" fill="#26376e"/>
      <path id="Trazado_37344" data-name="Trazado 37344" d="M-466.968,53.591a.328.328,0,0,1,.062.447l-1.567,1.616a.323.323,0,0,1-.446-.051.327.327,0,0,1-.061-.446l1.566-1.616A.324.324,0,0,1-466.968,53.591Z" transform="translate(558.985 -30.229)" fill="#bed8f1"/>
      <path id="Trazado_37345" data-name="Trazado 37345" d="M-466.853,54.255l5.962,5.828a1.072,1.072,0,0,1,.022,1.507,1.063,1.063,0,0,1-1.5.02l-5.962-5.828a1.01,1.01,0,0,1-.105-.12l1.462-1.51A1.113,1.113,0,0,1-466.853,54.255Z" transform="translate(558.925 -30.27)" fill="#cae3f8"/>
      <path id="Trazado_37346" data-name="Trazado 37346" d="M-460.844,61.631a.993.993,0,0,1-1.389.129l-.745-.728-4.391-4.3,2.2-.809,4.415,4.315A1.218,1.218,0,0,1-460.844,61.631Z" transform="translate(558.898 -30.323)" fill="#417bff"/>
      <path id="Trazado_37347" data-name="Trazado 37347" d="M-464.3,58.916c-.659-.741-1.138-2.091-.531-2.73.51-.537,1.583-.359,2.229-.028,1.453.743,2.084,2.947,1.4,3.611C-461.778,60.333-463.429,59.893-464.3,58.916Z" transform="translate(558.843 -30.314)" fill="#26376e"/>
    </g>
  </g>
</svg>
