<svg xmlns="http://www.w3.org/2000/svg" width="229.709" height="108.64" viewBox="0 0 229.709 108.64">
  <g id="Grupo_54016" data-name="Grupo 54016" transform="translate(-220.372 -1325.471)">
    <path id="Trazado_45137" data-name="Trazado 45137" d="M223.371,1434.049c27.074-5.914,51.6-18.739,76.966-29.892,5.049-2.219,10.1-4.438,15.133-6.7,2.068-.93-2.24-1.093-.682-.13a8.3,8.3,0,0,0,1.808.814c2.07.708,4.6.155,6.684-.167,13.082-1.994,27.832-9.25,38.044-17.518a13.49,13.49,0,0,0,3.673-4.413,4.4,4.4,0,0,0,.5-1.844c.005-2.37.1.08-.062.158,7.781-3.856,15.726-7.387,23.644-10.946,16.644-7.484,33.387-14.742,50.111-22.049,3.817-1.669,7.746-2.776,10.087-6.41,2.289-3.557-.581-9.476-4.878-9.476-2.872,0-6.274,2.258-8.785,3.412q-9.321,4.282-18.643,8.574-29.737,13.68-59.47,27.369,1.585.417,3.168.833c-6.627-10.147-29.71,2.738-36.94,6.479-4.721,2.447-11.409,5.79-13.927,10.817-1.374,2.738,1.541-.026-1.93,1.6-3.221,1.51-6.462,2.978-9.7,4.456-17.1,7.8-34.253,15.471-51.4,23.155-10.574,4.737-16.835,10.137-25.65,18.006-2.233,2,1.057,5.261,3.276,3.278,4.206-3.759,10.184-10.781,14.416-12.676q9.906-4.43,19.809-8.872c18.1-8.115,36.408-15.911,54.235-24.606a2.268,2.268,0,0,0,1.149-2c-.5-7.052,38.618-23.491,42.663-17.3a2.38,2.38,0,0,0,3.17.831q39.055-17.977,78.115-35.943l5.242-2.409c1.8-.824,1.445,3.415-.023,4.09-.963.444-1.935.866-2.9,1.293-7.52,3.314-15.06,6.576-22.587,9.866-18.707,8.183-37.56,16.189-55.856,25.258a2.3,2.3,0,0,0-1.065,2.617c1.9,5.773-38.886,24.969-43.552,19.639a2.355,2.355,0,0,0-2.806-.361c-16.075,7.348-32.347,14.284-48.54,21.36q-11.512,5.034-23.031,10.052c-6.637,2.9-13.42,3.7-20.687,5.291C219.22,1430.216,220.459,1434.684,223.371,1434.049Z" transform="translate(0 0)" fill="#575756"/>
  </g>
</svg>
