<svg xmlns="http://www.w3.org/2000/svg" width="93.36" height="93.683" viewBox="0 0 93.36 93.683">
  <g id="Grupo_53792" data-name="Grupo 53792" transform="translate(-32.374 -322.554)">
    <path id="Trazado_100473" data-name="Trazado 100473" d="M119.19,386.668c2.44-1.974-.785-2.533-2.544-2.181-2.118.422-3.766-1.113-6.063-.855-1.134.128-1.729.764-2.689,1.191-.8.358-2.4.117-2.917.846-.916,1.294.937,1.275,1.759,1.356a61.531,61.531,0,0,0,6.153.37C114.479,387.391,117.767,387.82,119.19,386.668Z" fill="#fc3"/>
    <path id="Trazado_100474" data-name="Trazado 100474" d="M68.537,329.093c.018-.078.032-.176.045-.273a.6.6,0,0,0,.219-.232,8.379,8.379,0,0,0,.3-1.494,3.847,3.847,0,0,1,.242-.923.206.206,0,0,1,.369-.062c.132.188-.039.938-.038,1.068,0,.1-.066.536-.1.734.028-.173.084-.521.11-.614a7.917,7.917,0,0,1,.229-1.214c.155-.274.518-.125.457.245s-.19.97-.226,1.19c-.032.2-.152.729-.152.729s.148-.611.168-.673a4.3,4.3,0,0,1,.214-.8c.123-.291.342-.177.374-.02a6.039,6.039,0,0,1-.187,1.214c-.073.349-.1.533-.1.533a2.636,2.636,0,0,0,.276-.516c.027-.138-.077-.476.082-.608.182-.15.284.221.277.4a2.5,2.5,0,0,1-.108.977,9.725,9.725,0,0,1-.747,1.319,5.634,5.634,0,0,0-.229,1.375c.07,0-1.95-.395-1.95-.395a3.39,3.39,0,0,0,.114-.721C68.307,329.922,68.439,329.512,68.537,329.093Z" fill="#ff9d8a"/>
    <g id="Grupo_53775" data-name="Grupo 53775">
      <g id="Grupo_53774" data-name="Grupo 53774">
        <path id="Trazado_100475" data-name="Trazado 100475" d="M54.616,339.119a3.251,3.251,0,0,1,2.817-3.133c2.573-.389,5.885,2.34,7.328,2.008,2-.463,4.369-8.5,4.369-8.5l2.391.879s-4.04,11.723-5.643,12.073-8.906-.85-10.5-1.771A1.667,1.667,0,0,1,54.616,339.119Z" fill="#d0d1de"/>
      </g>
    </g>
    <g id="Grupo_53777" data-name="Grupo 53777">
      <path id="Trazado_100476" data-name="Trazado 100476" d="M83.818,355.882l4.606,4.94c-3.023,1.638-9.979,3.562-9.979,16.88,0,6.6,7.481,15.335,18.778,15.244a25.07,25.07,0,0,0,9.612-2.466h3.978c1.042.2,2.968-.924,3.861.489-3.821,4.935-12.682,8.553-19.092,8.553-12.548,0-22.192-9.276-22.72-20.69C72.3,366.594,76.451,360.855,83.818,355.882Z" fill="#110239"/>
      <g id="Grupo_53776" data-name="Grupo 53776">
        <rect id="Rectángulo_5154" data-name="Rectángulo 5154" width="10.145" height="20.369" transform="translate(64.761 338.703) rotate(-46.5)" fill="#f34f95"/>
        <rect id="Rectángulo_5155" data-name="Rectángulo 5155" width="5.934" height="16.079" transform="translate(95.703 365.164) rotate(-46.5)" fill="#f34f95"/>
        <rect id="Rectángulo_5156" data-name="Rectángulo 5156" width="15.505" height="32.541" transform="matrix(0.688, -0.725, 0.725, 0.688, 73.803, 350.979)" fill="#56b2e5"/>
        <path id="Trazado_100477" data-name="Trazado 100477" d="M78.832,345.668l3.049-3.227,23.588,22.442-3.056,3.22Z" fill="#6fc6ec"/>
        <path id="Trazado_100478" data-name="Trazado 100478" d="M100.892,369.707l-1.5,1.576-23.576-22.43,1.5-1.576Z" fill="#1d81bd"/>
        <rect id="Rectángulo_5157" data-name="Rectángulo 5157" width="8.805" height="2.106" transform="translate(101.519 372.662) rotate(-46.501)" fill="#110239"/>
        <rect id="Rectángulo_5158" data-name="Rectángulo 5158" width="13.911" height="4.891" transform="matrix(0.688, -0.725, 0.725, 0.688, 60.028, 336.743)" fill="#110239"/>
        <rect id="Rectángulo_5159" data-name="Rectángulo 5159" width="7.8" height="3.015" transform="matrix(0.688, -0.725, 0.725, 0.688, 105.449, 375.698)" fill="#110239"/>
      </g>
      <rect id="Rectángulo_5160" data-name="Rectángulo 5160" width="27.387" height="4.467" transform="translate(98.347 386.502)" fill="#9597b4"/>
      <path id="Trazado_100479" data-name="Trazado 100479" d="M80.04,358.112a5.844,5.844,0,1,0,5.845-5.844A5.845,5.845,0,0,0,80.04,358.112Z" fill="#110239"/>
      <path id="Trazado_100480" data-name="Trazado 100480" d="M82.9,358.112a2.983,2.983,0,1,0,2.984-2.983A2.983,2.983,0,0,0,82.9,358.112Z" fill="#fff"/>
      <path id="Trazado_100481" data-name="Trazado 100481" d="M92.4,393.633c7.632,0,9.02,16.214,9.02,16.214H83.379S84.767,393.633,92.4,393.633Z" fill="#56b2e5"/>
      <path id="Trazado_100482" data-name="Trazado 100482" d="M109.513,416.237a3.6,3.6,0,0,0-3.521-2.841H78.806a3.6,3.6,0,0,0-3.521,2.841H72.823v-2.951a4.1,4.1,0,0,1,4.1-4.1h30.948a4.1,4.1,0,0,1,4.1,4.1v2.951Z" fill="#110239"/>
      <circle id="Elipse_4061" data-name="Elipse 4061" cx="3.531" cy="3.531" r="3.531" transform="translate(88.868 395.99)" fill="#110239"/>
      <path id="Trazado_100483" data-name="Trazado 100483" d="M90.6,399.522a1.8,1.8,0,1,0,1.8-1.8A1.8,1.8,0,0,0,90.6,399.522Z" fill="#fff"/>
    </g>
    <g id="Grupo_53789" data-name="Grupo 53789">
      <g id="Grupo_53788" data-name="Grupo 53788">
        <g id="Grupo_53787" data-name="Grupo 53787">
          <g id="Grupo_53778" data-name="Grupo 53778">
            <path id="Trazado_100484" data-name="Trazado 100484" d="M50.269,361.673l.517-1.549H73.936l-.493,1.549Z" fill="#56b2e5"/>
          </g>
          <g id="Grupo_53779" data-name="Grupo 53779">
            <path id="Trazado_100485" data-name="Trazado 100485" d="M47.518,369.926l.522-1.566H71.314l-.5,1.566Z" fill="#56b2e5"/>
          </g>
          <g id="Grupo_53780" data-name="Grupo 53780">
            <path id="Trazado_100486" data-name="Trazado 100486" d="M53.752,353.42l.517-1.549h23.15l-.493,1.549Z" fill="#56b2e5"/>
          </g>
          <g id="Grupo_53781" data-name="Grupo 53781">
            <path id="Trazado_100487" data-name="Trazado 100487" d="M44.737,378.267l.528-1.583h23.4l-.5,1.583Z" fill="#56b2e5"/>
          </g>
          <g id="Grupo_53782" data-name="Grupo 53782">
            <path id="Trazado_100488" data-name="Trazado 100488" d="M41.925,386.7l.533-1.6H65.983l-.509,1.6Z" fill="#56b2e5"/>
          </g>
          <g id="Grupo_53783" data-name="Grupo 53783">
            <path id="Trazado_100489" data-name="Trazado 100489" d="M39.084,395.221l.539-1.617H63.275l-.515,1.617Z" fill="#56b2e5"/>
          </g>
          <g id="Grupo_53784" data-name="Grupo 53784">
            <path id="Trazado_100490" data-name="Trazado 100490" d="M36.211,403.836l.545-1.635H60.537l-.521,1.635Z" fill="#56b2e5"/>
          </g>
          <g id="Grupo_53785" data-name="Grupo 53785">
            <path id="Trazado_100491" data-name="Trazado 100491" d="M33.554,416.237h-.109a1.07,1.07,0,0,1-1.015-1.41L54.171,349.7a1.071,1.071,0,0,1,1.016-.732h1.5L34.571,415.5A1.071,1.071,0,0,1,33.554,416.237Z" fill="#56b2e5"/>
          </g>
          <g id="Grupo_53786" data-name="Grupo 53786">
            <path id="Trazado_100492" data-name="Trazado 100492" d="M57.1,416.237h-.119a1.071,1.071,0,0,1-1.02-1.4l20.787-65.124a1.07,1.07,0,0,1,1.02-.745h.023a1.071,1.071,0,0,1,1.021,1.395L58.123,415.49A1.07,1.07,0,0,1,57.1,416.237Z" fill="#56b2e5"/>
          </g>
        </g>
      </g>
    </g>
    <path id="Trazado_100493" data-name="Trazado 100493" d="M57.155,330.028c.048.051.091.1.14.154a9.709,9.709,0,0,0,1.469,1.279c.328.218.836.359,1.117.587a3.211,3.211,0,0,0,.352.249,27.006,27.006,0,0,0-.506,4.267s-2.931-.207-4-1.391A29.708,29.708,0,0,0,57.155,330.028Z" fill="#ff9d8a"/>
    <path id="Trazado_100494" data-name="Trazado 100494" d="M58.727,334.929a4.243,4.243,0,0,0-1.335-2.21,6.6,6.6,0,0,0-.7-.521,14.853,14.853,0,0,0,.465-2.17c.048.051.091.1.14.154a9.709,9.709,0,0,0,1.469,1.279c.328.218.836.359,1.117.587a3.211,3.211,0,0,0,.352.249,27.006,27.006,0,0,0-.506,4.267,11.336,11.336,0,0,1-1.165-.161A2.2,2.2,0,0,0,58.727,334.929Z" fill="#e17c5e"/>
    <path id="Trazado_100495" data-name="Trazado 100495" d="M58.779,382.337s.08,2.923.537,3.322,6.271.574,6.772.041.206-1.431-1.042-1.778c-1.338-.371-1.994-.007-2.832-.356s-.616-1.671-.616-1.671Z" fill="#110239"/>
    <path id="Trazado_100496" data-name="Trazado 100496" d="M44.36,382.238s-.449,2.847-.007,3.263,6.363.882,6.884.369.261-1.422-.972-1.816c-1.323-.423-1.963-.155-2.817-.466-.671-.244-.219-1.6-.219-1.6Z" fill="#110239"/>
    <g id="Grupo_53790" data-name="Grupo 53790">
      <path id="Trazado_100497" data-name="Trazado 100497" d="M48.657,365.853A87.311,87.311,0,0,1,49.871,349.6a7.433,7.433,0,0,1,2.9.561c1.775.808,3.56,1.583,5.342,2.36a115.069,115.069,0,0,0-5,14.819c-.475,2.545-5.795,15.528-5.795,15.528l-3.219-.4C44.156,380.373,48.669,366.555,48.657,365.853Z" fill="#110239"/>
      <path id="Trazado_100498" data-name="Trazado 100498" d="M52.856,350.877c1.254.423,3.537,1.03,5.26,1.646,1.2,3.033,4.747,10.194,4.932,13.431.2,3.573-1.033,17.106-1.033,17.106H58.331s-.342-15.254-.858-16.234c-1.7-3.232-3.581-5.794-4.65-7.8a25.135,25.135,0,0,1-2.716-7.12c-.139-.7-.748-3.035.435-3.766C51.521,348.412,51.805,350.522,52.856,350.877Z" fill="#110239"/>
    </g>
    <g id="Grupo_53791" data-name="Grupo 53791">
      <path id="Trazado_100499" data-name="Trazado 100499" d="M62.353,361.519a27.817,27.817,0,0,1-7.484,1.7c-2.931.029-5.042-.041-7.165-1.549,0,0,.961-9.133,1.124-10.25.477-3.276,1.571-10.05,2.784-12.636a7.271,7.271,0,0,1,4.3-4.131,9.127,9.127,0,0,0,3.827,1.2s-.042,6.756-.174,9.454c-.088,1.825-.106,4.818-.109,6.564C59.456,352.708,62.353,361.519,62.353,361.519Z" fill="#fff"/>
      <path id="Trazado_100500" data-name="Trazado 100500" d="M60.505,362.138c-.257-4.638-2.359-8.086-2.976-12.679a88.178,88.178,0,0,1-.519-9.492,7.31,7.31,0,0,0,2.256.954,2.135,2.135,0,0,0,.416.029v.043c-.006.372-.013.744-.02,1.11,0,.057,0,.113,0,.169-.006.336-.014.665-.022.983,0,.04,0,.082,0,.121-.008.333-.017.647-.027.944q0,.088-.006.174c-.01.3-.021.574-.033.813-.088,1.825-.106,4.818-.109,6.564,0,.836,2.9,9.648,2.9,9.648S61.6,361.8,60.505,362.138Z" fill="#d0d1de"/>
    </g>
    <path id="Trazado_100501" data-name="Trazado 100501" d="M56.183,326.782s1.6-2.419,3.231-2.088,2.659.747,2.791,1.414a18.378,18.378,0,0,0,.594,3.181c.333.706,1.128,1.683,1.068,1.974s-1.018.264-1.087.377-.872,2.179-1.248,2.355-3.376-1.5-3.737-2.51S55.809,328.435,56.183,326.782Z" fill="#ff9d8a"/>
    <path id="Trazado_100502" data-name="Trazado 100502" d="M59.517,327.49a4.182,4.182,0,0,1,.474.207c.236.077.482.132.72.207a3.026,3.026,0,0,0,1.468.2c.749-.138.615-.876,1.013-1.328.193-.219.532-.172.744-.416a1.756,1.756,0,0,0,.341-.894c.092-.756-.633-.927-1.192-1.15-.652-.261-.64-.641-.894-1.2-.627-1.375-2,.225-2.873,0-.447-.117-.884-.479-1.359-.289a3.168,3.168,0,0,0-.993.818c-.314.317-.558.137-.966.231a2.341,2.341,0,0,0-.885.5,2.482,2.482,0,0,0-.884,1.9c.039.6.464.977.4,1.592a3.66,3.66,0,0,0,.019,1.563c.256.692,1.01.882,1.462,1.391a2.213,2.213,0,0,0,1.763.822c.131-.448.194-1.222-.176-1.506a2.61,2.61,0,0,1-.567-.4.719.719,0,0,1,.843-1.1c.51.144.55,1.6,1.149,1.446.456-.117.035-.907-.05-1.168-.112-.345-.083-1.175.261-1.4A.224.224,0,0,1,59.517,327.49Z" fill="#110239"/>
    <path id="Trazado_100503" data-name="Trazado 100503" d="M69.41,332.845c.067-.226-.1-.8.224-.906.162-.056.3.467.295.627a16.667,16.667,0,0,1-.394,2.4c-.125.332-.251.653-.348.972a4.848,4.848,0,0,0-1.223-.03c-.229-.485-.425-1.058-.656-1.528-.124-.252-.289-.495-.427-.737-.087-.154-.3-.449-.168-.628.144-.2.369.087.457.2.129.161.288.547.546.462.375-.123.146-.826.132-1.138-.013-.288-.141-1.252.295-.954a6.6,6.6,0,0,1,.284,1.174c0-.039-.067-.7-.064-.741.013-.207-.038-.7.154-.765.411-.133.391,1.114.4,1.29l.016-.484c-.009-.386.026-.676.249-.608C69.464,331.534,69.386,332.506,69.41,332.845Z" fill="#ff9d8a"/>
    <path id="Trazado_100504" data-name="Trazado 100504" d="M69.748,335.428l-2.457-.415s-.771,4.379-1.706,5.485c-1.3,1.536-7.213-4.092-8.649-2.983s-1.748,2.7.6,4.028c3.3,1.863,7.6,2.953,9.053,2.469C68.195,343.477,69.47,338.192,69.748,335.428Z" fill="#fff"/>
  </g>
</svg>
