<svg xmlns="http://www.w3.org/2000/svg" width="92.026" height="89.491" viewBox="0 0 92.026 89.491">
  <g id="Grupo_53852" data-name="Grupo 53852" transform="translate(-371.605 -34.322)">
    <path id="Trazado_100673" data-name="Trazado 100673" d="M408.807,44.875s2,5.88,3.173,8.462c6.558,14.462-5.574,12.614-10.187,11.934s-9.868-2.424-9.58-6.153c.2-2.542,1.734-2.821,2.361-3.668s-.6-2.235-.063-4.32,4.018-2.508,4.708-3.082,2.079-2.168,1.4-5.186-.973-4.633.98-6.6,5.022-1.111,5.022-1.111Z" fill="#110239"/>
    <path id="Trazado_100674" data-name="Trazado 100674" d="M426.918,61.427a6.135,6.135,0,0,0,2.111-1.132,5.815,5.815,0,0,0-.741-1.594c-.145-.208-.292-.4-.426-.588-.126.37-.254.738-.39,1.053-.1.23-.932.3-1.145.606A2.022,2.022,0,0,0,426.918,61.427Z" fill="#ff9d8a"/>
    <g id="Grupo_53828" data-name="Grupo 53828">
      <path id="Trazado_100675" data-name="Trazado 100675" d="M426.955,59.174l1.608,1.952s-7.235,9.859-10.05,10.009-8.72-10.654-8.72-10.654l2.849-6.73A4.567,4.567,0,0,1,414.4,56.1c1.278,3.2,2.717,8.541,3.839,8.854C419.994,65.446,426.955,59.174,426.955,59.174Z" fill="#fff"/>
      <path id="Trazado_100676" data-name="Trazado 100676" d="M423.481,66.32c-1.393,1.044-4.487,3.065-4.57,3.08-1.6.289-4.788-5.68-6.537-10.751-.963-2.79-3.118-2.085-3.719-2.847l1.138,4.679s5.906,10.8,8.72,10.654c1.617-.086,4.866-3.5,7.2-6.375C425.434,64.991,423.773,66.1,423.481,66.32Z" fill="#d0d1de"/>
    </g>
    <g id="Grupo_53830" data-name="Grupo 53830">
      <g id="Grupo_53829" data-name="Grupo 53829">
        <rect id="Rectángulo_5185" data-name="Rectángulo 5185" width="1.444" height="38.027" transform="translate(396.797 85.786)" fill="#a9c9f6"/>
        <rect id="Rectángulo_5186" data-name="Rectángulo 5186" width="1.443" height="38.027" transform="translate(423.522 85.786)" fill="#a9c9f6"/>
      </g>
      <rect id="Rectángulo_5187" data-name="Rectángulo 5187" width="35.914" height="3.718" transform="translate(392.924 83.541)" fill="#110239"/>
    </g>
    <path id="Trazado_100677" data-name="Trazado 100677" d="M412.418,106.795s-3.663,3.192-3.644,3.655,6.271,11.087,7.359,11.12,1.343-1.809,1.166-2.507-2.183-10.832-2.183-10.832Z" fill="#110239"/>
    <path id="Trazado_100678" data-name="Trazado 100678" d="M407.1,108.77s-3.565,3.3-3.532,3.763,6.6,10.893,7.691,10.893,1.287-1.848,1.089-2.542-2.508-10.761-2.508-10.761Z" fill="#110239"/>
    <path id="Trazado_100679" data-name="Trazado 100679" d="M409.4,72.3s4.632,2.206,9.96,4.283c3.381,1.319,8.1,3.046,7.951,6.674-.113,2.646-10.761,28.14-10.761,28.14l-4.842-2.42s8.861-21.459,8.707-22.917-1.184-.168-9.944-.962-11.418-2.461-11.358-6.62,2.35-9.968,5.9-11.445S409.4,72.3,409.4,72.3Z" fill="#56b2e5"/>
    <path id="Trazado_100680" data-name="Trazado 100680" d="M409.4,72.3s1.766,2.25,7.094,4.327c3.381,1.318,7.58,3.732,7.577,6.054,0,2.648-9.918,27.518-9.918,27.518l-2.445-1.222s8.861-21.459,8.707-22.917-1.184-.168-9.944-.962-11.418-2.461-11.358-6.62,2.35-9.968,5.9-11.445S409.4,72.3,409.4,72.3Z" fill="#4556ba"/>
    <path id="Trazado_100681" data-name="Trazado 100681" d="M407,69.13s1.409,5.873,4.753,7.282,11.029,2.983,11.026,6.689c0,2.648-11.466,28.873-11.466,28.873l-5.875-2.751S413.2,88,413,86.551s.574-.739-8.206-1.267-9.964-2.2-10.03-6.364,5.325-9.79,5.325-9.79A8.992,8.992,0,0,1,407,69.13Z" fill="#56b2e5"/>
    <path id="Trazado_100682" data-name="Trazado 100682" d="M409.628,48.58s-1.387,5.677,1.188,8.582c0,0,3.433,4.621-1.98,5.414s-4.71-6.316-4.71-6.316.925-7.834-.484-11.223C403.642,45.037,407.163,46.973,409.628,48.58Z" fill="#e17c5e"/>
    <path id="Trazado_100683" data-name="Trazado 100683" d="M405.989,35.711s7.422.377,7.47,2.213-.625,3.04-.377,4.644c.533,3.453-1.475,7.25-2.354,7.407-1.36.243-5.963-1.789-6.685-4.582S403.133,34.6,405.989,35.711Z" fill="#ff9d8a"/>
    <path id="Trazado_100684" data-name="Trazado 100684" d="M414.093,41.412s-5.17,1.177-6.859-2.789c-1.334-3.133-.877-3.513-.877-3.513s2.853-2.221,6.211.793C414.817,37.922,414.093,41.412,414.093,41.412Z" fill="#110239"/>
    <path id="Trazado_100685" data-name="Trazado 100685" d="M406.789,35.028s2.749,2.415,1.226,4.708c-1.374,2.067-.466,3.177-.754,4.565a1.534,1.534,0,0,1-.8-.948c-.141-.643-.356-2.277-1.219-2.041s-1.669,1.3-.005,2.669a3.352,3.352,0,0,1-.266,3.326s-4.43-3.8-3.147-8.089S406.789,35.028,406.789,35.028Z" fill="#110239"/>
    <path id="Trazado_100686" data-name="Trazado 100686" d="M427.725,82.741c-1.1-4.526-4.98-4.835-8.361-6.154-3.128-1.219-6.007-2.479-7.859-3.315.282-2.028,1.377-9.784,1.836-11.083.528-1.5,1.214-2.388.528-4.571-.968-3.081-1.227-3.867-1.227-3.867a15.072,15.072,0,0,0-2.721-2.078s-.011,1.72-.979,2.2-4.051-3.609-4.051-3.609a43.793,43.793,0,0,0-5.73,2.823c-1.057.859.48,9.1.48,9.1s-2.687,8.168-2.862,11.229a10.972,10.972,0,0,0-2.011,5.5c.066,4.159,1.247,5.887,10.03,6.364,3.453.187,4.4.212,5.22,1.163a12.447,12.447,0,0,1,.863,2.263s9.578.7,16.673-.952A12.24,12.24,0,0,0,427.725,82.741Z" fill="#fff"/>
    <path id="Trazado_100687" data-name="Trazado 100687" d="M413.605,88.044c-1.294-4.122-4.9-3.876-8.268-4.8-1.993-.549-5.685-1.454-6.086-4.043-.593-3.831.352-8.564,1.651-12.173.926-2.574,2.237-5.372,2.241-8.16.006-3.627-1.333-4.943-3.963-5.788l-.019.013c-1.057.859.48,9.1.48,9.1s-2.687,8.168-2.862,11.229a10.972,10.972,0,0,0-2.011,5.5c.066,4.159,1.247,5.887,10.03,6.364,3.453.187,4.4.212,5.22,1.163a12.447,12.447,0,0,1,.863,2.263s1.164.085,2.979.126C413.778,88.589,413.7,88.331,413.605,88.044Z" fill="#d0d1de"/>
    <path id="Trazado_100688" data-name="Trazado 100688" d="M404.7,52.451c.569,1,1.124,2,1.7,3a10.387,10.387,0,0,0,.594,1.014,7.075,7.075,0,0,0,1.21-.895c.3-.253.505-.553.782-.834.118.065.174.188.266.281a4.76,4.76,0,0,0,.411.328,3.53,3.53,0,0,0,.822.578,20.364,20.364,0,0,0,.139-3.733c-.083-.375-.741.077-.711-.272-.042.488-.219,1.59-.965,1.963-.969.484-4.051-3.609-4.051-3.609s-.385.162-.951.41A11.335,11.335,0,0,0,404.7,52.451Z" fill="#8397a9" opacity="0.32" style="mix-blend-mode: multiply;isolation: isolate"/>
    <path id="Trazado_100689" data-name="Trazado 100689" d="M421.092,88.669c.287-1.646.574-5.56-.447-6.6-1.95-1.98-6.691-4.612-10.2-6.416-2.448-1.258-3.32-2.194-3.248-2.689,1.148-7.907,1.612-18.043,1.613-18.84l-.167.558s-.3,3.311-.593,7.261c-.372,5.073-1.164,9.763-1.164,11.217,0,.893.4,1.159,1.689,1.858,1.39.756,3.779,1.974,6.871,3.866a38.557,38.557,0,0,1,4.9,3.395c.849.7.811,3.889.417,6.412C420.875,88.687,420.984,88.677,421.092,88.669Z" fill="#d0d1de"/>
    <path id="Trazado_100690" data-name="Trazado 100690" d="M404.274,42.338s-.085,1.1.848,1.35c.384.1.346,1.305.656,2.515.589,2.3.214,3.867-1.5,4.534a18.725,18.725,0,0,0-4.945,2.245c-1.977,1.386-.706-4.395,1.789-5.861S404.274,42.338,404.274,42.338Z" fill="#110239"/>
    <g id="Grupo_53835" data-name="Grupo 53835">
      <g id="Grupo_53834" data-name="Grupo 53834">
        <g id="Grupo_53833" data-name="Grupo 53833">
          <g id="Grupo_53831" data-name="Grupo 53831">
            <rect id="Rectángulo_5188" data-name="Rectángulo 5188" width="1.056" height="50.187" transform="translate(374.971 73.626)" fill="#a9c9f6"/>
          </g>
          <g id="Grupo_53832" data-name="Grupo 53832">
            <rect id="Rectángulo_5189" data-name="Rectángulo 5189" width="1.056" height="50.187" transform="translate(459.207 73.626)" fill="#a9c9f6"/>
          </g>
        </g>
        <rect id="Rectángulo_5190" data-name="Rectángulo 5190" width="92.026" height="2.439" transform="translate(371.605 72.582)" fill="#110239"/>
      </g>
    </g>
    <g id="Grupo_53847" data-name="Grupo 53847">
      <g id="Grupo_53837" data-name="Grupo 53837">
        <g id="Grupo_53836" data-name="Grupo 53836">
          <path id="Trazado_100691" data-name="Trazado 100691" d="M439.261,58.94v9.293c0,.57-.386.774-.862.774h-.018c-.476,0-.862-.2-.862-.774V58.94h-.42v9.822a1.278,1.278,0,0,0,1.278,1.278h.026a1.278,1.278,0,0,0,1.278-1.278V58.94Z" fill="#fff"/>
          <rect id="Rectángulo_5191" data-name="Rectángulo 5191" width="0.419" height="0.871" transform="translate(439.261 58.94)" fill="#dfeaeb"/>
          <rect id="Rectángulo_5192" data-name="Rectángulo 5192" width="0.419" height="0.871" transform="translate(437.099 58.94)" fill="#dfeaeb"/>
          <path id="Trazado_100692" data-name="Trazado 100692" d="M438.4,69.007h-.018c-.476,0-.862-.2-.862-.774V58.94h1.742v9.293C439.261,68.8,438.875,69.007,438.4,69.007Z" fill="#fff" opacity="0.32" style="mix-blend-mode: screen;isolation: isolate"/>
          <path id="Trazado_100693" data-name="Trazado 100693" d="M437.519,63.3v4.932c0,.57.386.774.862.774h.018c.476,0,.862-.2.862-.774V63.3Z" fill="#56b2e5"/>
        </g>
        <rect id="Rectángulo_5193" data-name="Rectángulo 5193" width="3.195" height="0.661" rx="0.327" transform="translate(436.793 58.649)" fill="#fff"/>
        <path id="Trazado_100694" data-name="Trazado 100694" d="M438.5,64.264a.226.226,0,1,1-.226-.226A.226.226,0,0,1,438.5,64.264Z" fill="#6fc6ec"/>
        <circle id="Elipse_4064" data-name="Elipse 4064" cx="0.363" cy="0.363" r="0.363" transform="translate(437.704 65.538)" fill="#6fc6ec"/>
        <path id="Trazado_100695" data-name="Trazado 100695" d="M438.729,66.89a.189.189,0,1,1-.19-.19A.19.19,0,0,1,438.729,66.89Z" fill="#6fc6ec"/>
        <circle id="Elipse_4065" data-name="Elipse 4065" cx="0.347" cy="0.347" r="0.347" transform="translate(438.277 67.652)" fill="#6fc6ec"/>
        <path id="Trazado_100696" data-name="Trazado 100696" d="M439.084,65.191a.234.234,0,1,1-.234-.233A.234.234,0,0,1,439.084,65.191Z" fill="#6fc6ec"/>
        <path id="Trazado_100697" data-name="Trazado 100697" d="M438.051,67.461a.191.191,0,1,1-.191-.191A.191.191,0,0,1,438.051,67.461Z" fill="#6fc6ec"/>
      </g>
      <g id="Grupo_53839" data-name="Grupo 53839">
        <g id="Grupo_53838" data-name="Grupo 53838">
          <path id="Trazado_100698" data-name="Trazado 100698" d="M443.676,58.94v9.293c0,.57-.387.774-.863.774H442.8c-.477,0-.863-.2-.863-.774V58.94h-.419v9.822a1.278,1.278,0,0,0,1.277,1.278h.026a1.278,1.278,0,0,0,1.278-1.278V58.94Z" fill="#fff"/>
          <rect id="Rectángulo_5194" data-name="Rectángulo 5194" width="0.419" height="0.871" transform="translate(443.676 58.94)" fill="#dfeaeb"/>
          <rect id="Rectángulo_5195" data-name="Rectángulo 5195" width="0.419" height="0.871" transform="translate(441.514 58.94)" fill="#dfeaeb"/>
          <path id="Trazado_100699" data-name="Trazado 100699" d="M442.813,69.007H442.8c-.477,0-.863-.2-.863-.774V58.94h1.742v9.293C443.675,68.8,443.289,69.007,442.813,69.007Z" fill="#fff" opacity="0.32" style="mix-blend-mode: screen;isolation: isolate"/>
          <path id="Trazado_100700" data-name="Trazado 100700" d="M441.933,64.414v3.819c0,.57.386.774.863.774h.017c.476,0,.863-.2.863-.774V64.414Z" fill="#56b2e5"/>
        </g>
        <rect id="Rectángulo_5196" data-name="Rectángulo 5196" width="3.194" height="0.661" rx="0.327" transform="translate(441.207 58.649)" fill="#fff"/>
        <circle id="Elipse_4066" data-name="Elipse 4066" cx="0.363" cy="0.363" r="0.363" transform="translate(442.78 64.76)" fill="#6fc6ec"/>
        <path id="Trazado_100701" data-name="Trazado 100701" d="M443.333,66.387a.189.189,0,1,1-.19-.189A.19.19,0,0,1,443.333,66.387Z" fill="#6fc6ec"/>
        <path id="Trazado_100702" data-name="Trazado 100702" d="M442.842,67.912a.305.305,0,1,1-.305-.305A.3.3,0,0,1,442.842,67.912Z" fill="#6fc6ec"/>
        <circle id="Elipse_4067" data-name="Elipse 4067" cx="0.262" cy="0.262" r="0.262" transform="translate(442.618 66.817)" fill="#6fc6ec"/>
        <path id="Trazado_100703" data-name="Trazado 100703" d="M442.7,65.772a.234.234,0,1,1-.234-.234A.234.234,0,0,1,442.7,65.772Z" fill="#6fc6ec"/>
        <path id="Trazado_100704" data-name="Trazado 100704" d="M443.334,68.346a.191.191,0,1,1-.191-.191A.191.191,0,0,1,443.334,68.346Z" fill="#6fc6ec"/>
      </g>
      <g id="Grupo_53841" data-name="Grupo 53841">
        <g id="Grupo_53840" data-name="Grupo 53840">
          <path id="Trazado_100705" data-name="Trazado 100705" d="M448.09,58.94v9.293c0,.57-.386.774-.863.774h-.017c-.477,0-.863-.2-.863-.774V58.94h-.419v9.822a1.278,1.278,0,0,0,1.278,1.278h.025a1.278,1.278,0,0,0,1.278-1.278V58.94Z" fill="#fff"/>
          <rect id="Rectángulo_5197" data-name="Rectángulo 5197" width="0.42" height="0.871" transform="translate(448.09 58.94)" fill="#dfeaeb"/>
          <rect id="Rectángulo_5198" data-name="Rectángulo 5198" width="0.419" height="0.871" transform="translate(445.928 58.94)" fill="#dfeaeb"/>
          <path id="Trazado_100706" data-name="Trazado 100706" d="M447.227,69.007h-.017c-.477,0-.863-.2-.863-.774V58.94h1.743v9.293C448.09,68.8,447.7,69.007,447.227,69.007Z" fill="#fff" opacity="0.32" style="mix-blend-mode: screen;isolation: isolate"/>
          <path id="Trazado_100707" data-name="Trazado 100707" d="M446.347,63.793v4.44c0,.57.386.774.863.774h.017c.477,0,.863-.2.863-.774v-4.44Z" fill="#56b2e5"/>
        </g>
        <rect id="Rectángulo_5199" data-name="Rectángulo 5199" width="3.194" height="0.661" rx="0.327" transform="translate(445.621 58.649)" fill="#fff"/>
        <path id="Trazado_100708" data-name="Trazado 100708" d="M447,65.078a.225.225,0,1,1-.225-.225A.226.226,0,0,1,447,65.078Z" fill="#6fc6ec"/>
        <circle id="Elipse_4068" data-name="Elipse 4068" cx="0.363" cy="0.363" r="0.363" transform="translate(447.178 64.127)" fill="#6fc6ec"/>
        <path id="Trazado_100709" data-name="Trazado 100709" d="M447.452,66.2a.322.322,0,1,1-.322-.323A.322.322,0,0,1,447.452,66.2Z" fill="#6fc6ec"/>
        <path id="Trazado_100710" data-name="Trazado 100710" d="M447.525,68.314a.347.347,0,1,1-.347-.347A.347.347,0,0,1,447.525,68.314Z" fill="#6fc6ec"/>
        <path id="Trazado_100711" data-name="Trazado 100711" d="M447.952,65.566a.234.234,0,1,1-.234-.234A.234.234,0,0,1,447.952,65.566Z" fill="#6fc6ec"/>
        <path id="Trazado_100712" data-name="Trazado 100712" d="M446.962,67.389a.191.191,0,1,1-.191-.191A.191.191,0,0,1,446.962,67.389Z" fill="#6fc6ec"/>
        <path id="Trazado_100713" data-name="Trazado 100713" d="M447.834,67.2a.191.191,0,1,1-.191-.191A.19.19,0,0,1,447.834,67.2Z" fill="#6fc6ec"/>
      </g>
      <g id="Grupo_53843" data-name="Grupo 53843">
        <g id="Grupo_53842" data-name="Grupo 53842">
          <path id="Trazado_100714" data-name="Trazado 100714" d="M452.5,58.94v9.293c0,.57-.386.774-.862.774h-.018c-.476,0-.862-.2-.862-.774V58.94h-.42v9.822a1.278,1.278,0,0,0,1.278,1.278h.026a1.279,1.279,0,0,0,1.278-1.278V58.94Z" fill="#fff"/>
          <rect id="Rectángulo_5200" data-name="Rectángulo 5200" width="0.419" height="0.871" transform="translate(452.504 58.94)" fill="#dfeaeb"/>
          <rect id="Rectángulo_5201" data-name="Rectángulo 5201" width="0.419" height="0.871" transform="translate(450.342 58.94)" fill="#dfeaeb"/>
          <path id="Trazado_100715" data-name="Trazado 100715" d="M451.642,69.007h-.018c-.476,0-.862-.2-.862-.774V58.94H452.5v9.293C452.5,68.8,452.118,69.007,451.642,69.007Z" fill="#fff" opacity="0.32" style="mix-blend-mode: screen;isolation: isolate"/>
          <path id="Trazado_100716" data-name="Trazado 100716" d="M450.762,62.834v5.4c0,.57.386.774.862.774h.018c.476,0,.862-.2.862-.774v-5.4Z" fill="#56b2e5"/>
        </g>
        <rect id="Rectángulo_5202" data-name="Rectángulo 5202" width="3.194" height="0.661" rx="0.327" transform="translate(450.036 58.649)" fill="#fff"/>
        <path id="Trazado_100717" data-name="Trazado 100717" d="M452.085,64.2a.226.226,0,1,1-.226-.226A.226.226,0,0,1,452.085,64.2Z" fill="#6fc6ec"/>
        <path id="Trazado_100718" data-name="Trazado 100718" d="M452.335,67.549a.363.363,0,1,1-.363-.363A.364.364,0,0,1,452.335,67.549Z" fill="#6fc6ec"/>
        <path id="Trazado_100719" data-name="Trazado 100719" d="M451.609,68.346a.19.19,0,1,1-.19-.19A.19.19,0,0,1,451.609,68.346Z" fill="#6fc6ec"/>
        <path id="Trazado_100720" data-name="Trazado 100720" d="M451.766,64.888a.347.347,0,1,1-.347-.346A.347.347,0,0,1,451.766,64.888Z" fill="#6fc6ec"/>
        <path id="Trazado_100721" data-name="Trazado 100721" d="M452.34,65.72a.286.286,0,1,1-.286-.286A.286.286,0,0,1,452.34,65.72Z" fill="#6fc6ec"/>
        <path id="Trazado_100722" data-name="Trazado 100722" d="M451.463,63.486a.234.234,0,1,1-.234-.234A.234.234,0,0,1,451.463,63.486Z" fill="#6fc6ec"/>
        <circle id="Elipse_4069" data-name="Elipse 4069" cx="0.322" cy="0.322" r="0.322" transform="translate(451.06 66.176)" fill="#6fc6ec"/>
        <path id="Trazado_100723" data-name="Trazado 100723" d="M451.294,67.461a.191.191,0,1,1-.191-.191A.191.191,0,0,1,451.294,67.461Z" fill="#6fc6ec"/>
      </g>
      <g id="Grupo_53846" data-name="Grupo 53846">
        <g id="Grupo_53844" data-name="Grupo 53844">
          <rect id="Rectángulo_5203" data-name="Rectángulo 5203" width="1.209" height="10.773" transform="translate(434.79 60.811)" fill="#8397ca"/>
          <rect id="Rectángulo_5204" data-name="Rectángulo 5204" width="1.209" height="10.773" transform="translate(454.024 60.811)" fill="#8397ca"/>
        </g>
        <g id="Grupo_53845" data-name="Grupo 53845" style="mix-blend-mode: multiply;isolation: isolate">
          <rect id="Rectángulo_5205" data-name="Rectángulo 5205" width="1.209" height="2.312" transform="translate(434.79 60.811)" fill="#8397a9"/>
          <rect id="Rectángulo_5206" data-name="Rectángulo 5206" width="1.209" height="2.312" transform="translate(454.024 60.811)" fill="#8397a9"/>
        </g>
        <rect id="Rectángulo_5207" data-name="Rectángulo 5207" width="23.175" height="1.419" transform="translate(433.424 71.164)" fill="#fff"/>
        <rect id="Rectángulo_5208" data-name="Rectángulo 5208" width="23.175" height="1.419" transform="translate(433.424 60.417)" fill="#fff"/>
      </g>
    </g>
    <path id="Trazado_100724" data-name="Trazado 100724" d="M405.9,49.042l-1.96,1.817,3.593,4.768,1.405-1.749Z" fill="#fff"/>
    <path id="Trazado_100725" data-name="Trazado 100725" d="M409.352,50.268l-.41,3.609,1.372,1.224.373-2.968Z" fill="#fff"/>
    <g id="Grupo_53848" data-name="Grupo 53848">
      <path id="Trazado_100726" data-name="Trazado 100726" d="M422.922,64.806V62.431h-.417V64.85s3.023,4.327,3.023,5.658a1.156,1.156,0,0,1-.767,1.26,1.828,1.828,0,0,1-.631.1h-4.915a1.823,1.823,0,0,1-.63-.1,1.157,1.157,0,0,1-.767-1.26c0-1.331,3.023-5.658,3.023-5.658V62.431h-.417v2.375s-3.231,4.642-3.231,6.189a1.343,1.343,0,0,0,.891,1.464,2.124,2.124,0,0,0,.733.121h5.712a2.124,2.124,0,0,0,.733-.121A1.344,1.344,0,0,0,426.153,71C426.153,69.448,422.922,64.806,422.922,64.806Z" fill="#fff"/>
      <rect id="Rectángulo_5209" data-name="Rectángulo 5209" width="0.417" height="0.722" transform="translate(422.505 62.431)" fill="#dfeaeb"/>
      <rect id="Rectángulo_5210" data-name="Rectángulo 5210" width="0.417" height="0.722" transform="translate(420.424 62.431)" fill="#dfeaeb"/>
      <path id="Trazado_100727" data-name="Trazado 100727" d="M422.505,64.85V62.431h-1.664V64.85s-3.023,4.327-3.023,5.658a1.157,1.157,0,0,0,.767,1.26,1.823,1.823,0,0,0,.63.1h4.915a1.828,1.828,0,0,0,.631-.1,1.156,1.156,0,0,0,.767-1.26C425.528,69.177,422.505,64.85,422.505,64.85Z" fill="#fff" opacity="0.32" style="mix-blend-mode: screen;isolation: isolate"/>
      <path id="Trazado_100728" data-name="Trazado 100728" d="M424.224,67.738a5.822,5.822,0,0,1-1.047.517,2.861,2.861,0,0,1-2.465-.306,2.993,2.993,0,0,0-1.664-.295,8.136,8.136,0,0,0-1.23,2.854,1.157,1.157,0,0,0,.767,1.26,1.823,1.823,0,0,0,.63.1h4.915a1.828,1.828,0,0,0,.631-.1,1.156,1.156,0,0,0,.767-1.26,8.047,8.047,0,0,0-1.215-2.829Z" fill="#f34f95"/>
      <rect id="Rectángulo_5211" data-name="Rectángulo 5211" width="3.248" height="0.923" rx="0.457" transform="translate(420.049 61.836)" fill="#fff"/>
      <path id="Trazado_100729" data-name="Trazado 100729" d="M419.65,69.869a.469.469,0,1,1-.469-.469A.469.469,0,0,1,419.65,69.869Z" fill="#fc889f"/>
      <path id="Trazado_100730" data-name="Trazado 100730" d="M420.319,68.641a.245.245,0,1,1-.245-.245A.245.245,0,0,1,420.319,68.641Z" fill="#fc889f"/>
      <path id="Trazado_100731" data-name="Trazado 100731" d="M420.833,70.958a.341.341,0,1,1-.341-.341A.34.34,0,0,1,420.833,70.958Z" fill="#fc889f"/>
      <path id="Trazado_100732" data-name="Trazado 100732" d="M421.673,69.575a.42.42,0,1,1-.42-.42A.42.42,0,0,1,421.673,69.575Z" fill="#fc889f"/>
      <path id="Trazado_100733" data-name="Trazado 100733" d="M423.813,69.49a.6.6,0,1,1-.6-.6A.6.6,0,0,1,423.813,69.49Z" fill="#fc889f"/>
      <path id="Trazado_100734" data-name="Trazado 100734" d="M422.652,71.281a.273.273,0,1,1-.273-.273A.274.274,0,0,1,422.652,71.281Z" fill="#fc889f"/>
      <path id="Trazado_100735" data-name="Trazado 100735" d="M424.478,70.648a.31.31,0,1,1-.31-.31A.31.31,0,0,1,424.478,70.648Z" fill="#fc889f"/>
      <path id="Trazado_100736" data-name="Trazado 100736" d="M424.874,69.25a.24.24,0,1,1-.24-.24A.241.241,0,0,1,424.874,69.25Z" fill="#fc889f"/>
      <path id="Trazado_100737" data-name="Trazado 100737" d="M419.348,70.98a.251.251,0,1,1-.251-.251A.251.251,0,0,1,419.348,70.98Z" fill="#fc889f"/>
    </g>
    <path id="Trazado_100738" data-name="Trazado 100738" d="M415.286,65.648s1.225-.158,1.477-.224,3.051-2.763,3.47-2.6,4.355,1.612,4.373,2.092-.985.45-3.143-.581c0,0,2.789,1.051,2.441,1.573s-2.888-.808-2.888-.808,2.532,1.026,2.119,1.512-2.771-.912-2.771-.912,1.832,1.031,1.692,1.319-1.171.126-2.426-.553c0,0-.211-.052-.675.374A17.453,17.453,0,0,1,415.427,68Z" fill="#ff9d8a"/>
    <path id="Trazado_100739" data-name="Trazado 100739" d="M415.609,64.542l.836,4s-19.216,4.387-21.944,4.035-3.961-3.961-2.2-7.13,5.312-12.505,7.6-12.681,3.757,2.921,1.865,6.31-3.788,7.779-3.04,8.352S415.609,64.542,415.609,64.542Z" fill="#fff"/>
    <g id="Grupo_53850" data-name="Grupo 53850">
      <g id="Grupo_53849" data-name="Grupo 53849">
        <path id="Trazado_100740" data-name="Trazado 100740" d="M426.918,51.549l4.743,7.992a.742.742,0,0,1-.347,1.106l-.015.009a.742.742,0,0,1-1.137-.226l-4.742-7.991-.361.214,5.013,8.447a1.278,1.278,0,0,0,1.751.446l.022-.013a1.278,1.278,0,0,0,.447-1.751l-5.013-8.447Z" fill="#fff"/>
        <rect id="Rectángulo_5212" data-name="Rectángulo 5212" width="0.42" height="0.871" transform="matrix(0.86, -0.51, 0.51, 0.86, 426.918, 51.549)" fill="#dfeaeb"/>
        <rect id="Rectángulo_5213" data-name="Rectángulo 5213" width="0.42" height="0.871" transform="matrix(0.86, -0.51, 0.51, 0.86, 425.059, 52.653)" fill="#dfeaeb"/>
        <path id="Trazado_100741" data-name="Trazado 100741" d="M431.314,60.647l-.015.009a.742.742,0,0,1-1.137-.226l-4.742-7.991,1.5-.89,4.743,7.992A.742.742,0,0,1,431.314,60.647Z" fill="#fff" opacity="0.32" style="mix-blend-mode: screen;isolation: isolate"/>
        <path id="Trazado_100742" data-name="Trazado 100742" d="M431.561,59.374l-.019-.033-.013-.022L429.8,56.4c-.037-.056-.069-.117-.108-.171a.174.174,0,0,1-.013-.033l-.637-1.073a.361.361,0,0,0-.376-.021c-.135.081-.208.239-.364.319a1.759,1.759,0,0,1-.417.11c-.107.026-.4.1-.464.2a.119.119,0,0,0-.009.061l2.753,4.639a.748.748,0,0,0,1.152.217.79.79,0,0,0,.473-.76.887.887,0,0,0-.126-.346Z" fill="#56b2e5"/>
      </g>
      <path id="Trazado_100743" data-name="Trazado 100743" d="M427.45,51.665l-2.184,1.3a.327.327,0,0,1-.448-.114l0-.006a.328.328,0,0,1,.115-.449l2.184-1.3a.328.328,0,0,1,.449.115l0,.005A.328.328,0,0,1,427.45,51.665Z" fill="#fff"/>
      <path id="Trazado_100744" data-name="Trazado 100744" d="M428.983,56.515a.226.226,0,1,1-.309-.079A.224.224,0,0,1,428.983,56.515Z" fill="#6fc6ec"/>
      <path id="Trazado_100745" data-name="Trazado 100745" d="M429.757,57.96a.363.363,0,1,1-.5-.127A.364.364,0,0,1,429.757,57.96Z" fill="#6fc6ec"/>
      <path id="Trazado_100746" data-name="Trazado 100746" d="M430.517,58.658a.189.189,0,1,1-.259-.066A.189.189,0,0,1,430.517,58.658Z" fill="#6fc6ec"/>
      <path id="Trazado_100747" data-name="Trazado 100747" d="M431.292,59.488a.347.347,0,1,1-.476-.121A.347.347,0,0,1,431.292,59.488Z" fill="#6fc6ec"/>
      <path id="Trazado_100748" data-name="Trazado 100748" d="M429.956,57.016a.234.234,0,1,1-.32-.081A.235.235,0,0,1,429.956,57.016Z" fill="#6fc6ec"/>
      <path id="Trazado_100749" data-name="Trazado 100749" d="M430.226,59.495a.191.191,0,1,1-.261-.067A.192.192,0,0,1,430.226,59.495Z" fill="#6fc6ec"/>
      <path id="Trazado_100750" data-name="Trazado 100750" d="M428.414,55.957a.288.288,0,1,1-.395-.1A.287.287,0,0,1,428.414,55.957Z" fill="#6fc6ec"/>
      <path id="Trazado_100751" data-name="Trazado 100751" d="M428.93,55.464a.191.191,0,1,1-.261-.067A.19.19,0,0,1,428.93,55.464Z" fill="#6fc6ec"/>
    </g>
    <path id="Trazado_100752" data-name="Trazado 100752" d="M429.831,55.2c-.36.185-1.406.792-1.241,1.376.138.485,1.49-.331,1.49-.331-.5.31-1.367.485-1.22.9.164.459,1.3.019,1.557-.114-.244.024-1.521.55-1.111.992.28.3,1.22-.1,1.505-.235-.36.051-.876.283-.86.774.109.285.656.193.964.12.465-.109.875-.25.995-.788a5.349,5.349,0,0,0-.853-2.269C430.707,55.2,430.283,54.956,429.831,55.2Z" fill="#ff9d8a"/>
    <path id="Trazado_100753" data-name="Trazado 100753" d="M427.4,56.305a1.3,1.3,0,0,0-.143.9c.054.4.354,1.36.349,1.474s-.053.215-.006.309c.076.151.366.306.492.425.078.073.939.933.853,1.013l.486-.45-.952-1.755a2.3,2.3,0,0,1-.377-.96,2.711,2.711,0,0,1,.223-.893c.112-.3.387-.665.219-.992C428.247,54.8,427.5,56.113,427.4,56.305Z" fill="#ff9d8a"/>
    <g id="Grupo_53851" data-name="Grupo 53851">
      <path id="Trazado_100754" data-name="Trazado 100754" d="M386.174,62.139V58.946h-.561V62.2s4.065,5.819,4.065,7.607a1.556,1.556,0,0,1-1.031,1.695,2.47,2.47,0,0,1-.848.14h-6.608a2.467,2.467,0,0,1-.848-.14,1.556,1.556,0,0,1-1.031-1.695c0-1.788,4.065-7.607,4.065-7.607V58.946h-.561v3.193s-4.345,6.242-4.345,8.321a1.807,1.807,0,0,0,1.2,1.969,2.874,2.874,0,0,0,.986.163h7.68a2.869,2.869,0,0,0,.985-.163,1.806,1.806,0,0,0,1.2-1.969C390.518,68.381,386.174,62.139,386.174,62.139Z" fill="#fff"/>
      <rect id="Rectángulo_5214" data-name="Rectángulo 5214" width="0.561" height="0.97" transform="translate(385.613 58.946)" fill="#dfeaeb"/>
      <rect id="Rectángulo_5215" data-name="Rectángulo 5215" width="0.561" height="0.97" transform="translate(382.816 58.946)" fill="#dfeaeb"/>
      <path id="Trazado_100755" data-name="Trazado 100755" d="M385.613,62.2V58.946h-2.236V62.2s-4.065,5.819-4.065,7.607a1.556,1.556,0,0,0,1.031,1.695,2.467,2.467,0,0,0,.848.14H387.8a2.47,2.47,0,0,0,.848-.14,1.556,1.556,0,0,0,1.031-1.695C389.678,68.017,385.613,62.2,385.613,62.2Z" fill="#fff" opacity="0.32" style="mix-blend-mode: screen;isolation: isolate"/>
      <path id="Trazado_100756" data-name="Trazado 100756" d="M387.925,66.082a7.9,7.9,0,0,1-1.408.694,3.848,3.848,0,0,1-3.314-.411,4.025,4.025,0,0,0-2.238-.4,10.946,10.946,0,0,0-1.653,3.837,1.556,1.556,0,0,0,1.031,1.695,2.467,2.467,0,0,0,.848.14H387.8a2.47,2.47,0,0,0,.848-.14,1.556,1.556,0,0,0,1.031-1.695,10.835,10.835,0,0,0-1.634-3.8Z" fill="#fc3"/>
      <rect id="Rectángulo_5216" data-name="Rectángulo 5216" width="4.367" height="1.241" rx="0.614" transform="translate(382.311 58.146)" fill="#fff"/>
      <path id="Trazado_100757" data-name="Trazado 100757" d="M381.775,68.947a.63.63,0,1,1-.631-.631A.631.631,0,0,1,381.775,68.947Z" fill="#ffe081"/>
      <circle id="Elipse_4070" data-name="Elipse 4070" cx="0.33" cy="0.33" r="0.33" transform="translate(382.015 66.966)" fill="#ffe081"/>
      <path id="Trazado_100758" data-name="Trazado 100758" d="M383.366,70.41a.458.458,0,1,1-.458-.458A.458.458,0,0,1,383.366,70.41Z" fill="#ffe081"/>
      <path id="Trazado_100759" data-name="Trazado 100759" d="M384.495,68.551a.564.564,0,1,1-.565-.565A.565.565,0,0,1,384.495,68.551Z" fill="#ffe081"/>
      <path id="Trazado_100760" data-name="Trazado 100760" d="M387.373,68.436a.81.81,0,1,1-.811-.81A.811.811,0,0,1,387.373,68.436Z" fill="#ffe081"/>
      <path id="Trazado_100761" data-name="Trazado 100761" d="M385.812,70.845a.368.368,0,1,1-.368-.367A.368.368,0,0,1,385.812,70.845Z" fill="#ffe081"/>
      <circle id="Elipse_4071" data-name="Elipse 4071" cx="0.417" cy="0.417" r="0.417" transform="translate(387.433 69.577)" fill="#ffe081"/>
      <path id="Trazado_100762" data-name="Trazado 100762" d="M388.8,68.114a.323.323,0,1,1-.323-.323A.323.323,0,0,1,388.8,68.114Z" fill="#ffe081"/>
      <circle id="Elipse_4072" data-name="Elipse 4072" cx="0.338" cy="0.338" r="0.338" transform="translate(380.694 70.102)" fill="#ffe081"/>
    </g>
  </g>
</svg>
