<svg xmlns="http://www.w3.org/2000/svg" xmlns:xlink="http://www.w3.org/1999/xlink" width="94.098" height="86.326" viewBox="0 0 94.098 86.326">
  <defs>
    <linearGradient id="linear-gradient" x1="0.5" y1="6.283" x2="0.5" y2="-0.554" gradientUnits="objectBoundingBox">
      <stop offset="0" stop-color="#fff"/>
      <stop offset="1" stop-color="#f34f95"/>
    </linearGradient>
    <linearGradient id="linear-gradient-2" x1="0.5" y1="4.038" x2="0.5" y2="-2.799" xlink:href="#linear-gradient"/>
    <linearGradient id="linear-gradient-3" x1="0.5" y1="2.915" x2="0.5" y2="-3.922" xlink:href="#linear-gradient"/>
    <linearGradient id="linear-gradient-4" x1="0.5" y1="1.793" x2="0.5" y2="-5.044" xlink:href="#linear-gradient"/>
    <linearGradient id="linear-gradient-5" x1="0.5" y1="5.748" x2="0.5" y2="-1.09" xlink:href="#linear-gradient"/>
    <linearGradient id="linear-gradient-6" x1="0.5" y1="4.625" x2="0.5" y2="-2.212" xlink:href="#linear-gradient"/>
    <linearGradient id="linear-gradient-7" x1="0.5" y1="3.503" x2="0.5" y2="-3.334" xlink:href="#linear-gradient"/>
    <linearGradient id="linear-gradient-8" x1="0.5" y1="2.38" x2="0.5" y2="-4.457" xlink:href="#linear-gradient"/>
    <linearGradient id="linear-gradient-9" x1="0.5" y1="1.258" x2="0.5" y2="-5.579" xlink:href="#linear-gradient"/>
    <linearGradient id="linear-gradient-11" x1="0.5" y1="5.16" x2="0.5" y2="-1.677" xlink:href="#linear-gradient"/>
  </defs>
  <g id="Grupo_53798" data-name="Grupo 53798" transform="translate(-516.3 -330.734)">
    <g id="Grupo_53794" data-name="Grupo 53794">
      <path id="Trazado_100505" data-name="Trazado 100505" d="M572.258,408.989l-17.167.12,1.266-20.7,14.345-.1Z" fill="#dee8f3"/>
      <path id="Trazado_100506" data-name="Trazado 100506" d="M574.485,405.66a1.124,1.124,0,0,0-.936-.491l-9.506.067-.789.005-9.507.067a1.118,1.118,0,0,0-.928.5l-2.567,3.887a1.123,1.123,0,0,0,.944,1.741l12.1-.085.788-.006,12.1-.084a1.123,1.123,0,0,0,.92-1.753Z" fill="#fff"/>
      <path id="Trazado_100507" data-name="Trazado 100507" d="M605.6,393.562l-84.063.589a4.831,4.831,0,0,1-4.865-4.8l-.372-53.165a4.83,4.83,0,0,1,4.8-4.865l84.063-.589a4.83,4.83,0,0,1,4.865,4.8L610.4,388.7A4.832,4.832,0,0,1,605.6,393.562Z" fill="#fff"/>
      <path id="Trazado_100508" data-name="Trazado 100508" d="M610.382,386.446l-.357-50.915a4.83,4.83,0,0,0-4.865-4.8l-84.063.588a4.832,4.832,0,0,0-4.8,4.866l.356,50.914Z" fill="#110239"/>
      <rect id="Rectángulo_5161" data-name="Rectángulo 5161" width="85.098" height="46.964" transform="matrix(1, -0.007, 0.007, 1, 520.61, 335.489)" fill="#56b2e5"/>
      <g id="Grupo_53793" data-name="Grupo 53793">
        <path id="Trazado_100509" data-name="Trazado 100509" d="M527.911,344.7l-2-3.472,2-3.472h4.01l2,3.472-2,3.472Z" fill="url(#linear-gradient)"/>
        <path id="Trazado_100510" data-name="Trazado 100510" d="M527.911,352.491l-2-3.472,2-3.472h4.01l2,3.472-2,3.472Z" fill="#fc3"/>
        <path id="Trazado_100511" data-name="Trazado 100511" d="M527.911,360.286l-2-3.472,2-3.472h4.01l2,3.472-2,3.472Z" fill="url(#linear-gradient-2)"/>
        <path id="Trazado_100512" data-name="Trazado 100512" d="M527.911,368.081l-2-3.472,2-3.472h4.01l2,3.472-2,3.472Z" fill="url(#linear-gradient-3)"/>
        <path id="Trazado_100513" data-name="Trazado 100513" d="M527.911,375.876l-2-3.472,2-3.472h4.01l2,3.472-2,3.472Z" fill="url(#linear-gradient-4)"/>
        <path id="Trazado_100514" data-name="Trazado 100514" d="M534.635,348.413l-2-3.472,2-3.472h4.01l2,3.472-2,3.472Z" fill="url(#linear-gradient-5)"/>
        <path id="Trazado_100515" data-name="Trazado 100515" d="M534.635,356.208l-2-3.472,2-3.472h4.01l2,3.472-2,3.472Z" fill="url(#linear-gradient-6)"/>
        <path id="Trazado_100516" data-name="Trazado 100516" d="M534.635,364l-2-3.472,2-3.472h4.01l2,3.472-2,3.472Z" fill="url(#linear-gradient-7)"/>
        <path id="Trazado_100517" data-name="Trazado 100517" d="M534.635,371.8l-2-3.472,2-3.472h4.01l2,3.472-2,3.472Z" fill="url(#linear-gradient-8)"/>
        <path id="Trazado_100518" data-name="Trazado 100518" d="M534.635,379.594l-2-3.472,2-3.472h4.01l2,3.472-2,3.472Z" fill="url(#linear-gradient-9)"/>
        <path id="Trazado_100519" data-name="Trazado 100519" d="M541.293,344.7l-2-3.472,2-3.472h4.01l2,3.472-2,3.472Z" fill="url(#linear-gradient)"/>
        <path id="Trazado_100520" data-name="Trazado 100520" d="M541.293,352.491l-2-3.472,2-3.472h4.01l2,3.472-2,3.472Z" fill="url(#linear-gradient-11)"/>
        <path id="Trazado_100521" data-name="Trazado 100521" d="M541.293,360.286l-2-3.472,2-3.472h4.01l2,3.472-2,3.472Z" fill="url(#linear-gradient-2)"/>
        <path id="Trazado_100522" data-name="Trazado 100522" d="M541.293,368.081l-2-3.472,2-3.472h4.01l2,3.472-2,3.472Z" fill="url(#linear-gradient-3)"/>
        <path id="Trazado_100523" data-name="Trazado 100523" d="M541.293,375.876l-2-3.472,2-3.472h4.01l2,3.472-2,3.472Z" fill="#fc3"/>
        <path id="Trazado_100524" data-name="Trazado 100524" d="M548.018,348.413l-2-3.472,2-3.472h4.009l2,3.472-2,3.472Z" fill="url(#linear-gradient-5)"/>
        <path id="Trazado_100525" data-name="Trazado 100525" d="M548.018,356.208l-2-3.472,2-3.472h4.009l2,3.472-2,3.472Z" fill="#fc3"/>
        <path id="Trazado_100526" data-name="Trazado 100526" d="M548.018,364l-2-3.472,2-3.472h4.009l2,3.472-2,3.472Z" fill="url(#linear-gradient-7)"/>
        <path id="Trazado_100527" data-name="Trazado 100527" d="M548.018,371.8l-2-3.472,2-3.472h4.009l2,3.472-2,3.472Z" fill="url(#linear-gradient-8)"/>
        <path id="Trazado_100528" data-name="Trazado 100528" d="M548.018,379.594l-2-3.472,2-3.472h4.009l2,3.472-2,3.472Z" fill="url(#linear-gradient-9)"/>
        <path id="Trazado_100529" data-name="Trazado 100529" d="M554.675,344.7l-2-3.472,2-3.472h4.01l2,3.472-2,3.472Z" fill="url(#linear-gradient)"/>
        <path id="Trazado_100530" data-name="Trazado 100530" d="M554.675,352.491l-2-3.472,2-3.472h4.01l2,3.472-2,3.472Z" fill="url(#linear-gradient-11)"/>
        <path id="Trazado_100531" data-name="Trazado 100531" d="M554.675,360.286l-2-3.472,2-3.472h4.01l2,3.472-2,3.472Z" fill="url(#linear-gradient-2)"/>
        <path id="Trazado_100532" data-name="Trazado 100532" d="M554.675,368.081l-2-3.472,2-3.472h4.01l2,3.472-2,3.472Z" fill="url(#linear-gradient-3)"/>
        <path id="Trazado_100533" data-name="Trazado 100533" d="M554.675,375.876l-2-3.472,2-3.472h4.01l2,3.472-2,3.472Z" fill="url(#linear-gradient-4)"/>
        <path id="Trazado_100534" data-name="Trazado 100534" d="M561.4,348.413l-2-3.472,2-3.472h4.01l2,3.472-2,3.472Z" fill="url(#linear-gradient-5)"/>
        <path id="Trazado_100535" data-name="Trazado 100535" d="M561.4,356.208l-2-3.472,2-3.472h4.01l2,3.472-2,3.472Z" fill="url(#linear-gradient-6)"/>
        <path id="Trazado_100536" data-name="Trazado 100536" d="M561.4,364l-2-3.472,2-3.472h4.01l2,3.472-2,3.472Z" fill="url(#linear-gradient-7)"/>
        <path id="Trazado_100537" data-name="Trazado 100537" d="M561.4,371.8l-2-3.472,2-3.472h4.01l2,3.472-2,3.472Z" fill="#fc3"/>
        <path id="Trazado_100538" data-name="Trazado 100538" d="M561.4,379.594l-2-3.472,2-3.472h4.01l2,3.472-2,3.472Z" fill="url(#linear-gradient-9)"/>
        <path id="Trazado_100539" data-name="Trazado 100539" d="M568.058,344.7l-2-3.472,2-3.472h4.01l2,3.472-2,3.472Z" fill="url(#linear-gradient)"/>
        <path id="Trazado_100540" data-name="Trazado 100540" d="M568.058,352.491l-2-3.472,2-3.472h4.01l2,3.472-2,3.472Z" fill="url(#linear-gradient-11)"/>
        <path id="Trazado_100541" data-name="Trazado 100541" d="M568.058,360.286l-2-3.472,2-3.472h4.01l2,3.472-2,3.472Z" fill="#f34f95"/>
        <path id="Trazado_100542" data-name="Trazado 100542" d="M568.058,368.081l-2-3.472,2-3.472h4.01l2,3.472-2,3.472Z" fill="url(#linear-gradient-3)"/>
        <path id="Trazado_100543" data-name="Trazado 100543" d="M568.058,375.876l-2-3.472,2-3.472h4.01l2,3.472-2,3.472Z" fill="url(#linear-gradient-4)"/>
        <path id="Trazado_100544" data-name="Trazado 100544" d="M574.783,348.413l-2-3.472,2-3.472h4.01l2,3.472-2,3.472Z" fill="#fc3"/>
        <path id="Trazado_100545" data-name="Trazado 100545" d="M574.783,356.208l-2-3.472,2-3.472h4.01l2,3.472-2,3.472Z" fill="url(#linear-gradient-6)"/>
        <path id="Trazado_100546" data-name="Trazado 100546" d="M574.783,364l-2-3.472,2-3.472h4.01l2,3.472-2,3.472Z" fill="url(#linear-gradient-7)"/>
        <path id="Trazado_100547" data-name="Trazado 100547" d="M574.783,371.8l-2-3.472,2-3.472h4.01l2,3.472-2,3.472Z" fill="url(#linear-gradient-8)"/>
        <path id="Trazado_100548" data-name="Trazado 100548" d="M574.783,379.594l-2-3.472,2-3.472h4.01l2,3.472-2,3.472Z" fill="url(#linear-gradient-9)"/>
        <path id="Trazado_100549" data-name="Trazado 100549" d="M581.44,344.7l-2-3.472,2-3.472h4.01l2,3.472-2,3.472Z" fill="url(#linear-gradient)"/>
        <path id="Trazado_100550" data-name="Trazado 100550" d="M581.44,352.491l-2-3.472,2-3.472h4.01l2,3.472-2,3.472Z" fill="url(#linear-gradient-11)"/>
        <path id="Trazado_100551" data-name="Trazado 100551" d="M581.44,360.286l-2-3.472,2-3.472h4.01l2,3.472-2,3.472Z" fill="url(#linear-gradient-2)"/>
        <path id="Trazado_100552" data-name="Trazado 100552" d="M581.44,368.081l-2-3.472,2-3.472h4.01l2,3.472-2,3.472Z" fill="#fc3"/>
        <path id="Trazado_100553" data-name="Trazado 100553" d="M581.44,375.876l-2-3.472,2-3.472h4.01l2,3.472-2,3.472Z" fill="url(#linear-gradient-4)"/>
        <path id="Trazado_100554" data-name="Trazado 100554" d="M588.165,348.413l-2-3.472,2-3.472h4.01l2,3.472-2,3.472Z" fill="#fc3"/>
        <path id="Trazado_100555" data-name="Trazado 100555" d="M588.165,356.208l-2-3.472,2-3.472h4.01l2,3.472-2,3.472Z" fill="url(#linear-gradient-6)"/>
        <path id="Trazado_100556" data-name="Trazado 100556" d="M588.165,364l-2-3.472,2-3.472h4.01l2,3.472-2,3.472Z" fill="url(#linear-gradient-7)"/>
        <path id="Trazado_100557" data-name="Trazado 100557" d="M588.165,371.8l-2-3.472,2-3.472h4.01l2,3.472-2,3.472Z" fill="url(#linear-gradient-8)"/>
        <path id="Trazado_100558" data-name="Trazado 100558" d="M588.165,379.594l-2-3.472,2-3.472h4.01l2,3.472-2,3.472Z" fill="url(#linear-gradient-9)"/>
      </g>
    </g>
    <g id="Grupo_53797" data-name="Grupo 53797">
      <path id="Trazado_100559" data-name="Trazado 100559" d="M601.215,359.523s-1.608,2.911-.808,3.779c0,0-2.17,2-3.883,1.179s-.729-1.578-.729-1.578,1.191-.53,1.769-3.036S601.215,359.523,601.215,359.523Z" fill="#ff9d8a"/>
      <path id="Trazado_100560" data-name="Trazado 100560" d="M599.522,363.96a3.592,3.592,0,0,0-2.952-1.773,6.079,6.079,0,0,0,.994-2.32c.578-2.506,3.651-.344,3.651-.344s-1.608,2.911-.808,3.779A6.818,6.818,0,0,1,599.522,363.96Z" fill="#e17c5e"/>
      <path id="Trazado_100561" data-name="Trazado 100561" d="M602.566,356.073s-.974-2.575-2.559-2.61-2.62.138-2.882.729a17.454,17.454,0,0,1-1.214,2.824c-.456.585-1.4,1.325-1.4,1.607s.889.458.929.576a9.376,9.376,0,0,0,.665,2.443c.312.241,3.442-.685,3.987-1.547S602.568,357.683,602.566,356.073Z" fill="#ff9d8a"/>
      <path id="Trazado_100562" data-name="Trazado 100562" d="M599.326,355.99c-.421.289-1.462.581-3.067-.326s-.554-4.661,2.92-4.08,3.209,1.813,3.828,2.148a2.448,2.448,0,0,1,1.315,1.483,3.388,3.388,0,0,1-1.472,4.039c-1.789,1.322-2.87.974-2.87.974-.028-.442.075-1.173.478-1.359a2.389,2.389,0,0,0,.607-.249.682.682,0,0,0-.55-1.2c-.394.022-.643.688-.9.915-.269.242-.418.17-.545.106-.248-.123-.355-.92.275-1.685C599.757,356.262,599.747,355.7,599.326,355.99Z" fill="#110239"/>
      <path id="Trazado_100563" data-name="Trazado 100563" d="M606.841,410.882s1.45,2.8,1.136,3.382-6.293,3.115-7.01,2.762-.763-1.383.38-2.219c1.225-.9,2.036-.776,2.759-1.456s-.014-1.946-.014-1.946Z" fill="#110239"/>
      <path id="Trazado_100564" data-name="Trazado 100564" d="M590.625,411.781s-.167,3.312-.684,3.729-7.008.428-7.532-.175-.2-1.448,1.116-1.722c1.186-.246,2.065,0,2.982-.38.806-.331,1.23-2.121,1.23-2.121Z" fill="#110239"/>
      <path id="Trazado_100565" data-name="Trazado 100565" d="M591.726,378.023l8.464.461s-6.259,15.226-7.12,17.059-2.12,16.9-2.12,16.9l-3.906-.6s.715-15.409.91-16.677A155.6,155.6,0,0,1,591.726,378.023Z" fill="#110239"/>
      <path id="Trazado_100566" data-name="Trazado 100566" d="M594.114,378.721l7.228-.051a10.964,10.964,0,0,1,.874,5.713c-.415,3.1.567,9.1.625,9.891s3.891,13.792,4.468,16.753l-3.322,1.215s-5.584-15.914-5.8-16.23S594.114,378.721,594.114,378.721Z" fill="#110239"/>
      <g id="Grupo_53795" data-name="Grupo 53795">
        <path id="Trazado_100567" data-name="Trazado 100567" d="M591.224,375.073s-1.415,2.075-2.409,1.923-7.963-4.656-7.963-4.656l1.45-.978s5.546,3.734,6.1,3.571c.292-.085,1.735-3.878,2.909-6.719,1.446-3.5,2.285-4.013,2.285-4.013Z" fill="#ff9d8a"/>
        <path id="Trazado_100568" data-name="Trazado 100568" d="M591.224,375.073s-1.415,2.075-2.409,1.923-7.963-4.656-7.963-4.656l1.45-.978s5.546,3.734,6.1,3.571c.269-.079,1.85-4.349,3.006-6.951,1.571-3.537,2.188-3.781,2.188-3.781Z" fill="#e17c5e"/>
        <path id="Trazado_100569" data-name="Trazado 100569" d="M590.6,369.373c-.011-.016.585-1.33.782-1.724,1.6-3.188,2.215-3.448,2.215-3.448l-1.36,6.228A5.242,5.242,0,0,1,590.6,369.373Z" fill="#fff"/>
        <path id="Trazado_100570" data-name="Trazado 100570" d="M590.6,369.373c-.011-.016.585-1.33.782-1.724,1.6-3.188,2.215-3.448,2.215-3.448l-1.36,6.228A5.242,5.242,0,0,1,590.6,369.373Z" fill="#d0d1de"/>
      </g>
      <g id="Grupo_53796" data-name="Grupo 53796">
        <path id="Trazado_100571" data-name="Trazado 100571" d="M602.33,379.184a12.374,12.374,0,0,1,0-4.385c.618-2.586,3.436-7.576,2.35-9.329-.531-.856-4.457-2.36-4.457-2.36s-1.909,1.279-2.9,1.048a2.348,2.348,0,0,1-1.439-1.3A7.634,7.634,0,0,0,593.809,364c-1.285.935-2.018,6.2-2,8.656a39.943,39.943,0,0,1-.734,6.248A27.262,27.262,0,0,0,602.33,379.184Z" fill="#56b2e5"/>
        <path id="Trazado_100572" data-name="Trazado 100572" d="M593.446,373.509a37.491,37.491,0,0,1,1.008-5.864,18.051,18.051,0,0,1,1.667-4.366,2.724,2.724,0,0,1-.244-.422A7.634,7.634,0,0,0,593.809,364c-1.285.935-2.018,6.2-2,8.656a40.817,40.817,0,0,1-.761,6.4c-.2,1.11-3.019,12.871-3.019,12.871a14.194,14.194,0,0,0,2.916.71C591.432,385.208,592.81,379.77,593.446,373.509Z" fill="#fff"/>
        <path id="Trazado_100573" data-name="Trazado 100573" d="M602.326,374.8c.618-2.586,3.436-7.576,2.35-9.329-.531-.856-4.457-2.36-4.457-2.36s-.341.225-.8.468c-.679,2.2-1.062,4.31-1.641,6.5a59.109,59.109,0,0,0-1.488,8.605c-.57,4.787-1.234,7.536-1.657,14.315a57.244,57.244,0,0,0,8.6-.348s-.711-12.194-.882-13.287A12.726,12.726,0,0,1,602.326,374.8Z" fill="#fff"/>
        <path id="Trazado_100574" data-name="Trazado 100574" d="M602.265,375.2a3.433,3.433,0,0,1,.061-.406c.492-2.06,2.376-5.644,2.574-7.9a1.15,1.15,0,0,1-.075-.454,16.962,16.962,0,0,1-2.034.572c-1.2.216-2.174,1.417-2.975,2.192-.145.14-.713,1.867-.829,2.032-.171,5.2,1.242,8.417,1.561,13.665.161,2.636.471,5.562-.424,8.081,1.858-.146,3.111-.336,3.111-.336s-.711-12.194-.882-13.287A13.663,13.663,0,0,1,602.265,375.2Z" fill="#d0d1de"/>
      </g>
      <path id="Trazado_100575" data-name="Trazado 100575" d="M578.807,370.578l23.375,11.087a2.245,2.245,0,0,0,2.982-1.092l.019-.042a2.244,2.244,0,0,0-1.092-2.981l-23.375-11.087a16.089,16.089,0,1,0-1.909,4.115Zm-18.693,2.494a12.4,12.4,0,1,1,16.46-6.03A12.4,12.4,0,0,1,560.114,373.072Z" fill="#110239"/>
      <path id="Trazado_100576" data-name="Trazado 100576" d="M600.7,371.164s-2.036,4.263-2.472,4.306-7.966-.5-8.515-.814a6.438,6.438,0,0,1-.845-.693,4.368,4.368,0,0,0-.392-.3,4.53,4.53,0,0,1-.487-.27c-.117-.1-.532-.705-.764-.646-.183.047-.167.187-.134.335.044.19.307.369.434.5.073.077.29.3.254.42-.051.169-.426-.124-.511-.177a1.477,1.477,0,0,1-.349-.3,5,5,0,0,1-.32-.419c-.061-.087-.12-.181-.179-.268-.1-.148-.189-.28-.277-.435-.065-.117-.169-.249-.316-.169-.165.09,0,.365.065.483s.13.247.187.38c.037.087.182.234.133.338a2.074,2.074,0,0,1-.415-.469c-.076-.1-.466-.731-.642-.606-.278.2.06.61.191.783a1.835,1.835,0,0,0,.29.319c.048.039.256.26.219.257-.265-.024-.46-.425-.625-.612-.1-.116-.428-.454-.471-.114a.535.535,0,0,0,.14.357,1.9,1.9,0,0,0,.419.447,1.5,1.5,0,0,1,.272.3c-.2,0-.592-.5-.771-.368-.116.088.014.328.079.4a6.375,6.375,0,0,0,1.755,1.164,18.254,18.254,0,0,0,2.009.914c.978.379,9.274,2.914,10.266,2.788s3.577-5.218,4.322-6.7S600.7,371.164,600.7,371.164Z" fill="#ff9d8a"/>
      <path id="Trazado_100577" data-name="Trazado 100577" d="M603.537,373.447a15.345,15.345,0,0,1-4.147-2.3s2.429-7.792,4.939-6.032C607.191,367.119,603.537,373.447,603.537,373.447Z" fill="#fff"/>
      <path id="Trazado_100578" data-name="Trazado 100578" d="M582.291,371.828c-.131-.083-.309.01-.532.207.293-.37.643-.753.3-.8s-.564.474-.806.638c.128-.182.893-.722.591-1.122-.179-.237-.995.7-1.164.89.159-.153.847-.887.477-1.035-.332-.133-.8.495-1.037.7-.172.147-.415.269-.453.509-.076.465.605.777.958.874A1.822,1.822,0,0,0,582,372.44C582.241,372.3,582.422,371.912,582.291,371.828Z" fill="#ff9d8a"/>
    </g>
  </g>
</svg>
