<svg xmlns="http://www.w3.org/2000/svg" width="100.754" height="91.273" viewBox="0 0 100.754 91.273">
  <g id="Grupo_53903" data-name="Grupo 53903" transform="translate(-506.49 -33.253)">
    <g id="Grupo_53858" data-name="Grupo 53858">
      <path id="Trazado_100763" data-name="Trazado 100763" d="M581.494,115.925c-2.931-3.307-11.588-7.8-9.313-12.961,1.934-4.387,11.219-3.846,10.1-9.136-.661-3.128-1.518-5.8.5-9.355,2.2-3.875,8.776-1.765,11.055-5.363,1.959-3.091-.637-5.047,3.408-7.112,3.592-1.832,8.57,0,9.242,3.712.917,4.815-3.733,4.223-4.238,7.676-.321,2.2,1.682,2.965,2.829,4.5a10.675,10.675,0,0,1,2.159,5.419c.218,5.487-5.795,6.2-8.645,9.685-2.64,3.231,2.228,5.313,1.5,8.826-.788,3.791-6.184,5.861-9.983,5.805C587.475,117.587,583.31,117.975,581.494,115.925Z" fill="#f34f95"/>
      <g id="Grupo_53853" data-name="Grupo 53853">
        <path id="Trazado_100764" data-name="Trazado 100764" d="M585.322,117.733a.232.232,0,0,1-.069-.022.2.2,0,0,1-.092-.3,38.69,38.69,0,0,0,5.731-18.3c.2-6.763,3.016-11.09,5.321-14.641,1.393-2.143,2.607-4.014,2.793-5.888a.3.3,0,0,1,.314-.266.262.262,0,0,1,.259.29c-.2,2.007-1.454,3.928-2.887,6.13-2.272,3.489-5.044,7.745-5.256,14.369a39.149,39.149,0,0,1-5.829,18.511A.289.289,0,0,1,585.322,117.733Z" fill="#fff"/>
      </g>
      <g id="Grupo_53854" data-name="Grupo 53854">
        <path id="Trazado_100765" data-name="Trazado 100765" d="M591.351,99.143a.239.239,0,0,1-.2-.258.279.279,0,0,1,.3-.23c2.274.136,5.311-1.193,6.23-3.409.11-.267.221-.562.337-.872.555-1.488,1.253-3.356,2.714-4.028a3.221,3.221,0,0,1,2.448-.017.237.237,0,0,1,.142.33.306.306,0,0,1-.365.156,2.614,2.614,0,0,0-2.005-.009c-1.238.571-1.893,2.316-2.416,3.708-.118.315-.232.616-.344.886-1.046,2.514-4.336,3.895-6.8,3.748Z" fill="#fff"/>
      </g>
      <g id="Grupo_53855" data-name="Grupo 53855">
        <path id="Trazado_100766" data-name="Trazado 100766" d="M589.737,98.887a4.019,4.019,0,0,1-2.388-1.384c-.844-1.085-.977-2.719-.373-4.738.06-.2.136-.432.22-.686.474-1.442,1.2-3.645.485-4.868a1.738,1.738,0,0,0-1.152-.8.262.262,0,0,1-.2-.327.3.3,0,0,1,.35-.191h0a2.293,2.293,0,0,1,1.494,1.058c.822,1.416.052,3.745-.451,5.269-.082.249-.157.475-.216.672-.561,1.866-.459,3.356.288,4.318a4.278,4.278,0,0,0,3.31,1.359.242.242,0,0,1,.246.262.281.281,0,0,1-.3.233A7.882,7.882,0,0,1,589.737,98.887Z" fill="#fff"/>
      </g>
      <g id="Grupo_53856" data-name="Grupo 53856">
        <path id="Trazado_100767" data-name="Trazado 100767" d="M588.443,114.536a2.553,2.553,0,0,1-.874-.319.2.2,0,0,1-.055-.313.289.289,0,0,1,.365-.06c1.361.82,4.129-.246,5.307-1.076a7.078,7.078,0,0,0,1.4-1.588c.838-1.144,1.709-2.334,3.084-2.372a.223.223,0,0,1,.255.223.267.267,0,0,1-.271.238c-1.084.032-1.873,1.108-2.631,2.14a7.4,7.4,0,0,1-1.522,1.7A7.96,7.96,0,0,1,588.443,114.536Z" fill="#fff"/>
      </g>
      <g id="Grupo_53857" data-name="Grupo 53857">
        <path id="Trazado_100768" data-name="Trazado 100768" d="M586.215,114.039a3.263,3.263,0,0,1-.942-.332c-1.715-.912-2.731-3.246-3-4.606a7.4,7.4,0,0,1,.309-2.722c.372-1.641.76-3.354-.308-4.134a.228.228,0,0,1-.034-.344.3.3,0,0,1,.385-.036c1.314.963.871,2.9.485,4.6a7.141,7.141,0,0,0-.31,2.55c.237,1.231,1.2,3.475,2.755,4.307a2.578,2.578,0,0,0,1.91.227.262.262,0,0,1,.319.152.235.235,0,0,1-.188.282A3.212,3.212,0,0,1,586.215,114.039Z" fill="#fff"/>
      </g>
    </g>
    <g id="Grupo_53862" data-name="Grupo 53862">
      <path id="Trazado_100769" data-name="Trazado 100769" d="M545.61,119.031c4.885-1.206,8.753-2.3,8.859-7.471.055-2.678-1.14-4.526-3.965-6.012-2.284-1.2-3.457-1.613-3.983-3.984-.84-3.794.991-7.534-1.4-11.2-2.665-4.093-8.681-2.226-11.457-5.938-2.491-3.329-3.857-7.645-9.122-7.584a5.149,5.149,0,0,0-4.34,7.89c1.067,1.806,2.936,3.08,3.693,5.014.724,1.846-.07,3.354-.781,5.04-1.57,3.725-1.953,7.563,2.322,10.025,2.554,1.47,4.523,2.761,3.6,5.52-.967,2.9-1.4,4.553,2.12,6.735,2.631,1.631,5.03,1.5,8.051,1.624,2.833.118,6.617.894,9.291-.333Z" fill="#fc3"/>
      <g id="Grupo_53859" data-name="Grupo 53859">
        <path id="Trazado_100770" data-name="Trazado 100770" d="M544.025,116.347a3.656,3.656,0,0,0,.827-1.457c.59-2.171-1.475-4.346-3.345-6.316a14.68,14.68,0,0,1-2.266-2.75,12.06,12.06,0,0,1-1.253-7.254c.292-3.655-.69-5.15-3.673-7.568-2.515-2.04-5-4.287-5.7-6.512a.394.394,0,0,0-.493-.209.353.353,0,0,0-.3.417c.748,2.367,3.322,4.683,5.918,6.776,2.889,2.326,3.784,3.676,3.512,7.153a12.724,12.724,0,0,0,1.318,7.508,14.968,14.968,0,0,0,2.348,2.845c1.807,1.892,3.8,3.981,3.277,5.925a3.923,3.923,0,0,1-1.723,2.1c-.155.113-.209.286-.109.39a.378.378,0,0,0,.467-.012A6.742,6.742,0,0,0,544.025,116.347Z" fill="#fff"/>
      </g>
      <g id="Grupo_53860" data-name="Grupo 53860">
        <path id="Trazado_100771" data-name="Trazado 100771" d="M537.843,102.03a.316.316,0,0,0,.086-.189c.007-.162-.151-.277-.352-.255-1.767.193-3.073-1.186-4.479-2.671-1.246-1.315-2.554-2.7-4.345-3.073a.48.48,0,0,0-.515.227.268.268,0,0,0,.222.382c1.57.327,2.817,1.635,4,2.88,1.459,1.53,2.938,3.083,5.084,2.846A.485.485,0,0,0,537.843,102.03Z" fill="#fff"/>
      </g>
      <g id="Grupo_53861" data-name="Grupo 53861">
        <path id="Trazado_100772" data-name="Trazado 100772" d="M539.253,106.529a.324.324,0,0,0,.065-.1,6.018,6.018,0,0,0,.315-1.172,3.4,3.4,0,0,1,.725-1.731,9.963,9.963,0,0,1,.873-.92,5.041,5.041,0,0,0,1.546-2.217,10.717,10.717,0,0,0-.083-5.264,10.459,10.459,0,0,0-.376-1.129c-.23-.622-.661-1.788-.518-2.048a.262.262,0,0,0-.147-.391.422.422,0,0,0-.479.155c-.295.443-.024,1.259.453,2.536a10.2,10.2,0,0,1,.361,1.071,10.67,10.67,0,0,1,.1,5.033,4.286,4.286,0,0,1-1.366,1.926,11.057,11.057,0,0,0-.941.995,3.98,3.98,0,0,0-.857,2.007,5.525,5.525,0,0,1-.286,1.077.236.236,0,0,0,.226.325A.479.479,0,0,0,539.253,106.529Z" fill="#fff"/>
      </g>
    </g>
    <g id="Grupo_53899" data-name="Grupo 53899">
      <g id="Grupo_53875" data-name="Grupo 53875">
        <g id="Grupo_53874" data-name="Grupo 53874">
          <g id="Grupo_53873" data-name="Grupo 53873">
            <g id="Grupo_53871" data-name="Grupo 53871">
              <rect id="Rectángulo_5217" data-name="Rectángulo 5217" width="50.622" height="84.963" transform="translate(540.379 33.253)" fill="#fff"/>
              <rect id="Rectángulo_5218" data-name="Rectángulo 5218" width="50.622" height="43.095" transform="translate(540.379 33.253)" fill="#dee8f3"/>
              <path id="Trazado_100773" data-name="Trazado 100773" d="M542.193,76.029V36.3h46.995V76.029H591V33.253H540.379V76.029Z" fill="#fff"/>
              <g id="Grupo_53864" data-name="Grupo 53864">
                <g id="Grupo_53863" data-name="Grupo 53863">
                  <path id="Trazado_100774" data-name="Trazado 100774" d="M564.788,90.02H544.644V80.446h20.144Zm-19.144-1h18.144V81.446H545.644Z" fill="#d0d1de"/>
                </g>
                <rect id="Rectángulo_5219" data-name="Rectángulo 5219" width="3.746" height="1.213" transform="translate(552.843 82.146)" fill="#d0d1de"/>
              </g>
              <g id="Grupo_53866" data-name="Grupo 53866">
                <g id="Grupo_53865" data-name="Grupo 53865">
                  <path id="Trazado_100775" data-name="Trazado 100775" d="M587.407,115.672H567.263V80.446h20.144Zm-19.144-1h18.144V81.446H568.263Z" fill="#d0d1de"/>
                </g>
                <rect id="Rectángulo_5220" data-name="Rectángulo 5220" width="3.747" height="1.213" transform="translate(575.462 82.146)" fill="#d0d1de"/>
              </g>
              <g id="Grupo_53868" data-name="Grupo 53868">
                <g id="Grupo_53867" data-name="Grupo 53867">
                  <path id="Trazado_100776" data-name="Trazado 100776" d="M564.788,102.846H544.644V93.271h20.144Zm-19.144-1h18.144V94.271H545.644Z" fill="#d0d1de"/>
                </g>
                <rect id="Rectángulo_5221" data-name="Rectángulo 5221" width="3.746" height="1.213" transform="translate(552.843 94.972)" fill="#d0d1de"/>
              </g>
              <g id="Grupo_53870" data-name="Grupo 53870">
                <g id="Grupo_53869" data-name="Grupo 53869">
                  <path id="Trazado_100777" data-name="Trazado 100777" d="M564.788,115.672H544.644V106.1h20.144Zm-19.144-1h18.144V107.1H545.644Z" fill="#d0d1de"/>
                </g>
                <rect id="Rectángulo_5222" data-name="Rectángulo 5222" width="3.746" height="1.213" transform="translate(552.843 107.798)" fill="#d0d1de"/>
              </g>
            </g>
            <rect id="Rectángulo_5223" data-name="Rectángulo 5223" width="53.245" height="2.157" transform="translate(539.068 118.124)" fill="#8397ca"/>
            <rect id="Rectángulo_5224" data-name="Rectángulo 5224" width="53.245" height="2.157" transform="translate(539.068 75.094)" fill="#8397ca"/>
            <g id="Grupo_53872" data-name="Grupo 53872">
              <path id="Trazado_100778" data-name="Trazado 100778" d="M546.835,122.1h4.3l.963-1.823h-6.228Z" fill="#110239"/>
              <path id="Trazado_100779" data-name="Trazado 100779" d="M576.712,120.281l.963,1.823h4.3l.963-1.823Z" fill="#110239"/>
            </g>
          </g>
        </g>
        <rect id="Rectángulo_5225" data-name="Rectángulo 5225" width="48.93" height="1.273" transform="translate(541.062 55.914)" fill="#fff"/>
      </g>
      <g id="Grupo_53876" data-name="Grupo 53876">
        <path id="Trazado_100780" data-name="Trazado 100780" d="M550.585,63.795V60.932h-1.567v2.863a5.419,5.419,0,0,0-4.413,5.1,5.2,5.2,0,1,0,10.393,0A5.419,5.419,0,0,0,550.585,63.795Z" fill="#fff" opacity="0.32" style="mix-blend-mode: screen;isolation: isolate"/>
        <path id="Trazado_100781" data-name="Trazado 100781" d="M551.609,67.372a4.341,4.341,0,0,1-2.838-.226,5.721,5.721,0,0,0-3.5-.676,4.8,4.8,0,0,0-.67,2.42,5.2,5.2,0,1,0,10.393,0,4.867,4.867,0,0,0-.934-2.83A13.889,13.889,0,0,1,551.609,67.372Z" fill="#56b2e5"/>
        <path id="Trazado_100782" data-name="Trazado 100782" d="M550.992,63.126V60.932h-.407v2.863A5.419,5.419,0,0,1,555,68.89a5.2,5.2,0,1,1-10.393,0,5.419,5.419,0,0,1,4.413-5.1V60.932h-.407v2.194a6.024,6.024,0,1,0,2.381,0Z" fill="#fff"/>
        <rect id="Rectángulo_5226" data-name="Rectángulo 5226" width="2.38" height="1.091" transform="translate(548.611 60.932)" fill="#dfeaeb"/>
        <rect id="Rectángulo_5227" data-name="Rectángulo 5227" width="3.85" height="1.094" rx="0.541" transform="translate(547.877 59.986)" fill="#fff"/>
        <path id="Trazado_100783" data-name="Trazado 100783" d="M547.181,68.077a.568.568,0,1,1-.567-.568A.568.568,0,0,1,547.181,68.077Z" fill="#6fc6ec"/>
        <circle id="Elipse_4073" data-name="Elipse 4073" cx="0.264" cy="0.264" r="0.264" transform="translate(547.404 69.381)" fill="#6fc6ec"/>
        <path id="Trazado_100784" data-name="Trazado 100784" d="M550.992,68.894a.73.73,0,1,1-.73-.73A.73.73,0,0,1,550.992,68.894Z" fill="#6fc6ec"/>
        <path id="Trazado_100785" data-name="Trazado 100785" d="M553.12,68.691a.385.385,0,1,1-.385-.385A.385.385,0,0,1,553.12,68.691Z" fill="#6fc6ec"/>
        <path id="Trazado_100786" data-name="Trazado 100786" d="M554.012,70.641a.771.771,0,1,1-.77-.771A.77.77,0,0,1,554.012,70.641Z" fill="#6fc6ec"/>
        <path id="Trazado_100787" data-name="Trazado 100787" d="M554.458,67.414a.446.446,0,1,1-.446-.446A.446.446,0,0,1,554.458,67.414Z" fill="#6fc6ec"/>
        <path id="Trazado_100788" data-name="Trazado 100788" d="M551.823,71.8a.415.415,0,1,1-.416-.416A.415.415,0,0,1,551.823,71.8Z" fill="#6fc6ec"/>
        <path id="Trazado_100789" data-name="Trazado 100789" d="M549.127,72a.973.973,0,1,1-.973-.972A.973.973,0,0,1,549.127,72Z" fill="#6fc6ec"/>
        <path id="Trazado_100790" data-name="Trazado 100790" d="M547.181,70.641a.568.568,0,1,1-.567-.568A.567.567,0,0,1,547.181,70.641Z" fill="#6fc6ec"/>
        <path id="Trazado_100791" data-name="Trazado 100791" d="M550.485,70.658a.405.405,0,1,1-.4-.406A.4.4,0,0,1,550.485,70.658Z" fill="#6fc6ec"/>
        <path id="Trazado_100792" data-name="Trazado 100792" d="M550.349,72.958a.273.273,0,1,1-.274-.273A.274.274,0,0,1,550.349,72.958Z" fill="#6fc6ec"/>
      </g>
      <g id="Grupo_53877" data-name="Grupo 53877">
        <path id="Trazado_100793" data-name="Trazado 100793" d="M563.707,63.795V60.932H562.14v2.863a5.419,5.419,0,0,0-4.413,5.1,5.2,5.2,0,1,0,10.394,0A5.419,5.419,0,0,0,563.707,63.795Z" fill="#fff" opacity="0.32" style="mix-blend-mode: screen;isolation: isolate"/>
        <path id="Trazado_100794" data-name="Trazado 100794" d="M564.626,67.051a.8.8,0,0,1-.266.038,2.3,2.3,0,0,1-.955-.292c-.549-.286-.916-.82-1.472-1.1a1.806,1.806,0,0,0-1.472-.075c-.362.157-.661.423-1,.613a2.9,2.9,0,0,1-1.06.235,4.8,4.8,0,0,0-.67,2.42,5.2,5.2,0,1,0,10.394,0,4.775,4.775,0,0,0-.5-2.1c-.189-.384-.528-1.192-1.077-1-.488.167-.863.7-1.318.954A3.439,3.439,0,0,1,564.626,67.051Z" fill="#fc3"/>
        <path id="Trazado_100795" data-name="Trazado 100795" d="M564.114,63.126V60.932h-.407v2.863a5.419,5.419,0,0,1,4.414,5.1,5.2,5.2,0,1,1-10.394,0,5.419,5.419,0,0,1,4.413-5.1V60.932h-.406v2.194a6.024,6.024,0,1,0,2.38,0Z" fill="#fff"/>
        <rect id="Rectángulo_5228" data-name="Rectángulo 5228" width="2.38" height="1.091" transform="translate(561.734 60.932)" fill="#dfeaeb"/>
        <rect id="Rectángulo_5229" data-name="Rectángulo 5229" width="3.849" height="1.094" rx="0.541" transform="translate(560.999 59.986)" fill="#fff"/>
        <path id="Trazado_100796" data-name="Trazado 100796" d="M560.3,68.077a.567.567,0,1,1-.567-.568A.568.568,0,0,1,560.3,68.077Z" fill="#ffe081"/>
        <circle id="Elipse_4074" data-name="Elipse 4074" cx="0.264" cy="0.264" r="0.264" transform="translate(560.526 69.381)" fill="#ffe081"/>
        <path id="Trazado_100797" data-name="Trazado 100797" d="M564.114,68.894a.729.729,0,1,1-.73-.73A.73.73,0,0,1,564.114,68.894Z" fill="#ffe081"/>
        <path id="Trazado_100798" data-name="Trazado 100798" d="M566.242,68.691a.385.385,0,1,1-.385-.385A.385.385,0,0,1,566.242,68.691Z" fill="#ffe081"/>
        <path id="Trazado_100799" data-name="Trazado 100799" d="M567.134,70.641a.77.77,0,1,1-.77-.771A.77.77,0,0,1,567.134,70.641Z" fill="#ffe081"/>
        <path id="Trazado_100800" data-name="Trazado 100800" d="M567.58,67.414a.446.446,0,1,1-.446-.446A.445.445,0,0,1,567.58,67.414Z" fill="#ffe081"/>
        <path id="Trazado_100801" data-name="Trazado 100801" d="M564.945,71.8a.415.415,0,1,1-.415-.416A.415.415,0,0,1,564.945,71.8Z" fill="#ffe081"/>
        <path id="Trazado_100802" data-name="Trazado 100802" d="M562.249,72a.973.973,0,1,1-.973-.972A.972.972,0,0,1,562.249,72Z" fill="#ffe081"/>
        <path id="Trazado_100803" data-name="Trazado 100803" d="M560.3,70.641a.567.567,0,1,1-.567-.568A.567.567,0,0,1,560.3,70.641Z" fill="#ffe081"/>
        <circle id="Elipse_4075" data-name="Elipse 4075" cx="0.405" cy="0.405" r="0.405" transform="translate(562.797 70.252)" fill="#ffe081"/>
        <path id="Trazado_100804" data-name="Trazado 100804" d="M563.471,72.958a.273.273,0,1,1-.274-.273A.274.274,0,0,1,563.471,72.958Z" fill="#ffe081"/>
      </g>
      <g id="Grupo_53878" data-name="Grupo 53878">
        <path id="Trazado_100805" data-name="Trazado 100805" d="M580.362,44.652V41.789h1.567v2.863a5.418,5.418,0,0,1,4.413,5.1,5.2,5.2,0,0,1-10.393,0A5.419,5.419,0,0,1,580.362,44.652Z" fill="#fff" opacity="0.32" style="mix-blend-mode: screen;isolation: isolate"/>
        <path id="Trazado_100806" data-name="Trazado 100806" d="M579.338,48.228A4.335,4.335,0,0,0,582.176,48a5.734,5.734,0,0,1,3.5-.676,4.809,4.809,0,0,1,.67,2.421,5.2,5.2,0,0,1-10.393,0,4.872,4.872,0,0,1,.934-2.831A13.757,13.757,0,0,0,579.338,48.228Z" fill="#f34f95"/>
        <path id="Trazado_100807" data-name="Trazado 100807" d="M579.955,43.983V41.789h.407v2.863a5.419,5.419,0,0,0-4.413,5.1,5.2,5.2,0,0,0,10.393,0,5.418,5.418,0,0,0-4.413-5.1V41.789h.407v2.194a6.025,6.025,0,1,1-2.381,0Z" fill="#fff"/>
        <rect id="Rectángulo_5230" data-name="Rectángulo 5230" width="2.381" height="1.091" transform="translate(579.955 41.789)" fill="#dfeaeb"/>
        <rect id="Rectángulo_5231" data-name="Rectángulo 5231" width="3.849" height="1.094" rx="0.541" transform="translate(579.221 40.842)" fill="#fff"/>
        <path id="Trazado_100808" data-name="Trazado 100808" d="M583.766,48.934a.568.568,0,1,0,.567-.568A.567.567,0,0,0,583.766,48.934Z" fill="#fc889f"/>
        <path id="Trazado_100809" data-name="Trazado 100809" d="M583.016,50.5a.264.264,0,1,0,.263-.264A.263.263,0,0,0,583.016,50.5Z" fill="#fc889f"/>
        <path id="Trazado_100810" data-name="Trazado 100810" d="M579.955,49.751a.729.729,0,1,0,.73-.73A.729.729,0,0,0,579.955,49.751Z" fill="#fc889f"/>
        <path id="Trazado_100811" data-name="Trazado 100811" d="M577.827,49.548a.385.385,0,1,0,.385-.385A.385.385,0,0,0,577.827,49.548Z" fill="#fc889f"/>
        <path id="Trazado_100812" data-name="Trazado 100812" d="M576.935,51.5a.77.77,0,1,0,.77-.77A.77.77,0,0,0,576.935,51.5Z" fill="#fc889f"/>
        <path id="Trazado_100813" data-name="Trazado 100813" d="M576.489,48.271a.446.446,0,1,0,.446-.446A.446.446,0,0,0,576.489,48.271Z" fill="#fc889f"/>
        <path id="Trazado_100814" data-name="Trazado 100814" d="M579.124,52.659a.415.415,0,1,0,.415-.415A.415.415,0,0,0,579.124,52.659Z" fill="#fc889f"/>
        <path id="Trazado_100815" data-name="Trazado 100815" d="M581.82,52.852a.973.973,0,1,0,.973-.973A.973.973,0,0,0,581.82,52.852Z" fill="#fc889f"/>
        <path id="Trazado_100816" data-name="Trazado 100816" d="M583.766,51.5a.568.568,0,1,0,.567-.567A.567.567,0,0,0,583.766,51.5Z" fill="#fc889f"/>
        <circle id="Elipse_4076" data-name="Elipse 4076" cx="0.405" cy="0.405" r="0.405" transform="translate(580.462 51.109)" fill="#fc889f"/>
        <path id="Trazado_100817" data-name="Trazado 100817" d="M580.6,53.815a.273.273,0,1,0,.274-.274A.273.273,0,0,0,580.6,53.815Z" fill="#fc889f"/>
      </g>
      <g id="Grupo_53890" data-name="Grupo 53890">
        <g id="Grupo_53880" data-name="Grupo 53880">
          <g id="Grupo_53879" data-name="Grupo 53879">
            <path id="Trazado_100818" data-name="Trazado 100818" d="M550.715,39.5v11.18c0,.686-.464.932-1.037.932h-.021c-.573,0-1.038-.246-1.038-.932V39.5h-.5V51.318a1.537,1.537,0,0,0,1.537,1.537h.031a1.537,1.537,0,0,0,1.537-1.537V39.5Z" fill="#fff"/>
            <rect id="Rectángulo_5232" data-name="Rectángulo 5232" width="0.505" height="1.048" transform="translate(550.716 39.501)" fill="#dfeaeb"/>
            <rect id="Rectángulo_5233" data-name="Rectángulo 5233" width="0.505" height="1.048" transform="translate(548.115 39.501)" fill="#dfeaeb"/>
            <path id="Trazado_100819" data-name="Trazado 100819" d="M549.678,51.613h-.021c-.573,0-1.038-.246-1.038-.932V39.5h2.1v11.18C550.715,51.367,550.251,51.613,549.678,51.613Z" fill="#fff" opacity="0.32" style="mix-blend-mode: screen;isolation: isolate"/>
            <path id="Trazado_100820" data-name="Trazado 100820" d="M548.619,44.748v5.933c0,.686.465.932,1.038.932h.021c.573,0,1.037-.246,1.037-.932V44.748Z" fill="#fc3"/>
          </g>
          <rect id="Rectángulo_5234" data-name="Rectángulo 5234" width="3.843" height="0.796" rx="0.394" transform="translate(547.746 39.152)" fill="#fff"/>
          <path id="Trazado_100821" data-name="Trazado 100821" d="M549.8,45.906a.271.271,0,1,1-.272-.271A.272.272,0,0,1,549.8,45.906Z" fill="#ffe081"/>
          <circle id="Elipse_4077" data-name="Elipse 4077" cx="0.437" cy="0.437" r="0.437" transform="translate(548.842 47.44)" fill="#ffe081"/>
          <path id="Trazado_100822" data-name="Trazado 100822" d="M550.075,49.065a.228.228,0,1,1-.228-.228A.228.228,0,0,1,550.075,49.065Z" fill="#ffe081"/>
          <circle id="Elipse_4078" data-name="Elipse 4078" cx="0.417" cy="0.417" r="0.417" transform="translate(549.531 49.982)" fill="#ffe081"/>
          <path id="Trazado_100823" data-name="Trazado 100823" d="M550.5,47.022a.281.281,0,1,1-.282-.281A.282.282,0,0,1,550.5,47.022Z" fill="#ffe081"/>
          <path id="Trazado_100824" data-name="Trazado 100824" d="M549.26,49.752a.23.23,0,1,1-.23-.229A.23.23,0,0,1,549.26,49.752Z" fill="#ffe081"/>
        </g>
        <g id="Grupo_53882" data-name="Grupo 53882">
          <g id="Grupo_53881" data-name="Grupo 53881">
            <path id="Trazado_100825" data-name="Trazado 100825" d="M556.026,39.5v11.18c0,.686-.465.932-1.038.932h-.021c-.573,0-1.037-.246-1.037-.932V39.5h-.505V51.318a1.537,1.537,0,0,0,1.537,1.537h.031a1.537,1.537,0,0,0,1.537-1.537V39.5Z" fill="#fff"/>
            <rect id="Rectángulo_5235" data-name="Rectángulo 5235" width="0.505" height="1.048" transform="translate(556.026 39.501)" fill="#dfeaeb"/>
            <rect id="Rectángulo_5236" data-name="Rectángulo 5236" width="0.505" height="1.048" transform="translate(553.425 39.501)" fill="#dfeaeb"/>
            <path id="Trazado_100826" data-name="Trazado 100826" d="M554.988,51.613h-.021c-.573,0-1.037-.246-1.037-.932V39.5h2.1v11.18C556.026,51.367,555.561,51.613,554.988,51.613Z" fill="#fff" opacity="0.32" style="mix-blend-mode: screen;isolation: isolate"/>
            <path id="Trazado_100827" data-name="Trazado 100827" d="M553.93,46.087v4.594c0,.686.464.932,1.037.932h.021c.573,0,1.038-.246,1.038-.932V46.087Z" fill="#56b2e5"/>
          </g>
          <rect id="Rectángulo_5237" data-name="Rectángulo 5237" width="3.843" height="0.796" rx="0.394" transform="translate(553.056 39.152)" fill="#fff"/>
          <circle id="Elipse_4079" data-name="Elipse 4079" cx="0.437" cy="0.437" r="0.437" transform="translate(554.949 46.503)" fill="#6fc6ec"/>
          <path id="Trazado_100828" data-name="Trazado 100828" d="M555.613,48.461a.228.228,0,1,1-.228-.228A.228.228,0,0,1,555.613,48.461Z" fill="#6fc6ec"/>
          <circle id="Elipse_4080" data-name="Elipse 4080" cx="0.367" cy="0.367" r="0.367" transform="translate(554.289 49.928)" fill="#6fc6ec"/>
          <path id="Trazado_100829" data-name="Trazado 100829" d="M555.385,49.293a.315.315,0,1,1-.315-.316A.316.316,0,0,1,555.385,49.293Z" fill="#6fc6ec"/>
          <circle id="Elipse_4081" data-name="Elipse 4081" cx="0.281" cy="0.281" r="0.281" transform="translate(554.289 47.44)" fill="#6fc6ec"/>
          <path id="Trazado_100830" data-name="Trazado 100830" d="M555.615,50.817a.229.229,0,1,1-.23-.23A.229.229,0,0,1,555.615,50.817Z" fill="#6fc6ec"/>
        </g>
        <g id="Grupo_53884" data-name="Grupo 53884">
          <g id="Grupo_53883" data-name="Grupo 53883">
            <path id="Trazado_100831" data-name="Trazado 100831" d="M561.336,39.5v11.18c0,.686-.464.932-1.037.932h-.021c-.573,0-1.038-.246-1.038-.932V39.5h-.505V51.318a1.538,1.538,0,0,0,1.538,1.537h.031a1.537,1.537,0,0,0,1.537-1.537V39.5Z" fill="#fff"/>
            <rect id="Rectángulo_5238" data-name="Rectángulo 5238" width="0.505" height="1.048" transform="translate(561.336 39.501)" fill="#dfeaeb"/>
            <rect id="Rectángulo_5239" data-name="Rectángulo 5239" width="0.505" height="1.048" transform="translate(558.735 39.501)" fill="#dfeaeb"/>
            <path id="Trazado_100832" data-name="Trazado 100832" d="M560.3,51.613h-.021c-.573,0-1.038-.246-1.038-.932V39.5h2.1v11.18C561.336,51.367,560.872,51.613,560.3,51.613Z" fill="#fff" opacity="0.32" style="mix-blend-mode: screen;isolation: isolate"/>
            <path id="Trazado_100833" data-name="Trazado 100833" d="M559.24,45.34v5.341c0,.686.465.932,1.038.932h.021c.573,0,1.037-.246,1.037-.932V45.34Z" fill="#fc3"/>
          </g>
          <rect id="Rectángulo_5240" data-name="Rectángulo 5240" width="3.843" height="0.796" rx="0.394" transform="translate(558.367 39.152)" fill="#fff"/>
          <path id="Trazado_100834" data-name="Trazado 100834" d="M560.021,46.886a.271.271,0,1,1-.272-.271A.272.272,0,0,1,560.021,46.886Z" fill="#ffe081"/>
          <circle id="Elipse_4082" data-name="Elipse 4082" cx="0.437" cy="0.437" r="0.437" transform="translate(560.24 45.741)" fill="#ffe081"/>
          <path id="Trazado_100835" data-name="Trazado 100835" d="M560.57,48.233a.388.388,0,1,1-.389-.389A.389.389,0,0,1,560.57,48.233Z" fill="#ffe081"/>
          <circle id="Elipse_4083" data-name="Elipse 4083" cx="0.417" cy="0.417" r="0.417" transform="translate(559.822 50.361)" fill="#ffe081"/>
          <path id="Trazado_100836" data-name="Trazado 100836" d="M561.17,47.473a.281.281,0,1,1-.281-.282A.281.281,0,0,1,561.17,47.473Z" fill="#ffe081"/>
          <path id="Trazado_100837" data-name="Trazado 100837" d="M559.979,49.666a.229.229,0,1,1-.23-.229A.23.23,0,0,1,559.979,49.666Z" fill="#ffe081"/>
          <path id="Trazado_100838" data-name="Trazado 100838" d="M561.029,49.437a.229.229,0,1,1-.23-.23A.229.229,0,0,1,561.029,49.437Z" fill="#ffe081"/>
        </g>
        <g id="Grupo_53886" data-name="Grupo 53886">
          <g id="Grupo_53885" data-name="Grupo 53885">
            <path id="Trazado_100839" data-name="Trazado 100839" d="M566.647,39.5v11.18c0,.686-.465.932-1.038.932h-.021c-.573,0-1.038-.246-1.038-.932V39.5h-.5V51.318a1.537,1.537,0,0,0,1.537,1.537h.031a1.537,1.537,0,0,0,1.537-1.537V39.5Z" fill="#fff"/>
            <rect id="Rectángulo_5241" data-name="Rectángulo 5241" width="0.505" height="1.048" transform="translate(566.647 39.501)" fill="#dfeaeb"/>
            <rect id="Rectángulo_5242" data-name="Rectángulo 5242" width="0.505" height="1.048" transform="translate(564.046 39.501)" fill="#dfeaeb"/>
            <path id="Trazado_100840" data-name="Trazado 100840" d="M565.609,51.613h-.021c-.573,0-1.038-.246-1.038-.932V39.5h2.1v11.18C566.647,51.367,566.182,51.613,565.609,51.613Z" fill="#fff" opacity="0.32" style="mix-blend-mode: screen;isolation: isolate"/>
            <path id="Trazado_100841" data-name="Trazado 100841" d="M564.55,44.187v6.494c0,.686.465.932,1.038.932h.021c.573,0,1.038-.246,1.038-.932V44.187Z" fill="#56b2e5"/>
          </g>
          <rect id="Rectángulo_5243" data-name="Rectángulo 5243" width="3.843" height="0.796" rx="0.394" transform="translate(563.677 39.152)" fill="#fff"/>
          <path id="Trazado_100842" data-name="Trazado 100842" d="M566.142,45.829a.272.272,0,1,1-.272-.272A.271.271,0,0,1,566.142,45.829Z" fill="#6fc6ec"/>
          <circle id="Elipse_4084" data-name="Elipse 4084" cx="0.437" cy="0.437" r="0.437" transform="translate(565.57 49.422)" fill="#6fc6ec"/>
          <path id="Trazado_100843" data-name="Trazado 100843" d="M565.569,50.817a.228.228,0,1,1-.228-.228A.228.228,0,0,1,565.569,50.817Z" fill="#6fc6ec"/>
          <circle id="Elipse_4085" data-name="Elipse 4085" cx="0.417" cy="0.417" r="0.417" transform="translate(564.924 46.24)" fill="#6fc6ec"/>
          <circle id="Elipse_4086" data-name="Elipse 4086" cx="0.344" cy="0.344" r="0.344" transform="translate(565.761 47.314)" fill="#6fc6ec"/>
          <path id="Trazado_100844" data-name="Trazado 100844" d="M565.4,44.971a.282.282,0,1,1-.282-.281A.281.281,0,0,1,565.4,44.971Z" fill="#6fc6ec"/>
          <path id="Trazado_100845" data-name="Trazado 100845" d="M565.685,48.594a.388.388,0,1,1-.387-.388A.387.387,0,0,1,565.685,48.594Z" fill="#6fc6ec"/>
          <path id="Trazado_100846" data-name="Trazado 100846" d="M565.191,49.752a.229.229,0,1,1-.23-.229A.23.23,0,0,1,565.191,49.752Z" fill="#6fc6ec"/>
        </g>
        <g id="Grupo_53889" data-name="Grupo 53889">
          <g id="Grupo_53887" data-name="Grupo 53887">
            <rect id="Rectángulo_5244" data-name="Rectángulo 5244" width="1.454" height="12.96" transform="translate(545.337 41.753)" fill="#8397ca"/>
            <rect id="Rectángulo_5245" data-name="Rectángulo 5245" width="1.454" height="12.96" transform="translate(568.475 41.753)" fill="#8397ca"/>
          </g>
          <g id="Grupo_53888" data-name="Grupo 53888" style="mix-blend-mode: multiply;isolation: isolate">
            <rect id="Rectángulo_5246" data-name="Rectángulo 5246" width="1.454" height="2.782" transform="translate(545.337 41.753)" fill="#8397a9"/>
            <rect id="Rectángulo_5247" data-name="Rectángulo 5247" width="1.454" height="2.782" transform="translate(568.475 41.753)" fill="#8397a9"/>
          </g>
          <rect id="Rectángulo_5248" data-name="Rectángulo 5248" width="27.88" height="1.707" transform="translate(543.693 54.207)" fill="#fff"/>
          <rect id="Rectángulo_5249" data-name="Rectángulo 5249" width="27.88" height="1.707" transform="translate(543.693 41.279)" fill="#fff"/>
        </g>
      </g>
      <g id="Grupo_53898" data-name="Grupo 53898">
        <g id="Grupo_53892" data-name="Grupo 53892">
          <g id="Grupo_53891" data-name="Grupo 53891">
            <path id="Trazado_100847" data-name="Trazado 100847" d="M578.086,58.668V69.847c0,.687-.465.932-1.038.932h-.021c-.573,0-1.037-.245-1.037-.932V58.668h-.505V70.484a1.537,1.537,0,0,0,1.537,1.537h.031a1.537,1.537,0,0,0,1.537-1.537V58.668Z" fill="#fff"/>
            <rect id="Rectángulo_5250" data-name="Rectángulo 5250" width="0.505" height="1.048" transform="translate(578.086 58.668)" fill="#dfeaeb"/>
            <rect id="Rectángulo_5251" data-name="Rectángulo 5251" width="0.505" height="1.048" transform="translate(575.485 58.668)" fill="#dfeaeb"/>
            <path id="Trazado_100848" data-name="Trazado 100848" d="M577.048,70.779h-.021c-.573,0-1.037-.245-1.037-.932V58.668h2.1V69.847C578.086,70.534,577.621,70.779,577.048,70.779Z" fill="#fff" opacity="0.32" style="mix-blend-mode: screen;isolation: isolate"/>
            <path id="Trazado_100849" data-name="Trazado 100849" d="M575.99,63.914v5.933c0,.687.464.932,1.037.932h.021c.573,0,1.038-.245,1.038-.932V63.914Z" fill="#fc3"/>
          </g>
          <rect id="Rectángulo_5252" data-name="Rectángulo 5252" width="3.843" height="0.796" rx="0.394" transform="translate(575.116 58.319)" fill="#fff"/>
          <path id="Trazado_100850" data-name="Trazado 100850" d="M577.174,65.073a.272.272,0,1,1-.272-.272A.272.272,0,0,1,577.174,65.073Z" fill="#ffe081"/>
          <path id="Trazado_100851" data-name="Trazado 100851" d="M577.086,67.043a.436.436,0,1,1-.436-.437A.437.437,0,0,1,577.086,67.043Z" fill="#ffe081"/>
          <path id="Trazado_100852" data-name="Trazado 100852" d="M577.445,68.232a.228.228,0,1,1-.228-.228A.228.228,0,0,1,577.445,68.232Z" fill="#ffe081"/>
          <circle id="Elipse_4087" data-name="Elipse 4087" cx="0.417" cy="0.417" r="0.417" transform="translate(576.902 69.149)" fill="#ffe081"/>
          <path id="Trazado_100853" data-name="Trazado 100853" d="M577.872,66.189a.281.281,0,1,1-.281-.281A.281.281,0,0,1,577.872,66.189Z" fill="#ffe081"/>
          <path id="Trazado_100854" data-name="Trazado 100854" d="M576.63,68.919a.229.229,0,1,1-.23-.229A.23.23,0,0,1,576.63,68.919Z" fill="#ffe081"/>
        </g>
        <g id="Grupo_53894" data-name="Grupo 53894">
          <g id="Grupo_53893" data-name="Grupo 53893">
            <path id="Trazado_100855" data-name="Trazado 100855" d="M583.4,58.668V69.847c0,.687-.464.932-1.037.932h-.021c-.573,0-1.038-.245-1.038-.932V58.668h-.505V70.484a1.538,1.538,0,0,0,1.538,1.537h.031a1.537,1.537,0,0,0,1.537-1.537V58.668Z" fill="#fff"/>
            <rect id="Rectángulo_5253" data-name="Rectángulo 5253" width="0.505" height="1.048" transform="translate(583.396 58.668)" fill="#dfeaeb"/>
            <rect id="Rectángulo_5254" data-name="Rectángulo 5254" width="0.505" height="1.048" transform="translate(580.795 58.668)" fill="#dfeaeb"/>
            <path id="Trazado_100856" data-name="Trazado 100856" d="M582.359,70.779h-.021c-.573,0-1.038-.245-1.038-.932V58.668h2.1V69.847C583.4,70.534,582.932,70.779,582.359,70.779Z" fill="#fff" opacity="0.32" style="mix-blend-mode: screen;isolation: isolate"/>
            <path id="Trazado_100857" data-name="Trazado 100857" d="M581.3,64.021V69.64c0,.839.465,1.139,1.038,1.139h.021c.573,0,1.037-.3,1.037-1.139V64.021Z" fill="#f34f95"/>
          </g>
          <rect id="Rectángulo_5255" data-name="Rectángulo 5255" width="3.843" height="0.796" rx="0.394" transform="translate(580.427 58.319)" fill="#fff"/>
          <circle id="Elipse_4088" data-name="Elipse 4088" cx="0.437" cy="0.437" r="0.437" transform="translate(582.319 65.67)" fill="#fc889f"/>
          <path id="Trazado_100858" data-name="Trazado 100858" d="M582.984,67.627a.228.228,0,1,1-.228-.228A.228.228,0,0,1,582.984,67.627Z" fill="#fc889f"/>
          <path id="Trazado_100859" data-name="Trazado 100859" d="M582.394,69.462a.367.367,0,1,1-.368-.367A.367.367,0,0,1,582.394,69.462Z" fill="#fc889f"/>
          <circle id="Elipse_4089" data-name="Elipse 4089" cx="0.316" cy="0.316" r="0.316" transform="translate(582.124 68.144)" fill="#fc889f"/>
          <path id="Trazado_100860" data-name="Trazado 100860" d="M582.222,66.888a.281.281,0,1,1-.281-.282A.281.281,0,0,1,582.222,66.888Z" fill="#fc889f"/>
          <circle id="Elipse_4090" data-name="Elipse 4090" cx="0.23" cy="0.23" r="0.23" transform="translate(582.526 69.754)" fill="#fc889f"/>
        </g>
        <g id="Grupo_53897" data-name="Grupo 53897">
          <g id="Grupo_53895" data-name="Grupo 53895">
            <rect id="Rectángulo_5256" data-name="Rectángulo 5256" width="1.454" height="12.96" transform="translate(572.707 60.919)" fill="#8397ca"/>
            <rect id="Rectángulo_5257" data-name="Rectángulo 5257" width="1.454" height="12.96" transform="translate(585.358 60.919)" fill="#8397ca"/>
          </g>
          <g id="Grupo_53896" data-name="Grupo 53896" style="mix-blend-mode: multiply;isolation: isolate">
            <rect id="Rectángulo_5258" data-name="Rectángulo 5258" width="1.454" height="2.782" transform="translate(572.707 60.919)" fill="#8397a9"/>
            <rect id="Rectángulo_5259" data-name="Rectángulo 5259" width="1.454" height="2.782" transform="translate(585.358 60.919)" fill="#8397a9"/>
          </g>
          <rect id="Rectángulo_5260" data-name="Rectángulo 5260" width="17.392" height="1.707" transform="translate(571.064 73.374)" fill="#fff"/>
          <rect id="Rectángulo_5261" data-name="Rectángulo 5261" width="17.392" height="1.707" transform="translate(571.064 60.445)" fill="#fff"/>
        </g>
      </g>
    </g>
    <g id="Grupo_53902" data-name="Grupo 53902">
      <path id="Trazado_100861" data-name="Trazado 100861" d="M513.893,117.86a12.3,12.3,0,0,0,.3,3.333c.384,1.065,3.121,2.695,3.121,2.695s-2.476.479-3.427-.256-3.207-4.58-3.06-5.081.831-2.045.831-2.045Z" fill="#f88667"/>
      <path id="Trazado_100862" data-name="Trazado 100862" d="M528.646,116.444a12.292,12.292,0,0,0,.3,3.332c.384,1.066,3.121,2.695,3.121,2.695s-2.477.48-3.427-.255-3.207-4.581-3.06-5.081.831-2.045.831-2.045Z" fill="#f88667"/>
      <path id="Trazado_100863" data-name="Trazado 100863" d="M511.391,117.86s-2.078.693-1.559,2.511a15.794,15.794,0,0,1,.433,4.155h.606s.13-2.6.52-2.51,1.255,2.51,2.121,2.51H518.4s.519-.519,0-.823-3.835-.173-4.212-.908S511.391,117.86,511.391,117.86Z" fill="#110239"/>
      <path id="Trazado_100864" data-name="Trazado 100864" d="M526.261,116.385s-2.078.693-1.559,2.511a15.8,15.8,0,0,1,.433,4.155h.606s.13-2.6.52-2.51,1.255,2.51,2.121,2.51h4.891s.519-.52,0-.822-3.835-.174-4.212-.91S526.261,116.385,526.261,116.385Z" fill="#110239"/>
      <path id="Trazado_100865" data-name="Trazado 100865" d="M524.886,71.2s-5.82,2.045-10.039,0a10.008,10.008,0,0,0-2.959,6.521,23.772,23.772,0,0,0,.172,4.921c.292,2.436,1,8.82.559,12.758-.649,5.767-2.44,22.523-2.44,22.523l4.012.624s3.686-20.222,4.122-22.714,1.839-12.618,1.839-12.618,2.5,7.83,3.141,11.621c.1.582,1.88,22.023,1.88,22.023l3.888-.023s-.217-23.818-.217-22.564C528.844,94.787,527.792,78.213,524.886,71.2Z" fill="#56b2e5"/>
      <path id="Trazado_100866" data-name="Trazado 100866" d="M520.76,61.151c-4.388.776-7.866,1.859-10.861-.461a8.536,8.536,0,0,1-2.993-4.709c-.938-3.75-.157-5.4,1.022-6.988,1.51-2.031,2.642-3.153,2.557-5.71s-.212-6.642,2.856-8.858,7.114-.259,7.114-.259c2.006.69,3.736,3.068,3.52,6.683a17.168,17.168,0,0,0,.455,4.775,19.3,19.3,0,0,0,3.076,5.332,4.807,4.807,0,0,1,.638,5.272C526.687,59.423,524.347,60.517,520.76,61.151Z" fill="#110239"/>
      <path id="Trazado_100867" data-name="Trazado 100867" d="M535.984,62.285a5.356,5.356,0,0,0,2.066-.308c1.495-.861,3.452-1.393,3.318-1.883-.058-.214-1.52-2.056-1.575-2.25-.212.266-2.485,2.53-2.689,2.748-.149.16-.854-.025-1.118.161A1.763,1.763,0,0,0,535.984,62.285Z" fill="#ff9d8a"/>
      <g id="Grupo_53900" data-name="Grupo 53900">
        <path id="Trazado_100868" data-name="Trazado 100868" d="M536.924,60.291l.745,2.075s-8.836,5.964-11.19,5.26-4.024-11.308-4.024-11.308l2.2-5.362s1.539.414,2.065,3.512c.5,2.963.526,7.421,1.355,8.007C529.366,63.391,536.924,60.291,536.924,60.291Z" fill="#fff"/>
        <path id="Trazado_100869" data-name="Trazado 100869" d="M531.971,65.134c-1.45.447-4.583,1.2-4.656,1.185-1.4-.235-2.259-6.07-2.2-10.745.03-2.574-1.946-2.628-2.215-3.43l-.442,4.174s1.67,10.6,4.024,11.308c1.352.4,5.023-1.446,7.78-3.117C533.965,64.618,532.275,65.041,531.971,65.134Z" fill="#d0d1de"/>
      </g>
      <g id="Grupo_53901" data-name="Grupo 53901">
        <path id="Trazado_100870" data-name="Trazado 100870" d="M540.65,58.45l-.19-2.022-.355.033.193,2.059s2.919,3.443,3.025,4.576a.988.988,0,0,1-.552,1.134,1.564,1.564,0,0,1-.529.139l-4.184.393a1.561,1.561,0,0,1-.545-.039.989.989,0,0,1-.754-1.012c-.106-1.132,2.122-5.058,2.122-5.058l-.193-2.059-.355.033.19,2.022s-2.381,4.21-2.257,5.527a1.149,1.149,0,0,0,.875,1.176,1.829,1.829,0,0,0,.634.044l4.863-.456a1.823,1.823,0,0,0,.615-.161,1.149,1.149,0,0,0,.641-1.318C543.771,62.144,540.65,58.45,540.65,58.45Z" fill="#fff"/>
        <rect id="Rectángulo_5262" data-name="Rectángulo 5262" width="0.357" height="0.617" transform="translate(540.105 56.461) rotate(-5.355)" fill="#dfeaeb"/>
        <rect id="Rectángulo_5263" data-name="Rectángulo 5263" width="0.357" height="0.617" transform="translate(538.333 56.627) rotate(-5.354)" fill="#dfeaeb"/>
        <path id="Trazado_100871" data-name="Trazado 100871" d="M540.3,58.52l-.193-2.059-1.417.133.193,2.059s-2.228,3.926-2.122,5.058a.989.989,0,0,0,.754,1.012,1.561,1.561,0,0,0,.545.039l4.184-.393a1.564,1.564,0,0,0,.529-.139.988.988,0,0,0,.552-1.134C543.217,61.963,540.3,58.52,540.3,58.52Z" fill="#fff" opacity="0.32" style="mix-blend-mode: screen;isolation: isolate"/>
        <path id="Trazado_100872" data-name="Trazado 100872" d="M543.323,63.1c-.075-.8-1.539-2.733-2.4-3.812a3.247,3.247,0,0,1-1.512.3,1.23,1.23,0,0,1-.794-.451c-.586,1.08-1.94,3.688-1.857,4.577a.989.989,0,0,0,.754,1.012,1.561,1.561,0,0,0,.545.039l4.184-.393a1.564,1.564,0,0,0,.529-.139A.988.988,0,0,0,543.323,63.1Z" fill="#fc3"/>
        <path id="Trazado_100873" data-name="Trazado 100873" d="M540.417,56.713l-1.988.186a.39.39,0,0,1-.425-.352v-.008a.39.39,0,0,1,.352-.425l1.988-.187a.39.39,0,0,1,.425.353v.008A.391.391,0,0,1,540.417,56.713Z" fill="#fff"/>
        <path id="Trazado_100874" data-name="Trazado 100874" d="M538.268,63.021a.4.4,0,1,1-.437-.361A.4.4,0,0,1,538.268,63.021Z" fill="#ffe081"/>
        <path id="Trazado_100875" data-name="Trazado 100875" d="M538.74,61.923a.21.21,0,1,1-.229-.19A.21.21,0,0,1,538.74,61.923Z" fill="#ffe081"/>
        <path id="Trazado_100876" data-name="Trazado 100876" d="M539.362,63.854a.291.291,0,1,1-.317-.263A.291.291,0,0,1,539.362,63.854Z" fill="#ffe081"/>
        <path id="Trazado_100877" data-name="Trazado 100877" d="M540.76,61.573a.291.291,0,1,1-.317-.263A.291.291,0,0,1,540.76,61.573Z" fill="#ffe081"/>
        <path id="Trazado_100878" data-name="Trazado 100878" d="M539.967,62.609a.359.359,0,1,1-.391-.324A.359.359,0,0,1,539.967,62.609Z" fill="#ffe081"/>
        <path id="Trazado_100879" data-name="Trazado 100879" d="M541.782,62.366a.515.515,0,1,1-.561-.465A.514.514,0,0,1,541.782,62.366Z" fill="#ffe081"/>
        <path id="Trazado_100880" data-name="Trazado 100880" d="M539.9,60.567a.515.515,0,1,1-.561-.465A.514.514,0,0,1,539.9,60.567Z" fill="#ffe081"/>
        <path id="Trazado_100881" data-name="Trazado 100881" d="M540.937,63.984a.234.234,0,1,1-.255-.211A.234.234,0,0,1,540.937,63.984Z" fill="#ffe081"/>
        <path id="Trazado_100882" data-name="Trazado 100882" d="M542.44,63.3a.265.265,0,1,1-.288-.239A.263.263,0,0,1,542.44,63.3Z" fill="#ffe081"/>
        <path id="Trazado_100883" data-name="Trazado 100883" d="M542.666,62.077a.205.205,0,1,1-.223-.185A.205.205,0,0,1,542.666,62.077Z" fill="#ffe081"/>
        <path id="Trazado_100884" data-name="Trazado 100884" d="M538.1,63.991a.215.215,0,1,1-.234-.194A.215.215,0,0,1,538.1,63.991Z" fill="#ffe081"/>
      </g>
      <path id="Trazado_100885" data-name="Trazado 100885" d="M540.083,57.562c-.315.157-1.234.674-1.1,1.185.114.425,1.3-.272,1.3-.272-.438.265-1.2.408-1.074.768.138.4,1.135.032,1.359-.081-.213.018-1.332.462-.98.852.241.267,1.065-.068,1.315-.187-.315.04-.767.236-.758.665.091.248.569.175.839.115.406-.09.765-.208.875-.675a4.646,4.646,0,0,0-.717-1.988C540.847,57.572,540.48,57.353,540.083,57.562Z" fill="#ff9d8a"/>
      <path id="Trazado_100886" data-name="Trazado 100886" d="M538.075,59.546a3.021,3.021,0,0,1,.1-.332,2.351,2.351,0,0,1,.446-.667c.179-.211.512-.432.471-.75-.073-.561-1.073.3-1.212.426a1.132,1.132,0,0,0-.382.7c-.074.348-.11,1.22-.147,1.312s-.107.161-.1.252c.015.118.056.149.141.278C537.466,60.673,537.912,59.786,538.075,59.546Z" fill="#ff9d8a"/>
      <path id="Trazado_100887" data-name="Trazado 100887" d="M515.466,42.472s1.932,7.53.827,8.121c0,0,3.945,8.181,5.692,7.8s.827-7.365.827-7.365a3.051,3.051,0,0,1-1.348-.774c-.334-.3-1.057-.8-1.159-1.3a27.047,27.047,0,0,1-.416-3.645Z" fill="#f88667"/>
      <path id="Trazado_100888" data-name="Trazado 100888" d="M518.77,54.958a4.574,4.574,0,0,1-.978-3.088A3.871,3.871,0,0,1,520.24,48.6a28.947,28.947,0,0,1-.351-3.293l-4.423-2.838s1.932,7.53.827,8.121c0,0,3.945,8.181,5.692,7.8.454-.1.725-.649.882-1.4A4.323,4.323,0,0,1,518.77,54.958Z" fill="#e45940"/>
      <path id="Trazado_100889" data-name="Trazado 100889" d="M524.65,50.956l-3.474-.9s1.3,5.977.233,5.935-4.794-6.219-4.794-6.219A33.893,33.893,0,0,0,511.4,51.98s1.234,4.567.892,5.206c0,0,1.107,3.11,1.831,4.559.544,1.088-.266,6.049-.2,8.38.008.3-1.7,3.357-2.189,6.7-.757,5.166-.975,10.957-.975,10.957a61.156,61.156,0,0,0,9.175,1.268,48.41,48.41,0,0,0,8.816-1.431,93.067,93.067,0,0,0-1.518-9.409c-.891-4-2.338-7.838-2.335-8.237.023-2.62.1-8,.393-8.594.384-.788,2.262-3.794.641-6.686A14.7,14.7,0,0,1,524.65,50.956Z" fill="#fff"/>
      <path id="Trazado_100890" data-name="Trazado 100890" d="M522.642,88.831c-.8-9.149-1.028-13.765-1.028-19.319,0-4.259-.076-7.1.054-11.139.015-.468.024-1.6.016-2.592-.066.135-.153.217-.275.212a.46.46,0,0,1-.09-.031c.051,2.477.114,5.6-.019,7.6-.088,1.326.032,3.619-.008,6.545-.076,5.6.515,13.149.864,18.784l.292-.036Z" fill="#d0d1de"/>
      <path id="Trazado_100891" data-name="Trazado 100891" d="M515.122,67.708a38.529,38.529,0,0,0-.264-8.081,21.677,21.677,0,0,0-.392-2.336,16.951,16.951,0,0,0-2.314-4.706,24.8,24.8,0,0,1,.194,4.4.68.68,0,0,1-.054.205s1.107,3.11,1.831,4.559c.544,1.088-.266,6.049-.2,8.38.008.3-1.7,3.357-2.189,6.7-.757,5.166-.975,10.957-.975,10.957s1.052.223,2.5.481C511.8,77.964,515.027,68.836,515.122,67.708Z" fill="#d0d1de"/>
      <path id="Trazado_100892" data-name="Trazado 100892" d="M515.071,58.783a11.2,11.2,0,0,0,3.371,1.233c2.792-.035,3.064-1.837,3.064-1.837s1.7,1.734,3,1.626a1.526,1.526,0,0,0,1.486-1s-.1,2.681-2.356,2.937a2.662,2.662,0,0,1-1.741-.292,2,2,0,0,0-1.916-.031,3.939,3.939,0,0,1-1.381.35A3.169,3.169,0,0,1,515.071,58.783Z" fill="#d0d1de"/>
      <path id="Trazado_100893" data-name="Trazado 100893" d="M518.207,36.4s2.726-1.086,4,.645.756,3.12,1.029,3.973.144,5.144-.962,5.715c-.959.5-3.458.109-4.865-1.27-1.2-1.177-1.523-.69-2.373-1.967C512.894,40.277,515.952,36.111,518.207,36.4Z" fill="#f88667"/>
      <path id="Trazado_100894" data-name="Trazado 100894" d="M519.548,35.426s.4,4.19,3.943,3.9C523.491,39.324,523.356,33.622,519.548,35.426Z" fill="#110239"/>
      <path id="Trazado_100895" data-name="Trazado 100895" d="M519.86,35.191s2.742,3.235-1.345,4.446c-1.2.354-1.58,2.8-1.687,3.09a.585.585,0,0,1-.277-.226c-.25-.534-.9-1.161-1.575-.468-.648.664.319,1.883.933,1.975.1.016.257.167.419.348a4.854,4.854,0,0,0-.677,1.463,2.935,2.935,0,0,1-1.261-.864C512.708,43.133,513.118,33.92,519.86,35.191Z" fill="#110239"/>
      <path id="Trazado_100896" data-name="Trazado 100896" d="M515.3,42.033a.9.9,0,0,1,.825.636c.189.593-.284,1.221-.541.8s-.013-.586.014-.829A.741.741,0,0,0,515.3,42.033Z" fill="#e45940"/>
      <path id="Trazado_100897" data-name="Trazado 100897" d="M526.449,70.436a3.176,3.176,0,0,0,1.667-.1,1.946,1.946,0,0,1,.755-.225,4.078,4.078,0,0,0,.885-.176,1.585,1.585,0,0,1,.884-.083c.348.121-.016.441-.288.62-.3.194-1.379.15-1.5.508s1.206.328,1.47.318c.622-.023.858-.44,1.356-.727.29-.168.47-.156.42.229-.038.287-.325.468-.542.619a3.443,3.443,0,0,1-1.548.613,3.97,3.97,0,0,0,1.495-.421c.268-.133,1.315-.9,1.544-.5.459.809-2.285,1.752-2.8,1.685a4.621,4.621,0,0,0,1.529-.328c.3-.1.985-.353.827.189-.232.8-1.9.7-2.654.787a5.323,5.323,0,0,0,1.476,0c.655-.032.435.468-.234.62a7.309,7.309,0,0,1-.984.1,4.807,4.807,0,0,1-3.076-.9c-.389-.233-1.356-.236-1.47-.618C525.44,71.9,526.148,71.031,526.449,70.436Z" fill="#f88667"/>
      <path id="Trazado_100898" data-name="Trazado 100898" d="M526.888,70.13l-.884,3.4s-10.124-1.922-13.357-3.52-3.055-14.157-2.736-15.818c.618-3.22,3.609-2.856,4.2-.462,1.2,4.875.47,11.666.727,11.876S526.888,70.13,526.888,70.13Z" fill="#fff"/>
    </g>
  </g>
</svg>
