<svg xmlns="http://www.w3.org/2000/svg" width="92.126" height="100.836" viewBox="0 0 92.126 100.836">
  <g id="Grupo_53816" data-name="Grupo 53816" transform="translate(-291.959 -173.856)">
    <g id="Grupo_53804" data-name="Grupo 53804">
      <path id="Trazado_100579" data-name="Trazado 100579" d="M315.562,266.26c-5.681-1.032-11-.594-13.3-6.813-1.82-4.922,2.422-9.559-1.847-12.941-2.569-2.035-6.622-3.256-7.519-6.735-.933-3.625,3.7-5.922,2.87-9.4-.688-2.874-4.677-3.065-3.636-6.807a4.79,4.79,0,0,1,6.165-3.494c3.1.886,3.362,3.726,5.422,5.7,1.375,1.316,3.322-.006,5.34-.249a11.772,11.772,0,0,1,6.284.823c5.527,2.879,1.1,8.977,2.1,13.94.971,4.8,7.727,1.9,11.218,5.5,4.077,4.21,1,11.489-3.017,14.925C322.968,263,319.4,266.958,315.562,266.26Z" fill="#56b2e5"/>
      <g id="Grupo_53799" data-name="Grupo 53799">
        <path id="Trazado_100580" data-name="Trazado 100580" d="M321.045,265.007a.31.31,0,0,1-.091.034.358.358,0,0,1-.425-.241c-.038-.128-3.735-12.484-12.735-20.62-5.068-4.58-6.272-9.31-7.214-13.007-.549-2.157-1.017-3.993-2.1-4.987a.274.274,0,0,1,.022-.363.237.237,0,0,1,.337-.075c1.163,1.065,1.648,2.957,2.219,5.181.935,3.648,2.132,8.316,7.131,12.8,9.182,8.235,12.96,20.786,13,20.917A.313.313,0,0,1,321.045,265.007Z" fill="#fff"/>
      </g>
      <g id="Grupo_53800" data-name="Grupo 53800">
        <path id="Trazado_100581" data-name="Trazado 100581" d="M308.157,243.822a.27.27,0,0,1-.362-.014.294.294,0,0,1,.034-.4c1.821-1.795,3-5.256,1.818-7.436-.14-.257-.3-.53-.473-.816-.807-1.351-1.793-3-1.28-4.61a4.209,4.209,0,0,1,1.759-2.122.249.249,0,0,1,.375.051.333.333,0,0,1-.141.4,3.428,3.428,0,0,0-1.469,1.732c-.437,1.371.5,2.921,1.257,4.188.176.291.343.571.487.832,1.361,2.486.019,6.218-1.971,8.169A.322.322,0,0,1,308.157,243.822Z" fill="#fff"/>
      </g>
      <g id="Grupo_53801" data-name="Grupo 53801">
        <path id="Trazado_100582" data-name="Trazado 100582" d="M306.756,244.958a4.343,4.343,0,0,1-2.791.938c-1.393-.087-2.663-1.08-3.678-2.847-.1-.172-.208-.376-.328-.6-.671-1.248-1.668-3.1-2.889-3.271a1.547,1.547,0,0,0-1.193.392.2.2,0,0,1-.315-.043.306.306,0,0,1,.092-.363h0a2.04,2.04,0,0,1,1.552-.507c1.416.192,2.478,2.152,3.192,3.472.119.218.227.418.325.587.945,1.635,2.1,2.548,3.333,2.62a4.724,4.724,0,0,0,3.449-1.719.272.272,0,0,1,.4-.02.3.3,0,0,1-.03.406A9.092,9.092,0,0,1,306.756,244.958Z" fill="#fff"/>
      </g>
      <g id="Grupo_53802" data-name="Grupo 53802">
        <path id="Trazado_100583" data-name="Trazado 100583" d="M320.433,259.037a3.314,3.314,0,0,1-1.162.441.334.334,0,0,1-.388-.259.321.321,0,0,1,.271-.373c2.175-.378,3.612-3.865,3.8-5.705a8.153,8.153,0,0,0-.465-2.707c-.487-1.758-.987-3.557.253-4.863a.362.362,0,0,1,.49-.055.3.3,0,0,1,.013.45c-.986,1.034-.527,2.672-.08,4.27a8.5,8.5,0,0,1,.488,2.939C323.485,254.834,322.39,257.856,320.433,259.037Z" fill="#fff"/>
      </g>
      <g id="Grupo_53803" data-name="Grupo 53803">
        <path id="Trazado_100584" data-name="Trazado 100584" d="M317.842,260.454a3.886,3.886,0,0,1-1.194.464c-2.42.526-5.495-.858-6.942-1.883a10.055,10.055,0,0,1-2.122-2.613c-1.087-1.654-2.188-3.328-3.576-3.118a.253.253,0,0,1-.289-.24.308.308,0,0,1,.247-.323c1.71-.266,2.963,1.628,4.094,3.337a9.723,9.723,0,0,0,1.988,2.461c1.313.923,4.256,2.249,6.456,1.762a2.876,2.876,0,0,0,1.956-1.391.347.347,0,0,1,.454-.127.313.313,0,0,1,.13.435A3.435,3.435,0,0,1,317.842,260.454Z" fill="#fff"/>
      </g>
    </g>
    <path id="Trazado_100585" data-name="Trazado 100585" d="M338.4,248.535c-2.452-1.831-4.724-5.377-3.945-8.521.635-2.563,3.55-3.98,4.571-6.506a12.326,12.326,0,0,0-.094-9.58c-1.427-3.345-.966-7.48-.576-11.277a16.927,16.927,0,0,0,.317-3.631l-5.07.348a37.141,37.141,0,0,0,.167,7.137c.289,3.206,1.369,6,.157,9.17-1.2,3.12-3.18,5.834-4.634,8.867a5.873,5.873,0,0,0-.379,5.161,6.463,6.463,0,0,1-.378,5.2c-1.088,2.255-2.533,4.554-3.1,7.043-.9,3.935.754,6.5,4.007,8.64,2.761,1.816,8.063,3.382,11.12,1.353,1.718-1.14,4.138-3.914,4.614-5.985C346.154,251.714,340.9,250.4,338.4,248.535Z" fill="#f34f95"/>
    <path id="Trazado_100586" data-name="Trazado 100586" d="M345.515,199.928s-.694,1.679-.661,1.626a5.006,5.006,0,0,0-1.124-.5,8.735,8.735,0,0,1-1.334-.1,2.184,2.184,0,0,1-.77-.4c-.133-.08-.357-.337-.158-.4.175-.053.373.189.488.237a2.341,2.341,0,0,0,.514.049s-.15-.069-.442-.186a5.317,5.317,0,0,1-.984-.455c-.1-.1-.076-.317.2-.265a3.747,3.747,0,0,1,.69.232c.056.015.577.205.577.205s-.45-.172-.61-.244c-.179-.081-.673-.276-.985-.415s-.234-.475.043-.456a6.971,6.971,0,0,1,1,.425c.109.035.587.256.587.256s-.573-.261-.668-.324-.731-.3-.8-.494a.181.181,0,0,1,.226-.24,3.3,3.3,0,0,1,.8.272,7.454,7.454,0,0,0,1.243.511c.18.007.379-.011.383-.239l.309-.572s.209.1.318.621C344.41,199.361,344.882,199.72,345.515,199.928Z" fill="#ff9d8a"/>
    <g id="Grupo_53805" data-name="Grupo 53805">
      <path id="Trazado_100587" data-name="Trazado 100587" d="M364.454,206.628a2.869,2.869,0,0,0-2.487-2.765c-2.271-.343-6.49-1-7.763-1.288-1.77-.408-9-2.822-9-2.822l-.791,1.91s7.868,3.952,9.283,4.261,8.681,2.886,10.09,2.074A1.47,1.47,0,0,0,364.454,206.628Z" fill="#fff"/>
    </g>
    <g id="Grupo_53807" data-name="Grupo 53807">
      <g id="Grupo_53806" data-name="Grupo 53806">
        <path id="Trazado_100588" data-name="Trazado 100588" d="M364.454,206.628a2.869,2.869,0,0,0-2.487-2.765c-2.271-.343-6.49-1-7.763-1.288-1.77-.408-9-2.822-9-2.822l-.791,1.91s7.868,3.952,9.283,4.261,8.681,2.886,10.09,2.074A1.47,1.47,0,0,0,364.454,206.628Z" fill="#d0d1de"/>
      </g>
    </g>
    <g id="Grupo_53809" data-name="Grupo 53809">
      <g id="Grupo_53808" data-name="Grupo 53808">
        <path id="Trazado_100589" data-name="Trazado 100589" d="M335.291,198.726l34.633-21.268c2.126-1.3,3.77-.333,4.861,1.442l.04.065c1.09,1.775,1.213,3.682-.913,4.987L339.278,205.22l.96,1.563L376.845,184.3a5.589,5.589,0,0,0,1.837-7.687l-.059-.1a5.588,5.588,0,0,0-7.686-1.838l-36.606,22.48Z" fill="#fff"/>
        <rect id="Rectángulo_5162" data-name="Rectángulo 5162" width="3.81" height="1.835" transform="translate(334.331 197.163) rotate(-31.554)" fill="#dfeaeb"/>
        <rect id="Rectángulo_5163" data-name="Rectángulo 5163" width="3.81" height="1.835" transform="translate(339.278 205.22) rotate(-31.552)" fill="#dfeaeb"/>
        <path id="Trazado_100590" data-name="Trazado 100590" d="M374.785,178.9l.04.065c1.09,1.775,1.213,3.682-.913,4.987L339.278,205.22l-3.987-6.494,34.633-21.268C372.05,176.153,373.694,177.125,374.785,178.9Z" fill="#fff" opacity="0.32" style="mix-blend-mode: screen;isolation: isolate"/>
        <path id="Trazado_100591" data-name="Trazado 100591" d="M374.825,178.965l-.04-.065a3.8,3.8,0,0,0-2.676-2.027,3.013,3.013,0,0,0-1.41.2,4.615,4.615,0,0,0-.775.386l-7.011,4.306,0,0-13.6,8.351a6.556,6.556,0,0,0-2.718,3.647l-.007.021c-.756,2.287-3.733,3.207-5.64,4.458-1.567,1.029-8.3,3.633-7.377,7.178l5.711-.2,23.076-14.17c1.627-1.09,3.35-2.058,5.015-3.08l1.138-.7,5.4-3.319a3,3,0,0,0,1.663-2.973A4.908,4.908,0,0,0,374.825,178.965Z" fill="#f34f95"/>
      </g>
      <path id="Trazado_100592" data-name="Trazado 100592" d="M335.761,196.391l5.813,9.465a1.433,1.433,0,0,1-.471,1.97l-.025.015a1.432,1.432,0,0,1-1.97-.471L333.3,197.9a1.432,1.432,0,0,1,.471-1.97l.025-.015A1.432,1.432,0,0,1,335.761,196.391Z" fill="#fff"/>
      <path id="Trazado_100593" data-name="Trazado 100593" d="M358.723,185.206a1.588,1.588,0,1,1-.522,2.184A1.587,1.587,0,0,1,358.723,185.206Z" fill="#fc889f"/>
      <path id="Trazado_100594" data-name="Trazado 100594" d="M345.378,196.6a1.587,1.587,0,1,1-.522,2.183A1.588,1.588,0,0,1,345.378,196.6Z" fill="#fc889f"/>
      <path id="Trazado_100595" data-name="Trazado 100595" d="M363.831,182.959a.829.829,0,1,1-.272,1.141A.831.831,0,0,1,363.831,182.959Z" fill="#fc889f"/>
      <path id="Trazado_100596" data-name="Trazado 100596" d="M348.678,192.295a.829.829,0,1,1-.273,1.14A.828.828,0,0,1,348.678,192.295Z" fill="#fc889f"/>
      <path id="Trazado_100597" data-name="Trazado 100597" d="M349.507,195.94a.829.829,0,1,1-.273,1.141A.829.829,0,0,1,349.507,195.94Z" fill="#fc889f"/>
      <path id="Trazado_100598" data-name="Trazado 100598" d="M341.777,200.167a.829.829,0,1,1-.272,1.14A.83.83,0,0,1,341.777,200.167Z" fill="#fc889f"/>
      <path id="Trazado_100599" data-name="Trazado 100599" d="M370.637,181.3a1.335,1.335,0,1,1-.439,1.836A1.334,1.334,0,0,1,370.637,181.3Z" fill="#fc889f"/>
      <path id="Trazado_100600" data-name="Trazado 100600" d="M352.1,192.693a1.335,1.335,0,1,1-.439,1.836A1.336,1.336,0,0,1,352.1,192.693Z" fill="#fc889f"/>
      <path id="Trazado_100601" data-name="Trazado 100601" d="M366.844,182.082a1.148,1.148,0,1,1-.378,1.579A1.147,1.147,0,0,1,366.844,182.082Z" fill="#fc889f"/>
      <path id="Trazado_100602" data-name="Trazado 100602" d="M362.989,186.726a1.023,1.023,0,1,1-.337,1.408A1.023,1.023,0,0,1,362.989,186.726Z" fill="#fc889f"/>
      <path id="Trazado_100603" data-name="Trazado 100603" d="M356.385,190.277a1.023,1.023,0,1,1-.337,1.408A1.022,1.022,0,0,1,356.385,190.277Z" fill="#fc889f"/>
      <path id="Trazado_100604" data-name="Trazado 100604" d="M371.127,178.472a.835.835,0,1,1-.275,1.149A.835.835,0,0,1,371.127,178.472Z" fill="#fc889f"/>
      <path id="Trazado_100605" data-name="Trazado 100605" d="M353.2,189a.835.835,0,1,1-.274,1.149A.836.836,0,0,1,353.2,189Z" fill="#fc889f"/>
    </g>
    <g id="Grupo_53810" data-name="Grupo 53810">
      <path id="Trazado_100606" data-name="Trazado 100606" d="M344.788,223.215V207.9H342.1V223.5s19.491,27.9,19.491,36.48c0,4.166-1.339,6.81-4.944,8.126a11.851,11.851,0,0,1-4.066.672H320.891a11.851,11.851,0,0,1-4.066-.672c-3.605-1.316-4.944-3.96-4.944-8.126,0-8.578,19.491-36.48,19.491-36.48V207.9h-2.69v15.312s-20.831,29.931-20.831,39.9c0,4.841,1.556,7.914,5.745,9.443a13.772,13.772,0,0,0,4.726.781h36.826a13.772,13.772,0,0,0,4.726-.781c4.189-1.529,5.745-4.6,5.745-9.443C365.619,253.146,344.788,223.215,344.788,223.215Z" fill="#fff"/>
      <rect id="Rectángulo_5164" data-name="Rectángulo 5164" width="2.69" height="4.654" transform="translate(342.098 207.902)" fill="#dfeaeb"/>
      <rect id="Rectángulo_5165" data-name="Rectángulo 5165" width="2.69" height="4.654" transform="translate(328.682 207.902)" fill="#dfeaeb"/>
      <path id="Trazado_100607" data-name="Trazado 100607" d="M342.1,223.5V207.9H331.372V223.5s-19.491,27.9-19.491,36.48c0,4.166,1.339,6.81,4.944,8.126a11.851,11.851,0,0,0,4.066.672h31.688a11.851,11.851,0,0,0,4.066-.672c3.605-1.316,4.944-3.96,4.944-8.126C361.589,251.4,342.1,223.5,342.1,223.5Z" fill="#fff" opacity="0.32" style="mix-blend-mode: screen;isolation: isolate"/>
      <path id="Trazado_100608" data-name="Trazado 100608" d="M353.182,242.119a37.663,37.663,0,0,1-6.749,3.332c-5.814,2.189-10.553.69-15.891-1.971a19.3,19.3,0,0,0-10.733-1.9c-4.2,7.195-7.928,14.647-7.928,18.4,0,4.166,1.339,6.81,4.944,8.126a11.851,11.851,0,0,0,4.066.672h31.688a11.851,11.851,0,0,0,4.066-.672c3.605-1.316,4.944-3.96,4.944-8.126,0-3.725-3.675-11.093-7.834-18.238C353.566,241.867,353.377,242,353.182,242.119Z" fill="#fc3"/>
      <rect id="Rectángulo_5166" data-name="Rectángulo 5166" width="20.941" height="5.95" rx="2.945" transform="translate(326.264 204.064)" fill="#fff"/>
      <path id="Trazado_100609" data-name="Trazado 100609" d="M323.691,255.858a3.023,3.023,0,1,1-3.023-3.022A3.023,3.023,0,0,1,323.691,255.858Z" fill="#ffe081"/>
      <path id="Trazado_100610" data-name="Trazado 100610" d="M328.009,247.942a1.583,1.583,0,1,1-1.584-1.584A1.584,1.584,0,0,1,328.009,247.942Z" fill="#ffe081"/>
      <path id="Trazado_100611" data-name="Trazado 100611" d="M331.319,262.876a2.2,2.2,0,1,1-2.2-2.2A2.195,2.195,0,0,1,331.319,262.876Z" fill="#ffe081"/>
      <circle id="Elipse_4062" data-name="Elipse 4062" cx="2.708" cy="2.708" r="2.708" transform="translate(331.319 251.252)" fill="#ffe081"/>
      <circle id="Elipse_4063" data-name="Elipse 4063" cx="3.886" cy="3.886" r="3.886" transform="translate(342.763 249.525)" fill="#ffe081"/>
      <path id="Trazado_100612" data-name="Trazado 100612" d="M343.051,264.963a1.764,1.764,0,1,1-1.764-1.764A1.764,1.764,0,0,1,343.051,264.963Z" fill="#ffe081"/>
      <path id="Trazado_100613" data-name="Trazado 100613" d="M354.818,260.878a2,2,0,1,1-2-2A2,2,0,0,1,354.818,260.878Z" fill="#ffe081"/>
      <path id="Trazado_100614" data-name="Trazado 100614" d="M357.373,251.864a1.547,1.547,0,1,1-1.548-1.547A1.547,1.547,0,0,1,357.373,251.864Z" fill="#ffe081"/>
      <path id="Trazado_100615" data-name="Trazado 100615" d="M321.747,263.02a1.619,1.619,0,1,1-1.619-1.62A1.619,1.619,0,0,1,321.747,263.02Z" fill="#ffe081"/>
    </g>
    <g id="Grupo_53813" data-name="Grupo 53813">
      <g id="Grupo_53811" data-name="Grupo 53811">
        <path id="Trazado_100616" data-name="Trazado 100616" d="M339.606,226.534l.456-1.367h20.433l-.436,1.367Z" fill="#110239"/>
        <path id="Trazado_100617" data-name="Trazado 100617" d="M337.177,233.818l.461-1.382H358.18l-.44,1.382Z" fill="#110239"/>
        <path id="Trazado_100618" data-name="Trazado 100618" d="M348.023,217.883a1.608,1.608,0,0,1-.588,1.367h15.7l.436-1.367Z" fill="#110239"/>
        <path id="Trazado_100619" data-name="Trazado 100619" d="M334.723,241.18l.466-1.4H355.84l-.445,1.4Z" fill="#110239"/>
        <path id="Trazado_100620" data-name="Trazado 100620" d="M332.242,248.622l.471-1.412h20.762l-.449,1.412Z" fill="#110239"/>
        <path id="Trazado_100621" data-name="Trazado 100621" d="M329.734,256.143l.476-1.427h20.875l-.454,1.427Z" fill="#110239"/>
        <path id="Trazado_100622" data-name="Trazado 100622" d="M327.2,263.747l.481-1.443h20.989l-.46,1.443Z" fill="#110239"/>
        <path id="Trazado_100623" data-name="Trazado 100623" d="M343.782,215.349a.938.938,0,0,0-.732.62l-19.189,57.479a.944.944,0,0,0,.9,1.244h.1a.945.945,0,0,0,.9-.647L344.5,217.627A8.041,8.041,0,0,1,343.782,215.349Z" fill="#110239"/>
        <path id="Trazado_100624" data-name="Trazado 100624" d="M345.637,274.692h-.1a.945.945,0,0,1-.9-1.232l18.346-57.479a.947.947,0,0,1,.9-.658h.02a.945.945,0,0,1,.9,1.232l-18.262,57.478A.944.944,0,0,1,345.637,274.692Z" fill="#110239"/>
      </g>
      <g id="Grupo_53812" data-name="Grupo 53812">
        <path id="Trazado_100625" data-name="Trazado 100625" d="M368.29,226.534l-.456-1.367H347.4l.436,1.367Z" fill="#56b2e5"/>
        <path id="Trazado_100626" data-name="Trazado 100626" d="M370.719,233.818l-.461-1.382H349.716l.44,1.382Z" fill="#56b2e5"/>
        <path id="Trazado_100627" data-name="Trazado 100627" d="M365.217,219.25l-.456-1.367H344.328l.435,1.367Z" fill="#56b2e5"/>
        <path id="Trazado_100628" data-name="Trazado 100628" d="M373.173,241.18l-.466-1.4H352.056l.445,1.4Z" fill="#56b2e5"/>
        <path id="Trazado_100629" data-name="Trazado 100629" d="M375.654,248.622l-.471-1.412H354.421l.449,1.412Z" fill="#56b2e5"/>
        <path id="Trazado_100630" data-name="Trazado 100630" d="M378.162,256.143l-.476-1.427H356.812l.454,1.427Z" fill="#56b2e5"/>
        <path id="Trazado_100631" data-name="Trazado 100631" d="M380.7,263.747l-.481-1.443H359.228l.46,1.443Z" fill="#56b2e5"/>
        <path id="Trazado_100632" data-name="Trazado 100632" d="M383.043,274.692h.1a.944.944,0,0,0,.9-1.244l-19.189-57.479a.943.943,0,0,0-.9-.646h-1.322l19.517,58.722A.945.945,0,0,0,383.043,274.692Z" fill="#56b2e5"/>
        <path id="Trazado_100633" data-name="Trazado 100633" d="M362.259,274.692h.105a.945.945,0,0,0,.9-1.232l-18.346-57.479a.946.946,0,0,0-.9-.658H344a.946.946,0,0,0-.9,1.232l18.262,57.478A.945.945,0,0,0,362.259,274.692Z" fill="#56b2e5"/>
      </g>
    </g>
    <path id="Trazado_100634" data-name="Trazado 100634" d="M362.212,198.6c-.041.046-.079.093-.123.137a8.643,8.643,0,0,1-1.3,1.129c-.289.191-.738.316-.986.517a2.829,2.829,0,0,1-.311.22,23.773,23.773,0,0,1,.446,3.766s2.587-.182,3.531-1.228A26.264,26.264,0,0,1,362.212,198.6Z" fill="#ff9d8a"/>
    <path id="Trazado_100635" data-name="Trazado 100635" d="M360.825,202.93A3.754,3.754,0,0,1,362,200.98a6.218,6.218,0,0,1,.62-.461,13.262,13.262,0,0,1-.411-1.915c-.041.046-.079.093-.123.137a8.643,8.643,0,0,1-1.3,1.129c-.289.191-.738.316-.986.517a2.829,2.829,0,0,1-.311.22,23.773,23.773,0,0,1,.446,3.766,10.126,10.126,0,0,0,1.029-.142A1.946,1.946,0,0,1,360.825,202.93Z" fill="#e17c5e"/>
    <path id="Trazado_100636" data-name="Trazado 100636" d="M360.78,244.772s-.071,2.58-.475,2.932-5.535.507-5.976.036-.182-1.263.919-1.569c1.181-.327,1.76-.006,2.5-.314s.544-1.475.544-1.475Z" fill="#110239"/>
    <path id="Trazado_100637" data-name="Trazado 100637" d="M373.506,244.685s.395,2.512.006,2.88-5.617.778-6.076.325-.231-1.255.858-1.6c1.167-.373,1.732-.136,2.486-.41.592-.216.193-1.413.193-1.413Z" fill="#110239"/>
    <g id="Grupo_53814" data-name="Grupo 53814">
      <path id="Trazado_100638" data-name="Trazado 100638" d="M369.713,230.224a77.061,77.061,0,0,0-1.071-14.343,6.54,6.54,0,0,0-2.563.5c-1.566.713-3.142,1.4-4.715,2.083a101.522,101.522,0,0,1,4.412,13.079c.419,2.246,5.115,13.705,5.115,13.705l2.841-.357C373.686,243.039,369.7,230.843,369.713,230.224Z" fill="#110239"/>
      <path id="Trazado_100639" data-name="Trazado 100639" d="M366.007,217.005c-1.107.374-3.121.91-4.643,1.454-1.06,2.677-4.189,9-4.352,11.854-.18,3.153.912,15.1.912,15.1h3.251s.3-13.464.757-14.329c1.5-2.853,3.161-5.114,4.1-6.889a22.132,22.132,0,0,0,2.4-6.284c.123-.615.661-2.678-.384-3.323C367.185,214.831,366.934,216.693,366.007,217.005Z" fill="#110239"/>
    </g>
    <g id="Grupo_53815" data-name="Grupo 53815">
      <path id="Trazado_100640" data-name="Trazado 100640" d="M357.625,226.4a24.542,24.542,0,0,0,6.606,1.5c2.586.026,4.45-.036,6.323-1.367,0,0-.848-8.06-.992-9.046-.421-2.892-1.386-8.871-2.457-11.153a6.418,6.418,0,0,0-3.8-3.646,8.056,8.056,0,0,1-3.377,1.056s.037,5.963.152,8.345c.079,1.61.095,4.252.1,5.793C360.182,218.621,357.625,226.4,357.625,226.4Z" fill="#fff"/>
      <path id="Trazado_100641" data-name="Trazado 100641" d="M359.256,226.944c.226-4.093,2.082-7.136,2.627-11.19a77.894,77.894,0,0,0,.458-8.377,6.485,6.485,0,0,1-1.991.842,1.952,1.952,0,0,1-.367.025v.039c.006.328.012.656.018.979l0,.148c.006.3.013.588.02.868l0,.107c.008.295.016.572.025.834,0,.052,0,.1.005.153.009.261.018.507.028.718.079,1.61.095,4.252.1,5.793,0,.738-2.556,8.515-2.556,8.515S358.29,226.648,359.256,226.944Z" fill="#d0d1de"/>
    </g>
    <path id="Trazado_100642" data-name="Trazado 100642" d="M363.554,196.189s-1.1-2.307-2.574-2.214-2.414.334-2.61.9a16.246,16.246,0,0,1-.9,2.71c-.376.578-1.188,1.337-1.171,1.6s.859.354.906.46a8.6,8.6,0,0,0,.808,2.209c.307.2,3.132-.9,3.568-1.746S363.682,197.679,363.554,196.189Z" fill="#ff9d8a"/>
    <path id="Trazado_100643" data-name="Trazado 100643" d="M360.554,196.407a3.642,3.642,0,0,0-.439.125c-.216.038-.438.057-.655.094a2.676,2.676,0,0,1-1.307,0c-.638-.21-.433-.839-.727-1.282-.142-.215-.444-.214-.6-.454a1.543,1.543,0,0,1-.191-.822c.01-.672.665-.735,1.18-.863.6-.149.637-.483.926-.939.714-1.127,1.721.437,2.513.341.4-.049.83-.313,1.223-.089a2.8,2.8,0,0,1,.77.835c.237.314.471.186.816.317a2.06,2.06,0,0,1,.714.544,2.191,2.191,0,0,1,.544,1.772c-.106.518-.523.8-.544,1.343a3.238,3.238,0,0,1-.2,1.365c-.307.574-.99.649-1.446,1.041a1.954,1.954,0,0,1-1.641.506c-.06-.407-.022-1.092.336-1.295a2.292,2.292,0,0,0,.543-.279.634.634,0,0,0-.605-1.066c-.463.065-.673,1.332-1.178,1.126-.385-.157.078-.8.184-1.015.14-.288.214-1.017-.06-1.26A.2.2,0,0,0,360.554,196.407Z" fill="#110239"/>
    <path id="Trazado_100644" data-name="Trazado 100644" d="M344.2,204.362a2.113,2.113,0,0,0-.237-.3,1.548,1.548,0,0,1-.491-.684,3.241,3.241,0,0,0-.7-1.262c-.191-.145-1.392-.961-1.583-.312-.026.087,0,.3.049.321.139.069.524.268.524.268a3.138,3.138,0,0,0-.373-.168.8.8,0,0,0-.237-.048.358.358,0,0,0-.2.406c.051.118.205.1.316.141h-.008c-.124-.02-.308-.14-.438.16-.145.334.078.266.2.346a.881.881,0,0,0,.148.071c-.059-.018-.262-.1-.316-.106-.177-.017-.267.465-.065.635.124.1.553.228.6.311a1.864,1.864,0,0,0,.2.265,1.926,1.926,0,0,0,.787.573c.134.057.389.18.53.229a5.6,5.6,0,0,0,.927.215C343.98,204.979,343.822,204.65,344.2,204.362Z" fill="#ff9d8a"/>
    <path id="Trazado_100645" data-name="Trazado 100645" d="M343.227,205.928l.888-2.373s6.505,1.7,9.444,1.809,7.58-1.13,8.847-.152,1.7,2.738-.53,3.556-7.516-.611-8.866-.649A93.484,93.484,0,0,1,343.227,205.928Z" fill="#fff"/>
  </g>
</svg>
