<svg xmlns="http://www.w3.org/2000/svg" width="118.335" height="87.894" viewBox="0 0 118.335 87.894">
  <g id="Grupo_53933" data-name="Grupo 53933" transform="translate(-372.713 -329.729)">
    <g id="Grupo_53927" data-name="Grupo 53927">
      <g id="Grupo_53909" data-name="Grupo 53909">
        <path id="Trazado_100899" data-name="Trazado 100899" d="M435.638,384.408c-3.279-3.7-12.965-8.732-10.42-14.5,2.165-4.908,12.552-4.3,11.3-10.221-.739-3.5-1.7-6.488.561-10.468,2.461-4.335,9.819-1.975,12.369-6,2.191-3.459-.714-5.648,3.813-7.957,4.018-2.051,9.588,0,10.34,4.152,1.027,5.388-4.177,4.726-4.741,8.59-.359,2.46,1.881,3.317,3.165,5.039a11.945,11.945,0,0,1,2.415,6.064c.245,6.139-6.483,6.934-9.672,10.836-2.954,3.615,2.493,5.945,1.677,9.875-.881,4.242-6.92,6.558-11.169,6.495C442.33,386.267,437.67,386.7,435.638,384.408Z" fill="#56b2e5"/>
        <g id="Grupo_53904" data-name="Grupo 53904">
          <path id="Trazado_100900" data-name="Trazado 100900" d="M439.921,386.431a.3.3,0,0,1-.077-.025.221.221,0,0,1-.1-.334,43.278,43.278,0,0,0,6.412-20.471c.23-7.567,3.375-12.409,5.954-16.381,1.558-2.4,2.917-4.491,3.125-6.588a.339.339,0,0,1,.351-.3.293.293,0,0,1,.291.324c-.228,2.246-1.627,4.395-3.231,6.858-2.542,3.9-5.643,8.666-5.881,16.077a43.791,43.791,0,0,1-6.522,20.712A.322.322,0,0,1,439.921,386.431Z" fill="#fff"/>
        </g>
        <g id="Grupo_53905" data-name="Grupo 53905">
          <path id="Trazado_100901" data-name="Trazado 100901" d="M446.667,365.631a.267.267,0,0,1-.226-.289.314.314,0,0,1,.337-.257c2.544.152,5.943-1.335,6.97-3.815.124-.3.247-.628.377-.975.622-1.665,1.4-3.755,3.037-4.507a3.61,3.61,0,0,1,2.739-.019.266.266,0,0,1,.159.37.343.343,0,0,1-.409.174,2.919,2.919,0,0,0-2.243-.009c-1.385.638-2.118,2.591-2.7,4.147-.132.354-.259.69-.385.993-1.17,2.812-4.851,4.357-7.609,4.192A.3.3,0,0,1,446.667,365.631Z" fill="#fff"/>
        </g>
        <g id="Grupo_53906" data-name="Grupo 53906">
          <path id="Trazado_100902" data-name="Trazado 100902" d="M444.861,365.345a4.5,4.5,0,0,1-2.672-1.549c-.944-1.213-1.093-3.042-.417-5.3.067-.224.152-.483.246-.767.53-1.614,1.34-4.079.543-5.447a1.945,1.945,0,0,0-1.289-.9.292.292,0,0,1-.218-.366.33.33,0,0,1,.392-.213h0a2.562,2.562,0,0,1,1.671,1.184c.92,1.583.059,4.19-.505,5.895-.091.278-.175.532-.241.752-.628,2.088-.514,3.754.322,4.831a4.787,4.787,0,0,0,3.7,1.521.27.27,0,0,1,.274.293.314.314,0,0,1-.334.261A9.025,9.025,0,0,1,444.861,365.345Z" fill="#fff"/>
        </g>
        <g id="Grupo_53907" data-name="Grupo 53907">
          <path id="Trazado_100903" data-name="Trazado 100903" d="M443.413,382.854a2.869,2.869,0,0,1-.978-.357.226.226,0,0,1-.061-.35.324.324,0,0,1,.409-.068c1.523.919,4.62-.274,5.937-1.2a7.935,7.935,0,0,0,1.566-1.777c.937-1.28,1.911-2.611,3.45-2.654a.248.248,0,0,1,.285.249.3.3,0,0,1-.3.267c-1.214.035-2.1,1.239-2.945,2.395a8.252,8.252,0,0,1-1.7,1.906C447.89,382.1,445.308,383.2,443.413,382.854Z" fill="#fff"/>
        </g>
        <g id="Grupo_53908" data-name="Grupo 53908">
          <path id="Trazado_100904" data-name="Trazado 100904" d="M440.92,382.3a3.641,3.641,0,0,1-1.054-.372c-1.918-1.02-3.055-3.632-3.352-5.153a8.292,8.292,0,0,1,.346-3.046c.416-1.836.85-3.752-.345-4.625a.254.254,0,0,1-.037-.384.335.335,0,0,1,.43-.041c1.47,1.077.975,3.248.542,5.143a8.008,8.008,0,0,0-.346,2.854c.266,1.377,1.337,3.887,3.083,4.818a2.886,2.886,0,0,0,2.136.255.293.293,0,0,1,.358.169.264.264,0,0,1-.211.316A3.613,3.613,0,0,1,440.92,382.3Z" fill="#fff"/>
        </g>
      </g>
      <g id="Grupo_53913" data-name="Grupo 53913">
        <path id="Trazado_100905" data-name="Trazado 100905" d="M461.783,392.728c-5.465-1.35-9.794-2.57-9.911-8.36-.062-3,1.275-5.064,4.436-6.726,2.556-1.344,3.868-1.806,4.456-4.458.94-4.244-1.108-8.429,1.565-12.534,2.982-4.579,9.713-2.491,12.82-6.643,2.787-3.725,4.315-8.554,10.205-8.485a5.761,5.761,0,0,1,4.857,8.827c-1.194,2.021-3.285,3.446-4.133,5.61-.809,2.065.079,3.753.875,5.639,1.757,4.167,2.184,8.463-2.6,11.216-2.858,1.646-5.061,3.091-4.031,6.177,1.082,3.243,1.567,5.094-2.371,7.535-2.944,1.825-5.628,1.677-9.009,1.818-3.169.131-7.4,1-10.395-.373Z" fill="#fc3"/>
        <g id="Grupo_53910" data-name="Grupo 53910">
          <path id="Trazado_100906" data-name="Trazado 100906" d="M463.557,389.725a4.109,4.109,0,0,1-.926-1.631c-.659-2.428,1.651-4.862,3.744-7.067a16.514,16.514,0,0,0,2.535-3.077,13.5,13.5,0,0,0,1.4-8.115c-.328-4.09.771-5.763,4.11-8.468,2.813-2.283,5.6-4.8,6.379-7.287a.443.443,0,0,1,.552-.234.4.4,0,0,1,.332.467c-.837,2.648-3.717,5.24-6.622,7.582-3.233,2.6-4.233,4.112-3.93,8a14.222,14.222,0,0,1-1.474,8.4,16.752,16.752,0,0,1-2.626,3.184c-2.023,2.116-4.258,4.454-3.668,6.629a4.4,4.4,0,0,0,1.928,2.351c.174.126.234.319.123.436a.423.423,0,0,1-.523-.013A7.547,7.547,0,0,1,463.557,389.725Z" fill="#fff"/>
        </g>
        <g id="Grupo_53911" data-name="Grupo 53911">
          <path id="Trazado_100907" data-name="Trazado 100907" d="M470.474,373.7a.341.341,0,0,1-.1-.211c-.008-.181.168-.31.394-.285,1.977.215,3.437-1.327,5.011-2.989,1.394-1.471,2.858-3.017,4.861-3.439a.539.539,0,0,1,.577.255.3.3,0,0,1-.249.427c-1.757.366-3.152,1.83-4.48,3.223-1.633,1.712-3.287,3.45-5.689,3.184A.536.536,0,0,1,470.474,373.7Z" fill="#fff"/>
        </g>
        <g id="Grupo_53912" data-name="Grupo 53912">
          <path id="Trazado_100908" data-name="Trazado 100908" d="M468.9,378.739a.4.4,0,0,1-.073-.116,6.759,6.759,0,0,1-.352-1.311,3.8,3.8,0,0,0-.811-1.937,11.314,11.314,0,0,0-.977-1.03,5.634,5.634,0,0,1-1.73-2.48,11.987,11.987,0,0,1,.094-5.89,11.378,11.378,0,0,1,.42-1.263c.257-.7.74-2,.58-2.291a.293.293,0,0,1,.163-.438.475.475,0,0,1,.537.173c.33.5.027,1.409-.507,2.838a11.734,11.734,0,0,0-.4,1.2,11.921,11.921,0,0,0-.113,5.631,4.79,4.79,0,0,0,1.529,2.155,12.608,12.608,0,0,1,1.052,1.113,4.452,4.452,0,0,1,.959,2.246,6.252,6.252,0,0,0,.32,1.206.264.264,0,0,1-.253.363A.536.536,0,0,1,468.9,378.739Z" fill="#fff"/>
        </g>
      </g>
      <g id="Grupo_53919" data-name="Grupo 53919">
        <path id="Trazado_100909" data-name="Trazado 100909" d="M396.316,393.339c-5.681-1.032-11-.594-13.3-6.813-1.819-4.922,2.423-9.559-1.846-12.941-2.57-2.035-6.623-3.256-7.519-6.735-.933-3.625,3.7-5.922,2.87-9.4-.689-2.874-4.677-3.065-3.636-6.808a4.792,4.792,0,0,1,6.165-3.494c3.1.887,3.361,3.727,5.421,5.7,1.375,1.316,3.323-.007,5.341-.249a11.767,11.767,0,0,1,6.283.823c5.528,2.879,1.1,8.977,2.1,13.94.971,4.8,7.727,1.9,11.217,5.5,4.077,4.21,1,11.489-3.016,14.925C403.722,390.078,400.155,394.036,396.316,393.339Z" fill="#f34f95"/>
        <g id="Grupo_53914" data-name="Grupo 53914">
          <path id="Trazado_100910" data-name="Trazado 100910" d="M401.8,392.085a.283.283,0,0,1-.092.035.357.357,0,0,1-.424-.241c-.038-.128-3.735-12.484-12.736-20.621-5.067-4.579-6.272-9.31-7.213-13.006-.549-2.157-1.017-3.994-2.1-4.987a.275.275,0,0,1,.021-.363.238.238,0,0,1,.338-.075c1.163,1.065,1.648,2.957,2.218,5.181.936,3.648,2.133,8.316,7.132,12.8,9.181,8.235,12.96,20.786,13,20.917A.312.312,0,0,1,401.8,392.085Z" fill="#fff"/>
        </g>
        <g id="Grupo_53915" data-name="Grupo 53915">
          <path id="Trazado_100911" data-name="Trazado 100911" d="M388.911,370.9a.27.27,0,0,1-.363-.013.3.3,0,0,1,.035-.406c1.821-1.795,3-5.255,1.818-7.435-.14-.257-.3-.531-.473-.816-.808-1.351-1.794-3-1.28-4.611a4.209,4.209,0,0,1,1.758-2.121.25.25,0,0,1,.376.051.334.334,0,0,1-.141.4,3.428,3.428,0,0,0-1.469,1.732c-.437,1.371.5,2.921,1.257,4.188.175.291.342.571.486.832,1.362,2.486.02,6.218-1.97,8.169A.3.3,0,0,1,388.911,370.9Z" fill="#fff"/>
        </g>
        <g id="Grupo_53916" data-name="Grupo 53916">
          <path id="Trazado_100912" data-name="Trazado 100912" d="M387.51,372.037a4.345,4.345,0,0,1-2.791.938c-1.393-.087-2.663-1.08-3.678-2.847-.1-.172-.209-.376-.328-.6-.672-1.248-1.669-3.1-2.889-3.271a1.543,1.543,0,0,0-1.193.392.2.2,0,0,1-.315-.043.306.306,0,0,1,.091-.363l0,0a2.038,2.038,0,0,1,1.552-.506c1.416.192,2.477,2.152,3.192,3.472.119.218.227.418.325.587.945,1.635,2.1,2.548,3.333,2.62a4.725,4.725,0,0,0,3.449-1.719.273.273,0,0,1,.4-.021.3.3,0,0,1-.031.407A9.017,9.017,0,0,1,387.51,372.037Z" fill="#fff"/>
        </g>
        <g id="Grupo_53917" data-name="Grupo 53917">
          <path id="Trazado_100913" data-name="Trazado 100913" d="M401.187,386.116a3.322,3.322,0,0,1-1.162.441.333.333,0,0,1-.388-.26.32.32,0,0,1,.271-.372c2.174-.378,3.612-3.865,3.8-5.7a8.148,8.148,0,0,0-.465-2.707c-.487-1.759-.987-3.558.253-4.863a.36.36,0,0,1,.489-.055.3.3,0,0,1,.014.45c-.986,1.034-.527,2.672-.08,4.27a8.5,8.5,0,0,1,.488,2.939C404.239,381.913,403.144,384.935,401.187,386.116Z" fill="#fff"/>
        </g>
        <g id="Grupo_53918" data-name="Grupo 53918">
          <path id="Trazado_100914" data-name="Trazado 100914" d="M398.6,387.533A3.905,3.905,0,0,1,397.4,388c-2.42.526-5.5-.858-6.942-1.883a10.094,10.094,0,0,1-2.123-2.613c-1.087-1.654-2.188-3.329-3.575-3.118a.253.253,0,0,1-.289-.241.307.307,0,0,1,.247-.322c1.709-.266,2.963,1.628,4.094,3.337a9.655,9.655,0,0,0,1.988,2.46c1.313.923,4.256,2.25,6.456,1.763a2.88,2.88,0,0,0,1.956-1.391.346.346,0,0,1,.454-.127.314.314,0,0,1,.13.435A3.454,3.454,0,0,1,398.6,387.533Z" fill="#fff"/>
        </g>
      </g>
      <g id="Grupo_53923" data-name="Grupo 53923">
        <path id="Trazado_100915" data-name="Trazado 100915" d="M471.944,398.952H397.989a2.668,2.668,0,0,1-2.65-2.685V357.953a2.667,2.667,0,0,1,2.65-2.684h73.955a2.666,2.666,0,0,1,2.65,2.684v38.314A2.667,2.667,0,0,1,471.944,398.952Z" fill="#c8d9eb"/>
        <rect id="Rectángulo_5264" data-name="Rectángulo 5264" width="77.904" height="42.397" rx="2.605" transform="translate(396.625 355.269)" fill="#f4f7fb"/>
        <path id="Trazado_100916" data-name="Trazado 100916" d="M412.525,365.946c2.138,1.323,1.933-.2,1.281-1.9-.411-1.072-.907-2.108-1.321-3.178a31.987,31.987,0,0,1-1.763-5.6h-6.249C406.3,359.437,408.44,363.418,412.525,365.946Z" fill="#c8d9eb"/>
        <path id="Trazado_100917" data-name="Trazado 100917" d="M425.183,365.6a4.267,4.267,0,0,0,.622.808,9.554,9.554,0,0,0,2.033-.881c1.569-3.262-2.466-7.87-4.759-10.259h-2.756a53.693,53.693,0,0,1,2.86,4.726C423.961,361.416,425.514,363.731,425.183,365.6Z" fill="#c8d9eb"/>
        <g id="Grupo_53922" data-name="Grupo 53922">
          <g id="Grupo_53921" data-name="Grupo 53921">
            <g id="Grupo_53920" data-name="Grupo 53920">
              <path id="Trazado_100918" data-name="Trazado 100918" d="M407.182,361.3a5.674,5.674,0,1,0,5.675,5.674A5.674,5.674,0,0,0,407.182,361.3Z" fill="#dee8f3"/>
              <circle id="Elipse_4091" data-name="Elipse 4091" cx="5.674" cy="5.674" r="5.674" transform="translate(420.438 361.298)" fill="#dee8f3"/>
              <circle id="Elipse_4092" data-name="Elipse 4092" cx="5.674" cy="5.674" r="5.674" transform="translate(439.367 361.298)" fill="#dee8f3"/>
              <circle id="Elipse_4093" data-name="Elipse 4093" cx="5.674" cy="5.674" r="5.674" transform="translate(458.297 361.298)" fill="#dee8f3"/>
              <path id="Trazado_100919" data-name="Trazado 100919" d="M407.182,380.288a5.674,5.674,0,1,0,5.675,5.674A5.674,5.674,0,0,0,407.182,380.288Z" fill="#dee8f3"/>
              <circle id="Elipse_4094" data-name="Elipse 4094" cx="5.674" cy="5.674" r="5.674" transform="translate(420.438 380.288)" fill="#dee8f3"/>
              <circle id="Elipse_4095" data-name="Elipse 4095" cx="5.674" cy="5.674" r="5.674" transform="translate(439.367 380.288)" fill="#dee8f3"/>
              <circle id="Elipse_4096" data-name="Elipse 4096" cx="5.674" cy="5.674" r="5.674" transform="translate(458.297 380.288)" fill="#dee8f3"/>
            </g>
          </g>
          <path id="Trazado_100920" data-name="Trazado 100920" d="M407.182,362.149a4.824,4.824,0,1,0,4.824,4.823A4.824,4.824,0,0,0,407.182,362.149Z" fill="#fc3"/>
          <circle id="Elipse_4097" data-name="Elipse 4097" cx="4.823" cy="4.823" r="4.823" transform="translate(421.289 362.149)" fill="#fc3"/>
          <path id="Trazado_100921" data-name="Trazado 100921" d="M408.049,363.113a2.977,2.977,0,1,0,2.993,2.993A2.98,2.98,0,0,0,408.049,363.113Z" fill="#ffe081"/>
          <path id="Trazado_100922" data-name="Trazado 100922" d="M426.941,363.113a2.977,2.977,0,1,0,2.993,2.993A2.984,2.984,0,0,0,426.941,363.113Z" fill="#ffe081"/>
          <path id="Trazado_100923" data-name="Trazado 100923" d="M445.042,362.149a4.824,4.824,0,1,0,4.823,4.823A4.824,4.824,0,0,0,445.042,362.149Z" fill="#fc3"/>
          <circle id="Elipse_4098" data-name="Elipse 4098" cx="4.823" cy="4.823" r="4.823" transform="translate(459.148 362.149)" fill="#fc3"/>
          <path id="Trazado_100924" data-name="Trazado 100924" d="M407.182,381.139a4.823,4.823,0,1,0,4.824,4.823A4.823,4.823,0,0,0,407.182,381.139Z" fill="#fc3"/>
          <circle id="Elipse_4099" data-name="Elipse 4099" cx="4.823" cy="4.823" r="4.823" transform="translate(421.289 381.139)" fill="#fc3"/>
          <path id="Trazado_100925" data-name="Trazado 100925" d="M445.042,381.139a4.823,4.823,0,1,0,4.823,4.823A4.823,4.823,0,0,0,445.042,381.139Z" fill="#fc3"/>
          <circle id="Elipse_4100" data-name="Elipse 4100" cx="4.823" cy="4.823" r="4.823" transform="translate(459.148 381.139)" fill="#fc3"/>
          <rect id="Rectángulo_5265" data-name="Rectángulo 5265" width="70.14" height="1.021" transform="translate(400.507 375.983)" fill="#d0d1de"/>
          <path id="Trazado_100926" data-name="Trazado 100926" d="M445.722,363.113a2.975,2.975,0,1,0,2.993,2.993A2.98,2.98,0,0,0,445.722,363.113Z" fill="#ffe081"/>
          <path id="Trazado_100927" data-name="Trazado 100927" d="M464.614,363.113a2.977,2.977,0,1,0,2.993,2.993A2.984,2.984,0,0,0,464.614,363.113Z" fill="#ffe081"/>
          <path id="Trazado_100928" data-name="Trazado 100928" d="M408.049,382.341a2.977,2.977,0,1,0,2.993,2.993A2.979,2.979,0,0,0,408.049,382.341Z" fill="#ffe081"/>
          <path id="Trazado_100929" data-name="Trazado 100929" d="M426.941,382.341a2.977,2.977,0,1,0,2.993,2.993A2.983,2.983,0,0,0,426.941,382.341Z" fill="#ffe081"/>
          <path id="Trazado_100930" data-name="Trazado 100930" d="M445.722,382.341a2.975,2.975,0,1,0,2.993,2.993A2.979,2.979,0,0,0,445.722,382.341Z" fill="#ffe081"/>
          <path id="Trazado_100931" data-name="Trazado 100931" d="M464.614,382.341a2.977,2.977,0,1,0,2.993,2.993A2.983,2.983,0,0,0,464.614,382.341Z" fill="#ffe081"/>
        </g>
      </g>
      <path id="Trazado_100932" data-name="Trazado 100932" d="M415.306,338.475c.325.5.645,1.46,1.185,1.777a5.057,5.057,0,0,0,2.507.35c-.456-.989-.573-3.257.419-4.132-.653-.4-.682.894-1.173.362-.18-.2-1.555-2.326-1.687-2.567-.38.452-.225,2-.6,3.26a1.471,1.471,0,0,1-.671.927Z" fill="#e17c5e"/>
      <path id="Trazado_100933" data-name="Trazado 100933" d="M418.518,331.107s3.479.39,3.656,1.346-.422,2.13-.441,2.75.512,1.505.5,1.753-.776.4-.929.536-1.2,1.752-1.9,1.912-3.276-2.117-3.417-3.779c-.026-.318-.461-.94-.381-1.314A4.743,4.743,0,0,1,418.518,331.107Z" fill="#ff9d8a"/>
      <path id="Trazado_100934" data-name="Trazado 100934" d="M417.809,329.958c-1.441-.225-.562.564-2.162,1.21a1.485,1.485,0,0,0-.566,2.257c.141.224.074.445-.14.825-.122.794,1.241,2.555,1.665,2.017.1-.129-.284-.948-.258-1.3-.086-.578.428-1.167.924-.649a.969.969,0,0,1,.32.638c-.02.684.2.865.495.639.446-.339-.064-1.712.277-2a3.34,3.34,0,0,0,1-1.462C419.992,331.434,419.249,330.184,417.809,329.958Z" fill="#110239"/>
      <g id="Grupo_53925" data-name="Grupo 53925">
        <path id="Trazado_100935" data-name="Trazado 100935" d="M427.641,365.242c.083.264.618.712.377,1.032-.121.161-.6-.258-.7-.418a19.808,19.808,0,0,1-1.193-2.6c-.1-.407-.184-.8-.3-1.179a5.712,5.712,0,0,0,1.215-.776c.543.324,1.111.755,1.646,1.062.288.165.609.293.9.439.186.093.587.242.577.5-.011.287-.417.158-.577.108-.232-.073-.641-.345-.838-.093-.285.368.4.9.62,1.2.2.274.962,1.131.34,1.126a7.83,7.83,0,0,1-1.05-.959c.025.039.527.641.55.681.124.211.5.662.353.849-.314.4-1.115-.831-1.239-1l.3.484c.263.371.42.678.156.757C428.451,366.558,427.888,365.557,427.641,365.242Z" fill="#ff9d8a"/>
        <g id="Grupo_53924" data-name="Grupo 53924">
          <path id="Trazado_100936" data-name="Trazado 100936" d="M422.124,342.418a2.846,2.846,0,0,1,.512,1.319c.865,3.7,1.71,8.77,2.088,9.843.456,1.3,3.678,7.976,3.678,7.976l-2.625,1.844s-3.823-7.336-4.311-8.579-2.924-7.514-2.924-7.514Z" fill="#fff"/>
          <path id="Trazado_100937" data-name="Trazado 100937" d="M423.218,354.876a33.135,33.135,0,0,1-2.725-8.988l-1.951,1.419s2.435,6.271,2.924,7.514,4.311,8.579,4.311,8.579l.658-.46A55,55,0,0,0,423.218,354.876Z" fill="#d0d1de"/>
        </g>
      </g>
      <path id="Trazado_100938" data-name="Trazado 100938" d="M420.1,340.739c-.442-.343-.9-.687-1.329-.976,0,0-1.58,1.493-3.4-1.386l-.27.074a10.215,10.215,0,0,1-1.642,2.08,7.815,7.815,0,0,0-1.944,4.689c-.519,3.382-1.124,6.731-1.975,10.035h8.637c.717-2.588,1.522-5.167,2.018-7.744C420.632,345.23,420.144,343,420.1,340.739Z" fill="#56b2e5"/>
      <path id="Trazado_100939" data-name="Trazado 100939" d="M415.369,338.377s-4.172,1.134-5.078,1.459c-.365.13.52,4.216-.475,6.572-.892,2.114-2.367,7.908-2.878,8.847h6.819c.519-3.2,1.226-6.8,1.534-9.644C415.727,341.578,415.627,338.785,415.369,338.377Z" fill="#fff"/>
      <path id="Trazado_100940" data-name="Trazado 100940" d="M422.112,342.389s-1.363-1.183-2.667-2.145c.389,2,.367,3.14-.028,6.427-.363,3.009-1,5.661-1.526,8.584h1.686c.708-2.634,1.557-5.856,1.867-7.342A27.226,27.226,0,0,0,422.112,342.389Z" fill="#fff"/>
      <path id="Trazado_100941" data-name="Trazado 100941" d="M411.538,343.11c-.636,1.135-1.416,2.383-1.951,3.41-.862,2.181-2.02,7.815-2.521,8.735h5.454c-.03-.431-.216-1.142-.216-1.624a9.668,9.668,0,0,1,.636-3.953c.5-1.154-.136-5-.36-5.262C412.214,343.983,411.87,343.549,411.538,343.11Z" fill="#d0d1de"/>
      <path id="Trazado_100942" data-name="Trazado 100942" d="M412.462,366.149c.084.265.618.712.378,1.032-.121.161-.6-.258-.7-.418a19.666,19.666,0,0,1-1.194-2.6c-.1-.407-.183-.8-.3-1.179a5.686,5.686,0,0,0,1.215-.776c.543.324,1.111.755,1.647,1.062.287.165.608.293.9.439.186.093.587.242.577.5-.011.287-.417.159-.577.108-.231-.073-.641-.345-.837-.092-.286.367.4.9.62,1.2.2.274.961,1.131.34,1.126a7.705,7.705,0,0,1-1.05-.959c.024.039.526.641.55.681.123.211.5.662.353.85-.315.4-1.116-.831-1.24-1l.3.484c.263.371.42.678.157.757C413.273,367.465,412.709,366.464,412.462,366.149Z" fill="#ff9d8a"/>
      <path id="Trazado_100943" data-name="Trazado 100943" d="M412.63,362.287l-2.271,1.406s-5.007-8.692-5.1-11.2c-.072-2.018.344-4.522,2.307-8.962,1.252-2.831,2.612-3.97,3.177-3.746.4.16,2.678,1.175,1.557,4.652-.391,1.214-2.945,6.388-2.986,6.883S412.63,362.287,412.63,362.287Z" fill="#fff"/>
      <path id="Trazado_100944" data-name="Trazado 100944" d="M423.644,330.92s.978,1.407-1.3,2.348-5.543-1.537-5.543-1.537.084-1.234,1.9-1.763c1.355-.394,2.625-.338,3.317.446C423.2,331.748,423.644,330.92,423.644,330.92Z" fill="#110239"/>
      <path id="Trazado_100945" data-name="Trazado 100945" d="M457.747,358.562l2.935.273s1.495.223,1.943,5.23.8,10.29.308,11.933-6.285,1.324-6.285,1.324a88.87,88.87,0,0,0,0-9.829,36.667,36.667,0,0,1-.324-6.772C456.487,359.915,456.932,358.7,457.747,358.562Z" fill="#56b2e5"/>
      <path id="Trazado_100946" data-name="Trazado 100946" d="M455.068,360.721c-8.783,4.193-6.7,3.506-8.127,3.886s-9.832.909-9.832.909l-.928,3.608s10.239-.56,11.635-.882,7.271-2.55,7.271-2.55Z" fill="#fff"/>
      <path id="Trazado_100947" data-name="Trazado 100947" d="M437.176,365.559c.615.37.773,1.047,1.615,1.167a22.025,22.025,0,0,0,7.758-.392,8.535,8.535,0,0,0,2.1-.072,24.265,24.265,0,0,0,6.425-2.718l.008,2.148s-5.875,2.229-7.271,2.55-11.635.882-11.635.882l.918-3.571Z" fill="#d0d1de"/>
      <path id="Trazado_100948" data-name="Trazado 100948" d="M457.184,403.23a7.363,7.363,0,0,1,.376,1.927c0,.84-.057,1.733-.314,1.944-.516.422-7.033.477-7.563-.125s-.177-1.577,1.2-1.913a21.808,21.808,0,0,0,2.618-.561,1.225,1.225,0,0,0,.706-1.4Z" fill="#110239"/>
      <path id="Trazado_100949" data-name="Trazado 100949" d="M466.779,403.33a7.409,7.409,0,0,1,.549,1.885c.08.836.1,1.731-.137,1.965-.475.467-6.961,1.111-7.543.56s-.319-1.554,1.025-2.014a21.652,21.652,0,0,0,2.556-.8,1.227,1.227,0,0,0,.577-1.459Z" fill="#110239"/>
      <path id="Trazado_100950" data-name="Trazado 100950" d="M456.314,375.531l8.782.976s-6.037,12.425-6.631,14.442-.686,13.106-.686,13.106H453.8s.051-13.074.246-14.05S456.314,375.531,456.314,375.531Z" fill="#110239"/>
      <path id="Trazado_100951" data-name="Trazado 100951" d="M459.759,376.182h6.914a11.288,11.288,0,0,1,.634,5.415,61.127,61.127,0,0,0-.983,8.772c.049.878,1.058,13.6,1.058,13.6l-3.828.085s-1.749-12.244-2.009-13.578C460.875,387.036,459.759,376.182,459.759,376.182Z" fill="#110239"/>
      <path id="Trazado_100952" data-name="Trazado 100952" d="M456.83,359.308a19.884,19.884,0,0,0,.242-3.866,8.933,8.933,0,0,0,2.421-.191,3.642,3.642,0,0,0,.822-.289,9.863,9.863,0,0,0,1.04,4.018A3.609,3.609,0,0,1,456.83,359.308Z" fill="#ff9d8a"/>
      <path id="Trazado_100953" data-name="Trazado 100953" d="M461.512,359.242c-.005.021-.012.05-.022.086l0,.011a1.274,1.274,0,0,1-.05.13l0,.006a1.478,1.478,0,0,1-.088.161l-.015.023a1.707,1.707,0,0,1-.338.375l-.025.022a2.293,2.293,0,0,1-.264.183l-.04.022a2.734,2.734,0,0,1-.351.171,2.957,2.957,0,0,0-.8-1.4A3.716,3.716,0,0,0,457,357.954a14.167,14.167,0,0,0,.074-2.512,8.933,8.933,0,0,0,2.421-.191,3.667,3.667,0,0,0,.823-.289c.085,1.007.368,3.357,1.2,4.242l0,.026Z" fill="#e17c5e"/>
      <path id="Trazado_100954" data-name="Trazado 100954" d="M460.452,349.45s-3.487-.858-4,0-.349,2.2-.55,2.8-1.026,1.268-1.106,1.509.6.664.7.845.536,2.113,1.153,2.515,3.768-.885,4.493-2.434S461.4,349.906,460.452,349.45Z" fill="#ff9d8a"/>
      <path id="Trazado_100955" data-name="Trazado 100955" d="M457.026,372.6a72.87,72.87,0,0,1-.364,9.832c-.413,1.561-.66,3.155-.983,4.734-.981-.2-2.007-.453-3.089-.776,0,0,2.313-8.319,2.294-9.05-.067-2.569-.209-8.585-.143-10.574.124-3.74.15-5.952.15-5.952a23,23,0,0,1,1.92-1.733s.187.417.471.484A87.566,87.566,0,0,0,457.026,372.6Z" fill="#fff"/>
      <path id="Trazado_100956" data-name="Trazado 100956" d="M460.837,374.971c.01-.429.022-.857.011-1.287-.068-2.639-.636-5.177-.91-7.792a29.087,29.087,0,0,1-.037-6.1,3.292,3.292,0,0,0,1.345-.962s3.816,2.187,4.28,2.375c.385.157-.658,4.019-.219,6.727.356,2.2,1.533,6.944,2.028,8.639.977,3.342,1.15,10.312,1.15,10.312a23.02,23.02,0,0,1-8.676.866C460.639,383.529,461.616,379.193,460.837,374.971Z" fill="#fff"/>
      <path id="Trazado_100957" data-name="Trazado 100957" d="M464.788,375.529c-1.087-3.47-1.579-6.328-.723-9.926a23.626,23.626,0,0,1,1.427-4.006,30.846,30.846,0,0,0-.185,6.34c.356,2.2,1.533,6.944,2.028,8.639.977,3.342,1.15,10.312,1.15,10.312a17.387,17.387,0,0,1-2.6.615C467.247,383.474,466.081,379.652,464.788,375.529Z" fill="#d0d1de"/>
      <path id="Trazado_100958" data-name="Trazado 100958" d="M458.952,349.942a3.417,3.417,0,0,0,.444,1.761c.225.4-.753,1.544-.444,2.028.206.322.481.226.7-.44a1,1,0,0,1,.534-.5c.825-.4,1.08.872.342,1.287-.516.292-.14,1.615-.14,1.615.587.411,2.439-.2,2.171-1.562-.171-.866-.244-1.2.052-1.421a1.524,1.524,0,0,0,.254-2.374c-1.311-1.189-.185-1.637-1.652-1.931S458.593,349.051,458.952,349.942Z" fill="#110239"/>
      <path id="Trazado_100959" data-name="Trazado 100959" d="M461.485,349.092c-.1-.313-.686-.694-.979-.892a4.164,4.164,0,0,0-1.515-.6,3.823,3.823,0,0,0-1.656.02c-.466.111-.851.338-1.33.415a1.554,1.554,0,0,1-1.21-.178,3.086,3.086,0,0,0-.009,1.092,3.4,3.4,0,0,0,.673,1.168,3.572,3.572,0,0,0,3.984.887,2.785,2.785,0,0,0,1.5-1.129A3.37,3.37,0,0,1,461.485,349.092Z" fill="#110239"/>
      <path id="Trazado_100960" data-name="Trazado 100960" d="M435.456,368.133a1.96,1.96,0,0,1,.11-2.244c.325-.472.894-.386,1.733-.29a2.356,2.356,0,0,1,1.235.332c.35.763-1.513.4-2.006.411,0,0,2.016.15,2.113.531.163.709-1.647.31-2.114.29a3.061,3.061,0,0,1,1.354.231c.35.076.226.33.173.387-.268.289-1.753-.019-1.753-.019.263.054,1.276.051.99.436-.186.251-.61.179-.845.187A1.481,1.481,0,0,1,435.456,368.133Z" fill="#ff9d8a"/>
      <g id="Grupo_53926" data-name="Grupo 53926">
        <path id="Trazado_100961" data-name="Trazado 100961" d="M430.44,362.5l-.354.881-2.956-1.187-2.917,7.261,2.957,1.188-.354.882a2.906,2.906,0,0,0,1.613,3.78l16.093,6.464a2.908,2.908,0,0,0,3.781-1.614l3.625-9.025a2.908,2.908,0,0,0-1.614-3.781l-16.093-6.463A2.907,2.907,0,0,0,430.44,362.5Z" fill="#f34f95"/>
        <rect id="Rectángulo_5266" data-name="Rectángulo 5266" width="7.825" height="3.186" transform="matrix(0.373, -0.928, 0.928, 0.373, 424.213, 369.454)" fill="#9f0031" opacity="0.56"/>
        <rect id="Rectángulo_5267" data-name="Rectángulo 5267" width="9.509" height="11.094" transform="matrix(0.372, -0.928, 0.928, 0.372, 432.925, 373.906)" fill="#110239"/>
        <path id="Trazado_100962" data-name="Trazado 100962" d="M431.786,373.381l-1-.387,3.535-8.828,1,.388Z" fill="#110239"/>
        <path id="Rectángulo_5268" data-name="Rectángulo 5268" d="M.761,0h9.432a.761.761,0,0,1,.761.761V2.7a.761.761,0,0,1-.761.761H.762A.762.762,0,0,1,0,2.7V.761A.761.761,0,0,1,.761,0Z" transform="translate(421.659 370.115) rotate(-68.118)" fill="#110239"/>
      </g>
      <path id="Trazado_100963" data-name="Trazado 100963" d="M451.2,370.708c-.406-.574-1.034-1.169-1.477-1.742-.2-.262-.372-.562-.557-.833-.117-.172-.319-.548-.576-.5-.282.05-.1.434-.028.585.1.219.429.587.2.816-.324.332-.948-.274-1.269-.45-.3-.164-1.033-.64-.944-.025.06.414.9.736,1.189.9a4.768,4.768,0,0,0-1.063-.607c-.225-.093-.611-.32-.8-.175-.276.213.361.7.542.8a3.445,3.445,0,0,0,.9.39c-.333-.152-1.458-.785-1.547-.226-.054.343,1.074.646,1.419.847-.273-.046-.723-.469-1.008-.187-.142.142.2.318.367.394.243.107.517.158.748.276a3.347,3.347,0,0,0,.574.194,6.077,6.077,0,0,0,1.314.458,13.217,13.217,0,0,1,1.435.169C450.4,371.1,451.225,371.341,451.2,370.708Z" fill="#ff9d8a"/>
      <path id="Trazado_100964" data-name="Trazado 100964" d="M450.714,369.78l-.736,2.365s10.092,3.7,11.935,1.667c1.619-1.784,4.133-8.288,4.4-10.268.416-3.043-3.023-3.764-4.211-1.4-1.349,2.692-2.122,8.086-2.657,8.185S450.714,369.78,450.714,369.78Z" fill="#fff"/>
    </g>
    <g id="Grupo_53928" data-name="Grupo 53928">
      <rect id="Rectángulo_5269" data-name="Rectángulo 5269" width="15.024" height="4.904" rx="2.428" transform="translate(399.944 403.189)" fill="#56b2e5"/>
      <path id="Trazado_100965" data-name="Trazado 100965" d="M412.54,403.189h-5.123v4.9h5.123a2.428,2.428,0,0,0,2.428-2.427v-.049A2.428,2.428,0,0,0,412.54,403.189Z" fill="#fc3"/>
    </g>
    <g id="Grupo_53929" data-name="Grupo 53929">
      <rect id="Rectángulo_5270" data-name="Rectángulo 5270" width="15.024" height="4.904" rx="2.428" transform="translate(430.326 405.756)" fill="#fff"/>
      <path id="Trazado_100966" data-name="Trazado 100966" d="M432.753,410.66h5.123v-4.9h-5.123a2.427,2.427,0,0,0-2.427,2.428v.049A2.427,2.427,0,0,0,432.753,410.66Z" fill="#f34f95"/>
    </g>
    <g id="Grupo_53930" data-name="Grupo 53930">
      <path id="Trazado_100967" data-name="Trazado 100967" d="M420.669,405.838l9.164-4.408a2.428,2.428,0,0,1,3.24,1.135l.021.044a2.428,2.428,0,0,1-1.135,3.24l-9.164,4.408a2.425,2.425,0,0,1-3.239-1.135l-.022-.044A2.428,2.428,0,0,1,420.669,405.838Z" fill="#fc3"/>
      <path id="Trazado_100968" data-name="Trazado 100968" d="M422.8,410.257l4.617-2.221-2.126-4.419-4.617,2.221a2.428,2.428,0,0,0-1.135,3.24l.021.044A2.426,2.426,0,0,0,422.8,410.257Z" fill="#f34f95"/>
    </g>
    <g id="Grupo_53932" data-name="Grupo 53932">
      <path id="Trazado_100969" data-name="Trazado 100969" d="M415.348,414.283l-3.458,2.785a2.427,2.427,0,0,1-3.417-.329l-.032-.038a2.428,2.428,0,0,1,.329-3.417l3.458-2.785a2.427,2.427,0,0,1,3.417.328l.031.038A2.429,2.429,0,0,1,415.348,414.283Z" fill="#fc3"/>
      <g id="Grupo_53931" data-name="Grupo 53931">
        <path id="Trazado_100970" data-name="Trazado 100970" d="M409.455,412.715l-.685.569a2.428,2.428,0,0,0-.329,3.417l.032.038a2.427,2.427,0,0,0,3.417.329l.634-.529-3.119-3.783Z" fill="#f34f95"/>
        <path id="Trazado_100971" data-name="Trazado 100971" d="M413.616,412.494l-.031-.038a2.42,2.42,0,0,0-3.278-.422l-.852.681-.05.041,3.119,3.783.049-.039.715-.589A2.427,2.427,0,0,0,413.616,412.494Z" fill="#f34f95"/>
      </g>
    </g>
  </g>
</svg>
