<svg xmlns="http://www.w3.org/2000/svg" width="72.848" height="95.739" viewBox="0 0 72.848 95.739">
  <g id="Grupo_53827" data-name="Grupo 53827" transform="translate(-194.68 -176.753)">
    <g id="Grupo_53818" data-name="Grupo 53818">
      <path id="Trazado_100646" data-name="Trazado 100646" d="M249.452,184.451H234.8v-4.327a3.371,3.371,0,0,1,3.371-3.371h7.906a3.371,3.371,0,0,1,3.371,3.371Z" fill="#fff"/>
      <path id="Trazado_100647" data-name="Trazado 100647" d="M225.993,184.451H211.345v-4.327a3.371,3.371,0,0,1,3.371-3.371h7.906a3.371,3.371,0,0,1,3.371,3.371Z" fill="#fff"/>
      <g id="Grupo_53817" data-name="Grupo 53817">
        <path id="Trazado_100648" data-name="Trazado 100648" d="M264.566,265.1H197.643a2.962,2.962,0,0,1-2.954-3.187l5.705-75.05a5.782,5.782,0,0,1,5.765-5.344H256.05a5.782,5.782,0,0,1,5.765,5.344l5.7,75.05A2.962,2.962,0,0,1,264.566,265.1Z" fill="#fff"/>
        <path id="Trazado_100649" data-name="Trazado 100649" d="M260.69,224.949H217.766l-1.915,36.5c-.1,1.97.972,3.651,2.336,3.651h42.082c1.364,0,2.44-1.681,2.336-3.651Z" fill="#56b2e5"/>
        <path id="Trazado_100650" data-name="Trazado 100650" d="M215.464,181.518h-9.305a5.782,5.782,0,0,0-5.765,5.344l-5.705,75.05a2.962,2.962,0,0,0,2.954,3.187h13.015Z" fill="#dee8f3"/>
        <path id="Trazado_100651" data-name="Trazado 100651" d="M195.71,248.481l-1.021,13.431a2.962,2.962,0,0,0,2.954,3.187h66.923a2.962,2.962,0,0,0,2.954-3.187L266.5,248.481Z" fill="#110239"/>
        <path id="Trazado_100652" data-name="Trazado 100652" d="M263.6,210.356l-1.786-23.494a5.782,5.782,0,0,0-5.765-5.344H206.159a5.782,5.782,0,0,0-5.765,5.344l-1.786,23.494Z" fill="#110239"/>
      </g>
      <rect id="Rectángulo_5167" data-name="Rectángulo 5167" width="6.049" height="3.666" transform="translate(236.003 213.778)" fill="#110239"/>
      <rect id="Rectángulo_5168" data-name="Rectángulo 5168" width="6.049" height="3.666" transform="translate(245.076 213.778)" fill="#110239"/>
      <path id="Trazado_100653" data-name="Trazado 100653" d="M258.854,215.61a2.107,2.107,0,1,1-2.108-2.107A2.107,2.107,0,0,1,258.854,215.61Z" fill="#110239"/>
    </g>
    <g id="Grupo_53819" data-name="Grupo 53819">
      <rect id="Rectángulo_5169" data-name="Rectángulo 5169" width="19.472" height="31.556" transform="translate(215.305 239.746)" fill="#dee8f3"/>
      <rect id="Rectángulo_5170" data-name="Rectángulo 5170" width="19.472" height="31.556" transform="translate(221.109 239.746)" fill="#fff"/>
      <path id="Trazado_100654" data-name="Trazado 100654" d="M234.333,241.858a61.836,61.836,0,0,0,6.249,4.751v-6.863h-8.031A11.564,11.564,0,0,0,234.333,241.858Z" fill="#dee8f3"/>
      <rect id="Rectángulo_5171" data-name="Rectángulo 5171" width="1.26" height="1.79" transform="translate(227.3 247.693)" fill="#dee8f3"/>
      <rect id="Rectángulo_5172" data-name="Rectángulo 5172" width="1.26" height="1.79" transform="translate(229.586 247.693)" fill="#dee8f3"/>
      <rect id="Rectángulo_5173" data-name="Rectángulo 5173" width="1.26" height="1.79" transform="translate(231.871 247.693)" fill="#dee8f3"/>
      <rect id="Rectángulo_5174" data-name="Rectángulo 5174" width="1.26" height="1.79" transform="translate(234.157 247.693)" fill="#dee8f3"/>
      <rect id="Rectángulo_5175" data-name="Rectángulo 5175" width="1.26" height="1.79" transform="translate(227.3 251.321)" fill="#dee8f3"/>
      <rect id="Rectángulo_5176" data-name="Rectángulo 5176" width="1.26" height="1.79" transform="translate(229.586 251.321)" fill="#dee8f3"/>
      <rect id="Rectángulo_5177" data-name="Rectángulo 5177" width="1.26" height="1.79" transform="translate(231.871 251.321)" fill="#dee8f3"/>
      <rect id="Rectángulo_5178" data-name="Rectángulo 5178" width="1.26" height="1.79" transform="translate(234.157 251.321)" fill="#dee8f3"/>
      <rect id="Rectángulo_5179" data-name="Rectángulo 5179" width="1.26" height="1.79" transform="translate(227.3 254.95)" fill="#dee8f3"/>
      <rect id="Rectángulo_5180" data-name="Rectángulo 5180" width="1.26" height="1.79" transform="translate(229.586 254.95)" fill="#dee8f3"/>
      <rect id="Rectángulo_5181" data-name="Rectángulo 5181" width="1.26" height="1.79" transform="translate(231.871 254.95)" fill="#dee8f3"/>
      <rect id="Rectángulo_5182" data-name="Rectángulo 5182" width="1.26" height="1.79" transform="translate(234.157 254.95)" fill="#dee8f3"/>
      <rect id="Rectángulo_5183" data-name="Rectángulo 5183" width="25.276" height="1.775" transform="translate(215.305 269.527)" fill="#110239"/>
    </g>
    <g id="Grupo_53821" data-name="Grupo 53821">
      <g id="Grupo_53820" data-name="Grupo 53820">
        <path id="Trazado_100655" data-name="Trazado 100655" d="M225.041,227.694v12.052h12.133l-3.3-6.026v-6.026Z" fill="#fff"/>
        <path id="Trazado_100656" data-name="Trazado 100656" d="M233.276,234.507h-6.583l2.872,5.24h6.583Z" fill="#dee8f3"/>
        <path id="Trazado_100657" data-name="Trazado 100657" d="M225.058,233.72v-6.026l-1.478.513-4.683,3.071v8.469h9.465Z" fill="#dee8f3"/>
      </g>
      <rect id="Rectángulo_5184" data-name="Rectángulo 5184" width="6.978" height="5.063" transform="translate(226.007 228.413)" fill="#110239"/>
    </g>
    <g id="Grupo_53826" data-name="Grupo 53826">
      <path id="Trazado_100658" data-name="Trazado 100658" d="M236.215,240.652c-.741-.077-.895-.326-1.05-.568a.952.952,0,0,0-.246-.3,2.033,2.033,0,0,1-.315-.32.816.816,0,0,0-.342-.282c-.179-.05-.121.18-.06.328s.526.448.471.623-.594-.209-.7-.288c-.25-.184-.227-.417-.349-.67-.072-.149-.15-.195-.241-.028a.5.5,0,0,0,.045.4,1.68,1.68,0,0,0,.462.679,1.959,1.959,0,0,1-.5-.588c-.072-.129-.283-.728-.494-.632-.425.191.436,1.339.669,1.458a2.307,2.307,0,0,1-.536-.561c-.1-.121-.305-.418-.4-.158-.137.384.582.811.869,1.06a2.69,2.69,0,0,1-.61-.415c-.262-.2-.316.063-.084.312a3.786,3.786,0,0,0,.378.317,2.4,2.4,0,0,0,1.521.439,5.8,5.8,0,0,1,1.234.13C236.32,241.661,236.167,240.973,236.215,240.652Z" fill="#ff9d8a"/>
      <g id="Grupo_53825" data-name="Grupo 53825">
        <g id="Grupo_53823" data-name="Grupo 53823">
          <g id="Grupo_53822" data-name="Grupo 53822">
            <path id="Trazado_100659" data-name="Trazado 100659" d="M231.623,235.484c.042-.2.893.063,1.04.166a5.014,5.014,0,0,1,.722.437c.2.178.38.348.579.524a2.873,2.873,0,0,1,.249.36,2.814,2.814,0,0,0,.555.386c.057.03,0,.079.116.112a1.846,1.846,0,0,0-.132.871,2.118,2.118,0,0,0-.42-.139c-.127-.019-.87-.009-1-.015a3.158,3.158,0,0,1-.767-.107c-.09-.028-.407-.008-.417-.125-.023-.258.386-.268.479-.289a2.194,2.194,0,0,0,.755-.13.367.367,0,0,0,.027-.528,1.262,1.262,0,0,0-.627-.4c-.15-.051-.72-.269-.878-.325-.46-.161-.39-.433,0-.362.078.014.727.214.787.221-.071-.043-.141-.068-.186-.092C232.221,235.9,231.574,235.73,231.623,235.484Z" fill="#ff9d8a"/>
          </g>
        </g>
        <path id="Trazado_100660" data-name="Trazado 100660" d="M247.457,228.479c-.028.048-.051.1-.081.144a7.745,7.745,0,0,1-.91,1.241c-.215.224-.582.422-.76.646a2.4,2.4,0,0,1-.228.253,21.374,21.374,0,0,1,1.131,3.2s2.224-.668,2.843-1.768A23.461,23.461,0,0,1,247.457,228.479Z" fill="#ff9d8a"/>
        <path id="Trazado_100661" data-name="Trazado 100661" d="M247.1,232.531a3.359,3.359,0,0,1,.646-1.936,5.072,5.072,0,0,1,.451-.523,11.937,11.937,0,0,1-.736-1.593c-.028.048-.051.1-.081.144a7.745,7.745,0,0,1-.91,1.241c-.215.224-.582.422-.76.646a2.4,2.4,0,0,1-.228.253,21.374,21.374,0,0,1,1.131,3.2,8.858,8.858,0,0,0,.871-.327A1.739,1.739,0,0,1,247.1,232.531Z" fill="#e17c5e"/>
        <path id="Trazado_100662" data-name="Trazado 100662" d="M255.708,269.475s.336,2.253-.016,2.58-5.035.656-5.443.247-.2-1.126.78-1.43c1.048-.325,1.575-.053,2.229-.349s.446-1.335.446-1.335Z" fill="#110239"/>
        <path id="Trazado_100663" data-name="Trazado 100663" d="M247.815,269.475s.337,2.253-.015,2.58-5.035.656-5.444.247-.2-1.126.78-1.43c1.049-.325,1.575-.053,2.229-.349s.447-1.335.447-1.335Z" fill="#110239"/>
        <path id="Trazado_100664" data-name="Trazado 100664" d="M256.45,256.794a68.862,68.862,0,0,0,1.136-12.83,5.846,5.846,0,0,0-2.336.066c-1.488.4-2.979.778-4.469,1.155a90.951,90.951,0,0,1,2,12.2c.044,2.046.543,12.82.543,12.82l2.708.062C256.26,268.627,256.352,257.34,256.45,256.794Z" fill="#56b2e5"/>
        <path id="Trazado_100665" data-name="Trazado 100665" d="M253.162,244.612a23.508,23.508,0,0,1-2.39.543,95.473,95.473,0,0,1,2,12.174c.527-1.005,2.537-4.563,3.653-7.269a15.2,15.2,0,0,0,1.154-5.7v-.024A10.928,10.928,0,0,0,253.162,244.612Z" fill="#4556ba"/>
        <path id="Trazado_100666" data-name="Trazado 100666" d="M254.985,243.943c-1.005.293-2.827.7-4.209,1.129-1.047,2.356-3.956,8.623-4.512,11.125-.77,3.461-.772,13.814-.772,13.814l2.621.024s1.8-11.727,2.113-12.543c1.276-3.285,3.61-5.563,4.519-7.117a19.38,19.38,0,0,0,2.69-6.946C256.653,243.617,255.826,243.7,254.985,243.943Z" fill="#56b2e5"/>
        <path id="Trazado_100667" data-name="Trazado 100667" d="M248.572,235.08c-.562-1.121-.121-1.917-1.314-1.531-1.956.634-3.832,4.86-4.97,5.134-1.581.381-7.4-1.633-7.4-1.633l-.6,1.483s7.674,3.356,8.931,3.038,4.56-3.911,5.364-5.125A1.315,1.315,0,0,0,248.572,235.08Z" fill="#d0d1de"/>
        <g id="Grupo_53824" data-name="Grupo 53824">
          <path id="Trazado_100668" data-name="Trazado 100668" d="M246.835,253.641a19.226,19.226,0,0,0,4.795,1.1c2.442.181,5.717-.154,5.956-.883,0,0,.634-8.585-.342-11.584a33.559,33.559,0,0,0-3.991-8,5.749,5.749,0,0,0-4.034-2.439,7.212,7.212,0,0,1-2.743,1.587s1.206,5.2,1.776,7.261c.375,1.355.783,3.1,1.091,4.46C249.5,245.843,246.835,253.641,246.835,253.641Z" fill="#fff"/>
          <path id="Trazado_100669" data-name="Trazado 100669" d="M250.086,235.409c-.112.09-.227.178-.331.276a7.567,7.567,0,0,1-2.033,1.561,1.694,1.694,0,0,1-.316.094c.075.31.151.621.226.926l.009.036c.073.3.145.585.214.861l.007.025c.065.259.127.5.187.731l.038.146c.058.223.115.434.165.615.375,1.355.783,3.1,1.091,4.46.16.7-2.508,8.5-2.508,8.5s.535.2,1.34.438c.847-3.037,2.449-8.059,2.641-8.936.435-1.987-.583-4.2-.546-6.246A10.137,10.137,0,0,0,250.086,235.409Z" fill="#d0d1de"/>
        </g>
        <path id="Trazado_100670" data-name="Trazado 100670" d="M248.293,226.026s-1.481-1.747-2.733-1.333-2.016.837-2.057,1.373a14.422,14.422,0,0,1-.166,2.552c-.194.586-.726,1.428-.651,1.651s.824.111.889.192.89,1.628,1.2,1.73a5.458,5.458,0,0,0,2.695-2.322C247.659,229.042,248.742,227.288,248.293,226.026Z" fill="#ff9d8a"/>
        <path id="Trazado_100671" data-name="Trazado 100671" d="M245.729,226.863c-.25.344-.984.863-2.5.6s-1.732-3.5,1.154-4.011,3.02.528,3.6.619a2.035,2.035,0,0,1,1.444.8,2.821,2.821,0,0,1-.03,3.576c-1.035,1.534-1.98,1.563-1.98,1.563-.144-.339-.267-.941,0-1.2a2.084,2.084,0,0,0,.407-.365.567.567,0,0,0-.765-.786c-.3.126-.313.717-.448.966s-.281.25-.4.235c-.228-.028-.534-.623-.253-1.4C246.143,226.957,245.979,226.519,245.729,226.863Z" fill="#110239"/>
        <path id="Trazado_100672" data-name="Trazado 100672" d="M235.708,241.843l.4-1.521s6.069.837,6.915.237c2.149-1.522,3.234-6.054,4.614-6.442s2.879.236,2.273,2.279-4.2,5.663-5.686,6.6C243.2,243.642,239.328,242.866,235.708,241.843Z" fill="#fff"/>
      </g>
    </g>
  </g>
</svg>
