<svg xmlns="http://www.w3.org/2000/svg" width="81.964" height="106.483" viewBox="0 0 81.964 106.483">
  <g id="Grupo_53942" data-name="Grupo 53942" transform="translate(-158.76 -311.901)">
    <path id="Trazado_100973" data-name="Trazado 100973" d="M190.65,339.084a38.1,38.1,0,0,0-3.54,1.924,14.206,14.206,0,0,0-2.8,2.279c-1.638,1.776-2.019,3.528-2.486,5.838a23.706,23.706,0,0,0-.575,5.774c.1,2.3.48,4.607.577,6.886.1,2.4-.977,3.952-2.466,5.692-1.573,1.839-2.438,4.455-3.452,6.637a17.075,17.075,0,0,0-1.547,4.295c-.214,1.431,1.073,2.341,1.954,3.286a9.943,9.943,0,0,0,5.657,3.063,4.547,4.547,0,0,0,4.6-1.356,6.891,6.891,0,0,0,2.22-5.1c-.153-2.57-2.74-3.393-4.092-5.3s.534-3.277.658-5.259a7.945,7.945,0,0,0-.64-2.92,16.026,16.026,0,0,1-.593-3.532,37.775,37.775,0,0,1,.062-7.891,15.652,15.652,0,0,1,2.81-7.212,9.157,9.157,0,0,1,3.689-2.656c.914-.361,3.743-1.945,3.952-2.878.1-.462-3.3.468-3.548.045C190.825,340.243,190.995,339.535,190.65,339.084Z" fill="#fc3"/>
    <g id="Grupo_53935" data-name="Grupo 53935">
      <path id="Trazado_100974" data-name="Trazado 100974" d="M186.368,363.853V352.244h-6.354v11.609c-9.644,1.933-17.9,10.447-17.9,20.66a21.073,21.073,0,0,0,42.146,0C204.264,374.3,196.011,365.786,186.368,363.853Z" fill="#fff" opacity="0.32" style="mix-blend-mode: screen;isolation: isolate"/>
      <path id="Trazado_100975" data-name="Trazado 100975" d="M190.52,378.356a17.584,17.584,0,0,1-11.51-.916c-4.915-2.292-9.394-3.594-14.176-2.74a19.471,19.471,0,0,0-2.716,9.813,21.073,21.073,0,1,0,42.145,0,19.745,19.745,0,0,0-3.787-11.477C197.094,374.619,194.186,377.483,190.52,378.356Z" fill="#56b2e5"/>
      <path id="Trazado_100976" data-name="Trazado 100976" d="M188.017,361.141v-8.9h-1.649v11.609c9.643,1.933,17.9,10.447,17.9,20.66a21.073,21.073,0,1,1-42.145,0c0-10.213,8.252-18.727,17.9-20.66V352.244h-1.65v8.9a24.431,24.431,0,1,0,9.653,0Z" fill="#fff"/>
      <rect id="Rectángulo_5271" data-name="Rectángulo 5271" width="9.653" height="4.423" transform="translate(178.364 352.244)" fill="#dfeaeb"/>
      <rect id="Rectángulo_5272" data-name="Rectángulo 5272" width="15.61" height="4.435" rx="2.195" transform="translate(175.386 348.406)" fill="#fff"/>
      <path id="Trazado_100977" data-name="Trazado 100977" d="M172.564,381.217a2.3,2.3,0,1,1-2.3-2.3A2.3,2.3,0,0,1,172.564,381.217Z" fill="#6fc6ec"/>
      <circle id="Elipse_4101" data-name="Elipse 4101" cx="1.069" cy="1.069" r="1.069" transform="translate(173.469 386.503)" fill="#6fc6ec"/>
      <circle id="Elipse_4102" data-name="Elipse 4102" cx="2.959" cy="2.959" r="2.959" transform="translate(182.099 381.571)" fill="#6fc6ec"/>
      <circle id="Elipse_4103" data-name="Elipse 4103" cx="1.562" cy="1.562" r="1.562" transform="translate(193.524 382.147)" fill="#6fc6ec"/>
      <circle id="Elipse_4104" data-name="Elipse 4104" cx="3.123" cy="3.123" r="3.123" transform="translate(194.017 388.489)" fill="#6fc6ec"/>
      <circle id="Elipse_4105" data-name="Elipse 4105" cx="1.808" cy="1.808" r="1.808" transform="translate(198.456 376.722)" fill="#6fc6ec"/>
      <path id="Trazado_100978" data-name="Trazado 100978" d="M191.387,396.325a1.685,1.685,0,1,1-1.685-1.685A1.684,1.684,0,0,1,191.387,396.325Z" fill="#6fc6ec"/>
      <path id="Trazado_100979" data-name="Trazado 100979" d="M180.455,397.106a3.946,3.946,0,1,1-3.945-3.945A3.945,3.945,0,0,1,180.455,397.106Z" fill="#6fc6ec"/>
      <path id="Trazado_100980" data-name="Trazado 100980" d="M172.564,391.612a2.3,2.3,0,1,1-2.3-2.3A2.3,2.3,0,0,1,172.564,391.612Z" fill="#6fc6ec"/>
      <circle id="Elipse_4106" data-name="Elipse 4106" cx="1.644" cy="1.644" r="1.644" transform="translate(182.674 390.037)" fill="#6fc6ec"/>
      <path id="Trazado_100981" data-name="Trazado 100981" d="M185.41,401.01a1.11,1.11,0,1,1-1.11-1.109A1.11,1.11,0,0,1,185.41,401.01Z" fill="#6fc6ec"/>
    </g>
    <g id="Grupo_53938" data-name="Grupo 53938">
      <g id="Grupo_53936" data-name="Grupo 53936">
        <path id="Trazado_100982" data-name="Trazado 100982" d="M197.822,371.933l.44-1.319H217.97l-.42,1.319Z" fill="#110239"/>
        <path id="Trazado_100983" data-name="Trazado 100983" d="M195.48,378.959l.445-1.333h19.813l-.424,1.333Z" fill="#110239"/>
        <path id="Trazado_100984" data-name="Trazado 100984" d="M205.941,363.588a1.552,1.552,0,0,1-.568,1.319h15.141l.42-1.319Z" fill="#110239"/>
        <path id="Trazado_100985" data-name="Trazado 100985" d="M193.112,386.06l.449-1.347H213.48l-.429,1.347Z" fill="#110239"/>
        <path id="Trazado_100986" data-name="Trazado 100986" d="M190.719,393.237l.454-1.362H211.2l-.433,1.362Z" fill="#110239"/>
        <path id="Trazado_100987" data-name="Trazado 100987" d="M188.3,400.492l.459-1.376h20.135l-.438,1.376Z" fill="#110239"/>
        <path id="Trazado_100988" data-name="Trazado 100988" d="M185.854,407.827l.464-1.392h20.244l-.443,1.392Z" fill="#110239"/>
        <path id="Trazado_100989" data-name="Trazado 100989" d="M201.85,361.145a.9.9,0,0,0-.706.6l-18.509,55.44a.912.912,0,0,0,.865,1.2h.093a.912.912,0,0,0,.865-.625l18.087-54.417A7.738,7.738,0,0,1,201.85,361.145Z" fill="#110239"/>
        <path id="Trazado_100990" data-name="Trazado 100990" d="M203.639,418.384h-.1a.912.912,0,0,1-.869-1.19l17.7-55.44a.911.911,0,0,1,.868-.634h.02a.912.912,0,0,1,.869,1.188l-17.615,55.44A.911.911,0,0,1,203.639,418.384Z" fill="#110239"/>
      </g>
      <g id="Grupo_53937" data-name="Grupo 53937">
        <path id="Trazado_100991" data-name="Trazado 100991" d="M225.489,371.933l-.44-1.319H205.341l.42,1.319Z" fill="#56b2e5"/>
        <path id="Trazado_100992" data-name="Trazado 100992" d="M227.832,378.959l-.445-1.333H207.574l.424,1.333Z" fill="#56b2e5"/>
        <path id="Trazado_100993" data-name="Trazado 100993" d="M222.525,364.907l-.44-1.319H202.377l.42,1.319Z" fill="#56b2e5"/>
        <path id="Trazado_100994" data-name="Trazado 100994" d="M230.2,386.06l-.449-1.347H209.831l.429,1.347Z" fill="#56b2e5"/>
        <path id="Trazado_100995" data-name="Trazado 100995" d="M232.592,393.237l-.454-1.362H212.112l.434,1.362Z" fill="#56b2e5"/>
        <path id="Trazado_100996" data-name="Trazado 100996" d="M235.011,400.492l-.459-1.376H214.417l.438,1.376Z" fill="#56b2e5"/>
        <path id="Trazado_100997" data-name="Trazado 100997" d="M237.457,407.827l-.464-1.392H216.748l.443,1.392Z" fill="#56b2e5"/>
        <path id="Trazado_100998" data-name="Trazado 100998" d="M239.718,418.384h.093a.912.912,0,0,0,.865-1.2l-18.508-55.44a.913.913,0,0,0-.865-.623h-1.275l18.825,56.639A.913.913,0,0,0,239.718,418.384Z" fill="#56b2e5"/>
        <path id="Trazado_100999" data-name="Trazado 100999" d="M219.672,418.384h.1a.912.912,0,0,0,.868-1.19l-17.7-55.44a.911.911,0,0,0-.868-.634h-.019a.913.913,0,0,0-.87,1.188l17.615,55.44A.911.911,0,0,0,219.672,418.384Z" fill="#56b2e5"/>
      </g>
    </g>
    <g id="Grupo_53940" data-name="Grupo 53940">
      <g id="Grupo_53939" data-name="Grupo 53939">
        <path id="Trazado_101000" data-name="Trazado 101000" d="M188.217,336.812l35.843-21.277c2.2-1.306,3.872-.284,4.962,1.553l.04.067c1.091,1.838,1.187,3.8-1.012,5.1l-35.844,21.278.961,1.618,37.884-22.489a5.732,5.732,0,0,0,2-7.855l-.059-.1a5.731,5.731,0,0,0-7.854-2l-37.885,22.489Z" fill="#fff"/>
        <rect id="Rectángulo_5273" data-name="Rectángulo 5273" width="3.908" height="1.882" transform="translate(187.256 335.194) rotate(-30.693)" fill="#dfeaeb"/>
        <rect id="Rectángulo_5274" data-name="Rectángulo 5274" width="3.908" height="1.882" transform="matrix(0.86, -0.51, 0.51, 0.86, 192.206, 343.533)" fill="#dfeaeb"/>
        <path id="Trazado_101001" data-name="Trazado 101001" d="M229.022,317.088l.04.067c1.091,1.838,1.187,3.8-1.012,5.1l-35.844,21.278-3.989-6.721,35.843-21.277C226.26,314.229,227.932,315.251,229.022,317.088Z" fill="#fff" opacity="0.32" style="mix-blend-mode: screen;isolation: isolate"/>
        <path id="Trazado_101002" data-name="Trazado 101002" d="M229.673,318.544a5.768,5.768,0,0,0-.611-1.389l-.04-.067a6.534,6.534,0,0,0-.436-.648,4.405,4.405,0,0,0-1.033-.995,2.8,2.8,0,0,0-1.943-.477,4,4,0,0,0-1.55.567l0,0c-5.541,3.289-10.911,6.753-16.531,9.813l-3.947,2.343a10.813,10.813,0,0,0-3.02,3.246c-1.768,2.948-4.1,4.131-6.691,6.271-1.128.93-3.044,1.733-3.958,2.87l2.3,3.453,35.844-21.278a3.987,3.987,0,0,0,1.239-1.089,2.778,2.778,0,0,0,.335-.614,2.872,2.872,0,0,0,.177-1.32A3.845,3.845,0,0,0,229.673,318.544Z" fill="#fc3"/>
      </g>
      <path id="Trazado_101003" data-name="Trazado 101003" d="M188.735,334.425l5.815,9.8a1.469,1.469,0,0,1-.513,2.013l-.026.015a1.468,1.468,0,0,1-2.012-.513l-5.815-9.795a1.469,1.469,0,0,1,.513-2.013l.026-.015A1.468,1.468,0,0,1,188.735,334.425Z" fill="#fff"/>
      <path id="Trazado_101004" data-name="Trazado 101004" d="M214.4,326.973a1.013,1.013,0,1,1-.354,1.389A1.013,1.013,0,0,1,214.4,326.973Z" fill="#ffe081"/>
      <path id="Trazado_101005" data-name="Trazado 101005" d="M194.988,338.369a1.013,1.013,0,1,1-.354,1.388A1.012,1.012,0,0,1,194.988,338.369Z" fill="#ffe081"/>
      <circle id="Elipse_4107" data-name="Elipse 4107" cx="1.628" cy="1.628" r="1.628" transform="translate(208.9 327.397) rotate(-75.742)" fill="#ffe081"/>
      <path id="Trazado_101006" data-name="Trazado 101006" d="M199.127,334.394a1.628,1.628,0,1,1-.569,2.231A1.628,1.628,0,0,1,199.127,334.394Z" fill="#ffe081"/>
      <path id="Trazado_101007" data-name="Trazado 101007" d="M217.67,322.652a1.448,1.448,0,1,1-.506,1.984A1.447,1.447,0,0,1,217.67,322.652Z" fill="#ffe081"/>
      <path id="Trazado_101008" data-name="Trazado 101008" d="M206.238,330.536a1.448,1.448,0,1,1-.506,1.984A1.448,1.448,0,0,1,206.238,330.536Z" fill="#ffe081"/>
      <path id="Trazado_101009" data-name="Trazado 101009" d="M225.667,317.526a1.556,1.556,0,1,1-.544,2.132A1.556,1.556,0,0,1,225.667,317.526Z" fill="#ffe081"/>
      <path id="Trazado_101010" data-name="Trazado 101010" d="M214.091,322.173a1.049,1.049,0,1,1-.367,1.438A1.049,1.049,0,0,1,214.091,322.173Z" fill="#ffe081"/>
      <path id="Trazado_101011" data-name="Trazado 101011" d="M202.175,330.775a1.049,1.049,0,1,1-.367,1.438A1.05,1.05,0,0,1,202.175,330.775Z" fill="#ffe081"/>
      <path id="Trazado_101012" data-name="Trazado 101012" d="M223.391,321.817a.856.856,0,1,1-.3,1.174A.856.856,0,0,1,223.391,321.817Z" fill="#ffe081"/>
      <path id="Trazado_101013" data-name="Trazado 101013" d="M203.677,334.053a.523.523,0,1,1-.183.716A.523.523,0,0,1,203.677,334.053Z" fill="#ffe081"/>
      <path id="Trazado_101014" data-name="Trazado 101014" d="M210.365,329.851a.523.523,0,1,1-.183.716A.522.522,0,0,1,210.365,329.851Z" fill="#ffe081"/>
      <path id="Trazado_101015" data-name="Trazado 101015" d="M217.924,320.694a.523.523,0,1,1-.183.716A.522.522,0,0,1,217.924,320.694Z" fill="#ffe081"/>
      <path id="Trazado_101016" data-name="Trazado 101016" d="M220.656,318.888a.856.856,0,1,1-.3,1.173A.856.856,0,0,1,220.656,318.888Z" fill="#ffe081"/>
      <path id="Trazado_101017" data-name="Trazado 101017" d="M206.231,327.484a.856.856,0,1,1-.3,1.173A.856.856,0,0,1,206.231,327.484Z" fill="#ffe081"/>
    </g>
    <g id="Grupo_53941" data-name="Grupo 53941">
      <path id="Trazado_101018" data-name="Trazado 101018" d="M216.122,388.72s.126,2.478-.234,2.846-5.267.9-5.726.486-.27-1.2.763-1.573c1.107-.4,1.686-.139,2.372-.491s.41-1.454.41-1.454Z" fill="#110239"/>
      <path id="Trazado_101019" data-name="Trazado 101019" d="M226.844,388.72s-.127,2.478.233,2.846,5.267.9,5.726.486.27-1.2-.762-1.573c-1.108-.4-1.687-.139-2.372-.491s-.411-1.454-.411-1.454Z" fill="#110239"/>
      <path id="Trazado_101020" data-name="Trazado 101020" d="M227.544,374.389c-.535-2.7-1.437-10.066-2.5-12.62-.428-.145-.9-.288-1.372-.426.124-.575.208-4.029.3-4.462-.834.221-1.72.328-2.617.612-.122.039-.258.08-.4.122-.142-.042-.278-.083-.4-.122-.9-.284-1.783-.391-2.617-.612.092.433.175,3.887.3,4.462-.475.138-.944.281-1.373.426-1.065,2.554-.981,9.921-1.516,12.62-.741,3.735-1.979,14.8-1.979,14.8l3.156.416s3.479-14.768,3.624-15.7c.537-3.438.786-8.318.969-8.362.443-.106,1.049,5.448,1.626,8.362.183.922,3.624,15.7,3.624,15.7l3.156-.416S228.285,378.124,227.544,374.389Z" fill="#f34f95"/>
      <path id="Trazado_101021" data-name="Trazado 101021" d="M230.386,325.406c-.186-1.281-.377-1.48-.808-1.731a1.673,1.673,0,0,1-.541-.407,3.556,3.556,0,0,0-.576-.525,1.385,1.385,0,0,1-.514-.573c-.1-.307.3-.223.564-.128.283.1.815.883,1.116.775s-.406-1.017-.549-1.2c-.338-.422-.74-.365-1.19-.56-.262-.113-.348-.245-.064-.415a.857.857,0,0,1,.695.05,2.928,2.928,0,0,1,1.213.754,3.411,3.411,0,0,0-1.058-.82c-.227-.116-1.283-.44-1.132-.814.3-.75,2.356.664,2.58,1.061a3.989,3.989,0,0,0-1.012-.893c-.217-.155-.747-.5-.3-.678.656-.264,1.45.954,1.9,1.434a4.718,4.718,0,0,0-.765-1.03c-.362-.44.088-.553.536-.166a6.184,6.184,0,0,1,.577.634,4.168,4.168,0,0,1,.87,2.609c.046.4.056,1.04.186,2.192C232.189,325.641,230.941,325.3,230.386,325.406Z" fill="#ff9d8a"/>
      <path id="Trazado_101022" data-name="Trazado 101022" d="M199.666,343.318c-1.213-.456-1.363-.942-1.516-1.417a1.674,1.674,0,0,0-.282-.616,3.545,3.545,0,0,1-.39-.675,1.393,1.393,0,0,0-.45-.625c-.278-.163-.282.249-.245.524.04.3.688.985.518,1.256s-.906-.614-1.05-.792c-.34-.421-.2-.8-.293-1.282-.055-.281-.166-.393-.392-.151-.169.179-.124.465-.1.689a2.938,2.938,0,0,0,.477,1.346,3.412,3.412,0,0,1-.574-1.208c-.065-.247-.156-1.348-.553-1.28-.8.135.144,2.443.484,2.747a4.031,4.031,0,0,1-.656-1.179c-.1-.246-.328-.837-.6-.441-.4.585.622,1.62.995,2.165a4.706,4.706,0,0,1-.843-.967c-.353-.448-.559-.033-.277.487a6.453,6.453,0,0,0,.5.7,4.172,4.172,0,0,0,2.363,1.407,10.155,10.155,0,0,1,2.018.763C199.4,345.06,199.443,343.836,199.666,343.318Z" fill="#ff9d8a"/>
      <path id="Trazado_101023" data-name="Trazado 101023" d="M222.509,340.917a7.583,7.583,0,0,1-2.068.1,3.022,3.022,0,0,1-.724-.155c.03.861.03,2.856-.576,3.675,0,0,.216.963,1.973.989s1.975-.989,1.975-.989A8.94,8.94,0,0,1,222.509,340.917Z" fill="#ff9d8a"/>
      <path id="Trazado_101024" data-name="Trazado 101024" d="M228.7,345.3c-.479-.611-1.448-2.7-2.99-2.47-2.733.4-5.779.358-8.276.753-1.539.244-3.07.634-3.549,1.246-.6.766,1.2,5.064,1.5,9.006.1,1.345.237,2.565.361,3.534.178,1.387-.922,16.72-.922,16.72,2.513,1.084,10.937,1.887,13.017-.332,0,0-2.014-15.065-1.848-16.509.112-.983.164-3.533.38-4.769C227.061,348.5,229.3,346.07,228.7,345.3Z" fill="#fff"/>
      <path id="Trazado_101025" data-name="Trazado 101025" d="M216.648,361.12c-.153-1.8.171-6.782.238-8.2.05-1.061.4-2.962.01-3.935-.56-1.391-1.822-1.912-2.989-2.546.237,1.209.731,2.931,1.091,4.766.029.144.057.287.084.433.022.12.041.241.061.362q.051.3.094.6c.015.1.029.205.042.308.039.306.074.612.1.916.1,1.345.237,2.564.361,3.534.178,1.387-.922,16.72-.922,16.72a11.151,11.151,0,0,0,2.107.59C216.707,371.5,216.709,361.832,216.648,361.12Z" fill="#d0d1de"/>
      <path id="Trazado_101026" data-name="Trazado 101026" d="M224.876,336.13s-3.643-2.144-4.2-1.616-1.416,2.319-1.835,2.592-1.073.533-1.015.855.27.344.253.669-.755,1.878-.352,2.337,3.05,1.469,4.641.412S226.67,337.089,224.876,336.13Z" fill="#ff9d8a"/>
      <path id="Trazado_101027" data-name="Trazado 101027" d="M225.679,336.917l-3.068.049a6.259,6.259,0,0,1-1.887,2.492s.073.452.4.36a1.022,1.022,0,0,0,.751-.475c.22-.344.882-1.238,1.332-.453s-.512,1.054-.916,1.047c0,0-1.4,1.694-.311,2.012,0,0,1.213-.18,3.059-2.14S226.507,336.764,225.679,336.917Z" fill="#110239"/>
      <path id="Trazado_101028" data-name="Trazado 101028" d="M219.875,333.331s-1.491.9.236,2.719,5.792.859,5.792.859.432-1.183-1.037-2.423c-1.1-.927-2.3-1.4-3.27-.955C219.951,334.286,219.875,333.331,219.875,333.331Z" fill="#110239"/>
      <path id="Trazado_101029" data-name="Trazado 101029" d="M199.265,342.736l-1.3,2.077a59.031,59.031,0,0,0,7.214,5.781c2.246,1.489,9.939-.893,11.127-1.25,1.7-.509,2.975-4.1.142-5.438-1.659-.782-8.317,4.277-9.947,3.42C204.453,346.251,199.265,342.736,199.265,342.736Z" fill="#fff"/>
      <path id="Trazado_101030" data-name="Trazado 101030" d="M229.822,324.868l2.59-.433s1.307,8.8,1.205,11.492-4.979,10.858-5.956,11.624c-1.174.919-4.81-1.23-2.45-4.094a47.74,47.74,0,0,0,4.927-7.891C230.2,335.326,229.822,324.868,229.822,324.868Z" fill="#fff"/>
    </g>
  </g>
</svg>
