<svg xmlns="http://www.w3.org/2000/svg" width="85" height="85" viewBox="0 0 85 85">
  <g id="Grupo_108380" data-name="Grupo 108380" transform="translate(-810 -1918)">
    <rect id="Rectángulo_39939" data-name="Rectángulo 39939" width="85" height="85" transform="translate(810 1918)" fill="none"/>
    <g id="Grupo_108239" data-name="Grupo 108239" transform="translate(498.157 1762.348)">
      <g id="Grupo_108231" data-name="Grupo 108231" transform="translate(345.629 170.952)">
        <path id="Trazado_190388" data-name="Trazado 190388" d="M379.424,173.5l-2.51,34.13H354.756l-.335-34.13Z" transform="translate(-347.538 -173.505)" fill="#a9c9f6"/>
        <g id="Grupo_108230" data-name="Grupo 108230" transform="translate(3.344 35.632)">
          <rect id="Rectángulo_39781" data-name="Rectángulo 39781" width="1.247" height="32.837" transform="translate(23.078)" fill="#a9c9f6"/>
          <rect id="Rectángulo_39782" data-name="Rectángulo 39782" width="1.247" height="32.837" fill="#a9c9f6"/>
        </g>
        <rect id="Rectángulo_39783" data-name="Rectángulo 39783" width="31.013" height="4.297" transform="translate(0 32.608)" fill="#110239"/>
      </g>
      <path id="Trazado_190389" data-name="Trazado 190389" d="M348.39,193.689s-1.349-.09-1.629-.146-3.519-2.814-3.967-2.61-4.649,2.054-4.636,2.58,1.107.426,3.394-.846c0,0-2.976,1.335-2.56,1.881s3.1-1.077,3.1-1.077-2.7,1.292-2.213,1.794,2.966-1.182,2.966-1.182-1.932,1.25-1.759,1.555,1.287.059,2.613-.767c0,0,.227-.072.762.362s4.316.536,4.316.536Z" transform="translate(-1.115 -2.41)" fill="#ff9d8a"/>
      <path id="Trazado_190390" data-name="Trazado 190390" d="M348.415,239.961s-5.2,1.4-7.349,2.089c-1.786.573-1.558,2.177.358,2.922s3.567.495,4.065-.091,1.578-.263,1.979-.029,4.123-.273,4.371-1.017a16.746,16.746,0,0,0-.112-3.714Z" transform="translate(-1.198 -5.795)" fill="#110239"/>
      <path id="Trazado_190391" data-name="Trazado 190391" d="M357.265,240.29s-5.065,1.825-7.151,2.689c-1.733.719-1.374,2.3.6,2.883s3.6.2,4.044-.426,1.551-.394,1.969-.193,4.087-.612,4.272-1.374-.781-4.347-.781-4.347Z" transform="translate(-1.644 -5.774)" fill="#110239"/>
      <path id="Trazado_190392" data-name="Trazado 190392" d="M345.765,207.914c.574-2.128,11.163-8.56,12.027-10.5h8.552a13.934,13.934,0,0,1,2.264,6.544c.543,5.433-4.478,3.571-9.456,3.752s-6.986,3.244-7.116,4.6.759,26.013.759,26.013l-6.759-.038S345.424,209.18,345.765,207.914Z" transform="translate(-1.481 -3.719)" fill="#110239"/>
      <path id="Trazado_190393" data-name="Trazado 190393" d="M350.738,238.311S348.494,208.862,349,208.1c1.544-2.344,9.045-7.855,11.622-10.414l5.884-.269a13.933,13.933,0,0,1,2.264,6.543c.543,5.434-4.478,3.572-9.456,3.753s-6.986,3.244-7.116,4.6.759,26.013.759,26.013Z" transform="translate(-1.641 -3.719)" fill="#006b98" opacity="0.32" style="mix-blend-mode: multiply;isolation: isolate"/>
      <path id="Trazado_190394" data-name="Trazado 190394" d="M350.308,208.585c.4-1.869,11.447-8.406,13.762-10.9l9.062-.623a8.177,8.177,0,0,1,2.2,5.244c-.046,5.217-3.978,6.476-8.957,6.625-5.741.171-8.688.91-8.681,2.275s3.538,27,3.538,27l-6.7.344S350.033,209.867,350.308,208.585Z" transform="translate(-1.708 -3.702)" fill="#110239"/>
      <path id="Trazado_190395" data-name="Trazado 190395" d="M356.105,175.559c1.845-.555,6.054,16.087,5.4,18.757-.45,1.833-14.552,1.171-14.552,1.171l.369-3.2s7.471-1.2,7.42-2.009C354.726,190.037,355.639,175.7,356.105,175.559Z" transform="translate(-1.544 -1.448)" fill="#fff"/>
      <path id="Trazado_190396" data-name="Trazado 190396" d="M364.154,165.241l4.183.652a9.577,9.577,0,0,0,.627,6.891s-3.007,3.258-5.1,2.4a2.467,2.467,0,0,1-1.4-3.184S364.737,170.188,364.154,165.241Z" transform="translate(-2.294 -0.468)" fill="#e17c5e"/>
      <path id="Trazado_190397" data-name="Trazado 190397" d="M368.9,158.483s-6.518-.747-6.969.349-.549,4.182-.972,4.834-1.186,1.432-.9,1.852.6.318.78.789.111,3.14.972,3.538,5.253.163,6.843-2.339S372.053,158.714,368.9,158.483Z" transform="translate(-2.181 -0.126)" fill="#ff9d8a"/>
      <path id="Trazado_190398" data-name="Trazado 190398" d="M370.8,159.129l-4.323,2a9.72,9.72,0,0,1-1.107,4.724s.388.6.8.258a1.586,1.586,0,0,0,.766-1.146c.1-.627.472-2.312,1.6-1.481s-.064,1.818-.64,2.062c0,0-.916,3.283.826,3.049,0,0,1.608-1.019,2.993-4.961S371.878,158.391,370.8,159.129Z" transform="translate(-2.443 -0.16)" fill="#110239"/>
      <path id="Trazado_190399" data-name="Trazado 190399" d="M360.032,157.535s-1.546,2.223,2.046,3.71,8.76-2.429,8.76-2.429-.132-1.95-3-2.784c-2.141-.624-4.148-.536-5.241.7C360.741,158.843,360.032,157.535,360.032,157.535Z" transform="translate(-2.167)" fill="#110239"/>
      <path id="Trazado_190400" data-name="Trazado 190400" d="M374.228,194.665c-.269-2.935-.771-8.513-.841-10.163-.1-2.273.549-10.714.549-10.714-.24-.145-6.074-1.769-6.074-1.769s-3.54,4.006-4.813,3.354-1.246-3.046-1.246-3.046a48.237,48.237,0,0,0-5.6,3.06c.769,1.693.187,9.042.187,9.042.066,1.492-.015,6.611-.073,9.685-.01.56.906,2.424-.813,4.23-1.662,1.745-4.7,3.523-6.579,4.819a68.625,68.625,0,0,0,12.146,5.025c4.127-.034,11.973-1.3,13.246-2.948C376.667,202.2,374.27,195.112,374.228,194.665Z" transform="translate(-1.641 -1.317)" fill="#fff"/>
      <path id="Trazado_190401" data-name="Trazado 190401" d="M358.665,181.7a18.956,18.956,0,0,0-.9-2.448c.533,3.5-.294,7.662-.557,10.564-.2,2.173.068,4.205-.669,6.071A3.522,3.522,0,0,1,355.5,198.7c-1.662,1.745-4.7,3.523-6.579,4.819.661.337,1.354.679,2.06,1.021,2.436-3.538,7.033-5.663,7.706-10.6C359.17,190.4,359.661,185.193,358.665,181.7Z" transform="translate(-1.641 -1.766)" fill="#d0d1de"/>
      <path id="Trazado_190402" data-name="Trazado 190402" d="M373.936,184.626c-.08-1.9.357-8.1.5-10.082-1.62,2.393-3.445,4.371-2.992,8.179A79.171,79.171,0,0,1,372,197.887a7.406,7.406,0,0,1-3.537,5.937,29.264,29.264,0,0,1-4.509,1.967,12.741,12.741,0,0,0-3.784,2.089c.485.155.967.3,1.443.432,4.127-.034,11.973-1.3,13.246-2.948,2.351-3.042-.046-10.128-.088-10.575C374.508,191.853,374.006,186.275,373.936,184.626Z" transform="translate(-2.19 -1.493)" fill="#d0d1de"/>
      <path id="Trazado_190403" data-name="Trazado 190403" d="M365.026,195.142c0-1.527-.533-6.588-.883-11.916a76.964,76.964,0,0,1-.015-7.76,2.053,2.053,0,0,1-.381.12c.066,3.867.286,13.1.934,19.665.052.522-.7,1.188-3.009,2.509-3.308,1.895-7.776,4.658-9.615,6.738a1.41,1.41,0,0,0-.159.227l.31.145a.894.894,0,0,1,.127-.152,36.616,36.616,0,0,1,4.621-3.565c2.915-1.987,5.167-3.266,6.477-4.06C364.645,196.359,365.026,196.079,365.026,195.142Z" transform="translate(-1.786 -1.52)" fill="#d0d1de"/>
      <g id="Grupo_108232" data-name="Grupo 108232" transform="translate(354.715 186.181)">
        <path id="Trazado_190404" data-name="Trazado 190404" d="M357,195.572l4.118-6.983s.982-.577.988.62l-4.754,6.637S356.252,197.2,357,195.572Z" transform="translate(-356.737 -188.45)" fill="#110239"/>
        <path id="Trazado_190405" data-name="Trazado 190405" d="M357.841,196.128c.546.363,1.234-1.08,1.5-1.384s1.053-1.176,1.515-1.114a4.314,4.314,0,0,0-1.259,1.021c-.378.548-1.324,1.429-.937,1.953s1.52-1.195,1.627-1.3a4.262,4.262,0,0,1,1.212-.848s-.946.734-1.055.866-1.233,1.082-1.022,1.355c.167.214.6.367,1.445-.653l.016-.018c-.191.225-.527.641-.212.7.338.068.789-.214,1.264-.55a2.171,2.171,0,0,1,1.567-.441,10.605,10.605,0,0,0,3.26.22,17.305,17.305,0,0,1-.4-2.076,9.679,9.679,0,0,1-2.417-.472c-.211-.053-3.236-1.286-3.909-.941a4.3,4.3,0,0,0-1.371,1.535C358.341,194.426,357.294,195.764,357.841,196.128Zm4.026-.889a9.128,9.128,0,0,0-.9.673A4.856,4.856,0,0,1,361.867,195.239Z" transform="translate(-356.783 -188.642)" fill="#ff9d8a"/>
        <path id="Trazado_190406" data-name="Trazado 190406" d="M358.8,192.776s-1.12.43-1.316.93.112.8.378.682Z" transform="translate(-356.77 -188.661)" fill="#ff9d8a"/>
      </g>
      <path id="Trazado_190407" data-name="Trazado 190407" d="M374.8,173.879a10.427,10.427,0,0,1,2.819,3.044c.9,1.7,5.834,14.642,5.177,17.312-.45,1.833-15.975,1.168-15.975,1.168l-.164-3.193s9.851-1.117,9.8-1.923-2.911-6.129-2.911-6.129S371.989,177.61,374.8,173.879Z" transform="translate(-2.506 -1.338)" fill="#fff"/>
      <g id="Grupo_108237" data-name="Grupo 108237" transform="translate(315.303 192.839)">
        <g id="Grupo_108236" data-name="Grupo 108236">
          <g id="Grupo_108235" data-name="Grupo 108235" transform="translate(3.142 0.974)">
            <g id="Grupo_108233" data-name="Grupo 108233">
              <rect id="Rectángulo_39784" data-name="Rectángulo 39784" width="0.986" height="46.84" fill="#a9c9f6"/>
            </g>
            <g id="Grupo_108234" data-name="Grupo 108234" transform="translate(65.314)">
              <rect id="Rectángulo_39785" data-name="Rectángulo 39785" width="0.986" height="46.84" fill="#a9c9f6"/>
            </g>
          </g>
          <rect id="Rectángulo_39786" data-name="Rectángulo 39786" width="72.584" height="2.276" fill="#110239"/>
        </g>
      </g>
      <g id="Grupo_108238" data-name="Grupo 108238" transform="translate(319.431 168.699)">
        <path id="Rectángulo_39787" data-name="Rectángulo 39787" d="M1.338,0H27.608a1.338,1.338,0,0,1,1.338,1.338V17.13a1.337,1.337,0,0,1-1.337,1.337H1.338A1.338,1.338,0,0,1,0,17.13V1.338A1.338,1.338,0,0,1,1.338,0Z" transform="translate(0 0.001)" fill="#fff"/>
        <path id="Trazado_190408" data-name="Trazado 190408" d="M348.425,186.952V171.029a1.273,1.273,0,0,0-1.273-1.273h1.507a1.273,1.273,0,0,1,1.273,1.273v15.923a1.272,1.272,0,0,1-1.273,1.272h-1.507A1.272,1.272,0,0,0,348.425,186.952Z" transform="translate(-320.985 -169.756)" fill="#dee8f3"/>
        <path id="Trazado_190409" data-name="Trazado 190409" d="M334.594,193.5s-.585-5.61,1.972-7.509c0,0,.584-.475-.375-1.023s-3.615-1.178-4.518.465a14.321,14.321,0,0,0-1.123,8.066Z" transform="translate(-320.169 -170.469)" fill="#110239"/>
        <path id="Trazado_190410" data-name="Trazado 190410" d="M328.011,196.39h8.624a.7.7,0,0,0,.624-1.01l-.507-1.014a.7.7,0,0,0-.624-.386h-7.61a.7.7,0,0,0-.624.386l-.507,1.014A.7.7,0,0,0,328.011,196.39Z" transform="translate(-320.017 -170.938)" fill="#110239"/>
      </g>
      <path id="Trazado_190411" data-name="Trazado 190411" d="M365.546,177.884a7.261,7.261,0,0,1-1.246-.922c-.3-.262-.521-.571-.807-.86-.121.067-.18.193-.274.289a5.16,5.16,0,0,1-.423.339,3.7,3.7,0,0,1-.848.6,29.455,29.455,0,0,1,.039-4.573s.582.8.551.446c.044.5.225,1.638.995,2.022,1,.5,4.175-3.719,4.175-3.719s.872.48,1.454.735A46.942,46.942,0,0,1,365.546,177.884Z" transform="translate(-2.273 -1.089)" fill="#8397a9" opacity="0.32" style="mix-blend-mode: multiply;isolation: isolate"/>
      <path id="Trazado_190412" data-name="Trazado 190412" d="M368.128,170.36l1.353,1.83-4.414,4.777-1.448-1.8Z" transform="translate(-2.358 -1.011)" fill="#fff"/>
      <path id="Trazado_190413" data-name="Trazado 190413" d="M363.116,171.5l.423,3.719-1.414,1.262-.138-3.919Z" transform="translate(-2.278 -1.084)" fill="#fff"/>
      <rect id="Rectángulo_39788" data-name="Rectángulo 39788" width="9.697" height="1.419" transform="translate(337.227 192.363)" fill="#110239"/>
    </g>
  </g>
</svg>
