<svg xmlns="http://www.w3.org/2000/svg" width="85.001" height="63.355" viewBox="0 0 85.001 63.355">
  <g id="Grupo_108178" data-name="Grupo 108178" transform="translate(-85.402 -410.227)">
    <g id="Grupo_108174" data-name="Grupo 108174" transform="translate(85.402 410.227)">
      <g id="Grupo_108164" data-name="Grupo 108164" transform="translate(12.356)">
        <g id="Grupo_108163" data-name="Grupo 108163" transform="translate(1.124 1.065)">
          <path id="Trazado_190191" data-name="Trazado 190191" d="M108.75,411.446V445.53c0,2.092-1.416,2.841-3.164,2.841h-.064c-1.747,0-3.163-.748-3.163-2.841V411.446H100.82v36.025a4.687,4.687,0,0,0,4.687,4.687h.094a4.687,4.687,0,0,0,4.686-4.687V411.446Z" transform="translate(-100.82 -411.446)" fill="#fff"/>
          <rect id="Rectángulo_39714" data-name="Rectángulo 39714" width="1.539" height="3.195" transform="translate(7.93)" fill="#dfeaeb"/>
          <rect id="Rectángulo_39715" data-name="Rectángulo 39715" width="1.539" height="3.195" transform="translate(0)" fill="#dfeaeb"/>
          <path id="Trazado_190192" data-name="Trazado 190192" d="M105.807,448.371h-.064c-1.747,0-3.163-.748-3.163-2.841V411.446h6.391V445.53C108.971,447.622,107.555,448.371,105.807,448.371Z" transform="translate(-101.041 -411.446)" fill="#fff" opacity="0.32" style="mix-blend-mode: screen;isolation: isolate"/>
          <path id="Trazado_190193" data-name="Trazado 190193" d="M102.58,429.741v18.089c0,2.092,1.416,2.841,3.163,2.841h.064c1.748,0,3.164-.748,3.164-2.841V429.741Z" transform="translate(-101.041 -413.745)" fill="#fc3"/>
        </g>
        <rect id="Rectángulo_39716" data-name="Rectángulo 39716" width="11.717" height="2.426" rx="1.213" fill="#fff"/>
        <path id="Trazado_190194" data-name="Trazado 190194" d="M106.471,433.662a.829.829,0,1,1-.829-.829A.829.829,0,0,1,106.471,433.662Z" transform="translate(-100.198 -413.069)" fill="#ffe081"/>
        <path id="Trazado_190195" data-name="Trazado 190195" d="M106.021,440.459a1.332,1.332,0,1,1-1.332-1.332A1.332,1.332,0,0,1,106.021,440.459Z" transform="translate(-100.015 -413.86)" fill="#ffe081"/>
        <path id="Trazado_190196" data-name="Trazado 190196" d="M107.456,444.7a.7.7,0,1,1-.7-.7A.7.7,0,0,1,107.456,444.7Z" transform="translate(-100.355 -414.472)" fill="#ffe081"/>
        <path id="Trazado_190197" data-name="Trazado 190197" d="M108.305,449.266a1.272,1.272,0,1,1-1.272-1.272A1.272,1.272,0,0,1,108.305,449.266Z" transform="translate(-100.317 -414.974)" fill="#ffe081"/>
        <path id="Trazado_190198" data-name="Trazado 190198" d="M108.9,437.549a.858.858,0,1,1-.858-.858A.858.858,0,0,1,108.9,437.549Z" transform="translate(-100.496 -413.554)" fill="#ffe081"/>
        <circle id="Elipse_5273" data-name="Elipse 5273" cx="0.7" cy="0.7" r="0.7" transform="translate(3.215 31.619)" fill="#ffe081"/>
      </g>
      <g id="Grupo_108166" data-name="Grupo 108166" transform="translate(28.547)">
        <g id="Grupo_108165" data-name="Grupo 108165" transform="translate(1.124 1.065)">
          <path id="Trazado_190199" data-name="Trazado 190199" d="M127.268,411.446V445.53c0,2.092-1.416,2.841-3.163,2.841h-.065c-1.747,0-3.163-.748-3.163-2.841V411.446h-1.539v36.025a4.687,4.687,0,0,0,4.687,4.687h.094a4.687,4.687,0,0,0,4.687-4.687V411.446Z" transform="translate(-119.338 -411.446)" fill="#fff"/>
          <rect id="Rectángulo_39717" data-name="Rectángulo 39717" width="1.539" height="3.195" transform="translate(7.93)" fill="#dfeaeb"/>
          <rect id="Rectángulo_39718" data-name="Rectángulo 39718" width="1.539" height="3.195" transform="translate(0)" fill="#dfeaeb"/>
          <path id="Trazado_190200" data-name="Trazado 190200" d="M124.326,448.371h-.065c-1.747,0-3.163-.748-3.163-2.841V411.446h6.391V445.53C127.489,447.622,126.073,448.371,124.326,448.371Z" transform="translate(-119.559 -411.446)" fill="#fff" opacity="0.32" style="mix-blend-mode: screen;isolation: isolate"/>
          <path id="Trazado_190201" data-name="Trazado 190201" d="M121.1,434.411v14.005c0,2.092,1.416,2.841,3.163,2.841h.065c1.747,0,3.163-.748,3.163-2.841V434.411Z" transform="translate(-119.559 -414.332)" fill="#56b2e5"/>
        </g>
        <rect id="Rectángulo_39719" data-name="Rectángulo 39719" width="11.717" height="2.426" rx="1.213" fill="#fff"/>
        <path id="Trazado_190202" data-name="Trazado 190202" d="M127.314,437.194a1.332,1.332,0,1,1-1.332-1.332A1.332,1.332,0,0,1,127.314,437.194Z" transform="translate(-118.882 -413.449)" fill="#6fc6ec"/>
        <path id="Trazado_190203" data-name="Trazado 190203" d="M126.77,442.588a.7.7,0,1,1-.7-.7A.7.7,0,0,1,126.77,442.588Z" transform="translate(-118.973 -414.207)" fill="#6fc6ec"/>
        <circle id="Elipse_5274" data-name="Elipse 5274" cx="1.12" cy="1.12" r="1.12" transform="translate(3.758 32.854)" fill="#6fc6ec"/>
        <circle id="Elipse_5275" data-name="Elipse 5275" cx="0.963" cy="0.963" r="0.963" transform="translate(5.175 29.956)" fill="#6fc6ec"/>
        <circle id="Elipse_5276" data-name="Elipse 5276" cx="0.858" cy="0.858" r="0.858" transform="translate(3.758 25.268)" fill="#6fc6ec"/>
        <circle id="Elipse_5277" data-name="Elipse 5277" cx="0.7" cy="0.7" r="0.7" transform="translate(6.401 34.864)" fill="#6fc6ec"/>
      </g>
      <g id="Grupo_108168" data-name="Grupo 108168" transform="translate(44.737)">
        <g id="Grupo_108167" data-name="Grupo 108167" transform="translate(1.124 1.065)">
          <path id="Trazado_190204" data-name="Trazado 190204" d="M145.786,411.446V445.53c0,2.092-1.416,2.841-3.163,2.841h-.064c-1.748,0-3.164-.748-3.164-2.841V411.446h-1.538v36.025a4.687,4.687,0,0,0,4.686,4.687h.094a4.687,4.687,0,0,0,4.687-4.687V411.446Z" transform="translate(-137.857 -411.446)" fill="#fff"/>
          <rect id="Rectángulo_39720" data-name="Rectángulo 39720" width="1.539" height="3.195" transform="translate(7.929)" fill="#dfeaeb"/>
          <rect id="Rectángulo_39721" data-name="Rectángulo 39721" width="1.539" height="3.195" fill="#dfeaeb"/>
          <path id="Trazado_190205" data-name="Trazado 190205" d="M142.844,448.371h-.064c-1.748,0-3.164-.748-3.164-2.841V411.446h6.391V445.53C146.007,447.622,144.591,448.371,142.844,448.371Z" transform="translate(-138.078 -411.446)" fill="#fff" opacity="0.32" style="mix-blend-mode: screen;isolation: isolate"/>
          <path id="Trazado_190206" data-name="Trazado 190206" d="M139.616,431.807v16.282c0,2.092,1.416,2.841,3.164,2.841h.064c1.747,0,3.163-.748,3.163-2.841V431.807Z" transform="translate(-138.078 -414.005)" fill="#fc3"/>
        </g>
        <rect id="Rectángulo_39722" data-name="Rectángulo 39722" width="11.717" height="2.426" rx="1.213" fill="#fff"/>
        <path id="Trazado_190207" data-name="Trazado 190207" d="M142.1,437.08a.829.829,0,1,1-.829-.829A.829.829,0,0,1,142.1,437.08Z" transform="translate(-137.058 -413.498)" fill="#ffe081"/>
        <path id="Trazado_190208" data-name="Trazado 190208" d="M145.765,434.537a1.332,1.332,0,1,1-1.332-1.332A1.332,1.332,0,0,1,145.765,434.537Z" transform="translate(-137.392 -413.115)" fill="#ffe081"/>
        <path id="Trazado_190209" data-name="Trazado 190209" d="M143.913,441.723a1.184,1.184,0,1,1-1.185-1.184A1.184,1.184,0,0,1,143.913,441.723Z" transform="translate(-137.196 -414.037)" fill="#ffe081"/>
        <circle id="Elipse_5278" data-name="Elipse 5278" cx="1.272" cy="1.272" r="1.272" transform="translate(4.438 34.176)" fill="#ffe081"/>
        <circle id="Elipse_5279" data-name="Elipse 5279" cx="0.858" cy="0.858" r="0.858" transform="translate(6.831 24.511)" fill="#ffe081"/>
        <circle id="Elipse_5280" data-name="Elipse 5280" cx="0.7" cy="0.7" r="0.7" transform="translate(3.515 31.356)" fill="#ffe081"/>
        <circle id="Elipse_5281" data-name="Elipse 5281" cx="0.7" cy="0.7" r="0.7" transform="translate(6.716 30.656)" fill="#ffe081"/>
      </g>
      <g id="Grupo_108170" data-name="Grupo 108170" transform="translate(60.928)">
        <g id="Grupo_108169" data-name="Grupo 108169" transform="translate(1.124 1.065)">
          <path id="Trazado_190210" data-name="Trazado 190210" d="M164.3,411.446V445.53c0,2.092-1.416,2.841-3.163,2.841h-.064c-1.747,0-3.163-.748-3.163-2.841V411.446h-1.539v36.025a4.687,4.687,0,0,0,4.686,4.687h.094a4.687,4.687,0,0,0,4.687-4.687V411.446Z" transform="translate(-156.375 -411.446)" fill="#fff"/>
          <rect id="Rectángulo_39723" data-name="Rectángulo 39723" width="1.539" height="3.195" transform="translate(7.929)" fill="#dfeaeb"/>
          <rect id="Rectángulo_39724" data-name="Rectángulo 39724" width="1.539" height="3.195" fill="#dfeaeb"/>
          <path id="Trazado_190211" data-name="Trazado 190211" d="M161.362,448.371H161.3c-1.748,0-3.163-.748-3.163-2.841V411.446h6.39V445.53C164.525,447.622,163.109,448.371,161.362,448.371Z" transform="translate(-156.596 -411.446)" fill="#fff" opacity="0.32" style="mix-blend-mode: screen;isolation: isolate"/>
          <path id="Trazado_190212" data-name="Trazado 190212" d="M158.135,427.784v19.8c0,2.092,1.416,2.841,3.163,2.841h.064c1.747,0,3.163-.748,3.163-2.841v-19.8Z" transform="translate(-156.596 -413.499)" fill="#56b2e5"/>
        </g>
        <rect id="Rectángulo_39725" data-name="Rectángulo 39725" width="11.717" height="2.426" rx="1.213" fill="#fff"/>
        <path id="Trazado_190213" data-name="Trazado 190213" d="M163.446,433.391a.828.828,0,1,1-.828-.829A.828.828,0,0,1,163.446,433.391Z" transform="translate(-155.931 -413.035)" fill="#6fc6ec"/>
        <path id="Trazado_190214" data-name="Trazado 190214" d="M164.351,447.372a1.332,1.332,0,1,1-1.332-1.332A1.332,1.332,0,0,1,164.351,447.372Z" transform="translate(-155.918 -414.729)" fill="#6fc6ec"/>
        <path id="Trazado_190215" data-name="Trazado 190215" d="M161.488,450.8a.7.7,0,1,1-.7-.7A.7.7,0,0,1,161.488,450.8Z" transform="translate(-155.718 -415.24)" fill="#6fc6ec"/>
        <path id="Trazado_190216" data-name="Trazado 190216" d="M161.982,436.218a1.273,1.273,0,1,1-1.272-1.272A1.272,1.272,0,0,1,161.982,436.218Z" transform="translate(-155.635 -413.334)" fill="#6fc6ec"/>
        <circle id="Elipse_5282" data-name="Elipse 5282" cx="1.049" cy="1.049" r="1.049" transform="translate(6.352 24.885)" fill="#6fc6ec"/>
        <path id="Trazado_190217" data-name="Trazado 190217" d="M160.832,430.4a.858.858,0,1,1-.859-.858A.858.858,0,0,1,160.832,430.4Z" transform="translate(-155.595 -412.654)" fill="#6fc6ec"/>
        <circle id="Elipse_5283" data-name="Elipse 5283" cx="1.183" cy="1.183" r="1.183" transform="translate(3.758 27.606)" fill="#6fc6ec"/>
        <path id="Trazado_190218" data-name="Trazado 190218" d="M160.167,447.092a.7.7,0,1,1-.7-.7A.7.7,0,0,1,160.167,447.092Z" transform="translate(-155.551 -414.773)" fill="#6fc6ec"/>
      </g>
      <g id="Grupo_108173" data-name="Grupo 108173" transform="translate(0 6.484)">
        <g id="Grupo_108171" data-name="Grupo 108171" transform="translate(5.011 1.446)">
          <rect id="Rectángulo_39726" data-name="Rectángulo 39726" width="4.433" height="39.513" fill="#8397ca"/>
          <rect id="Rectángulo_39727" data-name="Rectángulo 39727" width="4.433" height="39.513" transform="translate(70.545)" fill="#8397ca"/>
        </g>
        <g id="Grupo_108172" data-name="Grupo 108172" transform="translate(5.011 1.446)" style="mix-blend-mode: multiply;isolation: isolate">
          <rect id="Rectángulo_39728" data-name="Rectángulo 39728" width="4.433" height="8.481" fill="#8397a9"/>
          <rect id="Rectángulo_39729" data-name="Rectángulo 39729" width="4.433" height="8.481" transform="translate(70.545)" fill="#8397a9"/>
        </g>
        <rect id="Rectángulo_39730" data-name="Rectángulo 39730" width="85.001" height="5.204" transform="translate(0 39.416)" fill="#fff"/>
        <rect id="Rectángulo_39731" data-name="Rectángulo 39731" width="85.001" height="5.204" fill="#fff"/>
      </g>
    </g>
    <g id="Grupo_108177" data-name="Grupo 108177" transform="translate(96.266 420.313)">
      <path id="Trazado_190219" data-name="Trazado 190219" d="M127.189,432.849l-2.576.24s-1.311.195-1.7,4.588-.7,9.031-.27,10.472,5.515,1.162,5.515,1.162a77.829,77.829,0,0,1,0-8.626,32.157,32.157,0,0,0,.284-5.943C128.294,434.036,127.9,432.968,127.189,432.849Z" transform="translate(-100.92 -423.156)" fill="#56b2e5"/>
      <path id="Trazado_190220" data-name="Trazado 190220" d="M130.559,435.016c7.709,3.68,5.881,3.078,7.133,3.41s8.629.8,8.629.8l.815,3.166s-8.986-.491-10.211-.773-6.381-2.239-6.381-2.239Z" transform="translate(-101.94 -423.429)" fill="#fff"/>
      <path id="Trazado_190221" data-name="Trazado 190221" d="M146.26,439.618c-.539.324-.678.919-1.417,1.024a19.318,19.318,0,0,1-6.808-.344,7.51,7.51,0,0,1-1.847-.063,21.27,21.27,0,0,1-5.638-2.386l-.007,1.885s5.155,1.957,6.381,2.239,10.211.773,10.211.773l-.806-3.133Z" transform="translate(-101.94 -423.785)" fill="#d0d1de"/>
      <path id="Trazado_190222" data-name="Trazado 190222" d="M129.306,477.667a6.508,6.508,0,0,0-.33,1.692c0,.737.05,1.52.276,1.706.452.371,6.171.419,6.637-.11s.155-1.383-1.056-1.679a18.962,18.962,0,0,1-2.3-.492,1.075,1.075,0,0,1-.62-1.228Z" transform="translate(-101.743 -428.776)" fill="#110239"/>
      <path id="Trazado_190223" data-name="Trazado 190223" d="M114.816,476.455a6.491,6.491,0,0,0-.911,1.462c-.265.688-.495,1.439-.35,1.693.29.507,5.617,2.591,6.24,2.263s.638-1.237-.388-1.945a19,19,0,0,1-1.971-1.278,1.076,1.076,0,0,1-.142-1.369Z" transform="translate(-99.799 -428.637)" fill="#110239"/>
      <path id="Trazado_190224" data-name="Trazado 190224" d="M128.2,449.881l-7.706.857s6.891,11.017,7.413,12.787-.192,11.388-.192,11.388h3.489s.749-11.359.578-12.216S128.2,449.881,128.2,449.881Z" transform="translate(-100.677 -425.297)" fill="#110239"/>
      <path id="Trazado_190225" data-name="Trazado 190225" d="M127.114,450.534h-8.8a9.91,9.91,0,0,0-.556,4.753,45.113,45.113,0,0,1,.742,7.192c-.043.771-4.338,11.046-4.338,11.046l3.2,1.191s4.417-9.8,4.845-10.91S127.114,450.534,127.114,450.534Z" transform="translate(-99.881 -425.379)" fill="#110239"/>
      <path id="Trazado_190226" data-name="Trazado 190226" d="M128.222,433.05a17.428,17.428,0,0,1-.212-3.392,7.832,7.832,0,0,1-2.125-.169,3.164,3.164,0,0,1-.721-.254,8.65,8.65,0,0,1-.913,3.527A3.168,3.168,0,0,0,128.222,433.05Z" transform="translate(-101.149 -422.702)" fill="#ff9d8a"/>
      <path id="Trazado_190227" data-name="Trazado 190227" d="M124.093,432.992a.737.737,0,0,0,.019.075l0,.01a1.122,1.122,0,0,0,.044.114l0,.005a1.24,1.24,0,0,0,.078.142l.013.02a1.5,1.5,0,0,0,.3.33l.023.019a1.941,1.941,0,0,0,.232.16l.035.02a2.464,2.464,0,0,0,.308.15,2.6,2.6,0,0,1,.7-1.233,3.258,3.258,0,0,1,2.209-.942,12.481,12.481,0,0,1-.065-2.2,7.832,7.832,0,0,1-2.125-.169,3.164,3.164,0,0,1-.721-.254c-.075.884-.323,2.947-1.055,3.723l0,.023Z" transform="translate(-101.129 -422.702)" fill="#e17c5e"/>
      <path id="Trazado_190228" data-name="Trazado 190228" d="M125.026,423.655s3.06-.754,3.508,0,.306,1.93.482,2.46.9,1.112.971,1.324-.53.583-.618.742-.47,1.854-1.012,2.207-3.308-.777-3.943-2.137S124.2,424.055,125.026,423.655Z" transform="translate(-101.131 -421.959)" fill="#ff9d8a"/>
      <path id="Trazado_190229" data-name="Trazado 190229" d="M128.564,445.233a64.043,64.043,0,0,0,.32,8.629c.362,1.369.58,2.769.863,4.154.86-.177,1.761-.4,2.71-.68,0,0-2.029-7.3-2.013-7.942.058-2.255.183-7.533.125-9.279-.109-3.283-.132-5.224-.132-5.224a20.17,20.17,0,0,0-1.685-1.52s-.164.365-.413.425A76.886,76.886,0,0,1,128.564,445.233Z" transform="translate(-101.663 -423.222)" fill="#fff"/>
      <path id="Trazado_190230" data-name="Trazado 190230" d="M123.807,447.283c-.01-.376-.02-.752-.01-1.13.06-2.316.559-4.543.8-6.837a25.5,25.5,0,0,0,.033-5.349,2.9,2.9,0,0,1-1.181-.844s-3.321.581-3.728.746c-.337.137.55,4.865.165,7.241-.313,1.928-1.346,6.094-1.78,7.581-.858,2.932-1.009,9.049-1.009,9.049a20.179,20.179,0,0,0,7.613.761C123.98,454.794,123.122,450.989,123.807,447.283Z" transform="translate(-100.25 -423.191)" fill="#fff"/>
      <path id="Trazado_190231" data-name="Trazado 190231" d="M120.339,448.121a15.2,15.2,0,0,0,.635-8.711,20.7,20.7,0,0,0-1.252-3.515,27.1,27.1,0,0,1,.163,5.563c-.313,1.928-1.346,6.094-1.78,7.581-.858,2.932-1.009,9.049-1.009,9.049a15.182,15.182,0,0,0,2.278.54C118.181,455.094,119.2,451.74,120.339,448.121Z" transform="translate(-100.25 -423.539)" fill="#d0d1de"/>
      <path id="Trazado_190232" data-name="Trazado 190232" d="M126.108,424a3,3,0,0,1-.39,1.546c-.2.352.661,1.354.39,1.779-.181.283-.421.2-.617-.386a.878.878,0,0,0-.469-.439c-.725-.354-.949.764-.3,1.13.453.255.123,1.417.123,1.417-.516.36-2.14-.177-1.905-1.371.15-.76.214-1.049-.045-1.248a1.337,1.337,0,0,1-.224-2.083c1.151-1.044.163-1.437,1.45-1.7S126.423,423.214,126.108,424Z" transform="translate(-100.898 -421.868)" fill="#110239"/>
      <path id="Trazado_190233" data-name="Trazado 190233" d="M124.12,423.144c.085-.274.6-.608.859-.783a3.669,3.669,0,0,1,1.33-.528,3.365,3.365,0,0,1,1.453.017c.409.1.748.3,1.167.365a1.369,1.369,0,0,0,1.062-.156,2.693,2.693,0,0,1,.008.957,2.973,2.973,0,0,1-.591,1.025,3.133,3.133,0,0,1-3.5.779,2.444,2.444,0,0,1-1.312-.991A2.97,2.97,0,0,0,124.12,423.144Z" transform="translate(-101.133 -421.763)" fill="#110239"/>
      <g id="Grupo_108176" data-name="Grupo 108176" transform="translate(0 11.203)">
        <g id="Grupo_108175" data-name="Grupo 108175" transform="translate(0 1.245)">
          <path id="Trazado_190234" data-name="Trazado 190234" d="M143.111,444.464l-36.383,14.917c-2.232.915-3.652-.268-4.416-2.133l-.028-.068c-.765-1.865-.586-3.7,1.647-4.62l36.383-14.918L139.64,436l-38.455,15.767a5.407,5.407,0,0,0-2.952,7.054l.042.1a5.406,5.406,0,0,0,7.054,2.951l38.455-15.767Z" transform="translate(-97.828 -436)" fill="#fff"/>
          <rect id="Rectángulo_39732" data-name="Rectángulo 39732" width="3.686" height="1.775" transform="matrix(0.925, -0.379, 0.379, 0.925, 41.872, 9.863)" fill="#dfeaeb"/>
          <rect id="Rectángulo_39733" data-name="Rectángulo 39733" width="3.686" height="1.775" transform="translate(38.401 1.399) rotate(-22.295)" fill="#dfeaeb"/>
          <path id="Trazado_190235" data-name="Trazado 190235" d="M102.893,457.484l-.028-.068c-.765-1.865-.586-3.7,1.647-4.62l36.383-14.918,2.8,6.822-36.383,14.917C105.077,460.533,103.657,459.349,102.893,457.484Z" transform="translate(-98.41 -436.236)" fill="#fff" opacity="0.32" style="mix-blend-mode: screen;isolation: isolate"/>
          <path id="Trazado_190236" data-name="Trazado 190236" d="M126.746,452.353a6.542,6.542,0,0,1,1.429-.4l10.216-4.189c-2.418-.348-5.176.7-7.331-.816-1.914-1.342-3.449-2.292-5.4-1.875a5.086,5.086,0,0,0-.5.146l-1.006.413h0c-1.275.659-2.711,1.111-4.039,1.656l-15.6,6.4a3.783,3.783,0,0,0-1.307.845c-.956.991-.914,2.375-.34,3.774l.028.068a5.436,5.436,0,0,0,.7,1.249,3.6,3.6,0,0,0,.446.487,2.647,2.647,0,0,0,1.748.713,3.77,3.77,0,0,0,1.524-.316l14.388-5.9C123.41,453.909,125.061,453.09,126.746,452.353Z" transform="translate(-98.41 -437.128)" fill="#56b2e5"/>
        </g>
        <path id="Trazado_190237" data-name="Trazado 190237" d="M148.09,446.441l-4.077-9.943a1.386,1.386,0,0,1,.756-1.808l.026-.01a1.386,1.386,0,0,1,1.807.756l4.077,9.943a1.385,1.385,0,0,1-.756,1.807l-.026.01A1.385,1.385,0,0,1,148.09,446.441Z" transform="translate(-103.62 -434.576)" fill="#fff"/>
        <path id="Trazado_190238" data-name="Trazado 190238" d="M125.108,453.195a.955.955,0,1,1,.522-1.247A.956.956,0,0,1,125.108,453.195Z" transform="translate(-101.091 -436.685)" fill="#6fc6ec"/>
        <path id="Trazado_190239" data-name="Trazado 190239" d="M128.879,450.129a1.278,1.278,0,1,1,.7-1.667A1.278,1.278,0,0,1,128.879,450.129Z" transform="translate(-101.509 -436.222)" fill="#6fc6ec"/>
        <path id="Trazado_190240" data-name="Trazado 190240" d="M110.452,460.3a1.536,1.536,0,1,1,.838-2A1.536,1.536,0,0,1,110.452,460.3Z" transform="translate(-99.148 -437.438)" fill="#6fc6ec"/>
        <path id="Trazado_190241" data-name="Trazado 190241" d="M105.7,458.719a.8.8,0,1,1,.438-1.047A.8.8,0,0,1,105.7,458.719Z" transform="translate(-98.678 -437.417)" fill="#6fc6ec"/>
        <path id="Trazado_190242" data-name="Trazado 190242" d="M121.328,451.5a.974.974,0,1,1,.532-1.27A.973.973,0,0,1,121.328,451.5Z" transform="translate(-100.613 -436.467)" fill="#6fc6ec"/>
        <path id="Trazado_190243" data-name="Trazado 190243" d="M119.532,456.4a1.725,1.725,0,1,1,.942-2.25A1.724,1.724,0,0,1,119.532,456.4Z" transform="translate(-100.257 -436.902)" fill="#6fc6ec"/>
        <path id="Trazado_190244" data-name="Trazado 190244" d="M133.1,450.228a.99.99,0,1,1,.54-1.292A.99.99,0,0,1,133.1,450.228Z" transform="translate(-102.09 -436.304)" fill="#6fc6ec"/>
        <path id="Trazado_190245" data-name="Trazado 190245" d="M136.644,449.884a.551.551,0,1,1,.3-.719A.551.551,0,0,1,136.644,449.884Z" transform="translate(-102.611 -436.367)" fill="#6fc6ec"/>
        <path id="Trazado_190246" data-name="Trazado 190246" d="M125.209,449.09a.55.55,0,1,1,.3-.719A.55.55,0,0,1,125.209,449.09Z" transform="translate(-101.174 -436.267)" fill="#6fc6ec"/>
        <path id="Trazado_190247" data-name="Trazado 190247" d="M114.568,455.2a1.365,1.365,0,1,1,.745-1.78A1.365,1.365,0,0,1,114.568,455.2Z" transform="translate(-99.695 -436.838)" fill="#6fc6ec"/>
        <path id="Trazado_190248" data-name="Trazado 190248" d="M109.613,455.276a.808.808,0,1,1,.442-1.054A.807.807,0,0,1,109.613,455.276Z" transform="translate(-99.169 -436.983)" fill="#6fc6ec"/>
      </g>
      <path id="Trazado_190249" data-name="Trazado 190249" d="M122.109,448.235c.6-.025,1.339.09,1.961.09.284,0,.578-.042.859-.059.178-.01.54-.07.644.129.114.219-.243.3-.384.327-.2.044-.624.016-.663.289-.056.4.685.5.973.628.268.117.977.367.512.629-.314.177-.973-.226-1.24-.334a4.091,4.091,0,0,1,.97.4c.181.1.539.248.539.453,0,.3-.663.12-.826.049a2.928,2.928,0,0,1-.737-.408c.278.148,1.3.581.965.935-.2.217-1-.392-1.321-.521.175.162.7.247.657.588-.022.171-.318.035-.461-.043-.2-.109-.379-.268-.581-.364a2.939,2.939,0,0,1-.434-.289,5.2,5.2,0,0,1-1-.653,11.341,11.341,0,0,0-.869-.888C122.255,448.981,121.663,448.548,122.109,448.235Z" transform="translate(-100.825 -425.09)" fill="#ff9d8a"/>
      <path id="Trazado_190250" data-name="Trazado 190250" d="M121.845,446.279l-.857,1.979s-8.841-2.869-8.427-5.19c.364-2.038,5.509-8.866,6.629-9.111,1.506-.33,2.11,3.26,1.245,4.13-1.825,1.835-4.427,4.416-4.213,4.831S121.845,446.279,121.845,446.279Z" transform="translate(-99.678 -423.293)" fill="#fff"/>
      <path id="Trazado_190251" data-name="Trazado 190251" d="M149.844,442.127a1.72,1.72,0,0,0-.1-1.969c-.286-.414-.785-.339-1.521-.254a2.06,2.06,0,0,0-1.083.291c-.308.669,1.327.349,1.76.36,0,0-1.77.132-1.854.466-.143.622,1.445.272,1.855.254a2.7,2.7,0,0,0-1.188.2c-.307.067-.2.289-.152.339.235.254,1.539-.017,1.539-.017-.232.048-1.12.045-.869.383.163.219.535.157.741.164A1.3,1.3,0,0,0,149.844,442.127Z" transform="translate(-104.014 -424.035)" fill="#ff9d8a"/>
    </g>
  </g>
</svg>
