<svg xmlns="http://www.w3.org/2000/svg" width="102" height="96" viewBox="0 0 102 96">
  <g id="Grupo_148063" data-name="Grupo 148063" transform="translate(-749 -759)">
    <g id="Grupo_147017" data-name="Grupo 147017">
      <circle id="Elipse_4053" data-name="Elipse 4053" cx="48" cy="48" r="48" transform="translate(752 759)" fill="#7088b4"/>
      <ellipse id="Elipse_5468" data-name="Elipse 5468" cx="51" cy="8.5" rx="51" ry="8.5" transform="translate(749 838)" fill="#f0d5a9"/>
      <g id="muestra-de-sangre" transform="translate(762 772.001)">
        <path id="Trazado_190638" data-name="Trazado 190638" d="M20.089,144.226h4.527v51.61H20.089Z" transform="translate(-17.146 -123.099)" fill="#be652b"/>
        <path id="Trazado_190639" data-name="Trazado 190639" d="M461.006,144.226h4.527v51.61h-4.527Z" transform="translate(-393.476 -123.099)" fill="#be652b"/>
        <path id="Trazado_190640" data-name="Trazado 190640" d="M88.519,11H75.843V2.716A2.716,2.716,0,0,1,78.559,0H85.8a2.716,2.716,0,0,1,2.716,2.716Z" transform="translate(-64.733)" fill="#ddc192"/>
        <path id="Trazado_190641" data-name="Trazado 190641" d="M117.457,0H112.93a2.716,2.716,0,0,1,2.716,2.716V11h4.527V2.716A2.716,2.716,0,0,0,117.457,0Z" transform="translate(-96.388)" fill="#cbb185"/>
        <path id="Trazado_190642" data-name="Trazado 190642" d="M85.7,129.133a5.734,5.734,0,0,1-5.734-5.734V81.635H91.433V123.4A5.734,5.734,0,0,1,85.7,129.133Z" transform="translate(-68.251 -69.677)" fill="#bbf7ff"/>
        <path id="Trazado_190643" data-name="Trazado 190643" d="M107.129,81.635V123.4a5.735,5.735,0,0,1-3.471,5.269,5.736,5.736,0,0,0,8-5.269V81.635Z" transform="translate(-88.474 -69.677)" fill="#8bf0ff"/>
        <path id="Trazado_190644" data-name="Trazado 190644" d="M79.964,221.582v21.264a5.734,5.734,0,1,0,11.469,0V221.582Z" transform="translate(-68.251 -189.124)" fill="#bbf7ff"/>
        <path id="Trazado_190645" data-name="Trazado 190645" d="M107.129,221.582v21.264a5.735,5.735,0,0,1-3.471,5.269,5.736,5.736,0,0,0,8-5.269V221.582Z" transform="translate(-88.474 -189.124)" fill="#8bf0ff"/>
        <path id="Trazado_190646" data-name="Trazado 190646" d="M225.99,11H213.314V2.716A2.716,2.716,0,0,1,216.03,0h7.243a2.716,2.716,0,0,1,2.716,2.716Z" transform="translate(-182.067)" fill="#29cef6"/>
        <path id="Trazado_190647" data-name="Trazado 190647" d="M254.927,0H250.4a2.716,2.716,0,0,1,2.716,2.716V11h4.527V2.716A2.716,2.716,0,0,0,254.927,0Z" transform="translate(-213.72)" fill="#22b5ed"/>
        <path id="Trazado_190648" data-name="Trazado 190648" d="M223.168,129.133a5.734,5.734,0,0,1-5.734-5.734V81.635H228.9V123.4A5.734,5.734,0,0,1,223.168,129.133Z" transform="translate(-185.583 -69.677)" fill="#bbf7ff"/>
        <path id="Trazado_190649" data-name="Trazado 190649" d="M244.6,81.635V123.4a5.735,5.735,0,0,1-3.471,5.269,5.736,5.736,0,0,0,8-5.269V81.635Z" transform="translate(-205.807 -69.677)" fill="#8bf0ff"/>
        <path id="Trazado_190650" data-name="Trazado 190650" d="M217.434,221.582v21.264a5.734,5.734,0,1,0,11.469,0V221.582Z" transform="translate(-185.583 -189.124)" fill="#ddc192"/>
        <path id="Trazado_190651" data-name="Trazado 190651" d="M244.6,221.582v21.264a5.735,5.735,0,0,1-3.471,5.269,5.736,5.736,0,0,0,8-5.269V221.582Z" transform="translate(-205.807 -189.124)" fill="#cbb185"/>
        <path id="Trazado_190652" data-name="Trazado 190652" d="M363.46,11H350.784V2.716A2.716,2.716,0,0,1,353.5,0h7.243a2.716,2.716,0,0,1,2.716,2.716Z" transform="translate(-299.4)" fill="#00d9c8"/>
        <path id="Trazado_190653" data-name="Trazado 190653" d="M392.4,0h-4.527a2.716,2.716,0,0,1,2.716,2.716V11h4.527V2.716A2.716,2.716,0,0,0,392.4,0Z" transform="translate(-331.054)" fill="#00bcb9"/>
        <path id="Trazado_190654" data-name="Trazado 190654" d="M360.639,129.133A5.734,5.734,0,0,1,354.9,123.4V81.635h11.469V123.4A5.734,5.734,0,0,1,360.639,129.133Z" transform="translate(-302.917 -69.677)" fill="#bbf7ff"/>
        <path id="Trazado_190655" data-name="Trazado 190655" d="M382.07,81.635V123.4a5.735,5.735,0,0,1-3.471,5.269,5.736,5.736,0,0,0,8-5.269V81.635Z" transform="translate(-323.14 -69.677)" fill="#8bf0ff"/>
        <path id="Trazado_190656" data-name="Trazado 190656" d="M354.9,221.582v21.264a5.734,5.734,0,1,0,11.469,0V221.582Z" transform="translate(-302.917 -189.124)" fill="#9eb7e5"/>
        <path id="Trazado_190657" data-name="Trazado 190657" d="M382.07,221.582v21.264a5.735,5.735,0,0,1-3.471,5.269,5.736,5.736,0,0,0,8-5.269V221.582Z" transform="translate(-323.14 -189.124)" fill="#8aa3d2"/>
        <path id="Trazado_190658" data-name="Trazado 190658" d="M74.547,485.621H.453A.453.453,0,0,1,0,485.168v-1.808a2.267,2.267,0,0,1,2.267-2.267H72.733A2.267,2.267,0,0,1,75,483.361v1.808a.453.453,0,0,1-.453.453Z" transform="translate(0 -410.621)" fill="#d67b42"/>
        <path id="Trazado_190659" data-name="Trazado 190659" d="M470.149,481.095h-4.527a2.267,2.267,0,0,1,2.267,2.267v1.808a.453.453,0,0,1-.453.453h4.527a.453.453,0,0,0,.453-.453v-1.808A2.266,2.266,0,0,0,470.149,481.095Z" transform="translate(-397.416 -410.622)" fill="#be652b"/>
        <path id="Trazado_190660" data-name="Trazado 190660" d="M20.089,133.3v-3.941a.586.586,0,0,1,.586-.586H88.618a.586.586,0,0,1,.586.586V133.3Z" transform="translate(-17.146 -109.91)" fill="#d67b42"/>
        <path id="Trazado_190661" data-name="Trazado 190661" d="M78.417,68.4H65.439a1.509,1.509,0,0,1-1.509-1.509V65.38a1.509,1.509,0,0,1,1.509-1.509H78.417a1.509,1.509,0,0,1,1.509,1.509v1.509A1.509,1.509,0,0,1,78.417,68.4Z" transform="translate(-54.565 -54.515)" fill="#f3f3f3"/>
        <path id="Trazado_190662" data-name="Trazado 190662" d="M136.449,63.871h-4.527a1.509,1.509,0,0,1,1.509,1.509v1.509a1.509,1.509,0,0,1-1.509,1.509h4.527a1.509,1.509,0,0,0,1.509-1.509V65.38A1.509,1.509,0,0,0,136.449,63.871Z" transform="translate(-112.598 -54.515)" fill="#e4e4e4"/>
        <path id="Trazado_190663" data-name="Trazado 190663" d="M215.887,68.4H202.909a1.509,1.509,0,0,1-1.509-1.509V65.38a1.509,1.509,0,0,1,1.509-1.509h12.978A1.509,1.509,0,0,1,217.4,65.38v1.509A1.509,1.509,0,0,1,215.887,68.4Z" transform="translate(-171.898 -54.515)" fill="#f3f3f3"/>
        <path id="Trazado_190664" data-name="Trazado 190664" d="M273.92,63.871h-4.527A1.509,1.509,0,0,1,270.9,65.38v1.509a1.509,1.509,0,0,1-1.509,1.509h4.527a1.509,1.509,0,0,0,1.509-1.509V65.38A1.509,1.509,0,0,0,273.92,63.871Z" transform="translate(-229.931 -54.515)" fill="#e4e4e4"/>
        <path id="Trazado_190665" data-name="Trazado 190665" d="M353.357,68.4H340.379a1.509,1.509,0,0,1-1.509-1.509V65.38a1.509,1.509,0,0,1,1.509-1.509h12.978a1.509,1.509,0,0,1,1.509,1.509v1.509A1.509,1.509,0,0,1,353.357,68.4Z" transform="translate(-289.231 -54.515)" fill="#f3f3f3"/>
        <path id="Trazado_190666" data-name="Trazado 190666" d="M411.39,63.871h-4.527a1.509,1.509,0,0,1,1.509,1.509v1.509a1.509,1.509,0,0,1-1.509,1.509h4.527a1.509,1.509,0,0,0,1.509-1.509V65.38A1.509,1.509,0,0,0,411.39,63.871Z" transform="translate(-347.264 -54.515)" fill="#e4e4e4"/>
      </g>
    </g>
  </g>
</svg>
