<svg xmlns="http://www.w3.org/2000/svg" xmlns:xlink="http://www.w3.org/1999/xlink" width="294.07" height="166.836" viewBox="0 0 294.07 166.836">
  <defs>
    <clipPath id="clip-path">
      <rect id="Rectángulo_40329" data-name="Rectángulo 40329" width="127.801" height="162.479" fill="none"/>
    </clipPath>
    <clipPath id="clip-path-2">
      <rect id="Rectángulo_40330" data-name="Rectángulo 40330" width="64.546" height="87.793" fill="none"/>
    </clipPath>
  </defs>
  <g id="Grupo_148068" data-name="Grupo 148068" transform="translate(4610 9770)">
    <path id="Trazado_190597" data-name="Trazado 190597" d="M-5908-10043.164l4.358-4.357h285.354l4.358,4.357Z" transform="translate(1298 440)" fill="#a0a9b6"/>
    <g id="ciudad" transform="translate(-4509 -9769.521)">
      <path id="Trazado_191966" data-name="Trazado 191966" d="M162.416,454.87c1.748,0,2.365-1.51.845-2.071-21.3-7.854-49.15-12.612-79.63-12.612-30.5,0-58.36,4.764-79.667,12.625-1.51.557-.9,2.057.839,2.057Z" transform="translate(-89.339 -292.87)" fill="#9eb7e5"/>
      <path id="Trazado_191923" data-name="Trazado 191923" d="M162.416,462.909a1.717,1.717,0,0,0,.845-3.2c-21.3-12.154-49.15-19.518-79.63-19.518-30.5,0-58.36,7.372-79.667,19.538a1.706,1.706,0,0,0,.839,3.184Z" transform="translate(-2.123 -300.909)" fill="#29b288"/>
      <path id="Trazado_191924" data-name="Trazado 191924" d="M16.924,459.724c19.787-11.3,45.231-18.458,73.187-19.423q-3.219-.111-6.48-.116c-30.5,0-58.36,7.372-79.667,19.538a1.706,1.706,0,0,0,.84,3.184h12.96A1.706,1.706,0,0,1,16.924,459.724Z" transform="translate(-2.124 -300.908)" fill="#21a378"/>
    </g>
    <g id="Grupo_147769" data-name="Grupo 147769" transform="translate(-4496.938 -9770)">
      <rect id="Rectángulo_40313" data-name="Rectángulo 40313" width="5.062" height="28.362" transform="translate(-42.363 125.074)" fill="#110239"/>
      <rect id="Rectángulo_40314" data-name="Rectángulo 40314" width="5.062" height="28.362" transform="translate(68.094 125.074)" fill="#110239"/>
      <rect id="Rectángulo_40315" data-name="Rectángulo 40315" width="218.877" height="127.654" transform="translate(-91.076)" fill="#c0d3e8"/>
      <rect id="Rectángulo_40316" data-name="Rectángulo 40316" width="203.01" height="113.984" transform="translate(-83.142 6.835)" fill="#fff"/>
      <rect id="Rectángulo_40317" data-name="Rectángulo 40317" width="13.449" height="5.014" transform="translate(-46.557 149.831)" fill="#c6d1de"/>
      <rect id="Rectángulo_40318" data-name="Rectángulo 40318" width="13.449" height="5.014" transform="translate(63.9 149.831)" fill="#c6d1de"/>
      <rect id="Rectángulo_40319" data-name="Rectángulo 40319" width="28.401" height="4.977" transform="translate(83.95 15.104)" fill="#e4e5ec"/>
      <rect id="Rectángulo_40320" data-name="Rectángulo 40320" width="28.401" height="4.977" transform="translate(83.95 26.181)" fill="#81ebeb"/>
      <rect id="Rectángulo_40321" data-name="Rectángulo 40321" width="28.401" height="4.977" transform="translate(83.95 37.257)" fill="#e4e5ec"/>
      <rect id="Rectángulo_40322" data-name="Rectángulo 40322" width="28.401" height="4.977" transform="translate(83.95 48.332)" fill="#fd425f"/>
      <rect id="Rectángulo_40323" data-name="Rectángulo 40323" width="5.187" height="5.186" transform="translate(15.781 14.883)" fill="#81ebeb"/>
      <rect id="Rectángulo_40324" data-name="Rectángulo 40324" width="23.523" height="5.186" transform="translate(25.97 14.883)" fill="#e4e5ec"/>
      <rect id="Rectángulo_40325" data-name="Rectángulo 40325" width="5.187" height="5.186" transform="translate(15.781 23.589)" fill="#81ebeb"/>
      <rect id="Rectángulo_40326" data-name="Rectángulo 40326" width="23.523" height="5.186" transform="translate(25.97 23.589)" fill="#e4e5ec"/>
      <rect id="Rectángulo_40327" data-name="Rectángulo 40327" width="5.187" height="5.187" transform="translate(15.781 32.293)" fill="#81ebeb"/>
      <rect id="Rectángulo_40328" data-name="Rectángulo 40328" width="23.523" height="5.187" transform="translate(25.97 32.293)" fill="#e4e5ec"/>
      <g id="Grupo_147584" data-name="Grupo 147584" transform="translate(0 0)">
        <g id="Grupo_147583" data-name="Grupo 147583" clip-path="url(#clip-path)">
          <path id="Trazado_191594" data-name="Trazado 191594" d="M38.037,30.2a5.538,5.538,0,0,1-2.564-1.331A3.33,3.33,0,0,0,34.445,28a7.049,7.049,0,0,1-1.271-.891,2.783,2.783,0,0,0-1.338-.75c-.642-.058-.3.688,0,1.155.325.506,2.072,1.2,1.994,1.83S31.672,29,31.262,28.8c-.969-.474-1.034-1.28-1.609-2.069-.336-.461-.629-.569-.834.057-.154.467.166.944.4,1.33a5.813,5.813,0,0,0,2,2.028,6.765,6.765,0,0,1-2.056-1.7c-.325-.391-1.416-2.3-2.077-1.846-1.326.918,2.321,4.291,3.189,4.553a7.984,7.984,0,0,1-2.178-1.577c-.4-.354-1.3-1.234-1.452-.292-.225,1.391,2.489,2.4,3.621,3.071a9.408,9.408,0,0,1-2.337-1.036c-1.013-.511-1.036.412-.088,1.116a12.984,12.984,0,0,0,1.485.845,8.657,8.657,0,0,0,5.539.78c.789-.085,2.321.591,2.786.087.9-.978.426-2.816.391-3.941" transform="translate(20.45 20.236)" fill="#ff9d8a"/>
          <path id="Trazado_191595" data-name="Trazado 191595" d="M33.456,31.572,31.845,36.9s19.278,6.646,23.861,7.358,15.456-9.25,15.456-9.25,1.945-10.921-.619-10.811c-1.98.083-16.167,10.35-16.964,10.776s-20.123-3.4-20.123-3.4" transform="translate(24.457 18.58)" fill="#edf6ff"/>
          <path id="Trazado_191596" data-name="Trazado 191596" d="M58.589,20.583a9.8,9.8,0,0,0,5.891-3.027,27.2,27.2,0,0,0,.971,9.418s-.232,15.187-6.405,13.361-2.2-11.708-2.2-11.708c1.429-2.275,1.727-5.7,1.745-8.044" transform="translate(42.69 13.482)" fill="#e17c5e"/>
          <path id="Trazado_191597" data-name="Trazado 191597" d="M62.881,10.466s-7.067-.748-8.357,2.106.205,6.676-.2,7.967-.2,9.427,2.106,9.632,9.581-5.028,9.784-11.144-1.561-8.474-3.329-8.561" transform="translate(41.461 7.97)" fill="#ff9d8a"/>
          <path id="Trazado_191598" data-name="Trazado 191598" d="M56.577,21.641l-.1-.012c-.232,0-.435.011-.642.018-.072-.171-.134-.339-.212-.513-.14-.311-.276-.626-.417-.939C55,19.6,54.826,19,54.66,18.4a8.744,8.744,0,0,0,.981-.166q1.358.652,2.714,1.3c.173.085.352.161.527.244a28.535,28.535,0,0,0-2.305,1.865" transform="translate(41.979 14.002)" fill="#fff"/>
          <path id="Trazado_191599" data-name="Trazado 191599" d="M66.266,86.108s.852,5.088.324,6.494c-.4,1.08-15.723,1.236-16.584.3s.575-2.569,1.328-2.947,8.577-3.8,8.577-3.8Z" transform="translate(38.2 66.13)" fill="#110239"/>
          <path id="Trazado_191600" data-name="Trazado 191600" d="M65.417,86.657h6.542s3.449,4.687,3.4,5.872-5.3,3.4-6.489,3.4-5.408-2.834-5.357-3.349,1.906-5.923,1.906-5.923" transform="translate(48.776 66.552)" fill="#110239"/>
          <path id="Trazado_191601" data-name="Trazado 191601" d="M54.912,18.721a3.374,3.374,0,0,1-1.865-3.771c.545-2.717,1.9-4.416,5.912-5.537s7.678-.753,8.17,2.58c0,0-1.885,5.811-6.54,5.539s-6.071-.271-5.677,1.19" transform="translate(40.678 6.79)" fill="#110239"/>
          <path id="Trazado_191602" data-name="Trazado 191602" d="M55.375,31.595c3,1.913,7.993-2.192,11.273-6.512,1.724-2.268,5.847-12.33-.453-15.116l-2.7,2.99a4.491,4.491,0,0,0-1.766,4.857c.645,3.467-.329,2.933.1,3.568s.933.154,1.07-.594.594-2.072,1.478-1.681,1.409,1.9-.239,2.99c0,0-1.78,3.722-3.419,3.7-.244,0-1.706-2.542-4.325-2.514a3.257,3.257,0,0,0-2.277.73s-.589,6.405,1.257,7.581m.306-6.137a5.72,5.72,0,0,0,2.293.442c-1.529,1.7-2.293-.442-2.293-.442" transform="translate(41.494 7.654)" fill="#110239"/>
          <path id="Trazado_191603" data-name="Trazado 191603" d="M53.986,43.629l18.567-.35s2.825,4.629,3.456,17.989c.433,9.148.808,11.681,1.717,23.772.617,8.209,3.529,35.3,3.529,35.3H71.389S67.211,88.81,67,86.855c-.076-.691-2.519-19.913-2.519-19.913s.4,17.432.4,19.432.433,32.952.433,32.952h-10.4s-1.167-25.662-1.266-32.536c-.161-11.13-1.112-39.566.338-43.16" transform="translate(40.853 33.238)" fill="#110239"/>
          <path id="Trazado_191604" data-name="Trazado 191604" d="M68.293,22.662s8.621,1.174,10.707,2.3c0,0-5.863,9.392-4.036,15.433,0,0,1,12.7,1.367,20.394.1,2.138,2.7,23.843,2.67,24.826,0,0-15.847,3.17-27.2-.315,0,0,1.536-23.132,1.574-27.742.055-6.923.122-16.013.118-18.134,0,0,.435-8.226-.85-12.876a20.6,20.6,0,0,1,7.742-3.113s-.382.483,1.6,3.006c1.188,1.513,5.953-.7,6.306-3.782" transform="translate(39.786 17.404)" fill="#edf6ff"/>
          <path id="Trazado_191605" data-name="Trazado 191605" d="M55.939,23.893a27.491,27.491,0,0,0,.143,6.607L59,28.218l2.376,3.129a25.684,25.684,0,0,0,5.171-8.493c-.8-.122-1.319-.193-1.319-.193-.354,3.085-5.118,5.3-6.306,3.782-1.98-2.523-1.6-3-1.6-3-.3.055-1.1.389-1.39.454" transform="translate(42.846 17.403)" fill="#c0d3e8"/>
          <path id="Trazado_191606" data-name="Trazado 191606" d="M59.155,25.107h0a1.291,1.291,0,0,1-.375-.219v0L56.2,85.007c.24.021.483.044.725.062Z" transform="translate(43.159 19.112)" fill="#c6d1de"/>
          <path id="Trazado_191607" data-name="Trazado 191607" d="M51.805,81.67a31.567,31.567,0,0,0,3.232.781c.951-9.887.164-19.595.827-29.861.476-7.388,2.778-16.953-1.531-23.638-.338-.523-.647-1.04-.969-1.558a70.075,70.075,0,0,1,.133,8.4c.005,2.123-.064,11.213-.118,18.136-.037,4.609-1.574,27.742-1.574,27.742" transform="translate(39.786 21.038)" fill="#c6d1de"/>
          <path id="Trazado_191608" data-name="Trazado 191608" d="M66.8,38.791c-1.4-4.627,1.706-11.2,3.241-14.036-.564.672-1.174,1.351-1.885,2.058-7.532,7.51-5.91,16.884-4.6,26.34a140.06,140.06,0,0,1,1.078,31.736c3.7-.382,6.2-.877,6.2-.877.028-.983-2.569-22.69-2.671-24.826C67.8,51.494,66.8,38.791,66.8,38.791" transform="translate(47.952 19.011)" fill="#c6d1de"/>
          <path id="Trazado_191609" data-name="Trazado 191609" d="M66.617,52.761c-.642.787-2.783,3.347-2.435,4.478s2.13-.914,2.783-1.609.739,1.651.564,2.912-2.739,3.347-2.477,4.217,1.738-.348,3.333-2.694c0,0-2.521,2.9-1.941,3.3s2-1.071,3.129-2.781c0,0-2.435,2.739-1.826,3.064s2.282-1.586,2.914-2.564c0,0-2.07,2.247-1.5,2.617.458.3,1.957-1.052,2.544-2.834s-1.153-7.608-1.066-8.716a17.928,17.928,0,0,1,.442-2.493l-3.593-.812c.071.016.087,2.739-.87,3.913" transform="translate(49.263 37.514)" fill="#ff9d8a"/>
          <path id="Trazado_191610" data-name="Trazado 191610" d="M66.538,69.958l4.956,1.3s5.765-18.953,4.9-23.474-2.988-21.478-6.9-23.824A8,8,0,0,0,64.2,31.528,26.954,26.954,0,0,0,65.45,39.4s3.121,5.978,3.522,10.157c.334,3.478-2.435,20.4-2.435,20.4" transform="translate(49.298 18.404)" fill="#edf6ff"/>
          <path id="Trazado_191611" data-name="Trazado 191611" d="M57.554,23.086l1.772,3.391,5.716-4.367,1.74,1.312-5.458,7.5-2.259-3.681L56.35,29.99l-.484-5.863Z" transform="translate(42.904 16.98)" fill="#edf6ff"/>
        </g>
      </g>
    </g>
    <g id="Grupo_147770" data-name="Grupo 147770" transform="translate(-4557.789 -9749.479)">
      <g id="Grupo_147586" data-name="Grupo 147586" clip-path="url(#clip-path-2)">
        <path id="Trazado_191612" data-name="Trazado 191612" d="M171.211,103.424a11.68,11.68,0,0,1-11.68-11.68V20.6h23.361V91.744a11.679,11.679,0,0,1-11.68,11.68" transform="translate(-121.046 -15.632)" fill="#efedee"/>
        <path id="Trazado_191613" data-name="Trazado 191613" d="M166.987,91.744V20.6h-7.456V91.744a11.681,11.681,0,0,0,15.408,11.07,11.682,11.682,0,0,1-7.952-11.07" transform="translate(-121.046 -15.632)" fill="#d9d7d8"/>
        <path id="Trazado_191614" data-name="Trazado 191614" d="M159.531,206.246V232.6a11.681,11.681,0,1,0,23.362,0V206.246Z" transform="translate(-121.046 -156.491)" fill="#ddc192"/>
        <path id="Trazado_191615" data-name="Trazado 191615" d="M166.987,232.6V206.246h-7.456V232.6a11.681,11.681,0,0,0,15.408,11.07,11.682,11.682,0,0,1-7.952-11.07" transform="translate(-121.046 -156.491)" fill="#cdb792"/>
        <path id="Trazado_191616" data-name="Trazado 191616" d="M174.387,10.132H151.06a2.717,2.717,0,0,1-2.716-2.717v-4.7A2.717,2.717,0,0,1,151.06,0h23.327A2.717,2.717,0,0,1,177.1,2.716v4.7a2.717,2.717,0,0,1-2.717,2.717" transform="translate(-112.558)" fill="#d9d7d8"/>
        <path id="Trazado_191617" data-name="Trazado 191617" d="M155.8,7.416v-4.7A2.716,2.716,0,0,1,158.516,0H151.06a2.717,2.717,0,0,0-2.716,2.716v4.7a2.716,2.716,0,0,0,2.716,2.716h7.456A2.715,2.715,0,0,1,155.8,7.416" transform="translate(-112.558 -0.001)" fill="#bab8b9"/>
        <path id="Trazado_191618" data-name="Trazado 191618" d="M22.864,103.424a11.681,11.681,0,0,1-11.681-11.68V20.6H34.545V91.744a11.68,11.68,0,0,1-11.68,11.68" transform="translate(-8.485 -15.632)" fill="#efedee"/>
        <path id="Trazado_191619" data-name="Trazado 191619" d="M18.643,91.744V20.6H11.188V91.744A11.681,11.681,0,0,0,26.6,102.814a11.682,11.682,0,0,1-7.953-11.07" transform="translate(-8.489 -15.632)" fill="#d9d7d8"/>
        <path id="Trazado_191620" data-name="Trazado 191620" d="M11.184,154.738v38.783a11.681,11.681,0,0,0,23.362,0V154.738Z" transform="translate(-8.486 -117.409)" fill="#84e8ed"/>
        <path id="Trazado_191621" data-name="Trazado 191621" d="M18.643,193.521V154.738H11.188v38.783A11.679,11.679,0,0,0,26.6,204.591a11.682,11.682,0,0,1-7.953-11.07" transform="translate(-8.489 -117.409)" fill="#76d2d6"/>
        <path id="Trazado_191622" data-name="Trazado 191622" d="M26.043,10.132H2.716A2.716,2.716,0,0,1,0,7.415v-4.7A2.716,2.716,0,0,1,2.716,0H26.043a2.716,2.716,0,0,1,2.716,2.716v4.7a2.716,2.716,0,0,1-2.716,2.717" fill="#d9d7d8"/>
        <path id="Trazado_191623" data-name="Trazado 191623" d="M7.455,7.416v-4.7A2.717,2.717,0,0,1,10.172,0H2.716A2.716,2.716,0,0,0,0,2.717v4.7a2.715,2.715,0,0,0,2.716,2.716h7.456A2.716,2.716,0,0,1,7.455,7.416" transform="translate(0 -0.001)" fill="#bab8b9"/>
      </g>
    </g>
    <circle id="Elipse_5521" data-name="Elipse 5521" cx="20" cy="20" r="20" transform="translate(-4481 -9706)" fill="#9eb7e5"/>
    <path id="Trazado_192035" data-name="Trazado 192035" d="M-4458.732-9709.261l-2.092,22.915,20.922-10.262s-2.565-6-7.273-9.166S-4458.732-9709.261-4458.732-9709.261Z" fill="#84e8ed"/>
  </g>
</svg>
