<svg xmlns="http://www.w3.org/2000/svg" xmlns:xlink="http://www.w3.org/1999/xlink" width="294.07" height="150.411" viewBox="0 0 294.07 150.411">
  <defs>
    <clipPath id="clip-path">
      <rect id="Rectángulo_40398" data-name="Rectángulo 40398" width="61.203" height="148.232" fill="none"/>
    </clipPath>
    <clipPath id="clip-path-2">
      <rect id="Rectángulo_40397" data-name="Rectángulo 40397" width="2.354" height="16.402" fill="none"/>
    </clipPath>
  </defs>
  <g id="Grupo_148071" data-name="Grupo 148071" transform="translate(4610 9105.029)">
    <path id="Trazado_191946" data-name="Trazado 191946" d="M234.7,228.6,226.5,212.84h-48.29L141.371,283.6l-5.17,9.931,142.1,18.816Z" transform="translate(-4673.702 -9275.132)" fill="#9b6f43"/>
    <path id="Trazado_191947" data-name="Trazado 191947" d="M178.62,228.6l8.207-15.764h-8.618L141.371,283.6l-5.17,9.931,8.063,1.068Z" transform="translate(-4673.702 -9275.132)" fill="#8e6138"/>
    <path id="Trazado_191948" data-name="Trazado 191948" d="M293.387,146.067l-11.068-21.261-9.022-17.33a4.572,4.572,0,0,0-8.11,0l-20.09,38.59h0l-.884,1.7h17.623a13.872,13.872,0,0,1,.149-1.7h31.4Z" transform="translate(-4740.591 -9208.359)" fill="#ffce9b"/>
    <path id="Trazado_191949" data-name="Trazado 191949" d="M273.552,107.966l-.254-.488a4.572,4.572,0,0,0-8.11,0l-20.974,40.289h8.618Z" transform="translate(-4740.591 -9208.359)" fill="#ffb181"/>
    <path id="Trazado_191958" data-name="Trazado 191958" d="M193.886,435.879c-25.788-14.624-59.5-23.485-96.4-23.485a216.192,216.192,0,0,0-56.4,7.311l-11.678,3.567A166.437,166.437,0,0,0,1.037,435.9a2.051,2.051,0,0,0,1.017,3.831H192.863A2.064,2.064,0,0,0,193.886,435.879Z" transform="translate(-4589.356 -9398.711)" fill="#29b288"/>
    <path id="Trazado_191960" data-name="Trazado 191960" d="M83.074,388.5H77.235v36.44H88.913V388.5Z" transform="translate(-4637.186 -9383.911)" fill="#9b6f43"/>
    <path id="Trazado_191961" data-name="Trazado 191961" d="M80.154,388.5H77.235v36.44h5.839V388.5Z" transform="translate(-4637.186 -9383.911)" fill="#8e6138"/>
    <path id="Trazado_191962" data-name="Trazado 191962" d="M76.785,257.123c-1.327-2.9-6.21-13.279-11.269-20.632a.547.547,0,0,1,.453-.857H72.9a.548.548,0,0,0,.485-.8,138.969,138.969,0,0,0-20.9-29.036.552.552,0,0,0-.794,0,138.954,138.954,0,0,0-20.9,29.036.548.548,0,0,0,.486.8h6.93a.547.547,0,0,1,.453.857c-5.06,7.353-9.942,17.736-11.269,20.632a.548.548,0,0,0,.5.777h7.387a.547.547,0,0,1,.46.845,70.7,70.7,0,0,0-8.521,19.7.548.548,0,0,0,.531.686H76.428a.548.548,0,0,0,.531-.686,70.7,70.7,0,0,0-8.521-19.7.547.547,0,0,1,.46-.845h7.387A.548.548,0,0,0,76.785,257.123Z" transform="translate(-4606.201 -9270.664)" fill="#4ce079"/>
    <path id="Trazado_191963" data-name="Trazado 191963" d="M35,278.445a70.693,70.693,0,0,1,8.521-19.7.547.547,0,0,0-.46-.845H35.669a.548.548,0,0,1-.5-.777c1.327-2.9,6.21-13.279,11.27-20.632a.547.547,0,0,0-.453-.857h-6.93a.548.548,0,0,1-.485-.8A142.179,142.179,0,0,1,55.978,209.6c-1.12-1.281-2.283-2.556-3.491-3.81a.552.552,0,0,0-.794,0,138.954,138.954,0,0,0-20.9,29.036.548.548,0,0,0,.485.8h6.93a.547.547,0,0,1,.453.857c-5.06,7.353-9.942,17.736-11.269,20.632a.548.548,0,0,0,.5.777h7.387a.547.547,0,0,1,.46.845,70.7,70.7,0,0,0-8.521,19.7.548.548,0,0,0,.531.686h7.777A.548.548,0,0,1,35,278.445Z" transform="translate(-4606.201 -9270.664)" fill="#32cc65"/>
    <path id="Trazado_191966" data-name="Trazado 191966" d="M162.416,454.87c1.748,0,2.365-1.51.845-2.071-21.3-7.854-49.15-12.612-79.63-12.612-30.5,0-58.36,4.764-79.667,12.625-1.51.557-.9,2.057.839,2.057Z" transform="translate(-4598.339 -9413.846)" fill="#9eb7e5"/>
    <path id="Trazado_191923" data-name="Trazado 191923" d="M162.416,462.909a1.717,1.717,0,0,0,.845-3.2c-21.3-12.154-49.15-19.518-79.63-19.518-30.5,0-58.36,7.372-79.667,19.538a1.706,1.706,0,0,0,.839,3.184Z" transform="translate(-4511.124 -9421.885)" fill="#29b288"/>
    <path id="Trazado_191924" data-name="Trazado 191924" d="M16.924,459.724c19.787-11.3,45.231-18.458,73.187-19.423q-3.219-.111-6.48-.116c-30.5,0-58.36,7.372-79.667,19.538a1.706,1.706,0,0,0,.84,3.184h12.96A1.706,1.706,0,0,1,16.924,459.724Z" transform="translate(-4511.124 -9421.884)" fill="#21a378"/>
    <path id="Trazado_191964" data-name="Trazado 191964" d="M46.531,26.738a7.656,7.656,0,0,0-6.089-6.081c-2.494-.464-3.1.433-3.713-.315a6.1,6.1,0,0,0-5.582-2.176,1.284,1.284,0,0,1-1.4-.855A10.213,10.213,0,0,0,9.874,20.5l0,.007a.462.462,0,0,1-.555.386l-.079-.019h0A7.643,7.643,0,1,0,7.6,36H38.986A7.732,7.732,0,0,0,46.531,26.738Z" transform="translate(-4449.773 -9084.788)" fill="#a4d9f4"/>
    <path id="Trazado_192036" data-name="Trazado 192036" d="M46.531,26.738a7.656,7.656,0,0,0-6.089-6.081c-2.494-.464-3.1.433-3.713-.315a6.1,6.1,0,0,0-5.582-2.176,1.284,1.284,0,0,1-1.4-.855A10.213,10.213,0,0,0,9.874,20.5l0,.007a.462.462,0,0,1-.555.386l-.079-.019h0A7.643,7.643,0,1,0,7.6,36H38.986A7.732,7.732,0,0,0,46.531,26.738Z" transform="translate(-4563.773 -9110.37)" fill="#a4d9f4"/>
    <path id="Trazado_191943" data-name="Trazado 191943" d="M48.052,20.318a7.822,7.822,0,0,1,2.259.16h0l.082.02a.474.474,0,0,0,.57-.4l0-.008a10.559,10.559,0,0,1,6.653-9.626A10.205,10.205,0,0,0,46.366,20.505l0,.007a.74.74,0,0,1-.053.139A7.655,7.655,0,0,1,48.052,20.318Z" transform="translate(-4486.266 -9084.789)" fill="#77cff2"/>
    <path id="Trazado_191944" data-name="Trazado 191944" d="M4.364,65.79a7.864,7.864,0,0,1,4.842-6.677A7.643,7.643,0,1,0,7.6,74.236h4.543A7.832,7.832,0,0,1,4.364,65.79Z" transform="translate(-4449.773 -9123.027)" fill="#77cff2"/>
    <path id="Trazado_191943-2" data-name="Trazado 191943" d="M48.052,20.318a7.822,7.822,0,0,1,2.259.16h0l.082.02a.474.474,0,0,0,.57-.4l0-.008a10.559,10.559,0,0,1,6.653-9.626A10.205,10.205,0,0,0,46.366,20.505l0,.007a.74.74,0,0,1-.053.139A7.655,7.655,0,0,1,48.052,20.318Z" transform="translate(-4600.266 -9110.371)" fill="#77cff2"/>
    <path id="Trazado_191944-2" data-name="Trazado 191944" d="M4.364,65.79a7.864,7.864,0,0,1,4.842-6.677A7.643,7.643,0,1,0,7.6,74.236h4.543A7.832,7.832,0,0,1,4.364,65.79Z" transform="translate(-4563.773 -9148.609)" fill="#77cff2"/>
    <path id="Trazado_190606" data-name="Trazado 190606" d="M-5908-10043.164l4.358-4.357h285.354l4.358,4.357Z" transform="translate(1298 1088.546)" fill="#a0a9b6"/>
    <g id="Grupo_147718" data-name="Grupo 147718" transform="translate(-4414.203 -9105.029)">
      <g id="Grupo_147717" data-name="Grupo 147717" clip-path="url(#clip-path)">
        <path id="Trazado_191813" data-name="Trazado 191813" d="M27.991,8.075A7.041,7.041,0,0,1,31.715,9.8a5.981,5.981,0,0,1,1.778,4.5c.01,1.944-1.118,3.512-1.381,5.368a4.069,4.069,0,0,0,.3,2.436c.518.929,1.164.317,1.808.81.035.026.2,0,.238,0a4.766,4.766,0,0,1-1.3,1.413,5.211,5.211,0,0,1-2.636.777,5.793,5.793,0,0,1-2.861-1.129c-.947-.537-1.517-.789-1.775-1.915-.518-2.257-.721-4.567-1.275-6.812-.27-1.09-1.006-2.6-.781-3.724.232-1.155,1.323-1.589,2.288-1.984a8.121,8.121,0,0,0,1.341-.615c.314-.2.174-.736.531-.846" transform="translate(15.308 5.197)" fill="#110239"/>
        <path id="Trazado_191814" data-name="Trazado 191814" d="M8.282,25.469a6.3,6.3,0,0,1-.483-3.06,28.935,28.935,0,0,0,.92-3.072,2.486,2.486,0,0,0-.343-1.5c-.388-.518-.715.238-.86.772-.159.582-.651,2.521-1.175,2.889s-1.192-1.836-1.318-2.275a4.828,4.828,0,0,1-.207-2.641c.117-.56.036-.84-.567-.572a1.428,1.428,0,0,0-.726,1.42,11.76,11.76,0,0,0,.467,2.662,6.935,6.935,0,0,1-.467-2.662c.1-.669.781-2.73-.025-2.786-1.612-.113-1.284,4.6-.894,5.427a8.035,8.035,0,0,1-.293-2.682c0-.534.044-1.8-.759-1.275-1.187.768-.113,3.468.151,4.758A9.452,9.452,0,0,1,.9,18.44c-.3-1.1-1-.495-.889.684A13.013,13.013,0,0,0,.382,20.8a8.686,8.686,0,0,0,3.147,4.644c.593.529,1.122,2.125,1.811,2.13,1.331.013,2.128-1.32,2.942-2.1" transform="translate(0 9.424)" fill="#ff9d8a"/>
        <path id="Trazado_191815" data-name="Trazado 191815" d="M7.268,22.917l-4.654,2.4S9.453,40.333,14.291,41.086,30.566,25.764,30.566,25.764s3.622-8.8.915-8.683C29.391,17.17,15.307,33.146,14.465,33.6s-7.2-10.681-7.2-10.681" transform="translate(1.682 10.992)" fill="#edf6ff"/>
        <path id="Trazado_191816" data-name="Trazado 191816" d="M30.146,84.279a20.576,20.576,0,0,1-.5,5.591C29,91.657,24.41,94.392,24.41,94.392s4.155.8,5.749-.429,5.381-7.683,5.133-8.525-1.394-3.43-1.394-3.43Z" transform="translate(15.707 52.771)" fill="#ff9d8a"/>
        <path id="Trazado_191817" data-name="Trazado 191817" d="M15.087,82.86a20.622,20.622,0,0,1-.5,5.591c-.644,1.786-5.236,4.521-5.236,4.521s4.155.8,5.749-.429,5.381-7.683,5.133-8.525-1.394-3.43-1.394-3.43Z" transform="translate(6.017 51.858)" fill="#ff9d8a"/>
        <path id="Trazado_191818" data-name="Trazado 191818" d="M35.211,83.39S38.7,84.552,37.824,87.6a26.516,26.516,0,0,0-.725,6.97H36.082s-.217-4.357-.871-4.212-2.105,4.212-3.558,4.212h-8.2s-.871-.873,0-1.381,6.433-.289,7.064-1.523,4.7-8.278,4.7-8.278" transform="translate(14.84 53.661)" fill="#110239"/>
        <path id="Trazado_191819" data-name="Trazado 191819" d="M20.033,81.912s3.486,1.162,2.613,4.211a26.531,26.531,0,0,0-.725,6.972H20.9s-.217-4.357-.871-4.212-2.105,4.212-3.558,4.212h-8.2s-.871-.871,0-1.381,6.433-.289,7.064-1.525,4.7-8.277,4.7-8.277" transform="translate(5.073 52.71)" fill="#110239"/>
        <path id="Trazado_191820" data-name="Trazado 191820" d="M19.423,35.794s9.764,3.432,16.839,0c0,0,4.286,3.6,4.965,10.941a39.94,39.94,0,0,1-.289,8.255c-.49,4.086-1.68,14.795-.937,21.4,1.088,9.674,4.092,37.738,4.092,37.738l-6.73,1.047S31.18,81.3,30.449,77.118,27.364,55.95,27.364,55.95s-4.189,13.136-5.271,19.5c-.166.976-3.152,36.946-3.152,36.946l-6.523-.039s.363-39.955.363-37.853c0,.858,1.765-26.945,6.641-38.7" transform="translate(7.991 23.033)" fill="#110239"/>
        <path id="Trazado_191821" data-name="Trazado 191821" d="M18.967,55.439a30.2,30.2,0,0,1,5.373-10.658c-.307,1.823-.587,3.642-.8,5.481l-.025-.1S19.932,61.41,18.54,68.128c.156-7.248-.651-9.417.427-12.689" transform="translate(11.837 28.816)" fill="#00a7cc"/>
        <path id="Trazado_191822" data-name="Trazado 191822" d="M21.457,14.763c.675-.14,3.911-6.967,5.3-8.295.662,4.663,1.956,15.294,1.956,15.294C25.291,25.431,20,23.608,20,23.608a23.17,23.17,0,0,0,1.461-8.845" transform="translate(12.867 4.163)" fill="#e17c5e"/>
        <path id="Trazado_191823" data-name="Trazado 191823" d="M25.993,1.671S19.357,3.165,18.085,5.1s-1.267,6.973-1.969,8.3c-.427.807-.807,1.456-1.021,1.929-.186.414.284.657.863.861a1,1,0,0,1,.62.643c.393,1.218,1.489,4.326,2.585,4.758,1.369.539,8.13.332,10.162-5.558S30.245.409,25.993,1.671" transform="translate(9.687 1.004)" fill="#ff9d8a"/>
        <path id="Trazado_191824" data-name="Trazado 191824" d="M33.442,15.057a39.393,39.393,0,0,0-7.9,1.533S24.585,18.6,24,19.8c-1.565,3.21-4.474,9.4-4.738,11.545s-1.816,13.541-2.626,19.472c-.3,2.164-4.217,31.7-4.217,31.7a46.767,46.767,0,0,0,29.344,0s1.5-21.267-.562-31.047c-1.085-5.149-2.483-13.595-1.921-17.766.845-6.258-.536-14.009-5.836-18.647" transform="translate(7.99 9.69)" fill="#edf6ff"/>
        <path id="Trazado_191825" data-name="Trazado 191825" d="M22.015,19.971c2.733-.968,6.211-1.888,8.222-3.7-.161-.156-.945-1.065-1.114-1.213a27.959,27.959,0,0,0-7.94,1.213,34.873,34.873,0,0,1-2.054,3.167,9.414,9.414,0,0,0,2.017-1.132Z" transform="translate(12.309 9.69)" fill="#c0d3e8"/>
        <path id="Trazado_191826" data-name="Trazado 191826" d="M17.1,83.805c.233.035.467.069.708.1L22.738,15.9l-.352.105Z" transform="translate(11.005 10.232)" fill="#c6d1de"/>
        <path id="Trazado_191827" data-name="Trazado 191827" d="M35.274,70.632c.11-4.219.131-9.177-.13-13.631l-.01-.177c-.053-.848-.113-1.675-.187-2.475-.007-.081-.015-.159-.023-.24-.074-.791-.161-1.55-.261-2.273l-.025-.182c-.11-.768-.232-1.5-.373-2.168l-.008-.033c-.094-.449-.191-.929-.288-1.422-.018-.09-.036-.179-.054-.271-.1-.529-.207-1.075-.309-1.64v0c-.22-1.211-.436-2.492-.628-3.783q-.138-.92-.258-1.841c-.026-.209-.051-.414-.077-.621l0-.023c-.069-.564-.135-1.127-.187-1.693l0-.013c-.1-1.017-.171-2-.209-2.917,0-.082,0-.161-.007-.242q-.02-.545-.016-1.053c0-.087,0-.174,0-.26,0-.4.018-.791.043-1.152.021-.281.046-.549.081-.8a25.973,25.973,0,0,0,.177-5.083,22.786,22.786,0,0,0-.131-2.71c-.056.069-.11.141-.166.21a21.338,21.338,0,0,0-1.872-6c-3.248.843-8.567,1.193-6.811,5.78.414,1.08.856,2.146,1.3,3.21a37.444,37.444,0,0,1,2.812,11.541c.035.454.074.906.115,1.356.38,4.194,1.044,8.268.96,12.481-.2,9.93-.583,19.857-.927,29.782v0c.273-.044.542-.115.814-.166l0,.035c.733-.135,1.481-.314,2.227-.49.105-.025.212-.039.316-.066s.189-.041.283-.066l.015,0c1.114-.281,2.238-.6,3.376-1,0,0,.3-4.283.447-9.884Z" transform="translate(14.925 11.674)" fill="#c6d1de"/>
        <path id="Trazado_191828" data-name="Trazado 191828" d="M25.68,13.3c-.043.393-.516,1.078-.437,1.431.288,1.264,1.405-.983,1.627-1.249.848-1.021,1.831-.7,2.444.385a1.984,1.984,0,0,1-.3,2.447c.013.021.031.036.044.058.455.725,1.053,2.026,1.972,2.271a9.145,9.145,0,0,0,3.256-.008,2.227,2.227,0,0,1,1.081.15,4.033,4.033,0,0,0,.442-.347c.454-.434.8-1.057,1.517-1.007a11.911,11.911,0,0,0-1.167-2.322c-2.229-2.646,1.389-2.434-1.3-9.407C32.882.541,29.633.069,26.308,0a16.144,16.144,0,0,0-9.123,3.075C15.718,4.1,14.756,7.425,16.9,8.267c.2.079,1.464-.768,1.759-.848a3.24,3.24,0,0,1,2,.084c1.251.493,1.362,1.675,2.227,2.569.69.715,1.678,1.095,2.347,1.8a1.569,1.569,0,0,1,.45,1.428" transform="translate(10.07 0)" fill="#110239"/>
        <path id="Trazado_191829" data-name="Trazado 191829" d="M34.923,46.653a5.584,5.584,0,0,1-.717,2.822,3.314,3.314,0,0,0-.621,1.21A7.219,7.219,0,0,1,33,52.137a2.809,2.809,0,0,0-.426,1.486c.089.644.743.138,1.131-.261.422-.436.7-2.311,1.338-2.378s.158,2.192.056,2.641c-.242,1.058-1.017,1.308-1.66,2.054-.375.434-.414.748.248.805.493.043.887-.381,1.211-.7a5.85,5.85,0,0,0,1.532-2.424,6.831,6.831,0,0,1-1.193,2.408c-.309.409-1.933,1.92-1.333,2.462,1.2,1.091,3.676-3.264,3.734-4.176a8.054,8.054,0,0,1-1.047,2.5c-.256.472-.912,1.558.048,1.491,1.417-.1,1.785-2.994,2.181-4.258a9.433,9.433,0,0,1-.48,2.531c-.268,1.113.643.922,1.116-.168a13.2,13.2,0,0,0,.486-1.652,8.734,8.734,0,0,0-.508-5.616c-.265-.754.044-2.414-.557-2.753-1.165-.659-2.86.23-3.956.523" transform="translate(20.955 29.532)" fill="#ff9d8a"/>
        <path id="Trazado_191830" data-name="Trazado 191830" d="M40.4,65.236l6.122.325S46.6,47.47,44.973,41.325,31.755,18.632,29.112,17.375c-3.177-1.51-9.036,4.076-4.84,8.6C30.221,32.4,36.884,43.43,37.154,43.95S40.4,65.236,40.4,65.236" transform="translate(14.679 11.019)" fill="#edf6ff"/>
        <path id="Trazado_191831" data-name="Trazado 191831" d="M5.533,14.341V29.7c0,.771-.523,1.047-1.165,1.047H4.345c-.644,0-1.165-.276-1.165-1.047V14.341H2.613v16.07a1.727,1.727,0,0,0,1.726,1.727h.035A1.728,1.728,0,0,0,6.1,30.411V14.341Z" transform="translate(1.681 9.229)" fill="#edf6ff"/>
        <rect id="Rectángulo_40395" data-name="Rectángulo 40395" width="0.567" height="1.177" transform="translate(7.215 23.569)" fill="#b7d0d2"/>
        <rect id="Rectángulo_40396" data-name="Rectángulo 40396" width="0.567" height="1.177" transform="translate(4.294 23.569)" fill="#b7d0d2"/>
        <g id="Grupo_147716" data-name="Grupo 147716" transform="translate(4.861 23.57)" opacity="0.32" style="mix-blend-mode: screen;isolation: isolate">
          <g id="Grupo_147715" data-name="Grupo 147715">
            <g id="Grupo_147714" data-name="Grupo 147714" clip-path="url(#clip-path-2)">
              <path id="Trazado_191832" data-name="Trazado 191832" d="M4.146,30.743H4.123c-.644,0-1.165-.276-1.165-1.047V14.341H5.311V29.7c0,.771-.521,1.047-1.165,1.047" transform="translate(-2.958 -14.341)" fill="#fff"/>
            </g>
          </g>
        </g>
        <path id="Trazado_191833" data-name="Trazado 191833" d="M2.958,18.331v8.8c0,.771.521,1.047,1.165,1.047h.023c.644,0,1.165-.276,1.165-1.047v-8.8Z" transform="translate(1.903 11.796)" fill="#84e8ed"/>
        <path id="Trazado_191834" data-name="Trazado 191834" d="M6.235,15H2.8a.442.442,0,0,1-.442-.442v-.01A.443.443,0,0,1,2.8,14.1H6.235a.442.442,0,0,1,.442.442v.01A.441.441,0,0,1,6.235,15" transform="translate(1.519 9.075)" fill="#edf6ff"/>
      </g>
    </g>
    <rect id="Rectángulo_40399" data-name="Rectángulo 40399" width="61.203" height="148.232" transform="translate(-4414.203 -9105.028)" fill="none"/>
    <path id="Trazado_191835" data-name="Trazado 191835" d="M24.086,252.254V278.3a10.45,10.45,0,0,1-7.073,2.752h-.14a10.433,10.433,0,0,1-5.689-1.768,6.391,6.391,0,1,1-4.793-10.618c.1,0,.2,0,.3.009a10.46,10.46,0,0,1,9.934-8.594c.007-.065.016-.129.025-.193a8.738,8.738,0,0,1,2.892-5.509,9.108,9.108,0,0,1,4.541-2.127Zm0,0" transform="translate(-4498.973 -9239.522)" fill="#9f8a8a"/>
    <path id="Trazado_191836" data-name="Trazado 191836" d="M27.435,271.81,25.9,267.79a.067.067,0,0,0-.087-.039l-3.124,1.2,1.562,4.082a4.069,4.069,0,0,1,.009,2.787,3.5,3.5,0,0,0,.04,2.4l3.047,7.966a1.2,1.2,0,0,0,1.554.695l4.311-1.649a1.2,1.2,0,0,0,.7-1.554L30.858,275.7a3.5,3.5,0,0,0-1.57-1.813,4.068,4.068,0,0,1-1.853-2.082Zm0,0" transform="translate(-4518.47 -9252.836)" fill="#84e8ed"/>
    <path id="Trazado_191837" data-name="Trazado 191837" d="M49.676,385.6a7.87,7.87,0,0,0-14.586,0Zm0,0" transform="translate(-4529.128 -9349.888)" fill="#9f8a8a"/>
    <path id="Trazado_191838" data-name="Trazado 191838" d="M127.178,252.254V278.3a10.45,10.45,0,0,1-7.073,2.752h-.14c3.007-8.612,2.863-21.609,2.672-26.673a9.108,9.108,0,0,1,4.541-2.127Zm0,0" transform="translate(-4602.064 -9239.522)" fill="#83727a"/>
    <path id="Trazado_191839" data-name="Trazado 191839" d="M414.409,337.575A4.237,4.237,0,0,1,407,340.106a6.811,6.811,0,0,1-1.74.841,6.948,6.948,0,0,1-6.815-1.493V322.179a5.841,5.841,0,0,1,4.93,5.065c.006.042.012.085.016.127a7.027,7.027,0,0,1,1.638.255,6.969,6.969,0,0,1,4.949,5.444c.066,0,.135-.006.2-.006a4.239,4.239,0,0,1,4.23,4.509Zm0,0" transform="translate(-4841.373 -9299.612)" fill="#9f8a8a"/>
    <path id="Trazado_191840" data-name="Trazado 191840" d="M405.261,340.947a6.948,6.948,0,0,1-6.815-1.493V322.18a5.841,5.841,0,0,1,4.93,5.065c.005.042.012.085.016.127a7.034,7.034,0,0,1,1.638.255,6.918,6.918,0,0,1,2.7,1.469c-1.3,2.774-3.192,7.728-2.465,11.851Zm0,0" transform="translate(-4841.374 -9299.613)" fill="#83727a"/>
    <path id="Trazado_191841" data-name="Trazado 191841" d="M160.806,7.065H121.941l1.839-4.317.781-1.833A1.506,1.506,0,0,1,125.947,0H156.8a1.509,1.509,0,0,1,1.386.916l.781,1.833Zm0,0" transform="translate(-4603.763 -9022.751)" fill="#fdb659"/>
    <path id="Trazado_191842" data-name="Trazado 191842" d="M120.883,70.406v25.7a4.191,4.191,0,0,0,3.4,4.116,2.35,2.35,0,0,1,1.907,2.308v20.674a1.505,1.505,0,0,0,1.5,1.506h32.351v-54.3Zm0,0" transform="translate(-4602.854 -9083.254)" fill="#fd9e28"/>
    <path id="Trazado_191843" data-name="Trazado 191843" d="M371.969,70.414h3.846v54.3h-3.846Zm0,0" transform="translate(-4818.622 -9083.261)" fill="#fd8724"/>
    <path id="Trazado_191844" data-name="Trazado 191844" d="M169.461,87.719V97.8a3.439,3.439,0,0,0,3.263,3.465,3.387,3.387,0,0,0,3.51-3.384V96.185a3.048,3.048,0,0,1,6.1,0v8.385a3.439,3.439,0,0,0,3.263,3.465,3.387,3.387,0,0,0,3.51-3.384V87.719Zm0,0" transform="translate(-4644.599 -9098.131)" fill="#34e8b1"/>
    <path id="Trazado_191845" data-name="Trazado 191845" d="M297.333,313.54a11.848,11.848,0,1,1-11.848-11.848A11.848,11.848,0,0,1,297.333,313.54Zm0,0" transform="translate(-4734.121 -9282.007)" fill="#695a69"/>
    <path id="Trazado_191846" data-name="Trazado 191846" d="M328.6,350.925a5.729,5.729,0,1,1-5.729-5.729A5.729,5.729,0,0,1,328.6,350.925Zm0,0" transform="translate(-4771.505 -9319.392)" fill="#eae1dc"/>
    <path id="Trazado_191847" data-name="Trazado 191847" d="M160.806,23.86H121.941l1.839-4.317h35.188Zm0,0" transform="translate(-4603.763 -9039.545)" fill="#fd9e28"/>
    <path id="Trazado_191848" data-name="Trazado 191848" d="M138.123,40.332H95.83a1.505,1.505,0,0,1-1.49-1.292l-.774-5.415a1.505,1.505,0,0,1,1.49-1.718H138.9a1.5,1.5,0,0,1,1.49,1.718l-.774,5.415A1.505,1.505,0,0,1,138.123,40.332Zm0,0" transform="translate(-4579.365 -9050.169)" fill="#fede93"/>
    <path id="Trazado_191849" data-name="Trazado 191849" d="M386.309,33.621l-.774,5.415a1.506,1.506,0,0,1-1.49,1.293h-4.32a1.5,1.5,0,0,0,1.49-1.293l.775-5.415A1.506,1.506,0,0,0,380.5,31.9h4.319A1.5,1.5,0,0,1,386.309,33.621Zm0,0" transform="translate(-4825.288 -9050.166)" fill="#fdb659"/>
    <path id="Trazado_191850" data-name="Trazado 191850" d="M15.234,257.633l-3.871,1.48a1.44,1.44,0,1,1-1.029-2.69l3.871-1.48a1.44,1.44,0,0,1,1.029,2.69Zm0,0" transform="translate(-4507.059 -9241.752)" fill="#84e8ed"/>
    <path id="Trazado_191851" data-name="Trazado 191851" d="M28.447,380.044a1.087,1.087,0,0,1-1.007-1.5,8.955,8.955,0,0,1,15.27-2.257,1.087,1.087,0,0,1-1.691,1.365,6.782,6.782,0,0,0-11.565,1.709,1.087,1.087,0,0,1-1.007.678Zm0,0" transform="translate(-4522.486 -9343.248)" fill="#83727a"/>
    <path id="Trazado_191852" data-name="Trazado 191852" d="M465.629,262.2a1.092,1.092,0,0,1-1.093-1.086,1.08,1.08,0,0,1,1.08-1.087h.014a1.087,1.087,0,1,1,0,2.173Zm0,0" transform="translate(-4898.167 -9246.2)" fill="#695a69"/>
    <path id="Trazado_191853" data-name="Trazado 191853" d="M438.2,235.112a1.093,1.093,0,0,1-1.094-1.081,1.082,1.082,0,0,1,1.075-1.092h.019a1.087,1.087,0,0,1,.006,2.174Zm0,0" transform="translate(-4874.593 -9222.924)" fill="#695a69"/>
    <path id="Trazado_191854" data-name="Trazado 191854" d="M68.727,155.178a1.093,1.093,0,0,1-1.094-1.087A1.081,1.081,0,0,1,68.713,153h.014a1.087,1.087,0,0,1,0,2.174Zm0,0" transform="translate(-4557.093 -9154.233)" fill="#83727a"/>
  </g>
</svg>
