<svg xmlns="http://www.w3.org/2000/svg" width="820" height="731.387" viewBox="0 0 820 731.387">
  <g id="Grupo_148076" data-name="Grupo 148076" transform="translate(2537 7881.359)">
    <g id="Grupo_147051" data-name="Grupo 147051" transform="translate(-2537 -7881.359)">
      <g id="Grupo_147033" data-name="Grupo 147033" transform="translate(0 0.112)">
        <g id="Grupo_147032" data-name="Grupo 147032">
          <path id="Trazado_190695" data-name="Trazado 190695" d="M0,0H798.581V731.275H0Z" transform="translate(0 0)" fill="#fff"/>
          <text id="EMPRESA_PROPIETARIO_DIRECCIÓN_AGENCIA_CONTRATISTA_DESCRIPCIÓN_DE_LA_MUESTRA_TOMADA_NÚMERO_TELEFÓNICO_ADVERTENCIAS_SOBRE_PELIGROS_PARA_LA_SALUD" data-name="EMPRESA/PROPIETARIO
DIRECCIÓN
AGENCIA/CONTRATISTA
DESCRIPCIÓN DE LA MUESTRA TOMADA
NÚMERO TELEFÓNICO

ADVERTENCIAS SOBRE

PELIGROS PARA LA SALUD" transform="translate(28.23 37.795)" fill="#00223d" font-size="9" font-family="Roboto-Regular, Roboto"><tspan x="0" y="0">EMPRESA/PROPIETARIO</tspan><tspan x="0" y="10">DIRECCIÓN</tspan><tspan x="0" y="20">AGENCIA/CONTRATISTA</tspan><tspan x="0" y="30">DESCRIPCIÓN DE LA MUESTRA TOMADA</tspan><tspan x="0" y="40">NÚMERO TELEFÓNICO</tspan><tspan x="0" y="50"></tspan><tspan x="0" y="60">ADVERTENCIAS SOBRE</tspan><tspan x="0" y="70"></tspan><tspan x="0" y="80">PELIGROS PARA LA SALUD</tspan></text>
          <text id="UBICACIÓN_DE_LA_ESTACIÓN_" data-name="UBICACIÓN DE LA ESTACIÓN                                                     " transform="translate(22.497 331.905)" fill="#00223d" font-size="10" font-family="Roboto-Regular, Roboto"><tspan x="0" y="0" xml:space="preserve">UBICACIÓN DE LA ESTACIÓN                                                     </tspan></text>
          <text id="_FIRMA_DE_LOS_MUESTREADORES" data-name="  FIRMA DE LOS MUESTREADORES" transform="translate(511.911 331.904)" fill="#00223d" font-size="10" font-family="Roboto-Regular, Roboto"><tspan x="0" y="0" xml:space="preserve">  FIRMA DE LOS MUESTREADORES</tspan></text>
          <text id="ETIQUETA_No." data-name="ETIQUETA No." transform="translate(36.855 552.295) rotate(-90)" fill="#00223d" font-size="10" font-family="Roboto-Regular, Roboto"><tspan x="0" y="0">ETIQUETA No.</tspan></text>
          <text id="OBSERVACIONES" transform="translate(253.182 545.714) rotate(-90)" fill="#00223d" font-size="10" font-family="Roboto-Regular, Roboto"><tspan x="0" y="0">OBSERVACIONES</tspan></text>
          <text id="PRESERVACIÓN_SI_NO" data-name="PRESERVACIÓN
SI           NO" transform="translate(750.612 560.066) rotate(-90)" fill="#00223d" font-size="9" font-family="Roboto-Regular, Roboto"><tspan x="0" y="0">PRESERVACIÓN</tspan><tspan x="0" y="10" xml:space="preserve">SI           NO</tspan></text>
          <text id="MUESTRA_DE_LAB_No." data-name="MUESTRA
DE LAB No." transform="translate(35.855 665.958) rotate(-90)" fill="#00223d" font-size="9" font-family="Roboto-Regular, Roboto"><tspan x="0" y="0">MUESTRA</tspan><tspan x="0" y="10">DE LAB No.</tspan></text>
          <text id="PIEL_OJOS" data-name="PIEL

OJOS" transform="translate(236.522 135.456)" fill="#00223d" font-size="9" font-family="Roboto-Regular, Roboto"><tspan x="0" y="0">PIEL</tspan><tspan x="0" y="10"></tspan><tspan x="0" y="20">OJOS</tspan></text>
          <text id="POSIBLE_CARCINÓGENO_INFLAMABLE" data-name="POSIBLE CARCINÓGENO

INFLAMABLE" transform="translate(354.02 135.456)" fill="#00223d" font-size="9" font-family="Roboto-Regular, Roboto"><tspan x="0" y="0">POSIBLE CARCINÓGENO</tspan><tspan x="0" y="10"></tspan><tspan x="0" y="20">INFLAMABLE</tspan></text>
          <text id="Lado_posterior_de_la_etiqueta" data-name="Lado posterior de la etiqueta" transform="translate(335.709 695.971)" fill="#00223d" font-size="10" font-family="Roboto-Regular, Roboto"><tspan x="0" y="0">Lado posterior de la etiqueta</tspan></text>
          <text id="Lado_frontal_de_la_etiqueta" data-name="Lado frontal de la etiqueta" transform="translate(321.467 213.771)" fill="#00223d" font-size="10" font-family="Roboto-Regular, Roboto"><tspan x="0" y="0">Lado frontal de la etiqueta</tspan></text>
          <text id="OBSERVACIONES_SOBRE_PELIGROS_PARA_LA_SALUD" data-name="OBSERVACIONES SOBRE PELIGROS
PARA LA SALUD" transform="translate(545.527 135.456)" fill="#00223d" font-size="9" font-family="Roboto-Regular, Roboto"><tspan x="0" y="0">OBSERVACIONES SOBRE PELIGROS</tspan><tspan x="0" y="10">PARA LA SALUD</tspan></text>
          <g id="Grupo_17689" data-name="Grupo 17689" transform="translate(276.96 125.128)">
            <g id="Grupo_17688" data-name="Grupo 17688">
              <rect id="Rectángulo_5675" data-name="Rectángulo 5675" width="26.195" height="16.022" fill="none" stroke="#93aef9" stroke-miterlimit="10" stroke-width="1.5"/>
              <rect id="Rectángulo_5676" data-name="Rectángulo 5676" width="26.195" height="16.022" transform="translate(0 32.554)" fill="none" stroke="#93aef9" stroke-miterlimit="10" stroke-width="1.5"/>
            </g>
          </g>
          <rect id="Rectángulo_5677" data-name="Rectángulo 5677" width="765.773" height="168.618" transform="translate(16.531 20.6)" fill="none" stroke="#7088b4" stroke-miterlimit="10" stroke-width="1.5"/>
          <rect id="Rectángulo_5678" data-name="Rectángulo 5678" width="765.773" height="39.42" transform="translate(16.531 230.164)" fill="none" stroke="#7088b4" stroke-miterlimit="10" stroke-width="1.5"/>
          <rect id="Rectángulo_5679" data-name="Rectángulo 5679" width="765.773" height="39.42" transform="translate(16.531 309.514)" fill="none" stroke="#7088b4" stroke-miterlimit="10" stroke-width="1.5"/>
          <rect id="Rectángulo_5680" data-name="Rectángulo 5680" width="765.773" height="325.282" transform="translate(16.531 349.189)" fill="none" stroke="#7088b4" stroke-miterlimit="10" stroke-width="1.5"/>
          <rect id="Rectángulo_5681" data-name="Rectángulo 5681" width="194.05" height="325.282" transform="translate(69.176 349.189)" fill="none" stroke="#7088b4" stroke-miterlimit="10" stroke-width="1.5"/>
          <rect id="Rectángulo_5682" data-name="Rectángulo 5682" width="47.474" height="325.282" transform="translate(311.76 349.189)" fill="none" stroke="#7088b4" stroke-miterlimit="10" stroke-width="1.5"/>
          <rect id="Rectángulo_5683" data-name="Rectángulo 5683" width="47.474" height="325.282" transform="translate(406.708 349.189)" fill="none" stroke="#7088b4" stroke-miterlimit="10" stroke-width="1.5"/>
          <rect id="Rectángulo_5684" data-name="Rectángulo 5684" width="40.876" height="325.282" transform="translate(541.67 349.189)" fill="none" stroke="#7088b4" stroke-miterlimit="10" stroke-width="1.5"/>
          <rect id="Rectángulo_5685" data-name="Rectángulo 5685" width="40.876" height="325.282" transform="translate(623.422 349.189)" fill="none" stroke="#7088b4" stroke-miterlimit="10" stroke-width="1.5"/>
          <rect id="Rectángulo_5686" data-name="Rectángulo 5686" width="40.876" height="325.282" transform="translate(664.411 349.189)" fill="none" stroke="#7088b4" stroke-miterlimit="10" stroke-width="1.5"/>
          <rect id="Rectángulo_5687" data-name="Rectángulo 5687" width="52.645" height="114.955" transform="translate(16.404 559.516)" fill="none" stroke="#7088b4" stroke-miterlimit="10" stroke-width="1.5"/>
          <rect id="Rectángulo_5688" data-name="Rectángulo 5688" width="765.773" height="39.844" transform="translate(16.531 269.712)" fill="none" stroke="#7088b4" stroke-miterlimit="10" stroke-width="1.5"/>
          <rect id="Rectángulo_5689" data-name="Rectángulo 5689" width="76.043" height="39.42" transform="translate(706.261 270.136)" fill="none" stroke="#93aef9" stroke-miterlimit="10" stroke-width="1.5"/>
          <rect id="Rectángulo_5690" data-name="Rectángulo 5690" width="127.926" height="39.42" transform="translate(228.13 230.164)" fill="none" stroke="#93aef9" stroke-miterlimit="10" stroke-width="1.5"/>
          <rect id="Rectángulo_5691" data-name="Rectángulo 5691" width="95.372" height="39.42" transform="translate(504.836 230.164)" fill="none" stroke="#93aef9" stroke-miterlimit="10" stroke-width="1.5"/>
          <rect id="Rectángulo_5692" data-name="Rectángulo 5692" width="127.926" height="40.056" transform="translate(228.13 269.33)" fill="none" stroke="#93aef9" stroke-miterlimit="10" stroke-width="1.5"/>
          <rect id="Rectángulo_5693" data-name="Rectángulo 5693" width="95.372" height="40.056" transform="translate(504.836 269.33)" fill="none" stroke="#93aef9" stroke-miterlimit="10" stroke-width="1.5"/>
          <rect id="Rectángulo_5694" data-name="Rectángulo 5694" width="277.342" height="364.914" transform="translate(504.836 309.556)" fill="none" stroke="#7088b4" stroke-miterlimit="10" stroke-width="1.5"/>
          <g id="Grupo_17691" data-name="Grupo 17691" transform="translate(321.721 125.128)">
            <g id="Grupo_17690" data-name="Grupo 17690">
              <rect id="Rectángulo_5695" data-name="Rectángulo 5695" width="26.195" height="16.022" fill="none" stroke="#93aef9" stroke-miterlimit="10" stroke-width="1.5"/>
              <rect id="Rectángulo_5696" data-name="Rectángulo 5696" width="26.195" height="16.022" transform="translate(0 32.554)" fill="none" stroke="#93aef9" stroke-miterlimit="10" stroke-width="1.5"/>
            </g>
          </g>
          <line id="Línea_264" data-name="Línea 264" x2="217.702" transform="translate(550.36 164.803)" fill="none" stroke="#93aef9" stroke-miterlimit="10" stroke-width="1.5"/>
          <line id="Línea_265" data-name="Línea 265" x2="217.702" transform="translate(550.36 182.097)" fill="none" stroke="#93aef9" stroke-miterlimit="10" stroke-width="1.5"/>
          <line id="Línea_266" data-name="Línea 266" y2="23.398" transform="translate(772.563 544.977) rotate(180)" fill="none" stroke="#00223d" stroke-miterlimit="10" stroke-width="1"/>
          <line id="Línea_267" data-name="Línea 267" y2="23.398" transform="translate(772.563 486.991) rotate(180)" fill="none" stroke="#00223d" stroke-miterlimit="10" stroke-width="1"/>
          <text id="COMPUESTA" transform="translate(606.454 284.733)" fill="#00223d" font-size="10" font-family="Roboto-Regular, Roboto"><tspan x="0" y="0">COMPUESTA</tspan></text>
          <text id="PUNTUAL" transform="translate(710.811 285.147)" fill="#00223d" font-size="10" font-family="Roboto-Regular, Roboto"><tspan x="0" y="0">PUNTUAL</tspan></text>
        </g>
        <text id="CODIGO_DE_PROYECTO_" data-name="CODIGO DE PROYECTO           " transform="translate(24.377 245.948)" fill="#00223d" font-size="10" font-family="Roboto-Regular, Roboto"><tspan x="0" y="0" xml:space="preserve">CODIGO DE PROYECTO           </tspan></text>
        <text id="ESTACIÓN_No._" data-name="ESTACIÓN No. " transform="translate(232.058 245.948)" fill="#00223d" font-size="10" font-family="Roboto-Regular, Roboto"><tspan x="0" y="0">ESTACIÓN No. </tspan></text>
        <text id="DÍA_MES_AÑO_" data-name="DÍA/MES/AÑO    " transform="translate(360.862 245.948)" fill="#00223d" font-size="10" font-family="Roboto-Regular, Roboto"><tspan x="0" y="0" xml:space="preserve">DÍA/MES/AÑO    </tspan></text>
        <text id="HORA_" data-name="HORA     " transform="translate(511.911 245.948)" fill="#00223d" font-size="10" font-family="Roboto-Regular, Roboto"><tspan x="0" y="0" xml:space="preserve">HORA     </tspan></text>
        <text id="_DESIGNADO" data-name="  DESIGNADO" transform="translate(600.642 245.948)" fill="#00223d" font-size="10" font-family="Roboto-Regular, Roboto"><tspan x="0" y="0" xml:space="preserve">  DESIGNADO</tspan></text>
      </g>
      <g id="buscar" transform="translate(696.328)">
        <path id="Trazado_190700" data-name="Trazado 190700" d="M356.669,346.83h0a9.959,9.959,0,0,1-9.837,9.837h0a10.208,10.208,0,0,1-7.308-3.092l-31.48-34.291a2.717,2.717,0,0,1,0-3.935l7.308-7.308a2.717,2.717,0,0,1,3.935,0L353.577,339.8A9.58,9.58,0,0,1,356.669,346.83Z" transform="translate(-232.997 -232.996)" fill="#b06328"/>
        <rect id="Rectángulo_39972" data-name="Rectángulo 39972" width="7.87" height="11.805" transform="translate(81.439 75.876) rotate(135)" fill="#b0c4d8"/>
        <path id="Trazado_190701" data-name="Trazado 190701" d="M289.11,289.11l1.405,1.405,2.811-2.811-8.432-8.432-5.622,5.622,4.216,4.216h0A3.755,3.755,0,0,1,289.11,289.11Z" transform="translate(-211.815 -211.815)" fill="#99b4cd"/>
        <path id="Trazado_190702" data-name="Trazado 190702" d="M42.161,0A42.161,42.161,0,1,0,84.322,42.161,42.1,42.1,0,0,0,42.161,0Zm0,75.89A33.729,33.729,0,1,1,75.89,42.161,33.828,33.828,0,0,1,42.161,75.89Z" fill="#c4d7e5"/>
        <circle id="Elipse_5470" data-name="Elipse 5470" cx="33.729" cy="33.729" r="33.729" transform="translate(8.432 8.432)" fill="#70b7e5" opacity="0.41"/>
        <path id="Trazado_190703" data-name="Trazado 190703" d="M79.334,99.353A23.856,23.856,0,0,1,99.852,78.835h.281c4.778-.562,5.059-7.308.562-8.151a28.319,28.319,0,0,0-8.432-.281A25.043,25.043,0,0,0,71.183,91.483a21.142,21.142,0,0,0,.281,8.432c.843,4.778,7.589,4.216,8.151-.562C79.334,99.634,79.334,99.353,79.334,99.353Z" transform="translate(-53.756 -53.257)" fill="#fff" opacity="0.55"/>
        <path id="Trazado_190704" data-name="Trazado 190704" d="M37.72,71.449A33.828,33.828,0,0,1,71.448,37.721a35.217,35.217,0,0,1,22.486,8.432,33.344,33.344,0,0,0-25.3-11.243A33.828,33.828,0,0,0,34.909,68.639a34.346,34.346,0,0,0,11.243,25.3A35.218,35.218,0,0,1,37.72,71.449Z" transform="translate(-26.477 -26.478)" fill="#4c9cd6" opacity="0.32"/>
        <path id="Trazado_190705" data-name="Trazado 190705" d="M174.545,216.707h0a42.1,42.1,0,0,0,42.161-42.161h0a2.817,2.817,0,0,0-2.811,2.811,38.231,38.231,0,0,1-11.243,24.734,39.6,39.6,0,0,1-25.3,11.805A2.817,2.817,0,0,0,174.545,216.707Z" transform="translate(-132.384 -132.385)" fill="#b0c9db"/>
        <path id="Trazado_190706" data-name="Trazado 190706" d="M42.161,0h0A42.1,42.1,0,0,0,0,42.161H0A2.817,2.817,0,0,0,2.811,39.35a38.052,38.052,0,0,1,10.4-23.891A41.27,41.27,0,0,1,39.35,2.811,2.816,2.816,0,0,0,42.161,0Z" fill="#e2e7f0"/>
        <path id="Trazado_190707" data-name="Trazado 190707" d="M357.709,367.324l-1.686-1.405a9.822,9.822,0,0,1,2.249,6.184h0c0,3.654-4.5,5.059-7.027,2.53l-29.512-29.513a4.075,4.075,0,0,0-5.9,0l-2.811,2.811,30.637,32.885a11.282,11.282,0,0,0,6.184,3.373A9.843,9.843,0,0,0,360.8,373.227C360.8,370.978,359.4,369.011,357.709,367.324Z" transform="translate(-237.41 -260.797)" fill="#a35425"/>
        <path id="Trazado_190708" data-name="Trazado 190708" d="M351.264,330.279a1.69,1.69,0,0,1-1.124-.281l-7.027-7.027A1.391,1.391,0,0,1,345.08,321l7.027,7.027a1.359,1.359,0,0,1,0,1.967C352.107,330.279,351.544,330.279,351.264,330.279Z" transform="translate(-259.915 -243.146)" fill="#c97629"/>
      </g>
    </g>
  </g>
</svg>
