<svg id="buscar" xmlns="http://www.w3.org/2000/svg" width="123.672" height="123.672" viewBox="0 0 123.672 123.672">
  <path id="Trazado_190700" data-name="Trazado 190700" d="M356.669,346.83h0a9.959,9.959,0,0,1-9.837,9.837h0a10.208,10.208,0,0,1-7.308-3.092l-31.48-34.291a2.717,2.717,0,0,1,0-3.935l7.308-7.308a2.717,2.717,0,0,1,3.935,0L353.577,339.8A9.58,9.58,0,0,1,356.669,346.83Z" transform="translate(-232.997 -232.996)" fill="#b06328"/>
  <rect id="Rectángulo_39972" data-name="Rectángulo 39972" width="7.87" height="11.805" transform="translate(81.439 75.876) rotate(135)" fill="#b0c4d8"/>
  <path id="Trazado_190701" data-name="Trazado 190701" d="M289.11,289.11l1.405,1.405,2.811-2.811-8.432-8.432-5.622,5.622,4.216,4.216h0A3.755,3.755,0,0,1,289.11,289.11Z" transform="translate(-211.815 -211.815)" fill="#99b4cd"/>
  <path id="Trazado_190702" data-name="Trazado 190702" d="M42.161,0A42.161,42.161,0,1,0,84.322,42.161,42.1,42.1,0,0,0,42.161,0Zm0,75.89A33.729,33.729,0,1,1,75.89,42.161,33.828,33.828,0,0,1,42.161,75.89Z" fill="#c4d7e5"/>
  <circle id="Elipse_5470" data-name="Elipse 5470" cx="33.729" cy="33.729" r="33.729" transform="translate(8.432 8.432)" fill="#70b7e5" opacity="0.41"/>
  <path id="Trazado_190703" data-name="Trazado 190703" d="M79.334,99.353A23.856,23.856,0,0,1,99.852,78.835h.281c4.778-.562,5.059-7.308.562-8.151a28.319,28.319,0,0,0-8.432-.281A25.043,25.043,0,0,0,71.183,91.483a21.142,21.142,0,0,0,.281,8.432c.843,4.778,7.589,4.216,8.151-.562C79.334,99.634,79.334,99.353,79.334,99.353Z" transform="translate(-53.756 -53.257)" fill="#fff" opacity="0.55"/>
  <path id="Trazado_190704" data-name="Trazado 190704" d="M37.72,71.449A33.828,33.828,0,0,1,71.448,37.721a35.217,35.217,0,0,1,22.486,8.432,33.344,33.344,0,0,0-25.3-11.243A33.828,33.828,0,0,0,34.909,68.639a34.346,34.346,0,0,0,11.243,25.3A35.218,35.218,0,0,1,37.72,71.449Z" transform="translate(-26.477 -26.478)" fill="#4c9cd6" opacity="0.32"/>
  <path id="Trazado_190705" data-name="Trazado 190705" d="M174.545,216.707h0a42.1,42.1,0,0,0,42.161-42.161h0a2.817,2.817,0,0,0-2.811,2.811,38.231,38.231,0,0,1-11.243,24.734,39.6,39.6,0,0,1-25.3,11.805A2.817,2.817,0,0,0,174.545,216.707Z" transform="translate(-132.384 -132.385)" fill="#b0c9db"/>
  <path id="Trazado_190706" data-name="Trazado 190706" d="M42.161,0h0A42.1,42.1,0,0,0,0,42.161H0A2.817,2.817,0,0,0,2.811,39.35a38.052,38.052,0,0,1,10.4-23.891A41.27,41.27,0,0,1,39.35,2.811,2.816,2.816,0,0,0,42.161,0Z" fill="#e2e7f0"/>
  <path id="Trazado_190707" data-name="Trazado 190707" d="M357.709,367.324l-1.686-1.405a9.822,9.822,0,0,1,2.249,6.184h0c0,3.654-4.5,5.059-7.027,2.53l-29.512-29.513a4.075,4.075,0,0,0-5.9,0l-2.811,2.811,30.637,32.885a11.282,11.282,0,0,0,6.184,3.373A9.843,9.843,0,0,0,360.8,373.227C360.8,370.978,359.4,369.011,357.709,367.324Z" transform="translate(-237.41 -260.797)" fill="#a35425"/>
  <path id="Trazado_190708" data-name="Trazado 190708" d="M351.264,330.279a1.69,1.69,0,0,1-1.124-.281l-7.027-7.027A1.391,1.391,0,0,1,345.08,321l7.027,7.027a1.359,1.359,0,0,1,0,1.967C352.107,330.279,351.544,330.279,351.264,330.279Z" transform="translate(-259.915 -243.146)" fill="#c97629"/>
</svg>
