<svg xmlns="http://www.w3.org/2000/svg" xmlns:xlink="http://www.w3.org/1999/xlink" width="102" height="102" viewBox="0 0 102 102">
  <defs>
    <radialGradient id="radial-gradient" cx="0.152" cy="0.188" r="0.5" gradientUnits="objectBoundingBox">
      <stop offset="0" stop-color="#84e8ed"/>
      <stop offset="1" stop-color="#9eb7e5"/>
    </radialGradient>
    <clipPath id="clip-path">
      <circle id="Elipse_5481" data-name="Elipse 5481" cx="51" cy="51" r="51" transform="translate(749 7399)" fill="#fff"/>
    </clipPath>
  </defs>
  <g id="Grupo_148080" data-name="Grupo 148080" transform="translate(-749 -7399)">
    <circle id="Elipse_1147" data-name="Elipse 1147" cx="51" cy="51" r="51" transform="translate(749 7399)" fill="#fff"/>
    <circle id="Elipse_5483" data-name="Elipse 5483" cx="41" cy="41" r="41" transform="translate(759 7409)" fill="url(#radial-gradient)"/>
    <g id="Enmascarar_grupo_63" data-name="Enmascarar grupo 63" clip-path="url(#clip-path)">
      <g id="caliente" transform="matrix(0.819, 0.574, -0.574, 0.819, 786.253, 7380.076)">
        <path id="Trazado_190962" data-name="Trazado 190962" d="M16,36.534a5,5,0,0,0,8.171,2.655.6.6,0,0,1,.949.689,5,5,0,0,0,5.05,6.95.6.6,0,0,1,.362,1.116,5,5,0,0,0,0,8.591.6.6,0,0,1-.362,1.116,5,5,0,0,0-5.05,6.95.6.6,0,0,1-.949.689A5,5,0,0,0,16,67.945a.6.6,0,0,1-1.173,0,5,5,0,0,0-8.171-2.655.6.6,0,0,1-.949-.689,5,5,0,0,0-5.05-6.95.6.6,0,0,1-.362-1.116,5,5,0,0,0,0-8.591.6.6,0,0,1,.362-1.116,5,5,0,0,0,5.05-6.95.6.6,0,0,1,.949-.689,5,5,0,0,0,8.171-2.655A.6.6,0,0,1,16,36.534Zm0,0" transform="translate(4.143 -5.855)" fill="#fd8f31"/>
        <path id="Trazado_190963" data-name="Trazado 190963" d="M84.495,56.535a5,5,0,0,1,0-8.591.6.6,0,0,0-.362-1.115,5,5,0,0,1-5.05-6.951.6.6,0,0,0-.949-.689,5,5,0,0,1-8.171-2.655.6.6,0,0,0-1.173,0,4.931,4.931,0,0,1-2.157,3.1,16.167,16.167,0,0,1,0,25.223,4.93,4.93,0,0,1,2.157,3.095.6.6,0,0,0,1.173,0,5,5,0,0,1,8.171-2.655.6.6,0,0,0,.949-.689,5,5,0,0,1,5.05-6.95.6.6,0,0,0,.362-1.116Zm0,0" transform="translate(-49.819 -5.855)" fill="#ff7f1f"/>
        <path id="Trazado_190964" data-name="Trazado 190964" d="M59.451,92.885a6.631,6.631,0,1,1-6.632-6.631A6.631,6.631,0,0,1,59.451,92.885Zm0,0" transform="translate(-33.262 -46.5)" fill="#fccf3f"/>
        <path id="Trazado_190965" data-name="Trazado 190965" d="M196.092,59.967V11.82a11.82,11.82,0,0,0-23.641,0V59.967a20.565,20.565,0,1,0,23.641,0Zm0,0" transform="translate(-132.578)" fill="#d8d8d8"/>
        <path id="Trazado_190966" data-name="Trazado 190966" d="M211.367,119.834a14.2,14.2,0,0,1-4.962-27.51v-51.3a4.962,4.962,0,0,1,9.924,0v51.3a14.2,14.2,0,0,1-4.962,27.51Zm0,0" transform="translate(-159.673 -29.208)" fill="#f3e8d7"/>
        <path id="Trazado_190967" data-name="Trazado 190967" d="M206.4,109.871v42.223a14.2,14.2,0,1,0,9.924,0V109.871Zm0,0" transform="translate(-159.672 -88.978)" fill="#fc4e51"/>
        <g id="Grupo_147094" data-name="Grupo 147094" transform="translate(69.893 7.516)">
          <path id="Trazado_190968" data-name="Trazado 190968" d="M377.547,167.7h-8.524a1.469,1.469,0,1,1,0-2.939h8.524a1.469,1.469,0,1,1,0,2.939Zm0,0" transform="translate(-367.554 -140.95)" fill="#0d6e9a"/>
          <path id="Trazado_190969" data-name="Trazado 190969" d="M372.894,105.083h-3.87a1.469,1.469,0,1,1,0-2.939h3.87a1.469,1.469,0,1,1,0,2.939Zm0,0" transform="translate(-367.555 -90.237)" fill="#0d6e9a"/>
          <path id="Trazado_190970" data-name="Trazado 190970" d="M374.265,42.462h-5.241a1.469,1.469,0,1,1,0-2.939h5.241a1.469,1.469,0,1,1,0,2.939Zm0,0" transform="translate(-367.555 -39.523)" fill="#0d6e9a"/>
          <path id="Trazado_190971" data-name="Trazado 190971" d="M374.265,292.946h-5.241a1.469,1.469,0,1,1,0-2.939h5.241a1.469,1.469,0,1,1,0,2.939Zm0,0" transform="translate(-367.555 -242.376)" fill="#0d6e9a"/>
          <path id="Trazado_190972" data-name="Trazado 190972" d="M372.894,230.325h-3.87a1.469,1.469,0,1,1,0-2.939h3.87a1.469,1.469,0,0,1,0,2.939Zm0,0" transform="translate(-367.555 -191.663)" fill="#0d6e9a"/>
        </g>
        <path id="Trazado_190973" data-name="Trazado 190973" d="M250.61,152.094V109.871h-9.924v42.223s6.86,3.183,6.86,13.307a14.221,14.221,0,0,1-8.051,12.8,14.2,14.2,0,1,0,11.115-26.107Zm0,0" transform="translate(-193.954 -88.978)" fill="#e5394b"/>
      </g>
    </g>
  </g>
</svg>
