<svg xmlns="http://www.w3.org/2000/svg" width="63" height="68.324" viewBox="0 0 63 68.324">
  <g id="Grupo_148089" data-name="Grupo 148089" transform="translate(-285 -4007)">
    <g id="Grupo_147523" data-name="Grupo 147523" transform="translate(0 118)">
      <g id="Grupo_147515" data-name="Grupo 147515" transform="translate(0 -24)">
        <circle id="Elipse_5509" data-name="Elipse 5509" cx="31.5" cy="31.5" r="31.5" transform="translate(285 3918.324)" fill="#e7edf9"/>
        <g id="montana" transform="translate(285 3913)">
          <path id="Trazado_191322" data-name="Trazado 191322" d="M63,31.5a31.751,31.751,0,0,1-.4,5.013A47.1,47.1,0,0,1,.946,36.1l-.694-.609q-.114-.879-.175-1.771Q0,32.622,0,31.5A31.5,31.5,0,0,1,58.856,15.873,31.39,31.39,0,0,1,63,31.19c0,.1,0,.207,0,.31Z" transform="translate(0)" fill="#9eb7e5"/>
          <g id="Grupo_147467" data-name="Grupo 147467" transform="translate(0 15.873)">
            <path id="Trazado_191323" data-name="Trazado 191323" d="M63,144.627a31.747,31.747,0,0,1-.4,5.012,47.1,47.1,0,0,1-61.658-.41l-.694-.609A31.681,31.681,0,0,1,0,144.627,31.351,31.351,0,0,1,4.144,129a31.628,31.628,0,0,0,13.331,12.584,31.258,31.258,0,0,0,6.571,2.4A31.51,31.51,0,0,0,58.856,129,31.351,31.351,0,0,1,63,144.627Z" transform="translate(0 -129)" fill="#9eb7e5"/>
          </g>
          <g id="Grupo_147476" data-name="Grupo 147476" transform="translate(0.252 5.404)">
            <path id="Trazado_191324" data-name="Trazado 191324" d="M71.376,330.8a31.344,31.344,0,0,1-2.007,4.993l-.107.066a53.336,53.336,0,0,1-55.9.085l-.247-.151A31.189,31.189,0,0,1,11.11,330.8Z" transform="translate(-9.995 -295.5)" fill="#9eb7e5"/>
            <path id="Trazado_191325" data-name="Trazado 191325" d="M286.133,330.8a31.344,31.344,0,0,1-2.007,4.993l-.107.066A53.294,53.294,0,0,1,256,343.811V330.8Z" transform="translate(-224.752 -295.5)" fill="#9eb7e5"/>
            <path id="Trazado_191326" data-name="Trazado 191326" d="M83.681,371.38a31.578,31.578,0,0,1-4.857,7.035L65.248,384.43a23.786,23.786,0,0,1-19.206.03l-13.757-6.045a31.515,31.515,0,0,1-4.565-6.474q-.148-.279-.29-.561Z" transform="translate(-24.307 -331.087)" fill="#9eb7e5"/>
            <path id="Trazado_191327" data-name="Trazado 191327" d="M284.819,371.38a31.577,31.577,0,0,1-4.857,7.035l-13.576,6.016a23.759,23.759,0,0,1-9.6,2.04V371.38Z" transform="translate(-225.445 -331.087)" fill="#9eb7e5"/>
            <g id="Grupo_147468" data-name="Grupo 147468" transform="translate(7.978 47.328)">
              <path id="Trazado_191328" data-name="Trazado 191328" d="M113.429,428.55a31.485,31.485,0,0,1-46.539,0Z" transform="translate(-66.89 -428.55)" fill="#9eb7e5"/>
              <path id="Trazado_191329" data-name="Trazado 191329" d="M279.962,428.55a31.423,31.423,0,0,1-23.172,10.268V428.55Z" transform="translate(-233.423 -428.55)" fill="#9eb7e5"/>
            </g>
            <g id="Grupo_147469" data-name="Grupo 147469" transform="translate(0.431 20.329)">
              <path id="Trazado_191330" data-name="Trazado 191330" d="M67.185,224.252l-23.72,2.041a82.627,82.627,0,0,1-14.2,0L5.55,224.251a63.613,63.613,0,0,0,16.792-9.593q.838-.653,1.6-1.281c2.612-2.155,4.508.913,5.5-.108a2.8,2.8,0,0,1,2-.843h9.844a2.8,2.8,0,0,1,2,.843c.935.959,2.664-2.269,5.035-.282.642.539,1.333,1.1,2.066,1.671a63.588,63.588,0,0,0,16.793,9.594Z" transform="translate(-5.55 -211.934)" fill="#9eb7e5"/>
              <path id="Trazado_191331" data-name="Trazado 191331" d="M171.473,224.079l-23.72,2.041a82.627,82.627,0,0,1-14.2,0l-9.086-.783a43.608,43.608,0,0,0,8.73-8.451,30.4,30.4,0,0,0,2.414-3.683c1.162-2.1,1.829.79,2.232-.231.214-.539.507-.843.812-.843h6.918a2.8,2.8,0,0,1,2,.843c.935.959,2.664-2.146,5.035-.159.642.539,1.333,1.1,2.066,1.671a63.59,63.59,0,0,0,16.793,9.594Z" transform="translate(-109.837 -211.761)" fill="#9eb7e5"/>
              <path id="Trazado_191332" data-name="Trazado 191332" d="M286.818,221.448,263.1,223.49q-3.542.3-7.1.305V209.13h4.922a2.8,2.8,0,0,1,2,.843c.935.959,2.664-1.777,5.035.21.642.539,1.333,1.1,2.066,1.671a63.589,63.589,0,0,0,16.793,9.594Z" transform="translate(-225.183 -209.13)" fill="#9eb7e5"/>
            </g>
            <g id="Grupo_147470" data-name="Grupo 147470" transform="translate(18.82 14.477)">
              <path id="Trazado_191333" data-name="Trazado 191333" d="M164.428,162.067l-.02,0C164.408,162.089,164.417,162.082,164.428,162.067Z" transform="translate(-163.25 -162.006)" fill="#9eb7e5"/>
              <path id="Trazado_191334" data-name="Trazado 191334" d="M164.571,161.634l.053-.009v-.04C164.624,161.548,164.593,161.605,164.571,161.634Z" transform="translate(-163.393 -161.573)" fill="#9eb7e5"/>
              <path id="Trazado_191335" data-name="Trazado 191335" d="M179.387,178.613a7.487,7.487,0,0,1-.314.8,1.8,1.8,0,0,1-1.452,1.141c-1.171.015-1.828-1.489-2.847-.4-.914.977-1.458,2.243-3,2.38a2.411,2.411,0,0,1-1.769-.57c-.577-.5-.9-1.255-1.52-1.694a1.914,1.914,0,0,0-1.058-.406c-1.405-.028-2.118,2.193-3.525,2.051-.987-.1-1.5-1.075-2.206-1.731a2.026,2.026,0,0,0-1.1-.578c-1.579-.221-2.306,1.527-3.974.915A4.491,4.491,0,0,1,155,179c1.055-.87,1.992-1.689,2.8-2.425,1.2-1.09,2.11-2,2.7-2.6a2.8,2.8,0,0,1,2-.843h9.844a2.8,2.8,0,0,1,2,.843c.634.65,1.632,1.637,2.946,2.823C177.924,177.362,178.623,177.972,179.387,178.613Z" transform="translate(-155 -171.708)" fill="#9eb7e5"/>
              <path id="Trazado_191336" data-name="Trazado 191336" d="M227.11,178.613a7.479,7.479,0,0,1-.314.8,1.8,1.8,0,0,1-1.452,1.141c-1.171.015-1.828-1.489-2.847-.4-.914.977-1.458,2.243-3,2.38a2.411,2.411,0,0,1-1.769-.57c-.577-.5-.9-1.255-1.52-1.694a1.914,1.914,0,0,0-1.058-.406c-1.405-.028-2.118,2.193-3.525,2.051-.987-.1-1.5-1.075-2.206-1.731q.358-.58.692-1.181a38.468,38.468,0,0,0,2.232-5.03c.214-.539.507-.843.812-.843h6.918a2.8,2.8,0,0,1,2,.843c.634.65,1.632,1.637,2.946,2.823C225.647,177.362,226.346,177.972,227.11,178.613Z" transform="translate(-202.724 -171.708)" fill="#9eb7e5"/>
              <path id="Trazado_191337" data-name="Trazado 191337" d="M267.959,178.613a7.5,7.5,0,0,1-.314.8,1.8,1.8,0,0,1-1.452,1.141c-1.171.015-1.828-1.489-2.847-.4-.914.977-1.458,2.243-3,2.38a2.411,2.411,0,0,1-1.769-.57c-.577-.5-.9-1.255-1.52-1.694a1.914,1.914,0,0,0-1.058-.406V173.13h4.922a2.8,2.8,0,0,1,2,.843c.634.65,1.632,1.637,2.946,2.823C266.5,177.362,267.195,177.972,267.959,178.613Z" transform="translate(-243.572 -171.708)" fill="#9eb7e5"/>
            </g>
            <path id="Trazado_191338" data-name="Trazado 191338" d="M197.248,176.8a1.472,1.472,0,0,1-1.077.481,3.722,3.722,0,0,1-1.74-.6,3.7,3.7,0,0,0-1.739-.6c-.972.006-1.8.765-2.773.837a6.121,6.121,0,0,1-2.541-.76,2.52,2.52,0,0,0-1.723-.178c-.652.212-1.117.806-1.757,1.052a1.457,1.457,0,0,1-.619.106c-.817-.052-1.286-.89-2.131-.886-.9,0-1.379,1.149-2.3,1.088a1.654,1.654,0,0,1-1.1-.755c1.2-1.09,2.11-2,2.7-2.6a2.8,2.8,0,0,1,2-.843H192.3a2.8,2.8,0,0,1,2,.843C194.936,174.623,195.934,175.609,197.248,176.8Z" transform="translate(-156.131 -157.231)" fill="#9eb7e5"/>
            <path id="Trazado_191339" data-name="Trazado 191339" d="M236.658,176.8a1.472,1.472,0,0,1-1.077.481,3.722,3.722,0,0,1-1.74-.6,3.7,3.7,0,0,0-1.739-.6c-.972.006-1.8.765-2.773.837a6.12,6.12,0,0,1-2.541-.76,2.52,2.52,0,0,0-1.723-.178c-.652.212-1.117.806-1.757,1.052a1.457,1.457,0,0,1-.619.106c.607-1.324,1.011-2.452,1.291-3.159.214-.539.507-.843.812-.843h6.918a2.8,2.8,0,0,1,2,.843C234.346,174.623,235.344,175.609,236.658,176.8Z" transform="translate(-195.541 -157.231)" fill="#9eb7e5"/>
            <path id="Trazado_191340" data-name="Trazado 191340" d="M265.87,176.8a1.472,1.472,0,0,1-1.077.481,3.722,3.722,0,0,1-1.74-.6,3.7,3.7,0,0,0-1.739-.6c-.972.006-1.8.765-2.773.837a6.12,6.12,0,0,1-2.541-.76V173.13h4.922a2.8,2.8,0,0,1,2,.843C263.557,174.623,264.555,175.609,265.87,176.8Z" transform="translate(-224.752 -157.231)" fill="#9eb7e5"/>
            <g id="Grupo_147471" data-name="Grupo 147471" transform="translate(6.544 13.775)">
              <path id="Trazado_191341" data-name="Trazado 191341" d="M55.229,159.414c0-.007,0-.013,0-.02a2.211,2.211,0,0,1,3.032-2.053,2.869,2.869,0,0,1,5.323.855,1.613,1.613,0,0,1,1.8,1.218Z" transform="translate(-55.229 -155.868)" fill="#9eb7e5"/>
              <path id="Trazado_191342" data-name="Trazado 191342" d="M72.766,170.155s0-.008,0-.011a1.271,1.271,0,0,1,1.744-1.181,1.65,1.65,0,0,1,3.061.492.928.928,0,0,1,1.035.7H72.766Z" transform="translate(-70.608 -166.609)" fill="#9eb7e5"/>
            </g>
            <g id="Grupo_147472" data-name="Grupo 147472" transform="translate(40.69)">
              <path id="Trazado_191343" data-name="Trazado 191343" d="M332.738,46.441s0-.009,0-.014a1.573,1.573,0,0,1,2.157-1.461,2.041,2.041,0,0,1,3.787.608,1.147,1.147,0,0,1,1.28.867Z" transform="translate(-332.738 -43.918)" fill="#9eb7e5"/>
              <path id="Trazado_191344" data-name="Trazado 191344" d="M345.213,54.081s0-.005,0-.008a.9.9,0,0,1,1.24-.84,1.173,1.173,0,0,1,2.178.35.659.659,0,0,1,.736.5Z" transform="translate(-343.678 -51.559)" fill="#9eb7e5"/>
            </g>
            <g id="Grupo_147473" data-name="Grupo 147473" transform="translate(46.212 14.091)">
              <path id="Trazado_191345" data-name="Trazado 191345" d="M388.945,162.394c0-.008,0-.015,0-.022a2.468,2.468,0,0,0-3.385-2.292,3.2,3.2,0,0,0-5.942.954,1.8,1.8,0,0,0-2.009,1.36Z" transform="translate(-377.611 -158.436)" fill="#9eb7e5"/>
              <path id="Trazado_191346" data-name="Trazado 191346" d="M403.7,174.382s0-.009,0-.013a1.419,1.419,0,0,0-1.946-1.318,1.841,1.841,0,0,0-3.417.549,1.051,1.051,0,0,0-.148-.011,1.036,1.036,0,0,0-1.007.793Z" transform="translate(-394.776 -170.424)" fill="#9eb7e5"/>
            </g>
            <g id="Grupo_147474" data-name="Grupo 147474" transform="translate(33.322 7.833)">
              <path id="Trazado_191347" data-name="Trazado 191347" d="M272.858,111.123c0-.007,0-.013,0-.02a2.211,2.211,0,0,1,3.032-2.053,2.869,2.869,0,0,1,5.323.855,1.613,1.613,0,0,1,1.8,1.218Z" transform="translate(-272.858 -107.577)" fill="#9eb7e5"/>
              <path id="Trazado_191348" data-name="Trazado 191348" d="M290.4,121.864s0-.008,0-.011a1.271,1.271,0,0,1,1.744-1.181,1.65,1.65,0,0,1,3.061.492.946.946,0,0,1,.133-.01.928.928,0,0,1,.9.71H290.4Z" transform="translate(-288.237 -118.318)" fill="#9eb7e5"/>
            </g>
            <g id="Grupo_147475" data-name="Grupo 147475" transform="translate(12.931 1.283)">
              <path id="Trazado_191349" data-name="Trazado 191349" d="M121.684,59.426c0-.01,0-.019,0-.029a3.167,3.167,0,0,0-4.342-2.94,4.108,4.108,0,0,0-7.623,1.224,2.309,2.309,0,0,0-2.577,1.745h14.542Z" transform="translate(-107.142 -54.348)" fill="#9eb7e5"/>
              <path id="Trazado_191350" data-name="Trazado 191350" d="M140.616,74.808c0-.006,0-.011,0-.016a1.821,1.821,0,0,0-2.5-1.691,2.362,2.362,0,0,0-4.383.7,1.349,1.349,0,0,0-.19-.014,1.329,1.329,0,0,0-1.292,1.017Z" transform="translate(-129.164 -69.73)" fill="#9eb7e5"/>
            </g>
            <path id="Trazado_191351" data-name="Trazado 191351" d="M64.4,285.384c-.082.517-.177,1.031-.285,1.539q-.151.716-.336,1.42-.162.622-.349,1.233H3.166q-.188-.611-.351-1.233-.183-.705-.335-1.421-.266-1.261-.431-2.557a2.491,2.491,0,0,1,1.622-.447,2.49,2.49,0,0,1,2.013,1.438,1.578,1.578,0,0,1,1.394-.124,1.244,1.244,0,0,1,.819.93,1.75,1.75,0,0,1,2.13,0,1.407,1.407,0,0,1,1.285-1.275,1.273,1.273,0,0,1,1.306,1.1,1.22,1.22,0,0,1,1.708.226,2.376,2.376,0,0,1,2.14-1.106,2.24,2.24,0,0,1,1.891,1.367,1.67,1.67,0,0,1,2.315.033,1.773,1.773,0,0,1,2.057-.449,1.52,1.52,0,0,1,1.15-1.041,1.361,1.361,0,0,1,1.322.626c.213-.4.616-.4,1.053-.292a1.058,1.058,0,0,1,.788.978,1.213,1.213,0,0,1,1.65,0,.837.837,0,0,1,.767-.829.947.947,0,0,1,1.011.666,1.209,1.209,0,0,1,.908-1.041,1.226,1.226,0,0,1,1.28.549.994.994,0,0,1,.64-.37,1.879,1.879,0,0,1,.714,0,1.272,1.272,0,0,1,.968.945,3.27,3.27,0,0,1,2.846.13,1.442,1.442,0,0,1,1.313-1.094,1.61,1.61,0,0,1,1.534.972,1.444,1.444,0,0,1,1.747-.471,1.354,1.354,0,0,1,1.075-1.528,1.455,1.455,0,0,1,1.518,1.224,1.823,1.823,0,0,1,2.351.324,1.476,1.476,0,0,1,1.452-.931,1.594,1.594,0,0,1,1.4,1.122,1.909,1.909,0,0,1,2.308.518,1.681,1.681,0,0,1,2.3-.749,1.922,1.922,0,0,1,1.245-1.282,1.655,1.655,0,0,1,1.606.383,1.672,1.672,0,0,1,1.927-1.048,1.575,1.575,0,0,1,1.207,1.746,1.465,1.465,0,0,1,2.153.238A1.805,1.805,0,0,1,64.4,285.384Z" transform="translate(-2.05 -254.277)" fill="#9eb7e5"/>
          </g>
          <path id="Trazado_191352" data-name="Trazado 191352" d="M287.1,285.384c-.082.517-.177,1.031-.285,1.539q-.151.716-.336,1.42-.162.622-.349,1.233H256V285.3a1.879,1.879,0,0,1,.714,0,1.272,1.272,0,0,1,.968.945,3.27,3.27,0,0,1,2.846.13,1.442,1.442,0,0,1,1.313-1.094,1.61,1.61,0,0,1,1.534.972,1.444,1.444,0,0,1,1.747-.471,1.354,1.354,0,0,1,1.075-1.528,1.455,1.455,0,0,1,1.518,1.224,1.823,1.823,0,0,1,2.351.324,1.476,1.476,0,0,1,1.452-.931,1.594,1.594,0,0,1,1.4,1.122,1.909,1.909,0,0,1,2.308.518,1.681,1.681,0,0,1,2.3-.749,1.922,1.922,0,0,1,1.245-1.282,2.689,2.689,0,0,0,3.533-.666,1.575,1.575,0,0,1,1.207,1.746,1.465,1.465,0,0,1,2.153.238A1.805,1.805,0,0,1,287.1,285.384Z" transform="translate(-224.5 -248.873)" fill="#9eb7e5"/>
        </g>
        <g id="quimica_1_" data-name="quimica (1)" transform="translate(289.348 3913)">
          <path id="Trazado_191370" data-name="Trazado 191370" d="M225.551,116.341V105.2H211.678v11.142a17.071,17.071,0,1,0,13.873,0Zm0,0" transform="translate(-179.38 -93.629)" fill="#c8effe"/>
          <path id="Trazado_191371" data-name="Trazado 191371" d="M260.19,268.938a13.616,13.616,0,1,1-23.049-9.817h18.866a13.632,13.632,0,0,1,4.184,9.817Zm0,0" transform="translate(-207.339 -230.625)" fill="#84e8ed"/>
          <path id="Trazado_191372" data-name="Trazado 191372" d="M214.8,104.469v-3.084a3.024,3.024,0,0,1,3.024-3.025h7.73V95.054l-2.751-2.5-2.591-.691-8.531,3.194v9.415a17.072,17.072,0,0,0,6.816,32.671c-5.133-.119-9.274-7.715-9.274-17.069,0-6.959,2.291-12.943,5.577-15.6Zm0,0" transform="translate(-179.379 -81.757)" fill="#bbe2f1"/>
          <path id="Trazado_191373" data-name="Trazado 191373" d="M239.786,280.738a13.61,13.61,0,0,1-2.645-21.617h1.747a27.471,27.471,0,0,0-1.709,9.817,25.807,25.807,0,0,0,2.607,11.8Zm0,0" transform="translate(-207.338 -230.624)" fill="#79ccd1"/>
          <path id="Trazado_191374" data-name="Trazado 191374" d="M33.383,200.3,22.3,181.1v-9.935H11.761V181.1L.675,200.3a4.949,4.949,0,0,0,4.286,7.423H29.1a4.949,4.949,0,0,0,4.286-7.423Zm0,0" transform="translate(-0.004 -152.34)" fill="#e6e6e6"/>
          <path id="Trazado_191375" data-name="Trazado 191375" d="M22.293,156.5l-3.226-1.812-6.182.064L11.757,156.5v9.935L.671,185.633a4.948,4.948,0,0,0,4.285,7.423h6.589c-1.73,0-2.811-4.124-1.946-7.423l5.035-19.2v-5.1a1.9,1.9,0,0,1,1.9-1.9h5.762Zm0,0" transform="translate(0 -137.672)" fill="#ccc"/>
          <path id="Trazado_191376" data-name="Trazado 191376" d="M90.348,132.573a2.245,2.245,0,0,1-2.245,2.245H74.417a2.245,2.245,0,0,1,0-4.491H88.1a2.245,2.245,0,0,1,2.245,2.245Zm0,0" transform="translate(-64.235 -115.995)" fill="#ccc"/>
          <path id="Trazado_191377" data-name="Trazado 191377" d="M134.421,132.573a2.245,2.245,0,0,1-2.245,2.245h-8.239a2.245,2.245,0,1,1,0-4.491h8.239a2.245,2.245,0,0,1,2.245,2.245Zm0,0" transform="translate(-108.309 -115.995)" fill="#e6e6e6"/>
          <path id="Trazado_191378" data-name="Trazado 191378" d="M281.662,82.311a2.245,2.245,0,0,1-2.245,2.245H262.488a2.245,2.245,0,1,1,0-4.491h16.929a2.245,2.245,0,0,1,2.245,2.245Zm0,0" transform="translate(-231.623 -71.26)" fill="#bbe2f1"/>
          <path id="Trazado_191379" data-name="Trazado 191379" d="M324.133,82.311a2.245,2.245,0,0,1-2.245,2.245H310.206a2.245,2.245,0,1,1,0-4.491h11.681a2.245,2.245,0,0,1,2.245,2.245Zm0,0" transform="translate(-274.094 -71.26)" fill="#c8effe"/>
          <path id="Trazado_191380" data-name="Trazado 191380" d="M58.34,339.112a1.445,1.445,0,0,1-1.293.747H32.91a1.494,1.494,0,0,1-1.294-2.241l8.147-14.111H50.195l8.146,14.111a1.445,1.445,0,0,1,0,1.494Zm0,0" transform="translate(-27.953 -287.929)" fill="#5df1ac"/>
          <g id="Grupo_147481" data-name="Grupo 147481" transform="translate(3.454 0.001)">
            <path id="Trazado_191381" data-name="Trazado 191381" d="M37.552,335.891a10.24,10.24,0,0,0-.2,3.968H32.91a1.494,1.494,0,0,1-1.294-2.241l8.147-14.111H40.8Zm0,0" transform="translate(-31.407 -287.93)" fill="#55cb94"/>
            <path id="Trazado_191382" data-name="Trazado 191382" d="M164.78,399.091a.863.863,0,1,1,.854-.736A.87.87,0,0,1,164.78,399.091Zm0,0" transform="translate(-149.351 -353.669)" fill="#55cb94"/>
            <path id="Trazado_191383" data-name="Trazado 191383" d="M130.134,77.109a.864.864,0,1,1,.841-.669A.872.872,0,0,1,130.134,77.109Zm0,0" transform="translate(-118.515 -67.094)" fill="#55cb94"/>
            <path id="Trazado_191384" data-name="Trazado 191384" d="M161.38,47.263a.864.864,0,1,1,.841-.669.87.87,0,0,1-.841.669Zm0,0" transform="translate(-146.324 -40.53)" fill="#55cb94"/>
            <path id="Trazado_191385" data-name="Trazado 191385" d="M144.306,1.725a.873.873,0,0,1-.827-.613.873.873,0,0,1,.347-.969.87.87,0,0,1,1.317.928A.873.873,0,0,1,144.306,1.725Zm0,0" transform="translate(-131.122 -0.001)" fill="#55cb94"/>
          </g>
          <path id="Trazado_191386" data-name="Trazado 191386" d="M418.807,293.88a.864.864,0,1,1,.864-.864A.872.872,0,0,1,418.807,293.88Zm0,0" transform="translate(-371.989 -260.028)" fill="#fff"/>
          <path id="Trazado_191387" data-name="Trazado 191387" d="M424.251,346.233a.863.863,0,1,1,.854-.736A.87.87,0,0,1,424.251,346.233Zm0,0" transform="translate(-376.831 -306.621)" fill="#fff"/>
          <path id="Trazado_191388" data-name="Trazado 191388" d="M321.786,405.36a.864.864,0,1,1,.832-.635A.87.87,0,0,1,321.786,405.36Zm0,0" transform="translate(-285.631 -359.246)" fill="#fff"/>
          <path id="Trazado_191389" data-name="Trazado 191389" d="M285.712,339.4a.863.863,0,1,1,.845-.686.87.87,0,0,1-.845.686Zm0,0" transform="translate(-253.53 -300.536)" fill="#fff"/>
          <path id="Trazado_191390" data-name="Trazado 191390" d="M381.511,320.548a.863.863,0,1,1,.848-.694A.87.87,0,0,1,381.511,320.548Zm0,0" transform="translate(-338.793 -283.761)" fill="#fff"/>
          <path id="Trazado_191391" data-name="Trazado 191391" d="M109.758,415.364a.864.864,0,1,1,.846-.695A.872.872,0,0,1,109.758,415.364Zm0,0" transform="translate(-96.92 -368.153)" fill="#55cb94"/>
          <path id="Trazado_191392" data-name="Trazado 191392" d="M130.175,364.543a.863.863,0,1,1,.85-.716A.871.871,0,0,1,130.175,364.543Zm0,0" transform="translate(-115.092 -322.92)" fill="#55cb94"/>
        </g>
      </g>
    </g>
  </g>
</svg>
