<svg xmlns="http://www.w3.org/2000/svg" width="295" height="199.709" viewBox="0 0 295 199.709">
  <g id="Grupo_148086" data-name="Grupo 148086" transform="translate(-180 -3053.001)">
    <g id="Grupo_147447" data-name="Grupo 147447" transform="translate(187.001 3048.717)" style="isolation: isolate">
      <path id="Trazado_37823" data-name="Trazado 37823" d="M11.086,192.765s-6.625-30.106,16.353-58.02S32.473,87.5,44.072,49.735c7.258-23.628,26.811-45.114,65.6-45.448s48.651,36.095,64.541,41.438c28.816,9.691,44.182-5.891,62.737,10.694,23.927,21.388,3.9,56.486,7.79,79.224,5.566,32.532,19.493,35,18.909,57.122" transform="translate(-1.112)" fill="#dceef7"/>
      <path id="Trazado_37824" data-name="Trazado 37824" d="M369.575,177.705a60.964,60.964,0,0,0,2.189,21.789c3.392,11.877,8.754,20.189,14.991,19.98s7.331-12.352,3.282-24.138-1.641-21.851-4.267-29.6S369.684,159.454,369.575,177.705Z" transform="translate(-123.363 -53.445)" fill="#dceef7"/>
      <path id="Trazado_37825" data-name="Trazado 37825" d="M31.6,146.3a45.614,45.614,0,0,1-5.142,18.8A57.393,57.393,0,0,1,15.537,179.7c-4.039,3.81-13.477.094-5.495-14.607S22.257,145.371,22.7,138.742,32.233,132.674,31.6,146.3Z" transform="translate(0 -44.361)" fill="#dceef7"/>
      <rect id="Rectángulo_3535" data-name="Rectángulo 3535" width="295" height="19.585" rx="9.792" transform="translate(-7.001 184.409)" fill="#4463aa"/>
      <path id="Trazado_37826" data-name="Trazado 37826" d="M86.7,78.074c0-.246,6.082-4.6,5.506-8.465-3.04.74-4.731,1.315-4.731,1.315s-9.65-2.794-15.65.328c-.822,5.753,3.863,14.382,6.164,19.724s-.493,6.246-3.945,5.507-8.465-.575-8.383,5.835c-2.877-1.644-5.507,9.369,1.89,7.479s21.039-7.479,21.039-7.479l-7.561-19.4" transform="translate(-18.999 -22.235)" fill="#ff7c57"/>
      <path id="Trazado_37827" data-name="Trazado 37827" d="M101.547,209.613,84.316,253.874l-3.259,1.292S74.086,235.136,86.9,223.4c-3.123-10.123-3.662-22.723-3.662-22.723s-11.3,16.07-20.126,22.208c4.523,3.446,1.567,17-15.879,30.249l-1.508-1.185,16.884-53.1s28.491-5.6,28.921-6.03,10.769,4.523,10.769,4.523" transform="translate(-13.204 -64.161)" fill="#2a2e51"/>
      <path id="Trazado_37828" data-name="Trazado 37828" d="M44.769,172.8v2.646l4.946,1.9,1.035,4.083a2.777,2.777,0,0,1-2.646-2.875l-1.84-.748-1.782,4.141s2.7,3.853.978,7.074l-2.818-4.6s1.323,5.406-1.611,7.936l-.633-6.9s-.23,5.464-3.22,6.556c.46-3.278.863-5.636.863-5.636s-.633,3.393-3.106,4.256l1.437-5.636,5.681-9.087.358-3.8" transform="translate(-9.531 -57.124)" fill="#ffb68b"/>
      <path id="Trazado_37829" data-name="Trazado 37829" d="M135.642,69.191c0-.168-1.8-12.462-2.919-13.415a32.87,32.87,0,0,1-4.939-2.3,2.357,2.357,0,0,0,1.347,2.863c-3.312-1.011-4.21-.842-4.21-.842a19.489,19.489,0,0,0-2.189,2.414,60.4,60.4,0,0,0,1.572,5.95l7.073,1.291.842,5.108" transform="translate(-39.413 -16.743)" fill="#ffb68b"/>
      <path id="Trazado_37830" data-name="Trazado 37830" d="M75.893,100.57l-1.583-.594v2.3S54.268,112.153,46.2,119.529a114.168,114.168,0,0,0-1.6,21.433l4.593-.278L51.415,122.8s2.018,1.67.765-.7c9.324-3.549,18.892-6.263,18.892-6.263s-4,12.6-6.784,19.624S56.913,157.8,54.964,164.2c5.358,5.706,25.19,11.065,34.306,10.786,0,0,4.036-10.995,4.871-14.335a77.15,77.15,0,0,1,.557,13.778,19.552,19.552,0,0,0,11.412-7.863c2.088-10.925,1.67-35-3.062-45.371,4.663-2.157,2.923-5.985-1.113-10.16,6.889.487,14.822-3.619,14.822-3.619l-6.611-31.384h-5.636l3.2,23.521s-2.644-.835-.835.9L88.227,99.7l-.2-1.483-1.746,1.268" transform="translate(-12.811 -24.423)" fill="#fff"/>
      <path id="Trazado_37831" data-name="Trazado 37831" d="M122.323,54.233l2.191,14.315s-3.566,8.086-4.024,9.239.458,1.51,3.311,1.255,13.348-2.191,14.213-2.547.288-1.506-1.41-3.173-7.209-5.64-7.209-5.64l-2.945-13.958s1.376-.713-.356-.764a11.839,11.839,0,0,0-3.86.611C121.558,53.774,121.253,54.233,122.323,54.233Z" transform="translate(-38.613 -16.566)" fill="#c0f8f5" opacity="0.6"/>
      <path id="Trazado_37832" data-name="Trazado 37832" d="M125.978,54.562l-1.455.252,2.312,13.461,1.225-.549Z" transform="translate(-40.024 -17.113)" fill="#fff" opacity="0.6"/>
      <path id="Trazado_37833" data-name="Trazado 37833" d="M132.724,55.775a32.87,32.87,0,0,1-4.939-2.3,2.357,2.357,0,0,0,1.347,2.863c-3.312-1.011-4.21-.842-4.21-.842a19.489,19.489,0,0,0-2.189,2.414,60.4,60.4,0,0,0,1.572,5.95l7.073,1.291" transform="translate(-39.413 -16.743)" fill="#ffb68b"/>
      <path id="Trazado_37834" data-name="Trazado 37834" d="M92.055,111.16s10.746,8.654,15.819,15.215c0,0-4.024-16.183-6.473-18.457s-5.248,1.225-5.248,1.225" transform="translate(-28.973 -35.012)" fill="#00c8bc"/>
      <path id="Trazado_37835" data-name="Trazado 37835" d="M93.377,74.526s.89,6.233,5.442,8.806,11.774,8.41.89,15.632c-1.286,3.067-4.749,4.65-10.389,1.088-1.385-5.64-3.166-14.643-5.046-18.3S91.5,74.328,93.377,74.526Z" transform="translate(-26.238 -23.906)" fill="#ffb68b"/>
      <path id="Trazado_37836" data-name="Trazado 37836" d="M90.861,73.97a20.24,20.24,0,0,1-7.786,10.109,18.791,18.791,0,0,1-1.83-7.068Z" transform="translate(-25.294 -23.719)" fill="#ff7c57"/>
      <path id="Trazado_37837" data-name="Trazado 37837" d="M85.914,91.547s-3.658-2.383-4.89.411S84.969,96.4,86,94.341" transform="translate(-25.154 -29.38)" fill="#ffb68b"/>
      <path id="Trazado_37838" data-name="Trazado 37838" d="M98.58,286.773l-1.374,2.739,19.391,1.212-15.172-5.079Z" transform="translate(-30.726 -95.768)" fill="#00c8bc"/>
      <path id="Trazado_37839" data-name="Trazado 37839" d="M40.557,282.475l-10.02,7.776h10.02l1.508-6.591Z" transform="translate(-8.034 -94.689)" fill="#00c8bc"/>
      <path id="Trazado_37840" data-name="Trazado 37840" d="M116.037,136.295s4.911,5.9,1.565,8.021c0,0,2.722,18.724.865,36.85" transform="translate(-37.136 -44.933)" fill="none" stroke="#dedae8" stroke-miterlimit="10" stroke-width="1.038"/>
      <path id="Trazado_37841" data-name="Trazado 37841" d="M89.911,132.707S85.43,144.3,94.9,144.657s23.221-4.168,23.221-4.168" transform="translate(-27.883 -43.712)" fill="none" stroke="#dedae8" stroke-miterlimit="10" stroke-width="1.038"/>
      <path id="Trazado_37842" data-name="Trazado 37842" d="M89.655,115.809l1.2,6.1,5.159-2.2.625,4.3,7.125,2.1" transform="translate(-28.156 -37.96)" fill="none" stroke="#dedae8" stroke-miterlimit="10" stroke-width="1.038"/>
      <path id="Trazado_37843" data-name="Trazado 37843" d="M110.754,111.906l4.412,4.7H111.84l3.326,2.241-1.3,5.928" transform="translate(-35.338 -36.632)" fill="none" stroke="#dedae8" stroke-miterlimit="10" stroke-width="1.038"/>
      <path id="Trazado_37844" data-name="Trazado 37844" d="M128.045,125.414a87.127,87.127,0,0,0-6.766-7.147" transform="translate(-38.92 -38.797)" fill="none" stroke="#dedae8" stroke-miterlimit="10" stroke-width="1.038"/>
      <path id="Trazado_37845" data-name="Trazado 37845" d="M77.784,193.776l.584-2.435,15.389,2.435-.584,2.435" transform="translate(-24.116 -63.669)" fill="none" stroke="#dedae8" stroke-miterlimit="10" stroke-width="1.038"/>
      <path id="Trazado_37846" data-name="Trazado 37846" d="M128.725,196.99v-2.532l6.526-3.117v3.214" transform="translate(-41.455 -63.669)" fill="none" stroke="#dedae8" stroke-miterlimit="10" stroke-width="1.038"/>
      <path id="Trazado_37847" data-name="Trazado 37847" d="M100.346,88.337l1.6,2.826,2.148-1.333s-.2,2.426-1.307,2.8" transform="translate(-31.795 -28.609)" fill="none" stroke="#f88d61" stroke-miterlimit="10" stroke-width="0.623"/>
      <path id="Trazado_37848" data-name="Trazado 37848" d="M100.846,98.158s-2.976-1.733-5.5-1.545" transform="translate(-30.093 -31.422)" fill="none" stroke="#f88d61" stroke-miterlimit="10" stroke-width="0.623"/>
      <path id="Trazado_37849" data-name="Trazado 37849" d="M82.492,93.13s1.434-2.524,3.392.414c-1.659-.038.3.753.3.753" transform="translate(-25.718 -29.897)" fill="none" stroke="#f88d61" stroke-miterlimit="10" stroke-width="0.623"/>
      <path id="Trazado_37850" data-name="Trazado 37850" d="M96.827,87.456c.183.406.11.834-.162.956s-.64-.108-.823-.513-.11-.834.162-.956S96.645,87.05,96.827,87.456Z" transform="translate(-30.228 -28.124)" fill="#2a2e51"/>
      <path id="Trazado_37851" data-name="Trazado 37851" d="M101.431,86.881c.182.406.11.834-.162.956s-.64-.108-.823-.514-.11-.834.162-.956S101.248,86.476,101.431,86.881Z" transform="translate(-31.795 -27.928)" fill="#2a2e51"/>
      <path id="Trazado_37852" data-name="Trazado 37852" d="M95.388,83.681s-3.441-2.507-3.295,1.4" transform="translate(-28.984 -26.755)" fill="#ff7c57"/>
      <path id="Trazado_37853" data-name="Trazado 37853" d="M98.328,83.44s.3-2.842,2.584.008" transform="translate(-31.108 -26.513)" fill="#ff7c57"/>
      <path id="Trazado_37854" data-name="Trazado 37854" d="M127.871,59.487l-2.017-.306-2.7,2.073" transform="translate(-39.558 -18.685)" fill="none" stroke="#f88d61" stroke-miterlimit="10" stroke-width="0.623"/>
      <path id="Trazado_37855" data-name="Trazado 37855" d="M128.631,62.658l-2.331-.334-2.508,1.553" transform="translate(-39.776 -19.755)" fill="none" stroke="#f88d61" stroke-miterlimit="10" stroke-width="0.623"/>
      <path id="Trazado_37856" data-name="Trazado 37856" d="M129.147,66.076c-.114-.042-2.139-.234-2.139-.234l-2.485.906" transform="translate(-40.024 -20.953)" fill="none" stroke="#f88d61" stroke-miterlimit="10" stroke-width="0.623"/>
      <line id="Línea_181" data-name="Línea 181" x2="2.576" y2="0.52" transform="translate(89.718 39.594)" fill="none" stroke="#f88d61" stroke-miterlimit="10" stroke-width="0.623"/>
      <path id="Trazado_37857" data-name="Trazado 37857" d="M46.315,188.592l-.587-.62,1.061-3.6" transform="translate(-13.204 -61.297)" fill="none" stroke="#f88d61" stroke-miterlimit="10" stroke-width="0.623"/>
      <line id="Línea_182" data-name="Línea 182" y1="4.278" x2="0.893" transform="translate(30.867 124.051)" fill="none" stroke="#f88d61" stroke-miterlimit="10" stroke-width="0.623"/>
      <path id="Trazado_37858" data-name="Trazado 37858" d="M39.643,191.46l.255-1.233,1.647-3.172" transform="translate(-11.133 -62.21)" fill="none" stroke="#f88d61" stroke-miterlimit="10" stroke-width="0.623"/>
      <path id="Trazado_37859" data-name="Trazado 37859" d="M131.854,78.6l-6.687.207S121.9,85.8,121.63,86.517s1.749.827,3.188.655,11.974-2.315,12.673-2.545.156-1.2-1.71-2.874S131.854,78.6,131.854,78.6Z" transform="translate(-39.031 -25.296)" fill="#84e8ed"/>
      <path id="Trazado_37860" data-name="Trazado 37860" d="M131.72,85.211" transform="translate(-42.474 -27.545)" fill="none" stroke="#fa2a57" stroke-miterlimit="10" stroke-width="1.038"/>
      <path id="Trazado_37862" data-name="Trazado 37862" d="M137.147,84.523" transform="translate(-44.321 -27.311)" fill="none" stroke="#fa2a57" stroke-miterlimit="10" stroke-width="1.038"/>
      <path id="Trazado_37863" data-name="Trazado 37863" d="M136.994,82" transform="translate(-44.269 -26.453)" fill="none" stroke="#fa2a57" stroke-miterlimit="10" stroke-width="1.038"/>
      <path id="Trazado_37869" data-name="Trazado 37869" d="M125.606,86.969" transform="translate(-40.393 -28.144)" fill="none" stroke="#fa2a57" stroke-miterlimit="10" stroke-width="1.038"/>
      <path id="Trazado_37871" data-name="Trazado 37871" d="M126.367,77.8s-3.339,7.764-3.216,8.445,1.366.883,1.819,0,2.622-8.445,2.622-8.445Z" transform="translate(-39.556 -25.022)" fill="#fff" opacity="0.6"/>
      <path id="Trazado_37872" data-name="Trazado 37872" d="M317.546,31.7s-1.824,8.393-.821,12.224,5.93,7.116,5.93,7.116a17.162,17.162,0,0,0,7.206-4.835c-2.371-1.095-6.2,2.919-6.2,2.919s-2.281,6.2-8.575,5.565c-.274,6.2,1.094,15.6,1.094,15.6l14.14-11.919a75.68,75.68,0,0,1,3.193-26.214c.639-4.1,1.551-5.291-2.828-3.649S317.546,31.7,317.546,31.7Z" transform="translate(-104.874 -8.003)" fill="#ffb68b"/>
      <path id="Trazado_37873" data-name="Trazado 37873" d="M322.881,62.96l1.338,1.095c5.637-.3,8.309-8.347,8.309-8.347l-6.945,1.964-1.964,1.55a20.329,20.329,0,0,0,1.674,1.3A9.247,9.247,0,0,1,322.881,62.96Z" transform="translate(-107.54 -17.503)" fill="#ff9d71"/>
      <path id="Trazado_37874" data-name="Trazado 37874" d="M334.222,32.158c.638-4.1,1.551-5.291-2.828-3.649S318.257,31.7,318.257,31.7s-1.825,8.393-.821,12.224,5.93,7.116,5.93,7.116a17.163,17.163,0,0,0,7.206-4.835" transform="translate(-105.584 -8.003)" fill="#ffb68b"/>
      <path id="Trazado_37875" data-name="Trazado 37875" d="M326.226,74.547,325.9,72.18l7.981-3.818.358,4.431L325.9,77.8Z" transform="translate(-108.568 -21.81)" fill="#ff3c64"/>
      <path id="Trazado_37876" data-name="Trazado 37876" d="M317.425,68.13l-.164,6.582-3.693,1.139-.951-5.325Z" transform="translate(-104.047 -21.731)" fill="#ff3c64"/>
      <path id="Trazado_37877" data-name="Trazado 37877" d="M363.236,277.986a34,34,0,0,0,7.164,4.3c3.754,1.559,12.113,6.092,13.1,8.784-5.737-.638-24.65-8.429-24.65-8.429l-.5-4.179" transform="translate(-119.615 -93.161)" fill="#00c8bc"/>
      <path id="Trazado_37878" data-name="Trazado 37878" d="M306.641,267.406s-4.671,1.224-8.212,1.72-11.971,2.338-14.167,4.534c0,0,6.725.991,11.19.283s10.06-1.77,12.681-1.842,2.266-.708,2.266-.708l-1.417-3.987" transform="translate(-94.395 -89.56)" fill="#00c8bc"/>
      <path id="Trazado_37879" data-name="Trazado 37879" d="M301.725,163.334s16.2-7.8,30.033-1.284-12.547-41.2-12.547-41.2l-17.9,1.679Z" transform="translate(-100.2 -39.677)" fill="#e5dcf4"/>
      <path id="Trazado_37880" data-name="Trazado 37880" d="M308.389,145.47s4.122,49.108,4.4,57.79,2.067,21.91,2.067,21.91,2.237,2.036,2.91,1.845.154-3.5,0-5.152,2.05-.964,1.086-6.339,2.342-5.787,1.378-14.193-.551-45.473-.551-45.473a109.463,109.463,0,0,1,7.694,17.363c3.33,9.784,12.011,41.477,11.873,44.095s-3.031-.138-1.1,4.685-1.24,4.547-.413,6.752,3.858,5.788,3.858,5.788l4.642-2.391L335.661,165.1l-6.89-21.779-14.882.276" transform="translate(-102.608 -47.323)" fill="#2a2e51"/>
      <path id="Trazado_37881" data-name="Trazado 37881" d="M325.054,75.817l-6.585-1.64-5.055,4.355V72.918l-4.644-1.156s-7.195,15-7.445,23.921,4.21,22.2,4.21,22.2-1.784,1.227.446,3.235,17.623,2.231,19.073,1.338-1-32.7-1-32.7" transform="translate(-100.2 -22.968)" fill="#ff3c64"/>
      <path id="Trazado_37882" data-name="Trazado 37882" d="M315.044,123.035c-.139.268,2.661,11.973,2.661,11.973s-3.074,3.139,1.307,5.233" transform="translate(-104.871 -40.42)" fill="none" stroke="#e41149" stroke-miterlimit="10" stroke-width="1.049"/>
      <path id="Trazado_37883" data-name="Trazado 37883" d="M330.441,77.69l-4.3,3.617V75.9" transform="translate(-108.65 -24.376)" fill="none" stroke="#e41149" stroke-miterlimit="10" stroke-width="1.049"/>
      <path id="Trazado_37884" data-name="Trazado 37884" d="M317.255,73.983l-3.539,5.3.062-5.194" transform="translate(-104.421 -23.723)" fill="none" stroke="#e41149" stroke-miterlimit="10" stroke-width="1.049"/>
      <path id="Trazado_37885" data-name="Trazado 37885" d="M317.9,82.759a31.494,31.494,0,0,0-2.3,7.65" transform="translate(-105.061 -26.711)" fill="none" stroke="#e41149" stroke-miterlimit="10" stroke-width="1.049"/>
      <path id="Trazado_37886" data-name="Trazado 37886" d="M310.338,90.425l8.089-5.818,1.009.843-8.6,6.22Z" transform="translate(-103.271 -27.34)" fill="#00c8bc"/>
      <path id="Trazado_37887" data-name="Trazado 37887" d="M321.088,95.66l-2.5-1.577s-2.3-4.139-3-4.967c-2.136.11-5.171.441-5.171.441l-2.7,1.606,1.214.326,1.877-.326s-1.49,3.141-1.214,3.748a24.5,24.5,0,0,0,1.821,2.539l2.263,1.214s.717-.939-.221-1.491c1.159.5,3.753-.441,3.753-.441l1.766,3.257Z" transform="translate(-102.379 -28.875)" fill="#ffb68b"/>
      <path id="Trazado_37888" data-name="Trazado 37888" d="M326.329,82.636s2.459-7.254,6.63-12.152A28.489,28.489,0,0,1,335.2,72.9s6.85,2.251,7.728,2.48c2.02,6.551,7.288,28.241,6.937,35.178-4.917.615-14.489-4.829-14.489-4.829s12.03,22.919,12.821,40.481c-.966,8.782-18,11.943-18,11.943a90.907,90.907,0,0,0,.263-29.329C329,118.963,322.6,94.182,322.6,94.182c.152.571,3.553-4.863,3.553-4.863l-1.7-1.07Z" transform="translate(-107.445 -22.533)" fill="#fff"/>
      <path id="Trazado_37889" data-name="Trazado 37889" d="M307.26,66.715a34.786,34.786,0,0,0-7.875,13.772c-2.751,8.844-2.751,31.979-2.5,39.482s2,31.924.875,35.969c0,0-4.877-8.824-5.5-15.082s-.5-55.777-.5-55.777l-9-4.092s11-15.862,11.88-17.014l10.755,2.386Z" transform="translate(-93.882 -20.316)" fill="#fff"/>
      <path id="Trazado_37890" data-name="Trazado 37890" d="M307.806,113.357l-9.871-28.749-20.261.593,10.077,28.156Z" transform="translate(-92.153 -27.34)" fill="#2a2e51"/>
      <path id="Trazado_37891" data-name="Trazado 37891" d="M302.974,109.563h1.536a29.5,29.5,0,0,1,1.928-2.932c.578-.635,3.5-1.594,3.906-1.937.144.724-1.157,2.17-1.157,2.17l2.207-.624-.326-.948a2.247,2.247,0,0,1,1.59.656c.578.675,1.253,4.677,1.253,4.677a26,26,0,0,1-4.241,1.976c-1.061.193-4.58-.867-4.58-.867l-2.8.675Z" transform="translate(-100.532 -34.177)" fill="#ffb68b"/>
      <path id="Trazado_37892" data-name="Trazado 37892" d="M276.453,93.427s-7.146,10.736-7.858,18.66c8.1.623,23.328-2.76,23.328-2.76l-.534-4.6-11.13-.67Z" transform="translate(-89.063 -30.342)" fill="#f6f6f7"/>
      <path id="Trazado_37893" data-name="Trazado 37893" d="M331.126,38.119a16.774,16.774,0,0,1,1.385-9.759c-6.8,6.485-15.236,5.73-11.522,3.4-5.981,2.077-10.041,1.889-6.594-.5-1.905.315-.577-1.889,3.041-3.274-2.3.315-2.491-1.385,3.617-2.708a32.794,32.794,0,0,1,14.005.441c-1.036,4.911-3.113,12.4-3.113,12.4Z" transform="translate(-104.221 -6.954)" fill="#2a2e51"/>
      <path id="Trazado_37894" data-name="Trazado 37894" d="M339.047,43.867s2.522-2.875,4.136-1.766-.656,7.717-4.64,3.834" transform="translate(-112.871 -12.785)" fill="#ffb68b"/>
      <path id="Trazado_37895" data-name="Trazado 37895" d="M325.047,45.524l-1.654,5.682,2.591-1.864" transform="translate(-107.715 -14.037)" fill="none" stroke="#f88d61" stroke-miterlimit="10" stroke-width="0.63"/>
      <path id="Trazado_37896" data-name="Trazado 37896" d="M325.357,56.17s2.532-1.523,4.114-1.046" transform="translate(-108.383 -17.273)" fill="none" stroke="#f88d61" stroke-miterlimit="10" stroke-width="0.63"/>
      <path id="Trazado_37897" data-name="Trazado 37897" d="M342.86,44.742s-.273-1.859-3.273,1.14c1.773.091,0,.682,0,.682" transform="translate(-113.227 -13.577)" fill="none" stroke="#f88d61" stroke-miterlimit="10" stroke-width="0.63"/>
      <ellipse id="Elipse_858" data-name="Elipse 858" cx="0.583" cy="0.81" rx="0.583" ry="0.81" transform="translate(219.198 31.368)" fill="#2a2e51"/>
      <path id="Trazado_37898" data-name="Trazado 37898" d="M322.791,46.673c0,.447-.261.809-.583.809s-.583-.362-.583-.809.261-.81.583-.81S322.791,46.226,322.791,46.673Z" transform="translate(-107.113 -14.152)" fill="#2a2e51"/>
      <path id="Trazado_37899" data-name="Trazado 37899" d="M327.7,42.028s2.2-3.634,3.662-.162" transform="translate(-109.179 -12.281)" fill="#2a2e51"/>
      <path id="Trazado_37900" data-name="Trazado 37900" d="M323.14,42.82s-1.356-3.4-3.092.387" transform="translate(-106.576 -12.639)" fill="#2a2e51"/>
      <path id="Trazado_37901" data-name="Trazado 37901" d="M337.122,74.15,339,78.213l-6.8-.314,1.569,2.945-5.521,3.038" transform="translate(-109.369 -23.78)" fill="none" stroke="#dedae8" stroke-miterlimit="10" stroke-width="1.049"/>
      <path id="Trazado_37902" data-name="Trazado 37902" d="M313.642,67.672,306.164,71.5l4.595,1.343-3.57,1.188,1.556,3.956" transform="translate(-101.85 -21.575)" fill="none" stroke="#dedae8" stroke-miterlimit="10" stroke-width="1.049"/>
      <path id="Trazado_37903" data-name="Trazado 37903" d="M335.86,96.423l6.124,10.02s-1.721-2.328-1.013.2c-3.34-2.631-12.551-9.16-12.551-9.16l-.433.662" transform="translate(-109.278 -31.362)" fill="none" stroke="#dedae8" stroke-miterlimit="10" stroke-width="1.049"/>
      <path id="Trazado_37904" data-name="Trazado 37904" d="M323.354,105.852s8.057,9.252,12.276,11.917" transform="translate(-107.701 -34.571)" fill="none" stroke="#dedae8" stroke-miterlimit="10" stroke-width="1.049"/>
      <path id="Trazado_37905" data-name="Trazado 37905" d="M340.61,163.119l-.3-2.379,6.832-2.784.3,2.328" transform="translate(-113.472 -52.306)" fill="none" stroke="#dedae8" stroke-miterlimit="10" stroke-width="1.049"/>
      <path id="Trazado_37906" data-name="Trazado 37906" d="M301.441,162.088v-2.176l-3.948-3.8v2.429" transform="translate(-98.899 -51.679)" fill="none" stroke="#dedae8" stroke-miterlimit="10" stroke-width="1.049"/>
      <path id="Trazado_37907" data-name="Trazado 37907" d="M283.377,109.482a27.7,27.7,0,0,0-5.621.061" transform="translate(-92.181 -35.764)" fill="none" stroke="#dedae8" stroke-miterlimit="10" stroke-width="0.63"/>
      <path id="Trazado_37908" data-name="Trazado 37908" d="M280.188,108.835a1.42,1.42,0,0,0-1.306-1.011" transform="translate(-92.564 -35.242)" fill="none" stroke="#dedae8" stroke-miterlimit="10" stroke-width="1.049"/>
      <path id="Trazado_37909" data-name="Trazado 37909" d="M295.027,83.807l-.817-2.031h-2.722s-.327-2.868-1.742-2.977-1.252,1.416-.544,3.375l-2.5.106.65,1.744Z" transform="translate(-95.226 -25.361)" fill="#dedae8"/>
      <path id="Trazado_37910" data-name="Trazado 37910" d="M291.765,80.861c.172.524.08,1.024-.206,1.118s-.657-.255-.828-.779-.08-1.024.206-1.119S291.592,80.336,291.765,80.861Z" transform="translate(-96.568 -25.794)" fill="#fff"/>
      <path id="Trazado_37911" data-name="Trazado 37911" d="M171.815,53.086a1.5,1.5,0,1,0-.417-2.877,3.852,3.852,0,0,0,1.383-3.916,5.193,5.193,0,0,0-2.667-3.33,8.081,8.081,0,0,0-4.266-.829,6.1,6.1,0,0,0-2.711.7,3.216,3.216,0,0,0-1.631,2.193,3.109,3.109,0,0,0-.131-1.348,1.063,1.063,0,0,0-1.052-.707c-.719.107-.9,1.047-.91,1.774a2.651,2.651,0,0,0-2.167-1.155,5.417,5.417,0,0,0-2.462.6,8.236,8.236,0,0,0-4.931,6.026,4.474,4.474,0,0,0,.45,2.777,2.871,2.871,0,0,0,2.294,1.5,2.919,2.919,0,0,0-2.092.739.788.788,0,0,0-.244.33c-.1.327.21.665.548.722a1.822,1.822,0,0,0,.989-.214,3.412,3.412,0,0,0-2.655,2.078,4.906,4.906,0,0,0-.049,3.456,3.882,3.882,0,0,0,1.507,2.1,2.223,2.223,0,0,0,2.48-.009,1.932,1.932,0,0,0-1.415,2.03,2.832,2.832,0,0,0,1.471,2.144c1.247.72,3.132.472,3.757-.826a3.423,3.423,0,0,0,.287,2.394,2.245,2.245,0,0,0,2.022,1.173,3.431,3.431,0,0,0,2.336-1.733,7.529,7.529,0,0,0,1.308-2.785,3.576,3.576,0,0,0-.617-2.936,2.193,2.193,0,0,0,.274,1.069.756.756,0,0,0,.964.3c.382-.238.325-.823.11-1.218a3.544,3.544,0,0,0,6.128-3.427" transform="translate(-48.289 -12.877)" fill="#2a2e51"/>
      <path id="Trazado_37912" data-name="Trazado 37912" d="M176.288,68.632a3.667,3.667,0,0,0,1.571-4.385l2.108-6.8a1.567,1.567,0,0,0,1.629-1.7,1.4,1.4,0,0,0-.438-.805c-2.255.247-9.469,1.962-8.27,13.679A3.652,3.652,0,0,0,176.288,68.632Z" transform="translate(-56.441 -17.242)" fill="#191e3b"/>
      <path id="Trazado_37913" data-name="Trazado 37913" d="M193.21,64.39s.525,5.357-4.412,12.028l1,2.678-1.786-.84s-2,2.994-3.414,3.73l-7.09-6.251-1.838,12.344-6.513-6.093,5.305-11.135s-2.39-4.939,2.652-10.611S191.476,58.665,193.21,64.39Z" transform="translate(-55.216 -18.12)" fill="#ca6a58"/>
      <path id="Trazado_37914" data-name="Trazado 37914" d="M177.825,58.118c-5.042,5.672-1.313,12.132-1.313,12.132,2.792,1.952,4.437-3.659,5.693-3.358s3.766-1.506,4.519-4.72a44.814,44.814,0,0,1,8.539,1.617C193.529,58.065,182.867,52.445,177.825,58.118Z" transform="translate(-57.268 -17.52)" fill="#2a2e51"/>
      <path id="Trazado_37915" data-name="Trazado 37915" d="M185.3,72.284s.016-3.816-2.344-3.465-2.41,6.59.452,6.132" transform="translate(-59.322 -21.958)" fill="#ca6a58"/>
      <path id="Trazado_37916" data-name="Trazado 37916" d="M187.021,135.243s3.192,9.378-.737,33.442S173.5,233.426,173.5,233.426l-3.547,1.312s-8.717-31.553.737-41.007a106.836,106.836,0,0,1-6.139-25.66l10.559-29.717" transform="translate(-53.65 -44.575)" fill="#2a2e51"/>
      <path id="Trazado_37917" data-name="Trazado 37917" d="M207.055,122.8l2.5-.371a40.421,40.421,0,0,1,4.219-2.364c1.205-.464,6.168,3.573,7,5.047s-8.053.212-8.053.212l-2.422-.851-3.5.658" transform="translate(-68.031 -39.395)" fill="#ca6a58"/>
      <path id="Trazado_37918" data-name="Trazado 37918" d="M215.138,120.062a40.416,40.416,0,0,0-4.219,2.364l-.12.018.09,2.171.774-.145,2.422.851a45.317,45.317,0,0,0,6.761.477l1.041-1.053C220.6,123.066,216.255,119.632,215.138,120.062Z" transform="translate(-69.391 -39.395)" fill="#d3eae7"/>
      <path id="Trazado_37919" data-name="Trazado 37919" d="M197.024,122.612l6.888-.893.829,4.528-7.717,2.423" transform="translate(-64.702 -39.972)" fill="#00b09f"/>
      <path id="Trazado_37920" data-name="Trazado 37920" d="M211.327,126.971s3.609-4.382,4.846-4.086,8.207,3.56,8.85,4.4-4.747.841-7.219,0c-.741,1.83-4.944.631-4.944.631l-1.879,1.792Z" transform="translate(-69.452 -40.364)" fill="#ca6a58"/>
      <path id="Trazado_37921" data-name="Trazado 37921" d="M184.608,116.3s-.641-6.983-7.268-13.681a28.994,28.994,0,0,0-5.057-4.418l.5-1.906-9.121-6.587-.712,3.684s-3.42,1.9-2,7.7,6.912,23.545,6.912,23.545-1.283-.111-1.069,2.082c0,0-8.906,6.611-11.828,30.338a41.8,41.8,0,0,0,23.086,14.063c3.135-12.71,5.273-33.872,6.27-49.048l8.337-3.491-.57-4.275Z" transform="translate(-50.387 -29.076)" fill="#00c8bc"/>
      <path id="Trazado_37922" data-name="Trazado 37922" d="M175.909,284.09l18.472,6.839H171.622l.739-5.527Z" transform="translate(-56.056 -95.239)" fill="#ff3c64"/>
      <path id="Trazado_37923" data-name="Trazado 37923" d="M216.616,122.886c-.949-.228-3.292,2.3-4.331,3.485l.671,1.878.348-.332s4.2,1.2,4.944-.631c2.472.84,7.861.84,7.219,0S217.852,123.182,216.616,122.886Z" transform="translate(-69.896 -40.364)" fill="#fff"/>
      <path id="Trazado_37924" data-name="Trazado 37924" d="M204.368,87.607l-3.121-2.751.192-.534L198.66,82.31l1.561-2.177,3.032,2.135.253-.452,3.281,2.546Z" transform="translate(-65.259 -25.817)" fill="#2a2e51"/>
      <path id="Trazado_37925" data-name="Trazado 37925" d="M221.944,109.954l.246,1.6h3.492l.452-1.6Z" transform="translate(-73.184 -35.967)" fill="#191e3b"/>
      <path id="Trazado_37926" data-name="Trazado 37926" d="M219.765,105.407v3.45h7.022l-.246-3.7Z" transform="translate(-72.442 -34.336)" fill="#2a2e51"/>
      <path id="Trazado_37927" data-name="Trazado 37927" d="M206.006,89.786l3.532-4.457,5.38,4.293,10.267,3.532-.37,5.873H211.263l-.616-4.723Z" transform="translate(-67.759 -27.585)" fill="#fff"/>
      <path id="Trazado_37928" data-name="Trazado 37928" d="M213.041,96.392,217,91.464l.309.246-4.185,5.343Z" transform="translate(-70.154 -29.674)" fill="#2a2e51"/>
      <path id="Trazado_37929" data-name="Trazado 37929" d="M219.765,105.16" transform="translate(-72.442 -34.335)" fill="#2a2e51"/>
      <rect id="Rectángulo_3536" data-name="Rectángulo 3536" width="1.396" height="20.451" transform="translate(167.774 71.441)" fill="#191e3b"/>
      <path id="Trazado_37930" data-name="Trazado 37930" d="M243.766,115.434v4.435l-4.764.9v4.445h10.513V114.9Z" transform="translate(-78.99 -37.651)" fill="#d3eae7"/>
      <path id="Trazado_37931" data-name="Trazado 37931" d="M229.788,108.136c6.325,1.027,5.668,7.967,5.668,7.967l6.571.205-.082-7.761L229.788,106.9" transform="translate(-75.854 -34.929)" fill="#fff"/>
      <circle id="Elipse_859" data-name="Elipse 859" cx="2.875" cy="2.875" r="2.875" transform="translate(157.138 76.758)" fill="#2a2e51"/>
      <rect id="Rectángulo_3537" data-name="Rectángulo 3537" width="19.219" height="2.169" transform="translate(148.021 88.213)" fill="#191e3b"/>
      <rect id="Rectángulo_3538" data-name="Rectángulo 3538" width="25.599" height="2.857" transform="translate(145.788 89.79)" fill="#2a2e51"/>
      <rect id="Rectángulo_3539" data-name="Rectángulo 3539" width="29.28" height="7.72" transform="translate(143.463 92.197)" fill="#f7f7f7"/>
      <rect id="Rectángulo_3540" data-name="Rectángulo 3540" width="38.034" height="95.405" transform="translate(140.039 99.873)" fill="#2a2e51"/>
      <path id="Trazado_37932" data-name="Trazado 37932" d="M192.62,87.114A5.978,5.978,0,0,1,190.662,84" transform="translate(-62.536 -27.132)" fill="none" stroke="#a04c41" stroke-miterlimit="10" stroke-width="0.601"/>
      <path id="Trazado_37933" data-name="Trazado 37933" d="M183.538,71.155s1.328-1.2.966,2.61c-1.522-.761-.689.739-.689.739" transform="translate(-60.112 -22.7)" fill="none" stroke="#a04c41" stroke-miterlimit="10" stroke-width="0.601"/>
      <path id="Trazado_37934" data-name="Trazado 37934" d="M197.388,88.558l-.681-.407.507-.362" transform="translate(-64.594 -28.423)" fill="none" stroke="#a04c41" stroke-miterlimit="10" stroke-width="0.601"/>
      <path id="Trazado_37935" data-name="Trazado 37935" d="M200.3,78.371s.58-4.458-3.082-1.7" transform="translate(-64.77 -24.332)" fill="#2a2e51"/>
      <path id="Trazado_37936" data-name="Trazado 37936" d="M199.183,81.355c-.233.338-.545.527-.7.422s-.087-.464.146-.8.545-.527.7-.422S199.416,81.017,199.183,81.355Z" transform="translate(-65.171 -25.95)" fill="#2a2e51"/>
      <path id="Trazado_37937" data-name="Trazado 37937" d="M179.9,107.962l6.919,16.026s1.478-1.455,1.007.263l5.265-1.738" transform="translate(-58.875 -35.289)" fill="none" stroke="#00a997" stroke-miterlimit="10" stroke-width="1.002"/>
      <path id="Trazado_37938" data-name="Trazado 37938" d="M188.513,128.7s-6.323,2.723-9.01,2.656c0,0-10.036-15.914-12.226-22.168" transform="translate(-54.576 -35.707)" fill="none" stroke="#00a997" stroke-miterlimit="10" stroke-width="1.002"/>
      <path id="Trazado_37939" data-name="Trazado 37939" d="M181.126,179.262l.914-2.553h6.879l-.806,2.15" transform="translate(-59.291 -58.689)" fill="none" stroke="#00a997" stroke-miterlimit="10" stroke-width="1.002"/>
      <path id="Trazado_37940" data-name="Trazado 37940" d="M167.065,95.294l9.223,7.124.112-2.315" transform="translate(-54.505 -30.977)" fill="none" stroke="#00a997" stroke-miterlimit="10" stroke-width="1.002"/>
      <path id="Trazado_37941" data-name="Trazado 37941" d="M191.815,125.195,191.4,123.5l3.062-1.782.436,1.781" transform="translate(-62.789 -39.972)" fill="none" stroke="#00a997" stroke-miterlimit="10" stroke-width="1.002"/>
    </g>
  </g>
</svg>
