<svg xmlns="http://www.w3.org/2000/svg" width="63" height="68.324" viewBox="0 0 63 68.324">
  <g id="Grupo_148090" data-name="Grupo 148090" transform="translate(-285 -4147.499)">
    <g id="Grupo_147522" data-name="Grupo 147522" transform="translate(0 118)">
      <g id="Grupo_147516" data-name="Grupo 147516" transform="translate(0 -24)">
        <circle id="Elipse_5512" data-name="Elipse 5512" cx="31.5" cy="31.5" r="31.5" transform="translate(285 4058.823)" fill="#e7edf9"/>
        <g id="montana" transform="translate(285 4053.499)">
          <path id="Trazado_191322" data-name="Trazado 191322" d="M63,31.5a31.751,31.751,0,0,1-.4,5.013A47.1,47.1,0,0,1,.946,36.1l-.694-.609q-.114-.879-.175-1.771Q0,32.622,0,31.5A31.5,31.5,0,0,1,58.856,15.873,31.39,31.39,0,0,1,63,31.19c0,.1,0,.207,0,.31Z" transform="translate(0)" fill="#9eb7e5"/>
          <g id="Grupo_147467" data-name="Grupo 147467" transform="translate(0 15.873)">
            <path id="Trazado_191323" data-name="Trazado 191323" d="M63,144.627a31.747,31.747,0,0,1-.4,5.012,47.1,47.1,0,0,1-61.658-.41l-.694-.609A31.681,31.681,0,0,1,0,144.627,31.351,31.351,0,0,1,4.144,129a31.628,31.628,0,0,0,13.331,12.584,31.258,31.258,0,0,0,6.571,2.4A31.51,31.51,0,0,0,58.856,129,31.351,31.351,0,0,1,63,144.627Z" transform="translate(0 -129)" fill="#9eb7e5"/>
          </g>
          <g id="Grupo_147476" data-name="Grupo 147476" transform="translate(0.252 5.404)">
            <path id="Trazado_191324" data-name="Trazado 191324" d="M71.376,330.8a31.344,31.344,0,0,1-2.007,4.993l-.107.066a53.336,53.336,0,0,1-55.9.085l-.247-.151A31.189,31.189,0,0,1,11.11,330.8Z" transform="translate(-9.995 -295.5)" fill="#9eb7e5"/>
            <path id="Trazado_191325" data-name="Trazado 191325" d="M286.133,330.8a31.344,31.344,0,0,1-2.007,4.993l-.107.066A53.294,53.294,0,0,1,256,343.811V330.8Z" transform="translate(-224.752 -295.5)" fill="#9eb7e5"/>
            <path id="Trazado_191326" data-name="Trazado 191326" d="M83.681,371.38a31.578,31.578,0,0,1-4.857,7.035L65.248,384.43a23.786,23.786,0,0,1-19.206.03l-13.757-6.045a31.515,31.515,0,0,1-4.565-6.474q-.148-.279-.29-.561Z" transform="translate(-24.307 -331.087)" fill="#9eb7e5"/>
            <path id="Trazado_191327" data-name="Trazado 191327" d="M284.819,371.38a31.577,31.577,0,0,1-4.857,7.035l-13.576,6.016a23.759,23.759,0,0,1-9.6,2.04V371.38Z" transform="translate(-225.445 -331.087)" fill="#9eb7e5"/>
            <g id="Grupo_147468" data-name="Grupo 147468" transform="translate(7.978 47.328)">
              <path id="Trazado_191328" data-name="Trazado 191328" d="M113.429,428.55a31.485,31.485,0,0,1-46.539,0Z" transform="translate(-66.89 -428.55)" fill="#9eb7e5"/>
              <path id="Trazado_191329" data-name="Trazado 191329" d="M279.962,428.55a31.423,31.423,0,0,1-23.172,10.268V428.55Z" transform="translate(-233.423 -428.55)" fill="#9eb7e5"/>
            </g>
            <g id="Grupo_147469" data-name="Grupo 147469" transform="translate(0.431 20.329)">
              <path id="Trazado_191330" data-name="Trazado 191330" d="M67.185,224.252l-23.72,2.041a82.627,82.627,0,0,1-14.2,0L5.55,224.251a63.613,63.613,0,0,0,16.792-9.593q.838-.653,1.6-1.281c2.612-2.155,4.508.913,5.5-.108a2.8,2.8,0,0,1,2-.843h9.844a2.8,2.8,0,0,1,2,.843c.935.959,2.664-2.269,5.035-.282.642.539,1.333,1.1,2.066,1.671a63.588,63.588,0,0,0,16.793,9.594Z" transform="translate(-5.55 -211.934)" fill="#9eb7e5"/>
              <path id="Trazado_191331" data-name="Trazado 191331" d="M171.473,224.079l-23.72,2.041a82.627,82.627,0,0,1-14.2,0l-9.086-.783a43.608,43.608,0,0,0,8.73-8.451,30.4,30.4,0,0,0,2.414-3.683c1.162-2.1,1.829.79,2.232-.231.214-.539.507-.843.812-.843h6.918a2.8,2.8,0,0,1,2,.843c.935.959,2.664-2.146,5.035-.159.642.539,1.333,1.1,2.066,1.671a63.59,63.59,0,0,0,16.793,9.594Z" transform="translate(-109.837 -211.761)" fill="#9eb7e5"/>
              <path id="Trazado_191332" data-name="Trazado 191332" d="M286.818,221.448,263.1,223.49q-3.542.3-7.1.305V209.13h4.922a2.8,2.8,0,0,1,2,.843c.935.959,2.664-1.777,5.035.21.642.539,1.333,1.1,2.066,1.671a63.589,63.589,0,0,0,16.793,9.594Z" transform="translate(-225.183 -209.13)" fill="#9eb7e5"/>
            </g>
            <g id="Grupo_147470" data-name="Grupo 147470" transform="translate(18.82 14.477)">
              <path id="Trazado_191333" data-name="Trazado 191333" d="M164.428,162.067l-.02,0C164.408,162.089,164.417,162.082,164.428,162.067Z" transform="translate(-163.25 -162.006)" fill="#9eb7e5"/>
              <path id="Trazado_191334" data-name="Trazado 191334" d="M164.571,161.634l.053-.009v-.04C164.624,161.548,164.593,161.605,164.571,161.634Z" transform="translate(-163.393 -161.573)" fill="#9eb7e5"/>
              <path id="Trazado_191335" data-name="Trazado 191335" d="M179.387,178.613a7.487,7.487,0,0,1-.314.8,1.8,1.8,0,0,1-1.452,1.141c-1.171.015-1.828-1.489-2.847-.4-.914.977-1.458,2.243-3,2.38a2.411,2.411,0,0,1-1.769-.57c-.577-.5-.9-1.255-1.52-1.694a1.914,1.914,0,0,0-1.058-.406c-1.405-.028-2.118,2.193-3.525,2.051-.987-.1-1.5-1.075-2.206-1.731a2.026,2.026,0,0,0-1.1-.578c-1.579-.221-2.306,1.527-3.974.915A4.491,4.491,0,0,1,155,179c1.055-.87,1.992-1.689,2.8-2.425,1.2-1.09,2.11-2,2.7-2.6a2.8,2.8,0,0,1,2-.843h9.844a2.8,2.8,0,0,1,2,.843c.634.65,1.632,1.637,2.946,2.823C177.924,177.362,178.623,177.972,179.387,178.613Z" transform="translate(-155 -171.708)" fill="#9eb7e5"/>
              <path id="Trazado_191336" data-name="Trazado 191336" d="M227.11,178.613a7.479,7.479,0,0,1-.314.8,1.8,1.8,0,0,1-1.452,1.141c-1.171.015-1.828-1.489-2.847-.4-.914.977-1.458,2.243-3,2.38a2.411,2.411,0,0,1-1.769-.57c-.577-.5-.9-1.255-1.52-1.694a1.914,1.914,0,0,0-1.058-.406c-1.405-.028-2.118,2.193-3.525,2.051-.987-.1-1.5-1.075-2.206-1.731q.358-.58.692-1.181a38.468,38.468,0,0,0,2.232-5.03c.214-.539.507-.843.812-.843h6.918a2.8,2.8,0,0,1,2,.843c.634.65,1.632,1.637,2.946,2.823C225.647,177.362,226.346,177.972,227.11,178.613Z" transform="translate(-202.724 -171.708)" fill="#9eb7e5"/>
              <path id="Trazado_191337" data-name="Trazado 191337" d="M267.959,178.613a7.5,7.5,0,0,1-.314.8,1.8,1.8,0,0,1-1.452,1.141c-1.171.015-1.828-1.489-2.847-.4-.914.977-1.458,2.243-3,2.38a2.411,2.411,0,0,1-1.769-.57c-.577-.5-.9-1.255-1.52-1.694a1.914,1.914,0,0,0-1.058-.406V173.13h4.922a2.8,2.8,0,0,1,2,.843c.634.65,1.632,1.637,2.946,2.823C266.5,177.362,267.195,177.972,267.959,178.613Z" transform="translate(-243.572 -171.708)" fill="#9eb7e5"/>
            </g>
            <path id="Trazado_191338" data-name="Trazado 191338" d="M197.248,176.8a1.472,1.472,0,0,1-1.077.481,3.722,3.722,0,0,1-1.74-.6,3.7,3.7,0,0,0-1.739-.6c-.972.006-1.8.765-2.773.837a6.121,6.121,0,0,1-2.541-.76,2.52,2.52,0,0,0-1.723-.178c-.652.212-1.117.806-1.757,1.052a1.457,1.457,0,0,1-.619.106c-.817-.052-1.286-.89-2.131-.886-.9,0-1.379,1.149-2.3,1.088a1.654,1.654,0,0,1-1.1-.755c1.2-1.09,2.11-2,2.7-2.6a2.8,2.8,0,0,1,2-.843H192.3a2.8,2.8,0,0,1,2,.843C194.936,174.623,195.934,175.609,197.248,176.8Z" transform="translate(-156.131 -157.231)" fill="#9eb7e5"/>
            <path id="Trazado_191339" data-name="Trazado 191339" d="M236.658,176.8a1.472,1.472,0,0,1-1.077.481,3.722,3.722,0,0,1-1.74-.6,3.7,3.7,0,0,0-1.739-.6c-.972.006-1.8.765-2.773.837a6.12,6.12,0,0,1-2.541-.76,2.52,2.52,0,0,0-1.723-.178c-.652.212-1.117.806-1.757,1.052a1.457,1.457,0,0,1-.619.106c.607-1.324,1.011-2.452,1.291-3.159.214-.539.507-.843.812-.843h6.918a2.8,2.8,0,0,1,2,.843C234.346,174.623,235.344,175.609,236.658,176.8Z" transform="translate(-195.541 -157.231)" fill="#9eb7e5"/>
            <path id="Trazado_191340" data-name="Trazado 191340" d="M265.87,176.8a1.472,1.472,0,0,1-1.077.481,3.722,3.722,0,0,1-1.74-.6,3.7,3.7,0,0,0-1.739-.6c-.972.006-1.8.765-2.773.837a6.12,6.12,0,0,1-2.541-.76V173.13h4.922a2.8,2.8,0,0,1,2,.843C263.557,174.623,264.555,175.609,265.87,176.8Z" transform="translate(-224.752 -157.231)" fill="#9eb7e5"/>
            <g id="Grupo_147471" data-name="Grupo 147471" transform="translate(6.544 13.775)">
              <path id="Trazado_191341" data-name="Trazado 191341" d="M55.229,159.414c0-.007,0-.013,0-.02a2.211,2.211,0,0,1,3.032-2.053,2.869,2.869,0,0,1,5.323.855,1.613,1.613,0,0,1,1.8,1.218Z" transform="translate(-55.229 -155.868)" fill="#9eb7e5"/>
              <path id="Trazado_191342" data-name="Trazado 191342" d="M72.766,170.155s0-.008,0-.011a1.271,1.271,0,0,1,1.744-1.181,1.65,1.65,0,0,1,3.061.492.928.928,0,0,1,1.035.7H72.766Z" transform="translate(-70.608 -166.609)" fill="#9eb7e5"/>
            </g>
            <g id="Grupo_147472" data-name="Grupo 147472" transform="translate(40.69)">
              <path id="Trazado_191343" data-name="Trazado 191343" d="M332.738,46.441s0-.009,0-.014a1.573,1.573,0,0,1,2.157-1.461,2.041,2.041,0,0,1,3.787.608,1.147,1.147,0,0,1,1.28.867Z" transform="translate(-332.738 -43.918)" fill="#9eb7e5"/>
              <path id="Trazado_191344" data-name="Trazado 191344" d="M345.213,54.081s0-.005,0-.008a.9.9,0,0,1,1.24-.84,1.173,1.173,0,0,1,2.178.35.659.659,0,0,1,.736.5Z" transform="translate(-343.678 -51.559)" fill="#9eb7e5"/>
            </g>
            <g id="Grupo_147473" data-name="Grupo 147473" transform="translate(46.212 14.091)">
              <path id="Trazado_191345" data-name="Trazado 191345" d="M388.945,162.394c0-.008,0-.015,0-.022a2.468,2.468,0,0,0-3.385-2.292,3.2,3.2,0,0,0-5.942.954,1.8,1.8,0,0,0-2.009,1.36Z" transform="translate(-377.611 -158.436)" fill="#9eb7e5"/>
              <path id="Trazado_191346" data-name="Trazado 191346" d="M403.7,174.382s0-.009,0-.013a1.419,1.419,0,0,0-1.946-1.318,1.841,1.841,0,0,0-3.417.549,1.051,1.051,0,0,0-.148-.011,1.036,1.036,0,0,0-1.007.793Z" transform="translate(-394.776 -170.424)" fill="#9eb7e5"/>
            </g>
            <g id="Grupo_147474" data-name="Grupo 147474" transform="translate(33.322 7.833)">
              <path id="Trazado_191347" data-name="Trazado 191347" d="M272.858,111.123c0-.007,0-.013,0-.02a2.211,2.211,0,0,1,3.032-2.053,2.869,2.869,0,0,1,5.323.855,1.613,1.613,0,0,1,1.8,1.218Z" transform="translate(-272.858 -107.577)" fill="#9eb7e5"/>
              <path id="Trazado_191348" data-name="Trazado 191348" d="M290.4,121.864s0-.008,0-.011a1.271,1.271,0,0,1,1.744-1.181,1.65,1.65,0,0,1,3.061.492.946.946,0,0,1,.133-.01.928.928,0,0,1,.9.71H290.4Z" transform="translate(-288.237 -118.318)" fill="#9eb7e5"/>
            </g>
            <g id="Grupo_147475" data-name="Grupo 147475" transform="translate(12.931 1.283)">
              <path id="Trazado_191349" data-name="Trazado 191349" d="M121.684,59.426c0-.01,0-.019,0-.029a3.167,3.167,0,0,0-4.342-2.94,4.108,4.108,0,0,0-7.623,1.224,2.309,2.309,0,0,0-2.577,1.745h14.542Z" transform="translate(-107.142 -54.348)" fill="#9eb7e5"/>
              <path id="Trazado_191350" data-name="Trazado 191350" d="M140.616,74.808c0-.006,0-.011,0-.016a1.821,1.821,0,0,0-2.5-1.691,2.362,2.362,0,0,0-4.383.7,1.349,1.349,0,0,0-.19-.014,1.329,1.329,0,0,0-1.292,1.017Z" transform="translate(-129.164 -69.73)" fill="#9eb7e5"/>
            </g>
            <path id="Trazado_191351" data-name="Trazado 191351" d="M64.4,285.384c-.082.517-.177,1.031-.285,1.539q-.151.716-.336,1.42-.162.622-.349,1.233H3.166q-.188-.611-.351-1.233-.183-.705-.335-1.421-.266-1.261-.431-2.557a2.491,2.491,0,0,1,1.622-.447,2.49,2.49,0,0,1,2.013,1.438,1.578,1.578,0,0,1,1.394-.124,1.244,1.244,0,0,1,.819.93,1.75,1.75,0,0,1,2.13,0,1.407,1.407,0,0,1,1.285-1.275,1.273,1.273,0,0,1,1.306,1.1,1.22,1.22,0,0,1,1.708.226,2.376,2.376,0,0,1,2.14-1.106,2.24,2.24,0,0,1,1.891,1.367,1.67,1.67,0,0,1,2.315.033,1.773,1.773,0,0,1,2.057-.449,1.52,1.52,0,0,1,1.15-1.041,1.361,1.361,0,0,1,1.322.626c.213-.4.616-.4,1.053-.292a1.058,1.058,0,0,1,.788.978,1.213,1.213,0,0,1,1.65,0,.837.837,0,0,1,.767-.829.947.947,0,0,1,1.011.666,1.209,1.209,0,0,1,.908-1.041,1.226,1.226,0,0,1,1.28.549.994.994,0,0,1,.64-.37,1.879,1.879,0,0,1,.714,0,1.272,1.272,0,0,1,.968.945,3.27,3.27,0,0,1,2.846.13,1.442,1.442,0,0,1,1.313-1.094,1.61,1.61,0,0,1,1.534.972,1.444,1.444,0,0,1,1.747-.471,1.354,1.354,0,0,1,1.075-1.528,1.455,1.455,0,0,1,1.518,1.224,1.823,1.823,0,0,1,2.351.324,1.476,1.476,0,0,1,1.452-.931,1.594,1.594,0,0,1,1.4,1.122,1.909,1.909,0,0,1,2.308.518,1.681,1.681,0,0,1,2.3-.749,1.922,1.922,0,0,1,1.245-1.282,1.655,1.655,0,0,1,1.606.383,1.672,1.672,0,0,1,1.927-1.048,1.575,1.575,0,0,1,1.207,1.746,1.465,1.465,0,0,1,2.153.238A1.805,1.805,0,0,1,64.4,285.384Z" transform="translate(-2.05 -254.277)" fill="#9eb7e5"/>
          </g>
          <path id="Trazado_191352" data-name="Trazado 191352" d="M287.1,285.384c-.082.517-.177,1.031-.285,1.539q-.151.716-.336,1.42-.162.622-.349,1.233H256V285.3a1.879,1.879,0,0,1,.714,0,1.272,1.272,0,0,1,.968.945,3.27,3.27,0,0,1,2.846.13,1.442,1.442,0,0,1,1.313-1.094,1.61,1.61,0,0,1,1.534.972,1.444,1.444,0,0,1,1.747-.471,1.354,1.354,0,0,1,1.075-1.528,1.455,1.455,0,0,1,1.518,1.224,1.823,1.823,0,0,1,2.351.324,1.476,1.476,0,0,1,1.452-.931,1.594,1.594,0,0,1,1.4,1.122,1.909,1.909,0,0,1,2.308.518,1.681,1.681,0,0,1,2.3-.749,1.922,1.922,0,0,1,1.245-1.282,2.689,2.689,0,0,0,3.533-.666,1.575,1.575,0,0,1,1.207,1.746,1.465,1.465,0,0,1,2.153.238A1.805,1.805,0,0,1,287.1,285.384Z" transform="translate(-224.5 -248.873)" fill="#9eb7e5"/>
        </g>
        <g id="farmaceutico" transform="translate(288.367 4056.104)">
          <g id="Grupo_147505" data-name="Grupo 147505" transform="translate(12.893 0)">
            <g id="Grupo_147496" data-name="Grupo 147496" transform="translate(11.089)">
              <path id="Trazado_191405" data-name="Trazado 191405" d="M304.48,148.765H290.186a2.382,2.382,0,0,1,0-4.765H304.48a2.382,2.382,0,0,1,0,4.765Z" transform="translate(-287.803 -144)" fill="#bbe2f1"/>
            </g>
            <g id="Grupo_147497" data-name="Grupo 147497" transform="translate(0 4.765)">
              <path id="Trazado_191406" data-name="Trazado 191406" d="M253.995,216.626l-12.9-23.948V176H226.8v16.677l-12.9,23.948a4.765,4.765,0,0,0,4.2,7.024H249.8A4.765,4.765,0,0,0,253.995,216.626Z" transform="translate(-213.333 -176)" fill="#bbe2f1"/>
            </g>
            <g id="Grupo_147498" data-name="Grupo 147498" transform="translate(13.471 4.765)">
              <path id="Trazado_191407" data-name="Trazado 191407" d="M330.993,216.626l-12.9-23.948V176H303.8v2.382h4.765a2.382,2.382,0,0,1,2.382,2.382v11.912l5.8,25.136a4.765,4.765,0,0,1-4.643,5.836H326.8A4.765,4.765,0,0,0,330.993,216.626Z" transform="translate(-303.803 -176)" fill="#c8effe"/>
            </g>
            <g id="Grupo_147499" data-name="Grupo 147499" transform="translate(2.381 30.972)">
              <path id="Trazado_191408" data-name="Trazado 191408" d="M255.712,352h-16.3a2.383,2.383,0,0,0-2.1,1.253l-7.7,14.295a2.383,2.383,0,0,0,2.1,3.512H263.41a2.383,2.383,0,0,0,2.1-3.512l-7.7-14.295A2.383,2.383,0,0,0,255.712,352Z" transform="translate(-229.325 -352)" fill="#84e8ed"/>
            </g>
            <g id="Grupo_147500" data-name="Grupo 147500" transform="translate(22.818 30.972)">
              <path id="Trazado_191409" data-name="Trazado 191409" d="M372.523,352h-5.951l3.6,15.606a4.728,4.728,0,0,1-.517,3.454H380.22a2.383,2.383,0,0,0,2.1-3.512l-7.7-14.295A2.383,2.383,0,0,0,372.523,352Z" transform="translate(-366.572 -352)" fill="#79ccd1"/>
            </g>
            <g id="Grupo_147502" data-name="Grupo 147502" transform="translate(11.089 40.502)">
              <ellipse id="Elipse_5514" data-name="Elipse 5514" cx="3.574" cy="3.574" rx="3.574" ry="3.574" fill="#e7f9fa"/>
            </g>
            <g id="Grupo_147503" data-name="Grupo 147503" transform="translate(17.045 33.355)">
              <ellipse id="Elipse_5515" data-name="Elipse 5515" cx="2.382" cy="2.382" rx="2.382" ry="2.382" fill="#e7f9fa"/>
            </g>
            <g id="Grupo_147504" data-name="Grupo 147504" transform="translate(27.766 40.502)">
              <ellipse id="Elipse_5516" data-name="Elipse 5516" cx="2.382" cy="2.382" rx="2.382" ry="2.382" fill="#e7f9fa"/>
            </g>
          </g>
          <g id="Grupo_147511" data-name="Grupo 147511" transform="translate(0 7.643)">
            <g id="Grupo_147506" data-name="Grupo 147506" transform="translate(3.989 1.596)">
              <ellipse id="Elipse_5517" data-name="Elipse 5517" cx="12.767" cy="12.767" rx="12.767" ry="12.767" fill="#fff"/>
            </g>
            <g id="Grupo_147510" data-name="Grupo 147510" transform="translate(0 0)">
              <path id="Trazado_191414" data-name="Trazado 191414" d="M34.913,325.018a.8.8,0,0,0-1.128,0,12.767,12.767,0,0,1-21.794-9.027h1.6a.8.8,0,0,0,.564-1.362l-2.394-2.394a.8.8,0,0,0-1.128,0l-2.394,2.394A.8.8,0,0,0,8.8,315.99h1.6a14.363,14.363,0,0,0,24.519,10.156A.8.8,0,0,0,34.913,325.018Z" transform="translate(-8.001 -301.628)" fill="#ddc192"/>
            </g>
          </g>
        </g>
        <g id="fumar" transform="translate(295.209 4068.447)">
          <g id="Grupo_147513" data-name="Grupo 147513" transform="translate(0 0)">
            <path id="Trazado_191415" data-name="Trazado 191415" d="M252.109,9.306c0-.012-.006-.025-.01-.037-.943-3.007-2.932-3.538-4.53-3.964-1.855-.495-3.081-.822-2.688-4.674a.574.574,0,0,0-.952-.488,5.834,5.834,0,0,0-1.7,2.572,5.241,5.241,0,0,0-.114,2.87,4.859,4.859,0,0,0,3.751,3.567l.05.01c2.3.346,3.819,2.263,4.173,5.26a.574.574,0,0,0,1.036.268,6.553,6.553,0,0,0,.981-5.384Z" transform="translate(-232.708 0)" fill="#84e8ed"/>
            <path id="Trazado_191416" data-name="Trazado 191416" d="M7.938,69.426c-1.73-.919-2.9-1.679-3.414-2.631-.468-.874-.479-2.024-.039-4.1a.574.574,0,0,0-.807-.638A6.5,6.5,0,0,0,1.031,64.37,6.034,6.034,0,0,0,0,67.582a4.8,4.8,0,0,0,.657,2.53,5.223,5.223,0,0,0,2.173,1.97c.424.217.883.417,1.327.611a8.245,8.245,0,0,1,3.055,1.872c.786.935.919,2.183.421,3.929a.574.574,0,0,0,.839.655,5.411,5.411,0,0,0,3.012-4.722,5.01,5.01,0,0,0-.933-2.773,7.277,7.277,0,0,0-2.613-2.229Z" transform="translate(-0.001 -59.626)" fill="#9eb7e5"/>
            <g id="Grupo_147512" data-name="Grupo 147512" transform="translate(5.742 5.19)">
              <path id="Trazado_191417" data-name="Trazado 191417" d="M154.809,224.91a7.277,7.277,0,0,0-2.613-2.229,17.352,17.352,0,0,1-2.2-1.326V226.7a5.039,5.039,0,0,1,1.469,1.125c.786.935.919,2.183.421,3.929a.574.574,0,0,0,.839.655,5.411,5.411,0,0,0,3.012-4.722A5.009,5.009,0,0,0,154.809,224.91Z" transform="translate(-150 -218.071)" fill="#9eb7e5"/>
              <path id="Trazado_191418" data-name="Trazado 191418" d="M381.956,139.682q0-.018-.01-.037c-.943-3.007-2.932-3.538-4.53-3.964-.148-.039-.291-.078-.431-.117V139.9c1.613.749,2.666,2.468,2.953,4.9a.574.574,0,0,0,1.036.268A6.553,6.553,0,0,0,381.956,139.682Z" transform="translate(-368.296 -135.565)" fill="#84e8ed"/>
            </g>
          </g>
          <path id="Trazado_191420" data-name="Trazado 191420" d="M344.871,391.148H344.3v-.574a.574.574,0,0,0-1.148,0v.574h-.574a.574.574,0,1,0,0,1.148h.574v.574a.574.574,0,1,0,1.148,0V392.3h.574a.574.574,0,1,0,0-1.148Z" transform="translate(-328.908 -375.07)" fill="#a0a9b6"/>
          <path id="Trazado_191421" data-name="Trazado 191421" d="M134.871,1.148H134.3V.574a.574.574,0,1,0-1.148,0v.574h-.574a.574.574,0,1,0,0,1.148h.574v.574a.574.574,0,1,0,1.148,0V2.3h.574a.574.574,0,0,0,0-1.148Z" transform="translate(-126.947 0)" fill="#a0a9b6"/>
        </g>
      </g>
    </g>
  </g>
</svg>
