<svg xmlns="http://www.w3.org/2000/svg" xmlns:xlink="http://www.w3.org/1999/xlink" width="294.07" height="166.836" viewBox="0 0 294.07 166.836">
  <defs>
    <clipPath id="clip-path">
      <rect id="Rect치ngulo_40394" data-name="Rect치ngulo 40394" width="52.63" height="154.461" fill="none"/>
    </clipPath>
  </defs>
  <g id="Grupo_148070" data-name="Grupo 148070" transform="translate(4610 9328)">
    <path id="Trazado_190603" data-name="Trazado 190603" d="M-5908-10043.164l4.358-4.357h285.354l4.358,4.357Z" transform="translate(1298 882)" fill="#a0a9b6"/>
    <g id="waterfall" transform="translate(-4581.165 -9328)">
      <rect id="Rect치ngulo_40392" data-name="Rect치ngulo 40392" width="59.72" height="63.043" transform="translate(51.488 99.435)" fill="#99c6f9"/>
      <path id="Trazado_192034" data-name="Trazado 192034" d="M0,0H9.086V63.043H0Z" transform="translate(51.488 99.435)" fill="#6e95dd"/>
      <path id="Trazado_191764" data-name="Trazado 191764" d="M109.91,0A17.833,17.833,0,0,0,92.078,17.719a11.9,11.9,0,0,1,18.276,10.452,8.852,8.852,0,0,1,10.26,3.929A17.835,17.835,0,0,0,109.91,0Z" transform="translate(-62.858)" fill="#fac149"/>
      <path id="Trazado_191765" data-name="Trazado 191765" d="M116.087,40.135A18.651,18.651,0,0,0,94.245,28.268a17.754,17.754,0,0,0-2.167,8.411,11.9,11.9,0,0,1,18.276,10.452,8.852,8.852,0,0,1,10.26,3.929,17.926,17.926,0,0,0,4.771-5.4A15.56,15.56,0,0,0,116.087,40.135Z" transform="translate(-62.858 -18.96)" fill="#f8a748"/>
      <path id="Trazado_191766" data-name="Trazado 191766" d="M13.211,68.845A9.13,9.13,0,0,1,24.022,60.5a.946.946,0,0,0,.914-.334,7.254,7.254,0,0,1,7.082-2.525.932.932,0,0,0,1.079-.647c3.8-12.395,22.422-11.2,23.67,3.023.066.846,1.053.681,1.053.681v0a9,9,0,1,1,1.644,17.851H22.3A9.108,9.108,0,0,1,13.211,68.845Z" transform="translate(-9.005 -33.082)" fill="#a4d9f4"/>
      <path id="Trazado_191767" data-name="Trazado 191767" d="M19.749,68.794A9.13,9.13,0,0,1,30.56,60.45a.946.946,0,0,0,.914-.334,7.255,7.255,0,0,1,7.082-2.525.932.932,0,0,0,1.079-.647,12.131,12.131,0,0,1,8.3-8.1,12.108,12.108,0,0,0-14.842,8.1.932.932,0,0,1-1.079.647,7.254,7.254,0,0,0-7.082,2.525c-.586.718-1.024.055-3.2.188A9.107,9.107,0,0,0,22.3,78.5h6.539A9.108,9.108,0,0,1,19.749,68.794Z" transform="translate(-9.005 -33.031)" fill="#77cff2"/>
      <path id="Trazado_191768" data-name="Trazado 191768" d="M56.044,258.583H45.573V247.467a4.19,4.19,0,0,0-4.392-3.923H5.131A4.88,4.88,0,0,0,0,248.127v76.284a4.6,4.6,0,0,0,4.841,4.324h55.6V262.506A4.19,4.19,0,0,0,56.044,258.583Z" transform="translate(-6.452 -166.258)" fill="#9b6f43"/>
      <g id="Grupo_147704" data-name="Grupo 147704" transform="translate(40.708 92.325)">
        <path id="Trazado_191769" data-name="Trazado 191769" d="M130.731,313.221a2.452,2.452,0,0,0,2.452-2.452V290.935h-4.9v19.834A2.452,2.452,0,0,0,130.731,313.221Z" transform="translate(-128.279 -290.935)" fill="#7c4f29"/>
        <path id="Trazado_191770" data-name="Trazado 191770" d="M130.731,393.086a2.452,2.452,0,0,1-2.452-2.452v-6.757a2.452,2.452,0,1,1,4.9,0v6.757A2.452,2.452,0,0,1,130.731,393.086Z" transform="translate(-128.279 -352.709)" fill="#7c4f29"/>
      </g>
      <path id="Trazado_191771" data-name="Trazado 191771" d="M416.919,324.785V246.992c0-1.9-2.145-3.448-4.792-3.448H365.79c-3,0-5.453,1.765-5.453,3.923v11.116h-13c-3,0-5.453,1.765-5.453,3.923v66.229h69.544C414.46,328.736,416.919,326.967,416.919,324.785Z" transform="translate(-233.39 -166.258)" fill="#9b6f43"/>
      <g id="Grupo_147705" data-name="Grupo 147705" transform="translate(0 77.286)">
        <path id="Trazado_191772" data-name="Trazado 191772" d="M6.539,324.412V248.127a4.583,4.583,0,0,1,4.583-4.583H4.583A4.583,4.583,0,0,0,0,248.127v76.284a4.324,4.324,0,0,0,4.324,4.324h6.539A4.324,4.324,0,0,1,6.539,324.412Z" transform="translate(-11 -243.544)" fill="#8e6138"/>
        <path id="Trazado_191773" data-name="Trazado 191773" d="M390.26,247.467a3.935,3.935,0,0,1,3.923-3.923h-6.539a3.935,3.935,0,0,0-3.923,3.923v11.116h3.349a3.19,3.19,0,0,0,3.19-3.19Z" transform="translate(-261.951 -243.544)" fill="#8e6138"/>
        <path id="Trazado_191774" data-name="Trazado 191774" d="M352.346,290.935h-6.539a3.935,3.935,0,0,0-3.923,3.923v66.229h6.539V294.858A3.935,3.935,0,0,1,352.346,290.935Z" transform="translate(-233.391 -275.896)" fill="#8e6138"/>
      </g>
      <g id="Grupo_147706" data-name="Grupo 147706" transform="translate(116.865 92.326)">
        <path id="Trazado_191775" data-name="Trazado 191775" d="M370.718,326.627a2.452,2.452,0,0,0,2.452-2.452V290.936h-4.9v33.238A2.452,2.452,0,0,0,370.718,326.627Z" transform="translate(-368.266 -290.936)" fill="#7c4f29"/>
        <path id="Trazado_191776" data-name="Trazado 191776" d="M370.718,435.326a2.452,2.452,0,0,1-2.452-2.452v-6.757a2.452,2.452,0,1,1,4.9,0v6.757A2.452,2.452,0,0,1,370.718,435.326Z" transform="translate(-368.266 -381.545)" fill="#7c4f29"/>
      </g>
      <g id="Grupo_147707" data-name="Grupo 147707" transform="translate(62.434 99.435)">
        <path id="Trazado_191777" data-name="Trazado 191777" d="M199.2,384.962a2.452,2.452,0,0,1-2.452-2.452v-32.8a2.452,2.452,0,0,1,4.9,0v32.8A2.452,2.452,0,0,1,199.2,384.962Z" transform="translate(-196.743 -336.492)" fill="#a4d9f4"/>
        <path id="Trazado_191778" data-name="Trazado 191778" d="M231.1,313.341v27.436a2.452,2.452,0,1,0,4.9,0V313.341h-4.9Z" transform="translate(-220.194 -313.341)" fill="#a4d9f4"/>
        <path id="Trazado_191779" data-name="Trazado 191779" d="M267.9,403.9a2.452,2.452,0,0,1-2.452-2.452V365.759a2.452,2.452,0,1,1,4.9,0v35.693A2.452,2.452,0,0,1,267.9,403.9Z" transform="translate(-243.647 -347.45)" fill="#a4d9f4"/>
        <path id="Trazado_191780" data-name="Trazado 191780" d="M299.8,341.838a2.452,2.452,0,1,0,4.9,0v-28.5h-4.9Z" transform="translate(-267.099 -313.34)" fill="#a4d9f4"/>
        <path id="Trazado_191781" data-name="Trazado 191781" d="M302.255,437.42a2.452,2.452,0,0,1-2.452-2.452V426.55a2.452,2.452,0,1,1,4.9,0v8.418A2.452,2.452,0,0,1,302.255,437.42Z" transform="translate(-267.098 -388.95)" fill="#a4d9f4"/>
      </g>
      <path id="Trazado_191782" data-name="Trazado 191782" d="M417.546,373.636a2.452,2.452,0,0,1-2.452-2.452V348.161a2.452,2.452,0,0,1,4.9,0v23.023A2.452,2.452,0,0,1,417.546,373.636Z" transform="translate(-283.368 -236.002)" fill="#7c4f29"/>
      <path id="Trazado_191783" data-name="Trazado 191783" d="M265.45,313.833v8.418a2.452,2.452,0,1,0,4.9,0c0-9.175.02-8.569-.05-8.911h-4.8A2.455,2.455,0,0,0,265.45,313.833Z" transform="translate(-181.212 -213.905)" fill="#a4d9f4"/>
      <g id="Grupo_147708" data-name="Grupo 147708" transform="translate(15.081 151.172)">
        <path id="Trazado_191784" data-name="Trazado 191784" d="M58.828,476.374A11.306,11.306,0,0,0,47.522,487.68H70.133A11.305,11.305,0,0,0,58.828,476.374Z" transform="translate(-47.522 -476.374)" fill="#4ce079"/>
        <path id="Trazado_191785" data-name="Trazado 191785" d="M126.244,485.927a8.274,8.274,0,0,0-8.274,8.274h16.548A8.274,8.274,0,0,0,126.244,485.927Z" transform="translate(-95.614 -482.895)" fill="#4ce079"/>
        <path id="Trazado_191786" data-name="Trazado 191786" d="M353.189,476.374a11.306,11.306,0,0,0-11.306,11.306h22.611A11.305,11.305,0,0,0,353.189,476.374Z" transform="translate(-248.47 -476.374)" fill="#4ce079"/>
        <path id="Trazado_191787" data-name="Trazado 191787" d="M420.605,485.927a8.274,8.274,0,0,0-8.274,8.274h16.548A8.274,8.274,0,0,0,420.605,485.927Z" transform="translate(-296.563 -482.895)" fill="#4ce079"/>
      </g>
      <g id="Grupo_147709" data-name="Grupo 147709" transform="translate(15.081 151.172)">
        <path id="Trazado_191788" data-name="Trazado 191788" d="M62.1,476.856a11.308,11.308,0,0,0-14.575,10.823h6.539A11.309,11.309,0,0,1,62.1,476.856Z" transform="translate(-47.523 -476.374)" fill="#32cc65"/>
        <path id="Trazado_191789" data-name="Trazado 191789" d="M129.514,486.6a8.276,8.276,0,0,0-11.544,7.6h6.539A8.275,8.275,0,0,1,129.514,486.6Z" transform="translate(-95.614 -482.895)" fill="#32cc65"/>
        <path id="Trazado_191790" data-name="Trazado 191790" d="M356.459,476.856a11.308,11.308,0,0,0-14.574,10.823h6.539A11.308,11.308,0,0,1,356.459,476.856Z" transform="translate(-248.472 -476.374)" fill="#32cc65"/>
        <path id="Trazado_191791" data-name="Trazado 191791" d="M423.875,486.6a8.276,8.276,0,0,0-11.543,7.6h6.539A8.275,8.275,0,0,1,423.875,486.6Z" transform="translate(-296.564 -482.895)" fill="#32cc65"/>
      </g>
      <g id="Grupo_147710" data-name="Grupo 147710" transform="translate(73.336 23.368)">
        <path id="Trazado_191792" data-name="Trazado 191792" d="M257.515,144.9l-6.4-4.846a2.453,2.453,0,0,0-3.214.221l-3.112,3.112-3.112-3.112a2.452,2.452,0,0,0-3.215-.221l-6.4,4.846a2.452,2.452,0,1,0,2.961,3.909l4.693-3.556,3.335,3.335a2.453,2.453,0,0,0,3.468,0l3.335-3.335,4.694,3.556a2.452,2.452,0,0,0,2.961-3.909Z" transform="translate(-231.096 -118.637)" fill="#5c6168"/>
        <path id="Trazado_191793" data-name="Trazado 191793" d="M366.9,78.981l-6.4-4.846a2.453,2.453,0,0,0-3.214.221l-3.112,3.112-3.112-3.112a2.453,2.453,0,0,0-3.214-.221l-6.4,4.846a2.452,2.452,0,1,0,2.961,3.909l4.694-3.556,3.335,3.335a2.453,2.453,0,0,0,3.468,0l3.335-3.335,4.694,3.556a2.452,2.452,0,1,0,2.961-3.909Z" transform="translate(-305.768 -73.637)" fill="#5c6168"/>
      </g>
    </g>
    <g id="ciudad" transform="translate(-4509 -9327.521)">
      <path id="Trazado_191966" data-name="Trazado 191966" d="M162.416,454.87c1.748,0,2.365-1.51.845-2.071-21.3-7.854-49.15-12.612-79.63-12.612-30.5,0-58.36,4.764-79.667,12.625-1.51.557-.9,2.057.839,2.057Z" transform="translate(-89.339 -292.87)" fill="#9eb7e5"/>
      <path id="Trazado_191923" data-name="Trazado 191923" d="M162.416,462.909a1.717,1.717,0,0,0,.845-3.2c-21.3-12.154-49.15-19.518-79.63-19.518-30.5,0-58.36,7.372-79.667,19.538a1.706,1.706,0,0,0,.839,3.184Z" transform="translate(-2.123 -300.909)" fill="#29b288"/>
      <path id="Trazado_191924" data-name="Trazado 191924" d="M16.924,459.724c19.787-11.3,45.231-18.458,73.187-19.423q-3.219-.111-6.48-.116c-30.5,0-58.36,7.372-79.667,19.538a1.706,1.706,0,0,0,.84,3.184h12.96A1.706,1.706,0,0,1,16.924,459.724Z" transform="translate(-2.124 -300.908)" fill="#21a378"/>
    </g>
    <g id="Grupo_147712" data-name="Grupo 147712" transform="translate(-4403.098 -9317.804)">
      <g id="Grupo_147711" data-name="Grupo 147711" transform="translate(0 0)" clip-path="url(#clip-path)">
        <path id="Trazado_191794" data-name="Trazado 191794" d="M17.416,20.867c.476-.022.633,1.329.989,1.573a3.326,3.326,0,0,0-.159-.857,4.1,4.1,0,0,1-.264-1.284,1.1,1.1,0,0,1,.142-.794c.455-.542.67.441.727.767.092.526,0,1.461.456,1.822.062.05-.07-.587-.114-.712a4.029,4.029,0,0,1-.174-.909c-.043-.46-.2-1.588.523-1.6.456-.007.466,1.564.493,1.832a4.443,4.443,0,0,0,.232,1.317c.2-.12.1-.553.132-.75a8.181,8.181,0,0,0,.082-.888c.013-.286.02-.963.418-.923.356.037.4.393.388.675-.013.376,0,.715.018,1.093.012.224.013.458.027.685a10.735,10.735,0,0,0,.117,1.118,3.271,3.271,0,0,0,.3.939c.1.194.45,1.157.729.923.206-.174.052-.817.005-1.04-.08-.389-.358-1.018-.227-1.4.1-.3.229-.563.613-.425.486.175.565,1.737.669,2.047a10.207,10.207,0,0,0,.585,1.06,9.979,9.979,0,0,1,.373,1,14.208,14.208,0,0,0,.764,2.23c.647,1.21,5.562,5.218,6.4,5.669.3.16,1.178-1.807,2.27-4.2a47.2,47.2,0,0,0,7.209,4.035c-2.893,5.252-5.656,12.5-8.64,9.783C30.9,42.2,22.989,31.664,21.633,29.824a42.279,42.279,0,0,1-2.627-4.016,14.315,14.315,0,0,1-1.89-4.147c-.038-.2-.008-.779.3-.794" transform="translate(-17.1 12.674)" fill="#e45940"/>
        <path id="Trazado_191795" data-name="Trazado 191795" d="M13.763,32.5c.857-2,6.849-11.6,10.62-15.028l2.967,3.219c2.091,2.606-.58,8.785-1.442,9.484-.73.59-3.515,6.423-4.245,7.177-3.47-2.106-7.9-4.852-7.9-4.852" transform="translate(1.493 11.733)" fill="#edf6ff"/>
        <path id="Trazado_191796" data-name="Trazado 191796" d="M17.289,28.613a64.33,64.33,0,0,1,4.458-10.425l1.867,2.027c2.093,2.606-.578,8.785-1.441,9.482-.73.592-3.517,6.425-4.245,7.179-1.349-.819-2.841-1.733-4.164-2.546a14.267,14.267,0,0,0,3.525-5.718" transform="translate(5.229 12.212)" fill="#c6d1de"/>
        <path id="Trazado_191797" data-name="Trazado 191797" d="M28.428,39.475l8.4-.911a1.112,1.112,0,0,0,1.1-1.329L34.384,17.816a1.936,1.936,0,0,0-1.984-1.7l-9.485,1.25c-.827.11-1.254,1.01-.959,2l4.872,18.952a1.688,1.688,0,0,0,1.6,1.162" transform="translate(-21.861 10.812)" fill="#110239"/>
        <path id="Trazado_191798" data-name="Trazado 191798" d="M10.3,9.633l6.8,1.06s-1.91,6.042,1.02,11.2c0,0-4.887,5.293-8.3,3.893-3.642-1.5-2.283-5.173-2.283-5.173s3.709-2.94,2.761-10.978" transform="translate(22.339 6.468)" fill="#e45940"/>
        <path id="Trazado_191799" data-name="Trazado 191799" d="M20.931,85.739s1.834,7.274.787,8.459S5.429,97.984,3.958,96.775s-1.013-3.624,2.093-4.937c3.329-1.407,5.143-.689,7.19-1.87s1.031-4.52,1.031-4.52Z" transform="translate(25.319 57.372)" fill="#110239"/>
        <path id="Trazado_191800" data-name="Trazado 191800" d="M34.51,84.984s.366,9.124-.849,10.134-16.677,1.245-17.944-.174-.533-3.445,2.6-4.138c2.816-.623,4.917-.072,7.09-1,1.907-.814,2.86-5.091,2.86-5.091Z" transform="translate(-7.214 56.878)" fill="#110239"/>
        <path id="Trazado_191801" data-name="Trazado 191801" d="M8.447,40.784l19.875-3.533S20.8,78.171,19.8,82.889s-3.965,35.822-3.965,35.822L7.17,117.693s.1-34,.538-37.019.739-39.89.739-39.89" transform="translate(12.324 25.011)" fill="#a0a9b6"/>
        <path id="Trazado_191802" data-name="Trazado 191802" d="M11.7,57.211c-.984-6.417-.321-11.4-1.738-14.531-.563-1.242-2.4-.919-2.811-2.188a3.894,3.894,0,0,0,.617-.976l16.505-2.472s-7.485,35.274-9.429,43.927c0,0-2.358-18.638-3.144-23.759" transform="translate(16.415 24.872)" fill="#878b90"/>
        <path id="Trazado_191803" data-name="Trazado 191803" d="M3.031,38.178l15.96,4.063a30.486,30.486,0,0,1,.966,13.236c-1.315,8.879-1.444,22.807-1.6,24.7s2.983,31.894,3.226,39.074l-8.6.366S6.384,82.024,6,81.2,3.031,38.178,3.031,38.178" transform="translate(25.985 25.634)" fill="#a0a9b6"/>
        <path id="Trazado_191804" data-name="Trazado 191804" d="M7.806,38.594c.012-7.134.745-14.068.311-21.118a11.973,11.973,0,0,1,2.527-1.148,4.668,4.668,0,0,0,3.345,2.724c2.357.318,6.1-3.229,6.1-3.229s.944.535,2.323,1.28c.157,1.267.356,2.515.562,3.756-1.578,5.206-3.883,10.157-5.118,15.484-1.447,6.238.314,12.616-.6,18.884a60.481,60.481,0,0,1-8.808.037c-.8-.059-1.591-.155-2.372-.274C7.843,49.729,7.8,44.436,7.806,38.594" transform="translate(19.5 10.624)" fill="#84e8ed"/>
        <path id="Trazado_191805" data-name="Trazado 191805" d="M2.1,49.2c.15-10.837.548-20.518.879-25.909a15.316,15.316,0,0,0,4.844-7.441l.023-.023s5.24,2.965,9.123,4.7c-.941,3.116.069,5.484.055,8.589a18.833,18.833,0,0,0,.674,5.063c-1.578,3.378-3.107,6.682-3.44,9.061a26.854,26.854,0,0,0,.11,6.739c.563,4.608,2.943,37.859,2.943,37.859s-4.349.779-12.855,1.494c-.752.064-1.631.1-2.551.129.257-.811-.058-21.951.194-40.261" transform="translate(31.733 10.625)" fill="#edf6ff"/>
        <path id="Trazado_191806" data-name="Trazado 191806" d="M15.081,50.593a110.982,110.982,0,0,0,1.514-11.62c.336-6.724,3.689-20.236,4.242-20.625a16.468,16.468,0,0,1,4.021-2.175c-.488,1.76-.73,4.586.181,6.091-.866,4.145-1.862,11.454-3.1,25.782-1.419,16.469-2.064,39.994-1.493,40.983a44.009,44.009,0,0,1-6.96-.989s.8-32.842,1.59-37.446" transform="translate(5.042 10.859)" fill="#edf6ff"/>
        <path id="Trazado_191807" data-name="Trazado 191807" d="M13.558,30.835l0,.005c-1.574,3.38-3.1,6.687-3.438,9.067-.077.547-.12,1.122-.144,1.71-.008.2,0,.411-.005.617-.005.4-.008.791.005,1.2,0,.064,0,.124,0,.187.008.182.028.369.038.553.022.374.045.745.079,1.122.023.261.05.518.079.779.022.192.035.386.058.577.565,4.608,2.942,37.858,2.942,37.858s-2.231.4-6.6.888c.192-11.058-3.864-37.139-3.052-41.682C4.021,40.9.079,30.953,3,27.535c1.686-1.974,5.208-5.634,7.933-6.4.612-.172,1.095-.276,1.529-.356.1,1.615.433,3.182.425,5,0,.456.012.9.042,1.337a19.22,19.22,0,0,0,.63,3.712" transform="translate(35.875 13.953)" fill="#c6d1de"/>
        <path id="Trazado_191808" data-name="Trazado 191808" d="M34.908,29.1s-6.582,8.742-7.433,8.506S13.791,31.128,13,30.142a12.614,12.614,0,0,1-1.065-1.91,8.316,8.316,0,0,0-.5-.851,8.747,8.747,0,0,1-.71-.861c-.147-.266-.47-1.7-.946-1.762-.379-.045-.455.229-.5.53-.062.386.3.911.435,1.257.079.2.323.762.16.969-.221.279-.7-.54-.822-.7a2.9,2.9,0,0,1-.431-.809,9.6,9.6,0,0,1-.287-1.016c-.05-.209-.087-.425-.134-.632-.077-.349-.145-.66-.192-1.015-.035-.266-.132-.588-.466-.545-.376.048-.274.682-.239.951a8.471,8.471,0,0,1,.065.846c.005.191.167.57,0,.727a4.135,4.135,0,0,1-.426-1.175c-.067-.246-.326-1.707-.747-1.6-.67.167-.346,1.185-.231,1.6a3.665,3.665,0,0,0,.306.809c.06.107.286.672.219.638-.48-.237-.543-1.128-.714-1.6-.105-.292-.461-1.162-.8-.557a1.065,1.065,0,0,0-.005.771,3.758,3.758,0,0,0,.45,1.14,3,3,0,0,1,.284.764c-.369-.15-.73-1.374-1.168-1.25-.284.082-.221.625-.152.807a12.6,12.6,0,0,0,2.415,3.45A36.432,36.432,0,0,0,9.865,32.29c1.548,1.419,15.178,12.181,17.129,12.664s10.6-7.164,13.1-9.392-5.186-6.46-5.186-6.46" transform="translate(4.822 15.134)" fill="#f88667"/>
        <path id="Trazado_191809" data-name="Trazado 191809" d="M13.095,18.554c-2-.426-4.77,5.964-8.655,11.962A33.338,33.338,0,0,1,0,35.982c.127.105.261.2.383.308A62.471,62.471,0,0,1,6.3,42.27c3.741-3.5,8.6-8.867,10.7-14.749,1.19-3.341.381-8.055-3.906-8.967" transform="translate(35.132 12.444)" fill="#edf6ff"/>
        <path id="Trazado_191810" data-name="Trazado 191810" d="M17.205,3.241S7.472,1.767,6.353,2.847s-1.305,5-1.26,8.309S3.745,20.8,7.611,21.976s11.242-2.44,13.854-9c3.326-8.354-3.594-9.637-4.26-9.733" transform="translate(22.098 1.646)" fill="#f88667"/>
        <path id="Trazado_191811" data-name="Trazado 191811" d="M10.4,2.46s-4.6.155-5.41,7.09c-.364,3.126-1.15,5.534-.187,5.69a1.623,1.623,0,0,0,1.959-1.4c0-.9.281-3.844,2.114-3.027s1.213,4.364-1.118,5.39a2.922,2.922,0,0,0,1.384,3.109s4.85-3.052,5.549-8.5S13.335,2.3,10.4,2.46" transform="translate(30.555 1.648)" fill="#110239"/>
        <path id="Trazado_191812" data-name="Trazado 191812" d="M23.794,4.721a6.675,6.675,0,0,0-6.218-4.7C12.445-.316,8.342,2.763,5.885,6.868c0,0,1.4,2.455,6.684,2.766a19.372,19.372,0,0,0,8.055-1.493,5.72,5.72,0,0,0,3.171-3.42" transform="translate(18.999 0.001)" fill="#110239"/>
      </g>
    </g>
  </g>
</svg>
