<svg xmlns="http://www.w3.org/2000/svg" xmlns:xlink="http://www.w3.org/1999/xlink" width="334.849" height="164.583" viewBox="0 0 334.849 164.583">
  <defs>
    <clipPath id="clip-path">
      <rect id="Rectángulo_40312" data-name="Rectángulo 40312" width="334.849" height="164.583" fill="none"/>
    </clipPath>
    <clipPath id="clip-path-3">
      <rect id="Rectángulo_40299" data-name="Rectángulo 40299" width="10.419" height="60.195" fill="none"/>
    </clipPath>
    <clipPath id="clip-path-4">
      <rect id="Rectángulo_40302" data-name="Rectángulo 40302" width="47.683" height="58.391" fill="none"/>
    </clipPath>
    <clipPath id="clip-path-5">
      <rect id="Rectángulo_40306" data-name="Rectángulo 40306" width="65.142" height="82.448" fill="none"/>
    </clipPath>
    <clipPath id="clip-path-6">
      <rect id="Rectángulo_40310" data-name="Rectángulo 40310" width="64.294" height="44.183" fill="none"/>
    </clipPath>
  </defs>
  <g id="Grupo_148067" data-name="Grupo 148067" transform="translate(6802.235 10200.133)">
    <g id="Grupo_148066" data-name="Grupo 148066" transform="translate(-7261 -11700)">
      <path id="Trazado_191966" data-name="Trazado 191966" d="M162.416,454.87c1.748,0,2.365-1.51.845-2.071-21.3-7.854-49.15-12.612-79.63-12.612-30.5,0-58.36,4.764-79.667,12.625-1.51.557-.9,2.057.839,2.057Z" transform="translate(506.426 1205.576)" fill="#9eb7e5"/>
      <path id="Trazado_191923" data-name="Trazado 191923" d="M162.416,462.909a1.717,1.717,0,0,0,.845-3.2c-21.3-12.154-49.15-19.518-79.63-19.518-30.5,0-58.36,7.372-79.667,19.538a1.706,1.706,0,0,0,.839,3.184Z" transform="translate(593.641 1197.536)" fill="#29b288"/>
      <g id="Grupo_147580" data-name="Grupo 147580" transform="translate(458.765 1499.867)">
        <g id="Grupo_147579" data-name="Grupo 147579" clip-path="url(#clip-path)">
          <g id="Grupo_147578" data-name="Grupo 147578">
            <g id="Grupo_147577" data-name="Grupo 147577" clip-path="url(#clip-path)">
              <path id="Trazado_191477" data-name="Trazado 191477" d="M40.667,51.814h-3.05V42.394A10.654,10.654,0,0,1,48.259,31.752H131.28a7.6,7.6,0,0,0,7.594-7.592v-.185a10.654,10.654,0,0,1,10.642-10.642h25.322a10.655,10.655,0,0,1,10.642,10.642v16.41h-3.048V23.975a7.6,7.6,0,0,0-7.594-7.592H149.516a7.6,7.6,0,0,0-7.594,7.592v.185A10.654,10.654,0,0,1,131.28,34.8H48.259a7.6,7.6,0,0,0-7.592,7.592Z" transform="translate(20.525 7.275)" fill="#b3bbc4"/>
              <path id="Trazado_191478" data-name="Trazado 191478" d="M221.341,83.067H218.29V67.2a7.4,7.4,0,0,0-7.232-7.54h-.178A10.449,10.449,0,0,1,200.6,49.071V18.322a7.4,7.4,0,0,0-7.23-7.54H179.442a7.4,7.4,0,0,0-7.232,7.54V18.9a10.449,10.449,0,0,1-10.28,10.589H145.268a7.4,7.4,0,0,0-7.232,7.541v7.113h-3.048V37.035a10.449,10.449,0,0,1,10.28-10.589H161.93a7.4,7.4,0,0,0,7.232-7.541v-.583a10.449,10.449,0,0,1,10.28-10.589h13.928a10.45,10.45,0,0,1,10.278,10.589V49.071a7.4,7.4,0,0,0,7.232,7.54h.178A10.452,10.452,0,0,1,221.341,67.2Z" transform="translate(73.653 4.219)" fill="#b3bbc4"/>
              <path id="Trazado_191479" data-name="Trazado 191479" d="M136.543,59.061c-.193-.5-1.828-1.278-2.983-1.533a12.079,12.079,0,0,1-2.675-1.3,11.169,11.169,0,0,1-1,1.386c.017-.022,1.281.951,1.431,1.034.485.266,1.057.261,1.369.828a4.9,4.9,0,0,1,.294.915c.1.363.108,1.519.482,1.692.561.261.362-.935.417-1.153.082-.323.476-.654.7-.257.3.549.518,1.808,1.159,2.056.807.312-.427-2.037-.535-2.546.229.748,1.3,2.872,1.692,2.717.751-.3-.607-2.309-.835-3.02a3.324,3.324,0,0,0,1.012,1.646c.774.4-.332-1.966-.525-2.467" transform="translate(70.868 30.679)" fill="#ff9d8a"/>
              <path id="Trazado_191480" data-name="Trazado 191480" d="M112.1,54.389a4.437,4.437,0,0,0,4.142,4.016c3.45.179,9.274,3.966,11.224,4.227,2.711.365,14.492-.383,14.492-.383l.893-3.179s-12.966-1.607-15.132-1.872-11.261-6.812-13.246-5.285c-.694.533-2.462,1.567-2.374,2.476" transform="translate(61.165 28.199)" fill="#edf6ff"/>
              <path id="Trazado_191481" data-name="Trazado 191481" d="M127.1,60.741c-3.07-1.1-7.325-4.915-10.578-6.85a6.446,6.446,0,0,0-1.583-.679,3,3,0,0,0-.3.866A5,5,0,0,0,115.8,57.7c3.485.672,8.516,3.863,10.3,4.1a94.884,94.884,0,0,0,10.527-.162c-5-.422-8.162-.41-9.526-.9" transform="translate(62.534 29.034)" fill="#c6d1de"/>
              <path id="Trazado_191482" data-name="Trazado 191482" d="M56.053,27.183a59.09,59.09,0,0,0-5.472,2.974,21.948,21.948,0,0,0-4.322,3.522c-2.532,2.745-3.122,5.453-3.844,9.023a36.729,36.729,0,0,0-.889,8.926c.159,3.56.743,7.121.892,10.642.158,3.7-1.51,6.11-3.81,8.8-2.431,2.842-3.77,6.886-5.335,10.26a26.422,26.422,0,0,0-2.393,6.637c-.331,2.213,1.658,3.618,3.02,5.079a15.377,15.377,0,0,0,8.744,4.734c3.139.563,4.917,0,7.116-2.1a10.646,10.646,0,0,0,3.43-7.875c-.235-3.974-4.233-5.246-6.323-8.2s.824-5.065,1.015-8.128a12.3,12.3,0,0,0-.988-4.512,24.891,24.891,0,0,1-.918-5.461,58.473,58.473,0,0,1,.1-12.195,24.21,24.21,0,0,1,4.345-11.149,14.138,14.138,0,0,1,5.7-4.105c1.414-.558,5.785-3.006,6.108-4.448.161-.714-5.094.725-5.482.07-.419-.706-.158-1.8-.691-2.5" transform="translate(16.83 14.832)" fill="#ddc192"/>
              <path id="Trazado_191483" data-name="Trazado 191483" d="M142.013,29.9V85.467c0,3.411-2.309,4.631-5.158,4.631h-.1c-2.849,0-5.158-1.219-5.158-4.631V29.9h-2.507V88.632a7.64,7.64,0,0,0,7.64,7.64h.155a7.64,7.64,0,0,0,7.64-7.64V29.9Z" transform="translate(70.433 16.316)" fill="#edf6ff"/>
              <rect id="Rectángulo_40297" data-name="Rectángulo 40297" width="2.509" height="5.209" transform="translate(212.445 46.219)" fill="#b7d0d2"/>
              <rect id="Rectángulo_40298" data-name="Rectángulo 40298" width="2.509" height="5.209" transform="translate(199.519 46.219)" fill="#b7d0d2"/>
              <g id="Grupo_147567" data-name="Grupo 147567" transform="translate(202.027 46.219)" opacity="0.32" style="mix-blend-mode: screen;isolation: isolate">
                <g id="Grupo_147566" data-name="Grupo 147566">
                  <g id="Grupo_147565" data-name="Grupo 147565" clip-path="url(#clip-path-3)">
                    <path id="Trazado_191484" data-name="Trazado 191484" d="M135.97,90.1h-.1c-2.849,0-5.158-1.221-5.158-4.631V29.9h10.419V85.467c0,3.41-2.309,4.631-5.158,4.631" transform="translate(-130.709 -29.903)" fill="#fff"/>
                  </g>
                </g>
              </g>
              <path id="Trazado_191485" data-name="Trazado 191485" d="M130.709,48.679V75.222c0,3.41,2.309,4.631,5.158,4.631h.1c2.849,0,5.158-1.221,5.158-4.631V48.679Z" transform="translate(71.318 26.561)" fill="#84e8ed"/>
              <path id="Trazado_191486" data-name="Trazado 191486" d="M145.044,32.734H129.859a1.958,1.958,0,0,1-1.958-1.958v-.039a1.958,1.958,0,0,1,1.958-1.958h15.184A1.958,1.958,0,0,1,147,30.737v.039a1.958,1.958,0,0,1-1.958,1.958" transform="translate(69.786 15.703)" fill="#edf6ff"/>
              <path id="Trazado_191487" data-name="Trazado 191487" d="M134.174,54.128a1.351,1.351,0,1,1-1.351-1.351,1.351,1.351,0,0,1,1.351,1.351" transform="translate(71.735 28.797)" fill="#76d2d6"/>
              <path id="Trazado_191488" data-name="Trazado 191488" d="M138.265,52.139a2.171,2.171,0,1,1-2.17-2.17,2.17,2.17,0,0,1,2.17,2.17" transform="translate(73.072 27.264)" fill="#76d2d6"/>
              <path id="Trazado_191489" data-name="Trazado 191489" d="M136.346,58.661a1.93,1.93,0,1,1-1.93-1.93,1.93,1.93,0,0,1,1.93,1.93" transform="translate(72.288 30.954)" fill="#76d2d6"/>
              <path id="Trazado_191490" data-name="Trazado 191490" d="M136.729,66.9a2.074,2.074,0,1,1-2.074-2.074,2.075,2.075,0,0,1,2.074,2.074" transform="translate(72.34 35.37)" fill="#76d2d6"/>
              <path id="Trazado_191491" data-name="Trazado 191491" d="M137.9,56.03a1.4,1.4,0,1,1-1.4-1.4,1.4,1.4,0,0,1,1.4,1.4" transform="translate(73.717 29.808)" fill="#76d2d6"/>
              <path id="Trazado_191492" data-name="Trazado 191492" d="M133.891,62.993a1.141,1.141,0,1,1-1.142-1.141,1.143,1.143,0,0,1,1.142,1.141" transform="translate(71.809 33.748)" fill="#76d2d6"/>
              <path id="Trazado_191493" data-name="Trazado 191493" d="M137.268,62.255a1.142,1.142,0,1,1-1.144-1.142,1.142,1.142,0,0,1,1.144,1.142" transform="translate(73.651 33.345)" fill="#76d2d6"/>
              <path id="Trazado_191494" data-name="Trazado 191494" d="M207.376,71.7V57.01h-2.581V71.969s18.7,26.764,18.7,34.993c0,4-1.284,6.532-4.742,7.795a11.375,11.375,0,0,1-3.9.645h-30.4a11.381,11.381,0,0,1-3.9-.645c-3.458-1.263-4.742-3.8-4.742-7.795,0-8.229,18.7-34.993,18.7-34.993V57.01h-2.581V71.7s-19.982,28.712-19.982,38.274c0,4.645,1.493,7.592,5.51,9.059a13.213,13.213,0,0,0,4.533.748h35.327a13.213,13.213,0,0,0,4.533-.748c4.019-1.467,5.51-4.414,5.51-9.059,0-9.563-19.982-38.274-19.982-38.274" transform="translate(93.817 31.106)" fill="#edf6ff"/>
              <rect id="Rectángulo_40300" data-name="Rectángulo 40300" width="2.581" height="4.464" transform="translate(298.612 88.116)" fill="#b7d0d2"/>
              <rect id="Rectángulo_40301" data-name="Rectángulo 40301" width="2.581" height="4.464" transform="translate(285.743 88.116)" fill="#b7d0d2"/>
              <g id="Grupo_147570" data-name="Grupo 147570" transform="translate(269.627 88.116)" opacity="0.32" style="mix-blend-mode: screen;isolation: isolate">
                <g id="Grupo_147569" data-name="Grupo 147569">
                  <g id="Grupo_147568" data-name="Grupo 147568" clip-path="url(#clip-path-4)">
                    <path id="Trazado_191495" data-name="Trazado 191495" d="M203.43,71.967V57.01H193.142V71.967s-18.7,26.766-18.7,34.993c0,4,1.284,6.533,4.742,7.8a11.375,11.375,0,0,0,3.9.645h30.4a11.387,11.387,0,0,0,3.9-.645c3.458-1.263,4.742-3.8,4.742-7.8,0-8.227-18.7-34.993-18.7-34.993" transform="translate(-174.445 -57.01)" fill="#fff"/>
                  </g>
                </g>
              </g>
              <path id="Trazado_191496" data-name="Trazado 191496" d="M214.062,78.478a36.113,36.113,0,0,1-6.475,3.2c-5.577,2.1-10.122.662-15.243-1.892a18.525,18.525,0,0,0-10.3-1.825c-4.026,6.9-7.6,14.05-7.6,17.65,0,4,1.284,6.533,4.742,7.795a11.337,11.337,0,0,0,3.9.646h30.4a11.337,11.337,0,0,0,3.9-.646c3.458-1.261,4.742-3.8,4.742-7.795,0-3.572-3.526-10.64-7.513-17.493-.182.124-.363.247-.55.365" transform="translate(95.182 42.459)" fill="#a0a9b6"/>
              <path id="Trazado_191497" data-name="Trazado 191497" d="M200.634,60.335H186.2a2.825,2.825,0,0,1-2.825-2.825v-.057a2.826,2.826,0,0,1,2.825-2.825h14.438a2.827,2.827,0,0,1,2.825,2.825v.057a2.826,2.826,0,0,1-2.825,2.825" transform="translate(100.052 29.806)" fill="#edf6ff"/>
              <rect id="Rectángulo_40303" data-name="Rectángulo 40303" width="2.464" height="120.593" transform="translate(254.229 40.577)" fill="#110239"/>
              <rect id="Rectángulo_40304" data-name="Rectángulo 40304" width="57.67" height="4.107" transform="translate(235.798 94.309)" fill="#110239"/>
              <rect id="Rectángulo_40305" data-name="Rectángulo 40305" width="57.67" height="4.107" transform="translate(208.737 55.437)" fill="#110239"/>
              <path id="Trazado_191508" data-name="Trazado 191508" d="M170.157,38.468a3.6,3.6,0,1,1-3.6-3.6,3.6,3.6,0,0,1,3.6,3.6" transform="translate(88.909 19.023)" fill="#110239"/>
              <path id="Trazado_191509" data-name="Trazado 191509" d="M167.444,37.761a1.6,1.6,0,1,1-1.6-1.6,1.6,1.6,0,0,1,1.6,1.6" transform="translate(89.617 19.73)" fill="#8397ca"/>
              <path id="Trazado_191510" data-name="Trazado 191510" d="M170.157,63.618a3.6,3.6,0,1,1-3.6-3.6,3.6,3.6,0,0,1,3.6,3.6" transform="translate(88.909 32.745)" fill="#110239"/>
              <path id="Trazado_191511" data-name="Trazado 191511" d="M167.444,62.911a1.6,1.6,0,1,1-1.6-1.6,1.6,1.6,0,0,1,1.6,1.6" transform="translate(89.617 33.453)" fill="#8397ca"/>
              <path id="Trazado_191512" data-name="Trazado 191512" d="M208.288,67.606H183.071a3.849,3.849,0,0,1-3.85-3.849v-.079a3.849,3.849,0,0,1,3.85-3.849h25.217a3.849,3.849,0,0,1,3.849,3.849v.079a3.849,3.849,0,0,1-3.849,3.849" transform="translate(97.788 32.645)" fill="#110239"/>
              <path id="Trazado_191513" data-name="Trazado 191513" d="M152.5,42.456H127.281a3.849,3.849,0,0,1-3.85-3.849v-.079a3.849,3.849,0,0,1,3.85-3.849H152.5a3.849,3.849,0,0,1,3.849,3.849v.079a3.849,3.849,0,0,1-3.849,3.849" transform="translate(67.347 18.922)" fill="#110239"/>
              <g id="Grupo_147573" data-name="Grupo 147573" transform="translate(28.782 62.355)" opacity="0.32" style="mix-blend-mode: screen;isolation: isolate">
                <g id="Grupo_147572" data-name="Grupo 147572">
                  <g id="Grupo_147571" data-name="Grupo 147571" clip-path="url(#clip-path-5)">
                    <path id="Trazado_191514" data-name="Trazado 191514" d="M56.1,58.288V40.343H46.283V58.288C31.377,61.275,18.622,74.435,18.622,90.22a32.571,32.571,0,0,0,65.142,0c0-15.785-12.755-28.945-27.661-31.933" transform="translate(-18.621 -40.343)" fill="#fff"/>
                  </g>
                </g>
              </g>
              <path id="Trazado_191515" data-name="Trazado 191515" d="M62.52,69.359a27.175,27.175,0,0,1-17.789-1.416c-7.6-3.544-14.521-5.557-21.911-4.237a30.1,30.1,0,0,0-4.2,15.169,32.571,32.571,0,0,0,65.142,0,30.525,30.525,0,0,0-5.855-17.741c-5.227,2.448-9.722,6.873-15.388,8.224" transform="translate(10.16 33.357)" fill="#6a9aee"/>
              <path id="Trazado_191516" data-name="Trazado 191516" d="M60.484,54.094V40.343H57.936V58.288c14.9,2.988,27.659,16.147,27.659,31.933a32.57,32.57,0,1,1-65.14,0c0-15.785,12.755-28.945,27.661-31.933V40.343h-2.55V54.094a37.76,37.76,0,1,0,14.92,0" transform="translate(8.328 22.012)" fill="#edf6ff"/>
              <rect id="Rectángulo_40307" data-name="Rectángulo 40307" width="14.92" height="6.836" transform="translate(53.893 62.355)" fill="#b7d0d2"/>
              <path id="Trazado_191517" data-name="Trazado 191517" d="M52.624,43.36H35.283a3.394,3.394,0,0,1-3.394-3.393V39.9a3.394,3.394,0,0,1,3.394-3.393h17.34A3.393,3.393,0,0,1,56.016,39.9v.07a3.393,3.393,0,0,1-3.393,3.393" transform="translate(17.399 19.918)" fill="#edf6ff"/>
              <path id="Trazado_191518" data-name="Trazado 191518" d="M31.581,70.571a3.558,3.558,0,1,1-3.558-3.556,3.557,3.557,0,0,1,3.558,3.556" transform="translate(13.349 36.565)" fill="#6fc6ec"/>
              <path id="Trazado_191519" data-name="Trazado 191519" d="M33.276,76.254A1.652,1.652,0,1,1,31.625,74.6a1.65,1.65,0,0,1,1.651,1.652" transform="translate(16.354 40.705)" fill="#6fc6ec"/>
              <path id="Trazado_191520" data-name="Trazado 191520" d="M47.75,74.245a4.574,4.574,0,1,1-4.574-4.574,4.574,4.574,0,0,1,4.574,4.574" transform="translate(21.063 38.014)" fill="#6fc6ec"/>
              <path id="Trazado_191521" data-name="Trazado 191521" d="M54.856,72.66a2.413,2.413,0,1,1-2.414-2.414,2.414,2.414,0,0,1,2.414,2.414" transform="translate(27.297 38.328)" fill="#6fc6ec"/>
              <path id="Trazado_191522" data-name="Trazado 191522" d="M60.177,81.416a4.828,4.828,0,1,1-4.827-4.827,4.827,4.827,0,0,1,4.827,4.827" transform="translate(27.566 41.789)" fill="#6fc6ec"/>
              <path id="Trazado_191523" data-name="Trazado 191523" d="M60.55,67.615a2.8,2.8,0,1,1-2.794-2.794,2.795,2.795,0,0,1,2.794,2.794" transform="translate(29.987 35.368)" fill="#6fc6ec"/>
              <path id="Trazado_191524" data-name="Trazado 191524" d="M49.73,85.344a2.6,2.6,0,1,1-2.6-2.6,2.6,2.6,0,0,1,2.6,2.6" transform="translate(24.292 45.145)" fill="#6fc6ec"/>
              <path id="Trazado_191525" data-name="Trazado 191525" d="M41.265,87.357a6.1,6.1,0,1,1-6.1-6.1,6.1,6.1,0,0,1,6.1,6.1" transform="translate(15.86 44.338)" fill="#6fc6ec"/>
              <path id="Trazado_191526" data-name="Trazado 191526" d="M31.581,80.967a3.558,3.558,0,1,1-3.558-3.556,3.557,3.557,0,0,1,3.558,3.556" transform="translate(13.349 42.237)" fill="#6fc6ec"/>
              <path id="Trazado_191527" data-name="Trazado 191527" d="M44.26,80.678a2.541,2.541,0,1,1-2.541-2.541,2.541,2.541,0,0,1,2.541,2.541" transform="translate(21.377 42.634)" fill="#6fc6ec"/>
              <path id="Trazado_191528" data-name="Trazado 191528" d="M43.125,89.716A1.715,1.715,0,1,1,41.409,88a1.716,1.716,0,0,1,1.716,1.716" transform="translate(21.659 48.015)" fill="#6fc6ec"/>
              <path id="Trazado_191529" data-name="Trazado 191529" d="M54.326,60.752l.68-2.039H85.467l-.649,2.039Z" transform="translate(29.642 32.035)" fill="#110239"/>
              <path id="Trazado_191530" data-name="Trazado 191530" d="M51.984,67.785l.688-2.06H83.295l-.657,2.06Z" transform="translate(28.364 35.861)" fill="#110239"/>
              <path id="Trazado_191531" data-name="Trazado 191531" d="M62.755,51.688a2.4,2.4,0,0,1-.878,2.039h23.4l.649-2.039Z" transform="translate(33.762 28.202)" fill="#110239"/>
              <path id="Trazado_191532" data-name="Trazado 191532" d="M49.616,74.894l.694-2.082H81.1l-.663,2.082Z" transform="translate(27.072 39.728)" fill="#110239"/>
              <path id="Trazado_191533" data-name="Trazado 191533" d="M47.223,82.08l.7-2.105H78.877l-.669,2.105Z" transform="translate(25.766 43.636)" fill="#110239"/>
              <path id="Trazado_191534" data-name="Trazado 191534" d="M44.8,89.343l.709-2.128H76.634l-.679,2.128Z" transform="translate(24.446 47.587)" fill="#110239"/>
              <path id="Trazado_191535" data-name="Trazado 191535" d="M42.358,96.686l.717-2.152h31.29l-.685,2.152Z" transform="translate(23.112 51.58)" fill="#110239"/>
              <path id="Trazado_191536" data-name="Trazado 191536" d="M68.864,49.244a1.4,1.4,0,0,0-1.093.924l-28.606,85.69a1.41,1.41,0,0,0,1.337,1.856h.142a1.412,1.412,0,0,0,1.339-.964L69.937,52.64a11.991,11.991,0,0,1-1.073-3.4" transform="translate(21.329 26.869)" fill="#110239"/>
              <path id="Trazado_191537" data-name="Trazado 191537" d="M60.7,137.728H60.54A1.409,1.409,0,0,1,59.2,135.89L86.548,50.2a1.409,1.409,0,0,1,1.343-.98h.029a1.409,1.409,0,0,1,1.343,1.836l-27.225,85.69a1.409,1.409,0,0,1-1.343.983" transform="translate(32.263 26.855)" fill="#110239"/>
              <path id="Trazado_191538" data-name="Trazado 191538" d="M92.986,60.752l-.68-2.039H61.845l.649,2.039Z" transform="translate(33.744 32.035)" fill="#6a9aee"/>
              <path id="Trazado_191539" data-name="Trazado 191539" d="M95.389,67.785l-.688-2.06H64.078l.657,2.06Z" transform="translate(34.962 35.861)" fill="#6a9aee"/>
              <path id="Trazado_191540" data-name="Trazado 191540" d="M90.022,53.726l-.68-2.039H58.881l.649,2.039Z" transform="translate(32.127 28.202)" fill="#6a9aee"/>
              <path id="Trazado_191541" data-name="Trazado 191541" d="M97.816,74.894l-.694-2.082H66.335L67,74.894Z" transform="translate(36.194 39.728)" fill="#6a9aee"/>
              <path id="Trazado_191542" data-name="Trazado 191542" d="M100.271,82.08l-.7-2.105H68.616l.669,2.105Z" transform="translate(37.439 43.636)" fill="#6a9aee"/>
              <path id="Trazado_191543" data-name="Trazado 191543" d="M102.752,89.343l-.709-2.128H70.921l.679,2.128Z" transform="translate(38.697 47.587)" fill="#6a9aee"/>
              <path id="Trazado_191544" data-name="Trazado 191544" d="M105.26,96.686l-.717-2.152H73.253l.685,2.152Z" transform="translate(39.969 51.58)" fill="#6a9aee"/>
              <path id="Trazado_191545" data-name="Trazado 191545" d="M106.966,137.728h.144a1.41,1.41,0,0,0,1.337-1.856L79.839,50.182a1.408,1.408,0,0,0-1.337-.963H76.531l29.1,87.544a1.41,1.41,0,0,0,1.337.964" transform="translate(41.757 26.855)" fill="#6a9aee"/>
              <path id="Trazado_191546" data-name="Trazado 191546" d="M86.285,137.728h.156a1.409,1.409,0,0,0,1.342-1.838L60.432,50.2a1.409,1.409,0,0,0-1.343-.98H59.06a1.409,1.409,0,0,0-1.343,1.836l27.225,85.69a1.409,1.409,0,0,0,1.343.983" transform="translate(31.455 26.855)" fill="#6a9aee"/>
              <path id="Trazado_191547" data-name="Trazado 191547" d="M45.245,38.5l55.4-32.886c3.4-2.019,5.985-.439,7.669,2.4l.062.1c1.686,2.841,1.835,5.866-1.564,7.883l-55.4,32.888,1.485,2.5,58.556-34.76a8.86,8.86,0,0,0,3.094-12.141l-.091-.153a8.858,8.858,0,0,0-12.139-3.1L43.76,36Z" transform="translate(23.877 0)" fill="#edf6ff"/>
              <rect id="Rectángulo_40308" data-name="Rectángulo 40308" width="6.04" height="2.908" transform="translate(67.637 36.003) rotate(-30.7)" fill="#b7d0d2"/>
              <rect id="Rectángulo_40309" data-name="Rectángulo 40309" width="6.04" height="2.908" transform="translate(75.288 48.892) rotate(-30.7)" fill="#b7d0d2"/>
              <g id="Grupo_147576" data-name="Grupo 147576" transform="translate(69.122 4.708)" opacity="0.32" style="mix-blend-mode: screen;isolation: isolate">
                <g id="Grupo_147575" data-name="Grupo 147575">
                  <g id="Grupo_147574" data-name="Grupo 147574" clip-path="url(#clip-path-6)">
                    <path id="Trazado_191548" data-name="Trazado 191548" d="M107.79,6.356l.062.1c1.686,2.839,1.835,5.864-1.566,7.881l-55.4,32.888L44.721,36.842l55.4-32.886c3.4-2.019,5.983-.439,7.669,2.4" transform="translate(-44.721 -3.046)" fill="#fff"/>
                  </g>
                </g>
              </g>
              <path id="Trazado_191549" data-name="Trazado 191549" d="M107.873,8.606a8.941,8.941,0,0,0-.944-2.145l-.062-.105a10.263,10.263,0,0,0-.674-1,6.816,6.816,0,0,0-1.6-1.539,4.34,4.34,0,0,0-3-.737,6.224,6.224,0,0,0-2.4.876l0,0C90.628,9.042,82.327,14.4,73.642,19.125l-6.1,3.621a16.674,16.674,0,0,0-4.668,5.017c-2.733,4.557-6.332,6.387-10.342,9.693-1.743,1.437-4.706,2.679-6.118,4.436l3.549,5.337,55.4-32.886a6.193,6.193,0,0,0,1.917-1.685,4.386,4.386,0,0,0,.518-.947,4.469,4.469,0,0,0,.274-2.042,6.086,6.086,0,0,0-.2-1.063" transform="translate(25.325 1.662)" fill="#ddc192"/>
              <path id="Trazado_191550" data-name="Trazado 191550" d="M46.743,22.916l8.988,15.139a2.27,2.27,0,0,1-.794,3.111l-.039.023a2.272,2.272,0,0,1-3.111-.793L42.8,25.258a2.27,2.27,0,0,1,.793-3.111l.039-.023a2.271,2.271,0,0,1,3.111.793" transform="translate(23.179 11.897)" fill="#edf6ff"/>
              <g id="Grupo_147581" data-name="Grupo 147581">
                <path id="Trazado_191551" data-name="Trazado 191551" d="M71.173,15.151a1.566,1.566,0,1,1-.547,2.145,1.565,1.565,0,0,1,.547-2.145" transform="translate(38.415 8.146)" fill="#ebd1a5"/>
                <path id="Trazado_191552" data-name="Trazado 191552" d="M51.763,26.546a1.566,1.566,0,1,1-.547,2.145,1.565,1.565,0,0,1,.547-2.145" transform="translate(27.825 14.364)" fill="#ebd1a5"/>
                <path id="Trazado_191553" data-name="Trazado 191553" d="M66.987,13.045a2.516,2.516,0,1,1-.879,3.448,2.517,2.517,0,0,1,.879-3.448" transform="translate(35.877 6.925)" fill="#ebd1a5"/>
                <path id="Trazado_191554" data-name="Trazado 191554" d="M56.066,22.618a2.516,2.516,0,1,1-.879,3.448,2.517,2.517,0,0,1,.879-3.448" transform="translate(29.919 12.148)" fill="#ebd1a5"/>
                <path id="Trazado_191555" data-name="Trazado 191555" d="M74.561,10.862a2.238,2.238,0,1,1-.782,3.067,2.237,2.237,0,0,1,.782-3.067" transform="translate(40.084 5.755)" fill="#ebd1a5"/>
                <path id="Trazado_191556" data-name="Trazado 191556" d="M63.129,18.746a2.238,2.238,0,1,1-.782,3.067,2.237,2.237,0,0,1,.782-3.067" transform="translate(33.847 10.057)" fill="#ebd1a5"/>
                <path id="Trazado_191557" data-name="Trazado 191557" d="M82.587,5.745a2.4,2.4,0,1,1-.841,3.3,2.4,2.4,0,0,1,.841-3.3" transform="translate(44.419 2.95)" fill="#ebd1a5"/>
                <path id="Trazado_191558" data-name="Trazado 191558" d="M70.876,10.352a1.622,1.622,0,1,1-.567,2.223,1.621,1.621,0,0,1,.567-2.223" transform="translate(38.238 5.524)" fill="#ebd1a5"/>
                <path id="Trazado_191559" data-name="Trazado 191559" d="M58.96,18.955a1.622,1.622,0,1,1-.567,2.223,1.621,1.621,0,0,1,.567-2.223" transform="translate(31.736 10.219)" fill="#ebd1a5"/>
                <path id="Trazado_191560" data-name="Trazado 191560" d="M80.124,9.983a1.324,1.324,0,1,1-.462,1.813,1.325,1.325,0,0,1,.462-1.813" transform="translate(43.364 5.346)" fill="#ebd1a5"/>
                <path id="Trazado_191561" data-name="Trazado 191561" d="M60.321,22.192a.808.808,0,1,1-.283,1.108.809.809,0,0,1,.283-1.108" transform="translate(32.697 12.047)" fill="#ebd1a5"/>
                <path id="Trazado_191562" data-name="Trazado 191562" d="M67.008,17.99a.808.808,0,1,1-.283,1.108.809.809,0,0,1,.283-1.108" transform="translate(36.345 9.754)" fill="#ebd1a5"/>
                <path id="Trazado_191563" data-name="Trazado 191563" d="M74.568,8.833a.808.808,0,1,1-.283,1.107.808.808,0,0,1,.283-1.107" transform="translate(40.47 4.758)" fill="#ebd1a5"/>
                <path id="Trazado_191564" data-name="Trazado 191564" d="M77.389,7.053a1.324,1.324,0,1,1-.462,1.813,1.325,1.325,0,0,1,.462-1.813" transform="translate(41.872 3.747)" fill="#ebd1a5"/>
                <path id="Trazado_191565" data-name="Trazado 191565" d="M62.964,15.648a1.324,1.324,0,1,1-.462,1.815,1.326,1.326,0,0,1,.462-1.815" transform="translate(34.001 8.438)" fill="#ebd1a5"/>
              </g>
              <path id="Trazado_191566" data-name="Trazado 191566" d="M76.007,76.92s.2,3.83-.36,4.4-8.141,1.4-8.852.751-.417-1.85,1.178-2.431c1.711-.624,2.607-.215,3.666-.759s.635-2.247.635-2.247Z" transform="translate(36.246 41.813)" fill="#110239"/>
              <path id="Trazado_191567" data-name="Trazado 191567" d="M83.36,76.92s-.2,3.83.36,4.4,8.141,1.4,8.85.751.417-1.85-1.178-2.431c-1.713-.624-2.607-.215-3.666-.759s-.635-2.247-.635-2.247Z" transform="translate(45.465 41.813)" fill="#110239"/>
              <path id="Trazado_191568" data-name="Trazado 191568" d="M91.783,72.042c-.828-4.172-2.221-15.558-3.869-19.507-.662-.223-1.386-.444-2.121-.657.192-.889.321-6.227.464-6.9-1.289.342-2.658.505-4.045.946-.189.06-.4.124-.618.187-.219-.063-.43-.127-.617-.187-1.386-.44-2.756-.6-4.046-.946.144.669.272,6.008.465,6.9-.736.213-1.461.434-2.122.657-1.646,3.949-1.516,15.336-2.343,19.507-1.145,5.771-3.059,22.883-3.059,22.883l4.878.643s5.377-22.827,5.6-24.262c.83-5.314,1.215-12.857,1.5-12.925.685-.164,1.621,8.421,2.513,12.925.283,1.425,5.6,24.262,5.6,24.262l4.878-.643s-1.913-17.112-3.059-22.883" transform="translate(38.124 24.543)" fill="#a0a9b6"/>
              <path id="Trazado_191569" data-name="Trazado 191569" d="M88.45,16.855c-.287-1.981-.583-2.288-1.249-2.677a2.566,2.566,0,0,1-.836-.629,5.489,5.489,0,0,0-.89-.81,2.165,2.165,0,0,1-.8-.886c-.153-.476.47-.346.873-.2.437.159,1.258,1.365,1.725,1.2s-.628-1.57-.849-1.847c-.524-.652-1.144-.564-1.839-.866-.406-.176-.538-.38-.1-.641a1.324,1.324,0,0,1,1.074.076,4.537,4.537,0,0,1,1.873,1.165A5.261,5.261,0,0,0,85.8,9.473c-.351-.179-1.983-.68-1.75-1.258.468-1.159,3.641,1.026,3.988,1.638a6.227,6.227,0,0,0-1.564-1.38c-.335-.24-1.155-.771-.468-1.048,1.015-.408,2.241,1.475,2.94,2.218A7.278,7.278,0,0,0,87.768,8.05c-.56-.68.134-.853.828-.257a9.936,9.936,0,0,1,.892.98c1.107,1.4,1.148,2.331,1.345,4.034.07.611.087,1.607.287,3.388.114,1.023-1.815.495-2.671.66" transform="translate(45.85 4.02)" fill="#ff9d8a"/>
              <path id="Trazado_191570" data-name="Trazado 191570" d="M59.375,33.727c-1.875-.7-2.105-1.456-2.343-2.19a2.588,2.588,0,0,0-.436-.952,5.559,5.559,0,0,1-.6-1.043,2.151,2.151,0,0,0-.7-.964c-.431-.253-.437.385-.38.808.062.462,1.063,1.522.8,1.941s-1.4-.949-1.624-1.224c-.526-.651-.308-1.238-.453-1.98-.085-.434-.255-.607-.6-.235a1.316,1.316,0,0,0-.155,1.065,4.517,4.517,0,0,0,.737,2.08,5.264,5.264,0,0,1-.889-1.867c-.1-.382-.241-2.084-.855-1.978-1.233.21.224,3.778.75,4.246a6.175,6.175,0,0,1-1.014-1.822c-.164-.38-.509-1.294-.924-.682-.615.9.961,2.505,1.538,3.346a7.327,7.327,0,0,1-1.3-1.495c-.544-.692-.862-.051-.428.754a10,10,0,0,0,.767,1.08c1.127,1.38,2.033,1.621,3.654,2.176a15.612,15.612,0,0,1,3.119,1.178c.927.45,1-1.441,1.34-2.243" transform="translate(27.441 14.832)" fill="#ff9d8a"/>
              <path id="Trazado_191571" data-name="Trazado 191571" d="M80.85,29.046a11.718,11.718,0,0,1-3.2.155,4.687,4.687,0,0,1-1.119-.24c.048,1.331.046,4.414-.889,5.68,0,0,.332,1.488,3.048,1.529s3.054-1.529,3.054-1.529a13.833,13.833,0,0,1-.9-5.6" transform="translate(41.274 15.802)" fill="#ff9d8a"/>
              <path id="Trazado_191572" data-name="Trazado 191572" d="M93.35,34.751c-.74-.944-2.238-4.167-4.621-3.818-4.224.618-8.932.553-12.79,1.165-2.379.376-4.745.978-5.485,1.924-.929,1.184,1.847,7.827,2.309,13.92.158,2.079.366,3.965.558,5.462.275,2.144-1.425,25.843-1.425,25.843,3.884,1.675,16.9,2.917,20.119-.513,0,0-3.113-23.285-2.856-25.517.175-1.519.253-5.461.589-7.371,1.076-6.139,4.541-9.9,3.6-11.1" transform="translate(38.338 16.864)" fill="#edf6ff"/>
              <path id="Trazado_191573" data-name="Trazado 191573" d="M74.648,57.228c-.238-2.79.264-10.482.368-12.671.077-1.64.62-4.578.014-6.082-.864-2.148-2.815-2.954-4.62-3.935.368,1.869,1.131,4.53,1.688,7.366.043.223.088.445.13.669.034.185.063.373.094.56q.079.466.145.934c.023.159.045.317.065.476.06.473.113.946.148,1.416.158,2.079.368,3.965.56,5.462.275,2.144-1.425,25.843-1.425,25.843a17.236,17.236,0,0,0,3.257.912c-.334-4.9-.329-19.847-.424-20.949" transform="translate(38.418 18.846)" fill="#c6d1de"/>
              <path id="Trazado_191574" data-name="Trazado 191574" d="M85.344,25.156s-5.631-3.312-6.484-2.5-2.19,3.584-2.838,4.008-1.657.822-1.569,1.32.419.532.391,1.034-1.167,2.9-.544,3.614,4.714,2.269,7.173.635,6.643-6.631,3.87-8.113" transform="translate(40.439 12.293)" fill="#ff9d8a"/>
              <path id="Trazado_191575" data-name="Trazado 191575" d="M84.887,25.025l-4.742.076a9.691,9.691,0,0,1-2.917,3.852s.113.7.62.555a1.58,1.58,0,0,0,1.161-.733c.34-.533,1.363-1.915,2.059-.7s-.793,1.629-1.417,1.618c0,0-2.159,2.617-.479,3.108,0,0,1.875-.278,4.728-3.306s2.266-4.708.988-4.47" transform="translate(42.138 13.642)" fill="#110239"/>
              <path id="Trazado_191576" data-name="Trazado 191576" d="M76.705,21.43s-2.3,1.4.363,4.2,8.954,1.326,8.954,1.326.668-1.827-1.6-3.745c-1.7-1.433-3.56-2.162-5.054-1.476-2.543,1.168-2.66-.309-2.66-.309" transform="translate(41.348 11.693)" fill="#110239"/>
              <path id="Trazado_191577" data-name="Trazado 191577" d="M56.48,30.836l-2.016,3.21A91.259,91.259,0,0,0,65.617,42.98c3.471,2.3,15.36-1.38,17.2-1.93,2.623-.788,4.6-6.342.218-8.405-2.564-1.209-12.853,6.609-15.374,5.284C64.5,36.269,56.48,30.836,56.48,30.836" transform="translate(29.718 16.825)" fill="#edf6ff"/>
              <path id="Trazado_191578" data-name="Trazado 191578" d="M89.268,13.2l4-.669s2.02,13.6,1.862,17.762-7.7,16.784-9.206,17.966c-1.816,1.422-7.434-1.9-3.787-6.328A73.863,73.863,0,0,0,89.756,29.74c.1-.372-.488-16.537-.488-16.537" transform="translate(44.16 6.839)" fill="#edf6ff"/>
              <path id="Trazado_191579" data-name="Trazado 191579" d="M133.077,72.031c-.519.151-2.218-.728-3.187-1.532a13.166,13.166,0,0,0-2.8-1.42,11.182,11.182,0,0,0,.417-1.7c0,.026,1.6.475,1.76.549.532.24.909.719,1.561.626a4.681,4.681,0,0,0,.91-.328c.354-.139,1.26-.856,1.645-.652.578.3-.49.886-.623,1.066-.2.27-.195.805.263.74.629-.09,1.757-.7,2.379-.315.782.479-1.876.915-2.346,1.142.737-.275,3.111-.706,3.25-.283.269.813-2.207.934-2.915,1.189a3.322,3.322,0,0,1,1.961-.184c.827.4-1.759.951-2.278,1.1" transform="translate(69.345 36.764)" fill="#ff9d8a"/>
              <path id="Trazado_191580" data-name="Trazado 191580" d="M114.5,46.344c.066.073.128.148.2.219a13.924,13.924,0,0,0,2.084,1.813c.464.308,1.184.509,1.583.832a4.56,4.56,0,0,0,.5.352,38.349,38.349,0,0,0-.717,6.051s-4.155-.294-5.671-1.974a42.2,42.2,0,0,0,2.025-7.294" transform="translate(61.369 25.287)" fill="#ff9d8a"/>
              <path id="Trazado_191581" data-name="Trazado 191581" d="M118.643,50.849c.083-.516.162-.968.219-1.289a4.56,4.56,0,0,1-.5-.352c-.4-.323-1.119-.524-1.583-.832a13.924,13.924,0,0,1-2.084-1.813c-.07-.071-.131-.147-.2-.219a42.2,42.2,0,0,1-2.025,7.294,5.478,5.478,0,0,0,2.349,1.325,4.8,4.8,0,0,1,3.819-4.113" transform="translate(61.369 25.287)" fill="#e17c5e"/>
              <path id="Trazado_191582" data-name="Trazado 191582" d="M115.273,94.545s.114,4.144.762,4.71,8.89.813,9.6.057.294-2.029-1.476-2.519c-1.9-.527-2.827-.011-4.014-.505s-.875-2.368-.875-2.368Z" transform="translate(62.896 51.245)" fill="#110239"/>
              <path id="Trazado_191583" data-name="Trazado 191583" d="M102.149,94.358s-.637,4.036-.011,4.626,9.022,1.25,9.759.522.371-2.016-1.376-2.575c-1.878-.6-2.785-.219-4-.66-.951-.346-.311-2.269-.311-2.269Z" transform="translate(55.579 51.291)" fill="#110239"/>
              <path id="Trazado_191584" data-name="Trazado 191584" d="M108.269,87.337a123.642,123.642,0,0,1,1.72-23.039,10.53,10.53,0,0,1,4.116.8c2.516,1.145,5.046,2.244,7.574,3.345a163.149,163.149,0,0,0-7.087,21.01c-.672,3.607-8.215,22.014-8.215,22.014l-4.564-.573c.074-2.968,6.472-22.557,6.456-23.552" transform="translate(55.552 35.083)" fill="#110239"/>
              <path id="Trazado_191585" data-name="Trazado 191585" d="M114.9,66.5a41.929,41.929,0,0,0,4.073,1.657c-2.015,4.165-5.688,15.69-6.518,18.753-.64-1.932-3.736-6.6-4.924-11.717a27.275,27.275,0,0,1-.383-10.425l.006-.042A19.643,19.643,0,0,1,114.9,66.5" transform="translate(58.282 35.316)" fill="#0d1124"/>
              <path id="Trazado_191586" data-name="Trazado 191586" d="M111.356,66.839c1.777.6,5.014,1.461,7.458,2.334,1.7,4.3,6.73,14.452,6.991,19.042.289,5.065-1.464,24.251-1.464,24.251h-5.223S118.634,90.84,117.9,89.45c-2.411-4.583-5.076-8.213-6.591-11.065a35.524,35.524,0,0,1-3.852-10.094c-.2-.988-1.062-4.3.617-5.339,1.388.394,1.79,3.385,3.28,3.887" transform="translate(58.416 34.348)" fill="#110239"/>
              <path id="Trazado_191587" data-name="Trazado 191587" d="M126.043,87.791a24.7,24.7,0,0,1-12.158,3.053c-3.213-.015-6.68-.555-8.552-1.564,0,0,1.028-13.343,1.26-14.938.679-4.652,2.227-14.234,3.946-17.9,2.306-4.915,6.1-5.856,6.1-5.856a12.944,12.944,0,0,0,5.425,1.7s-.059,9.58-.246,13.4c-.121,2.476-.148,6.47-.155,8.979,0,1.368,4.383,13.124,4.383,13.124" transform="translate(57.472 27.603)" fill="#edf6ff"/>
              <path id="Trazado_191588" data-name="Trazado 191588" d="M109.429,71.482c.577-7.555,2.42-14.615,6.575-20.747a10.919,10.919,0,0,0-5.467,5.632c-1.719,3.66-3.266,13.241-3.944,17.9-.233,1.594-1.261,14.938-1.261,14.938a17.72,17.72,0,0,0,6.487,1.479c-2.465-5.94-2.822-13.521-2.39-19.2" transform="translate(57.472 27.682)" fill="#c6d1de"/>
              <path id="Trazado_191589" data-name="Trazado 191589" d="M114.476,66.651a9.327,9.327,0,0,0,3.342,6.271l.04.032a3.984,3.984,0,0,1-.133-.726c0-2.509.034-6.5.155-8.979.015-.339.031-.733.046-1.151,0-.082,0-.162.008-.247.014-.42.028-.866.039-1.339l0-.172c.011-.45.022-.917.031-1.394l0-.238c.011-.532.02-1.071.029-1.611v-.025a3.118,3.118,0,0,1-.589-.04,13.856,13.856,0,0,1-4.247-1.974l-.66.352a22.626,22.626,0,0,0,1.1,5.515,52.6,52.6,0,0,1,.832,5.725" transform="translate(61.407 30.042)" fill="#c6d1de"/>
              <path id="Trazado_191590" data-name="Trazado 191590" d="M136.305,77.848l1.835-3.632s-9.1-5.824-12.422-9.179S118.8,54.855,116.26,54.425s-5.088.969-3.62,4.5,8.907,8.207,10.422,9.761,11.756,8.328,13.243,9.162" transform="translate(61.224 29.655)" fill="#edf6ff"/>
              <path id="Trazado_191591" data-name="Trazado 191591" d="M113.606,41.85s6.713-.768,7.178.36.566,4.306,1,4.977,1.221,1.475.927,1.907-.617.328-.8.813-.116,3.233-1,3.643-5.408.168-7.047-2.408-3.5-9.054-.255-9.292" transform="translate(61.014 22.695)" fill="#ff9d8a"/>
              <path id="Trazado_191592" data-name="Trazado 191592" d="M112.444,42.239,116.9,44.3a10,10,0,0,0,1.141,4.864s-.4.614-.819.266a1.624,1.624,0,0,1-.788-1.179c-.1-.646-.487-2.382-1.654-1.526s.066,1.872.66,2.124c0,0,.943,3.38-.85,3.139,0,0-1.655-1.049-3.082-5.108s-.168-5.4.941-4.64" transform="translate(60.491 22.936)" fill="#110239"/>
              <path id="Trazado_191593" data-name="Trazado 191593" d="M122.807,41.9s1.592,2.289-2.108,3.821-9.02-2.5-9.02-2.5.138-2.008,3.088-2.867c2.206-.641,4.272-.552,5.4.725,1.912,2.172,2.643.824,2.643.824" transform="translate(60.934 21.802)" fill="#110239"/>
            </g>
          </g>
        </g>
      </g>
    </g>
  </g>
</svg>
