<svg xmlns="http://www.w3.org/2000/svg" xmlns:xlink="http://www.w3.org/1999/xlink" width="820" height="174.575" viewBox="0 0 820 174.575">
  <defs>
    <clipPath id="clip-path">
      <rect id="Rectángulo_39974" data-name="Rectángulo 39974" width="211.655" height="174.575" fill="none"/>
    </clipPath>
  </defs>
  <g id="Grupo_148073" data-name="Grupo 148073" transform="translate(-390 -393.426)">
    <g id="Grupo_147058" data-name="Grupo 147058" transform="translate(0 19)">
      <rect id="Rectángulo_39973" data-name="Rectángulo 39973" width="820" height="7" transform="translate(390 542)" fill="#9eb7e5"/>
      <path id="Trazado_190885" data-name="Trazado 190885" d="M186.266,15.737a5.073,5.073,0,0,1,1.917.376,1.418,1.418,0,0,1,1.092-.531,1.361,1.361,0,0,1,.57.126A2.565,2.565,0,0,1,192.3,13.22a2.314,2.314,0,0,1,1.495.555,1.423,1.423,0,0,1,1.181-.66,1.453,1.453,0,0,1,.239.021,3.749,3.749,0,0,1-.255-1.367A3.336,3.336,0,0,1,198.13,8.29a2.891,2.891,0,0,1,.938.155,1.439,1.439,0,0,1,1.307-.91h.042c-.007-.125-.011-.252-.011-.379a5.729,5.729,0,1,1,11.411,0c0,.048,0,.1,0,.144a3.227,3.227,0,0,1,2.495.326A4.451,4.451,0,0,1,218,5.577a4.8,4.8,0,0,1,4.57,5.007,5.438,5.438,0,0,1-.226,1.558c.045,0,.092-.005.138-.005a2.366,2.366,0,0,1,2.25,2.466,2.719,2.719,0,0,1-.041.469h.047a1.36,1.36,0,0,1,1.3,1.373,3.031,3.031,0,0,1,.6-.061,2.914,2.914,0,0,1,2.116.875c1.462,1.515-.134,1.908-1.672,1.908H184.576c-1.6,0-3.893.288-2.3-1.549a5.276,5.276,0,0,1,3.993-1.879" transform="translate(418.265 470.623)" fill="#dee4f0" fill-rule="evenodd"/>
      <path id="Trazado_190886" data-name="Trazado 190886" d="M186.266,15.737a5.073,5.073,0,0,1,1.917.376,1.418,1.418,0,0,1,1.092-.531,1.361,1.361,0,0,1,.57.126A2.565,2.565,0,0,1,192.3,13.22a2.314,2.314,0,0,1,1.495.555,1.423,1.423,0,0,1,1.181-.66,1.453,1.453,0,0,1,.239.021,3.749,3.749,0,0,1-.255-1.367A3.336,3.336,0,0,1,198.13,8.29a2.891,2.891,0,0,1,.938.155,1.439,1.439,0,0,1,1.307-.91h.042c-.007-.125-.011-.252-.011-.379a5.729,5.729,0,1,1,11.411,0c0,.048,0,.1,0,.144a3.227,3.227,0,0,1,2.495.326A4.451,4.451,0,0,1,218,5.577a4.8,4.8,0,0,1,4.57,5.007,5.438,5.438,0,0,1-.226,1.558c.045,0,.092-.005.138-.005a2.366,2.366,0,0,1,2.25,2.466,2.719,2.719,0,0,1-.041.469h.047a1.36,1.36,0,0,1,1.3,1.373,3.031,3.031,0,0,1,.6-.061,2.914,2.914,0,0,1,2.116.875c1.462,1.515-.134,1.908-1.672,1.908H184.576c-1.6,0-3.893.288-2.3-1.549a5.276,5.276,0,0,1,3.993-1.879" transform="translate(804.038 430.407)" fill="#dee4f0" fill-rule="evenodd"/>
      <path id="Trazado_190887" data-name="Trazado 190887" d="M155.932,109.112,93.9,24.292c-2.3-3.14-6.073-3.118-8.391.051L23.546,109.061a10.169,10.169,0,0,0-1.691,6.916H157.582a10.044,10.044,0,0,0-1.65-6.865" transform="translate(842.356 426.023)" fill="#bee2e4" fill-rule="evenodd"/>
      <path id="Trazado_190888" data-name="Trazado 190888" d="M156.109,31.389a5.476,5.476,0,0,1-4.449,2.378,5.185,5.185,0,0,1-1.876-.35A7.8,7.8,0,0,1,136,33.27l6.529-8.927c2.318-3.169,6.094-3.191,8.391-.051Z" transform="translate(785.335 426.023)" fill="#dee4f0" fill-rule="evenodd"/>
      <path id="Trazado_190889" data-name="Trazado 190889" d="M224.083,46.456l-10.166-6.772a.329.329,0,0,0-.462.1.409.409,0,0,0,.045.514l10.349,10.29a.327.327,0,0,0,.471,0L234.668,40.3a.407.407,0,0,0,.045-.514.329.329,0,0,0-.462-.1Z" transform="translate(730.419 409.962)" fill="#727997" fill-rule="evenodd"/>
      <path id="Trazado_190907" data-name="Trazado 190907" d="M224.083,46.456l-10.166-6.772a.329.329,0,0,0-.462.1.409.409,0,0,0,.045.514l10.349,10.29a.327.327,0,0,0,.471,0L234.668,40.3a.407.407,0,0,0,.045-.514.329.329,0,0,0-.462-.1Z" transform="translate(298.899 435.693)" fill="#727997" fill-rule="evenodd"/>
      <path id="Trazado_190890" data-name="Trazado 190890" d="M234.791,67.951,229.3,64.293a.178.178,0,0,0-.25.053.221.221,0,0,0,.025.278l5.59,5.559a.177.177,0,0,0,.254,0l5.592-5.559a.222.222,0,0,0,.024-.278.179.179,0,0,0-.25-.053Z" transform="translate(725.39 402.032)" fill="#727997" fill-rule="evenodd"/>
      <path id="Trazado_190908" data-name="Trazado 190908" d="M234.791,67.951,229.3,64.293a.178.178,0,0,0-.25.053.221.221,0,0,0,.025.278l5.59,5.559a.177.177,0,0,0,.254,0l5.592-5.559a.222.222,0,0,0,.024-.278.179.179,0,0,0-.25-.053Z" transform="translate(293.869 427.764)" fill="#727997" fill-rule="evenodd"/>
      <path id="Trazado_190891" data-name="Trazado 190891" d="M209.689,64.2l-8.343-5.556a.268.268,0,0,0-.378.081.335.335,0,0,0,.037.422l8.491,8.443a.269.269,0,0,0,.387,0l8.491-8.443a.337.337,0,0,0,.037-.422.27.27,0,0,0-.38-.081Z" transform="translate(734.435 403.854)" fill="#727997" fill-rule="evenodd"/>
      <path id="Trazado_190909" data-name="Trazado 190909" d="M209.689,64.2l-8.343-5.556a.268.268,0,0,0-.378.081.335.335,0,0,0,.037.422l8.491,8.443a.269.269,0,0,0,.387,0l8.491-8.443a.337.337,0,0,0,.037-.422.27.27,0,0,0-.38-.081Z" transform="translate(302.914 429.586)" fill="#727997" fill-rule="evenodd"/>
      <rect id="Rectángulo_39975" data-name="Rectángulo 39975" width="230" height="20" rx="10" transform="translate(875 522)" fill="#671b1b"/>
      <rect id="Rectángulo_39976" data-name="Rectángulo 39976" width="230" height="20" rx="10" transform="translate(495 522)" fill="#671b1b"/>
      <g id="Grupo_147057" data-name="Grupo 147057">
        <path id="Trazado_190878" data-name="Trazado 190878" d="M259.637,39.37h0a4.857,4.857,0,0,1,4.842,4.842V64.977c.306,7.747,8.392,8.143,8.392,22.06v28.725A6.259,6.259,0,0,1,266.63,122H252.641a6.259,6.259,0,0,1-6.24-6.241v-52.4c0-7.317,1.679-7.81,5.111-9.792a6.633,6.633,0,0,0,3.282-5.548V44.212a4.856,4.856,0,0,1,4.843-4.842" transform="translate(650.363 407.551)" fill="#70853b" fill-rule="evenodd"/>
        <path id="Trazado_190879" data-name="Trazado 190879" d="M263.513,65.418a.588.588,0,0,1,1.175,0V78.846l2.765-1.6a.351.351,0,1,1,.35.608l-3.115,1.8V98.865l8.189-4.728a.351.351,0,1,1,.349.608l-8.539,4.931V118.1l8.189-4.729a.351.351,0,1,1,.349.608l-8.539,4.931v26.41a.588.588,0,0,1-1.175,0V123.808l-7.013-4.049a.351.351,0,0,1,.349-.609L263.513,123V107.6l-7.013-4.049a.351.351,0,0,1,.349-.609l6.664,3.848v-15.4L256.5,87.345a.351.351,0,0,1,.349-.608l6.664,3.847v-15.4L256.5,71.137a.351.351,0,0,1,.349-.608l6.664,3.847Z" transform="translate(645.899 396.098)" fill="#10210d" fill-rule="evenodd"/>
      </g>
      <g id="Grupo_147056" data-name="Grupo 147056" transform="translate(683.345 374.426)">
        <g id="Grupo_147055" data-name="Grupo 147055" clip-path="url(#clip-path)">
          <path id="Trazado_190709" data-name="Trazado 190709" d="M203.463,140,119.446,25.121c-3.112-4.253-8.225-4.223-11.364.068L24.166,139.929a13.773,13.773,0,0,0-2.291,9.366H205.7a13.6,13.6,0,0,0-2.234-9.3" transform="translate(-7.016 -7.066)" fill="#e7f9fa" fill-rule="evenodd"/>
          <path id="Trazado_190710" data-name="Trazado 190710" d="M140.08,99.994a5.549,5.549,0,0,0-1.935.347,1.49,1.49,0,0,0-1.678-.374,2.484,2.484,0,0,0-3.986-1.782,1.471,1.471,0,0,0-1.193-.608,1.5,1.5,0,0,0-.241.02,3.209,3.209,0,0,0-3.9-4.325,1.455,1.455,0,0,0-1.319-.838h-.043c.007-.115.011-.231.011-.349a5.761,5.761,0,1,0-11.523,0c0,.045,0,.09,0,.133a3.547,3.547,0,0,0-2.52.3,4.616,4.616,0,0,0-8.112,4.162c-.045,0-.093,0-.14,0a2.272,2.272,0,0,0-2.272,2.273,2.2,2.2,0,0,0,.041.431h-.047a1.312,1.312,0,0,0-1.311,1.266,3.319,3.319,0,0,0-.608-.057,3.091,3.091,0,0,0-2.137.808c-1.477,1.4.134,1.76,1.688,1.76h42.926c1.618,0,3.931.264,2.324-1.429a5.54,5.54,0,0,0-4.031-1.732" transform="translate(-31.091 -27.786)" fill="#dee4f0" fill-rule="evenodd"/>
          <path id="Trazado_190711" data-name="Trazado 190711" d="M86.987,12.077V24.154c0,4.768,3.5,7.946,5.483,10.012s3.179,5.007,3.179,14.223-.258,25.387-.258,33.173c0,21-40.008,21-40.008,0,0-7.787-.257-23.956-.257-33.173S56.316,36.232,58.3,34.166s5.483-5.244,5.483-10.012V12.077c0-16.1,23.2-16.1,23.2,0" transform="translate(-17.744 0)" fill="#32573b" fill-rule="evenodd"/>
          <path id="Trazado_190712" data-name="Trazado 190712" d="M80.239,18.888a.751.751,0,0,0-1.5,0V36.052L75.2,34.012a.448.448,0,0,0-.446.778l3.981,2.3V61.639L68.27,55.6a.449.449,0,0,0-.446.778l10.914,6.3V86.218L68.27,80.175a.449.449,0,1,0-.446.778l10.914,6.3v27.066a.751.751,0,0,0,1.5,0v-20.8L89.2,88.345a.448.448,0,1,0-.446-.777l-8.518,4.917V72.805L89.2,67.63a.449.449,0,0,0-.446-.778l-8.518,4.918V52.09L89.2,46.914a.448.448,0,1,0-.446-.778l-8.518,4.918V31.373L86.079,28a.449.449,0,0,0-.448-.778l-5.393,3.113Z" transform="translate(-21.759 -5.838)" fill="#003b30" fill-rule="evenodd"/>
          <path id="Trazado_190713" data-name="Trazado 190713" d="M38.6,36.33V47.359c0,4.354,3.193,7.256,5.007,9.142s2.9,4.571,2.9,12.989-.236,23.183-.236,30.294c0,19.175-36.535,19.175-36.535,0,0-7.111-.236-21.877-.236-30.294s1.088-11.1,2.9-12.989,5.006-4.788,5.006-9.142V36.33c0-14.7,21.188-14.7,21.188,0" transform="translate(-3.058 -8.144)" fill="#70853b" fill-rule="evenodd"/>
          <path id="Trazado_190714" data-name="Trazado 190714" d="M32.437,42.549a.686.686,0,0,0-1.372,0V58.224L27.837,56.36a.41.41,0,0,0-.408.711l3.637,2.1V81.59L21.5,76.071a.409.409,0,0,0-.408.71l9.968,5.754v21.5L21.5,98.517a.409.409,0,0,0-.408.71l9.968,5.755V129.7a.686.686,0,0,0,1.372,0V110.7l8.184-4.726a.41.41,0,0,0-.408-.711l-7.777,4.491V91.786l8.184-4.726a.41.41,0,0,0-.408-.711l-7.777,4.49V72.87l8.184-4.727a.409.409,0,1,0-.408-.71l-7.777,4.49V53.952l5.331-3.079a.409.409,0,1,0-.408-.71l-4.923,2.842Z" transform="translate(-6.725 -13.475)" fill="#003b30" fill-rule="evenodd"/>
          <path id="Trazado_190715" data-name="Trazado 190715" d="M150.67,128.37a9.311,9.311,0,0,1,9.311,9.31q0,.322-.022.64a8.254,8.254,0,0,1,6.719,6.018,4.6,4.6,0,0,1,2.388.934,5.824,5.824,0,0,1,9.57,6.372H128.276a8.271,8.271,0,0,1,7.908-10.667,8.194,8.194,0,0,1,1.015.062,5.206,5.206,0,0,1,4.164-3.168c0-.062,0-.126,0-.19a9.309,9.309,0,0,1,9.309-9.31" transform="translate(-41.176 -41.32)" fill="#70853b" fill-rule="evenodd"/>
          <path id="Trazado_190716" data-name="Trazado 190716" d="M165.208,151.66a3.955,3.955,0,0,0-1.574.325,2.778,2.778,0,0,0-2.984-1.547,4.428,4.428,0,0,0-5.837-3.445,6.4,6.4,0,0,0-11.6,4.9,2.711,2.711,0,0,0-.429-.033,2.756,2.756,0,0,0-2.1.967,3.561,3.561,0,0,0-5.173,1.36,2.4,2.4,0,0,0-2.765,2.385c0,.041,0,.083,0,.123h36.3a3.984,3.984,0,0,0-3.841-5.038" transform="translate(-42.728 -46.375)" fill="#4b683b" fill-rule="evenodd"/>
          <path id="Trazado_190717" data-name="Trazado 190717" d="M126.418,157.7a1.213,1.213,0,1,0-1.215-1.213,1.216,1.216,0,0,0,1.215,1.213" transform="translate(-40.301 -49.98)" fill="#4b683b" fill-rule="evenodd"/>
          <path id="Trazado_190718" data-name="Trazado 190718" d="M141.355,153.886a.843.843,0,1,0-.844-.843.845.845,0,0,0,.844.843" transform="translate(-45.228 -48.991)" fill="#4b683b" fill-rule="evenodd"/>
          <path id="Trazado_190719" data-name="Trazado 190719" d="M158.012,136.264a1.213,1.213,0,1,0-1.213-1.213,1.216,1.216,0,0,0,1.213,1.213" transform="translate(-50.471 -43.08)" fill="#4b683b" fill-rule="evenodd"/>
          <path id="Trazado_190720" data-name="Trazado 190720" d="M165.185,140.191a1.213,1.213,0,1,0-1.214-1.213,1.215,1.215,0,0,0,1.214,1.213" transform="translate(-52.78 -44.344)" fill="#4b683b" fill-rule="evenodd"/>
          <path id="Trazado_190721" data-name="Trazado 190721" d="M192.245,156.765a1.006,1.006,0,1,0-1.006-1.006,1.008,1.008,0,0,0,1.006,1.006" transform="translate(-61.557 -49.813)" fill="#4b683b" fill-rule="evenodd"/>
          <path id="Trazado_190722" data-name="Trazado 190722" d="M156.24,141.275a.754.754,0,1,0-.754-.755.755.755,0,0,0,.754.755" transform="translate(-50.049 -44.989)" fill="#4b683b" fill-rule="evenodd"/>
          <path id="Trazado_190723" data-name="Trazado 190723" d="M160.3,140.4a.378.378,0,1,0-.378-.378.379.379,0,0,0,.378.378" transform="translate(-51.477 -44.95)" fill="#4b683b" fill-rule="evenodd"/>
          <path id="Trazado_190724" data-name="Trazado 190724" d="M167.555,143.164a.378.378,0,1,0-.378-.378.378.378,0,0,0,.378.378" transform="translate(-53.812 -45.839)" fill="#4b683b" fill-rule="evenodd"/>
          <path id="Trazado_190725" data-name="Trazado 190725" d="M180.131,152.49a.378.378,0,1,0-.378-.378.378.378,0,0,0,.378.378" transform="translate(-57.86 -48.841)" fill="#4b683b" fill-rule="evenodd"/>
          <path id="Trazado_190726" data-name="Trazado 190726" d="M150.7,141.092a.377.377,0,1,0-.378-.378.378.378,0,0,0,.378.378" transform="translate(-48.386 -45.172)" fill="#4b683b" fill-rule="evenodd"/>
          <path id="Trazado_190727" data-name="Trazado 190727" d="M145.449,149.934a.377.377,0,1,0-.378-.376.378.378,0,0,0,.378.376" transform="translate(-46.696 -48.019)" fill="#4b683b" fill-rule="evenodd"/>
          <path id="Trazado_190728" data-name="Trazado 190728" d="M147.381,147.01a.587.587,0,1,0-.587-.588.589.589,0,0,0,.587.588" transform="translate(-47.251 -46.942)" fill="#4b683b" fill-rule="evenodd"/>
          <path id="Trazado_190729" data-name="Trazado 190729" d="M169.179,146.281a.587.587,0,1,0-.586-.588.588.588,0,0,0,.586.588" transform="translate(-54.268 -46.708)" fill="#4b683b" fill-rule="evenodd"/>
          <path id="Trazado_190730" data-name="Trazado 190730" d="M175.339,151.158a.587.587,0,1,0-.585-.587.588.588,0,0,0,.585.587" transform="translate(-56.251 -48.278)" fill="#4b683b" fill-rule="evenodd"/>
          <path id="Trazado_190731" data-name="Trazado 190731" d="M65.744,108.714A14.642,14.642,0,0,0,51.1,123.357q0,.507.034,1.006a12.987,12.987,0,0,0-10.568,9.464,7.222,7.222,0,0,0-3.754,1.469,9.159,9.159,0,0,0-15.051,10.02h79.2a13.006,13.006,0,0,0-12.437-16.777,13.317,13.317,0,0,0-1.6.1,8.189,8.189,0,0,0-6.549-4.982c0-.1,0-.2,0-.3a14.643,14.643,0,0,0-14.643-14.643" transform="translate(-6.742 -34.993)" fill="#bfd867" fill-rule="evenodd"/>
          <path id="Trazado_190732" data-name="Trazado 190732" d="M93,145.775a6.094,6.094,0,0,0-2.415.5,4.237,4.237,0,0,0-3.836-2.435,4.357,4.357,0,0,0-.74.064,6.8,6.8,0,0,0-8.95-5.284,9.81,9.81,0,0,0-17.8,7.52,4.3,4.3,0,0,0-.658-.051,4.227,4.227,0,0,0-3.22,1.482,5.462,5.462,0,0,0-7.933,2.087,3.7,3.7,0,0,0-4.24,3.658c0,.063,0,.125,0,.188H98.89A6.108,6.108,0,0,0,93,145.775" transform="translate(-13.91 -43.176)" fill="#96bb55" fill-rule="evenodd"/>
          <path id="Trazado_190733" data-name="Trazado 190733" d="M33.513,155.039a1.861,1.861,0,1,0-1.861-1.862,1.864,1.864,0,0,0,1.861,1.862" transform="translate(-10.188 -48.707)" fill="#96bb55" fill-rule="evenodd"/>
          <path id="Trazado_190734" data-name="Trazado 190734" d="M56.419,149.189a1.293,1.293,0,1,0-1.293-1.293,1.3,1.3,0,0,0,1.293,1.293" transform="translate(-17.744 -47.189)" fill="#96bb55" fill-rule="evenodd"/>
          <path id="Trazado_190735" data-name="Trazado 190735" d="M81.964,122.165A1.861,1.861,0,1,0,80.1,120.3a1.864,1.864,0,0,0,1.86,1.861" transform="translate(-25.784 -38.125)" fill="#96bb55" fill-rule="evenodd"/>
          <path id="Trazado_190736" data-name="Trazado 190736" d="M92.964,128.188a1.861,1.861,0,1,0-1.86-1.861,1.865,1.865,0,0,0,1.86,1.861" transform="translate(-29.325 -40.064)" fill="#96bb55" fill-rule="evenodd"/>
          <path id="Trazado_190737" data-name="Trazado 190737" d="M134.463,153.6a1.541,1.541,0,1,0-1.541-1.541,1.545,1.545,0,0,0,1.541,1.541" transform="translate(-42.786 -48.45)" fill="#96bb55" fill-rule="evenodd"/>
          <path id="Trazado_190738" data-name="Trazado 190738" d="M79.248,129.849a1.158,1.158,0,1,0-1.157-1.158,1.16,1.16,0,0,0,1.157,1.158" transform="translate(-25.136 -41.051)" fill="#96bb55" fill-rule="evenodd"/>
          <path id="Trazado_190739" data-name="Trazado 190739" d="M85.476,128.509a.579.579,0,1,0-.578-.579.58.58,0,0,0,.578.579" transform="translate(-27.327 -40.992)" fill="#96bb55" fill-rule="evenodd"/>
          <path id="Trazado_190740" data-name="Trazado 190740" d="M96.6,132.747a.579.579,0,1,0-.579-.579.58.58,0,0,0,.579.579" transform="translate(-30.908 -42.357)" fill="#96bb55" fill-rule="evenodd"/>
          <path id="Trazado_190741" data-name="Trazado 190741" d="M115.884,147.048a.578.578,0,1,0-.58-.578.579.579,0,0,0,.58.578" transform="translate(-37.115 -46.96)" fill="#96bb55" fill-rule="evenodd"/>
          <path id="Trazado_190742" data-name="Trazado 190742" d="M70.751,129.568a.579.579,0,1,0-.578-.58.581.581,0,0,0,.578.58" transform="translate(-22.588 -41.333)" fill="#96bb55" fill-rule="evenodd"/>
          <path id="Trazado_190743" data-name="Trazado 190743" d="M62.7,143.129a.578.578,0,1,0-.578-.579.581.581,0,0,0,.578.579" transform="translate(-19.996 -45.699)" fill="#96bb55" fill-rule="evenodd"/>
          <path id="Trazado_190744" data-name="Trazado 190744" d="M65.66,138.644a.9.9,0,1,0-.9-.9.9.9,0,0,0,.9.9" transform="translate(-20.845 -44.048)" fill="#96bb55" fill-rule="evenodd"/>
          <path id="Trazado_190745" data-name="Trazado 190745" d="M99.091,137.525a.9.9,0,1,0-.9-.9.9.9,0,0,0,.9.9" transform="translate(-31.606 -43.688)" fill="#96bb55" fill-rule="evenodd"/>
          <path id="Trazado_190746" data-name="Trazado 190746" d="M108.539,145a.9.9,0,1,0-.9-.9.9.9,0,0,0,.9.9" transform="translate(-34.647 -46.096)" fill="#96bb55" fill-rule="evenodd"/>
          <path id="Trazado_190747" data-name="Trazado 190747" d="M92.11,165.345h0a4.1,4.1,0,0,0,4.091-4.091v-3.223a4.1,4.1,0,0,0-4.091-4.091h0a4.1,4.1,0,0,0-4.09,4.091v3.223a4.1,4.1,0,0,0,4.09,4.091" transform="translate(-28.332 -49.551)" fill="#25020b" fill-rule="evenodd"/>
          <path id="Trazado_190748" data-name="Trazado 190748" d="M94,164.237h0a2.517,2.517,0,0,0,2.509-2.51v-3.413a2.508,2.508,0,0,0-5.017,0v3.413A2.515,2.515,0,0,0,94,164.237" transform="translate(-29.45 -50.152)" fill="#3b020d" fill-rule="evenodd"/>
          <path id="Trazado_190749" data-name="Trazado 190749" d="M83.429,163.065h0a5.832,5.832,0,0,0,5.814-5.816v-4.578a5.814,5.814,0,1,0-11.629,0v4.578a5.832,5.832,0,0,0,5.815,5.816" transform="translate(-24.983 -47.271)" fill="#25020b" fill-rule="evenodd"/>
          <path id="Trazado_190750" data-name="Trazado 190750" d="M86.113,161.488h0a3.575,3.575,0,0,0,3.566-3.565v-4.853a3.575,3.575,0,0,0-3.566-3.565h0a3.575,3.575,0,0,0-3.566,3.565v4.853a3.575,3.575,0,0,0,3.566,3.565" transform="translate(-26.571 -48.124)" fill="#3b020d" fill-rule="evenodd"/>
          <path id="Trazado_190751" data-name="Trazado 190751" d="M160.76,165.476h0a4,4,0,0,0,3.993-3.993v-3.144a3.993,3.993,0,0,0-7.986,0v3.144a4,4,0,0,0,3.993,3.993" transform="translate(-50.461 -49.681)" fill="#25020b" fill-rule="evenodd"/>
          <path id="Trazado_190752" data-name="Trazado 190752" d="M162.6,164.393h0a2.455,2.455,0,0,0,2.447-2.448v-3.332a2.455,2.455,0,0,0-2.447-2.448h0a2.455,2.455,0,0,0-2.447,2.448v3.332a2.455,2.455,0,0,0,2.447,2.448" transform="translate(-51.552 -50.267)" fill="#3b020d" fill-rule="evenodd"/>
          <path id="Trazado_190753" data-name="Trazado 190753" d="M237.527,98.009v9.5c0,3.748,2.75,6.247,4.311,7.872s2.5,3.936,2.5,11.183-.2,19.961-.2,26.084c0,16.509-31.457,16.509-31.457,0,0-6.123-.2-18.837-.2-26.084s.938-9.559,2.5-11.183,4.311-4.124,4.311-7.872v-9.5c0-12.66,18.243-12.66,18.243,0" transform="translate(-68.392 -28.491)" fill="#32573b" fill-rule="evenodd"/>
          <path id="Trazado_190754" data-name="Trazado 190754" d="M232.221,103.365a.59.59,0,1,0-1.18,0v13.5l-2.78-1.6a.353.353,0,0,0-.352.611l3.132,1.807v19.3l-8.232-4.752a.353.353,0,0,0-.351.612l8.582,4.954v18.511l-8.232-4.751a.352.352,0,1,0-.351.61l8.582,4.955V178.4a.59.59,0,1,0,1.18,0V162.047l7.049-4.069a.353.353,0,1,0-.353-.612l-6.7,3.865V145.759l7.049-4.069a.353.353,0,1,0-.353-.611l-6.7,3.865V129.47l7.049-4.069a.353.353,0,1,0-.353-.611l-6.7,3.866V113.183l4.591-2.651a.352.352,0,1,0-.351-.611l-4.24,2.447Z" transform="translate(-71.549 -33.082)" fill="#022524" fill-rule="evenodd"/>
          <path id="Trazado_190755" data-name="Trazado 190755" d="M262.715,39.37h0a5.986,5.986,0,0,1,5.969,5.968V70.933c.378,9.549,10.344,10.037,10.344,27.191V133.53a7.714,7.714,0,0,1-7.693,7.693H254.093a7.715,7.715,0,0,1-7.692-7.693V68.946c0-9.019,2.069-9.626,6.3-12.069a8.175,8.175,0,0,0,4.046-6.839v-4.7a5.986,5.986,0,0,1,5.969-5.968" transform="translate(-79.313 -12.673)" fill="#70853b" fill-rule="evenodd"/>
          <path id="Trazado_190756" data-name="Trazado 190756" d="M265.185,65.555a.724.724,0,0,1,1.448,0V82.106l3.408-1.967a.433.433,0,1,1,.431.75L266.633,83.1v23.676l10.094-5.827a.432.432,0,1,1,.431.749l-10.524,6.078v22.7l10.094-5.828a.432.432,0,1,1,.431.749l-10.524,6.078v32.552a.724.724,0,0,1-1.448,0v-26.51l-8.644-4.99a.433.433,0,0,1,.431-.751l8.213,4.742V117.548l-8.644-4.991a.433.433,0,0,1,.431-.751l8.213,4.743V97.572l-8.644-4.991a.432.432,0,0,1,.431-.75l8.213,4.742V77.6L256.541,72.6a.432.432,0,0,1,.431-.75l8.213,4.742Z" transform="translate(-82.507 -20.868)" fill="#10210d" fill-rule="evenodd"/>
          <path id="Trazado_190757" data-name="Trazado 190757" d="M17.262,224.973H84.648c-9.588-31.232,36.116-13.075,54.329-22.357l35.451-18.064A10.963,10.963,0,0,1,163.5,173.622a10.962,10.962,0,0,0-10.931-10.931H17.262A17.246,17.246,0,0,0,7.03,193.832a17.246,17.246,0,0,0,10.232,31.141" transform="translate(0 -52.368)" fill="#25020b" fill-rule="evenodd"/>
          <path id="Trazado_190758" data-name="Trazado 190758" d="M42.932,231.444H91.877c-9.588-31.232,36.115-13.075,54.329-22.357l5.706-2.907,1.871-6.926c-4.526,0,16.874-3.7,16.874-8.23a8.255,8.255,0,0,0-8.231-8.23H35.452a12.986,12.986,0,0,0-7.7,23.447,13,13,0,0,0-5.292,10.45c0,7.147,6.039,11.36,13,13Z" transform="translate(-7.228 -58.838)" fill="#3b020d" fill-rule="evenodd"/>
          <path id="Trazado_190759" data-name="Trazado 190759" d="M233.625,195.535h0a4.005,4.005,0,0,0,3.994-3.993V188.4a3.994,3.994,0,1,0-7.988,0v3.144a4,4,0,0,0,3.993,3.993" transform="translate(-73.915 -59.357)" fill="#803520" fill-rule="evenodd"/>
          <path id="Trazado_190760" data-name="Trazado 190760" d="M235.469,194.453h0A2.456,2.456,0,0,0,237.918,192v-3.332a2.456,2.456,0,0,0-2.448-2.449h0a2.455,2.455,0,0,0-2.447,2.449V192a2.455,2.455,0,0,0,2.447,2.449" transform="translate(-75.006 -59.942)" fill="#924324" fill-rule="evenodd"/>
          <path id="Trazado_190761" data-name="Trazado 190761" d="M124.18,235.35h17.5a21,21,0,0,0,8.893,1.969h71.375a21.195,21.195,0,1,0,0-42.39H154.112a31.389,31.389,0,0,0-31.3,31.3,31.044,31.044,0,0,0,1.366,9.124" transform="translate(-39.532 -62.745)" fill="#671b1b" fill-rule="evenodd"/>
          <path id="Trazado_190762" data-name="Trazado 190762" d="M188.713,243.707h48.719a14.467,14.467,0,1,0,0-28.934H191.126a21.425,21.425,0,0,0-21.363,21.363,21.211,21.211,0,0,0,.933,6.227h11.947a14.335,14.335,0,0,0,6.07,1.344" transform="translate(-54.644 -69.132)" fill="#803520" fill-rule="evenodd"/>
          <path id="Trazado_190763" data-name="Trazado 190763" d="M176.2,184.553v-14.1a7.786,7.786,0,0,0-7.764-7.762h22.808a7.787,7.787,0,0,1,7.765,7.762v14.1Z" transform="translate(-54.217 -52.368)" fill="#8aa3d1" fill-rule="evenodd"/>
          <path id="Trazado_190764" data-name="Trazado 190764" d="M176.2,174.362v-3.908a7.787,7.787,0,0,0-7.764-7.763h22.808a7.787,7.787,0,0,1,7.765,7.763v.732a1.739,1.739,0,0,0-1.733-1.711h0a1.738,1.738,0,0,0-1.733,1.733v4.274a1.282,1.282,0,0,1-2.564,0v-1.808a1.59,1.59,0,0,0-1.583-1.542,1.586,1.586,0,0,1-1.583-1.583v-1.115a1.064,1.064,0,0,0-2.128,0v1.524a1.737,1.737,0,0,1-1.733,1.732h0a1.737,1.737,0,0,1-1.733-1.732v-1.186a2.158,2.158,0,0,0-2.151-2.152h0a2.157,2.157,0,0,0-2.152,2.152v.877a1.863,1.863,0,0,1-1.857,1.857,1.862,1.862,0,0,0-1.857,1.855m11.484.964v-.094a1.738,1.738,0,0,0-1.733-1.733h0a1.738,1.738,0,0,0-1.733,1.733v.094a1.739,1.739,0,0,0,1.733,1.733h0a1.738,1.738,0,0,0,1.733-1.733" transform="translate(-54.217 -52.368)" fill="#9eb7e5" fill-rule="evenodd"/>
          <path id="Trazado_190765" data-name="Trazado 190765" d="M200.231,187.791a2.568,2.568,0,0,0-1.02.21,1.79,1.79,0,0,0-1.619-1.029,1.9,1.9,0,0,0-.312.027,2.865,2.865,0,0,0-3.778-2.229,4.139,4.139,0,0,0-7.509,3.174,1.649,1.649,0,0,0-.278-.023,1.781,1.781,0,0,0-1.358.627,2.306,2.306,0,0,0-3.349.881,1.586,1.586,0,0,0-.229-.016,1.56,1.56,0,0,0-1.56,1.559c0,.028,0,.054,0,.081h23.494a2.577,2.577,0,0,0-2.485-3.26" transform="translate(-57.688 -58.866)" fill="#fff" fill-rule="evenodd"/>
          <path id="Trazado_190766" data-name="Trazado 190766" d="M183.227,186.194a.786.786,0,1,0-.785-.785.787.787,0,0,0,.785.785" transform="translate(-58.725 -59.427)" fill="#fff" fill-rule="evenodd"/>
          <path id="Trazado_190767" data-name="Trazado 190767" d="M185.689,183.881a.546.546,0,1,0-.546-.546.546.546,0,0,0,.546.546" transform="translate(-59.595 -58.837)" fill="#fff" fill-rule="evenodd"/>
          <path id="Trazado_190768" data-name="Trazado 190768" d="M192.282,177.927a.785.785,0,1,0-.785-.785.787.787,0,0,0,.785.785" transform="translate(-61.64 -56.766)" fill="#fff" fill-rule="evenodd"/>
          <path id="Trazado_190769" data-name="Trazado 190769" d="M201.539,178.731a.785.785,0,1,0-.785-.785.787.787,0,0,0,.785.785" transform="translate(-64.62 -57.025)" fill="#fff" fill-rule="evenodd"/>
          <path id="Trazado_190770" data-name="Trazado 190770" d="M211.373,183.426a.785.785,0,1,0-.785-.785.786.786,0,0,0,.785.785" transform="translate(-67.785 -58.537)" fill="#fff" fill-rule="evenodd"/>
          <path id="Trazado_190771" data-name="Trazado 190771" d="M212.755,186.818a.65.65,0,1,0-.651-.65.652.652,0,0,0,.651.65" transform="translate(-68.273 -59.715)" fill="#fff" fill-rule="evenodd"/>
          <path id="Trazado_190772" data-name="Trazado 190772" d="M204.585,180.542a.574.574,0,1,0-.574-.575.577.577,0,0,0,.574.575" transform="translate(-65.668 -57.744)" fill="#fff" fill-rule="evenodd"/>
          <path id="Trazado_190773" data-name="Trazado 190773" d="M194.425,181.07a.488.488,0,1,0-.488-.49.491.491,0,0,0,.488.49" transform="translate(-62.425 -57.97)" fill="#fff" fill-rule="evenodd"/>
          <path id="Trazado_190774" data-name="Trazado 190774" d="M197.054,180.5a.244.244,0,1,0-.243-.243.244.244,0,0,0,.243.243" transform="translate(-63.35 -57.944)" fill="#fff" fill-rule="evenodd"/>
          <path id="Trazado_190775" data-name="Trazado 190775" d="M201.75,182.292a.244.244,0,1,0-.245-.244.245.245,0,0,0,.245.244" transform="translate(-64.861 -58.52)" fill="#fff" fill-rule="evenodd"/>
          <path id="Trazado_190776" data-name="Trazado 190776" d="M209.887,188.327a.244.244,0,1,0-.243-.243.244.244,0,0,0,.243.243" transform="translate(-67.481 -60.463)" fill="#fff" fill-rule="evenodd"/>
          <path id="Trazado_190777" data-name="Trazado 190777" d="M190.839,180.95a.244.244,0,1,0-.243-.243.244.244,0,0,0,.243.243" transform="translate(-61.35 -58.088)" fill="#fff" fill-rule="evenodd"/>
          <path id="Trazado_190778" data-name="Trazado 190778" d="M187.442,186.673a.244.244,0,1,0-.243-.245.245.245,0,0,0,.243.245" transform="translate(-60.257 -59.93)" fill="#fff" fill-rule="evenodd"/>
          <path id="Trazado_190779" data-name="Trazado 190779" d="M188.384,184.311a.38.38,0,1,0-.38-.38.381.381,0,0,0,.38.38" transform="translate(-60.516 -59.083)" fill="#fff" fill-rule="evenodd"/>
          <path id="Trazado_190780" data-name="Trazado 190780" d="M203.988,183.861a.38.38,0,1,0-.38-.38.381.381,0,0,0,.38.38" transform="translate(-65.538 -58.937)" fill="#fff" fill-rule="evenodd"/>
          <path id="Trazado_190781" data-name="Trazado 190781" d="M209.041,186.231a.38.38,0,1,0-.379-.38.381.381,0,0,0,.379.38" transform="translate(-67.165 -59.701)" fill="#fff" fill-rule="evenodd"/>
          <path id="Trazado_190782" data-name="Trazado 190782" d="M208.236,180.6a.38.38,0,1,0-.38-.381.381.381,0,0,0,.38.381" transform="translate(-66.906 -57.887)" fill="#fff" fill-rule="evenodd"/>
          <path id="Trazado_190783" data-name="Trazado 190783" d="M192.58,164.1H181.789a.982.982,0,0,0,0,1.964H192.58a.982.982,0,1,0,0-1.964" transform="translate(-58.199 -52.822)" fill="#fff" fill-rule="evenodd"/>
          <path id="Trazado_190784" data-name="Trazado 190784" d="M201.94,164.1h0a.94.94,0,0,1,.938.939v.088a.941.941,0,0,1-.938.937h0a.941.941,0,0,1-.938-.937v-.088a.94.94,0,0,1,.938-.939" transform="translate(-64.7 -52.822)" fill="#fff" fill-rule="evenodd"/>
          <path id="Trazado_190785" data-name="Trazado 190785" d="M189.575,232.8V208.378a13.488,13.488,0,0,1,13.449-13.448h-39.51a13.489,13.489,0,0,0-13.45,13.448V232.8Z" transform="translate(-48.303 -62.745)" fill="#7092cf" fill-rule="evenodd"/>
          <path id="Trazado_190786" data-name="Trazado 190786" d="M189.575,215.147v-6.768a13.488,13.488,0,0,1,13.449-13.449h-39.51a13.489,13.489,0,0,0-13.45,13.449v1.267a3.013,3.013,0,0,1,3-2.963h0a3.01,3.01,0,0,1,3,3v7.4a2.227,2.227,0,0,0,2.22,2.221h0a2.227,2.227,0,0,0,2.221-2.221V213.96a2.752,2.752,0,0,1,2.742-2.672A2.751,2.751,0,0,0,166,208.545v-1.931a1.842,1.842,0,0,1,3.684,0v2.639a3.01,3.01,0,0,0,3,3h0a3.012,3.012,0,0,0,3-3V207.2a3.738,3.738,0,0,1,3.728-3.727h0a3.739,3.739,0,0,1,3.727,3.727v1.52a3.226,3.226,0,0,0,3.216,3.217,3.224,3.224,0,0,1,3.216,3.214" transform="translate(-48.303 -62.745)" fill="#9eb7e5" fill-rule="evenodd"/>
          <path id="Trazado_190787" data-name="Trazado 190787" d="M185.594,238.236a4.422,4.422,0,0,0-1.764.362,3.1,3.1,0,0,0-2.806-1.781,3.153,3.153,0,0,0-.54.048A4.964,4.964,0,0,0,173.941,233a7.17,7.17,0,0,0-13.009,5.5,3.131,3.131,0,0,0-.481-.037,3.088,3.088,0,0,0-2.353,1.084,3.994,3.994,0,0,0-5.8,1.526,2.661,2.661,0,0,0-.4-.03,2.7,2.7,0,0,0-2.7,2.7c0,.045,0,.092,0,.136h40.7a4.468,4.468,0,0,0-4.306-5.646" transform="translate(-48.024 -73.945)" fill="#fff" fill-rule="evenodd"/>
          <path id="Trazado_190788" data-name="Trazado 190788" d="M156.139,235.467a1.36,1.36,0,1,0-1.361-1.359,1.361,1.361,0,0,0,1.361,1.359" transform="translate(-49.821 -74.918)" fill="#fff" fill-rule="evenodd"/>
          <path id="Trazado_190789" data-name="Trazado 190789" d="M160.406,231.463a.945.945,0,1,0-.946-.945.946.946,0,0,0,.946.945" transform="translate(-51.328 -73.896)" fill="#fff" fill-rule="evenodd"/>
          <path id="Trazado_190790" data-name="Trazado 190790" d="M171.826,221.149a1.36,1.36,0,1,0-1.361-1.362,1.363,1.363,0,0,0,1.361,1.362" transform="translate(-54.87 -70.309)" fill="#fff" fill-rule="evenodd"/>
          <path id="Trazado_190791" data-name="Trazado 190791" d="M187.858,222.542a1.361,1.361,0,1,0-1.359-1.36,1.363,1.363,0,0,0,1.359,1.36" transform="translate(-60.031 -70.757)" fill="#fff" fill-rule="evenodd"/>
          <path id="Trazado_190792" data-name="Trazado 190792" d="M204.9,230.674a1.36,1.36,0,1,0-1.362-1.36,1.363,1.363,0,0,0,1.362,1.36" transform="translate(-65.516 -73.375)" fill="#fff" fill-rule="evenodd"/>
          <path id="Trazado_190793" data-name="Trazado 190793" d="M207.29,236.551a1.126,1.126,0,1,0-1.127-1.127,1.129,1.129,0,0,0,1.127,1.127" transform="translate(-66.361 -75.417)" fill="#fff" fill-rule="evenodd"/>
          <path id="Trazado_190794" data-name="Trazado 190794" d="M193.138,225.677a1,1,0,1,0-1-1,1,1,0,0,0,1,1" transform="translate(-61.848 -72.001)" fill="#fff" fill-rule="evenodd"/>
          <path id="Trazado_190795" data-name="Trazado 190795" d="M175.54,226.592a.846.846,0,1,0-.845-.846.848.848,0,0,0,.845.846" transform="translate(-56.232 -72.392)" fill="#fff" fill-rule="evenodd"/>
          <path id="Trazado_190796" data-name="Trazado 190796" d="M180.094,225.612a.423.423,0,1,0-.423-.423.424.424,0,0,0,.423.423" transform="translate(-57.833 -72.349)" fill="#fff" fill-rule="evenodd"/>
          <path id="Trazado_190797" data-name="Trazado 190797" d="M188.227,228.711a.423.423,0,1,0-.423-.423.424.424,0,0,0,.423.423" transform="translate(-60.451 -73.346)" fill="#fff" fill-rule="evenodd"/>
          <path id="Trazado_190798" data-name="Trazado 190798" d="M202.322,239.166a.423.423,0,1,0-.422-.422.423.423,0,0,0,.422.422" transform="translate(-64.989 -76.712)" fill="#fff" fill-rule="evenodd"/>
          <path id="Trazado_190799" data-name="Trazado 190799" d="M169.328,226.388a.423.423,0,1,0-.422-.423.424.424,0,0,0,.422.423" transform="translate(-54.368 -72.599)" fill="#fff" fill-rule="evenodd"/>
          <path id="Trazado_190800" data-name="Trazado 190800" d="M163.442,236.3a.423.423,0,1,0-.422-.424.424.424,0,0,0,.422.424" transform="translate(-52.474 -75.789)" fill="#fff" fill-rule="evenodd"/>
          <path id="Trazado_190801" data-name="Trazado 190801" d="M165.075,232.21a.658.658,0,1,0-.658-.659.66.66,0,0,0,.658.659" transform="translate(-52.923 -74.321)" fill="#fff" fill-rule="evenodd"/>
          <path id="Trazado_190802" data-name="Trazado 190802" d="M192.1,231.429a.658.658,0,1,0-.658-.658.659.659,0,0,0,.658.658" transform="translate(-61.624 -74.07)" fill="#fff" fill-rule="evenodd"/>
          <path id="Trazado_190803" data-name="Trazado 190803" d="M200.856,235.535a.658.658,0,1,0-.658-.658.66.66,0,0,0,.658.658" transform="translate(-64.441 -75.391)" fill="#fff" fill-rule="evenodd"/>
          <path id="Trazado_190804" data-name="Trazado 190804" d="M199.461,225.775a.658.658,0,1,0-.658-.658.661.661,0,0,0,.658.658" transform="translate(-63.992 -72.25)" fill="#fff" fill-rule="evenodd"/>
          <path id="Trazado_190805" data-name="Trazado 190805" d="M175.852,197.372h18.694a1.7,1.7,0,0,1,0,3.4H175.852a1.7,1.7,0,1,1,0-3.4" transform="translate(-56.056 -63.531)" fill="#fff" fill-rule="evenodd"/>
          <path id="Trazado_190806" data-name="Trazado 190806" d="M168.582,197.372h0A1.631,1.631,0,0,0,166.957,199v.151a1.625,1.625,0,1,0,3.251,0V199a1.631,1.631,0,0,0-1.625-1.626" transform="translate(-53.741 -63.531)" fill="#fff" fill-rule="evenodd"/>
          <path id="Trazado_190807" data-name="Trazado 190807" d="M235.444,188.469a7.134,7.134,0,0,0-7.135,7.135c0,.164,0,.329.016.49a6.329,6.329,0,0,0-5.15,4.613,3.5,3.5,0,0,0-1.83.716,4.463,4.463,0,0,0-7.334,4.883h38.6a6.342,6.342,0,0,0-6.839-8.129,3.988,3.988,0,0,0-3.191-2.428c0-.048,0-.1,0-.145a7.134,7.134,0,0,0-7.134-7.135" transform="translate(-68.758 -60.665)" fill="#96bb55" fill-rule="evenodd"/>
          <path id="Trazado_190808" data-name="Trazado 190808" d="M250.909,205.483a3.357,3.357,0,0,0-1.326.272,2.328,2.328,0,0,0-2.107-1.337,2.237,2.237,0,0,0-.407.035,3.729,3.729,0,0,0-4.914-2.9,5.387,5.387,0,0,0-9.773,4.13,2.357,2.357,0,0,0-.362-.028,2.322,2.322,0,0,0-1.768.814,3,3,0,0,0-4.358,1.145,2.143,2.143,0,0,0-.3-.022,2.03,2.03,0,0,0-2.03,2.031c0,.035,0,.069,0,.1h30.574a3.359,3.359,0,0,0-3.235-4.242" transform="translate(-71.963 -64.084)" fill="#bfd867" fill-rule="evenodd"/>
          <path id="Trazado_190809" data-name="Trazado 190809" d="M218.238,210.571a1.022,1.022,0,1,0-1.022-1.023,1.024,1.024,0,0,0,1.022,1.023" transform="translate(-69.919 -67.121)" fill="#bfd867" fill-rule="evenodd"/>
          <path id="Trazado_190810" data-name="Trazado 190810" d="M230.817,207.358a.71.71,0,1,0-.71-.71.712.712,0,0,0,.71.71" transform="translate(-74.068 -66.288)" fill="#bfd867" fill-rule="evenodd"/>
          <path id="Trazado_190811" data-name="Trazado 190811" d="M244.846,192.517a1.022,1.022,0,1,0-1.023-1.022,1.025,1.025,0,0,0,1.023,1.022" transform="translate(-78.483 -61.31)" fill="#bfd867" fill-rule="evenodd"/>
          <path id="Trazado_190812" data-name="Trazado 190812" d="M250.887,195.824a1.022,1.022,0,1,0-1.023-1.022,1.025,1.025,0,0,0,1.023,1.022" transform="translate(-80.427 -62.375)" fill="#bfd867" fill-rule="evenodd"/>
          <path id="Trazado_190813" data-name="Trazado 190813" d="M266.861,207.46a.847.847,0,1,0-.846-.847.849.849,0,0,0,.846.847" transform="translate(-85.626 -66.233)" fill="#bfd867" fill-rule="evenodd"/>
          <path id="Trazado_190814" data-name="Trazado 190814" d="M243.355,196.735a.636.636,0,1,0-.636-.635.637.637,0,0,0,.636.635" transform="translate(-78.128 -62.917)" fill="#bfd867" fill-rule="evenodd"/>
          <path id="Trazado_190815" data-name="Trazado 190815" d="M246.776,196a.317.317,0,1,0-.319-.318.318.318,0,0,0,.319.318" transform="translate(-79.331 -62.885)" fill="#bfd867" fill-rule="evenodd"/>
          <path id="Trazado_190816" data-name="Trazado 190816" d="M252.885,198.327a.318.318,0,1,0-.317-.317.318.318,0,0,0,.317.317" transform="translate(-81.298 -63.634)" fill="#bfd867" fill-rule="evenodd"/>
          <path id="Trazado_190817" data-name="Trazado 190817" d="M263.475,206.182a.318.318,0,1,0-.317-.318.319.319,0,0,0,.317.318" transform="translate(-84.707 -66.162)" fill="#bfd867" fill-rule="evenodd"/>
          <path id="Trazado_190818" data-name="Trazado 190818" d="M238.689,196.582a.317.317,0,1,0-.318-.318.319.319,0,0,0,.318.318" transform="translate(-76.728 -63.072)" fill="#bfd867" fill-rule="evenodd"/>
          <path id="Trazado_190819" data-name="Trazado 190819" d="M234.266,204.03a.318.318,0,1,0-.318-.318.319.319,0,0,0,.318.318" transform="translate(-75.304 -65.469)" fill="#bfd867" fill-rule="evenodd"/>
          <path id="Trazado_190820" data-name="Trazado 190820" d="M235.892,201.566a.495.495,0,1,0-.5-.494.5.5,0,0,0,.5.494" transform="translate(-75.771 -64.563)" fill="#bfd867" fill-rule="evenodd"/>
          <path id="Trazado_190821" data-name="Trazado 190821" d="M254.251,200.952a.495.495,0,1,0-.494-.5.5.5,0,0,0,.494.5" transform="translate(-81.681 -64.365)" fill="#bfd867" fill-rule="evenodd"/>
          <path id="Trazado_190822" data-name="Trazado 190822" d="M259.441,205.061a.495.495,0,1,0-.494-.5.5.5,0,0,0,.494.5" transform="translate(-83.351 -65.688)" fill="#bfd867" fill-rule="evenodd"/>
          <path id="Trazado_190823" data-name="Trazado 190823" d="M76.468,192.031h34.545a3.144,3.144,0,1,1,0,6.289H76.468a3.144,3.144,0,1,1,0-6.289" transform="translate(-23.602 -61.812)" fill="#25020b" fill-rule="evenodd"/>
          <path id="Trazado_190824" data-name="Trazado 190824" d="M63.038,192.031h0a3.012,3.012,0,0,0-3,3v.281a3.013,3.013,0,0,0,3,3h0a3.013,3.013,0,0,0,3-3v-.281a3.012,3.012,0,0,0-3-3" transform="translate(-19.324 -61.812)" fill="#25020b" fill-rule="evenodd"/>
          <path id="Trazado_190825" data-name="Trazado 190825" d="M44.682,168.656H124.91a2.463,2.463,0,0,1,0,4.927H44.682a2.463,2.463,0,0,1,0-4.927" transform="translate(-13.59 -54.288)" fill="#2e000b" fill-rule="evenodd"/>
          <path id="Trazado_190826" data-name="Trazado 190826" d="M235.452,221.248H253.3a4.456,4.456,0,1,1,0,8.912H235.452a4.456,4.456,0,0,1,0-8.912" transform="translate(-74.354 -71.216)" fill="#903e23" fill-rule="evenodd"/>
          <path id="Trazado_190827" data-name="Trazado 190827" d="M216.929,221.248h0a4.424,4.424,0,0,0-4.41,4.41v.091a4.424,4.424,0,0,0,4.41,4.41h0a4.424,4.424,0,0,0,4.412-4.41v-.091a4.425,4.425,0,0,0-4.412-4.41" transform="translate(-68.406 -71.216)" fill="#903e23" fill-rule="evenodd"/>
          <path id="Trazado_190829" data-name="Trazado 190829" d="M142.172,69.9a2.306,2.306,0,1,1,2.1-2.3,2.2,2.2,0,0,1-2.1,2.3" transform="translate(-45.088 -21.022)" fill="#fff" fill-rule="evenodd"/>
          <path id="Trazado_190830" data-name="Trazado 190830" d="M166.881,67.549a2.306,2.306,0,1,1,2.1-2.3,2.2,2.2,0,0,1-2.1,2.3" transform="translate(-53.041 -20.264)" fill="#fff" fill-rule="evenodd"/>
          <path id="Trazado_190831" data-name="Trazado 190831" d="M175.021,61.608a1.688,1.688,0,1,1,1.534-1.68,1.611,1.611,0,0,1-1.534,1.68" transform="translate(-55.843 -18.749)" fill="#fff" fill-rule="evenodd"/>
          <path id="Trazado_190832" data-name="Trazado 190832" d="M147.9,59.8a1.435,1.435,0,1,1,1.3-1.429,1.371,1.371,0,0,1-1.3,1.429" transform="translate(-47.185 -18.328)" fill="#fff" fill-rule="evenodd"/>
          <path id="Trazado_190833" data-name="Trazado 190833" d="M154.913,60.7a.717.717,0,1,1,.652-.713.684.684,0,0,1-.652.713" transform="translate(-49.655 -19.079)" fill="#fff" fill-rule="evenodd"/>
          <path id="Trazado_190834" data-name="Trazado 190834" d="M167.448,55.471a.717.717,0,1,1,.652-.715.686.686,0,0,1-.652.715" transform="translate(-53.689 -17.396)" fill="#fff" fill-rule="evenodd"/>
          <path id="Trazado_190835" data-name="Trazado 190835" d="M138.323,59.394a.717.717,0,1,1,.652-.715.685.685,0,0,1-.652.715" transform="translate(-44.314 -18.658)" fill="#fff" fill-rule="evenodd"/>
          <path id="Trazado_190836" data-name="Trazado 190836" d="M131.991,50.135a.945.945,0,0,1-.544-.174l1.261-1.724a1.164,1.164,0,0,1,.3.785,1.067,1.067,0,0,1-1.014,1.112" transform="translate(-42.311 -15.527)" fill="#fff" fill-rule="evenodd"/>
          <path id="Trazado_190837" data-name="Trazado 190837" d="M173.424,51.3a1.116,1.116,0,1,1,1.015-1.111,1.067,1.067,0,0,1-1.015,1.111" transform="translate(-55.496 -15.796)" fill="#fff" fill-rule="evenodd"/>
          <path id="Trazado_190838" data-name="Trazado 190838" d="M184.763,60.844a1.116,1.116,0,1,1,1.015-1.111,1.066,1.066,0,0,1-1.015,1.111" transform="translate(-59.146 -18.87)" fill="#fff" fill-rule="evenodd"/>
          <path id="Trazado_190842" data-name="Trazado 190842" d="M221.262,82.152l-5.055-3.367a.164.164,0,0,0-.23.05.2.2,0,0,0,.022.254l5.145,5.117a.165.165,0,0,0,.234,0l5.146-5.117a.2.2,0,0,0,.022-.254.164.164,0,0,0-.23-.05Z" transform="translate(-69.509 -25.351)" fill="#fff" fill-rule="evenodd"/>
          <path id="Trazado_190843" data-name="Trazado 190843" d="M186.266,15.737a5.073,5.073,0,0,1,1.917.376,1.418,1.418,0,0,1,1.092-.531,1.361,1.361,0,0,1,.57.126A2.565,2.565,0,0,1,192.3,13.22a2.314,2.314,0,0,1,1.495.555,1.423,1.423,0,0,1,1.181-.66,1.453,1.453,0,0,1,.239.021,3.749,3.749,0,0,1-.255-1.367A3.336,3.336,0,0,1,198.13,8.29a2.891,2.891,0,0,1,.938.155,1.439,1.439,0,0,1,1.307-.91h.042c-.007-.125-.011-.252-.011-.379a5.729,5.729,0,1,1,11.411,0c0,.048,0,.1,0,.144a3.227,3.227,0,0,1,2.495.326A4.451,4.451,0,0,1,218,5.577a4.8,4.8,0,0,1,4.57,5.007,5.438,5.438,0,0,1-.226,1.558c.045,0,.092-.005.138-.005a2.366,2.366,0,0,1,2.25,2.466,2.719,2.719,0,0,1-.041.469h.047a1.36,1.36,0,0,1,1.3,1.373,3.031,3.031,0,0,1,.6-.061,2.914,2.914,0,0,1,2.116.875c1.462,1.515-.134,1.908-1.672,1.908H184.576c-1.6,0-3.893.288-2.3-1.549a5.276,5.276,0,0,1,3.993-1.879" transform="translate(-75.08 11.963)" fill="#dee4f0" fill-rule="evenodd"/>
          <path id="Trazado_190844" data-name="Trazado 190844" d="M44.07,82.9l1.991-9.87a.343.343,0,0,0-.012-.192l-1.991-6.049a.377.377,0,0,0-.734.117v15.92a.377.377,0,0,0,.746.074" transform="translate(-13.945 -21.414)" fill="#fff" fill-rule="evenodd"/>
          <path id="Trazado_190845" data-name="Trazado 190845" d="M44.07,82.9l.48-2.383a1.048,1.048,0,0,1-.564-.987V74.057c0-2.42.188-3.711.726-3.67a.953.953,0,0,1,.74.629l-1.393-4.23a.377.377,0,0,0-.734.117v15.92a.377.377,0,0,0,.746.074" transform="translate(-13.945 -21.414)" fill="#dff0f4" fill-rule="evenodd"/>
          <path id="Trazado_190846" data-name="Trazado 190846" d="M37.036,90.022l-9.544,3.21a.367.367,0,0,0-.161.106l-4.243,4.75a.372.372,0,0,0-.012.488.376.376,0,0,0,.481.089l13.786-7.96a.376.376,0,0,0-.308-.683" transform="translate(-7.401 -28.97)" fill="#fff" fill-rule="evenodd"/>
          <path id="Trazado_190847" data-name="Trazado 190847" d="M37.036,90.022l-2.3.775a1.052,1.052,0,0,1-.573.981l-4.739,2.736c-2.095,1.21-3.307,1.692-3.541,1.207a.95.95,0,0,1,.176-.956l-2.967,3.322a.372.372,0,0,0-.012.488.376.376,0,0,0,.481.089l13.786-7.96a.376.376,0,0,0-.308-.683" transform="translate(-7.401 -28.97)" fill="#dff0f4" fill-rule="evenodd"/>
          <path id="Trazado_190848" data-name="Trazado 190848" d="M43.451,90.661,51,97.322a.371.371,0,0,0,.172.086l6.235,1.3a.377.377,0,0,0,.266-.694l-13.787-7.96a.377.377,0,0,0-.437.609" transform="translate(-13.945 -28.97)" fill="#fff" fill-rule="evenodd"/>
          <path id="Trazado_190849" data-name="Trazado 190849" d="M43.451,90.661l1.823,1.608a1.049,1.049,0,0,1,1.137.005l4.738,2.735c2.1,1.21,3.12,2.019,2.816,2.464a.949.949,0,0,1-.916.326l4.36.909a.377.377,0,0,0,.266-.694l-13.787-7.96a.377.377,0,0,0-.437.609" transform="translate(-13.945 -28.97)" fill="#dff0f4" fill-rule="evenodd"/>
          <path id="Trazado_190850" data-name="Trazado 190850" d="M43.139,138.139a.506.506,0,0,0,1,0V90.41a.506.506,0,0,0-1,0Z" transform="translate(-13.886 -28.961)" fill="#fff" fill-rule="evenodd"/>
          <path id="Trazado_190851" data-name="Trazado 190851" d="M43.407,91.081a1,1,0,1,0-1-.995,1,1,0,0,0,1,.995" transform="translate(-13.651 -28.676)" fill="#fff" fill-rule="evenodd"/>
          <path id="Trazado_190852" data-name="Trazado 190852" d="M43.588,90.881a.614.614,0,1,0-.614-.614.615.615,0,0,0,.614.614" transform="translate(-13.833 -28.858)" fill="#a4d8db" fill-rule="evenodd"/>
          <path id="Trazado_190853" data-name="Trazado 190853" d="M45.009,160.6H39.43a.708.708,0,0,0,0,1.417h5.579a.708.708,0,1,0,0-1.417" transform="translate(-12.464 -51.695)" fill="#fff" fill-rule="evenodd"/>
          <path id="Trazado_190854" data-name="Trazado 190854" d="M45.7,161.647H38.132a.354.354,0,1,0,0,.708H45.7a.354.354,0,1,0,0-.708" transform="translate(-12.16 -52.032)" fill="#dff0f4" fill-rule="evenodd"/>
          <path id="Trazado_190855" data-name="Trazado 190855" d="M89.668,82.9l1.992-9.87a.356.356,0,0,0-.012-.192l-1.992-6.049a.377.377,0,0,0-.734.117v15.92a.377.377,0,0,0,.746.074" transform="translate(-28.623 -21.414)" fill="#fff" fill-rule="evenodd"/>
          <path id="Trazado_190856" data-name="Trazado 190856" d="M89.668,82.9l.48-2.383a1.05,1.05,0,0,1-.564-.987V74.057c0-2.42.189-3.711.726-3.67a.948.948,0,0,1,.74.629l-1.393-4.23a.377.377,0,0,0-.734.117v15.92a.377.377,0,0,0,.746.074" transform="translate(-28.623 -21.414)" fill="#dff0f4" fill-rule="evenodd"/>
          <path id="Trazado_190857" data-name="Trazado 190857" d="M82.635,90.022l-9.544,3.21a.367.367,0,0,0-.161.106l-4.243,4.75a.377.377,0,0,0,.469.577l13.786-7.96a.376.376,0,0,0-.308-.683" transform="translate(-22.078 -28.97)" fill="#fff" fill-rule="evenodd"/>
          <path id="Trazado_190858" data-name="Trazado 190858" d="M82.635,90.022l-2.3.775a1.049,1.049,0,0,1-.573.981L75.02,94.515c-2.1,1.21-3.307,1.692-3.541,1.207a.95.95,0,0,1,.176-.956l-2.967,3.322a.377.377,0,0,0,.469.577l13.786-7.96a.376.376,0,0,0-.308-.683" transform="translate(-22.078 -28.97)" fill="#dff0f4" fill-rule="evenodd"/>
          <path id="Trazado_190859" data-name="Trazado 190859" d="M89.051,90.661l7.551,6.66a.379.379,0,0,0,.173.086l6.235,1.3a.376.376,0,0,0,.264-.694l-13.787-7.96a.377.377,0,0,0-.437.609" transform="translate(-28.623 -28.97)" fill="#fff" fill-rule="evenodd"/>
          <path id="Trazado_190860" data-name="Trazado 190860" d="M89.051,90.661l1.823,1.608a1.049,1.049,0,0,1,1.137.005l4.738,2.735c2.1,1.21,3.119,2.019,2.815,2.464a.946.946,0,0,1-.914.326l4.36.909a.376.376,0,0,0,.264-.694l-13.787-7.96a.377.377,0,0,0-.437.609" transform="translate(-28.623 -28.97)" fill="#dff0f4" fill-rule="evenodd"/>
          <path id="Trazado_190861" data-name="Trazado 190861" d="M88.739,138.139a.507.507,0,0,0,1,0V90.41a.507.507,0,0,0-1,0Z" transform="translate(-28.564 -28.961)" fill="#fff" fill-rule="evenodd"/>
          <path id="Trazado_190862" data-name="Trazado 190862" d="M89.006,91.081a1,1,0,1,0-1-.995,1,1,0,0,0,1,.995" transform="translate(-28.329 -28.676)" fill="#fff" fill-rule="evenodd"/>
          <path id="Trazado_190863" data-name="Trazado 190863" d="M89.188,90.881a.614.614,0,1,0-.614-.614.615.615,0,0,0,.614.614" transform="translate(-28.511 -28.858)" fill="#a4d8db" fill-rule="evenodd"/>
          <path id="Trazado_190864" data-name="Trazado 190864" d="M90.608,160.6H85.029a.708.708,0,0,0,0,1.417h5.579a.708.708,0,0,0,0-1.417" transform="translate(-27.142 -51.695)" fill="#fff" fill-rule="evenodd"/>
          <path id="Trazado_190865" data-name="Trazado 190865" d="M91.3,161.647H83.732a.354.354,0,0,0,0,.708H91.3a.354.354,0,1,0,0-.708" transform="translate(-26.838 -52.032)" fill="#dff0f4" fill-rule="evenodd"/>
          <path id="Trazado_190866" data-name="Trazado 190866" d="M263.76,115.137l1.991-9.871a.359.359,0,0,0-.01-.191l-1.993-6.051a.377.377,0,0,0-.734.117v15.92a.377.377,0,0,0,.747.075" transform="translate(-84.66 -31.791)" fill="#fff" fill-rule="evenodd"/>
          <path id="Trazado_190867" data-name="Trazado 190867" d="M263.76,115.137l.48-2.384a1.05,1.05,0,0,1-.564-.987V106.3c0-2.419.188-3.711.724-3.67a.945.945,0,0,1,.74.63l-1.393-4.231a.377.377,0,0,0-.734.117v15.92a.377.377,0,0,0,.747.075" transform="translate(-84.66 -31.791)" fill="#dff0f4" fill-rule="evenodd"/>
          <path id="Trazado_190868" data-name="Trazado 190868" d="M256.727,122.262l-9.544,3.21a.366.366,0,0,0-.162.105l-4.242,4.75a.377.377,0,0,0,.469.577l13.787-7.96a.376.376,0,0,0-.309-.682" transform="translate(-78.116 -39.348)" fill="#fff" fill-rule="evenodd"/>
          <path id="Trazado_190869" data-name="Trazado 190869" d="M256.727,122.262l-2.3.774a1.048,1.048,0,0,1-.572.982l-4.739,2.736c-2.1,1.21-3.306,1.693-3.54,1.206a.946.946,0,0,1,.175-.955l-2.967,3.321a.377.377,0,0,0,.469.577l13.787-7.96a.376.376,0,0,0-.309-.682" transform="translate(-78.116 -39.348)" fill="#dff0f4" fill-rule="evenodd"/>
          <path id="Trazado_190870" data-name="Trazado 190870" d="M263.141,122.9l7.553,6.66a.355.355,0,0,0,.172.086l6.235,1.3a.376.376,0,0,0,.265-.694l-13.787-7.96a.377.377,0,0,0-.438.609" transform="translate(-84.66 -39.347)" fill="#fff" fill-rule="evenodd"/>
          <path id="Trazado_190871" data-name="Trazado 190871" d="M263.141,122.9l1.824,1.608a1.049,1.049,0,0,1,1.137,0c1.311.757,2.643,1.525,4.737,2.736s3.119,2.017,2.816,2.462a.948.948,0,0,1-.915.326l4.36.909a.376.376,0,0,0,.265-.694l-13.787-7.96a.377.377,0,0,0-.438.609" transform="translate(-84.66 -39.347)" fill="#dff0f4" fill-rule="evenodd"/>
          <path id="Trazado_190872" data-name="Trazado 190872" d="M262.829,170.378a.507.507,0,0,0,1,0V122.649a.507.507,0,0,0-1,0Z" transform="translate(-84.601 -39.338)" fill="#fff" fill-rule="evenodd"/>
          <path id="Trazado_190873" data-name="Trazado 190873" d="M263.1,123.32a1,1,0,1,0-.995-1,1,1,0,0,0,.995,1" transform="translate(-84.366 -39.054)" fill="#fff" fill-rule="evenodd"/>
          <path id="Trazado_190874" data-name="Trazado 190874" d="M263.277,123.119a.614.614,0,1,0-.612-.614.615.615,0,0,0,.612.614" transform="translate(-84.548 -39.235)" fill="#a4d8db" fill-rule="evenodd"/>
          <path id="Trazado_190875" data-name="Trazado 190875" d="M264.7,192.84h-5.58a.709.709,0,0,0,0,1.417h5.58a.709.709,0,0,0,0-1.417" transform="translate(-83.179 -62.072)" fill="#fff" fill-rule="evenodd"/>
          <path id="Trazado_190876" data-name="Trazado 190876" d="M265.388,193.886h-7.566a.354.354,0,1,0,0,.708h7.566a.354.354,0,1,0,0-.708" transform="translate(-82.875 -62.409)" fill="#dff0f4" fill-rule="evenodd"/>
          <path id="Trazado_190877" data-name="Trazado 190877" d="M306.616,152.314a.666.666,0,0,1,1.331,0v1.152H309.1a.665.665,0,1,1,0,1.33h-1.152v1.153a.666.666,0,0,1-1.331,0V154.8h-1.152a.665.665,0,0,1,0-1.33h1.152Z" transform="translate(-98.11 -48.814)" fill="#a4d8db" fill-rule="evenodd"/>
        </g>
      </g>
      <path id="Trazado_190880" data-name="Trazado 190880" d="M259.637,39.37h0a4.857,4.857,0,0,1,4.842,4.842V64.977c.306,7.747,8.392,8.143,8.392,22.06v28.725A6.259,6.259,0,0,1,266.63,122H252.641a6.259,6.259,0,0,1-6.24-6.241v-52.4c0-7.317,1.679-7.81,5.111-9.792a6.633,6.633,0,0,0,3.282-5.548V44.212a4.856,4.856,0,0,1,4.843-4.842" transform="translate(398.363 407.551)" fill="#70853b" fill-rule="evenodd"/>
      <path id="Trazado_190881" data-name="Trazado 190881" d="M263.513,65.418a.588.588,0,0,1,1.175,0V78.846l2.765-1.6a.351.351,0,1,1,.35.608l-3.115,1.8V98.865l8.189-4.728a.351.351,0,1,1,.349.608l-8.539,4.931V118.1l8.189-4.729a.351.351,0,1,1,.349.608l-8.539,4.931v26.41a.588.588,0,0,1-1.175,0V123.808l-7.013-4.049a.351.351,0,0,1,.349-.609L263.513,123V107.6l-7.013-4.049a.351.351,0,0,1,.349-.609l6.664,3.848v-15.4L256.5,87.345a.351.351,0,0,1,.349-.608l6.664,3.847v-15.4L256.5,71.137a.351.351,0,0,1,.349-.608l6.664,3.847Z" transform="translate(393.899 396.098)" fill="#10210d" fill-rule="evenodd"/>
      <path id="Trazado_190895" data-name="Trazado 190895" d="M67.589,4.724V9.449c0,1.865,1.368,3.108,2.145,3.916s1.244,1.958,1.244,5.564-.1,9.931-.1,12.977c0,8.214-15.65,8.214-15.65,0,0-3.046-.1-9.371-.1-12.977s.466-4.756,1.243-5.564,2.145-2.051,2.145-3.916V4.724a4.542,4.542,0,1,1,9.076,0" transform="translate(974.727 480.666)" fill="#32573b" fill-rule="evenodd"/>
      <path id="Trazado_190901" data-name="Trazado 190901" d="M67.589,4.724V9.449c0,1.865,1.368,3.108,2.145,3.916s1.244,1.958,1.244,5.564-.1,9.931-.1,12.977c0,8.214-15.65,8.214-15.65,0,0-3.046-.1-9.371-.1-12.977s.466-4.756,1.243-5.564,2.145-2.051,2.145-3.916V4.724a4.542,4.542,0,1,1,9.076,0" transform="translate(529.023 480.666)" fill="#32573b" fill-rule="evenodd"/>
      <path id="Trazado_190897" data-name="Trazado 190897" d="M67.589,4.724V9.449c0,1.865,1.368,3.108,2.145,3.916s1.244,1.958,1.244,5.564-.1,9.931-.1,12.977c0,8.214-15.65,8.214-15.65,0,0-3.046-.1-9.371-.1-12.977s.466-4.756,1.243-5.564,2.145-2.051,2.145-3.916V4.724a4.542,4.542,0,1,1,9.076,0" transform="translate(929.023 480.666)" fill="#32573b" fill-rule="evenodd"/>
      <path id="Trazado_190905" data-name="Trazado 190905" d="M67.589,4.724V9.449c0,1.865,1.368,3.108,2.145,3.916s1.244,1.958,1.244,5.564-.1,9.931-.1,12.977c0,8.214-15.65,8.214-15.65,0,0-3.046-.1-9.371-.1-12.977s.466-4.756,1.243-5.564,2.145-2.051,2.145-3.916V4.724a4.542,4.542,0,1,1,9.076,0" transform="translate(483.319 480.666)" fill="#32573b" fill-rule="evenodd"/>
      <path id="Trazado_190899" data-name="Trazado 190899" d="M67.589,4.724V9.449c0,1.865,1.368,3.108,2.145,3.916s1.244,1.958,1.244,5.564-.1,9.931-.1,12.977c0,8.214-15.65,8.214-15.65,0,0-3.046-.1-9.371-.1-12.977s.466-4.756,1.243-5.564,2.145-2.051,2.145-3.916V4.724a4.542,4.542,0,1,1,9.076,0" transform="translate(949.023 480.666)" fill="#32573b" fill-rule="evenodd"/>
      <path id="Trazado_190903" data-name="Trazado 190903" d="M67.589,4.724V9.449c0,1.865,1.368,3.108,2.145,3.916s1.244,1.958,1.244,5.564-.1,9.931-.1,12.977c0,8.214-15.65,8.214-15.65,0,0-3.046-.1-9.371-.1-12.977s.466-4.756,1.243-5.564,2.145-2.051,2.145-3.916V4.724a4.542,4.542,0,1,1,9.076,0" transform="translate(503.319 480.666)" fill="#32573b" fill-rule="evenodd"/>
      <path id="Trazado_190896" data-name="Trazado 190896" d="M72.543,18.431a.294.294,0,1,0-.587,0v6.714l-1.383-.8a.175.175,0,0,0-.175.3l1.557.9v9.6L67.861,32.79a.176.176,0,0,0-.175.3l4.269,2.465v9.209l-4.095-2.364a.175.175,0,1,0-.175.3l4.269,2.465V55.762a.294.294,0,0,0,.587,0V47.626L76.049,45.6a.175.175,0,1,0-.175-.3l-3.332,1.923v-7.7L76.049,37.5a.175.175,0,1,0-.175-.3l-3.332,1.924v-7.7l3.507-2.025a.175.175,0,1,0-.175-.3l-3.332,1.924v-7.7L74.827,22a.176.176,0,0,0-.175-.3l-2.11,1.218Z" transform="translate(965.563 467.341)" fill="#003b30" fill-rule="evenodd"/>
      <path id="Trazado_190902" data-name="Trazado 190902" d="M72.543,18.431a.294.294,0,1,0-.587,0v6.714l-1.383-.8a.175.175,0,0,0-.175.3l1.557.9v9.6L67.861,32.79a.176.176,0,0,0-.175.3l4.269,2.465v9.209l-4.095-2.364a.175.175,0,1,0-.175.3l4.269,2.465V55.762a.294.294,0,0,0,.587,0V47.626L76.049,45.6a.175.175,0,1,0-.175-.3l-3.332,1.923v-7.7L76.049,37.5a.175.175,0,1,0-.175-.3l-3.332,1.924v-7.7l3.507-2.025a.175.175,0,1,0-.175-.3l-3.332,1.924v-7.7L74.827,22a.176.176,0,0,0-.175-.3l-2.11,1.218Z" transform="translate(519.859 467.341)" fill="#003b30" fill-rule="evenodd"/>
      <path id="Trazado_190898" data-name="Trazado 190898" d="M72.543,18.431a.294.294,0,1,0-.587,0v6.714l-1.383-.8a.175.175,0,0,0-.175.3l1.557.9v9.6L67.861,32.79a.176.176,0,0,0-.175.3l4.269,2.465v9.209l-4.095-2.364a.175.175,0,1,0-.175.3l4.269,2.465V55.762a.294.294,0,0,0,.587,0V47.626L76.049,45.6a.175.175,0,1,0-.175-.3l-3.332,1.923v-7.7L76.049,37.5a.175.175,0,1,0-.175-.3l-3.332,1.924v-7.7l3.507-2.025a.175.175,0,1,0-.175-.3l-3.332,1.924v-7.7L74.827,22a.176.176,0,0,0-.175-.3l-2.11,1.218Z" transform="translate(919.859 467.341)" fill="#003b30" fill-rule="evenodd"/>
      <path id="Trazado_190906" data-name="Trazado 190906" d="M72.543,18.431a.294.294,0,1,0-.587,0v6.714l-1.383-.8a.175.175,0,0,0-.175.3l1.557.9v9.6L67.861,32.79a.176.176,0,0,0-.175.3l4.269,2.465v9.209l-4.095-2.364a.175.175,0,1,0-.175.3l4.269,2.465V55.762a.294.294,0,0,0,.587,0V47.626L76.049,45.6a.175.175,0,1,0-.175-.3l-3.332,1.923v-7.7L76.049,37.5a.175.175,0,1,0-.175-.3l-3.332,1.924v-7.7l3.507-2.025a.175.175,0,1,0-.175-.3l-3.332,1.924v-7.7L74.827,22a.176.176,0,0,0-.175-.3l-2.11,1.218Z" transform="translate(474.155 467.341)" fill="#003b30" fill-rule="evenodd"/>
      <path id="Trazado_190900" data-name="Trazado 190900" d="M72.543,18.431a.294.294,0,1,0-.587,0v6.714l-1.383-.8a.175.175,0,0,0-.175.3l1.557.9v9.6L67.861,32.79a.176.176,0,0,0-.175.3l4.269,2.465v9.209l-4.095-2.364a.175.175,0,1,0-.175.3l4.269,2.465V55.762a.294.294,0,0,0,.587,0V47.626L76.049,45.6a.175.175,0,1,0-.175-.3l-3.332,1.923v-7.7L76.049,37.5a.175.175,0,1,0-.175-.3l-3.332,1.924v-7.7l3.507-2.025a.175.175,0,1,0-.175-.3l-3.332,1.924v-7.7L74.827,22a.176.176,0,0,0-.175-.3l-2.11,1.218Z" transform="translate(939.859 467.341)" fill="#003b30" fill-rule="evenodd"/>
      <path id="Trazado_190904" data-name="Trazado 190904" d="M72.543,18.431a.294.294,0,1,0-.587,0v6.714l-1.383-.8a.175.175,0,0,0-.175.3l1.557.9v9.6L67.861,32.79a.176.176,0,0,0-.175.3l4.269,2.465v9.209l-4.095-2.364a.175.175,0,1,0-.175.3l4.269,2.465V55.762a.294.294,0,0,0,.587,0V47.626L76.049,45.6a.175.175,0,1,0-.175-.3l-3.332,1.923v-7.7L76.049,37.5a.175.175,0,1,0-.175-.3l-3.332,1.924v-7.7l3.507-2.025a.175.175,0,1,0-.175-.3l-3.332,1.924v-7.7L74.827,22a.176.176,0,0,0-.175-.3l-2.11,1.218Z" transform="translate(494.155 467.341)" fill="#003b30" fill-rule="evenodd"/>
    </g>
  </g>
</svg>
