<svg xmlns="http://www.w3.org/2000/svg" xmlns:xlink="http://www.w3.org/1999/xlink" width="294.07" height="164.752" viewBox="0 0 294.07 164.752">
  <defs>
    <clipPath id="clip-path">
      <rect id="Rectángulo_40338" data-name="Rectángulo 40338" width="159.843" height="160.395" fill="none"/>
    </clipPath>
  </defs>
  <g id="Grupo_148069" data-name="Grupo 148069" transform="translate(4610 9546.916)">
    <path id="Trazado_190600" data-name="Trazado 190600" d="M-5908-10043.164l4.358-4.357h285.354l4.358,4.357Z" transform="translate(1298 661)" fill="#a0a9b6"/>
    <g id="city" transform="translate(-4435.384 -9505.64)">
      <path id="Trazado_191734" data-name="Trazado 191734" d="M282.9,236.157H269.446V203.291l12.481,10.581a2.753,2.753,0,0,1,.973,2.1Z" transform="translate(-205.827 -155.292)" fill="#a0a9b6"/>
      <path id="Trazado_191736" data-name="Trazado 191736" d="M76.557,264.39H61.563a2.007,2.007,0,0,0-2.007,2.007v54.686H77.265V264.39Z" transform="translate(-45.494 -201.965)" fill="#9eb7e5"/>
      <g id="Grupo_147700" data-name="Grupo 147700" transform="translate(14.062 62.426)">
        <path id="Trazado_191737" data-name="Trazado 191737" d="M64.373,266.4a2.007,2.007,0,0,1,2.007-2.007H61.564a2.007,2.007,0,0,0-2.007,2.007v54.685h4.816Z" transform="translate(-59.557 -264.391)" fill="#7088b4"/>
        <path id="Trazado_191738" data-name="Trazado 191738" d="M83.024,299.483H78.163a1.771,1.771,0,1,1,0-3.542h4.861a1.771,1.771,0,1,1,0,3.542Z" transform="translate(-72.417 -288.492)" fill="#7088b4"/>
        <path id="Trazado_191739" data-name="Trazado 191739" d="M83.024,338.532H78.163a1.771,1.771,0,0,1,0-3.542h4.861a1.771,1.771,0,0,1,0,3.542Z" transform="translate(-72.417 -318.321)" fill="#7088b4"/>
        <path id="Trazado_191740" data-name="Trazado 191740" d="M83.712,377.583H78.163a1.771,1.771,0,1,1,0-3.542h5.549a1.771,1.771,0,0,1,0,3.542Z" transform="translate(-72.417 -348.151)" fill="#7088b4"/>
        <path id="Trazado_191741" data-name="Trazado 191741" d="M83.712,416.632H78.163a1.771,1.771,0,1,1,0-3.542h5.549a1.771,1.771,0,0,1,0,3.542Z" transform="translate(-72.417 -377.98)" fill="#7088b4"/>
        <path id="Trazado_191742" data-name="Trazado 191742" d="M83.712,455.682H78.163a1.771,1.771,0,1,1,0-3.542h5.549a1.771,1.771,0,0,1,0,3.542Z" transform="translate(-72.417 -407.81)" fill="#7088b4"/>
      </g>
      <circle id="Elipse_5520" data-name="Elipse 5520" cx="12.881" cy="12.881" r="12.881" transform="translate(77.378 7.528)" fill="#fac149"/>
      <path id="Trazado_191743" data-name="Trazado 191743" d="M332.445,44.756A12.882,12.882,0,0,1,342.965,32.1a12.881,12.881,0,1,0,0,25.322A12.882,12.882,0,0,1,332.445,44.756Z" transform="translate(-250.344 -24.348)" fill="#f8a748"/>
      <path id="Trazado_191744" data-name="Trazado 191744" d="M194.094,1.841V13.81a1.772,1.772,0,1,0,3.542,0V1.841a1.772,1.772,0,1,0-3.542,0Z" transform="translate(-148.266)" fill="#a4d9f4"/>
      <path id="Trazado_191745" data-name="Trazado 191745" d="M190.221,59.189h-4.655a1.676,1.676,0,0,0-1.676,1.676v8.483h8.361V61.219A2.03,2.03,0,0,0,190.221,59.189Z" transform="translate(-140.472 -45.214)" fill="#c0cdce"/>
      <path id="Trazado_191746" data-name="Trazado 191746" d="M189.2,60.86a1.676,1.676,0,0,1,1.359-1.645c-.251-.042.089-.031-5-.031a1.676,1.676,0,0,0-1.676,1.676v8.483H189.2v-.708C189.2,65.59,189.2,63.977,189.2,60.86Z" transform="translate(-140.471 -45.209)" fill="#afbcbc"/>
      <path id="Trazado_191747" data-name="Trazado 191747" d="M174.852,96.285H156.081a1.652,1.652,0,0,0-1.652,1.652V108.8h22.43V98.291A2.007,2.007,0,0,0,174.852,96.285Z" transform="translate(-117.967 -73.551)" fill="#a5afaf"/>
      <path id="Trazado_191748" data-name="Trazado 191748" d="M159.742,97.937a1.652,1.652,0,0,1,1.652-1.652H156.08a1.652,1.652,0,0,0-1.652,1.652V108.8h5.314V97.937Z" transform="translate(-117.966 -73.551)" fill="#98a0a0"/>
      <path id="Trazado_191749" data-name="Trazado 191749" d="M162.265,146.288H134.639A2.716,2.716,0,0,0,131.923,149v81.862H164.98V149A2.715,2.715,0,0,0,162.265,146.288Z" transform="translate(-100.775 -111.748)" fill="#c0cdce"/>
      <path id="Trazado_191750" data-name="Trazado 191750" d="M137.237,149.358V149a2.716,2.716,0,0,1,2.716-2.716h-5.314A2.716,2.716,0,0,0,131.923,149v81.862h5.314V149.358Z" transform="translate(-100.775 -111.748)" fill="#afbcbc"/>
      <g id="Grupo_147701" data-name="Grupo 147701" transform="translate(36.855 42.214)">
        <path id="Trazado_191751" data-name="Trazado 191751" d="M175.808,182.332H157.863a1.771,1.771,0,0,1,0-3.542h17.946a1.771,1.771,0,0,1,0,3.542Z" transform="translate(-156.092 -178.79)" fill="#a5afaf"/>
        <path id="Trazado_191752" data-name="Trazado 191752" d="M175.808,221.382H157.863a1.771,1.771,0,0,1,0-3.542h17.946a1.771,1.771,0,0,1,0,3.542Z" transform="translate(-156.092 -208.62)" fill="#a5afaf"/>
        <path id="Trazado_191753" data-name="Trazado 191753" d="M175.808,260.432H157.863a1.771,1.771,0,1,1,0-3.542h17.946a1.771,1.771,0,1,1,0,3.542Z" transform="translate(-156.092 -238.45)" fill="#a5afaf"/>
        <path id="Trazado_191754" data-name="Trazado 191754" d="M175.808,299.483H157.863a1.771,1.771,0,1,1,0-3.542h17.946a1.771,1.771,0,1,1,0,3.542Z" transform="translate(-156.092 -268.28)" fill="#a5afaf"/>
        <path id="Trazado_191755" data-name="Trazado 191755" d="M175.808,338.532H157.863a1.771,1.771,0,0,1,0-3.542h17.946a1.771,1.771,0,0,1,0,3.542Z" transform="translate(-156.092 -298.109)" fill="#a5afaf"/>
        <path id="Trazado_191756" data-name="Trazado 191756" d="M175.808,377.583H157.863a1.771,1.771,0,1,1,0-3.542h17.946a1.771,1.771,0,1,1,0,3.542Z" transform="translate(-156.092 -327.94)" fill="#a5afaf"/>
        <path id="Trazado_191757" data-name="Trazado 191757" d="M175.808,416.632H157.863a1.771,1.771,0,1,1,0-3.542h17.946a1.771,1.771,0,1,1,0,3.542Z" transform="translate(-156.092 -357.769)" fill="#a5afaf"/>
        <path id="Trazado_191758" data-name="Trazado 191758" d="M175.808,455.682H157.863a1.771,1.771,0,1,1,0-3.542h17.946a1.771,1.771,0,1,1,0,3.542Z" transform="translate(-156.092 -387.599)" fill="#a5afaf"/>
      </g>
      <path id="Trazado_191759" data-name="Trazado 191759" d="M267.594,337.3H221.549a2.278,2.278,0,0,0-2.278,2.278v37.2h50.6v-37.2A2.278,2.278,0,0,0,267.594,337.3Z" transform="translate(-167.499 -257.659)" fill="#ddc192"/>
      <g id="Grupo_147702" data-name="Grupo 147702" transform="translate(51.772 79.64)">
        <path id="Trazado_191760" data-name="Trazado 191760" d="M224.048,376.232v-37.2a2.272,2.272,0,0,1,.8-1.733h-3.3a2.278,2.278,0,0,0-2.278,2.278v37.2h50.6v-.545Z" transform="translate(-219.269 -337.3)" fill="#c3ab83"/>
        <path id="Trazado_191761" data-name="Trazado 191761" d="M284.655,377.583H252.408a1.771,1.771,0,1,1,0-3.542h32.247a1.771,1.771,0,1,1,0,3.542Z" transform="translate(-243.231 -365.366)" fill="#c3ab83"/>
        <path id="Trazado_191762" data-name="Trazado 191762" d="M284.655,416.632H252.408a1.771,1.771,0,1,1,0-3.542h32.247a1.771,1.771,0,1,1,0,3.542Z" transform="translate(-243.231 -395.195)" fill="#c3ab83"/>
        <path id="Trazado_191763" data-name="Trazado 191763" d="M284.655,455.682H252.408a1.771,1.771,0,1,1,0-3.542h32.247a1.771,1.771,0,1,1,0,3.542Z" transform="translate(-243.231 -425.025)" fill="#c3ab83"/>
      </g>
    </g>
    <path id="Trazado_191965" data-name="Trazado 191965" d="M46.531,26.738a7.656,7.656,0,0,0-6.089-6.081c-2.494-.464-3.1.433-3.713-.315a6.1,6.1,0,0,0-5.582-2.176,1.284,1.284,0,0,1-1.4-.855A10.213,10.213,0,0,0,9.874,20.5l0,.007a.462.462,0,0,1-.555.386l-.079-.019h0A7.643,7.643,0,1,0,7.6,36H38.986A7.732,7.732,0,0,0,46.531,26.738Z" transform="translate(-4453.773 -9534.788)" fill="#a4d9f4"/>
    <g id="Grupo_147745" data-name="Grupo 147745" transform="translate(-4453.773 -9524.374)">
      <path id="Trazado_191943" data-name="Trazado 191943" d="M48.052,20.318a7.822,7.822,0,0,1,2.259.16h0l.082.02a.474.474,0,0,0,.57-.4l0-.008a10.559,10.559,0,0,1,6.653-9.626A10.205,10.205,0,0,0,46.366,20.505l0,.007a.74.74,0,0,1-.053.139A7.655,7.655,0,0,1,48.052,20.318Z" transform="translate(-36.493 -10.415)" fill="#77cff2"/>
      <path id="Trazado_191944" data-name="Trazado 191944" d="M4.364,65.79a7.864,7.864,0,0,1,4.842-6.677A7.643,7.643,0,1,0,7.6,74.236h4.543A7.832,7.832,0,0,1,4.364,65.79Z" transform="translate(-0.001 -48.654)" fill="#77cff2"/>
    </g>
    <g id="ciudad" transform="translate(-4509 -9548.521)">
      <path id="Trazado_191966" data-name="Trazado 191966" d="M162.416,454.87c1.748,0,2.365-1.51.845-2.071-21.3-7.854-49.15-12.612-79.63-12.612-30.5,0-58.36,4.764-79.667,12.625-1.51.557-.9,2.057.839,2.057Z" transform="translate(-89.339 -292.87)" fill="#9eb7e5"/>
      <path id="Trazado_191923" data-name="Trazado 191923" d="M162.416,462.909a1.717,1.717,0,0,0,.845-3.2c-21.3-12.154-49.15-19.518-79.63-19.518-30.5,0-58.36,7.372-79.667,19.538a1.706,1.706,0,0,0,.839,3.184Z" transform="translate(-2.123 -300.909)" fill="#29b288"/>
      <path id="Trazado_191924" data-name="Trazado 191924" d="M16.924,459.724c19.787-11.3,45.231-18.458,73.187-19.423q-3.219-.111-6.48-.116c-30.5,0-58.36,7.372-79.667,19.538a1.706,1.706,0,0,0,.84,3.184h12.96A1.706,1.706,0,0,1,16.924,459.724Z" transform="translate(-2.124 -300.908)" fill="#21a378"/>
    </g>
    <g id="Grupo_147589" data-name="Grupo 147589" transform="translate(-4581.165 -9546.916)">
      <g id="Grupo_147588" data-name="Grupo 147588" transform="translate(0 0)" clip-path="url(#clip-path)">
        <path id="Trazado_191625" data-name="Trazado 191625" d="M97.116,66.3c4.176-3.38-1.344-4.337-4.357-3.734-3.625.723-6.448-1.906-10.379-1.464-1.943.219-2.962,1.308-4.606,2.039-1.375.613-4.111.2-4.994,1.448-1.568,2.215,1.6,2.183,3.013,2.322a105.3,105.3,0,0,0,10.535.633c2.721-.007,8.35.728,10.788-1.245" transform="translate(51.524 43.472)" fill="#fc3"/>
        <path id="Trazado_191626" data-name="Trazado 191626" d="M36.5,8.782c.031-.134.055-.3.079-.467a1.024,1.024,0,0,0,.373-.4,14.207,14.207,0,0,0,.507-2.556,6.457,6.457,0,0,1,.416-1.58.351.351,0,0,1,.63-.108c.228.322-.065,1.606-.065,1.83,0,.171-.113.918-.166,1.255.048-.3.146-.892.188-1.051a13.462,13.462,0,0,1,.392-2.077c.265-.469.887-.214.782.416-.11.657-.325,1.662-.387,2.041-.055.334-.259,1.248-.259,1.248s.252-1.048.286-1.154a7.4,7.4,0,0,1,.366-1.365c.211-.5.586-.3.64-.036a10.323,10.323,0,0,1-.32,2.078c-.125.6-.175.914-.175.914a4.513,4.513,0,0,0,.473-.883c.046-.236-.132-.815.142-1.041.31-.259.485.378.473.68A4.285,4.285,0,0,1,40.694,8.2a17.056,17.056,0,0,1-1.277,2.257,9.678,9.678,0,0,0-.394,2.356c.122,0-3.337-.68-3.337-.68a5.859,5.859,0,0,0,.193-1.233c.229-.7.455-1.4.623-2.12" transform="translate(25.412 2.413)" fill="#ff9d8a"/>
        <path id="Trazado_191627" data-name="Trazado 191627" d="M22.242,23.422a5.566,5.566,0,0,1,4.823-5.364c4.405-.666,10.076,4.006,12.546,3.438,3.433-.791,7.48-14.56,7.48-14.56l4.094,1.5s-6.917,20.071-9.661,20.67-15.248-1.455-17.98-3.03a2.858,2.858,0,0,1-1.3-2.659" transform="translate(15.838 4.939)" fill="#c6d1de"/>
        <path id="Trazado_191628" data-name="Trazado 191628" d="M59.282,33.328l7.886,8.459c-5.176,2.8-17.085,6.1-17.085,28.9,0,11.3,12.808,26.255,32.15,26.1,5.26-.041,11.457-1.909,16.457-4.22H105.5c1.784.348,5.082-1.584,6.61.836-6.542,8.449-21.713,14.644-32.687,14.644-21.483,0-37.995-15.881-38.9-35.423-.967-20.953,6.145-30.777,18.758-39.293" transform="translate(28.795 23.732)" fill="#110239"/>
        <rect id="Rectángulo_40331" data-name="Rectángulo 40331" width="17.369" height="34.873" transform="matrix(0.688, -0.725, 0.725, 0.688, 55.45, 27.649)" fill="#ddc192"/>
        <rect id="Rectángulo_40332" data-name="Rectángulo 40332" width="10.159" height="27.53" transform="translate(108.427 72.951) rotate(-46.495)" fill="#ddc192"/>
        <rect id="Rectángulo_40333" data-name="Rectángulo 40333" width="26.546" height="55.714" transform="translate(70.931 48.665) rotate(-46.5)" fill="#6a9aee"/>
        <path id="Trazado_191629" data-name="Trazado 191629" d="M46.458,25.412l5.22-5.525L92.064,58.312l-5.232,5.513Z" transform="translate(33.083 14.161)" fill="#6fc6ec"/>
        <path id="Trazado_191630" data-name="Trazado 191630" d="M86.373,63.125l-2.561,2.7-40.364-38.4,2.561-2.7Z" transform="translate(30.938 17.605)" fill="#1d81bd"/>
        <rect id="Rectángulo_40334" data-name="Rectángulo 40334" width="15.076" height="3.605" transform="translate(118.384 85.789) rotate(-46.5)" fill="#110239"/>
        <rect id="Rectángulo_40335" data-name="Rectángulo 40335" width="23.817" height="8.375" transform="translate(47.347 24.293) rotate(-46.5)" fill="#110239"/>
        <rect id="Rectángulo_40336" data-name="Rectángulo 40336" width="13.354" height="5.162" transform="matrix(0.688, -0.725, 0.725, 0.688, 125.112, 90.988)" fill="#110239"/>
        <rect id="Rectángulo_40337" data-name="Rectángulo 40337" width="46.889" height="7.648" transform="translate(112.954 109.485)" fill="#9597b4"/>
        <path id="Trazado_191631" data-name="Trazado 191631" d="M47.666,39.72A10.006,10.006,0,1,0,57.673,29.714,10.007,10.007,0,0,0,47.666,39.72" transform="translate(33.943 21.159)" fill="#110239"/>
        <path id="Trazado_191632" data-name="Trazado 191632" d="M50.528,37.681a5.107,5.107,0,1,0,5.107-5.105,5.109,5.109,0,0,0-5.107,5.105" transform="translate(35.981 23.197)" fill="#fff"/>
        <path id="Trazado_191633" data-name="Trazado 191633" d="M66.449,71.079c13.067,0,15.443,27.76,15.443,27.76H51.006s2.376-27.76,15.443-27.76" transform="translate(36.321 50.615)" fill="#6a9aee"/>
        <path id="Trazado_191634" data-name="Trazado 191634" d="M103.268,98.705a6.17,6.17,0,0,0-6.028-4.864H50.694a6.17,6.17,0,0,0-6.028,4.864H40.449V93.653a7.023,7.023,0,0,1,7.025-7.023H100.46a7.023,7.023,0,0,1,7.025,7.023v5.052Z" transform="translate(28.804 61.689)" fill="#110239"/>
        <path id="Trazado_191635" data-name="Trazado 191635" d="M56.494,79.482a6.046,6.046,0,1,0,6.045-6.045,6.046,6.046,0,0,0-6.045,6.045" transform="translate(40.229 52.294)" fill="#110239"/>
        <path id="Trazado_191636" data-name="Trazado 191636" d="M58.223,78.252a3.086,3.086,0,1,0,3.087-3.087,3.088,3.088,0,0,0-3.087,3.087" transform="translate(41.461 53.525)" fill="#fff"/>
        <path id="Trazado_191637" data-name="Trazado 191637" d="M17.9,40.222l.885-2.652H58.416l-.844,2.652Z" transform="translate(12.743 26.753)" fill="#6a9aee"/>
        <path id="Trazado_191638" data-name="Trazado 191638" d="M15.144,48.487l.894-2.681H55.885l-.854,2.681Z" transform="translate(10.784 32.618)" fill="#6a9aee"/>
        <path id="Trazado_191639" data-name="Trazado 191639" d="M21.378,31.969l.885-2.652H61.9l-.844,2.652Z" transform="translate(15.223 20.876)" fill="#6a9aee"/>
        <path id="Trazado_191640" data-name="Trazado 191640" d="M12.363,56.84l.9-2.71h40.06l-.863,2.71Z" transform="translate(8.804 38.546)" fill="#6a9aee"/>
        <path id="Trazado_191641" data-name="Trazado 191641" d="M9.552,65.284l.913-2.739H50.741l-.873,2.739Z" transform="translate(6.802 44.538)" fill="#6a9aee"/>
        <path id="Trazado_191642" data-name="Trazado 191642" d="M6.71,73.818l.923-2.768H48.127l-.882,2.768Z" transform="translate(4.778 50.594)" fill="#6a9aee"/>
        <path id="Trazado_191643" data-name="Trazado 191643" d="M3.837,82.447l.933-2.8H45.486l-.892,2.8Z" transform="translate(2.733 56.716)" fill="#6a9aee"/>
        <path id="Trazado_191644" data-name="Trazado 191644" d="M2.022,141.583H1.835A1.834,1.834,0,0,1,.1,139.169L37.32,27.669a1.833,1.833,0,0,1,1.738-1.252h2.565L3.761,140.328a1.834,1.834,0,0,1-1.739,1.255" transform="translate(0 18.811)" fill="#6a9aee"/>
        <path id="Trazado_191645" data-name="Trazado 191645" d="M25.577,141.583h-.2a1.835,1.835,0,0,1-1.748-2.392l35.589-111.5a1.833,1.833,0,0,1,1.746-1.276H61a1.833,1.833,0,0,1,1.748,2.388L27.325,140.3a1.833,1.833,0,0,1-1.748,1.279" transform="translate(16.762 18.811)" fill="#6a9aee"/>
        <path id="Trazado_191646" data-name="Trazado 191646" d="M25.8,7.474c.08.087.154.178.24.264a16.646,16.646,0,0,0,2.515,2.191c.56.372,1.43.613,1.911,1a5.359,5.359,0,0,0,.6.426,46.239,46.239,0,0,0-.866,7.306s-5.018-.354-6.848-2.382A50.863,50.863,0,0,0,25.8,7.474" transform="translate(16.63 5.322)" fill="#ff9d8a"/>
        <path id="Trazado_191647" data-name="Trazado 191647" d="M27.805,15.865a7.286,7.286,0,0,0-2.286-3.784,11.376,11.376,0,0,0-1.2-.892,25.629,25.629,0,0,0,.8-3.715c.08.087.154.18.24.265a16.731,16.731,0,0,0,2.515,2.19c.56.372,1.43.613,1.911,1.005a5.724,5.724,0,0,0,.6.425,46.281,46.281,0,0,0-.865,7.307,19.82,19.82,0,0,1-2-.277,3.761,3.761,0,0,0,.284-2.524" transform="translate(17.315 5.322)" fill="#e17c5e"/>
        <path id="Trazado_191648" data-name="Trazado 191648" d="M26.405,60.1s.137,5,.919,5.688,10.738.983,11.594.068.354-2.45-1.782-3.042c-2.291-.635-3.414-.014-4.849-.61s-1.056-2.861-1.056-2.861Z" transform="translate(18.803 42.256)" fill="#110239"/>
        <path id="Trazado_191649" data-name="Trazado 191649" d="M12.129,59.862s-.767,4.874-.012,5.587,10.9,1.51,11.788.632.447-2.435-1.666-3.111c-2.263-.723-3.359-.264-4.821-.8-1.149-.418-.375-2.739-.375-2.739Z" transform="translate(8.392 42.323)" fill="#110239"/>
        <path id="Trazado_191650" data-name="Trazado 191650" d="M19.526,54.871A149.174,149.174,0,0,1,21.6,27.048a12.7,12.7,0,0,1,4.97.962c3.037,1.383,6.1,2.709,9.146,4.039-2.479,5.128-7.9,21.869-8.559,25.372-.813,4.357-9.922,26.585-9.922,26.585l-5.51-.692c.087-3.583,7.814-27.241,7.8-28.443" transform="translate(8.354 19.261)" fill="#110239"/>
        <path id="Trazado_191651" data-name="Trazado 191651" d="M22.639,30.276c2.147.724,6.056,1.765,9.007,2.82,2.055,5.193,8.127,17.451,8.442,23,.348,6.116-1.769,29.287-1.769,29.287H32.013s-.586-26.118-1.469-27.8c-2.912-5.534-6.131-9.92-7.96-13.363a42.888,42.888,0,0,1-4.65-12.19c-.24-1.193-1.282-5.195.745-6.448,1.674.476,2.162,4.088,3.96,4.695" transform="translate(12.428 18.216)" fill="#110239"/>
        <path id="Trazado_191652" data-name="Trazado 191652" d="M40.411,58.094S32.838,60.957,27.6,61.008c-5.018.051-8.632-.07-12.267-2.65,0,0,1.645-15.637,1.924-17.549.817-5.611,2.69-17.207,4.766-21.634,2.787-5.936,7.364-7.073,7.364-7.073S32.99,14.2,35.937,14.15c0,0-.072,11.569-.3,16.188-.151,3.123-.181,8.247-.187,11.238,0,1.431,4.958,16.518,4.958,16.518" transform="translate(10.916 8.617)" fill="#edf6ff"/>
        <path id="Trazado_191653" data-name="Trazado 191653" d="M30.62,55.372c-.438-7.941-4.039-13.842-5.093-21.706a150.588,150.588,0,0,1-.89-16.253A12.479,12.479,0,0,0,28.5,19.048a3.794,3.794,0,0,0,.712.048v.017c0,.019,0,.038,0,.058-.01.635-.022,1.274-.034,1.9l-.005.288c-.012.575-.024,1.14-.038,1.683l-.005.207c-.015.572-.031,1.109-.048,1.616l-.01.3c-.017.505-.036.981-.055,1.39-.152,3.125-.183,8.249-.188,11.24,0,1.431,4.958,16.518,4.958,16.518s-1.289.485-3.164,1.058" transform="translate(17.543 12.399)" fill="#c6d1de"/>
        <path id="Trazado_191654" data-name="Trazado 191654" d="M23.848,5.737S26.581,1.6,29.38,2.162s4.552,1.279,4.778,2.421.447,4.236,1.017,5.446,1.931,2.881,1.829,3.38-1.743.452-1.861.645-1.493,3.731-2.137,4.032-5.78-2.566-6.4-4.3-3.4-5.222-2.76-8.052" transform="translate(16.915 1.501)" fill="#ff9d8a"/>
        <path id="Trazado_191655" data-name="Trazado 191655" d="M30.911,8.451a6.979,6.979,0,0,1,.81.356c.406.13.827.224,1.233.353a5.19,5.19,0,0,0,2.515.342C36.749,9.266,36.521,8,37.2,7.23c.33-.375.911-.3,1.272-.714a2.994,2.994,0,0,0,.586-1.531c.158-1.294-1.085-1.587-2.041-1.969-1.118-.447-1.1-1.1-1.531-2.051-1.075-2.354-3.424.387-4.921-.007-.765-.2-1.512-.82-2.325-.495a5.388,5.388,0,0,0-1.7,1.4c-.539.541-.955.233-1.654.394a3.986,3.986,0,0,0-1.515.858,4.247,4.247,0,0,0-1.513,3.262c.067,1.022.793,1.671.69,2.724a6.293,6.293,0,0,0,.031,2.676c.438,1.185,1.729,1.51,2.5,2.382A3.784,3.784,0,0,0,28.1,15.568c.224-.765.33-2.092-.3-2.578a4.446,4.446,0,0,1-.969-.678,1.23,1.23,0,0,1,1.443-1.89c.873.248.942,2.738,1.967,2.476.781-.2.06-1.553-.086-2-.193-.591-.144-2.012.447-2.405a.391.391,0,0,1,.306-.041" transform="translate(15.563 0)" fill="#110239"/>
        <path id="Trazado_191656" data-name="Trazado 191656" d="M38.987,11.435c.115-.387-.166-1.359.384-1.551.276-.094.517.8.505,1.073a28.514,28.514,0,0,1-.675,4.107c-.216.567-.43,1.116-.6,1.664a8.225,8.225,0,0,0-2.094-.051c-.392-.832-.728-1.813-1.123-2.618-.212-.431-.5-.846-.731-1.262-.149-.262-.512-.767-.288-1.073.245-.337.63.147.782.337.219.276.493.937.935.791.642-.211.25-1.414.226-1.947-.022-.495-.241-2.145.505-1.633A11.427,11.427,0,0,1,37.3,11.28c0-.067-.115-1.2-.111-1.269.024-.353-.063-1.2.265-1.31.7-.228.669,1.907.683,2.209l.029-.829c-.015-.661.045-1.157.426-1.039.483.147.349,1.811.39,2.392" transform="translate(24.424 6.184)" fill="#ff9d8a"/>
        <path id="Trazado_191657" data-name="Trazado 191657" d="M47.3,13.17l-4.207-.711s-1.32,7.5-2.921,9.391c-2.226,2.63-12.351-7.006-14.808-5.107s-2.993,4.63,1.029,6.9c5.657,3.19,13.014,5.056,15.5,4.227,2.748-.916,4.931-9.964,5.407-14.7" transform="translate(16.693 8.872)" fill="#edf6ff"/>
      </g>
    </g>
  </g>
</svg>
