<svg xmlns="http://www.w3.org/2000/svg" xmlns:xlink="http://www.w3.org/1999/xlink" width="295" height="225" viewBox="0 0 295 225">
  <defs>
    <linearGradient id="linear-gradient" x1="0.994" y1="0.696" x2="0.026" y2="0.726" gradientUnits="objectBoundingBox">
      <stop offset="0" stop-color="#9eb7e5"/>
      <stop offset="1" stop-color="#e7f9fa"/>
    </linearGradient>
    <clipPath id="clip-path">
      <rect id="Rectángulo_40108" data-name="Rectángulo 40108" width="228" height="225" transform="translate(5761 -8898)" fill="#fff" stroke="#707070" stroke-width="1"/>
    </clipPath>
    <clipPath id="clip-path-2">
      <path id="Trazado_37452" data-name="Trazado 37452" d="M-396.062-375.394c.438,11.32-5.617,26.013-20.561,25.992-11.728-.015-16.848-15.184-16.656-26.707.185-11.015,11.494-12.094,20-11.971C-405.962-387.972-396.51-387.047-396.062-375.394Z" transform="translate(433.284 388.088)" fill="none"/>
    </clipPath>
  </defs>
  <g id="Grupo_147198" data-name="Grupo 147198" transform="translate(-5723 8668)">
    <g id="Grupo_147179" data-name="Grupo 147179" transform="translate(5723 -8603.815)">
      <path id="Rectángulo_5183" data-name="Rectángulo 5183" d="M0,0H164A131,131,0,0,1,295,131v30a0,0,0,0,1,0,0H0a0,0,0,0,1,0,0V0A0,0,0,0,1,0,0Z" transform="translate(0 -0.185)" fill="url(#linear-gradient)"/>
    </g>
    <g id="Enmascarar_grupo_81" data-name="Enmascarar grupo 81" transform="translate(-4 230)" clip-path="url(#clip-path)">
      <g id="Grupo_147191" data-name="Grupo 147191" transform="translate(6246.072 -8492.103)" style="isolation: isolate">
        <path id="Trazado_37389" data-name="Trazado 37389" d="M-388.378-328.939c4.8-9.572,9.349-23.38,5.992-46.02-1.725-11.627-10.748-22.973-27.284-22.906-15.625.061-25.643,15.046-26.589,35.259a64.955,64.955,0,0,0,8.393,34.516c3.514,6.289,6.686,8.87,17.091,8.87C-404.324-319.221-393.939-317.847-388.378-328.939Z" transform="translate(25.578 0.049)" fill="#fff"/>
        <path id="Trazado_37390" data-name="Trazado 37390" d="M-423.2-372.758h-4.3c-.005-.684-.536-17.014,4.57-25.041a11.234,11.234,0,0,1,4.633.313C-423.563-389.844-423.2-372.914-423.2-372.758Z" transform="translate(39.351 0)" fill="#487fff"/>
        <path id="Trazado_37391" data-name="Trazado 37391" d="M-441.4-351.661c-.892,15.138,1.3,34.885,1.381,51.584.09,19.019,4.336,26.927,9.516,30.536,6.556,4.569,17.066,8.122,32.156,8.05,29.236-.138,29.216-3.421,34.987-14.421,2.068-3.942,2.891-12.181,3.506-18.58.756-7.875,3.347-13.7,3.3-23.429-.128-27.071,6.228-39.477-.2-41.848-12.793-4.718-22.847-12.163-24.672-11.028-2.853,1.776-8.862,4.277-20.149,4.331-7.7.039-10.889-6.445-17.009-6.038-3.5.233-3.993,2.642-7.981,4.639C-435.716-363.284-440.886-360.354-441.4-351.661Z" transform="translate(17.317 39.655)" fill="#fff"/>
        <path id="Trazado_37392" data-name="Trazado 37392" d="M-345.675-259.237c1.24-25.623-6.476-56.3-13.737-72.727,0,0-5.2,2.442-15.664,2.494-9.454.044-43.65-4.857-51.141-7.186-6.307,7.978-17.558,16.312-17.381,71.318.067,20.748,2.714,36.028,5.187,53.327,2.371,16.6,5.09,21.512,4.036,25.044-.733,2.458,2.906,3.257,2.922,6.353.005,1.074-1.112,2.063-1.786,4.644-.754,2.888.615,20.984,1.525,29.677,2.317,18.742,5.713,54.465,13.3,58.209a.473.473,0,0,1,.095.769c-2.463,2.281-12.363,11.371-17.719,15-6.153,4.165-8.488,5.454-8.042,9.705s3.8,5.982,23.719,4.377,21.248-1.656,22.091-4.6c2.255-7.883.733-17.976-2.3-22.542,3.508-2.834,5.677-44.108,5.479-62.958a.157.157,0,0,1,.313-.013c1.707,15.549.205,29.329,3.588,64.152a5.306,5.306,0,0,0,2.245,4.239.325.325,0,0,1,.144.389c-.738,2.153-5.677,17.012-4.206,24.157,1.007,4.887,5.6,8.27,14.985,7.481,8.883-.746,12.942-2.289,12.471-11.868-.413-8.393-6.028-16.566-7.1-20.221a.342.342,0,0,1,.295-.431c5.454-.784,11.22-35.346,13.808-69.816,1.407-19.606,2.058-28.186,2.058-28.186-.008-1.361,1.868-2.419.815-6.927a5.43,5.43,0,0,1-.12-3.034C-350.792-202.92-346.966-232.566-345.675-259.237Z" transform="translate(13.37 95.707)" fill="#fff"/>
        <path id="Trazado_37393" data-name="Trazado 37393" d="M-404.174-369.1c-2.043-2.319-6.932-2.058-9.762-1.471-2.745.572-5.208,4.4-5.426,4.413-.618.041-3.58.195-5.144,1.532-2.337,2-2.16,4.657-3.075,5.133-13.624,7.112-15.877,22.453-18.87,33.163-3.849,13.775-8.022,27.8-2.627,44.124,2.442,7.391,10.579,10.787,16.684,7.768,16.038-7.929,18.919-20.933,26.059-79.4C-405.842-357.85-403.372-365.123-404.174-369.1Z" transform="translate(1.628 42.076)" fill="#fff"/>
        <path id="Trazado_37394" data-name="Trazado 37394" d="M-416.947-371.5s4.177-.167,11.463,2.883a6.814,6.814,0,0,1,9.072,4.731,7.23,7.23,0,0,1,6.743,5.907c9.754,10.6,20.4,29.611,25.182,38.583,6.625,12.419,14.964,42.73,9.621,50.257-6.187,8.708-15.446,2.417-19.5,1.386-1.32-.336-42.763-32.835-31.066-80.359C-404.645-351.321-418.333-368.474-416.947-371.5Z" transform="translate(55.708 41.247)" fill="#fff"/>
        <path id="Trazado_37395" data-name="Trazado 37395" d="M-403.739-274.127c-3.752,1.617-6.963,4.311-10.959,5.372a.451.451,0,0,1-.238-.869c3.916-1.038,7.063-3.693,10.743-5.279.525-.228.984.546.454.776Z" transform="translate(58.507 192.15)" fill="#9fc6e6"/>
        <path id="Trazado_37396" data-name="Trazado 37396" d="M-394.2-277.1c-8.719,3.493-17.847,6.435-27.258,4.118-.561-.136-.323-1,.241-.866,9.236,2.273,18.234-.7,26.779-4.118.538-.215.771.653.238.866Z" transform="translate(48.315 187.373)" fill="#9fc6e6"/>
        <path id="Trazado_37397" data-name="Trazado 37397" d="M-408.9-266.207c-10.479-.366-20.874-1.617-29.813-7.535-.482-.318-.031-1.1.454-.777,8.806,5.83,19.034,7.05,29.36,7.412.577.021.579.92,0,.9Z" transform="translate(21.529 192.7)" fill="#9fc6e6"/>
        <path id="Trazado_37398" data-name="Trazado 37398" d="M-438.056-276.455c3.983,2.248,8.3,2.389,12.765,2.371a.45.45,0,0,1,0,.9c-4.628.018-9.1-.167-13.219-2.494a.45.45,0,0,1,.454-.776Z" transform="translate(21.822 189.693)" fill="#9fc6e6"/>
        <path id="Trazado_37399" data-name="Trazado 37399" d="M-438.656-279.151c6.866,3.775,15.8,6.03,23.532,4a.45.45,0,0,1,.238.866c-7.963,2.1-17.15-.2-24.224-4.088-.507-.279-.054-1.056.454-.777Z" transform="translate(20.879 185.485)" fill="#9fc6e6"/>
        <path id="Trazado_37400" data-name="Trazado 37400" d="M-420.369-220.411c-1.125-1.935-3.475-5.151-3.519-7.553a1.822,1.822,0,0,1,.238-1.053c.249-.466,1.169-.689,1.333-1.151.538-1.535-.551-1.082-.961-1.768-1.448-2.43-.487-6.315-.331-9.113.267-4.741.61-9.48.628-14.229.036-8.77-1.717-17.43-2.255-26.174-.482-7.827-.551-15.672-1.043-23.5-.038-.579.861-.577.9,0,.464,7.337.554,14.693.959,22.035.459,8.3,2.094,16.507,2.317,24.8.11,4.17-.1,8.342-.336,12.5-.131,2.281-.277,4.559-.39,6.84-.133,2.706-.4,4.516,1.058,6.845.63,1.01,1.035,1.31.092,2.391-1.028,1.176-1.392,1.466-.769,3.047a41.5,41.5,0,0,0,2.858,5.62.45.45,0,0,1-.777.454Z" transform="translate(41.275 144.58)" fill="#9fc6e6"/>
        <path id="Trazado_37401" data-name="Trazado 37401" d="M-426.619-293.342c7.409-8.139,14.823-17.563,25.987-20.418a.449.449,0,0,1,.238.866c-11,2.811-18.293,12.173-25.59,20.187-.39.431-1.025-.208-.636-.636Z" transform="translate(40.556 131.465)" fill="#9fc6e6"/>
        <path id="Trazado_37402" data-name="Trazado 37402" d="M-426.192-299.469c8.877-4.959,18.649-7.581,28.542-9.659.564-.118.8.748.238.869-9.816,2.06-19.513,4.644-28.327,9.567-.508.282-.961-.495-.454-.777Z" transform="translate(41.067 138.712)" fill="#9fc6e6"/>
        <path id="Trazado_37403" data-name="Trazado 37403" d="M-415.053-302.877c-5.708-4.49-14.052-4.469-20.92-3.45-.566.085-.81-.782-.238-.866,7.219-1.071,15.794-1.041,21.794,3.68.453.356-.187.989-.636.636Z" transform="translate(25.246 140.859)" fill="#9fc6e6"/>
        <path id="Trazado_37404" data-name="Trazado 37404" d="M-421.043-305.393a20.536,20.536,0,0,0-13.734-3.365c-.574.062-.569-.838,0-.9a21.279,21.279,0,0,1,14.188,3.485c.469.331.021,1.11-.454.777Z" transform="translate(27.328 137.721)" fill="#9fc6e6"/>
        <path id="Trazado_37405" data-name="Trazado 37405" d="M-412.845-334.146c2.45,6.922,4.241,14.118,3.988,21.51-.018.577-.917.579-.9,0,.251-7.314-1.533-14.423-3.954-21.269-.195-.548.674-.782.866-.241Z" transform="translate(60.875 99.152)" fill="#9fc6e6"/>
        <path id="Trazado_37406" data-name="Trazado 37406" d="M-418.378-333.152c1,5.925,1.871,11.74.574,17.694-.123.566-.989.325-.866-.238,1.263-5.812.4-11.427-.574-17.217-.1-.566.769-.81.866-.238Z" transform="translate(52.26 100.675)" fill="#9fc6e6"/>
        <path id="Trazado_37407" data-name="Trazado 37407" d="M-431.836-333.213c-3.462,7.084-6.271,14.385-6.553,22.35-.021.577-.92.579-.9,0,.29-8.116,3.15-15.584,6.676-22.8.254-.52,1.028-.064.776.454Z" transform="translate(20.945 100.021)" fill="#9fc6e6"/>
        <path id="Trazado_37408" data-name="Trazado 37408" d="M-419.247-318.726a76.02,76.02,0,0,0,3.752-23.28.45.45,0,0,1,.9,0,76.888,76.888,0,0,1-3.783,23.521c-.187.543-1.056.31-.869-.241Z" transform="translate(52.226 86.668)" fill="#9fc6e6"/>
        <path id="Trazado_37409" data-name="Trazado 37409" d="M-412.533-334.589c5.377-6.738,5.741-15.507,3.006-23.427-.19-.546.679-.782.866-.238,2.852,8.262,2.347,17.3-3.237,24.3-.361.454-.994-.187-.636-.636Z" transform="translate(62.593 61.473)" fill="#9fc6e6"/>
        <path id="Trazado_37410" data-name="Trazado 37410" d="M-411.531-341.351a32.442,32.442,0,0,1-1.8,19.108c-.218.525-1.089.295-.866-.238a31.631,31.631,0,0,0,1.8-18.632c-.118-.564.748-.8.866-.238Z" transform="translate(60.105 87.866)" fill="#9fc6e6"/>
        <path id="Trazado_37411" data-name="Trazado 37411" d="M-425.209-333.078a38.559,38.559,0,0,1,1.838,20.572c-.1.569-.969.328-.866-.238a37.754,37.754,0,0,0-1.838-20.095c-.2-.543.669-.779.866-.238Z" transform="translate(41.55 100.821)" fill="#9fc6e6"/>
        <path id="Trazado_37412" data-name="Trazado 37412" d="M-423.662-340.259a30.754,30.754,0,0,1-1.558,18.6c-.218.528-1.087.3-.866-.238a29.939,29.939,0,0,0,1.558-18.124c-.128-.564.738-.8.866-.238Z" transform="translate(41.523 89.573)" fill="#9fc6e6"/>
        <path id="Trazado_37413" data-name="Trazado 37413" d="M-432.414-322.886c-2.276-5.743-5.62-11-6.266-17.263-.059-.574.841-.569.9,0,.633,6.148,4,11.387,6.235,17.025.213.538-.656.771-.869.238Z" transform="translate(21.893 89.58)" fill="#9fc6e6"/>
        <path id="Trazado_37414" data-name="Trazado 37414" d="M-419.344-372.873c-2.706,3.46-4.259,7.883-5.648,11.991a146,146,0,0,0-4.821,18.726c-3.193,16.351-3.883,32.878-4.062,49.493a417.141,417.141,0,0,0,1.374,42.4c.935,10.259,2.332,20.651,5.477,30.5a59.318,59.318,0,0,0,8.767,17.827c1.469,1.935,3.357,4.313,5.648,5.338.528.236.072,1.01-.454.776a14.475,14.475,0,0,1-4.475-3.811c-3.8-4.329-6.425-9.634-8.562-14.936-3.749-9.3-5.456-19.339-6.63-29.249a362.755,362.755,0,0,1-2.078-43.447c.033-16.768.428-33.557,3.219-50.126A157.116,157.116,0,0,1-426.1-360.4c1.484-4.5,3.165-9.329,6.117-13.1.356-.456.989.185.636.636Z" transform="translate(27.946 37.87)" fill="#9fc6e6"/>
        <path id="Trazado_37415" data-name="Trazado 37415" d="M-416.947-372.8c-2.027,7.388-4.61,14.564-6.32,22.053-3.4,14.9-4.562,30.026-4.9,45.274-.351,15.823-.771,31.653-.6,47.481.123,11.945.482,24.008,2.481,35.807,1.448,8.55,3.716,16.989,5.7,25.431.131.561-.736.8-.866.238-1.776-7.565-3.719-15.126-5.21-22.75-2.158-11.048-2.688-22.4-2.922-33.624-.326-15.62.059-31.251.4-46.869.346-15.766,1-31.387,4.129-46.887,1.82-9.011,4.828-17.565,7.253-26.394a.449.449,0,0,1,.866.238Z" transform="translate(35.903 38.355)" fill="#9fc6e6"/>
        <path id="Trazado_37416" data-name="Trazado 37416" d="M-415.523-192.372c-1.2-3.134-4.259-10.671-5.315-13.221-4.434-10.715-7.363-17.794-8.975-40.167-.159-2.207-.41-4.987-.7-8.209-1.522-16.848-4.07-45.049-1.051-71.774,3.426-30.315,11.1-46.561,11.417-47.25l3.954.341c-.077.164-8.219,17.706-11.566,47.337-2.975,26.341-.449,54.3,1.061,71,.292,3.239.546,6.035.707,8.278,1.568,21.753,4.4,28.606,8.693,38.978.915,2.212.59,4.6,1.41,7.378a7.762,7.762,0,0,1,.32,2.112Z" transform="translate(30.814 38.921)" fill="#487fff"/>
        <path id="Trazado_37417" data-name="Trazado 37417" d="M-414.259-325.831A103.542,103.542,0,0,1-439.572-329a8.492,8.492,0,0,1,.433-4.188c9.239,2.3,18.742,3.749,27.015,3.493,33.252-1.03,45.4-6.581,45.518-6.638l1.63,3.465c-.513.243-12.991,5.946-47.03,7Q-413.129-325.835-414.259-325.831Z" transform="translate(20.396 96.209)" fill="#487fff"/>
        <path id="Trazado_37418" data-name="Trazado 37418" d="M-409.677-363.136c-16.94.031-22.924-3.683-25.569-4.708a8.157,8.157,0,0,1,3.034-4.405c4.344,2.186,7.5,3.685,17.7,4.216,13.752.718,26.679-4.918,26.8-4.959.513,0,2.017,2.9,2.168,4.108C-386.025-368.726-397.1-363.2-409.677-363.136Z" transform="translate(27.264 38.921)" fill="#487fff"/>
        <g id="Grupo_11171" data-name="Grupo 11171" transform="translate(-402.954 -372.758)">
          <g id="Grupo_11170" data-name="Grupo 11170" clip-path="url(#clip-path-2)">
            <path id="Trazado_37419" data-name="Trazado 37419" d="M-409.483-393.129a18.6,18.6,0,0,0-9.226-1.768c-4.444,0-3.99,2.806-3.99.477,0-1.215-2.217-2.67-4.326-2.67-6.738,0-10.935,7.406-11.353,10.5-.674,5.01,3.919,4.185,3.919,4.185-1.089.295-3.926,3.475-3.86,6.538.123,5.536,2.448,6.579,2.448,9.5,0,3.616-1.551,4.621-.825,10.131.9,6.858,5.754,3.939,8.232,8.862,2.529,5.028,0,5.264,3.9,10.331,2.081,2.7,5.789,3.524,8.165,3.524,2.65,0,15.7-.964,18.268,0,8.139,3.063,4.564-4,10.636-6.471,7.355-3,8.509-4.823,5.813-9.777-2.632-4.836-.825-5.807,2-9.752,2.945-4.108,4.213-6.648,4.213-14.751,0-4.713-2.26-9.88-6.686-11.074,2.829-1.179,2.737-2.36,2.711-3.3-.118-4.357-7.7-9.07-14.124-9.07-4.052,0-3.265,4.124-3.3,4.124-1.276,0-2.32-1.061-5.795-.095C-405.682-392.855-405.411-391.245-409.483-393.129Z" transform="translate(425.216 373.03)" fill="#d6602a"/>
            <path id="Trazado_37420" data-name="Trazado 37420" d="M-419.552-372.526c.879.215,2.248-.1,3.1-2.068,1.42-3.27,1.994-4.985,1.958-7.2-.038-2.655-2.522-2.86-3.77-2.171Z" transform="translate(454.745 394.008)" fill="#fabfa7"/>
            <path id="Trazado_37421" data-name="Trazado 37421" d="M-429.49-372.526c-.879.215-2.248-.1-3.1-2.068-1.42-3.27-1.991-4.985-1.958-7.2.041-2.655,2.524-2.86,3.773-2.171Z" transform="translate(431.302 394.008)" fill="#fabfa7"/>
            <path id="Trazado_37422" data-name="Trazado 37422" d="M-404.607-364.893a20.26,20.26,0,0,1-.331-7.025c.115-.923.226-1.5.226-1.5.384-.471.735-.928,1.058-1.389l-26.774-1.779a16.181,16.181,0,0,0,2.681,3.767,7,7,0,0,1,.282,1.253,19.006,19.006,0,0,1,.1,5.187,6.579,6.579,0,0,1-4.751,5.715c1.7,4.926,7.063,14.124,13.3,14.124,7.965,0,13.947-7.258,17.8-12.489C-401.8-359.578-404.456-364.166-404.607-364.893Z" transform="translate(435.113 406.066)" fill="#fabfa7"/>
            <path id="Trazado_37423" data-name="Trazado 37423" d="M-401.859-390.377a14.7,14.7,0,0,0-10.474-3.347c-7.117.469-20.736,3.621-21.41,22.263a72.249,72.249,0,0,0,2.406,15.948c1.574,5.018,4.149,7.453,6.251,9.636,2.645,2.627,5.961,4.167,7.555,4.167l5.53.21c2.758,0,6.174-1.071,9.731-4.39a17.724,17.724,0,0,0,3.806-5.572,29.508,29.508,0,0,0,2.652-11.85C-395.911-370.756-392.517-382.479-401.859-390.377Z" transform="translate(432.556 379.227)" fill="#fabfa7"/>
            <path id="Trazado_37424" data-name="Trazado 37424" d="M-427.485-373.943a20.618,20.618,0,0,1,1.284-2.307c.966-2.178.777-4.744.564-7.05-.041-.451.666-.448.707,0,.231,2.486.384,5.21-.72,7.53a15.758,15.758,0,0,0-.976,1.666c-.648,2.043,2.673,1.76,3.9,1.081.4-.223.753.39.356.61C-423.763-371.639-428.284-371.259-427.485-373.943Z" transform="translate(442.2 395.045)" fill="#f2aa8a"/>
            <path id="Trazado_37425" data-name="Trazado 37425" d="M-427.6-377.21a13.424,13.424,0,0,0,9.567-.167c.5-.185,1.051-.274.669.161-1.138,1.31-3.693,3.929-5.876,3.929-1.766,0-3.5-1.8-4.562-3.157C-428.454-377.274-428.067-377.369-427.6-377.21Z" transform="translate(441.309 404.59)" fill="#f07759"/>
            <path id="Trazado_37426" data-name="Trazado 37426" d="M-430.037-383.426a7.285,7.285,0,0,1,3.088-.556.361.361,0,0,1,.331.32,3.874,3.874,0,0,1,.333,1.6c0,1.463-.72,2.65-1.607,2.65s-1.607-1.187-1.607-2.65a4.1,4.1,0,0,1,.087-.83c-.144.046-.287.092-.436.143C-430.28-382.6-430.465-383.28-430.037-383.426Z" transform="translate(437.979 394.475)" fill="#4f2b36"/>
            <path id="Trazado_37427" data-name="Trazado 37427" d="M-423.634-383.608a.356.356,0,0,1,.328-.32,7.312,7.312,0,0,1,3.088.556c.428.146.243.828-.187.682-.149-.051-.292-.1-.438-.144a4.1,4.1,0,0,1,.09.83c0,1.463-.72,2.65-1.609,2.65s-1.607-1.187-1.607-2.65A3.833,3.833,0,0,1-423.634-383.608Z" transform="translate(447.84 394.56)" fill="#4f2b36"/>
            <path id="Trazado_37428" data-name="Trazado 37428" d="M-430.69-384.153c2.091-1.458,4.162-1.386,6.448-.4.415.179.056.789-.359.61a5.393,5.393,0,0,0-5.73.4C-430.705-383.281-431.059-383.894-430.69-384.153Z" transform="translate(437.094 392.488)" fill="#d65b25"/>
            <path id="Trazado_37429" data-name="Trazado 37429" d="M-424.428-384.55c2.286-.989,4.357-1.061,6.448.4.369.259.015.871-.359.61a5.392,5.392,0,0,0-5.731-.4C-424.484-383.761-424.843-384.371-424.428-384.55Z" transform="translate(446.837 392.488)" fill="#d65b25"/>
            <g id="Grupo_11165" data-name="Grupo 11165" transform="translate(0.054 10.452)">
              <path id="Trazado_37430" data-name="Trazado 37430" d="M-433.263-383.364A18.141,18.141,0,0,0-425.426-373c.551.333,1.322-.764.766-1.1-3.273-1.968-6.7-5.877-7.627-9.716C-432.44-384.446-433.263-383.364-433.263-383.364Z" transform="translate(433.263 384.01)" fill="#e1daf7"/>
            </g>
            <g id="Grupo_11166" data-name="Grupo 11166" transform="translate(28.691 10.613)">
              <path id="Trazado_37431" data-name="Trazado 37431" d="M-414.188-383.545c-.994,4.159-4.265,7.5-7.691,9.5-.582.341.169,1.5.748,1.161a17.148,17.148,0,0,0,7.973-10.392.533.533,0,1,0-1.03-.272Z" transform="translate(422.089 383.947)" fill="#e1daf7"/>
            </g>
            <g id="Grupo_11167" data-name="Grupo 11167" transform="translate(31.348 21.434)">
              <path id="Trazado_37432" data-name="Trazado 37432" d="M-416.259-379.666c-1.294,1.115-2.811,2.553-4.493,3.045-.572.169-.251,1.2.323,1.03a9.527,9.527,0,0,0,4.6-3.045C-414.891-379.735-416.129-379.82-416.259-379.666Z" transform="translate(421.052 379.725)" fill="#e1daf7"/>
            </g>
            <g id="Grupo_11168" data-name="Grupo 11168" transform="translate(0.301 21.396)">
              <path id="Trazado_37433" data-name="Trazado 37433" d="M-432.506-379.643c1.294,1.115,2.809,2.553,4.493,3.045.569.169.249,1.2-.323,1.03a10.159,10.159,0,0,1-4.6-3.045C-433.547-379.272-432.775-380.007-432.506-379.643Z" transform="translate(433.167 379.74)" fill="#e1daf7"/>
            </g>
            <path id="Trazado_37434" data-name="Trazado 37434" d="M-402.829-370.179c0-4.487-3.409-7.7-7.389-9.949-2.214-1.248-4.846-2.7-7.668-2.7-3.124,0-5.246,1.743-7.6,3.25-3.585,2.3-6.707,5.182-6.707,9.4,0,6.986,6.415,12.65,14.306,12.65S-402.829-363.193-402.829-370.179Z" transform="translate(434.992 396.308)" fill="#fff"/>
            <path id="Trazado_37435" data-name="Trazado 37435" d="M-431.608-376.476c1.294,5.731,7.135,9.019,13.332,9.019s11.93-3.619,13.852-8.6a22.1,22.1,0,0,1-13.852,4.605A20.868,20.868,0,0,1-431.608-376.476Z" transform="translate(435.903 406.236)" fill="#e1daf7"/>
            <g id="Grupo_11169" data-name="Grupo 11169" transform="translate(11.389 14.932)">
              <path id="Trazado_37436" data-name="Trazado 37436" d="M-428.161-379.553a11.051,11.051,0,0,1,5.243-1.8,8.642,8.642,0,0,1,4.687,1.8c.487.326.941-.459.459-.782a9.461,9.461,0,0,0-5.146-1.927,12,12,0,0,0-5.7,1.927c-.51.285-.054,1.066.456.782Z" transform="translate(428.84 382.262)" fill="#e1daf7"/>
            </g>
            <path id="Trazado_37437" data-name="Trazado 37437" d="M-419.473-372.916a4.448,4.448,0,0,0-4.449-4.449,4.45,4.45,0,0,0-4.452,4.449,4.451,4.451,0,0,0,4.452,4.449A4.448,4.448,0,0,0-419.473-372.916Z" transform="translate(440.958 404.847)" fill="#e1daf7"/>
            <circle id="Elipse_836" data-name="Elipse 836" cx="4.019" cy="4.019" r="4.019" transform="translate(13.015 28.042)" fill="#cac4de"/>
            <path id="Trazado_37438" data-name="Trazado 37438" d="M-396.243-383.511c-1.151.169-2.937.338-4.085.507a.733.733,0,0,0-.482-.187.734.734,0,0,0-.418.143c-1.553-2.4-4.956-1.776-7.506-1.522-2.642.261-4.126.759-4.616,2.973a4.949,4.949,0,0,0-5.174-.2,5.338,5.338,0,0,0-.254-.718c-1.066-2.473-4.754-2.186-7.027-2.235-2.23-.046-3.793.123-4.728,1.4a.725.725,0,0,0-.472-.182.723.723,0,0,0-.6.318l-1.566-.108a2.561,2.561,0,0,1-.138.828c.354.041,1.343.079,1.7.12a.721.721,0,0,0,.459.3,7,7,0,0,0-.243,1.1.347.347,0,0,0-.018.074c-.105,4.065,3.675,6.8,7.578,6.274,3.155-.428,5.715-3.106,5.479-6.166.82-1.258,3.921-.915,4.764.128a.343.343,0,0,0,.095.08c-.008.108-.021.21-.026.323a6.533,6.533,0,0,0,8.211,5.546c3.191-.759,5.607-3.9,4.682-7.022a.724.724,0,0,0,.51-.451c1.148-.169,2.934-.338,4.08-.508A3.336,3.336,0,0,1-396.243-383.511Zm-26.489,7.765c-3.626,1.263-7.922-1.084-7.837-5.128a6.411,6.411,0,0,1,.407-1.471.365.365,0,0,0,.079-.172c.6-1.2,1.648-1.345,3.524-1.392,1.814-.044,4.905-.218,6.522.846a5.292,5.292,0,0,1,.8,1.866A4.963,4.963,0,0,1-422.732-375.746Zm18.965-.482c-3.462,2.063-8.532.213-8.911-4.031.143-2.924,1.366-3.211,3.942-3.468,1.543-.156,4.567-.62,6.038.159.715.379,1.428,2.314,1.463,3.055A4.922,4.922,0,0,1-403.767-376.228Z" transform="translate(433.25 393.171)" fill="#28b374"/>
            <path id="Trazado_37439" data-name="Trazado 37439" d="M-406.373-394.992a4.451,4.451,0,0,0-4.357,2.676,21.811,21.811,0,0,0-7.893-1.312c-8.6,0-17.619,7.422-17.619,19.554a46.671,46.671,0,0,0,.282,4.949c.074.7.884.884,1.589,1.238.264-.021,2.919.128,3.183.128,1.23,0,2.125-.582,4.318-3.77,2.009-2.919,2.94-5.274,5.39-4.995a14.479,14.479,0,0,0,5.208-.379c4.728-1.14,4.126-2,5.459-3.483,3.547,4.275,5.712,1.9,12.314,4.641,5.223,2.171,4.48,3.175,6.1,6.069.433.774,1.279,2.571,2.468,2.571,5.064,0,6.294,6.12,6.294-.654C-383.64-381.95-395.97-394.992-406.373-394.992Z" transform="translate(428.661 377.299)" fill="#d6602a"/>
            <path id="Trazado_37440" data-name="Trazado 37440" d="M-424.12-392.89c-1.3,2.14-2.2,5.513-.372,7.6,1.54,1.761,4.057,2.055,6.243,2.035,2.829-.023,5.249.064,6.615,2.9.236.49-.495.92-.733.428-2.138-4.434-8.742-1.2-12.255-4.3-2.653-2.34-1.884-6.358-.231-9.085A.425.425,0,0,1-424.12-392.89Z" transform="translate(444.107 379.6)" fill="#bf4d1a"/>
            <path id="Trazado_37441" data-name="Trazado 37441" d="M-405.416-391.922c-1.338-2.529-4.577-4.518-7.189-5.466-1.725-.625-4.844-.91-6.025.912-2.04.131-3.37,1.1-2.742,3.557a.424.424,0,0,0,.817-.226c-.354-1.381.443-2,1.525-2.266-.2,1.845,2.14,3.426,3.409,4.344,1.881,1.356,5.73,3.67,8.157,2.107,1.74-1.122.287-3.044-.794-4.093-1.333-1.292-5.564-3.073-8.9-3.388a5.615,5.615,0,0,1,4-.241,14.861,14.861,0,0,1,4.787,2.729,8.424,8.424,0,0,1,1.561,1.517c1.2,1.766.651,4.447-1.779,4.89-.536.1-.308.915.226.817C-405.879-387.18-404.17-389.566-405.416-391.922Zm-12.442-3.647a14.865,14.865,0,0,1,1.953.056,11.82,11.82,0,0,1,6.571,2.632c1.274,1.076,2.7,2.66.292,3.385-1.586.477-3.608-.692-4.892-1.468-1.179-.712-3.024-1.72-3.66-3A2.219,2.219,0,0,1-417.858-395.568Z" transform="translate(451.656 372.809)" fill="#bf4d1a"/>
            <path id="Trazado_37442" data-name="Trazado 37442" d="M-422.709-392.875c1.143-4.516-4.895-5.331-7.722-4.19-3.452,1.394-6.4,3.683-7.665,7.24-.641,1.812-1.768,5.395.876,6.148a5.334,5.334,0,0,0,3.526-.533,17.292,17.292,0,0,0,3.462.5c.548.026.543-.823,0-.848a17.077,17.077,0,0,1-2.3-.272c3.047-1.837,5.846-5.295,5.287-7.809a2.873,2.873,0,0,0-3.865-2.05c-2.312.838-4.126,3.67-5.277,5.7-1.276,2.255-.272,3.573,1.422,4.331a2.326,2.326,0,0,1-.894.126c-2.186-.2-2.219-2.327-1.755-4.021.989-3.619,3.572-5.915,6.9-7.473,1.927-.9,4.518-1.533,6.166.215a3.462,3.462,0,0,1,1.015,2.706A.424.424,0,0,0-422.709-392.875Zm-11.138,7.717c-.169-.054-.343-.1-.5-.162-2.873-1.1-1.41-3.26-.141-5.036A12.894,12.894,0,0,1-432-393.118c1.292-.992,3.714-1.284,3.972.964.249,2.16-2.6,4.649-4.106,5.807A16.409,16.409,0,0,1-433.847-385.158Z" transform="translate(424.521 373.337)" fill="#bf4d1a"/>
            <path id="Trazado_37443" data-name="Trazado 37443" d="M-423.24-390.008a15.865,15.865,0,0,1-3.855,5.533c-2.593,2.227-5.364,3.278-7.043,6.5-1.627,3.122-2.3,6,.7,8.511.418.349-.184.946-.6.6-2.4-2-2.883-3.475-2.078-6.376a13.606,13.606,0,0,1,5.013-7.578c2.345-1.676,4.418-2.74,5.956-5.272.756-1.243,1.184-2.66,1.938-3.9,1.6-2.632,4.221-3.086,7.143-3.162a.424.424,0,0,1,0,.848C-419.681-394.214-421.692-393.242-423.24-390.008Z" transform="translate(428.304 377.041)" fill="#bf4d1a"/>
            <path id="Trazado_37444" data-name="Trazado 37444" d="M-438.467-371.562c3.186-.379,1.307-5.879,1.1-7.519a12.974,12.974,0,0,1,.267-4.629c.677-2.906,2.191-5.9,4.749-7.568.459-.3.884.436.428.733-2.524,1.645-3.937,4.736-4.49,7.619-.541,2.8.31,5.113.63,7.827.261,2.214-.218,4.09-2.688,4.385C-439.008-370.65-439-371.5-438.467-371.562Z" transform="translate(424.553 382.993)" fill="#bf4d1a"/>
            <path id="Trazado_37445" data-name="Trazado 37445" d="M-422.463-392.236c.243,3.093,4.9,4.959,6.8,7.091a10.35,10.35,0,0,1,2.114,3.509c.961,2.806-.051,5.835,2.276,8.185.384.39-.215.989-.6.6-1.848-1.866-1.94-2.911-1.986-5.4a10.172,10.172,0,0,0-3.844-7.694c-2.037-1.768-5.367-3.265-5.6-6.294C-423.352-392.779-422.5-392.777-422.463-392.236Z" transform="translate(448.868 380.971)" fill="#bf4d1a"/>
            <path id="Trazado_37446" data-name="Trazado 37446" d="M-401.188-365.961c5.8-1.489,6.676-8.045,4.259-12.67a28.582,28.582,0,0,0-7.5-8.532,41.676,41.676,0,0,0-9.662-6,17.452,17.452,0,0,0-4.065-1.32c-1.438-.231-5.436-.474-5.956,1.238a.424.424,0,0,1-.818-.226c.874-2.886,6.507-2.063,8.662-1.412a37.867,37.867,0,0,1,12.773,7.4c3.624,3.016,7.532,7.012,8.58,11.789.989,4.521-1.463,9.375-6.051,10.551A.424.424,0,0,1-401.188-365.961Z" transform="translate(446.312 376.49)" fill="#bf4d1a"/>
            <path id="Trazado_37447" data-name="Trazado 37447" d="M-411.69-366.127c2.214-3.414-1.994-5.6-3.16-8.45-1.12-2.742-.228-5.689.959-8.252.228-.495.961-.064.73.428-.956,2.068-1.781,4.541-1.148,6.817.477,1.707,1.735,2.837,2.765,4.188.9,1.184,1.576,2.194,1.345,3.749a5.633,5.633,0,0,1-2.232,3.485c-1.315,1.082-7.678,3.614-4.846,6.233.4.372-.2.971-.6.6C-422.018-361.157-413.222-363.766-411.69-366.127Z" transform="translate(455.647 395.966)" fill="#bf4d1a"/>
            <path id="Trazado_37448" data-name="Trazado 37448" d="M-416.678-371.8c.838-1.643.812-4.675-.733-5.971-.42-.351.182-.948.6-.6,1.63,1.369,1.884,4.5,1.161,6.366-1,2.581-4.172,4.106-3.983,7.13.033.546-.815.543-.848,0a5.951,5.951,0,0,1,1.717-4.218A15.776,15.776,0,0,0-416.678-371.8Z" transform="translate(453.278 403.117)" fill="#bf4d1a"/>
            <path id="Trazado_37449" data-name="Trazado 37449" d="M-432.588-378.163c-.113,4.288,3.526,6.5,5.228,10.062.83,1.74,1.233,3.965-.492,5.267-.436.328-.859-.408-.428-.733,2.855-2.155-1.814-7.061-3.06-8.744a8.567,8.567,0,0,1-2.1-5.851A.424.424,0,0,1-432.588-378.163Z" transform="translate(433.04 402.959)" fill="#bf4d1a"/>
            <path id="Trazado_37450" data-name="Trazado 37450" d="M-432.252-374.83c-.046-.543.8-.541.848,0,.154,1.835.489,4.452-.787,6-.349.42-.946-.182-.6-.6C-431.714-370.737-432.124-373.3-432.252-374.83Z" transform="translate(433.893 408.173)" fill="#bf4d1a"/>
            <path id="Trazado_37451" data-name="Trazado 37451" d="M-435.586-382.513c-1.253,4.6,7.278,8.934,3.977,13.5-.318.438-1.053.015-.733-.428,1.225-1.694-.279-4.516-1.269-5.995-.638-.956-1.42-1.825-1.978-2.832a6.244,6.244,0,0,1-.817-4.467A.425.425,0,0,1-435.586-382.513Z" transform="translate(428.18 395.979)" fill="#bf4d1a"/>
          </g>
        </g>
        <path id="Trazado_37453" data-name="Trazado 37453" d="M-395.266-375.12c.226,8.17-2.442,17.22-9.07,22.455s-16.553,5.62-22.291-1.03a28.306,28.306,0,0,1-5.7-12.23c-.977-4.252-1.825-9.464-.474-13.711,2.5-7.876,12.276-8.67,19.224-8.626,4.034.026,8.4.192,12.055,2.081,4.3,2.217,5.979,6.43,6.258,11.061.033.577-.864.577-.9,0-.259-4.3-1.807-8.229-5.812-10.285-2.988-1.532-6.487-1.822-9.787-1.925-6.494-.2-16.138-.192-19.593,6.52-1.909,3.713-1.2,8.79-.49,12.742a31.9,31.9,0,0,0,4.062,11.258c4.828,7.773,14.349,9.357,21.886,4.185,7.132-4.892,9.962-14.2,9.734-22.5A.45.45,0,0,1-395.266-375.12Z" transform="translate(29.986 15.056)" fill="#9fc6e6"/>
        <path id="Trazado_37454" data-name="Trazado 37454" d="M-449.728-349.7c.759.08,3.67,1.515,4.149,2.314s1.914,2.473,1.876,3.47-7.063-.279-7.263-1.6a16.179,16.179,0,0,1,.49-4.188Z" transform="translate(2.641 75.325)" fill="#487fff"/>
        <rect id="Rectángulo_3464" data-name="Rectángulo 3464" width="73.518" height="11.936" transform="translate(-446.546 -269.393)" fill="#b5afc7"/>
        <path id="Trazado_37455" data-name="Trazado 37455" d="M-423.309-349.563c1.958-.9,6.82-.587,6.82-.587s3.414,5.264,2.437,5.907-6.258.105-6.968,0C-422.992-344.537-425.437-348.587-423.309-349.563Z" transform="translate(44.633 74.538)" fill="#487fff"/>
        <g id="Grupo_11173" data-name="Grupo 11173" transform="translate(-443.126 -301.152)">
          <path id="Trazado_37456" data-name="Trazado 37456" d="M-442.764-358.664a.479.479,0,0,0,.144-.292c.015-.592-1.356-1.1-3.06-1.143s-3.1.408-3.109,1a.424.424,0,0,0,.046.182l-.051-.038.015,36.387a3.016,3.016,0,0,0,3.016,3.014,3.016,3.016,0,0,0,3.014-3.016Z" transform="translate(449.217 360.219)" fill="#f0f8ff"/>
          <path id="Trazado_37457" data-name="Trazado 37457" d="M-448.79-350.921l.005,14.006a3.016,3.016,0,0,0,3.016,3.014,3.016,3.016,0,0,0,3.014-3.016l-.005-14.006C-443.864-349.717-447.785-350.017-448.79-350.921Z" transform="translate(449.223 374.563)" fill="#ff97a2"/>
          <path id="Trazado_37458" data-name="Trazado 37458" d="M-448.79-349.2l.005,9.582a3.016,3.016,0,0,0,3.016,3.014,3.016,3.016,0,0,0,3.014-3.016l0-9.582C-443.864-347.991-447.783-348.291-448.79-349.2Z" transform="translate(449.223 377.26)" fill="#f8717e"/>
          <path id="Trazado_37459" data-name="Trazado 37459" d="M-447.953-358.335a9.173,9.173,0,0,0,2.4.315,7.311,7.311,0,0,0,1.955-.246l.015,35a2.179,2.179,0,0,1-2.176,2.176,2.179,2.179,0,0,1-2.178-2.173l-.013-35.067Zm5.19-1.322a4.009,4.009,0,0,1-2.793.8,5.63,5.63,0,0,1-3.237-.795l.015,36.387a3.016,3.016,0,0,0,3.016,3.014,3.014,3.014,0,0,0,3.014-3.016l-.015-36.387Z" transform="translate(449.217 360.915)" fill="#ccdfe8"/>
          <g id="Grupo_11172" data-name="Grupo 11172">
            <path id="Trazado_37460" data-name="Trazado 37460" d="M-445.489-357.171c-1.689-.038-3.493-.548-3.47-1.568s1.866-1.44,3.539-1.407a7.377,7.377,0,0,1,2.312.392c.971.361,1.166.841,1.158,1.179-.023.979-1.7,1.407-3.321,1.407C-445.345-357.168-445.417-357.168-445.489-357.171Zm.049-2.135c-1.7-.051-2.619.415-2.681.577.051.182.946.679,2.653.72,1.686.033,2.591-.4,2.678-.587C-442.87-358.783-443.764-359.267-445.44-359.305Z" transform="translate(448.959 360.148)" fill="#ccdfe8"/>
          </g>
          <path id="Trazado_37461" data-name="Trazado 37461" d="M-446.273-350.981c-1.2-.028-2.184.238-2.191.6s.959.671,2.16.7,2.181-.238,2.189-.6S-445.073-350.953-446.273-350.981Z" transform="translate(449.733 374.471)" fill="#f8717e"/>
        </g>
        <g id="Grupo_11175" data-name="Grupo 11175" transform="translate(-431.16 -301.152)">
          <path id="Trazado_37462" data-name="Trazado 37462" d="M-438.095-358.664a.479.479,0,0,0,.144-.292c.015-.592-1.356-1.1-3.06-1.143s-3.1.408-3.109,1a.4.4,0,0,0,.049.182l-.054-.038.015,36.387a3.016,3.016,0,0,0,3.016,3.014,3.016,3.016,0,0,0,3.014-3.016Z" transform="translate(444.548 360.219)" fill="#f0f8ff"/>
          <path id="Trazado_37463" data-name="Trazado 37463" d="M-444.121-350.921l.005,14.006A3.016,3.016,0,0,0-441.1-333.9a3.016,3.016,0,0,0,3.014-3.016l-.005-14.006C-439.2-349.717-443.116-350.017-444.121-350.921Z" transform="translate(444.554 374.563)" fill="#41b6e0"/>
          <path id="Trazado_37464" data-name="Trazado 37464" d="M-444.121-349.2l.005,9.582A3.016,3.016,0,0,0-441.1-336.6a3.016,3.016,0,0,0,3.014-3.016l0-9.582C-439.2-347.991-443.114-348.291-444.121-349.2Z" transform="translate(444.554 377.26)" fill="#80cce8"/>
          <path id="Trazado_37465" data-name="Trazado 37465" d="M-443.284-358.335a9.173,9.173,0,0,0,2.4.315,7.312,7.312,0,0,0,1.955-.246l.015,35a2.179,2.179,0,0,1-2.176,2.176,2.18,2.18,0,0,1-2.178-2.173l-.013-35.067Zm5.19-1.322a4.009,4.009,0,0,1-2.793.8,5.63,5.63,0,0,1-3.237-.795l.015,36.387a3.016,3.016,0,0,0,3.016,3.014,3.014,3.014,0,0,0,3.014-3.016l-.015-36.387Z" transform="translate(444.548 360.915)" fill="#ccdfe8"/>
          <g id="Grupo_11174" data-name="Grupo 11174">
            <path id="Trazado_37466" data-name="Trazado 37466" d="M-440.82-357.171a7.384,7.384,0,0,1-2.312-.39c-.971-.364-1.166-.841-1.158-1.179.026-1.023,1.858-1.44,3.539-1.407s3.493.548,3.47,1.571c-.023.979-1.7,1.407-3.321,1.407C-440.674-357.168-440.748-357.168-440.82-357.171Zm.051-2.135c-1.7-.051-2.622.415-2.683.577.054.182.948.679,2.652.72,1.676.039,2.591-.4,2.678-.587C-438.2-358.783-439.1-359.267-440.769-359.305Z" transform="translate(444.29 360.148)" fill="#ccdfe8"/>
          </g>
          <path id="Trazado_37467" data-name="Trazado 37467" d="M-441.6-350.981c-1.2-.028-2.181.238-2.191.6s.959.671,2.16.7,2.181-.238,2.189-.6S-440.4-350.953-441.6-350.981Z" transform="translate(445.064 374.471)" fill="#80cce8"/>
        </g>
        <g id="Grupo_11177" data-name="Grupo 11177" transform="translate(-419.194 -301.152)">
          <path id="Trazado_37468" data-name="Trazado 37468" d="M-433.426-358.664a.48.48,0,0,0,.143-.292c.015-.592-1.356-1.1-3.06-1.143s-3.1.408-3.109,1a.394.394,0,0,0,.049.182l-.054-.038.015,36.387a3.016,3.016,0,0,0,3.016,3.014,3.016,3.016,0,0,0,3.014-3.016Z" transform="translate(439.879 360.219)" fill="#f0f8ff"/>
          <path id="Trazado_37469" data-name="Trazado 37469" d="M-439.452-350.921l.005,14.006a3.016,3.016,0,0,0,3.016,3.014,3.016,3.016,0,0,0,3.014-3.016l-.005-14.006C-434.526-349.717-438.447-350.017-439.452-350.921Z" transform="translate(439.885 374.563)" fill="#84d95f"/>
          <path id="Trazado_37470" data-name="Trazado 37470" d="M-439.451-349.2l0,9.582a3.016,3.016,0,0,0,3.016,3.014,3.016,3.016,0,0,0,3.014-3.016l0-9.582C-434.528-347.991-438.446-348.291-439.451-349.2Z" transform="translate(439.887 377.26)" fill="#56d91d"/>
          <path id="Trazado_37471" data-name="Trazado 37471" d="M-438.615-358.335a9.172,9.172,0,0,0,2.4.315,7.311,7.311,0,0,0,1.955-.246l.015,35a2.151,2.151,0,0,1-.638,1.538,2.151,2.151,0,0,1-1.538.638,2.18,2.18,0,0,1-2.178-2.173l-.013-35.067Zm5.19-1.322a4.009,4.009,0,0,1-2.794.8,5.63,5.63,0,0,1-3.237-.795l.015,36.387a3.016,3.016,0,0,0,3.016,3.014,3.014,3.014,0,0,0,3.014-3.016l-.015-36.387Z" transform="translate(439.879 360.915)" fill="#ccdfe8"/>
          <g id="Grupo_11176" data-name="Grupo 11176">
            <path id="Trazado_37472" data-name="Trazado 37472" d="M-436.151-357.171a7.385,7.385,0,0,1-2.312-.39c-.971-.364-1.166-.841-1.158-1.179.026-1.023,1.861-1.44,3.539-1.407a7.363,7.363,0,0,1,2.312.392c.971.361,1.166.841,1.158,1.179s-.226.807-1.212,1.125a7.138,7.138,0,0,1-2.1.282C-436-357.168-436.077-357.168-436.151-357.171Zm.051-2.135c-1.707-.051-2.622.415-2.683.577.054.182.948.679,2.653.72,1.681.033,2.591-.4,2.678-.587C-433.532-358.783-434.423-359.267-436.1-359.305Z" transform="translate(439.621 360.148)" fill="#ccdfe8"/>
          </g>
          <path id="Trazado_37473" data-name="Trazado 37473" d="M-436.935-350.981c-1.2-.028-2.184.238-2.191.6s.959.671,2.161.7,2.183-.238,2.191-.6S-435.733-350.953-436.935-350.981Z" transform="translate(440.395 374.471)" fill="#56d91d"/>
        </g>
        <g id="Grupo_11179" data-name="Grupo 11179" transform="translate(-383.297 -301.152)">
          <path id="Trazado_37474" data-name="Trazado 37474" d="M-419.416-358.664a.474.474,0,0,0,.141-.292c.015-.592-1.356-1.1-3.06-1.143s-3.1.408-3.109,1a.4.4,0,0,0,.049.182c-.018-.013-.038-.026-.054-.038l.015,36.387a3.016,3.016,0,0,0,3.016,3.014,3.014,3.014,0,0,0,3.014-3.016Z" transform="translate(425.872 360.219)" fill="#f0f8ff"/>
          <path id="Trazado_37475" data-name="Trazado 37475" d="M-425.445-350.921l.005,14.006a3.016,3.016,0,0,0,3.016,3.014,3.014,3.014,0,0,0,3.014-3.016l-.005-14.006C-420.519-349.717-424.44-350.017-425.445-350.921Z" transform="translate(425.878 374.563)" fill="#ffe72e"/>
          <path id="Trazado_37476" data-name="Trazado 37476" d="M-425.444-349.2l0,9.582a3.016,3.016,0,0,0,3.016,3.014,3.014,3.014,0,0,0,3.014-3.016l0-9.582C-420.518-347.991-424.439-348.291-425.444-349.2Z" transform="translate(425.88 377.26)" fill="#ffed69"/>
          <path id="Trazado_37477" data-name="Trazado 37477" d="M-424.608-358.335a9.177,9.177,0,0,0,2.4.315,7.294,7.294,0,0,0,1.953-.246l.015,35a2.179,2.179,0,0,1-2.176,2.176,2.177,2.177,0,0,1-2.176-2.173l-.015-35.067Zm5.192-1.322a4.017,4.017,0,0,1-2.793.8,5.633,5.633,0,0,1-3.239-.795l.015,36.387a3.016,3.016,0,0,0,3.016,3.014,3.013,3.013,0,0,0,3.014-3.016l-.013-36.387Z" transform="translate(425.872 360.915)" fill="#ccdfe8"/>
          <g id="Grupo_11178" data-name="Grupo 11178">
            <path id="Trazado_37478" data-name="Trazado 37478" d="M-422.144-357.171c-1.686-.038-3.493-.548-3.47-1.568s1.863-1.44,3.539-1.407a7.364,7.364,0,0,1,2.312.392c.974.361,1.166.841,1.158,1.179-.023.979-1.7,1.407-3.321,1.407C-422-357.168-422.072-357.168-422.144-357.171Zm.051-2.135c-1.7-.051-2.622.415-2.683.577.054.182.948.679,2.652.72,1.686.033,2.591-.4,2.678-.587C-419.525-358.783-420.416-359.267-422.092-359.305Z" transform="translate(425.614 360.148)" fill="#ccdfe8"/>
          </g>
          <path id="Trazado_37479" data-name="Trazado 37479" d="M-422.923-350.982c-1.207-.028-2.191.241-2.2.6s.961.674,2.168.7,2.191-.238,2.2-.6S-421.716-350.954-422.923-350.982Z" transform="translate(426.383 374.469)" fill="#ffed69"/>
        </g>
        <g id="Grupo_11181" data-name="Grupo 11181" transform="translate(-407.229 -301.152)">
          <path id="Trazado_37480" data-name="Trazado 37480" d="M-428.757-358.664a.479.479,0,0,0,.144-.292c.015-.592-1.356-1.1-3.06-1.143s-3.1.408-3.109,1a.4.4,0,0,0,.049.182l-.054-.038.015,36.387a3.016,3.016,0,0,0,3.016,3.014,3.016,3.016,0,0,0,3.014-3.016Z" transform="translate(435.21 360.219)" fill="#f0f8ff"/>
          <path id="Trazado_37481" data-name="Trazado 37481" d="M-434.783-350.921l.005,14.006a3.016,3.016,0,0,0,3.016,3.014,3.014,3.014,0,0,0,3.014-3.016l-.005-14.006C-429.857-349.717-433.778-350.017-434.783-350.921Z" transform="translate(435.216 374.563)" fill="#743ed6"/>
          <path id="Trazado_37482" data-name="Trazado 37482" d="M-434.782-349.2l0,9.582a3.016,3.016,0,0,0,3.016,3.014,3.014,3.014,0,0,0,3.014-3.016l0-9.582C-429.859-347.991-433.777-348.291-434.782-349.2Z" transform="translate(435.218 377.26)" fill="#8c5fde"/>
          <path id="Trazado_37483" data-name="Trazado 37483" d="M-433.947-358.335a9.174,9.174,0,0,0,2.4.315,7.3,7.3,0,0,0,1.955-.246l.015,35a2.151,2.151,0,0,1-.638,1.538,2.151,2.151,0,0,1-1.538.638,2.18,2.18,0,0,1-2.178-2.173l-.013-35.067Zm5.19-1.322a4.009,4.009,0,0,1-2.793.8,5.629,5.629,0,0,1-3.237-.795l.015,36.387a3.016,3.016,0,0,0,3.016,3.014,3.013,3.013,0,0,0,3.014-3.016l-.015-36.387Z" transform="translate(435.21 360.915)" fill="#ccdfe8"/>
          <g id="Grupo_11180" data-name="Grupo 11180">
            <path id="Trazado_37484" data-name="Trazado 37484" d="M-431.482-357.171a7.384,7.384,0,0,1-2.312-.39c-.971-.364-1.166-.841-1.158-1.179.026-1.023,1.866-1.44,3.539-1.407a7.363,7.363,0,0,1,2.312.392c.971.361,1.166.841,1.158,1.179-.023.979-1.7,1.407-3.321,1.407C-431.336-357.168-431.41-357.168-431.482-357.171Zm.051-2.135c-1.709-.051-2.622.415-2.683.577.054.182.948.679,2.653.72,1.679.033,2.591-.4,2.678-.587C-428.863-358.783-429.755-359.267-431.431-359.305Z" transform="translate(434.952 360.148)" fill="#ccdfe8"/>
          </g>
          <path id="Trazado_37485" data-name="Trazado 37485" d="M-432.267-350.981c-1.2-.028-2.181.238-2.189.6s.958.671,2.158.7,2.181-.238,2.189-.6S-431.068-350.953-432.267-350.981Z" transform="translate(435.727 374.471)" fill="#8c5fde"/>
        </g>
        <g id="Grupo_11183" data-name="Grupo 11183" transform="translate(-395.263 -301.152)">
          <path id="Trazado_37486" data-name="Trazado 37486" d="M-424.085-358.664a.473.473,0,0,0,.141-.292c.016-.592-1.356-1.1-3.06-1.143s-3.1.408-3.109,1a.393.393,0,0,0,.049.182l-.054-.038.016,36.387a3.016,3.016,0,0,0,3.016,3.014,3.014,3.014,0,0,0,3.014-3.016Z" transform="translate(430.541 360.22)" fill="#f0f8ff"/>
          <path id="Trazado_37487" data-name="Trazado 37487" d="M-430.114-350.921l.005,14.006a3.016,3.016,0,0,0,3.016,3.014,3.014,3.014,0,0,0,3.014-3.016l-.005-14.006C-425.188-349.717-429.109-350.017-430.114-350.921Z" transform="translate(430.547 374.563)" fill="#d65ebe"/>
          <path id="Trazado_37488" data-name="Trazado 37488" d="M-430.113-349.2l0,9.582a3.016,3.016,0,0,0,3.016,3.014,3.014,3.014,0,0,0,3.014-3.016l0-9.582C-425.187-347.991-429.108-348.291-430.113-349.2Z" transform="translate(430.549 377.26)" fill="#bc49a5"/>
          <path id="Trazado_37489" data-name="Trazado 37489" d="M-429.277-358.335a9.172,9.172,0,0,0,2.4.315,7.3,7.3,0,0,0,1.955-.246l.016,35a2.152,2.152,0,0,1-.638,1.538,2.152,2.152,0,0,1-1.538.638,2.177,2.177,0,0,1-2.176-2.173l-.015-35.067Zm5.192-1.322a4.02,4.02,0,0,1-2.8.8,5.63,5.63,0,0,1-3.237-.795l.016,36.387a3.016,3.016,0,0,0,3.016,3.014,3.013,3.013,0,0,0,3.014-3.016l-.013-36.387Z" transform="translate(430.541 360.915)" fill="#ccdfe8"/>
          <g id="Grupo_11182" data-name="Grupo 11182">
            <path id="Trazado_37490" data-name="Trazado 37490" d="M-426.813-357.17a7.384,7.384,0,0,1-2.312-.389c-.971-.364-1.166-.841-1.158-1.179s.226-.807,1.212-1.125a7.5,7.5,0,0,1,2.327-.282,7.366,7.366,0,0,1,2.312.392c.971.361,1.166.841,1.158,1.179-.023.979-1.7,1.407-3.321,1.407C-426.667-357.168-426.741-357.168-426.813-357.17Zm.051-2.135c-1.707-.038-2.622.413-2.683.577.054.182.948.679,2.652.72,1.689.033,2.591-.4,2.678-.587C-424.194-358.782-425.088-359.267-426.762-359.305Z" transform="translate(430.283 360.148)" fill="#ccdfe8"/>
          </g>
          <path id="Trazado_37491" data-name="Trazado 37491" d="M-427.6-350.981c-1.2-.028-2.181.238-2.191.6s.958.671,2.16.7,2.181-.238,2.191-.6S-426.395-350.953-427.6-350.981Z" transform="translate(431.057 374.471)" fill="#bc49a5"/>
        </g>
        <path id="Trazado_37492" data-name="Trazado 37492" d="M-373.477-343.464h-76.9a.938.938,0,0,0-.938.938.938.938,0,0,0,.938.938h76.9a.938.938,0,0,0,.938-.938A.939.939,0,0,0-373.477-343.464Z" transform="translate(2.144 85.069)" fill="#c6bee0"/>
        <path id="Trazado_37493" data-name="Trazado 37493" d="M-373.477-352.521h-76.9a.938.938,0,0,0-.938.938.938.938,0,0,0,.938.938h76.9a.938.938,0,0,0,.938-.938A.939.939,0,0,0-373.477-352.521Z" transform="translate(2.144 70.915)" fill="#c6bee0"/>
        <path id="Trazado_37494" data-name="Trazado 37494" d="M-373.477-347.992h-76.9a.937.937,0,0,0-.938.938.936.936,0,0,0,.938.935h76.9a.936.936,0,0,0,.938-.935A.937.937,0,0,0-373.477-347.992Z" transform="translate(2.144 77.993)" fill="#c6bee0"/>
        <g id="Grupo_11184" data-name="Grupo 11184" transform="translate(-447.449 -291.663)">
          <path id="Trazado_37495" data-name="Trazado 37495" d="M-449.741-356.445a.9.9,0,0,0-.9.9v35.254a.9.9,0,0,0,.9.9.9.9,0,0,0,.9-.9V-355.54A.9.9,0,0,0-449.741-356.445Z" transform="translate(450.646 356.445)" fill="#c6bee0"/>
          <path id="Trazado_37496" data-name="Trazado 37496" d="M-421.055-356.445a.9.9,0,0,0-.9.9v35.254a.9.9,0,0,0,.9.9.9.9,0,0,0,.9-.9V-355.54A.9.9,0,0,0-421.055-356.445Z" transform="translate(495.477 356.445)" fill="#c6bee0"/>
        </g>
        <path id="Trazado_37497" data-name="Trazado 37497" d="M-425.566-338.311a.179.179,0,0,0,.092-.341c-1.486-.664-3.186-1.594-2.676-3.1.877-2.588,5.395-.115,5.607-.682.118-.31-2.483-.548-1.945-2.155s3.57-1.161,7.868-.466c4.426.713,6.294.4,6.422.12V-350.2a17.963,17.963,0,0,1,6.1,1.176,18.279,18.279,0,0,1,4.828,2.788,33.557,33.557,0,0,1,6.143,6.953,6.64,6.64,0,0,0,3.421,2.973c-.333,3.211-.887,7.343-1.689,16.579-2.071-2.176-4.264-4.849-6.469-5.42-4.454-1.161-7.3-1.5-11.733-2.324-1.21-.11-2.645-.282-4.439-.438-7.163-.623-14.605-2.045-13.731-4.08.859-1.994,7.378-.528,11.561-.6,1.479-.026,1.225-.238.19-.418-4.967-.861-11.956-2.009-12.273-3.6C-428.613-338.236-426.94-338.421-425.566-338.311Z" transform="translate(38.074 74.539)" fill="#487fff"/>
        <g id="Grupo_11185" data-name="Grupo 11185" transform="translate(-387.14 -268.201)">
          <path id="Trazado_37498" data-name="Trazado 37498" d="M-425.521-347.267a60.961,60.961,0,0,0,12.353,2.355c.584.054.594.976.005.92a62.007,62.007,0,0,1-12.6-2.386C-426.323-346.554-426.087-347.444-425.521-347.267Z" transform="translate(428.725 347.29)" fill="#3d71eb"/>
          <path id="Trazado_37499" data-name="Trazado 37499" d="M-426.548-345.8a43.645,43.645,0,0,0,13.565,1.512c.595-.023.6.9.005.92a44.5,44.5,0,0,1-13.808-1.545A.459.459,0,0,1-426.548-345.8Z" transform="translate(427.113 349.591)" fill="#3d71eb"/>
        </g>
        <path id="Trazado_37500" data-name="Trazado 37500" d="M-450.7-346.061a5.774,5.774,0,0,1,.046-2.271c.249-1.128,1.932-1.722,3.168-1.322l.039,3.488a35.769,35.769,0,0,1,7.858,1.2c1.394.512,3.011,1,3.124,2.212.1,1.071-1.33,1.658-3.5,1.676a.087.087,0,0,0-.031.169,8.122,8.122,0,0,1,2.714,1.386,2.261,2.261,0,0,1,.915,1.868c-.038.561-.692.874-1.481,1.048a11.482,11.482,0,0,1-2.348.21.089.089,0,0,0-.033.172c1.056.41,3.383,1.481,2.886,2.786a2.056,2.056,0,0,1-1.451.979,22.225,22.225,0,0,1-5.192.333.088.088,0,0,0-.018.174,8.8,8.8,0,0,1,3.836,1.146c.759.554,1.071.838.853,1.351-.2.464-.9.679-1.812.659-3.644-.079-11-1.82-11.417-3.152-.6-1.937.779-2.066.779-2.066-1.153-.751-.876-3.127.382-3.755a2.228,2.228,0,0,1-.966-2.007,2.7,2.7,0,0,1,.959-2,5.193,5.193,0,0,1-.833-1.822C-452.429-344.9-451.957-345.887-450.7-346.061Z" transform="translate(0 75.2)" fill="#487fff"/>
        <g id="Grupo_11186" data-name="Grupo 11186" transform="translate(-450.956 -267.064)">
          <path id="Trazado_37501" data-name="Trazado 37501" d="M-451.486-346.845q4.936.361,9.875.718c.589.044.423.951-.161.907l-9.872-.718C-452.236-345.982-452.07-346.886-451.486-346.845Z" transform="translate(452.014 346.847)" fill="#3d71eb"/>
          <path id="Trazado_37502" data-name="Trazado 37502" d="M-451.419-345.347l9.3,1.507a.461.461,0,0,1-.159.907l-9.3-1.507A.461.461,0,0,1-451.419-345.347Z" transform="translate(452.122 349.179)" fill="#3d71eb"/>
          <path id="Trazado_37503" data-name="Trazado 37503" d="M-451.38-343.536q2.38.611,4.762,1.225c.571.146.413,1.053-.161.9l-4.759-1.222C-452.11-342.777-451.954-343.685-451.38-343.536Z" transform="translate(452.198 351.995)" fill="#3d71eb"/>
        </g>
        <path id="Trazado_37504" data-name="Trazado 37504" d="M-409.7-327.24l-5.179-3.086a3.5,3.5,0,0,1-1.72-3.247c.3-4.116,2.214-7.409,5.648-11.079a2.749,2.749,0,0,1,2.617-.8l7.373,1.684Z" transform="translate(56.385 81.851)" fill="#9fc6e6"/>
        <path id="Trazado_37505" data-name="Trazado 37505" d="M-396.072-310.182c-4.9-2.84-15.679-5.236-18.306-17.476-.72-3.365.241-8.7,3.109-12.837,1.807-2.606,4.387-5.4,9.088-4.874,8.711.974,18.488,6.407,23.173,9.7s27.6,9.608,20.333,25.779C-361.69-303.185-380.2-300.984-396.072-310.182Z" transform="translate(59.518 81.992)" fill="#fff"/>
        <path id="Trazado_37506" data-name="Trazado 37506" d="M-408.023-351.507c1.592,5.9,4.869,10.728,8.593,15.477.292.374-.072.994-.546.707-3.252-1.976-8.967.313-12.045,1.443-.546.2-.779-.669-.241-.866,3.263-1.2,9.257-3.467,12.74-1.353l-.543.7c-3.821-4.872-7.194-9.831-8.826-15.871a.451.451,0,0,1,.869-.241Z" transform="translate(62.707 72.002)" fill="#9fc6e6"/>
      </g>
    </g>
  </g>
</svg>
