<svg xmlns="http://www.w3.org/2000/svg" xmlns:xlink="http://www.w3.org/1999/xlink" width="295.07" height="157.636" viewBox="0 0 295.07 157.636">
  <defs>
    <clipPath id="clip-path">
      <rect id="Rectángulo_40407" data-name="Rectángulo 40407" width="63.808" height="155.457" fill="none"/>
    </clipPath>
    <clipPath id="clip-path-2">
      <rect id="Rectángulo_40406" data-name="Rectángulo 40406" width="63.808" height="155.458" fill="none"/>
    </clipPath>
    <clipPath id="clip-path-3">
      <rect id="Rectángulo_40405" data-name="Rectángulo 40405" width="11.217" height="14.17" fill="none"/>
    </clipPath>
  </defs>
  <g id="Grupo_148072" data-name="Grupo 148072" transform="translate(4611 8860.278)">
    <path id="Trazado_190608" data-name="Trazado 190608" d="M-5908-10043.164l4.358-4.357h285.354l4.358,4.357Z" transform="translate(1298 1340.521)" fill="#a0a9b6"/>
    <path id="Trazado_191966" data-name="Trazado 191966" d="M162.416,454.87c1.748,0,2.365-1.51.845-2.071-21.3-7.854-49.15-12.612-79.63-12.612-30.5,0-58.36,4.764-79.667,12.625-1.51.557-.9,2.057.839,2.057Z" transform="translate(-4598.339 -9161.869)" fill="#9eb7e5"/>
    <path id="Trazado_191913" data-name="Trazado 191913" d="M165.3,216.491a2.43,2.43,0,0,0-2.468,2.39V290.7a196.872,196.872,0,0,1,31.143-2.449q3.294,0,6.546.109V216.491H165.3Z" transform="translate(-4620.313 -9016.992)" fill="#ddc192"/>
    <g id="Grupo_147736" data-name="Grupo 147736" transform="translate(-4457.479 -8800.501)">
      <path id="Trazado_191914" data-name="Trazado 191914" d="M169.314,289.719V218.882a2.43,2.43,0,0,1,2.468-2.39H165.3a2.43,2.43,0,0,0-2.468,2.39V290.7q3.207-.514,6.48-.922Z" transform="translate(-162.834 -216.492)" fill="#c3ab83"/>
      <path id="Trazado_191915" data-name="Trazado 191915" d="M274.768,443.277q-1.619,0-3.228.028,1.652.028,3.294.081v-.108Z" transform="translate(-237.145 -371.521)" fill="#c3ab83"/>
    </g>
    <path id="Trazado_191916" data-name="Trazado 191916" d="M344.271,83.121H309.058a2.967,2.967,0,0,0-2.949,2.967v12.5H347.22v-12.5A2.967,2.967,0,0,0,344.271,83.121Z" transform="translate(-4718.254 -8925.821)" fill="#a5afaf"/>
    <path id="Trazado_191917" data-name="Trazado 191917" d="M312.588,86.087a2.967,2.967,0,0,1,2.949-2.967h-6.48a2.967,2.967,0,0,0-2.949,2.967v12.5h6.48v-12.5Z" transform="translate(-4718.253 -8925.82)" fill="#98a0a0"/>
    <path id="Trazado_191918" data-name="Trazado 191918" d="M335.355,128.921H279.843a2.329,2.329,0,0,0-2.322,2.336v96.259l60.22,13.7V193.243h.044V131.366A2.437,2.437,0,0,0,335.355,128.921Z" transform="translate(-4698.712 -8957.13)" fill="#c0cdce"/>
    <path id="Trazado_191919" data-name="Trazado 191919" d="M284,131.354a2.425,2.425,0,0,1,2.418-2.433h-6.576a2.329,2.329,0,0,0-2.322,2.336v96.259L284,228.99Z" transform="translate(-4698.712 -8957.13)" fill="#afbcbc"/>
    <path id="Trazado_191920" data-name="Trazado 191920" d="M74,339.452a9.74,9.74,0,0,0-7.478,14.978c1.168,1.808-1.691,2.62-1.55,7.459a9.653,9.653,0,0,0,19.3-.292c0-4.727-2.711-5.474-1.7-6.944A9.72,9.72,0,0,0,74,339.452Z" transform="translate(-4553.407 -9101.033)" fill="#4ce079"/>
    <path id="Trazado_191921" data-name="Trazado 191921" d="M71.429,361.825a9.712,9.712,0,0,1,1.55-5.577,1.733,1.733,0,0,0,0-1.882,9.751,9.751,0,0,1,4.864-14.434C69.123,336.8,61.53,346.677,66.5,354.366c1.168,1.808-1.691,2.62-1.55,7.459a9.735,9.735,0,0,0,9.027,9.4,9.614,9.614,0,0,0,3.867-.544A9.776,9.776,0,0,1,71.429,361.825Z" transform="translate(-4553.38 -9100.969)" fill="#32cc65"/>
    <path id="Trazado_191922" data-name="Trazado 191922" d="M90.256,417.4a2.438,2.438,0,0,1-2.43-2.445V389.1a2.43,2.43,0,1,1,4.86,0v25.854A2.437,2.437,0,0,1,90.256,417.4Z" transform="translate(-4569.038 -9133.314)" fill="#9b6f43"/>
    <path id="Trazado_191923" data-name="Trazado 191923" d="M162.416,462.909a1.717,1.717,0,0,0,.845-3.2c-21.3-12.154-49.15-19.518-79.63-19.518-30.5,0-58.36,7.372-79.667,19.538a1.706,1.706,0,0,0,.839,3.184Z" transform="translate(-4511.124 -9169.909)" fill="#29b288"/>
    <path id="Trazado_191924" data-name="Trazado 191924" d="M16.924,459.724c19.787-11.3,45.231-18.458,73.187-19.423q-3.219-.111-6.48-.116c-30.5,0-58.36,7.372-79.667,19.538a1.706,1.706,0,0,0,.84,3.184h12.96A1.706,1.706,0,0,1,16.924,459.724Z" transform="translate(-4511.124 -9169.908)" fill="#21a378"/>
    <path id="Trazado_191925" data-name="Trazado 191925" d="M128.7,15.737a9.411,9.411,0,0,1,10.763,3.61,11.841,11.841,0,0,1,6.514.16A12.844,12.844,0,1,0,123.487,7.133,15.856,15.856,0,0,1,128.7,15.737Z" transform="translate(-4695.415 -8819.652)" fill="#fac149"/>
    <path id="Trazado_191926" data-name="Trazado 191926" d="M142.153,15.89a15.516,15.516,0,0,0-8.585-3.548,21.828,21.828,0,0,0-5.237-6.457,12.933,12.933,0,0,0-4.844,5.271,15.857,15.857,0,0,1,5.21,8.6,9.411,9.411,0,0,1,10.763,3.61,11.838,11.838,0,0,1,6.514.16,12.854,12.854,0,0,0,1.8-6.891A18.058,18.058,0,0,0,142.153,15.89Z" transform="translate(-4695.415 -8823.676)" fill="#f8a748"/>
    <g id="Grupo_147737" data-name="Grupo 147737" transform="translate(-4449.962 -8789.581)">
      <path id="Trazado_191927" data-name="Trazado 191927" d="M205.382,255.894H189.02a2.445,2.445,0,0,1,0-4.89h16.362a2.445,2.445,0,0,1,0,4.89Z" transform="translate(-186.59 -251.004)" fill="#c3ab83"/>
      <path id="Trazado_191928" data-name="Trazado 191928" d="M205.382,293.54H189.02a2.445,2.445,0,0,1,0-4.89h16.362a2.445,2.445,0,0,1,0,4.89Z" transform="translate(-186.59 -276.739)" fill="#c3ab83"/>
      <path id="Trazado_191929" data-name="Trazado 191929" d="M205.382,331.185H189.02a2.445,2.445,0,0,1,0-4.89h16.362a2.445,2.445,0,0,1,0,4.89Z" transform="translate(-186.59 -302.472)" fill="#c3ab83"/>
      <path id="Trazado_191930" data-name="Trazado 191930" d="M205.382,368.831H189.02a2.445,2.445,0,0,1,0-4.89h16.362a2.445,2.445,0,0,1,0,4.89Z" transform="translate(-186.59 -328.207)" fill="#c3ab83"/>
      <path id="Trazado_191931" data-name="Trazado 191931" d="M205.382,406.476H189.02a2.445,2.445,0,0,1,0-4.89h16.362a2.445,2.445,0,0,1,0,4.89Z" transform="translate(-186.59 -353.941)" fill="#c3ab83"/>
    </g>
    <g id="Grupo_147738" data-name="Grupo 147738" transform="translate(-4413.667 -8813.562)">
      <path id="Trazado_191932" data-name="Trazado 191932" d="M343.025,255.894H303.731a2.445,2.445,0,0,1,0-4.89h39.294a2.445,2.445,0,0,1,0,4.89Z" transform="translate(-301.301 -227.023)" fill="#a5afaf"/>
      <path id="Trazado_191933" data-name="Trazado 191933" d="M343.025,293.54H303.731a2.445,2.445,0,0,1,0-4.89h39.294a2.445,2.445,0,0,1,0,4.89Z" transform="translate(-301.301 -252.758)" fill="#a5afaf"/>
      <path id="Trazado_191934" data-name="Trazado 191934" d="M343.025,331.185H303.731a2.445,2.445,0,0,1,0-4.89h39.294a2.445,2.445,0,0,1,0,4.89Z" transform="translate(-301.301 -278.491)" fill="#a5afaf"/>
      <path id="Trazado_191935" data-name="Trazado 191935" d="M343.025,218.249H303.731a2.445,2.445,0,0,1,0-4.89h39.294a2.445,2.445,0,0,1,0,4.89Z" transform="translate(-301.301 -201.289)" fill="#a5afaf"/>
      <path id="Trazado_191936" data-name="Trazado 191936" d="M343.025,180.1H303.731a2.445,2.445,0,0,1,0-4.89h39.294a2.445,2.445,0,0,1,0,4.89Z" transform="translate(-301.301 -175.212)" fill="#a5afaf"/>
      <path id="Trazado_191937" data-name="Trazado 191937" d="M340.026,368.831H303.731a2.445,2.445,0,0,1,0-4.89h36.295a2.445,2.445,0,0,1,0,4.89Z" transform="translate(-301.301 -304.226)" fill="#a5afaf"/>
      <path id="Trazado_191938" data-name="Trazado 191938" d="M342.3,406.476H303.731a2.445,2.445,0,0,1,0-4.89H342.3a2.445,2.445,0,0,1,0,4.89Z" transform="translate(-301.301 -329.96)" fill="#a5afaf"/>
    </g>
    <path id="Trazado_191939" data-name="Trazado 191939" d="M451.633,346.265a13.972,13.972,0,1,0-25.325,8.189,1.407,1.407,0,0,1,0,1.642,13.971,13.971,0,1,0,22.858.215,1.83,1.83,0,0,1,0-2.071A14.047,14.047,0,0,0,451.633,346.265Z" transform="translate(-4798.633 -9096.096)" fill="#4ce079"/>
    <path id="Trazado_191940" data-name="Trazado 191940" d="M430.176,364.665a14.054,14.054,0,0,1,2.612-8.568,1.407,1.407,0,0,0,0-1.642,14.088,14.088,0,0,1,8.115-21.861,14.053,14.053,0,0,0-14.6,21.861,1.407,1.407,0,0,1,0,1.642,14.013,14.013,0,0,0,14.6,21.862A14.116,14.116,0,0,1,430.176,364.665Z" transform="translate(-4798.633 -9096.096)" fill="#32cc65"/>
    <path id="Trazado_191941" data-name="Trazado 191941" d="M445.957,396.66l3.8,2.746v21.509h4.86V381.2a2.43,2.43,0,1,0-4.86,0v12.187l-.969-.7a2.42,2.42,0,0,0-3.391.561A2.454,2.454,0,0,0,445.957,396.66Z" transform="translate(-4813.161 -9127.914)" fill="#9b6f43"/>
    <path id="Trazado_191942" data-name="Trazado 191942" d="M69.451,34.779A11.427,11.427,0,0,0,60.363,25.7c-3.722-.693-4.622.646-5.541-.47a9.112,9.112,0,0,0-8.331-3.247A1.916,1.916,0,0,1,44.4,20.71a15.244,15.244,0,0,0-29.661,4.764s0,.007,0,.011a.689.689,0,0,1-.829.577l-.119-.028,0,0h0A11.408,11.408,0,1,0,11.346,48.6H58.188A11.54,11.54,0,0,0,69.451,34.779Z" transform="translate(-4611 -8826.771)" fill="#a4d9f4"/>
    <path id="Trazado_191945" data-name="Trazado 191945" d="M46.531,26.738a7.656,7.656,0,0,0-6.089-6.081c-2.494-.464-3.1.433-3.713-.315a6.1,6.1,0,0,0-5.582-2.176,1.284,1.284,0,0,1-1.4-.855A10.213,10.213,0,0,0,9.874,20.5l0,.007a.462.462,0,0,1-.555.386l-.079-.019h0A7.643,7.643,0,1,0,7.6,36H38.986A7.732,7.732,0,0,0,46.531,26.738Z" transform="translate(-4474.184 -8853.788)" fill="#a4d9f4"/>
    <g id="Grupo_147739" data-name="Grupo 147739" transform="translate(-4611 -8816.357)">
      <path id="Trazado_191943" data-name="Trazado 191943" d="M48.91,25.2a11.675,11.675,0,0,1,3.372.24h0l0,0,.122.029a.708.708,0,0,0,.851-.592s0-.007,0-.011A15.76,15.76,0,0,1,63.193,10.5a15.232,15.232,0,0,0-16.8,14.979s0,.007,0,.011a1.1,1.1,0,0,1-.079.208A11.426,11.426,0,0,1,48.91,25.2Z" transform="translate(-31.657 -10.415)" fill="#77cff2"/>
      <path id="Trazado_191944" data-name="Trazado 191944" d="M6.513,69.164A11.738,11.738,0,0,1,13.74,59.2,11.407,11.407,0,1,0,11.346,81.77h6.78A11.689,11.689,0,0,1,6.513,69.164Z" transform="translate(-0.001 -43.587)" fill="#77cff2"/>
    </g>
    <g id="Grupo_147740" data-name="Grupo 147740" transform="translate(-4474.184 -8843.374)">
      <path id="Trazado_191943-2" data-name="Trazado 191943" d="M48.052,20.318a7.822,7.822,0,0,1,2.259.16h0l.082.02a.474.474,0,0,0,.57-.4l0-.008a10.559,10.559,0,0,1,6.653-9.626A10.205,10.205,0,0,0,46.366,20.505l0,.007a.74.74,0,0,1-.053.139A7.655,7.655,0,0,1,48.052,20.318Z" transform="translate(-36.493 -10.415)" fill="#77cff2"/>
      <path id="Trazado_191944-2" data-name="Trazado 191944" d="M4.364,65.79a7.864,7.864,0,0,1,4.842-6.677A7.643,7.643,0,1,0,7.6,74.236h4.543A7.832,7.832,0,0,1,4.364,65.79Z" transform="translate(-0.001 -48.654)" fill="#77cff2"/>
    </g>
    <g id="Grupo_147734" data-name="Grupo 147734" transform="translate(-4540.732 -8860.278)" clip-path="url(#clip-path)">
      <g id="Grupo_147733" data-name="Grupo 147733" transform="translate(0 -0.001)">
        <g id="Grupo_147732" data-name="Grupo 147732" clip-path="url(#clip-path-2)">
          <path id="Trazado_191873" data-name="Trazado 191873" d="M9.572,85.447a20.973,20.973,0,0,0,.508,5.684c.655,1.816,5.322,4.6,5.322,4.6s-4.222.817-5.844-.437S4.089,87.48,4.34,86.625s1.417-3.487,1.417-3.487Z" transform="translate(3.053 58.644)" fill="#f88667"/>
          <path id="Trazado_191874" data-name="Trazado 191874" d="M24.325,84.03a20.973,20.973,0,0,0,.508,5.684c.655,1.816,5.322,4.6,5.322,4.6s-4.222.817-5.844-.437-5.469-7.811-5.218-8.665,1.417-3.487,1.417-3.487Z" transform="translate(13.459 57.644)" fill="#f88667"/>
          <path id="Trazado_191875" data-name="Trazado 191875" d="M6.059,84.492S2.515,85.674,3.4,88.772A27.026,27.026,0,0,1,4.14,95.86H5.172s.222-4.429.887-4.282S8.2,95.86,9.676,95.86h8.341s.885-.887,0-1.4-6.54-.3-7.181-1.55-4.777-8.414-4.777-8.414" transform="translate(2.299 59.599)" fill="#110239"/>
          <path id="Trazado_191876" data-name="Trazado 191876" d="M20.929,83.017S17.385,84.2,18.272,87.3a26.993,26.993,0,0,1,.737,7.088h1.033s.222-4.429.887-4.282,2.14,4.282,3.617,4.282h8.341s.885-.887,0-1.4-6.54-.3-7.183-1.552-4.775-8.414-4.775-8.414" transform="translate(12.788 58.559)" fill="#110239"/>
          <path id="Trazado_191877" data-name="Trazado 191877" d="M28.77,37.835s-9.927,3.487-17.119,0c0,0-4.359,3.656-5.048,11.122a40.871,40.871,0,0,0,.292,8.39C7.4,61.5,8.6,72.389,7.848,79.107c-1.107,9.833-4.159,38.408-4.159,38.408l6.842,1.066s6.286-34.486,7.03-38.737,3.134-21.518,3.134-21.518,4.262,13.353,5.358,19.818c.171.993,3.2,37.559,3.2,37.559l6.632-.041s-.372-40.617-.372-38.48c0,.871-1.794-27.393-6.748-39.346" transform="translate(2.602 26.689)" fill="#6a9aee"/>
          <path id="Trazado_191878" data-name="Trazado 191878" d="M24.336,47.38c-7.483,1.323-13.414,3.17-18.522-.788a14.536,14.536,0,0,1-5.1-8.031c-1.6-6.393-.268-9.209,1.743-11.915,2.573-3.465,4.506-5.377,4.361-9.738S6.451,5.582,11.684,1.8s12.132-.443,12.132-.443c3.421,1.177,6.371,5.234,6,11.4a29.263,29.263,0,0,0,.776,8.143,32.89,32.89,0,0,0,5.244,9.093,8.2,8.2,0,0,1,1.09,8.992c-2.486,5.449-6.475,7.314-12.592,8.4" transform="translate(0 0.001)" fill="#110239"/>
          <path id="Trazado_191879" data-name="Trazado 191879" d="M29.62,32.05a9.159,9.159,0,0,0,3.522-.525c2.551-1.468,5.887-2.377,5.658-3.213-.1-.363-2.592-3.5-2.686-3.835-.362.454-4.236,4.315-4.584,4.686-.256.271-1.458-.044-1.908.275a3.005,3.005,0,0,0,0,2.613" transform="translate(20.678 17.265)" fill="#ff9d8a"/>
          <path id="Trazado_191880" data-name="Trazado 191880" d="M40.64,33.508l1.271,3.539S26.842,47.218,22.827,46.016s-6.862-19.283-6.862-19.283l3.743-9.146s2.625.706,3.522,5.991c.856,5.053.9,12.654,2.311,13.655,2.212,1.562,15.1-3.725,15.1-3.725" transform="translate(11.261 12.406)" fill="#edf6ff"/>
          <path id="Trazado_191881" data-name="Trazado 191881" d="M32.193,40.929c-2.473.762-7.816,2.04-7.94,2.019-2.388-.4-3.852-10.35-3.757-18.324.051-4.388-3.319-4.48-3.777-5.849l-.754,7.12s2.848,18.08,6.862,19.283c2.3.691,8.566-2.464,13.268-5.314-.5.186-3.383.906-3.9,1.066" transform="translate(11.261 13.244)" fill="#c6d1de"/>
          <path id="Trazado_191882" data-name="Trazado 191882" d="M37.256,26.507l-.324-3.448-.607.056.329,3.511s4.98,5.873,5.16,7.8a1.69,1.69,0,0,1-.941,1.936,2.717,2.717,0,0,1-.9.237l-7.137.669a2.705,2.705,0,0,1-.929-.065,1.686,1.686,0,0,1-1.284-1.726c-.182-1.932,3.619-8.627,3.619-8.627l-.329-3.511-.6.056.321,3.448s-4.057,7.181-3.849,9.426a1.963,1.963,0,0,0,1.494,2.006,3.12,3.12,0,0,0,1.081.077l8.293-.778a3.092,3.092,0,0,0,1.047-.276,1.961,1.961,0,0,0,1.095-2.248c-.211-2.244-5.532-8.546-5.532-8.546" transform="translate(20.999 16.266)" fill="#edf6ff"/>
          <path id="Trazado_191883" data-name="Trazado 191883" d="M34.319,24.107l-.1-1.049-.605.058.1,1.047Z" transform="translate(23.711 16.266)" fill="#b7d0d2"/>
          <path id="Trazado_191884" data-name="Trazado 191884" d="M32.547,24.274l-.1-1.049-.605.058.1,1.047Z" transform="translate(22.461 16.383)" fill="#b7d0d2"/>
          <g id="Grupo_147731" data-name="Grupo 147731" transform="translate(51.614 39.382)" opacity="0.32" style="mix-blend-mode: screen;isolation: isolate">
            <g id="Grupo_147730" data-name="Grupo 147730">
              <g id="Grupo_147729" data-name="Grupo 147729" clip-path="url(#clip-path-3)">
                <path id="Trazado_191885" data-name="Trazado 191885" d="M36.307,26.6l-.329-3.511-2.415.227.329,3.511s-3.8,6.7-3.621,8.626a1.688,1.688,0,0,0,1.286,1.726,2.661,2.661,0,0,0,.929.067l7.137-.67a2.667,2.667,0,0,0,.9-.237,1.684,1.684,0,0,0,.941-1.934c-.181-1.932-5.159-7.8-5.159-7.8" transform="translate(-30.266 -23.092)" fill="#fff"/>
              </g>
            </g>
          </g>
          <path id="Trazado_191886" data-name="Trazado 191886" d="M41.466,32.523c-.128-1.361-2.625-4.661-4.1-6.5a5.529,5.529,0,0,1-2.579.513,2.1,2.1,0,0,1-1.352-.769c-1,1.842-3.31,6.289-3.167,7.805A1.685,1.685,0,0,0,31.556,35.3a2.674,2.674,0,0,0,.931.067l7.135-.67a2.666,2.666,0,0,0,.9-.237,1.684,1.684,0,0,0,.941-1.934" transform="translate(21.348 18.175)" fill="#84e8ed"/>
          <path id="Trazado_191887" data-name="Trazado 191887" d="M35.63,23.9l-3.39.317a.666.666,0,0,1-.725-.6l0-.014a.666.666,0,0,1,.6-.725l3.389-.319a.667.667,0,0,1,.726.6v.014a.663.663,0,0,1-.6.725" transform="translate(22.226 15.911)" fill="#edf6ff"/>
          <path id="Trazado_191899" data-name="Trazado 191899" d="M34.377,24.25c-.539.268-2.106,1.149-1.871,2.021.194.725,2.22-.462,2.22-.462-.749.452-2.043.694-1.832,1.31.235.686,1.936.053,2.316-.138-.363.029-2.27.786-1.67,1.451.411.457,1.816-.116,2.243-.319-.537.068-1.308.4-1.294,1.134.157.425.972.3,1.431.2.692-.153,1.3-.355,1.494-1.151a7.917,7.917,0,0,0-1.224-3.39c-.512-.634-1.136-1.008-1.813-.651" transform="translate(22.912 17.009)" fill="#ff9d8a"/>
          <path id="Trazado_191900" data-name="Trazado 191900" d="M32.161,27.545a5.168,5.168,0,0,1,.179-.566,4.066,4.066,0,0,1,.759-1.139c.305-.36.875-.735.8-1.277-.124-.958-1.83.508-2.069.726a1.948,1.948,0,0,0-.651,1.189c-.126.592-.186,2.081-.249,2.237-.056.14-.182.275-.164.43.026.2.1.254.24.472.111-.15.87-1.663,1.149-2.072" transform="translate(21.703 17.099)" fill="#ff9d8a"/>
          <path id="Trazado_191901" data-name="Trazado 191901" d="M8.976,9.1s3.293,12.84,1.41,13.849c0,0,6.728,13.95,9.707,13.3S21.5,23.692,21.5,23.692a5.2,5.2,0,0,1-2.3-1.32c-.568-.508-1.8-1.364-1.975-2.212a46.126,46.126,0,0,1-.709-6.216Z" transform="translate(6.331 6.423)" fill="#f88667"/>
          <path id="Trazado_191902" data-name="Trazado 191902" d="M14.611,30.4a7.79,7.79,0,0,1-1.668-5.264,6.6,6.6,0,0,1,4.175-5.573,48.885,48.885,0,0,1-.6-5.616L8.976,9.1s3.293,12.84,1.41,13.849c0,0,6.728,13.95,9.707,13.3.774-.171,1.236-1.107,1.5-2.388-2.846.518-5.322-1.248-6.985-3.467" transform="translate(6.331 6.423)" fill="#e45940"/>
          <path id="Trazado_191903" data-name="Trazado 191903" d="M27.962,18.42l-5.924-1.531s2.214,10.195.4,10.121-8.176-10.6-8.176-10.6-6.293,2.11-8.894,3.762c0,0,2.1,7.787,1.521,8.876,0,0,1.886,5.3,3.123,7.775.928,1.855-.454,10.317-.348,14.291.014.518-2.9,5.725-3.733,11.431C4.637,71.353,4.264,81.229,4.264,81.229s10.2,2.162,15.647,2.162,15.035-2.44,15.035-2.44a158.916,158.916,0,0,0-2.587-16.046c-1.521-6.816-3.987-13.367-3.982-14.047.039-4.468.177-13.643.67-14.656.653-1.344,3.858-6.47,1.093-11.4a25.065,25.065,0,0,1-2.178-6.38" transform="translate(3.008 11.573)" fill="#edf6ff"/>
          <path id="Trazado_191904" data-name="Trazado 191904" d="M17.122,78.775c-1.364-15.6-1.753-23.474-1.753-32.946,0-7.263-.13-12.11.092-19,.026-.8.039-2.72.027-4.42-.113.23-.261.368-.469.36a.771.771,0,0,1-.153-.051c.087,4.224.194,9.545-.032,12.961-.15,2.263.055,6.173-.014,11.163C14.69,56.4,15.7,69.27,16.293,78.88l.5-.063c.111-.014.22-.026.331-.041" transform="translate(10.423 15.81)" fill="#c6d1de"/>
          <path id="Trazado_191905" data-name="Trazado 191905" d="M11.712,45.006a65.6,65.6,0,0,0-.45-13.781,36.989,36.989,0,0,0-.669-3.984c-.672-2.809-2.463-5.675-3.946-8.025a42.12,42.12,0,0,1,.331,7.5,1.112,1.112,0,0,1-.092.35s1.888,5.3,3.123,7.775c.928,1.855-.452,10.317-.346,14.291.014.518-2.9,5.725-3.735,11.431-1.289,8.81-1.663,18.686-1.663,18.686s1.8.38,4.272.82C6.042,62.5,11.55,46.93,11.712,45.006" transform="translate(3.008 13.555)" fill="#c6d1de"/>
          <path id="Trazado_191906" data-name="Trazado 191906" d="M8.581,25.841s3.972,2.125,5.749,2.1c4.761-.06,5.225-3.133,5.225-3.133s2.9,2.957,5.114,2.773a2.606,2.606,0,0,0,2.536-1.705s-.169,4.572-4.02,5.009a4.531,4.531,0,0,1-2.967-.5,3.406,3.406,0,0,0-3.269-.053,6.707,6.707,0,0,1-2.355.6,5.406,5.406,0,0,1-6.013-5.092" transform="translate(6.053 17.502)" fill="#c6d1de"/>
          <path id="Trazado_191907" data-name="Trazado 191907" d="M14.467,3.268s4.649-1.852,6.82,1.1,1.289,5.321,1.755,6.775.246,8.772-1.641,9.746c-1.635.842-5.9.184-8.3-2.168-2.046-2.006-2.6-1.175-4.047-3.353-3.651-5.488,1.564-12.594,5.409-12.1" transform="translate(5.515 1.902)" fill="#f88667"/>
          <path id="Trazado_191908" data-name="Trazado 191908" d="M13.058,2.306s.687,7.146,6.724,6.648c0,0-.23-9.724-6.724-6.648" transform="translate(9.211 1.203)" fill="#110239"/>
          <path id="Trazado_191909" data-name="Trazado 191909" d="M17.817,1.908s4.678,5.517-2.292,7.58c-2.04.605-2.7,4.782-2.879,5.27a1,1,0,0,1-.472-.384c-.426-.911-1.528-1.982-2.684-.8-1.105,1.131.542,3.21,1.589,3.368.179.026.438.283.715.593a8.264,8.264,0,0,0-1.153,2.493,4.98,4.98,0,0,1-2.15-1.472C5.62,15.45,6.321-.262,17.817,1.908" transform="translate(4.984 1.202)" fill="#110239"/>
          <path id="Trazado_191910" data-name="Trazado 191910" d="M8.81,8.665a1.533,1.533,0,0,1,1.407,1.083c.322,1.011-.484,2.082-.923,1.368s-.022-1,.024-1.414A1.264,1.264,0,0,0,8.81,8.665" transform="translate(6.214 6.113)" fill="#e45940"/>
          <path id="Trazado_191911" data-name="Trazado 191911" d="M20.544,37.509a5.4,5.4,0,0,0,2.843-.177,3.319,3.319,0,0,1,1.288-.384,7.053,7.053,0,0,0,1.509-.3,2.7,2.7,0,0,1,1.508-.142c.593.2-.027.75-.491,1.056-.5.333-2.352.256-2.553.866s2.057.559,2.507.544c1.061-.041,1.463-.752,2.312-1.242.495-.285.8-.264.716.392-.065.489-.554.8-.924,1.054a5.893,5.893,0,0,1-2.64,1.047,6.774,6.774,0,0,0,2.55-.72c.457-.227,2.243-1.533,2.633-.846.783,1.378-3.9,2.986-4.778,2.874a7.923,7.923,0,0,0,2.608-.559c.5-.164,1.68-.6,1.41.322-.4,1.366-3.235,1.189-4.526,1.34a9.076,9.076,0,0,0,2.517,0c1.117-.056.742.8-.4,1.057a12.748,12.748,0,0,1-1.678.171,8.218,8.218,0,0,1-5.246-1.537c-.663-.4-2.312-.4-2.507-1.054-.379-1.262.829-2.751,1.342-3.767" transform="translate(13.493 25.705)" fill="#f88667"/>
          <path id="Trazado_191912" data-name="Trazado 191912" d="M32.488,49.654l-1.508,5.795s-17.265-3.278-22.779-6S2.992,25.3,3.536,22.47c1.054-5.491,6.155-4.871,7.157-.788,2.04,8.314.8,19.895,1.24,20.253s20.555,7.719,20.555,7.719" transform="translate(2.298 13.04)" fill="#edf6ff"/>
        </g>
      </g>
    </g>
  </g>
</svg>
