<svg xmlns="http://www.w3.org/2000/svg" width="294.07" height="163.615" viewBox="0 0 294.07 163.615">
  <g id="Grupo_148073" data-name="Grupo 148073" transform="translate(4610 8605.779)">
    <path id="Trazado_190611" data-name="Trazado 190611" d="M-5908-10043.164l4.358-4.357h285.354l4.358,4.357Z" transform="translate(1298 1601)" fill="#a0a9b6"/>
    <g id="Grupo_147749" data-name="Grupo 147749" transform="translate(-4642.879 -8581.932)">
      <path id="Trazado_191973" data-name="Trazado 191973" d="M318.949,98.639l-5.9,4.078-8.972,6.2-20.3-.174-19.528-67.97,1.3-6.258-4.736-5.68L255.77,11.268a1.6,1.6,0,0,1,1.1-1.988L280.73,2.426,288.954.063a1.6,1.6,0,0,1,1.988,1.1l5.05,17.572-1.469,5.7,4.9,6.239Z" transform="translate(-176.294 0)" fill="#d4e16c"/>
      <path id="Trazado_191974" data-name="Trazado 191974" d="M374.5,98.639l-5.9,4.078L340.206,4.594a3.173,3.173,0,0,0-3.926-2.168L344.5.063a1.6,1.6,0,0,1,1.988,1.1l5.05,17.572-1.469,5.7,4.9,6.239Z" transform="translate(-231.843 0)" fill="#a4ce39"/>
      <path id="Trazado_191975" data-name="Trazado 191975" d="M310.763,72.258,304.1,74.174l-28.507,8.19L272.16,70.426l28.485-8.18,6.69-1.922Z" transform="translate(-187.637 -41.589)" fill="#fdeda5"/>
      <path id="Trazado_191976" data-name="Trazado 191976" d="M385.522,338.269,351.9,347.927l-2.028-7.056-3.78-13.152,28.634-8.227,6.537-1.879,5.363,18.665A1.612,1.612,0,0,1,385.522,338.269Z" transform="translate(-238.606 -218.973)" fill="#56788b"/>
      <path id="Trazado_191977" data-name="Trazado 191977" d="M393.913,338.269l-33.625,9.659-2.028-7.056,22.261-6.73a6.646,6.646,0,0,0,4.46-8.205l-1.867-6.444,6.537-1.879,5.363,18.665A1.612,1.612,0,0,1,393.913,338.269Z" transform="translate(-246.997 -218.973)" fill="#415e6f"/>
      <path id="Trazado_191980" data-name="Trazado 191980" d="M193.843,52.475V162.406H163.46V50.773h28.681a1.7,1.7,0,0,1,1.7,1.7" transform="translate(-112.695 -35.005)" fill="#84e8ed"/>
      <path id="Trazado_191981" data-name="Trazado 191981" d="M243.034,52.475V162.406h-6.522V52.475a1.7,1.7,0,0,0-1.7-1.7h6.522a1.7,1.7,0,0,1,1.7,1.7" transform="translate(-161.886 -35.005)" fill="#61b9bd"/>
      <path id="Trazado_191982" data-name="Trazado 191982" d="M193.843,350.713V372.3l-30.383-3.106V350.713Z" transform="translate(-112.695 -241.794)" fill="#56788b"/>
      <path id="Trazado_191983" data-name="Trazado 191983" d="M172.708,350.713h6.522v18.482h-30v-5.9H166.5a6.207,6.207,0,0,0,6.205-6.205Z" transform="translate(-98.082 -241.794)" fill="#415e6f"/>
      <rect id="Rectángulo_40410" data-name="Rectángulo 40410" width="30.383" height="12.423" transform="translate(50.765 35.517)" fill="#fdeda5"/>
      <rect id="Rectángulo_40411" data-name="Rectángulo 40411" width="6.522" height="12.423" transform="translate(74.626 35.517)" fill="#fbdf63"/>
      <path id="Trazado_191985" data-name="Trazado 191985" d="M117.84,414.574c0,2.4-1.443,4.348-3.222,4.348H3.222a2.876,2.876,0,0,1-2.279-1.273A5.193,5.193,0,0,1,0,414.574c0-2.4,1.443-4.351,3.222-4.351h111.4A2.876,2.876,0,0,1,116.9,411.5a5.21,5.21,0,0,1,.944,3.078" transform="translate(41.169 -282.822)" fill="#d77d41"/>
      <path id="Trazado_191986" data-name="Trazado 191986" d="M482.46,411.5a4.35,4.35,0,0,1-3.075,7.426H471a4.349,4.349,0,0,0,0-8.7h8.385a4.346,4.346,0,0,1,3.075,1.273" transform="translate(-324.724 -282.822)" fill="#b5612a"/>
      <path id="Trazado_191987" data-name="Trazado 191987" d="M367.333,74.174,363.88,62.245l6.69-1.922L374,72.258Z" transform="translate(-250.872 -41.589)" fill="#fbdf63"/>
    </g>
    <g id="Grupo_147749-2" data-name="Grupo 147749" transform="translate(-4513.877 -8581.932)">
      <path id="Trazado_191967" data-name="Trazado 191967" d="M82.224,12.4V30.522l-3.106,6.211,3.106,6.211v76.508L45.63,116.346v-73.4l3.106-6.211L45.63,30.522V12.4a1.626,1.626,0,0,1,1.624-1.627H80.6A1.629,1.629,0,0,1,82.224,12.4Z" transform="translate(-31.459 -7.427)" fill="#9eb7e5"/>
      <path id="Trazado_191968" data-name="Trazado 191968" d="M82.224,12.4V139.179H45.63V128.931H69.5a6.207,6.207,0,0,0,6.205-6.205V12.4a1.629,1.629,0,0,0-1.627-1.627H80.6A1.629,1.629,0,0,1,82.224,12.4" transform="translate(-31.459 -7.427)" fill="#7c9cd6"/>
      <path id="Trazado_191969" data-name="Trazado 191969" d="M82.224,350.713v18.482L45.63,372.3V350.713Z" transform="translate(-31.459 -241.794)" fill="#56788b"/>
      <path id="Trazado_191970" data-name="Trazado 191970" d="M75.7,350.713h6.522v18.482H45.63v-5.9H69.5a6.207,6.207,0,0,0,6.205-6.205Z" transform="translate(-31.459 -241.794)" fill="#415e6f"/>
      <path id="Trazado_191973-2" data-name="Trazado 191973" d="M318.949,98.639l-5.9,4.078-8.972,6.2-20.3-.174-19.528-67.97,1.3-6.258-4.736-5.68L255.77,11.268a1.6,1.6,0,0,1,1.1-1.988L280.73,2.426,288.954.063a1.6,1.6,0,0,1,1.988,1.1l5.05,17.572-1.469,5.7,4.9,6.239Z" transform="translate(-176.294 0)" fill="#ddc192"/>
      <path id="Trazado_191974-2" data-name="Trazado 191974" d="M374.5,98.639l-5.9,4.078L340.206,4.594a3.173,3.173,0,0,0-3.926-2.168L344.5.063a1.6,1.6,0,0,1,1.988,1.1l5.05,17.572-1.469,5.7,4.9,6.239Z" transform="translate(-231.843 0)" fill="#c3ab83"/>
      <path id="Trazado_191975-2" data-name="Trazado 191975" d="M310.763,72.258,304.1,74.174l-28.507,8.19L272.16,70.426l28.485-8.18,6.69-1.922Z" transform="translate(-187.637 -41.589)" fill="#fdeda5"/>
      <path id="Trazado_191976-2" data-name="Trazado 191976" d="M385.522,338.269,351.9,347.927l-2.028-7.056-3.78-13.152,28.634-8.227,6.537-1.879,5.363,18.665A1.612,1.612,0,0,1,385.522,338.269Z" transform="translate(-238.606 -218.973)" fill="#56788b"/>
      <path id="Trazado_191977-2" data-name="Trazado 191977" d="M393.913,338.269l-33.625,9.659-2.028-7.056,22.261-6.73a6.646,6.646,0,0,0,4.46-8.205l-1.867-6.444,6.537-1.879,5.363,18.665A1.612,1.612,0,0,1,393.913,338.269Z" transform="translate(-246.997 -218.973)" fill="#415e6f"/>
      <path id="Trazado_191980-2" data-name="Trazado 191980" d="M193.843,52.475V162.406H163.46V50.773h28.681a1.7,1.7,0,0,1,1.7,1.7" transform="translate(-112.695 -35.005)" fill="#c0cdce"/>
      <path id="Trazado_191981-2" data-name="Trazado 191981" d="M243.034,52.475V162.406h-6.522V52.475a1.7,1.7,0,0,0-1.7-1.7h6.522a1.7,1.7,0,0,1,1.7,1.7" transform="translate(-161.886 -35.005)" fill="#a5afaf"/>
      <path id="Trazado_191982-2" data-name="Trazado 191982" d="M193.843,350.713V372.3l-30.383-3.106V350.713Z" transform="translate(-112.695 -241.794)" fill="#56788b"/>
      <path id="Trazado_191983-2" data-name="Trazado 191983" d="M173.532,350.713h6.522v18.482H143.46v-5.9h23.867a6.207,6.207,0,0,0,6.205-6.205Z" transform="translate(-98.906 -241.794)" fill="#415e6f"/>
      <path id="Trazado_191985-2" data-name="Trazado 191985" d="M159.009,414.574a4.349,4.349,0,0,1-4.348,4.348H4.348a4.349,4.349,0,0,1,0-8.7H154.662a4.347,4.347,0,0,1,4.348,4.351" transform="translate(0 -282.822)" fill="#d77d41"/>
      <path id="Trazado_191986-2" data-name="Trazado 191986" d="M482.46,411.5a4.35,4.35,0,0,1-3.075,7.426H471a4.349,4.349,0,0,0,0-8.7h8.385a4.346,4.346,0,0,1,3.075,1.273" transform="translate(-324.724 -282.822)" fill="#b5612a"/>
      <path id="Trazado_191987-2" data-name="Trazado 191987" d="M367.333,74.174,363.88,62.245l6.69-1.922L374,72.258Z" transform="translate(-250.872 -41.589)" fill="#fbdf63"/>
    </g>
    <path id="Trazado_191966" data-name="Trazado 191966" d="M162.416,454.87c1.748,0,2.365-1.51.845-2.071-21.3-7.854-49.15-12.612-79.63-12.612-30.5,0-58.36,4.764-79.667,12.625-1.51.557-.9,2.057.839,2.057Z" transform="translate(-4598.339 -8900.701)" fill="#9eb7e5"/>
    <path id="Trazado_191923" data-name="Trazado 191923" d="M162.416,462.909a1.717,1.717,0,0,0,.845-3.2c-21.3-12.154-49.15-19.518-79.63-19.518-30.5,0-58.36,7.372-79.667,19.538a1.706,1.706,0,0,0,.839,3.184Z" transform="translate(-4511.124 -8908.741)" fill="#29b288"/>
    <path id="Trazado_191924" data-name="Trazado 191924" d="M16.924,459.724c19.787-11.3,45.231-18.458,73.187-19.423q-3.219-.111-6.48-.116c-30.5,0-58.36,7.372-79.667,19.538a1.706,1.706,0,0,0,.84,3.184h12.96A1.706,1.706,0,0,1,16.924,459.724Z" transform="translate(-4511.124 -8908.74)" fill="#21a378"/>
    <path id="Trazado_190219" data-name="Trazado 190219" d="M136.855,432.849l-7.806.729s-3.974.591-5.167,13.905-2.128,27.368-.819,31.737,16.714,3.521,16.714,3.521-.909-17.625,0-26.141,1.3-15.869.861-18.01S139.02,433.209,136.855,432.849Z" transform="translate(-4639.075 -9009.255)" fill="#56b2e5"/>
    <path id="Trazado_190220" data-name="Trazado 190220" d="M130.591,435.016c23.362,11.152,17.824,9.327,21.616,10.334s26.149,2.419,26.149,2.419l2.47,9.594s-27.233-1.489-30.945-2.342-19.337-6.786-19.337-6.786Z" transform="translate(-4625.689 -9005.68)" fill="#fff"/>
    <path id="Trazado_190221" data-name="Trazado 190221" d="M178.176,443.209c-1.632.983-2.056,2.785-4.3,3.1a58.543,58.543,0,0,1-20.633-1.041c-2.085-.17-3.516.44-5.6-.191-3.641-1.105-10.956-3.166-17.088-7.231l-.021,5.713s15.622,5.93,19.337,6.786,30.945,2.342,30.945,2.342l-2.443-9.494Z" transform="translate(-4625.689 -9001.007)" fill="#d0d1de"/>
    <path id="Trazado_190222" data-name="Trazado 190222" d="M129.975,477.894a19.721,19.721,0,0,0-1,5.127c-.011,2.234.151,4.608.837,5.169,1.37,1.123,18.7,1.269,20.113-.334s.469-4.192-3.2-5.087c-3.937-.959-4.486-.551-6.963-1.492s-1.879-3.723-1.879-3.723Z" transform="translate(-4628.274 -8935.506)" fill="#110239"/>
    <path id="Trazado_190223" data-name="Trazado 190223" d="M117.468,476.455a19.668,19.668,0,0,0-2.761,4.43c-.8,2.085-1.5,4.361-1.06,5.13.88,1.537,17.024,7.851,18.911,6.857s1.934-3.749-1.176-5.9c-3.336-2.3-3.993-2.112-5.972-3.874s-.429-4.149-.429-4.149Z" transform="translate(-4653.787 -8937.32)" fill="#110239"/>
    <path id="Trazado_190224" data-name="Trazado 190224" d="M143.851,449.881l-23.354,2.6s20.884,33.388,22.466,38.751-.583,34.512-.583,34.512h10.575s2.271-34.424,1.751-37.021S143.851,449.881,143.851,449.881Z" transform="translate(-4642.261 -8981.157)" fill="#a0a9b6"/>
    <path id="Trazado_190225" data-name="Trazado 190225" d="M153.411,450.534H126.747s-3.113,8.174-1.685,14.4a136.717,136.717,0,0,1,2.25,21.8c-.13,2.337-13.148,33.475-13.148,33.475l9.708,3.609s13.386-29.686,14.684-33.062S153.411,450.534,153.411,450.534Z" transform="translate(-4652.708 -8980.081)" fill="#a0a9b6"/>
    <path id="Trazado_190226" data-name="Trazado 190226" d="M136.286,440.8a52.819,52.819,0,0,1-.644-10.281A23.735,23.735,0,0,1,129.2,430a9.587,9.587,0,0,1-2.186-.768c-.212,2.491-.893,8.026-2.766,10.689C128.088,443.109,132.356,443.3,136.286,440.8Z" transform="translate(-4636.068 -9015.216)" fill="#ff9d8a"/>
    <path id="Trazado_190227" data-name="Trazado 190227" d="M124.1,440.621a2.225,2.225,0,0,0,.058.228l.011.029a3.413,3.413,0,0,0,.132.344l.005.016a3.753,3.753,0,0,0,.236.429l.04.061a4.542,4.542,0,0,0,.9,1l.069.058a5.9,5.9,0,0,0,.7.485l.106.061a7.466,7.466,0,0,0,.933.453,7.879,7.879,0,0,1,2.12-3.736,9.873,9.873,0,0,1,6.7-2.854,37.828,37.828,0,0,1-.2-6.68,23.734,23.734,0,0,1-6.439-.511,9.586,9.586,0,0,1-2.186-.768c-.228,2.679-.98,8.932-3.2,11.282l.011.069Z" transform="translate(-4636.337 -9015.216)" fill="#e17c5e"/>
    <path id="Trazado_190228" data-name="Trazado 190228" d="M126.894,424.335s9.274-2.284,10.63,0,.927,5.85,1.46,7.456,2.729,3.37,2.944,4.012-1.606,1.767-1.873,2.25-1.426,5.617-3.066,6.688-10.024-2.355-11.95-6.476S124.38,425.549,126.894,424.335Z" transform="translate(-4636.309 -9024.975)" fill="#ff9d8a"/>
    <path id="Trazado_190229" data-name="Trazado 190229" d="M129.018,469.323c-.331,3.789.148,23.039.97,26.15,1.1,4.149,1.757,8.391,2.615,12.588,2.607-.538,5.336-1.2,8.214-2.061,0,0-6.15-22.125-6.1-24.069.175-6.833.554-22.829.379-28.12-.331-9.95-.4-15.832-.4-15.832a61.11,61.11,0,0,0-5.106-4.608s-.5,1.108-1.251,1.288C128.806,440.985,130.121,456.732,129.018,469.323Z" transform="translate(-4629.323 -9008.395)" fill="#fff"/>
    <path id="Trazado_190230" data-name="Trazado 190230" d="M137.436,476.035c-.029-1.139-.061-2.279-.032-3.423.183-7.019,1.693-13.768,2.419-20.72a77.287,77.287,0,0,0,.1-16.211,8.785,8.785,0,0,1-3.58-2.557s-10.063,1.759-11.3,2.26c-1.023.416,1.667,14.743.5,21.944-.949,5.842-4.078,18.468-5.395,22.975-2.6,8.887-3.058,27.424-3.058,27.424s9.417,3.352,23.073,2.305C137.961,498.8,135.362,487.264,137.436,476.035Z" transform="translate(-4647.874 -9008.801)" fill="#fff"/>
    <path id="Trazado_190231" data-name="Trazado 190231" d="M126.925,472.946c2.891-9.229,4.2-16.83,1.924-26.4a62.718,62.718,0,0,0-3.794-10.651c.432,4.923,1.229,12.3.493,16.86-.949,5.842-4.078,18.468-5.395,22.975-2.6,8.887-3.058,27.424-3.058,27.424a46.016,46.016,0,0,0,6.9,1.637C120.386,494.077,123.489,483.913,126.925,472.946Z" transform="translate(-4647.874 -9004.229)" fill="#d0d1de"/>
    <path id="Trazado_190232" data-name="Trazado 190232" d="M133.942,426.834a9.1,9.1,0,0,1-1.182,4.685c-.6,1.068,2,4.1,1.182,5.392-.548.858-1.277.6-1.871-1.171a2.661,2.661,0,0,0-1.42-1.33c-2.2-1.073-2.875,2.316-.911,3.423,1.373.774.374,4.3.374,4.3-1.563,1.092-6.486-.538-5.774-4.155.453-2.3.649-3.18-.138-3.781-1.423-1.092-3.209-4.017-.678-6.311,3.487-3.164.5-4.356,4.4-5.138S134.9,424.466,133.942,426.834Z" transform="translate(-4639.369 -9026.164)" fill="#110239"/>
    <path id="Trazado_190233" data-name="Trazado 190233" d="M124.12,425.949c.257-.829,1.828-1.844,2.6-2.372a11.119,11.119,0,0,1,4.03-1.6,10.2,10.2,0,0,1,4.4.053c1.24.3,2.266.9,3.537,1.105a4.15,4.15,0,0,0,3.219-.472,8.162,8.162,0,0,1,.024,2.9,9.009,9.009,0,0,1-1.791,3.105c-1.982,2.687-7.1,3.988-10.6,2.361-1.688-.784-3.2-1.468-3.977-3A9,9,0,0,0,124.12,425.949Z" transform="translate(-4636.285 -9027.542)" fill="#110239"/>
    <g id="Grupo_108176" data-name="Grupo 108176" transform="translate(-4581.829 -8571.829)">
      <g id="Grupo_108175" data-name="Grupo 108175" transform="translate(0 3.772)">
        <path id="Trazado_190234" data-name="Trazado 190234" d="M235.061,461.651,124.8,506.859c-6.765,2.774-11.068-.813-13.383-6.465l-.085-.207c-2.318-5.652-1.775-11.227,4.992-14l110.26-45.211L224.542,436,108,483.784a16.386,16.386,0,0,0-8.945,21.377l.127.307a16.383,16.383,0,0,0,21.377,8.943L237.1,466.627Z" transform="translate(-97.828 -436)" fill="#fff"/>
        <rect id="Rectángulo_39732" data-name="Rectángulo 39732" width="11.172" height="5.379" transform="matrix(0.925, -0.379, 0.379, 0.925, 126.895, 29.889)" fill="#dfeaeb"/>
        <rect id="Rectángulo_39733" data-name="Rectángulo 39733" width="11.172" height="5.379" transform="translate(116.378 4.238) rotate(-22.295)" fill="#dfeaeb"/>
        <path id="Trazado_190235" data-name="Trazado 190235" d="M103.781,497.3l-.085-.207c-2.318-5.652-1.775-11.227,4.992-14l110.26-45.211,8.479,20.675L117.164,503.761C110.4,506.536,106.1,502.948,103.781,497.3Z" transform="translate(-90.194 -432.902)" fill="#fff" opacity="0.32" style="mix-blend-mode: screen;isolation: isolate"/>
        <path id="Trazado_190236" data-name="Trazado 190236" d="M176.068,467.334a19.821,19.821,0,0,1,4.332-1.208l30.961-12.695c-7.329-1.055-15.686,2.109-22.217-2.472-5.8-4.067-10.453-6.947-16.37-5.681a15.409,15.409,0,0,0-1.5.443l-3.05,1.251-.008,0c-3.863,2-8.217,3.368-12.241,5.018l-47.283,19.387a11.464,11.464,0,0,0-3.961,2.562c-2.9,3-2.769,7.2-1.031,11.439l.085.207a16.477,16.477,0,0,0,2.117,3.786,10.925,10.925,0,0,0,1.351,1.476,8.02,8.02,0,0,0,5.3,2.159,11.422,11.422,0,0,0,4.618-.956l43.6-17.877C165.96,472.047,170.963,469.567,176.068,467.334Z" transform="translate(-90.193 -421.192)" fill="#56b2e5"/>
      </g>
      <path id="Trazado_190237" data-name="Trazado 190237" d="M156.579,470.534,144.224,440.4a4.2,4.2,0,0,1,2.292-5.479l.079-.032a4.2,4.2,0,0,1,5.477,2.292l12.355,30.134a4.2,4.2,0,0,1-2.292,5.477l-.079.032A4.2,4.2,0,0,1,156.579,470.534Z" transform="translate(-21.811 -434.576)" fill="#fff"/>
      <path id="Trazado_190238" data-name="Trazado 190238" d="M127.786,456.93a2.9,2.9,0,1,1,1.582-3.778A2.9,2.9,0,0,1,127.786,456.93Z" transform="translate(-55 -406.897)" fill="#6fc6ec"/>
      <path id="Trazado_190239" data-name="Trazado 190239" d="M132.459,455.126a3.873,3.873,0,1,1,2.114-5.053A3.873,3.873,0,0,1,132.459,455.126Z" transform="translate(-49.514 -412.979)" fill="#6fc6ec"/>
      <path id="Trazado_190240" data-name="Trazado 190240" d="M114.755,466.311a4.655,4.655,0,1,1,2.541-6.073A4.655,4.655,0,0,1,114.755,466.311Z" transform="translate(-80.498 -397.012)" fill="#6fc6ec"/>
      <path id="Trazado_190241" data-name="Trazado 190241" d="M107.945,461.855a2.431,2.431,0,1,1,1.327-3.172A2.432,2.432,0,0,1,107.945,461.855Z" transform="translate(-86.671 -397.298)" fill="#6fc6ec"/>
      <path id="Trazado_190242" data-name="Trazado 190242" d="M124.055,455.306a2.951,2.951,0,1,1,1.611-3.85A2.95,2.95,0,0,1,124.055,455.306Z" transform="translate(-61.277 -409.756)" fill="#6fc6ec"/>
      <path id="Trazado_190243" data-name="Trazado 190243" d="M124.363,463.143a5.226,5.226,0,1,1,2.854-6.818A5.226,5.226,0,0,1,124.363,463.143Z" transform="translate(-65.949 -404.051)" fill="#6fc6ec"/>
      <path id="Trazado_190244" data-name="Trazado 190244" d="M135.877,454.1a3,3,0,1,1,1.637-3.916A3,3,0,0,1,135.877,454.1Z" transform="translate(-41.887 -411.902)" fill="#6fc6ec"/>
      <path id="Trazado_190245" data-name="Trazado 190245" d="M138.185,452.039a1.67,1.67,0,1,1,.911-2.178A1.669,1.669,0,0,1,138.185,452.039Z" transform="translate(-35.048 -411.073)" fill="#6fc6ec"/>
      <path id="Trazado_190246" data-name="Trazado 190246" d="M126.75,451.242a1.668,1.668,0,1,1,.911-2.178A1.667,1.667,0,0,1,126.75,451.242Z" transform="translate(-53.912 -412.383)" fill="#6fc6ec"/>
      <path id="Trazado_190247" data-name="Trazado 190247" d="M118.392,460.53a4.136,4.136,0,1,1,2.258-5.395A4.136,4.136,0,0,1,118.392,460.53Z" transform="translate(-73.319 -404.896)" fill="#6fc6ec"/>
      <path id="Trazado_190248" data-name="Trazado 190248" d="M111.876,458.436a2.448,2.448,0,1,1,1.338-3.2A2.447,2.447,0,0,1,111.876,458.436Z" transform="translate(-80.226 -402.995)" fill="#6fc6ec"/>
    </g>
    <path id="Trazado_190249" data-name="Trazado 190249" d="M122.991,448.243c1.831-.077,4.057.273,5.943.273.861,0,1.751-.127,2.6-.177.54-.032,1.637-.212,1.953.39.344.662-.737.9-1.163.991-.617.132-1.892.048-2.009.874-.17,1.2,2.075,1.518,2.949,1.9.811.355,2.962,1.113,1.553,1.905-.951.535-2.949-.684-3.757-1.012a12.4,12.4,0,0,1,2.941,1.227c.548.315,1.632.752,1.632,1.372,0,.906-2.008.363-2.5.148A8.877,8.877,0,0,1,130.9,454.9c.843.448,3.937,1.759,2.925,2.832-.62.657-3.039-1.187-4-1.579.53.49,2.12.747,1.99,1.781-.066.519-.964.106-1.4-.13-.607-.331-1.15-.811-1.759-1.1a8.926,8.926,0,0,1-1.314-.877c-1.094-.779-2.088-.964-3.034-1.979a34.373,34.373,0,0,0-2.634-2.692C123.436,450.5,121.64,449.189,122.991,448.243Z" transform="translate(-4640.32 -8983.878)" fill="#ff9d8a"/>
    <path id="Trazado_190250" data-name="Trazado 190250" d="M140.725,471.342l-2.6,6s-26.793-8.693-25.537-15.728c1.1-6.176,16.7-26.87,20.09-27.612,4.565-1,6.394,9.881,3.773,12.517-5.53,5.561-13.418,13.383-12.769,14.642S140.725,471.342,140.725,471.342Z" transform="translate(-4655.375 -9007.462)" fill="#fff"/>
    <path id="Trazado_190251" data-name="Trazado 190251" d="M155.538,446.776c1.433-1.664.782-4.412-.291-5.967-.866-1.256-2.379-1.028-4.61-.771-1.508.172-2.915.4-3.283.882-.933,2.027,4.022,1.057,5.334,1.092,0,0-5.363.4-5.62,1.412-.432,1.884,4.38.824,5.623.771a8.17,8.17,0,0,0-3.6.615c-.93.2-.6.877-.461,1.028.713.768,4.663-.05,4.663-.05-.7.146-3.394.135-2.634,1.16.493.665,1.622.477,2.247.5A3.934,3.934,0,0,0,155.538,446.776Z" transform="translate(-4598.475 -8997.727)" fill="#ff9d8a"/>
  </g>
</svg>
