<svg xmlns="http://www.w3.org/2000/svg" xmlns:xlink="http://www.w3.org/1999/xlink" width="295" height="195.367" viewBox="0 0 295 195.367">
  <defs>
    <linearGradient id="linear-gradient" x1="0.994" y1="0.696" x2="0.026" y2="0.726" gradientUnits="objectBoundingBox">
      <stop offset="0" stop-color="#9eb7e5"/>
      <stop offset="1" stop-color="#e7f9fa"/>
    </linearGradient>
    <clipPath id="clip-path">
      <rect id="Rectángulo_3494" data-name="Rectángulo 3494" width="193.5" height="195.367" transform="translate(18)" fill="none"/>
    </clipPath>
  </defs>
  <g id="Grupo_148084" data-name="Grupo 148084" transform="translate(-5723 8922)">
    <g id="Grupo_147197" data-name="Grupo 147197">
      <g id="Grupo_147177" data-name="Grupo 147177" transform="translate(5723 -8887.547)">
        <path id="Rectángulo_5183" data-name="Rectángulo 5183" d="M0,0H164A131,131,0,0,1,295,131v30a0,0,0,0,1,0,0H0a0,0,0,0,1,0,0V0A0,0,0,0,1,0,0Z" transform="translate(0 -0.185)" fill="url(#linear-gradient)"/>
      </g>
      <g id="Grupo_147189" data-name="Grupo 147189" transform="translate(5759.245 -7941.603)" style="isolation: isolate">
        <g id="Grupo_11377" data-name="Grupo 11377" transform="translate(-3.245 -980.397)">
          <g id="Grupo_11376" data-name="Grupo 11376" clip-path="url(#clip-path)">
            <path id="Trazado_37592" data-name="Trazado 37592" d="M145.387-857.958l-3.016.581-3.018-.562-3.019-.175-3.011-.529-3.015.812-3.019-.708-3.014,1.726-3.012-2.054-3.014,2.22-3.019-.473-3.018-.645-3.015-.722-3.017,1.09-3.021-1.822-3.017,1.3-3.021.749-3.019-.8-3.022,1.148-3.02-1.53-3.022.437-3.022.039-3.017-.5-3.021,1.7-3.024-1-3.025-1.481-3.025.042-3.03,1.346-3.03-1.439-3,.073-3.192.522L52.166-861l-3.2-.2-3.488-.287L44.36-865.4l-2.749-1.567-2.463-2.085-.464-3.537-1.644-2.643-.987-2.98-.413-3.118L33.572-884.3l.118-3.317,1.324-3.114L33.65-894.22l.8-3.094,1.969-2.828-.044-3.267.827-3.068-.256-3.363,2.38-2.626,1.039-2.986.954-3.006-.431-3.5,2.86-2.3,1.124-2.924.811-3.059-.224-3.568.873-3.11,3.135-1.912,1.816-2.545-.021-3.672,1.448-2.823,1.392-2.888,2.787-1.815,2.5-1.934.449-3.809,3.789-.574,1.432-2.973,1.854-2.619L69-966.925l3.469-.3,2.078-2.513,2.374-2.176,3.624.76,2.5-1.926,2.726-1.475,2.98-.606,2.83-1.586,3.119.281,3.113,1.347,2.973-.993,3.105-1.585,2.946,1.91,2.961.7,3.145-.382,2.561,2.4,2.9.686,2.76,1.165,3.538-.649,1.826,3.308,2.73,1.271,2.945,1.012,2.329,2.033,2.41,1.907,3.412.78,2.249,2.238,1.594,2.874,1.213,3.132,2.835,1.7,1.682,2.7.832,3.283,3.043,1.742.422,3.482,1.871,2.556,2.292,2.358.038,3.564,1.336,2.862,2.058,2.541-.019,3.472,2.957,2.217-.208,3.507,1.525,2.828.39,3.237,1.99,2.7-.291,3.436,1.987,2.735-.368,3.422L171.008-896l1.407,2.935-.674,3.4-.547,3.156,1.393,3.229-.852,3.124-1.254,2.93-.7,3.131-2.72,1.993-1.4,2.692-1.7,2.543-2.113,2.183-2.767,1.227-2.014,2.578-2.488,2.118-3.086.513-3.122-.274Z" transform="translate(9.421 980.851)" fill="#452235"/>
            <rect id="Rectángulo_3484" data-name="Rectángulo 3484" width="70.343" height="115.741" transform="translate(75.169 281.667)" fill="#c2b1bb"/>
            <g id="Grupo_11302" data-name="Grupo 11302" transform="translate(108.733 554.479)">
              <path id="Trazado_37593" data-name="Trazado 37593" d="M113.307-486.518H89.868V-505.57h18.188Z" transform="translate(-89.868 505.57)" fill="#452235"/>
            </g>
            <g id="Grupo_11303" data-name="Grupo 11303" transform="translate(108.624 555.786)">
              <path id="Trazado_37594" data-name="Trazado 37594" d="M104.739-504.451h0A14.965,14.965,0,0,1,119.7-489.486v2.78H89.775v-2.78A14.964,14.964,0,0,1,104.739-504.451Z" transform="translate(-89.775 504.451)" fill="#452235"/>
            </g>
            <g id="Grupo_11304" data-name="Grupo 11304" transform="translate(44.198 554.479)">
              <path id="Trazado_37595" data-name="Trazado 37595" d="M54.337-486.518H34.6l4.889-19.052H57.68Z" transform="translate(-34.604 505.57)" fill="#452235"/>
            </g>
            <g id="Grupo_11305" data-name="Grupo 11305" transform="translate(31.795 555.786)">
              <path id="Trazado_37596" data-name="Trazado 37596" d="M38.947-504.451h0A14.964,14.964,0,0,1,53.91-489.486v2.78H23.982v-2.78A14.965,14.965,0,0,1,38.947-504.451Z" transform="translate(-23.982 504.451)" fill="#452235"/>
            </g>
            <g id="Grupo_11306" data-name="Grupo 11306" transform="translate(108.734 529.776)">
              <path id="Trazado_37597" data-name="Trazado 37597" d="M89.869-526.725v24.7h18.187l5.767-24.7Z" transform="translate(-89.869 526.725)" fill="#cc715e"/>
            </g>
            <g id="Grupo_11307" data-name="Grupo 11307" transform="translate(49.087 529.776)">
              <path id="Trazado_37598" data-name="Trazado 37598" d="M38.791-526.725v24.7H56.978l5.767-24.7Z" transform="translate(-38.791 526.725)" fill="#cc715e"/>
            </g>
            <g id="Grupo_11308" data-name="Grupo 11308" transform="translate(108.624 309.268)">
              <path id="Trazado_37599" data-name="Trazado 37599" d="M89.775-478.692,91.12-715.556H147.5a300.815,300.815,0,0,1-1.489,50.6L118.207-478.692Z" transform="translate(-89.775 715.556)" fill="#664f5a"/>
            </g>
            <g id="Grupo_11309" data-name="Grupo 11309" transform="translate(49.088 309.268)">
              <path id="Trazado_37600" data-name="Trazado 37600" d="M45.66-715.556h62.288L67.163-478.692H38.791V-650.345A408.933,408.933,0,0,1,45.66-715.556Z" transform="translate(-38.791 715.556)" fill="#664f5a"/>
            </g>
            <g id="Grupo_11310" data-name="Grupo 11310" transform="translate(77.915 309.268)">
              <rect id="Rectángulo_3485" data-name="Rectángulo 3485" width="68.596" height="46.224" fill="#664f5a"/>
            </g>
            <g id="Grupo_11311" data-name="Grupo 11311" transform="translate(97.319 354.772)">
              <path id="Trazado_37601" data-name="Trazado 37601" d="M80.094-676.589h26.042l-13.5,8.822Z" transform="translate(-80.094 676.589)" fill="#452235"/>
            </g>
            <g id="Grupo_11312" data-name="Grupo 11312" transform="translate(103.314 309.269)">
              <rect id="Rectángulo_3486" data-name="Rectángulo 3486" width="2.242" height="46.224" fill="#452235"/>
            </g>
            <g id="Grupo_11313" data-name="Grupo 11313" transform="translate(59.537 359.938)">
              <rect id="Rectángulo_3487" data-name="Rectángulo 3487" width="160.613" height="2.242" transform="matrix(0.071, -0.997, 0.997, 0.071, 0, 160.203)" fill="#452235"/>
            </g>
            <g id="Grupo_11314" data-name="Grupo 11314" transform="translate(125.147 359.912)">
              <rect id="Rectángulo_3488" data-name="Rectángulo 3488" width="160.932" height="2.242" transform="translate(0 160.203) rotate(-84.547)" fill="#452235"/>
            </g>
            <g id="Grupo_11315" data-name="Grupo 11315" transform="translate(142.32 311.959)">
              <path id="Trazado_37602" data-name="Trazado 37602" d="M140.98-697.319v-2.242a21.75,21.75,0,0,1-20.27-13.691l-2.08.837A23.982,23.982,0,0,0,140.98-697.319Z" transform="translate(-118.63 713.252)" fill="#452235"/>
            </g>
            <g id="Grupo_11316" data-name="Grupo 11316" transform="translate(56.897 311.959)">
              <path id="Trazado_37603" data-name="Trazado 37603" d="M45.478-697.319a23.983,23.983,0,0,0,22.35-15.1l-2.08-.837a21.75,21.75,0,0,1-20.27,13.691Z" transform="translate(-45.478 713.252)" fill="#452235"/>
            </g>
            <g id="Grupo_11317" data-name="Grupo 11317" transform="translate(98.007 337.295)">
              <rect id="Rectángulo_3489" data-name="Rectángulo 3489" width="24.824" height="2.242" fill="#452235"/>
            </g>
            <g id="Grupo_11318" data-name="Grupo 11318" transform="translate(97.895 326.602)">
              <rect id="Rectángulo_3490" data-name="Rectángulo 3490" width="2.242" height="24.947" transform="matrix(0.099, -0.995, 0.995, 0.099, 0, 2.231)" fill="#452235"/>
            </g>
            <g id="Grupo_11319" data-name="Grupo 11319" transform="translate(33.62 126.792)">
              <path id="Trazado_37604" data-name="Trazado 37604" d="M35.979-756.33h0a14.676,14.676,0,0,1-9.8-18.3l26.8-86.758a14.678,14.678,0,0,1,18.3-9.8h0a14.679,14.679,0,0,1,9.8,18.3l-26.8,86.758A14.678,14.678,0,0,1,35.979-756.33Z" transform="translate(-25.545 871.819)" fill="#f5ecf2"/>
            </g>
            <g id="Grupo_11320" data-name="Grupo 11320" transform="translate(133.74 129.897)">
              <path id="Trazado_37605" data-name="Trazado 37605" d="M169.689-791.224h0c6.344-4.526,8.06-13,3.831-18.929l-36.941-53.7c-4.23-5.929-12.8-7.064-19.146-2.536h0c-6.344,4.526-8.06,13-3.831,18.929l36.941,53.7C154.772-787.833,163.344-786.7,169.689-791.224Z" transform="translate(-111.283 869.16)" fill="#f5ecf2"/>
            </g>
            <g id="Grupo_11321" data-name="Grupo 11321" transform="translate(55.95 104.224)">
              <path id="Trazado_37606" data-name="Trazado 37606" d="M53.618-720.951c17.753-53.74.774-63.954-6.949-95.581l2.26-33.15A22.155,22.155,0,0,1,62.249-870l7.564-4.26,4.1-2.309L99.77-891.145l27.085,15.224,3.021,1.694,7.526,4.237a22.15,22.15,0,0,1,13.345,20.319l2.382,35.127c-8.116,21.461-17.263,38.76-4.15,88.645a205.216,205.216,0,0,1,6.09,39.8H44.667A279.471,279.471,0,0,1,53.618-720.951Z" transform="translate(-44.667 891.145)" fill="#b4affe"/>
            </g>
            <path id="Trazado_37607" data-name="Trazado 37607" d="M126.363-872.63c0,12.044-13.493,21.818-30.129,21.818s-30.117-9.774-30.117-21.818a12.029,12.029,0,0,1,.1-1.633l4.1-2.309,25.856-14.574,27.085,15.224,3.021,1.694A13.919,13.919,0,0,1,126.363-872.63Z" transform="translate(14.881 995.369)" fill="#cc715e"/>
            <g id="Grupo_11322" data-name="Grupo 11322" transform="translate(55.957 294.111)">
              <path id="Trazado_37608" data-name="Trazado 37608" d="M44.673-713.379c.967-5.01,2.067-10.079,3.313-15.157H153.673c.642,5.093,1.1,10.161,1.4,15.157Z" transform="translate(-44.673 728.536)" fill="#452235"/>
            </g>
            <path id="Trazado_37609" data-name="Trazado 37609" d="M115.56-877.82l-3.572-2.013v287.482h34.758l-4.912-229H141.5l-2.051-30.216a22.13,22.13,0,0,0-13.345-20.319Z" transform="translate(22.576 997.267)" fill="#f5ecf2"/>
            <path id="Trazado_37610" data-name="Trazado 37610" d="M111.988-874.154l15.15,19.264-11.1,11.148,15.106,16.059-19.156,45.1v6.053l21.974-51.751-14.491-15.4,10.938-10.989-18.421-23.414Z" transform="translate(22.576 997.56)" fill="#c2b1bb"/>
            <path id="Trazado_37611" data-name="Trazado 37611" d="M35.856-592.363H77.649v-287.4l-2.258,1.276-11.663,6.569A22.154,22.154,0,0,0,50.4-851.594l-2.062,30.227h-.2Z" transform="translate(9.804 997.279)" fill="#f5ecf2"/>
            <path id="Trazado_37612" data-name="Trazado 37612" d="M74.8-874.154l-15.15,19.264,11.1,11.148L55.646-827.683l19.156,45.1v6.053L52.828-828.285l14.491-15.4L56.381-854.669,74.8-878.083Z" transform="translate(12.652 997.56)" fill="#c2b1bb"/>
            <path id="Trazado_37613" data-name="Trazado 37613" d="M68.573-778.991,42.9-762.626l.563-10.5Z" transform="translate(10.987 1014.183)" fill="#452235"/>
            <g id="Grupo_11323" data-name="Grupo 11323" transform="translate(95.235 79.399)">
              <path id="Trazado_37614" data-name="Trazado 37614" d="M80.238-874.428l13.6,9.627,13.691-9.627a6.986,6.986,0,0,0,1.928-4.956V-912.4H78.309v33.021A6.982,6.982,0,0,0,80.238-874.428Z" transform="translate(-78.309 912.404)" fill="#cc715e"/>
            </g>
            <g id="Grupo_11324" data-name="Grupo 11324" transform="translate(33.62 195.367)">
              <path id="Trazado_37615" data-name="Trazado 37615" d="M97.56-798.886l-9.1-14.209L34.444-794.422a15.1,15.1,0,0,0-7.134,20.847h0a15.1,15.1,0,0,0,20.418,6.261Z" transform="translate(-25.545 813.095)" fill="#f5ecf2"/>
            </g>
            <g id="Grupo_11326" data-name="Grupo 11326" transform="translate(152.415 288.694)">
              <g id="Grupo_11325" data-name="Grupo 11325">
                <path id="Trazado_37616" data-name="Trazado 37616" d="M141.739-730.82H127.275v-2.355h14.414Z" transform="translate(-127.275 733.175)" fill="#c2b1bb"/>
              </g>
            </g>
            <g id="Grupo_11328" data-name="Grupo 11328" transform="translate(51.771 288.694)">
              <g id="Grupo_11327" data-name="Grupo 11327">
                <path id="Trazado_37617" data-name="Trazado 37617" d="M55.54-730.82H41.089l.126-2.355H55.54Z" transform="translate(-41.089 733.175)" fill="#c2b1bb"/>
              </g>
            </g>
            <g id="Grupo_11329" data-name="Grupo 11329" transform="translate(95.238 93.633)">
              <path id="Trazado_37618" data-name="Trazado 37618" d="M78.312-900.028S89.4-883.3,93.931-883.3s15.526-16.917,15.526-16.917Z" transform="translate(-78.312 900.215)" fill="#452235"/>
            </g>
            <g id="Grupo_11332" data-name="Grupo 11332" transform="translate(73.334 10.657)">
              <g id="Grupo_11331" data-name="Grupo 11331">
                <g id="Grupo_11330" data-name="Grupo 11330">
                  <path id="Trazado_37619" data-name="Trazado 37619" d="M59.554-933.62A37.65,37.65,0,0,0,97.2-895.97a37.65,37.65,0,0,0,37.651-37.651,37.265,37.265,0,0,0-.259-4.419c-.086-.753-.2-1.506-.334-2.247a36.629,36.629,0,0,0-2.074-7.246c-.3-.766-.617-1.506-.975-2.235a37.63,37.63,0,0,0-34.008-21.5,37.411,37.411,0,0,0-9.765,1.284c-.729.185-1.445.408-2.147.654a34.708,34.708,0,0,0-4.938,2.049c-.753.357-1.481.765-2.2,1.185A37.622,37.622,0,0,0,59.554-933.62Z" transform="translate(-59.554 971.271)" fill="#452235"/>
                </g>
              </g>
            </g>
            <g id="Grupo_11335" data-name="Grupo 11335" transform="translate(85.217 15.573)">
              <g id="Grupo_11334" data-name="Grupo 11334">
                <g id="Grupo_11333" data-name="Grupo 11333">
                  <path id="Trazado_37620" data-name="Trazado 37620" d="M88.016-883.389a12.247,12.247,0,0,0,14.331,0s18.286-8.34,18.286-21.141v-36.6c0-15.684-11.395-25.929-25.451-25.929h0c-14.056,0-25.451,10.245-25.451,25.929v37.837C69.73-892.63,88.016-883.389,88.016-883.389Z" transform="translate(-69.73 967.061)" fill="#cc715e"/>
                </g>
              </g>
            </g>
            <g id="Grupo_11336" data-name="Grupo 11336" transform="translate(101.562 79.315)">
              <path id="Trazado_37621" data-name="Trazado 37621" d="M103.622-912.476a9.948,9.948,0,0,1-9.948,9.947,9.947,9.947,0,0,1-9.947-9.947Z" transform="translate(-83.727 912.476)" fill="#fff"/>
            </g>
            <g id="Grupo_11339" data-name="Grupo 11339" transform="translate(82.264 24.322)">
              <g id="Grupo_11338" data-name="Grupo 11338">
                <g id="Grupo_11337" data-name="Grupo 11337">
                  <path id="Trazado_37622" data-name="Trazado 37622" d="M67.2-933.338h0a11.315,11.315,0,0,0,11.315-11.316v-14.916h0A11.315,11.315,0,0,0,67.2-948.254Z" transform="translate(-67.201 959.569)" fill="#452235"/>
                </g>
              </g>
            </g>
            <g id="Grupo_11342" data-name="Grupo 11342" transform="translate(129.325 25.31)">
              <g id="Grupo_11341" data-name="Grupo 11341">
                <g id="Grupo_11340" data-name="Grupo 11340">
                  <path id="Trazado_37623" data-name="Trazado 37623" d="M118.818-932.492h0A11.315,11.315,0,0,1,107.5-943.807v-14.916h0a11.315,11.315,0,0,1,11.316,11.316Z" transform="translate(-107.502 958.723)" fill="#452235"/>
                </g>
              </g>
            </g>
            <path id="Trazado_37624" data-name="Trazado 37624" d="M130.53-942.15c-.095.253-.692.341-.812.582s.325.759.182.99-.809.266-.976.486-1.064.109-1.253.316.367.832.153,1.028-1.55-.211-1.784-.027.4.9.144,1.074-1.366-.18-1.645-.021-1.445-.3-1.743-.159.008.7-.311.83.509,1.16.172,1.275-2.594-1.355-2.95-1.253.764,1.488.39,1.573-1.811-.847-2.2-.775-.287.615-.691.672-1.561-.772-1.979-.731-.167.833-.6.856-1.414-.744-1.857-.736-.569.393-1.022.386-1.029-.309-1.492-.332-.851-.034-1.324-.072-.2,1.517-.678,1.463-.953.055-1.439-.015-1.447-1.666-1.937-1.752-.737.833-1.231.732S102.5-937.264,102-937.38s-.885.976-1.384.845-.938-1.293-1.435-1.436-1.1.8-1.6.645-.739-1.355-1.233-1.526-.931-.276-1.421-.461-.966-.245-1.445-.44-1-.243-1.469-.45-.663-.738-1.129-.956-1.69.5-2.146.271-.312-1.068-.759-1.308-1.093-.283-1.527-.532-.62-.655-1.043-.914-1.175-.3-1.583-.564-1.093-.4-1.488-.677.2-.973-.18-1.255-.969-.445-1.331-.733-2.339-.09-2.683-.384-.325-.731-.652-1.03.27-.8-.037-1.1-.558-.606-.845-.912.026-.66-.242-.969-1.434-.534-1.68-.844-1.026-.613-1.249-.925-.663-.647-.864-.959.75-.594.571-.905.713-.524.559-.834-1.879-.753-2.009-1.059.83-.464.725-.768-2.606-1-2.687-1.3,1.223-.363,1.167-.659-.849-.767-.879-1.057,2.588.086,2.583-.2-.576-.681-.556-.958-1.13-.893-1.085-1.163-.974-.909-.9-1.17.585-.385.68-.639,1.205-.112,1.324-.353.359-.424.5-.655-.482-.813-.316-1.033,1.077-.083,1.266-.291,1.408.144,1.622-.054-1.842-1.649-1.606-1.833.026-.68.283-.851,2.939,1.182,3.218,1.024-1.581-1.766-1.281-1.91.736-.242,1.054-.371,2.708,1.333,3.047,1.218-1.437-1.975-1.081-2.076,1.935.849,2.307.764-.333-1.227.056-1.3,2.346,1.452,2.75,1.4-.506-1.575-.088-1.615,1.51.694,1.941.669,1.617,1,2.061.989-.267-1.693.186-1.686,1.6,1.125,2.059,1.148,1.03.313,1.5.352.3-1.324.78-1.271.949-.08,1.435-.01,1.066.226,1.557.312,1.066.265,1.561.365,1.191,1.571,1.687,1.686.916-1.126,1.414-.995.986,1.279,1.483,1.423,1.077-.357,1.572-.2.966.547,1.46.718.676,1.2,1.167,1.387,1.379-.6,1.859-.41.756.8,1.228,1,.778.635,1.242.854.642.713,1.1.942,1.767-.412,2.213-.172.161,1.107.6,1.357.9.44,1.321.7,1.791-.049,2.2.218.884.557,1.278.833.45.74.828,1.023.274.753.636,1.042,1.387.383,1.733.677.392.684.719.983-.847.883-.539,1.186,1.934.369,2.221.675,1.511.527,1.778.835-.758.73-.513,1.041.311.614.535.925-.127.6.075.91.763.606.94.917.4.6.55.913,1.8.768,1.933,1.075-.607.516-.5.82,1.726.872,1.807,1.172-.243.564-.188.859-1.741.194-1.711.483.736.736.74,1.019.227.631.206.907.341.682.3.95-1.126.2-1.2.458S130.626-942.4,130.53-942.15Z" transform="translate(15.487 981.693)" fill="#452235"/>
            <g id="Grupo_11345" data-name="Grupo 11345" transform="translate(136.119 57.325)">
              <g id="Grupo_11344" data-name="Grupo 11344">
                <g id="Grupo_11343" data-name="Grupo 11343">
                  <path id="Trazado_37625" data-name="Trazado 37625" d="M115.57-931.307a4.617,4.617,0,0,1,4.616,4.617v8.951a4.617,4.617,0,0,1-4.616,4.617h-2.25v-17.6A4.592,4.592,0,0,1,115.57-931.307Z" transform="translate(-113.32 931.307)" fill="#cc715e"/>
                </g>
              </g>
            </g>
            <g id="Grupo_11348" data-name="Grupo 11348" transform="translate(78.35 57.325)">
              <g id="Grupo_11347" data-name="Grupo 11347">
                <g id="Grupo_11346" data-name="Grupo 11346">
                  <path id="Trazado_37626" data-name="Trazado 37626" d="M68.466-931.307a4.617,4.617,0,0,0-4.616,4.617v8.951a4.617,4.617,0,0,0,4.616,4.617h2.25v-17.6A4.6,4.6,0,0,0,68.466-931.307Z" transform="translate(-63.85 931.307)" fill="#cc715e"/>
                </g>
              </g>
            </g>
            <g id="Grupo_11351" data-name="Grupo 11351" transform="translate(109.325 67.602)">
              <g id="Grupo_11350" data-name="Grupo 11350">
                <g id="Grupo_11349" data-name="Grupo 11349">
                  <path id="Trazado_37627" data-name="Trazado 37627" d="M90.375-915.568h1.912a2.51,2.51,0,0,0,2.509-2.509v-4.428H92.554v3.472a1.223,1.223,0,0,1-1.223,1.223h-.956Z" transform="translate(-90.375 922.506)" fill="#452235"/>
                </g>
              </g>
            </g>
            <g id="Grupo_11354" data-name="Grupo 11354" transform="translate(119.518 59.093)">
              <g id="Grupo_11353" data-name="Grupo 11353">
                <g id="Grupo_11352" data-name="Grupo 11352">
                  <circle id="Elipse_842" data-name="Elipse 842" cx="2.989" cy="2.989" r="2.989" fill="#452235"/>
                </g>
              </g>
            </g>
            <g id="Grupo_11357" data-name="Grupo 11357" transform="translate(96.337 59.093)">
              <g id="Grupo_11356" data-name="Grupo 11356">
                <g id="Grupo_11355" data-name="Grupo 11355">
                  <path id="Trazado_37628" data-name="Trazado 37628" d="M79.253-926.8a2.989,2.989,0,0,0,2.989,2.99,2.99,2.99,0,0,0,2.989-2.99,2.99,2.99,0,0,0-2.989-2.99A2.989,2.989,0,0,0,79.253-926.8Z" transform="translate(-79.253 929.793)" fill="#452235"/>
                </g>
              </g>
            </g>
            <g id="Grupo_11360" data-name="Grupo 11360" transform="translate(119.518 57.839)">
              <g id="Grupo_11359" data-name="Grupo 11359">
                <g id="Grupo_11358" data-name="Grupo 11358">
                  <path id="Trazado_37629" data-name="Trazado 37629" d="M107.591-926.623a4.244,4.244,0,0,0-4.244-4.244,4.244,4.244,0,0,0-4.244,4.244Z" transform="translate(-99.104 930.867)" fill="#452235"/>
                </g>
              </g>
            </g>
            <g id="Grupo_11363" data-name="Grupo 11363" transform="translate(93.579 57.839)">
              <g id="Grupo_11362" data-name="Grupo 11362">
                <g id="Grupo_11361" data-name="Grupo 11361">
                  <path id="Trazado_37630" data-name="Trazado 37630" d="M76.891-926.623a4.244,4.244,0,0,1,4.244-4.244,4.244,4.244,0,0,1,4.244,4.244Z" transform="translate(-76.891 930.867)" fill="#452235"/>
                </g>
              </g>
            </g>
            <g id="Grupo_11364" data-name="Grupo 11364" transform="translate(90.705 50.031)">
              <path id="Trazado_37631" data-name="Trazado 37631" d="M74.43-935.429l14.235,2.444h0a4.338,4.338,0,0,0-4.126-4.527l-5.937-.041C76.307-937.569,74.43-935.429,74.43-935.429Z" transform="translate(-74.43 937.553)" fill="#452235"/>
            </g>
            <g id="Grupo_11365" data-name="Grupo 11365" transform="translate(117.915 50.031)">
              <path id="Trazado_37632" data-name="Trazado 37632" d="M111.966-935.429l-14.235,2.444h0a4.338,4.338,0,0,1,4.126-4.527l5.937-.041C110.089-937.569,111.966-935.429,111.966-935.429Z" transform="translate(-97.731 937.553)" fill="#452235"/>
            </g>
            <path id="Trazado_37633" data-name="Trazado 37633" d="M117.5-900.41a5.487,5.487,0,0,1-1.9,4.238c-4.6,3.791-16.261,13.031-20.624,13.031s-16.4-9.249-21.147-13.037a5.471,5.471,0,0,1-1.961-4.283v-24.246s15.017,6.364,22.817,6.364,22.818-6.364,22.818-6.364Z" transform="translate(15.845 989.739)" fill="#f5ecf2"/>
            <g id="Grupo_11366" data-name="Grupo 11366" transform="translate(82.841 54.268)">
              <path id="Trazado_37634" data-name="Trazado 37634" d="M74.288-917.378a1.22,1.22,0,0,1-1.139-.786l-5.374-14.109a1.22,1.22,0,0,1,.705-1.573,1.222,1.222,0,0,1,1.573.705l5.373,14.109a1.218,1.218,0,0,1-.7,1.573A1.205,1.205,0,0,1,74.288-917.378Z" transform="translate(-67.696 933.925)" fill="#f5ecf2"/>
            </g>
            <g id="Grupo_11367" data-name="Grupo 11367" transform="translate(82.841 73.671)">
              <path id="Trazado_37635" data-name="Trazado 37635" d="M74.288-901.992a1.221,1.221,0,0,1-1.125-.75l-5.373-12.88a1.217,1.217,0,0,1,.655-1.594,1.218,1.218,0,0,1,1.593.655l5.374,12.88a1.218,1.218,0,0,1-.655,1.594A1.209,1.209,0,0,1,74.288-901.992Z" transform="translate(-67.696 917.31)" fill="#f5ecf2"/>
            </g>
            <g id="Grupo_11368" data-name="Grupo 11368" transform="translate(130.941 54.267)">
              <path id="Trazado_37636" data-name="Trazado 37636" d="M110.105-917.378a1.2,1.2,0,0,1-.433-.081,1.218,1.218,0,0,1-.705-1.573l5.373-14.109a1.221,1.221,0,0,1,1.573-.705,1.22,1.22,0,0,1,.705,1.573l-5.374,14.109A1.22,1.22,0,0,1,110.105-917.378Z" transform="translate(-108.886 933.926)" fill="#f5ecf2"/>
            </g>
            <g id="Grupo_11369" data-name="Grupo 11369" transform="translate(130.941 73.671)">
              <path id="Trazado_37637" data-name="Trazado 37637" d="M110.105-901.992a1.213,1.213,0,0,1-.469-.095,1.218,1.218,0,0,1-.655-1.594l5.374-12.88a1.218,1.218,0,0,1,1.593-.655,1.217,1.217,0,0,1,.655,1.594l-5.373,12.88A1.22,1.22,0,0,1,110.105-901.992Z" transform="translate(-108.886 917.31)" fill="#f5ecf2"/>
            </g>
            <g id="Grupo_11372" data-name="Grupo 11372" transform="translate(101.646 182.739)">
              <g id="Grupo_11370" data-name="Grupo 11370" transform="translate(2.053 2.146)">
                <path id="Trazado_37638" data-name="Trazado 37638" d="M95.407-822.071v54.349a4.925,4.925,0,0,1-4.924,4.926,4.925,4.925,0,0,1-4.926-4.926v-54.349Z" transform="translate(-85.557 822.071)" fill="#fff"/>
              </g>
              <g id="Grupo_11371" data-name="Grupo 11371">
                <path id="Trazado_37639" data-name="Trazado 37639" d="M97.755-822.523v.583a1.377,1.377,0,0,1-1.377,1.377H85.185A1.385,1.385,0,0,1,83.8-821.94v-.583a1.393,1.393,0,0,1,1.386-1.386H96.378A1.385,1.385,0,0,1,97.755-822.523Z" transform="translate(-83.799 823.909)" fill="#fff"/>
              </g>
            </g>
            <g id="Grupo_11373" data-name="Grupo 11373" transform="translate(83.325 192.074)">
              <path id="Trazado_37640" data-name="Trazado 37640" d="M100.1-808.489l-.3-7.426-24.766.7a7.129,7.129,0,0,0-6.922,7.412l.311,7.749a5.586,5.586,0,0,0,5.738,5.36l13.408-.38A12.9,12.9,0,0,0,100.1-808.489Z" transform="translate(-68.11 815.915)" fill="#cc715e"/>
            </g>
            <path id="Rectángulo_3491" data-name="Rectángulo 3491" d="M0,0H4.193a0,0,0,0,1,0,0V23.418a1.539,1.539,0,0,1-1.539,1.539H1.539A1.539,1.539,0,0,1,0,23.418V0A0,0,0,0,1,0,0Z" transform="translate(119.485 154.888) rotate(27.405)" fill="#fff"/>
            <rect id="Rectángulo_3492" data-name="Rectángulo 3492" width="7.207" height="1.586" rx="0.401" transform="translate(118.876 152.786) rotate(27.399)" fill="#452235"/>
            <path id="Rectángulo_3493" data-name="Rectángulo 3493" d="M1.635,0h.923A1.635,1.635,0,0,1,4.193,1.635V12.608a0,0,0,0,1,0,0H0a0,0,0,0,1,0,0V1.635A1.635,1.635,0,0,1,1.635,0Z" transform="translate(126.017 142.286) rotate(27.405)" fill="#452235"/>
            <g id="Grupo_11374" data-name="Grupo 11374" transform="translate(120.214 129.898)">
              <path id="Trazado_37641" data-name="Trazado 37641" d="M100.569-862.029l2.754-7.13,23.184,9.082a7.13,7.13,0,0,1,4.05,9.205l-4.823,12.493L107.9-845.366A12.9,12.9,0,0,1,100.569-862.029Z" transform="translate(-99.7 869.159)" fill="#cc715e"/>
            </g>
            <g id="Grupo_11375" data-name="Grupo 11375" transform="translate(140.193 146.039)">
              <path id="Trazado_37642" data-name="Trazado 37642" d="M127.876-855.337,116.809-842.6l33.138,46.558a15.1,15.1,0,0,0,22.012.97h0a15.1,15.1,0,0,0,.253-21.355Z" transform="translate(-116.809 855.337)" fill="#f5ecf2"/>
            </g>
          </g>
        </g>
      </g>
    </g>
  </g>
</svg>
