<svg xmlns="http://www.w3.org/2000/svg" width="63.001" height="68.324" viewBox="0 0 63.001 68.324">
  <g id="Grupo_148088" data-name="Grupo 148088" transform="translate(-284.999 -3878.676)">
    <g id="Grupo_147524" data-name="Grupo 147524" transform="translate(0 118)">
      <g id="Grupo_147514" data-name="Grupo 147514" transform="translate(0 -24)">
        <circle id="Elipse_5498" data-name="Elipse 5498" cx="31.5" cy="31.5" r="31.5" transform="translate(285 3790)" fill="#e7edf9"/>
        <g id="rio" transform="translate(284.948 3784.676)">
          <path id="Trazado_191267" data-name="Trazado 191267" d="M64.691,31.5c0,.412-.007.823-.025,1.232A41.907,41.907,0,0,1,4.243,30.307L1.921,27.684A31.505,31.505,0,0,1,60.547,15.873,31.39,31.39,0,0,1,64.69,31.19c0,.1,0,.207,0,.31Z" transform="translate(-1.64 0)" fill="#9eb7e5"/>
          <g id="Grupo_147453" data-name="Grupo 147453" transform="translate(0.281 15.873)">
            <path id="Trazado_191268" data-name="Trazado 191268" d="M64.691,144.627c0,.412-.007.823-.025,1.232a41.907,41.907,0,0,1-60.424-2.425l-2.322-2.622A31.282,31.282,0,0,1,5.835,129a31.509,31.509,0,0,0,54.712,0A31.351,31.351,0,0,1,64.691,144.627Z" transform="translate(-1.921 -129)" fill="#9eb7e5"/>
          </g>
          <g id="Grupo_147455" data-name="Grupo 147455" transform="translate(38.558 16.144)">
            <path id="Trazado_191269" data-name="Trazado 191269" d="M332.757,203.439h-1.35l.072-2.263.089-2.78H332.6l.089,2.78Z" transform="translate(-329.142 -190.127)" fill="#9eb7e5"/>
            <path id="Trazado_191270" data-name="Trazado 191270" d="M337.753,203.439H337.1V198.4h.488l.089,2.78Z" transform="translate(-334.138 -190.127)" fill="#9eb7e5"/>
            <path id="Trazado_191271" data-name="Trazado 191271" d="M332.719,200.754V198.4h-.54l-.075,2.358Z" transform="translate(-329.753 -190.127)" fill="#9eb7e5"/>
            <path id="Trazado_191272" data-name="Trazado 191272" d="M337.668,200.754l-.076-2.358H337.1v2.358Z" transform="translate(-334.138 -190.127)" fill="#9eb7e5"/>
            <g id="Grupo_147454" data-name="Grupo 147454">
              <path id="Trazado_191273" data-name="Trazado 191273" d="M318.063,140.351a2.993,2.993,0,0,1-4.195,0,2.886,2.886,0,0,1-.556-3.37c.581-1.143,1.189-2.273,1.683-3.457l.971-2.326.969,2.321c.495,1.186,1.1,2.317,1.685,3.463a2.886,2.886,0,0,1-.556,3.37Z" transform="translate(-313 -131.198)" fill="#9eb7e5"/>
              <path id="Trazado_191274" data-name="Trazado 191274" d="M329.172,140.351a2.981,2.981,0,0,1-2.1.858c-.36,0-.719-.286-1-.858a5.46,5.46,0,0,1-.253-3.415c.385-1.53.727-3.107,1.043-4.7l.2-1.034.969,2.321c.495,1.186,1.1,2.317,1.685,3.463A2.886,2.886,0,0,1,329.172,140.351Z" transform="translate(-324.108 -131.198)" fill="#9eb7e5"/>
              <path id="Trazado_191275" data-name="Trazado 191275" d="M339.2,140.351a2.981,2.981,0,0,1-2.1.858V131.2l.969,2.321c.495,1.186,1.1,2.317,1.685,3.463A2.886,2.886,0,0,1,339.2,140.351Z" transform="translate(-334.138 -131.198)" fill="#9eb7e5"/>
            </g>
          </g>
          <g id="Grupo_147457" data-name="Grupo 147457" transform="translate(56.333 23.03)">
            <path id="Trazado_191276" data-name="Trazado 191276" d="M474.033,247.794H472.9l.061-1.9.075-2.333h.863l.075,2.333Z" transform="translate(-470.999 -236.622)" fill="#9eb7e5"/>
            <path id="Trazado_191277" data-name="Trazado 191277" d="M478.226,247.794h-.545v-4.232h.41l.075,2.333Z" transform="translate(-475.192 -236.622)" fill="#9eb7e5"/>
            <path id="Trazado_191278" data-name="Trazado 191278" d="M474.014,245.485v-1.923h-.453l-.062,1.923Z" transform="translate(-471.524 -236.622)" fill="#9eb7e5"/>
            <path id="Trazado_191279" data-name="Trazado 191279" d="M478.152,245.485l-.062-1.923h-.41v1.923Z" transform="translate(-475.192 -236.622)" fill="#9eb7e5"/>
            <g id="Grupo_147456" data-name="Grupo 147456">
              <path id="Trazado_191280" data-name="Trazado 191280" d="M461.7,194.845a2.512,2.512,0,0,1-3.52,0,2.422,2.422,0,0,1-.467-2.829c.488-.96,1-1.908,1.412-2.9l.815-1.952.813,1.948c.415.995.926,1.945,1.414,2.906A2.423,2.423,0,0,1,461.7,194.845Z" transform="translate(-457.452 -187.163)" fill="#9eb7e5"/>
              <path id="Trazado_191281" data-name="Trazado 191281" d="M471.025,194.845a2.5,2.5,0,0,1-1.76.72c-.3,0-.6-.24-.835-.72a4.584,4.584,0,0,1-.212-2.866c.323-1.285.61-2.608.875-3.948l.172-.868.813,1.948c.415.995.926,1.945,1.414,2.906A2.422,2.422,0,0,1,471.025,194.845Z" transform="translate(-466.776 -187.163)" fill="#9eb7e5"/>
              <path id="Trazado_191282" data-name="Trazado 191282" d="M479.442,194.846a2.5,2.5,0,0,1-1.76.72v-8.4l.813,1.948c.415.995.926,1.945,1.414,2.906A2.422,2.422,0,0,1,479.442,194.846Z" transform="translate(-475.193 -187.164)" fill="#9eb7e5"/>
            </g>
          </g>
          <g id="Grupo_147462" data-name="Grupo 147462" transform="translate(0.051 19.724)">
            <path id="Trazado_191283" data-name="Trazado 191283" d="M70.589,512H69.4Q70,512.026,70.589,512Z" transform="translate(-60.869 -468.724)" fill="#9eb7e5"/>
            <g id="Grupo_147461" data-name="Grupo 147461" transform="translate(0)">
              <path id="Trazado_191284" data-name="Trazado 191284" d="M51.65,173.3v23.023a31.37,31.37,0,0,1-20,7.245h-.1a31.356,31.356,0,0,1-12.975-2.789A10.446,10.446,0,0,0,8.13,190.337H5.886a31.168,31.168,0,0,1-2.169-3.507c-.012-.022-.023-.046-.036-.068A31.331,31.331,0,0,1,.129,174.295q-.078-1.1-.078-2.222a31.5,31.5,0,0,1,.23-3.816c5.478-3.636,12.685-7.514,17.369-7.94,2.554-.233,8.053,1.576,13.9,3.913,9.583,3.828,20.1,9.075,20.1,9.075Z" transform="translate(-0.051 -160.296)" fill="#9eb7e5"/>
              <path id="Trazado_191285" data-name="Trazado 191285" d="M276.15,201.335v23.023a31.382,31.382,0,0,1-20,7.245h-.1V192.26C265.634,196.088,276.15,201.335,276.15,201.335Z" transform="translate(-224.551 -188.327)" fill="#9eb7e5"/>
              <path id="Trazado_191286" data-name="Trazado 191286" d="M56.946,235.851v19.51a31.37,31.37,0,0,1-20,7.245h-.1a31.357,31.357,0,0,1-12.975-2.789,10.446,10.446,0,0,0-10.445-10.445H11.183a31.171,31.171,0,0,1-2.169-3.507c-.012-.022-.023-.046-.036-.068a31.229,31.229,0,0,1-2.887-7.861c8.206-5.018,17.806-9.9,22.178-10.3,1.7-.154,4.849.369,8.579,1.291a122.928,122.928,0,0,1,20.1,6.92Z" transform="translate(-5.348 -219.33)" fill="#9eb7e5"/>
              <path id="Trazado_191287" data-name="Trazado 191287" d="M276.15,245.24v19.51a31.37,31.37,0,0,1-20,7.245h-.1V238.32A122.928,122.928,0,0,1,276.15,245.24Z" transform="translate(-224.551 -228.719)" fill="#9eb7e5"/>
              <g id="Grupo_147459" data-name="Grupo 147459" transform="translate(22.283 1.523)">
                <path id="Trazado_191288" data-name="Trazado 191288" d="M209.373,275.888h-1.929l.1-3.233.127-3.972h1.469l.127,3.972Z" transform="translate(-204.208 -256.869)" fill="#9eb7e5"/>
                <path id="Trazado_191289" data-name="Trazado 191289" d="M216.512,275.888h-.928v-7.2h.7l.127,3.972Z" transform="translate(-211.346 -256.869)" fill="#9eb7e5"/>
                <path id="Trazado_191290" data-name="Trazado 191290" d="M209.309,272.1v-3.416h-.771l-.109,3.416Z" transform="translate(-205.071 -256.869)" fill="#9eb7e5"/>
                <path id="Trazado_191291" data-name="Trazado 191291" d="M216.391,272.1l-.109-3.416h-.7V272.1Z" transform="translate(-211.346 -256.869)" fill="#9eb7e5"/>
                <g id="Grupo_147458" data-name="Grupo 147458">
                  <path id="Trazado_191292" data-name="Trazado 191292" d="M188.379,185.752a4.277,4.277,0,0,1-5.993,0,4.123,4.123,0,0,1-.794-4.816c.831-1.634,1.7-3.248,2.4-4.939l1.387-3.323,1.384,3.316c.707,1.694,1.576,3.311,2.407,4.947A4.123,4.123,0,0,1,188.379,185.752Z" transform="translate(-181.145 -172.674)" fill="#9eb7e5"/>
                  <path id="Trazado_191293" data-name="Trazado 191293" d="M204.251,185.752a4.258,4.258,0,0,1-3,1.225c-.514,0-1.028-.408-1.422-1.225a7.8,7.8,0,0,1-.361-4.879c.551-2.187,1.038-4.439,1.491-6.721l.292-1.477,1.384,3.316c.707,1.694,1.576,3.311,2.407,4.947A4.123,4.123,0,0,1,204.251,185.752Z" transform="translate(-197.017 -172.674)" fill="#9eb7e5"/>
                  <path id="Trazado_191294" data-name="Trazado 191294" d="M218.581,185.751a4.259,4.259,0,0,1-3,1.225v-14.3l1.384,3.316c.707,1.694,1.576,3.311,2.407,4.947A4.124,4.124,0,0,1,218.581,185.751Z" transform="translate(-211.346 -172.673)" fill="#9eb7e5"/>
                </g>
              </g>
              <path id="Trazado_191295" data-name="Trazado 191295" d="M88.9,266.01a31.5,31.5,0,0,1-31.378,30.268h-.1a31.356,31.356,0,0,1-12.975-2.79A10.446,10.446,0,0,0,34,283.043H31.756a31.163,31.163,0,0,1-2.169-3.507c-.012-.022-.023-.046-.036-.068,9.681-2.426,18.48-6.394,27.253-9.393l.618-.21c6.583-2.217,13.162-3.855,20.1-3.855Z" transform="translate(-25.921 -253.002)" fill="#9eb7e5"/>
              <path id="Trazado_191296" data-name="Trazado 191296" d="M287.527,266.01a31.5,31.5,0,0,1-31.378,30.268h-.1V269.865c6.583-2.217,13.162-3.855,20.1-3.855Z" transform="translate(-224.551 -253.002)" fill="#9eb7e5"/>
              <path id="Trazado_191297" data-name="Trazado 191297" d="M104.612,266.01a31.5,31.5,0,0,1-31.378,30.268h-.1A31.419,31.419,0,0,1,49.867,286.01q-.358-.391-.7-.8-.893-1.046-1.693-2.171c8.831-3.4,17.726-7.635,25.665-11.029,8.025-3.431,15.075-6,20.1-6Z" transform="translate(-41.636 -253.002)" fill="#9eb7e5"/>
              <path id="Trazado_191298" data-name="Trazado 191298" d="M287.527,266.01a31.5,31.5,0,0,1-31.378,30.268h-.1V272.015c8.025-3.431,15.075-6,20.1-6Z" transform="translate(-224.551 -253.002)" fill="#9eb7e5"/>
              <path id="Trazado_191299" data-name="Trazado 191299" d="M157.781,266.01A31.5,31.5,0,0,1,126.4,296.278h-.1a31.346,31.346,0,0,1-18.2-5.792,77.591,77.591,0,0,0,8.8-5.028c3.18-2.121,6.3-4.485,9.4-6.813,8.59-6.454,16.978-12.636,25.756-12.636Z" transform="translate(-94.806 -253.002)" fill="#9eb7e5"/>
              <path id="Trazado_191300" data-name="Trazado 191300" d="M287.527,266.01a31.5,31.5,0,0,1-31.378,30.268h-.1V278.646c8.59-6.454,16.978-12.636,25.756-12.636Z" transform="translate(-224.551 -253.002)" fill="#9eb7e5"/>
              <path id="Trazado_191301" data-name="Trazado 191301" d="M195.052,266.01a31.474,31.474,0,0,1-31.378,30.268h-.1a31.578,31.578,0,0,1-7.145-.815,31.2,31.2,0,0,1-5.83-1.975,50.2,50.2,0,0,0,8.474-6.314c1.27-1.131,2.8-2.564,4.5-4.152,7.5-6.988,18.428-16.94,25.756-17.014Z" transform="translate(-132.076 -253.002)" fill="#9eb7e5"/>
              <path id="Trazado_191302" data-name="Trazado 191302" d="M287.527,266.01a31.474,31.474,0,0,1-31.378,30.268h-.1V283.024c7.5-6.988,18.428-16.94,25.756-17.014Z" transform="translate(-224.551 -253.002)" fill="#9eb7e5"/>
              <path id="Trazado_191303" data-name="Trazado 191303" d="M236.6,266.01a31.474,31.474,0,0,1-31.378,30.268h-.1a31.58,31.58,0,0,1-7.145-.815,45.318,45.318,0,0,0,7.145-6.91c8.009-9,18.153-22.321,26.365-22.544Z" transform="translate(-173.626 -253.002)" fill="#9eb7e5"/>
              <path id="Trazado_191304" data-name="Trazado 191304" d="M287.527,266.01a31.474,31.474,0,0,1-31.378,30.268h-.1v-7.725c8.009-9,18.153-22.321,26.365-22.544Z" transform="translate(-224.551 -253.002)" fill="#9eb7e5"/>
              <g id="Grupo_147460" data-name="Grupo 147460" transform="translate(5.835 13.01)">
                <path id="Trazado_191305" data-name="Trazado 191305" d="M93.01,266.03c-5.75.847-12.548,3.817-19.873,7.438-7.62,3.768-15.808,8.24-23.972,11.763q-.893-1.047-1.693-2.171c8.831-3.4,17.726-7.635,25.665-11.029,7.906-3.379,14.865-5.928,19.873-6Z" transform="translate(-47.471 -266.03)" fill="#9eb7e5"/>
                <path id="Trazado_191306" data-name="Trazado 191306" d="M275.924,266.03c-5.75.847-12.548,3.817-19.873,7.438v-1.436C263.957,268.653,270.916,266.1,275.924,266.03Z" transform="translate(-230.386 -266.03)" fill="#9eb7e5"/>
              </g>
            </g>
            <path id="Trazado_191307" data-name="Trazado 191307" d="M373.117,266.01a31.54,31.54,0,0,1-19.466,27.9c4.864-7.062,7.671-25.289,18.49-27.9Z" transform="translate(-310.142 -253.002)" fill="#9eb7e5"/>
          </g>
          <circle id="Elipse_5502" data-name="Elipse 5502" cx="0.997" cy="0.997" r="0.997" transform="translate(52.169 50.574) rotate(-76.7)" fill="#9eb7e5"/>
          <circle id="Elipse_5503" data-name="Elipse 5503" cx="0.997" cy="0.997" r="0.997" transform="translate(32.309 58.505) rotate(-76.7)" fill="#9eb7e5"/>
          <circle id="Elipse_5504" data-name="Elipse 5504" cx="0.705" cy="0.705" r="0.705" transform="translate(43.605 51.716)" fill="#9eb7e5"/>
          <path id="Trazado_191308" data-name="Trazado 191308" d="M369.221,343.325a.688.688,0,1,1-.688-.688A.688.688,0,0,1,369.221,343.325Z" transform="translate(-322.538 -300.476)" fill="#9eb7e5"/>
          <g id="Grupo_147463" data-name="Grupo 147463" transform="translate(5.204 30.016)">
            <path id="Trazado_191309" data-name="Trazado 191309" d="M43.3,330.341a.688.688,0,1,1-.688-.688A.688.688,0,0,1,43.3,330.341Z" transform="translate(-41.928 -319.106)" fill="#9eb7e5"/>
            <path id="Trazado_191310" data-name="Trazado 191310" d="M164.851,244.424a.487.487,0,1,1-.487-.487A.486.486,0,0,1,164.851,244.424Z" transform="translate(-148.872 -243.937)" fill="#9eb7e5"/>
            <path id="Trazado_191311" data-name="Trazado 191311" d="M273.385,256.688A.688.688,0,1,1,272.7,256,.688.688,0,0,1,273.385,256.688Z" transform="translate(-243.698 -254.516)" fill="#9eb7e5"/>
            <circle id="Elipse_5505" data-name="Elipse 5505" cx="0.817" cy="0.817" r="0.817" transform="translate(5.875 4.291)" fill="#9eb7e5"/>
          </g>
          <path id="Trazado_191312" data-name="Trazado 191312" d="M19.129,229.724a.7.7,0,1,1-.7-.7A.7.7,0,0,1,19.129,229.724Z" transform="translate(-15.508 -200.846)" fill="#9eb7e5"/>
          <path id="Trazado_191313" data-name="Trazado 191313" d="M171.214,201.589a.7.7,0,1,1-.7-.7A.7.7,0,0,1,171.214,201.589Z" transform="translate(-148.879 -176.173)" fill="#9eb7e5"/>
          <circle id="Elipse_5506" data-name="Elipse 5506" cx="0.463" cy="0.463" r="0.463" transform="translate(9.162 30.274)" fill="#9eb7e5"/>
          <circle id="Elipse_5507" data-name="Elipse 5507" cx="0.688" cy="0.688" r="0.688" transform="translate(16.027 21.552)" fill="#9eb7e5"/>
          <path id="Trazado_191314" data-name="Trazado 191314" d="M266.52,211.511a.688.688,0,1,1-.688-.688A.688.688,0,0,1,266.52,211.511Z" transform="translate(-232.475 -184.882)" fill="#9eb7e5"/>
          <circle id="Elipse_5508" data-name="Elipse 5508" cx="0.912" cy="0.912" r="0.912" transform="matrix(0.16, -0.987, 0.987, 0.16, 16.337, 38.031)" fill="#9eb7e5"/>
          <path id="Trazado_191315" data-name="Trazado 191315" d="M423.548,296.271a.688.688,0,1,1-.688-.688A.688.688,0,0,1,423.548,296.271Z" transform="translate(-370.18 -259.212)" fill="#9eb7e5"/>
          <g id="Grupo_147464" data-name="Grupo 147464" transform="translate(11.213 10.586)">
            <path id="Trazado_191316" data-name="Trazado 191316" d="M103.589,90.509c0-.008,0-.017,0-.025A2.793,2.793,0,0,0,99.76,87.89a3.623,3.623,0,0,0-6.723,1.08,2.037,2.037,0,0,0-2.273,1.539Z" transform="translate(-90.764 -86.03)" fill="#9eb7e5"/>
            <path id="Trazado_191317" data-name="Trazado 191317" d="M120.287,104.074s0-.01,0-.015a1.606,1.606,0,0,0-2.2-1.491,2.083,2.083,0,0,0-3.866.621,1.171,1.171,0,0,0-1.307.885Z" transform="translate(-110.187 -99.596)" fill="#9eb7e5"/>
          </g>
          <g id="Grupo_147465" data-name="Grupo 147465" transform="translate(46.135 14.187)">
            <path id="Trazado_191318" data-name="Trazado 191318" d="M382.645,118.115c0-.005,0-.01,0-.016a1.757,1.757,0,0,0-2.41-1.632,2.28,2.28,0,0,0-4.23.679,1.282,1.282,0,0,0-1.43.968Z" transform="translate(-374.575 -115.297)" fill="#9eb7e5"/>
            <path id="Trazado_191319" data-name="Trazado 191319" d="M393.154,126.65s0-.006,0-.009a1.01,1.01,0,0,0-1.385-.938,1.311,1.311,0,0,0-2.433.391.747.747,0,0,0-.106-.008.737.737,0,0,0-.717.564Z" transform="translate(-386.799 -123.832)" fill="#9eb7e5"/>
          </g>
          <g id="Grupo_147466" data-name="Grupo 147466" transform="translate(31.772 4.475)">
            <path id="Trazado_191320" data-name="Trazado 191320" d="M257.843,39.158c0-.005,0-.01,0-.016a1.74,1.74,0,0,1,2.385-1.615,2.257,2.257,0,0,1,4.188.672,1.269,1.269,0,0,1,1.416.959h-7.989Z" transform="translate(-257.843 -36.368)" fill="#9eb7e5"/>
            <path id="Trazado_191321" data-name="Trazado 191321" d="M271.64,47.61s0-.006,0-.009a1,1,0,0,1,1.372-.929,1.3,1.3,0,0,1,2.408.387.73.73,0,0,1,.814.551H271.64Z" transform="translate(-269.942 -44.82)" fill="#9eb7e5"/>
          </g>
        </g>
        <g id="medidor-de-ph" transform="translate(245.136 3790)">
          <path id="Trazado_191353" data-name="Trazado 191353" d="M291.186,68.222a2.018,2.018,0,0,1-2.018-2.018V41.041a2.8,2.8,0,0,0-2.793-2.793h-7a2.018,2.018,0,0,1,0-4.037h7a6.838,6.838,0,0,1,6.83,6.83V66.2A2.018,2.018,0,0,1,291.186,68.222Z" transform="translate(-200.385 -29.743)" fill="#918291"/>
          <path id="Trazado_191354" data-name="Trazado 191354" d="M53.35,45.415H75.1a6.486,6.486,0,0,0,6.486-6.486V6.491A6.486,6.486,0,0,0,75.1,0H53.35a6.486,6.486,0,0,0-6.486,6.486V38.928A6.486,6.486,0,0,0,53.35,45.415Z" transform="translate(0 -0.004)" fill="#ddc192"/>
          <path id="Trazado_191355" data-name="Trazado 191355" d="M56.919,45.41H53.351a6.486,6.486,0,0,1-6.487-6.486V6.487A6.487,6.487,0,0,1,53.351,0h3.568a6.487,6.487,0,0,0-6.486,6.487V38.925A6.486,6.486,0,0,0,56.919,45.41Z" transform="translate(0)" fill="#b9a27a"/>
          <g id="Grupo_147477" data-name="Grupo 147477" transform="translate(53.753 27.02)">
            <circle id="Elipse_5510" data-name="Elipse 5510" cx="3.96" cy="3.96" r="3.96" transform="translate(13.024)" fill="#a0a9b6"/>
            <circle id="Elipse_5511" data-name="Elipse 5511" cx="3.96" cy="3.96" r="3.96" transform="translate(0)" fill="#a0a9b6"/>
          </g>
          <g id="Grupo_147478" data-name="Grupo 147478" transform="translate(53.753 27.02)">
            <path id="Trazado_191356" data-name="Trazado 191356" d="M204.41,214.621a3.96,3.96,0,1,1-1.13-7.756,3.919,3.919,0,0,1,1.13.164,3.961,3.961,0,0,0,0,7.592Z" transform="translate(-186.296 -206.865)" fill="#868f9b"/>
            <path id="Trazado_191357" data-name="Trazado 191357" d="M104.7,214.621a3.96,3.96,0,1,1-1.13-7.756,3.919,3.919,0,0,1,1.13.164,3.96,3.96,0,0,0,0,7.592Z" transform="translate(-99.61 -206.865)" fill="#868f9b"/>
          </g>
          <path id="Trazado_191358" data-name="Trazado 191358" d="M91,58.373a2.935,2.935,0,0,1-2.935-2.935V44.146A2.935,2.935,0,0,1,91,41.211h18.088a2.935,2.935,0,0,1,2.935,2.935V55.438a2.935,2.935,0,0,1-2.935,2.935Z" transform="translate(-35.824 -35.828)" fill="#e8edf2"/>
          <path id="Trazado_191359" data-name="Trazado 191359" d="M93.63,58.375H91A2.936,2.936,0,0,1,88.07,55.44V44.147A2.936,2.936,0,0,1,91,41.212H93.63A2.935,2.935,0,0,0,90.7,44.147V55.44A2.935,2.935,0,0,0,93.63,58.375Z" transform="translate(-35.824 -35.829)" fill="#dedbee"/>
          <g id="Grupo_147479" data-name="Grupo 147479" transform="translate(73.141 17.702)">
            <path id="Trazado_191360" data-name="Trazado 191360" d="M264.407,165.843h-4.374a13.548,13.548,0,0,1-11.9-15.016l1.77-15.3h24.632l1.77,15.3A13.549,13.549,0,0,1,264.407,165.843Z" transform="translate(-248.043 -135.531)" fill="#c8effe"/>
            <path id="Trazado_191362" data-name="Trazado 191362" d="M371.829,135.534v18.759a2.018,2.018,0,1,1-4.037,0V135.534" transform="translate(-352.151 -135.534)" fill="#7a6d79"/>
            <path id="Trazado_191363" data-name="Trazado 191363" d="M299.155,238.91a9.082,9.082,0,0,1-6.124,3.411l-1.694.192-1.69-.192a9.172,9.172,0,0,1-8.049-10.166l.315-2.721c4.641-1.974,7.67-.414,10.89.946a17.959,17.959,0,0,0,4.037,1.29,10.78,10.78,0,0,0,4.171-.118l.07.6A9.108,9.108,0,0,1,299.155,238.91Z" transform="translate(-277.161 -216.356)" fill="#84e8ed"/>
            <path id="Trazado_191364" data-name="Trazado 191364" d="M371.829,244.188v3.445a2.018,2.018,0,0,1-4.037,0V242.9A17.96,17.96,0,0,0,371.829,244.188Z" transform="translate(-352.151 -228.874)" fill="#79ccd1"/>
            <path id="Trazado_191365" data-name="Trazado 191365" d="M293.446,242.43c-.137.022-.276.041-.414.057l-1.7.193-1.688-.193a9.173,9.173,0,0,1-8.049-10.166l.315-2.721a11.135,11.135,0,0,1,3.577-.91l-.334,2.9a9.825,9.825,0,0,0,8.29,10.844Z" transform="translate(-277.162 -216.522)" fill="#79ccd1"/>
          </g>
          <g id="Grupo_147480" data-name="Grupo 147480" transform="translate(56.002 8.179)">
            <path id="Trazado_191368" data-name="Trazado 191368" d="M187.979,62.615a1.009,1.009,0,0,0-1.009,1.009v3.217h-4.039V63.624a1.009,1.009,0,1,0-2.018,0v8.753a1.009,1.009,0,0,0,2.018,0V68.86h4.039v3.517a1.009,1.009,0,0,0,2.018,0V63.624A1.009,1.009,0,0,0,187.979,62.615Z" transform="translate(-172.542 -62.615)" fill="#99e6fc"/>
            <path id="Trazado_191369" data-name="Trazado 191369" d="M120.271,62.615h-2.437a1.009,1.009,0,0,0-1.009,1.012v8.75a1.009,1.009,0,1,0,2.018,0v-2.8c.512,0,1.1-.005,1.428-.005a3.48,3.48,0,1,0,0-6.959Zm0,4.94c-.328,0-.907,0-1.417.005,0-.526-.007-2.376-.008-2.927h1.425a1.462,1.462,0,1,1,0,2.922Z" transform="translate(-116.825 -62.615)" fill="#99e6fc"/>
          </g>
        </g>
      </g>
    </g>
  </g>
</svg>
