<svg xmlns="http://www.w3.org/2000/svg" xmlns:xlink="http://www.w3.org/1999/xlink" width="295.07" height="152.744" viewBox="0 0 295.07 152.744">
  <defs>
    <clipPath id="clip-path">
      <rect id="Rectángulo_40418" data-name="Rectángulo 40418" width="87.581" height="128.002" fill="none"/>
    </clipPath>
    <clipPath id="clip-path-2">
      <rect id="Rectángulo_40417" data-name="Rectángulo 40417" width="87.58" height="128.002" fill="none"/>
    </clipPath>
    <clipPath id="clip-path-3">
      <rect id="Rectángulo_40413" data-name="Rectángulo 40413" width="11.947" height="12.658" fill="none"/>
    </clipPath>
    <clipPath id="clip-path-4">
      <path id="Trazado_192027" data-name="Trazado 192027" d="M34.014,35.839l-9.936,7.807L27.39,48.5l8.636-6.151Z" transform="translate(-24.078 -35.839)" fill="none"/>
    </clipPath>
    <linearGradient id="linear-gradient" x1="-1.773" y1="4.658" x2="-1.693" y2="4.658" gradientUnits="objectBoundingBox">
      <stop offset="0" stop-color="#fff"/>
      <stop offset="0.857" stop-color="#b5b5b5"/>
      <stop offset="1" stop-color="#b5b5b5"/>
    </linearGradient>
  </defs>
  <g id="Grupo_148074" data-name="Grupo 148074" transform="translate(4611 8357.908)">
    <path id="Trazado_190615" data-name="Trazado 190615" d="M-5908-10043.164l4.358-4.357h285.354l4.358,4.357Z" transform="translate(1298 1838)" fill="#a0a9b6"/>
    <g id="city" transform="translate(-4577.525 -8357.908)">
      <path id="Trazado_191734" data-name="Trazado 191734" d="M286.205,244.233H269.446V203.291l15.548,13.18a3.429,3.429,0,0,1,1.212,2.616Z" transform="translate(-193.65 -143.498)" fill="#a0a9b6"/>
      <path id="Trazado_191736" data-name="Trazado 191736" d="M80.735,264.39H62.056a2.5,2.5,0,0,0-2.5,2.5v68.122H81.617V264.39Z" transform="translate(-45.494 -186.626)" fill="#9eb7e5"/>
      <g id="Grupo_147700" data-name="Grupo 147700" transform="translate(14.062 77.764)">
        <path id="Trazado_191737" data-name="Trazado 191737" d="M65.556,266.891a2.5,2.5,0,0,1,2.5-2.5h-6a2.5,2.5,0,0,0-2.5,2.5v68.122h6Z" transform="translate(-59.557 -264.391)" fill="#7088b4"/>
        <path id="Trazado_191738" data-name="Trazado 191738" d="M84.653,300.353H78.6a2.206,2.206,0,1,1,0-4.412h6.055a2.206,2.206,0,1,1,0,4.412Z" transform="translate(-71.44 -286.661)" fill="#7088b4"/>
        <path id="Trazado_191739" data-name="Trazado 191739" d="M84.653,339.4H78.6a2.206,2.206,0,0,1,0-4.412h6.055a2.206,2.206,0,0,1,0,4.412Z" transform="translate(-71.44 -314.225)" fill="#7088b4"/>
        <path id="Trazado_191740" data-name="Trazado 191740" d="M85.51,378.453H78.6a2.206,2.206,0,0,1,0-4.412H85.51a2.206,2.206,0,0,1,0,4.412Z" transform="translate(-71.44 -341.79)" fill="#7088b4"/>
        <path id="Trazado_191741" data-name="Trazado 191741" d="M85.51,417.5H78.6a2.206,2.206,0,0,1,0-4.412H85.51a2.206,2.206,0,0,1,0,4.412Z" transform="translate(-71.44 -369.354)" fill="#7088b4"/>
        <path id="Trazado_191742" data-name="Trazado 191742" d="M85.51,456.552H78.6a2.206,2.206,0,0,1,0-4.412H85.51a2.206,2.206,0,0,1,0,4.412Z" transform="translate(-71.44 -396.918)" fill="#7088b4"/>
      </g>
      <circle id="Elipse_5520" data-name="Elipse 5520" cx="16.045" cy="16.045" r="16.045" transform="translate(92.936 9.377)" fill="#fac149"/>
      <path id="Trazado_191743" data-name="Trazado 191743" d="M333.606,47.921a16.047,16.047,0,0,1,13.1-15.772,16.046,16.046,0,1,0,0,31.544A16.048,16.048,0,0,1,333.606,47.921Z" transform="translate(-234.786 -22.499)" fill="#f8a748"/>
      <path id="Trazado_191744" data-name="Trazado 191744" d="M194.094,2.293V17.2a2.208,2.208,0,1,0,4.412,0V2.293a2.208,2.208,0,1,0-4.412,0Z" transform="translate(-140.461)" fill="#a4d9f4"/>
      <path id="Trazado_191745" data-name="Trazado 191745" d="M191.776,59.189h-5.8a2.087,2.087,0,0,0-2.087,2.088V71.844H194.3V61.718A2.529,2.529,0,0,0,191.776,59.189Z" transform="translate(-133.258 -41.78)" fill="#c0cdce"/>
      <path id="Trazado_191746" data-name="Trazado 191746" d="M190.508,61.272a2.088,2.088,0,0,1,1.692-2.049c-.313-.053.11-.039-6.224-.039a2.088,2.088,0,0,0-2.087,2.088V71.839h6.619v-.882C190.508,67.165,190.508,65.155,190.508,61.272Z" transform="translate(-133.258 -41.776)" fill="#afbcbc"/>
      <path id="Trazado_191747" data-name="Trazado 191747" d="M179.871,96.285H156.487a2.058,2.058,0,0,0-2.058,2.058v13.531h27.942V98.784A2.5,2.5,0,0,0,179.871,96.285Z" transform="translate(-112.463 -67.965)" fill="#a5afaf"/>
      <path id="Trazado_191748" data-name="Trazado 191748" d="M161.047,98.343a2.058,2.058,0,0,1,2.058-2.058h-6.619a2.058,2.058,0,0,0-2.058,2.058v13.531h6.619V98.343Z" transform="translate(-112.462 -67.965)" fill="#98a0a0"/>
      <path id="Trazado_191749" data-name="Trazado 191749" d="M169.721,146.288H135.306a3.383,3.383,0,0,0-3.383,3.383V251.647H173.1V149.671A3.383,3.383,0,0,0,169.721,146.288Z" transform="translate(-96.576 -103.261)" fill="#c0cdce"/>
      <path id="Trazado_191750" data-name="Trazado 191750" d="M138.542,150.112v-.441a3.383,3.383,0,0,1,3.383-3.383h-6.619a3.383,3.383,0,0,0-3.383,3.383V251.647h6.619V150.112Z" transform="translate(-96.576 -103.261)" fill="#afbcbc"/>
      <g id="Grupo_147701" data-name="Grupo 147701" transform="translate(42.456 52.587)">
        <path id="Trazado_191751" data-name="Trazado 191751" d="M180.653,183.2H158.3a2.206,2.206,0,1,1,0-4.412h22.355a2.206,2.206,0,1,1,0,4.412Z" transform="translate(-156.092 -178.79)" fill="#a5afaf"/>
        <path id="Trazado_191752" data-name="Trazado 191752" d="M180.653,222.252H158.3a2.206,2.206,0,1,1,0-4.412h22.355a2.206,2.206,0,1,1,0,4.412Z" transform="translate(-156.092 -206.354)" fill="#a5afaf"/>
        <path id="Trazado_191753" data-name="Trazado 191753" d="M180.653,261.3H158.3a2.206,2.206,0,1,1,0-4.412h22.355a2.206,2.206,0,1,1,0,4.412Z" transform="translate(-156.092 -233.919)" fill="#a5afaf"/>
        <path id="Trazado_191754" data-name="Trazado 191754" d="M180.653,300.353H158.3a2.206,2.206,0,1,1,0-4.412h22.355a2.206,2.206,0,1,1,0,4.412Z" transform="translate(-156.092 -261.484)" fill="#a5afaf"/>
        <path id="Trazado_191755" data-name="Trazado 191755" d="M180.653,339.4H158.3a2.206,2.206,0,0,1,0-4.412h22.355a2.206,2.206,0,0,1,0,4.412Z" transform="translate(-156.092 -289.047)" fill="#a5afaf"/>
        <path id="Trazado_191756" data-name="Trazado 191756" d="M180.653,378.453H158.3a2.206,2.206,0,1,1,0-4.412h22.355a2.206,2.206,0,1,1,0,4.412Z" transform="translate(-156.092 -316.613)" fill="#a5afaf"/>
        <path id="Trazado_191757" data-name="Trazado 191757" d="M180.653,417.5H158.3a2.206,2.206,0,0,1,0-4.412h22.355a2.206,2.206,0,0,1,0,4.412Z" transform="translate(-156.092 -344.176)" fill="#a5afaf"/>
        <path id="Trazado_191758" data-name="Trazado 191758" d="M180.653,456.552H158.3a2.206,2.206,0,0,1,0-4.412h22.355a2.206,2.206,0,0,1,0,4.412Z" transform="translate(-156.092 -371.741)" fill="#a5afaf"/>
      </g>
      <path id="Trazado_191759" data-name="Trazado 191759" d="M279.467,337.3H222.109a2.838,2.838,0,0,0-2.838,2.838v46.34H282.3v-46.34A2.838,2.838,0,0,0,279.467,337.3Z" transform="translate(-158.233 -238.091)" fill="#ddc192"/>
      <g id="Grupo_147702" data-name="Grupo 147702" transform="translate(61.038 99.209)">
        <path id="Trazado_191760" data-name="Trazado 191760" d="M225.222,385.8v-46.34a2.83,2.83,0,0,1,1-2.158h-4.113a2.838,2.838,0,0,0-2.838,2.838v46.34H282.3V385.8Z" transform="translate(-219.269 -337.3)" fill="#c3ab83"/>
        <path id="Trazado_191761" data-name="Trazado 191761" d="M293.014,378.453H252.843a2.206,2.206,0,0,1,0-4.412h40.171a2.206,2.206,0,1,1,0,4.412Z" transform="translate(-241.411 -363.234)" fill="#c3ab83"/>
        <path id="Trazado_191762" data-name="Trazado 191762" d="M293.014,417.5H252.843a2.206,2.206,0,0,1,0-4.412h40.171a2.206,2.206,0,1,1,0,4.412Z" transform="translate(-241.411 -390.798)" fill="#c3ab83"/>
        <path id="Trazado_191763" data-name="Trazado 191763" d="M293.014,456.552H252.843a2.206,2.206,0,0,1,0-4.412h40.171a2.206,2.206,0,1,1,0,4.412Z" transform="translate(-241.411 -418.363)" fill="#c3ab83"/>
      </g>
    </g>
    <g id="ciudad" transform="translate(-4509 -8371.521)">
      <path id="Trazado_191966" data-name="Trazado 191966" d="M162.416,454.87c1.748,0,2.365-1.51.845-2.071-21.3-7.854-49.15-12.612-79.63-12.612-30.5,0-58.36,4.764-79.667,12.625-1.51.557-.9,2.057.839,2.057Z" transform="translate(-89.339 -292.87)" fill="#9eb7e5"/>
      <path id="Trazado_191920" data-name="Trazado 191920" d="M74,339.452a9.74,9.74,0,0,0-7.478,14.978c1.168,1.808-1.691,2.62-1.55,7.459a9.653,9.653,0,0,0,19.3-.292c0-4.727-2.711-5.474-1.7-6.944A9.72,9.72,0,0,0,74,339.452Z" transform="translate(-44.406 -232.033)" fill="#4ce079"/>
      <path id="Trazado_191921" data-name="Trazado 191921" d="M71.429,361.825a9.712,9.712,0,0,1,1.55-5.577,1.733,1.733,0,0,0,0-1.882,9.751,9.751,0,0,1,4.864-14.434C69.123,336.8,61.53,346.677,66.5,354.366c1.168,1.808-1.691,2.62-1.55,7.459a9.735,9.735,0,0,0,9.027,9.4,9.614,9.614,0,0,0,3.867-.544A9.776,9.776,0,0,1,71.429,361.825Z" transform="translate(-44.38 -231.969)" fill="#32cc65"/>
      <path id="Trazado_191922" data-name="Trazado 191922" d="M90.256,417.4a2.438,2.438,0,0,1-2.43-2.445V389.1a2.43,2.43,0,1,1,4.86,0v25.854A2.437,2.437,0,0,1,90.256,417.4Z" transform="translate(-60.037 -264.314)" fill="#9b6f43"/>
      <path id="Trazado_191923" data-name="Trazado 191923" d="M162.416,462.909a1.717,1.717,0,0,0,.845-3.2c-21.3-12.154-49.15-19.518-79.63-19.518-30.5,0-58.36,7.372-79.667,19.538a1.706,1.706,0,0,0,.839,3.184Z" transform="translate(-2.123 -300.909)" fill="#29b288"/>
      <path id="Trazado_191924" data-name="Trazado 191924" d="M16.924,459.724c19.787-11.3,45.231-18.458,73.187-19.423q-3.219-.111-6.48-.116c-30.5,0-58.36,7.372-79.667,19.538a1.706,1.706,0,0,0,.84,3.184h12.96A1.706,1.706,0,0,1,16.924,459.724Z" transform="translate(-2.124 -300.908)" fill="#21a378"/>
      <path id="Trazado_191925" data-name="Trazado 191925" d="M128.7,15.737a9.411,9.411,0,0,1,10.763,3.61,11.841,11.841,0,0,1,6.514.16A12.844,12.844,0,1,0,123.487,7.133,15.856,15.856,0,0,1,128.7,15.737Z" transform="translate(-186.415 49.347)" fill="#fac149"/>
      <path id="Trazado_191926" data-name="Trazado 191926" d="M142.153,15.89a15.516,15.516,0,0,0-8.585-3.548,21.828,21.828,0,0,0-5.237-6.457,12.933,12.933,0,0,0-4.844,5.271,15.857,15.857,0,0,1,5.21,8.6,9.411,9.411,0,0,1,10.763,3.61,11.838,11.838,0,0,1,6.514.16,12.854,12.854,0,0,0,1.8-6.891A18.058,18.058,0,0,0,142.153,15.89Z" transform="translate(-186.415 45.324)" fill="#f8a748"/>
      <path id="Trazado_191939" data-name="Trazado 191939" d="M451.633,346.265a13.972,13.972,0,1,0-25.325,8.189,1.407,1.407,0,0,1,0,1.642,13.971,13.971,0,1,0,22.858.215,1.83,1.83,0,0,1,0-2.071A14.047,14.047,0,0,0,451.633,346.265Z" transform="translate(-289.632 -227.096)" fill="#4ce079"/>
      <path id="Trazado_191940" data-name="Trazado 191940" d="M430.176,364.665a14.054,14.054,0,0,1,2.612-8.568,1.407,1.407,0,0,0,0-1.642,14.088,14.088,0,0,1,8.115-21.861,14.053,14.053,0,0,0-14.6,21.861,1.407,1.407,0,0,1,0,1.642,14.013,14.013,0,0,0,14.6,21.862A14.116,14.116,0,0,1,430.176,364.665Z" transform="translate(-289.632 -227.096)" fill="#32cc65"/>
      <path id="Trazado_191941" data-name="Trazado 191941" d="M445.957,396.66l3.8,2.746v21.509h4.86V381.2a2.43,2.43,0,1,0-4.86,0v12.187l-.969-.7a2.42,2.42,0,0,0-3.391.561A2.454,2.454,0,0,0,445.957,396.66Z" transform="translate(-304.16 -258.915)" fill="#9b6f43"/>
      <path id="Trazado_191942" data-name="Trazado 191942" d="M69.451,34.779A11.427,11.427,0,0,0,60.363,25.7c-3.722-.693-4.622.646-5.541-.47a9.112,9.112,0,0,0-8.331-3.247A1.916,1.916,0,0,1,44.4,20.71a15.244,15.244,0,0,0-29.661,4.764s0,.007,0,.011a.689.689,0,0,1-.829.577l-.119-.028,0,0h0A11.408,11.408,0,1,0,11.346,48.6H58.188A11.54,11.54,0,0,0,69.451,34.779Z" transform="translate(-102 42.228)" fill="#a4d9f4"/>
      <path id="Trazado_191945" data-name="Trazado 191945" d="M46.531,26.738a7.656,7.656,0,0,0-6.089-6.081c-2.494-.464-3.1.433-3.713-.315a6.1,6.1,0,0,0-5.582-2.176,1.284,1.284,0,0,1-1.4-.855A10.213,10.213,0,0,0,9.874,20.5l0,.007a.462.462,0,0,1-.555.386l-.079-.019h0A7.643,7.643,0,1,0,7.6,36H38.986A7.732,7.732,0,0,0,46.531,26.738Z" transform="translate(34.816 15.212)" fill="#a4d9f4"/>
      <g id="Grupo_147739" data-name="Grupo 147739" transform="translate(-101.999 52.643)">
        <path id="Trazado_191943" data-name="Trazado 191943" d="M48.91,25.2a11.675,11.675,0,0,1,3.372.24h0l0,0,.122.029a.708.708,0,0,0,.851-.592s0-.007,0-.011A15.76,15.76,0,0,1,63.193,10.5a15.232,15.232,0,0,0-16.8,14.979s0,.007,0,.011a1.1,1.1,0,0,1-.079.208A11.426,11.426,0,0,1,48.91,25.2Z" transform="translate(-31.657 -10.415)" fill="#77cff2"/>
        <path id="Trazado_191944" data-name="Trazado 191944" d="M6.513,69.164A11.738,11.738,0,0,1,13.74,59.2,11.407,11.407,0,1,0,11.346,81.77h6.78A11.689,11.689,0,0,1,6.513,69.164Z" transform="translate(-0.001 -43.587)" fill="#77cff2"/>
      </g>
      <g id="Grupo_147740" data-name="Grupo 147740" transform="translate(34.817 25.626)">
        <path id="Trazado_191943-2" data-name="Trazado 191943" d="M48.052,20.318a7.822,7.822,0,0,1,2.259.16h0l.082.02a.474.474,0,0,0,.57-.4l0-.008a10.559,10.559,0,0,1,6.653-9.626A10.205,10.205,0,0,0,46.366,20.505l0,.007a.74.74,0,0,1-.053.139A7.655,7.655,0,0,1,48.052,20.318Z" transform="translate(-36.493 -10.415)" fill="#77cff2"/>
        <path id="Trazado_191944-2" data-name="Trazado 191944" d="M4.364,65.79a7.864,7.864,0,0,1,4.842-6.677A7.643,7.643,0,1,0,7.6,74.236h4.543A7.832,7.832,0,0,1,4.364,65.79Z" transform="translate(-0.001 -48.654)" fill="#77cff2"/>
      </g>
    </g>
    <g id="Grupo_147768" data-name="Grupo 147768" transform="translate(-4442.449 -8335.345)">
      <g id="Grupo_147767" data-name="Grupo 147767" clip-path="url(#clip-path)">
        <path id="Trazado_191988" data-name="Trazado 191988" d="M37.324,13.139l-1.5,2.76.631,3.707,3-3.469Z" transform="translate(13.715 5.03)" fill="#9eb7e5"/>
        <g id="Grupo_147766" data-name="Grupo 147766" transform="translate(0 0)">
          <g id="Grupo_147765" data-name="Grupo 147765" clip-path="url(#clip-path-2)">
            <path id="Trazado_191989" data-name="Trazado 191989" d="M34.015,44.05c.066-1.391-.407-5.306-1.906-5.577l.264-.91c2.525.91,2.522,5.039,2.587,6.487h-.946Z" transform="translate(12.292 14.379)" fill="#98a8b7"/>
            <path id="Trazado_191990" data-name="Trazado 191990" d="M38.587,4.58c.555,1.561,1.684,4.761,6.588,8.145,2.07,1.431-1.121,2.206-1.121,2.206l-4.437,5.082s-2.4-3.612-5.526-3.77c-1.894-.1,4.5-11.663,4.5-11.663" transform="translate(12.916 1.753)" fill="#d19d90"/>
            <path id="Trazado_191991" data-name="Trazado 191991" d="M38.816,6.4C36.337,2.321,31.868.029,28.484,3.114c-3.695,3.363-3.695,5.045-1.051,9.026.548.824,2.053,1.648,2.71,2.457.524,1.473.924,3.194,1.257,3.286a2.571,2.571,0,0,0,1.209-.344c1.961,1.919,3.511,2.446,4.685,1.664,1.3-.86,4.442-3.783,4.428-6.8-.006-1.651-1.578-3.826-2.905-6" transform="translate(9.787 0.645)" fill="#d19d90"/>
            <path id="Trazado_191992" data-name="Trazado 191992" d="M24.638,8.907c.38,2.313,1.33,2.883,2.461,2.851,2.691-.079,2.759-2.276,3.761-2.15.939.113,2.163-.732,2.844-.683a13.2,13.2,0,0,1,2.161.542l1.552-.206.942-.98,1.517,2,5.415-.214a5.482,5.482,0,0,1-2.319-3.673,7.226,7.226,0,0,0-1.694-3.357c-.763-1.086-.964-.835-1.759-1.8C38.653.19,36.191-.174,35.3.075s-1.446.371-1.709.8-.834-.418-2.1-.008A8.319,8.319,0,0,0,28.55,2.045c-1.589.962-2.437,3.153-3.294,4.573a5.6,5.6,0,0,0-.618,2.289" transform="translate(9.432 0)" fill="#300901"/>
            <path id="Trazado_191993" data-name="Trazado 191993" d="M33.479,6.4c-.137-1.153.989-1.9,1.751-1.387.762.53,2.2,3.322,1.079,4.5C35.19,10.667,33.479,6.4,33.479,6.4" transform="translate(12.812 1.856)" fill="#d19d90"/>
            <path id="Trazado_191994" data-name="Trazado 191994" d="M41.191,50.016c-2.373-.437-3.866-14.749-4-19.657-.153-5.931.3-9.239,1.475-11.5.452-.864,4.652-6.98,4.652-6.98,3.2.236,7.286.2,9.584,6.033,3.832,9.735,5.56,20.8,7.575,23.017,1.769,1.947,3.027,6.463-.126,7.82,0,0-16.164,1.816-19.162,1.263" transform="translate(14.227 4.549)" fill="#7189b5"/>
            <path id="Trazado_191995" data-name="Trazado 191995" d="M18.277,23.289A58.8,58.8,0,0,0,27.268,36.7c3.111,3.214,6.971,7.926,5.49,9.97-1.9,3.3-4.012.346-4.012.346s-8.459-4.363-9.205-7.633-7.247-13.1-6.278-15.512a4.212,4.212,0,0,1,2.952-2.73Z" transform="translate(5.04 8.091)"/>
            <path id="Trazado_191996" data-name="Trazado 191996" d="M19.459,83.791c-.112,1.469-1.634,3.523-4.245,4.418-1.958.672-3.519.335-2.926,1.976s5.324,2.331,7.44,1.853,2.257-1.121,3.689-.346a3.2,3.2,0,0,0,4.3-.87,4.435,4.435,0,0,0-.039-3.064c-.8-3.1-.106-4.179-.106-4.179l-4.411-.437Z" transform="translate(4.655 31.828)"/>
            <path id="Trazado_191997" data-name="Trazado 191997" d="M28.341,87.528c.3.669.532,3.5-.814,3.918-3.515,1.086-4.1-.235-5.045-.142-2.12.2-4.39,1.213-6.025,1.235-2.217.03-5.665-1.189-5.452-3.362.165-1.723,1.971-2.095,1.871-1.731-.635,2.316,3.918,2.4,4.836,2.41,3.421.03,4.787-1.112,5.735-.47s2.39.281,2.969.209c1.664-.2,1.926-2.066,1.926-2.066" transform="translate(4.209 33.426)"/>
            <path id="Trazado_191998" data-name="Trazado 191998" d="M17.441,86.063c.024-.925-1.034-2.829-.253-3.4s4.3-1.809,4.3-.14a8.416,8.416,0,0,1-.788,3.9c-.364.383-3.255-.364-3.255-.364" transform="translate(6.469 31.271)" fill="#623d22"/>
            <path id="Trazado_191999" data-name="Trazado 191999" d="M28.24,104.438c3.411-.719-.647-21.268-2.318-25.31-2.565-6.217-4.2-19.4-3.547-20.585,1.383-2.519.38-11.925-2.015-15.432s-1.48-2.88-1.48-2.88L9.676,44.388l.158,9.463c.158,3.794,5.079,25.258,5.206,26.5.319,3.127-.292,23.83,3.411,23.995Z" transform="translate(3.704 15.384)" fill="#96a6bc"/>
            <path id="Trazado_192000" data-name="Trazado 192000" d="M56.329,86.293c.488,2.307.665,5.664-.39,5.874-3.828.754-2.894-.892-5.736.566-2.132,1.1-7.683,1.253-8.5.586-.715-.585-1.287-3.334,1.813-3.77s4.8-3.124,5.816-4.8a5.662,5.662,0,0,1,3.02-2.226l3.262.56Z" transform="translate(15.75 31.592)"/>
            <path id="Trazado_192001" data-name="Trazado 192001" d="M40.586,39.691c-1.5,4.545,3.185,28.7,3.782,35.668.05.577,1.106,4.422,1.42,7.1.886,7.529,1.734,19.964.749,22.4a26.416,26.416,0,0,0,8.676.317s1.593-12.826.691-34.074c-.325-7.7-5.365-31.878-5.365-31.878Z" transform="translate(15.425 15.013)" fill="#142163"/>
            <path id="Trazado_192002" data-name="Trazado 192002" d="M51.024,101.952c1.853-6.126-1.261-27.88-4.732-54.735l9.471,25.31c.566,19.836.566,19.687.317,29.336,0,0-2.777,1.177-5.056.089" transform="translate(17.721 18.075)" fill="#11103d"/>
            <path id="Trazado_192003" data-name="Trazado 192003" d="M66.69,83.82l-7.9-.321s-.16,5.718-5.313,7.52c-1.72.6-1.94,3.056.31,3.973s7.21.523,9.232-1.542,2.175-.33,3.736-1.269.548-4.458.379-6.624Z" transform="translate(19.963 31.964)"/>
            <path id="Trazado_192004" data-name="Trazado 192004" d="M58.244,38.148c1.412,2.553,3.127,4.72,3.077,11.121-.053,6.419,1.693,20.574,3.546,26.5C71.021,95.406,69.6,107,69.6,107a25.9,25.9,0,0,1-9.937.317S57.022,89.463,56.5,85.874c-.178-1.233-4.558-25.415-7.561-31.716-1.449-3.034-2.773-9.689-2.526-12.145.17-1.676,11.83-3.865,11.83-3.865" transform="translate(17.757 14.603)" fill="#11103d"/>
            <path id="Trazado_192005" data-name="Trazado 192005" d="M52.425,79.7a49.984,49.984,0,0,1-3.154-9.464c-.762-3.547-3.886-12.958-4.89-22.32-.365-3.342.416-4.667.668-7.117.055-.51,3.093-1.171,4.787-1.365l2.806,16.9C56.287,73.051,64.019,96.3,63.623,107.22a22.2,22.2,0,0,1-4.931.118S54.553,84.072,52.425,79.7" transform="translate(16.953 15.094)" fill="#142163"/>
            <path id="Trazado_192006" data-name="Trazado 192006" d="M61.132,37.162l.686,2.828s-15.6,2.951-22.3,1.778a15.584,15.584,0,0,0,.1-2.474s8.366,2.026,21.508-2.132" transform="translate(15.13 14.226)"/>
            <path id="Trazado_192007" data-name="Trazado 192007" d="M50.609,38.924c.254-1.083,2.319-1.556,5.524-1.735,1.361-.076,1.626,1.78,1.4,3.995-.071.691-1.211,1.258-.986,1.954.961,2.973,1.327,7.07-.223,7.417-3.207.716-5.715-11.631-5.715-11.631" transform="translate(19.374 14.235)"/>
            <path id="Trazado_192008" data-name="Trazado 192008" d="M46.984,42.8c.037.238.361.407.723.375L49.574,43c.364-.032.631-.256.595-.5l-.538-3.544c-.03-.238-.355-.409-.72-.376l-1.87.17c-.36.036-.625.257-.589.5Z" transform="translate(17.781 14.77)"/>
            <path id="Trazado_192009" data-name="Trazado 192009" d="M47,42.748,46.462,39.2c-.04-.238.228-.46.595-.5l.418-.037.694,4.414-.454.037c-.36.035-.683-.133-.719-.375" transform="translate(17.785 14.804)" fill="#24272b"/>
            <path id="Trazado_192010" data-name="Trazado 192010" d="M48.964,44.615a.659.659,0,0,0,.737.577l1.858-.232a.663.663,0,0,0,.578-.738l-.671-5.364a.659.659,0,0,0-.736-.574l-1.863.231a.663.663,0,0,0-.575.741Z" transform="translate(18.485 14.653)"/>
            <path id="Trazado_192011" data-name="Trazado 192011" d="M48.974,44.546,48.3,39.182a.664.664,0,0,1,.575-.741l.418-.051.863,6.675-.448.054a.655.655,0,0,1-.736-.572" transform="translate(18.488 14.696)" fill="#24272b"/>
            <path id="Trazado_192012" data-name="Trazado 192012" d="M16.919,85.321c-.167,1.466-1.759,3.463-4.4,4.259-1.983.6-3.532.2-3,1.871s5.233,2.519,7.369,2.121,2.3-1.04,3.693-.212a3.2,3.2,0,0,0,4.335-.705,4.476,4.476,0,0,0,.076-3.068c-.68-3.125.043-4.175.043-4.175l-4.389-.6Z" transform="translate(3.603 32.466)" fill="#24272b"/>
            <path id="Trazado_192013" data-name="Trazado 192013" d="M25.614,89.478c.275.678.4,3.521-.958,3.886-3.55.951-4.089-.387-5.036-.326-2.125.124-4.432,1.05-6.068,1.011-2.215-.051-5.616-1.4-5.325-3.565.227-1.713,2.052-2.018,1.933-1.658-.718,2.293,3.83,2.546,4.744,2.587,3.421.158,4.829-.935,5.746-.259s2.383.368,2.959.319c1.676-.144,2.005-2,2.005-2" transform="translate(3.143 33.952)"/>
            <path id="Trazado_192014" data-name="Trazado 192014" d="M27.295,105.464c3.439-.586-.011-22.446-1.655-26.5-3.55-8.753-2.591-19.546-1.892-20.7,1.481-2.466.958-10.6-1.3-14.195s-2.013-3.124-2.013-3.124L6.092,46.221l.69,7.657c.008,3.8,3.872,21.476,3.951,22.721.043.679,2.25,4.923,2.525,6.94,1,7.312,1.363,21.211,4.259,21.453Z" transform="translate(2.332 15.666)" fill="#6a7b9b"/>
            <path id="Trazado_192015" data-name="Trazado 192015" d="M18.354,23.263a35.866,35.866,0,0,1-5.535-11.271L7.1,18.677a23.349,23.349,0,0,1,2.413,4.234,3.507,3.507,0,0,0-.57,1.734,1.1,1.1,0,0,0,1.428,1.112c.035.231.058.46.069.686,0,0,8.525-2.376,7.911-3.179" transform="translate(2.719 4.591)" fill="#d19d90"/>
            <path id="Trazado_192016" data-name="Trazado 192016" d="M23.534,56.154c3.742-3.241-.732-8.51-.521-13.007s.823-7.245-.191-14.786A19.258,19.258,0,0,0,18.11,18.215s-4.924,1.4-6.393,2.006c-1.279.53-5.458,16.834-5.425,19.944.059,4.827,1.959,18.2,4.012,17.694,11.086-2.742,12.741-1.283,13.231-1.706" transform="translate(2.409 6.973)" fill="#24272b"/>
            <path id="Trazado_192017" data-name="Trazado 192017" d="M10.749,21.439c-2.2.975-3.71,5.963-3.71,5.963-1.91,4.85-2.185,11.072-2.152,14.184.061,4.827-3.168,14,1.853,17.921.653.512,3.158-2.721,12.142-3.31.29-5.87-4.2-16.119-3.179-21.329a14.5,14.5,0,0,0-2.247-10.944L15.7,18.6c-.925,1.1-4.348,2.568-4.955,2.838" transform="translate(1.501 7.121)"/>
            <path id="Trazado_192018" data-name="Trazado 192018" d="M2.989,9.08c2.065-3.349,11.921-5.067,12.528.9.8,7.829-2.826,10.858-2.826,10.858-1.937,1.605-5.046,2.958-6.714,2.385-.812-.279-1.818-2.362-2.374-3.887-.718-.126-1.489-.354-1.424-.866a14.82,14.82,0,0,1,.672-3.21c-.44-2.412-1.9-2.876.138-6.18" transform="translate(0.739 2.308)" fill="#d19d90"/>
            <path id="Trazado_192019" data-name="Trazado 192019" d="M20.647,42.537c2.177.488,3.546.416,4.884,1.506,1.467,1.195,2.6,1.44,5.067.621s1.369-3.028-.008-4.023-1.289-.336-3.028-.729S22.3,38.68,22.3,38.68Z" transform="translate(7.904 14.807)" fill="#d19d90"/>
            <path id="Trazado_192020" data-name="Trazado 192020" d="M8.59,26c-.893,2.8,2.575,14.969,8.535,18.9s7.481,5.877,9.955,5.369c2.833-.277,3.447-4.991,3.442-5.011,0,0-5.715-5.311-8.384-7.341s-6.951-15.281-9.55-15.392S9.6,23.86,9.6,23.86Z" transform="translate(3.235 8.62)" fill="#24272b"/>
            <path id="Trazado_192021" data-name="Trazado 192021" d="M32.929,46.318c.483-.209,1.088-.44.772-.774s-1.688.086-2.313.191a1.277,1.277,0,0,1-1.565-1.1c-.144-.578-.189-.378.4-.733s2.006.983,2.23.389c.138-.364-.734-1.142-1.446-1.854a9.862,9.862,0,0,1-2.037-2.391l-1.708-2.684c-.78-.225-3.121,1.565-2.723,1.879.329.261.838,1.214,1.191,1.558.257,1.133.886,3.949,1.018,4.744.167,1,2.789,2.348,2.789,2.348a12.507,12.507,0,0,0,4.338-1.345c.564-.48-1.422-.021-.942-.228" transform="translate(9.375 14.295)" fill="#e2b7ac"/>
            <path id="Trazado_192022" data-name="Trazado 192022" d="M0,12.161c2.128-.106,12.015,10.707,11.689,13.615s1.257,1.532,1.257,1.532,5.953-3.741,7.849-3.529c-.813-8.036,1.373-11.23-3.185-16.142C15.322,5.175,8.894,4.515,5.534,7A59.946,59.946,0,0,0,0,12.161" transform="translate(0 2.079)"/>
            <path id="Trazado_192023" data-name="Trazado 192023" d="M15.178,7.633C13.508,5.834,9.63,5,6.353,5.651c4.368,2.174,10.407,10.566,9.269,18.884a6.551,6.551,0,0,1,2.741-.761c-.813-8.036,1.373-11.231-3.185-16.142" transform="translate(2.432 2.08)" fill="#24272b"/>
            <path id="Trazado_192024" data-name="Trazado 192024" d="M29.9,37.832a27.542,27.542,0,0,1-4.219,1.153,1.813,1.813,0,0,0-1.34,2.03c.166.61.61-.679.61-.679s-.278.333-.552.619a.939.939,0,0,0,.1,1.341c.326.2.188-.92.671-1.164.684-.342,1.115-.531,1.115-.531s-1.09.709-1.484.946-.2,1.888.118,1.966.567-1.186.567-1.186l1.477-.838s-1.4.682-1.477,1.155-.651,1.495.061,1.527c.433.019.809-1.094,1.278-1.409a3.821,3.821,0,0,1,2.131-.2c.631.079.455,1.359,1.242.65s3.392-3.678,3.392-3.678l9.168-5.252s-1.655-3.391-2.445-3.471S30.218,37.674,29.9,37.832" transform="translate(9.251 11.796)" fill="#d19d90"/>
            <path id="Trazado_192025" data-name="Trazado 192025" d="M31.306,42.8a.468.468,0,0,1,.3-.6A2.63,2.63,0,0,0,33.4,40.282a2.6,2.6,0,0,0,.051-.5,2.935,2.935,0,0,0-2.441-2.745,3.3,3.3,0,0,0-.68-.071,2.769,2.769,0,0,0-2.8,2.089,2.213,2.213,0,0,0-.051.487,2.579,2.579,0,0,0,.454,1.442.473.473,0,1,1-.785.527,3.524,3.524,0,0,1-.614-1.969,3.132,3.132,0,0,1,.073-.684,3.708,3.708,0,0,1,3.724-2.836,4.1,4.1,0,0,1,.877.09,3.877,3.877,0,0,1,3.192,3.67A3.46,3.46,0,0,1,31.9,43.1a.476.476,0,0,1-.151.024.471.471,0,0,1-.448-.322" transform="translate(10.155 13.79)" fill="#748293"/>
            <path id="Trazado_192026" data-name="Trazado 192026" d="M31.774,46.327a4.556,4.556,0,0,1-.1-.9A3.7,3.7,0,0,1,34.5,41.713a3.334,3.334,0,0,1,.708-.077,3.876,3.876,0,0,1,3.666,3.171,4.357,4.357,0,0,1,.1.9,3.71,3.71,0,0,1-2.815,3.716l-.1-.462.1.465a3.527,3.527,0,0,1-.707.075,3.874,3.874,0,0,1-3.667-3.172m3.431-3.746a2.394,2.394,0,0,0-.509.058,2.758,2.758,0,0,0-2.071,2.789,3.408,3.408,0,0,0,.076.7,2.928,2.928,0,0,0,2.741,2.42,2.481,2.481,0,0,0,.51-.054h0a2.766,2.766,0,0,0,2.066-2.792,3.464,3.464,0,0,0-.072-.7,2.937,2.937,0,0,0-2.73-2.425Z" transform="translate(12.127 15.939)" fill="#98a8b7"/>
            <g id="Grupo_147755" data-name="Grupo 147755" transform="translate(33.296 49.558)" style="mix-blend-mode: multiply;isolation: isolate">
              <g id="Grupo_147754" data-name="Grupo 147754">
                <g id="Grupo_147753" data-name="Grupo 147753" clip-path="url(#clip-path-3)">
                  <g id="Grupo_147752" data-name="Grupo 147752" transform="translate(0 0.001)">
                    <g id="Grupo_147751" data-name="Grupo 147751" clip-path="url(#clip-path-4)">
                      <rect id="Rectángulo_40412" data-name="Rectángulo 40412" width="17.278" height="17.371" transform="matrix(0.769, -0.639, 0.639, 0.769, -6.222, 5.172)" fill="url(#linear-gradient)"/>
                    </g>
                  </g>
                </g>
              </g>
            </g>
            <path id="Trazado_192028" data-name="Trazado 192028" d="M49.593,35.475c6.743-2.378,3.469-13.106-.238-18.534s-6.762.008-7.1-.124c-1.787-.708-1.339-4.466-1.339-4.466L41.666,9.8s9.387,2.965,12.066,10.645,9.187,18.577,9.819,21.916c-.629,2-4.379,6.011-6.625,6.389-.509.086-13.484-11.107-7.334-13.278" transform="translate(15.644 3.753)" fill="#24272b"/>
            <path id="Trazado_192029" data-name="Trazado 192029" d="M38.1,25.4c-.355.592-1.771,6.268-1.771,6.268s-4.616,4.5-5.327,5.443c.473.593,2.839,2.84,2.839,2.84l7.809-3.55Z" transform="translate(11.87 9.724)" fill="#9eb7e5"/>
            <path id="Trazado_192030" data-name="Trazado 192030" d="M41.262,54.279c-.947-.083-1.2-3.7-2.524-8.015C33.691,29.817,35.425,19.8,35.9,17.794a7.535,7.535,0,0,0,5.208-2.171c2.127-2.254,1.773-4.175,1.773-4.175l3.193,2.879s-1.756.285-1.813,6.892c-.025,2.557,3.783,12.938,11.039,11.267,0,0,6.94,13.944,5.443,14.614-4.1,1.828-7.422,8.239-19.48,7.18" transform="translate(13.485 4.382)"/>
            <path id="Trazado_192031" data-name="Trazado 192031" d="M41.459,8.738l2.954,1.63s.324-.433-2.214,4.057c-1.061,1.879-3.465,5.959-3.465,5.959L36.782,17.17s1.838-3.3,3.847-6.415a5.729,5.729,0,0,0,.83-2.018" transform="translate(14.081 3.345)" fill="#9eb7e5"/>
            <path id="Trazado_192032" data-name="Trazado 192032" d="M42.63,29.708c-2.56,1.968-8.75,8.271-9.732,8.466s-3.147,2.756-3.543,3.348-1.18,2.034-.787,2.818.538,2.045,1.311,1.9c.542-.1.266-1.969.266-1.969a1.505,1.505,0,0,0,1.03,1.575c.452.118.492-.541.492-.541a5.443,5.443,0,0,0,3.067-.444c.834-.384,1.507-2.362,2.1-3.344s6.707-3.891,8.872-5.663-3.075-6.151-3.075-6.151" transform="translate(10.896 11.372)" fill="#e2b7ac"/>
            <path id="Trazado_192033" data-name="Trazado 192033" d="M45.052,14.317c-1.181,1.188-1.612,2.905-1.652,6.86s-.2,8.279-1.341,10.1-5.834,6.975-5.77,7.919a14.425,14.425,0,0,1-1.8,1.388l3.627,5.441,3.7-1.363S49.987,41.4,52.39,32.693c0,0,3.839-14.41-1.422-18.376a4.694,4.694,0,0,0-5.917,0" transform="translate(13.202 5.074)" fill="#9eb7e5"/>
          </g>
        </g>
      </g>
    </g>
  </g>
</svg>
