<svg xmlns="http://www.w3.org/2000/svg" xmlns:xlink="http://www.w3.org/1999/xlink" width="400" height="221.107" viewBox="0 0 400 221.107">
  <defs>
    <linearGradient id="linear-gradient" x1="0.994" y1="0.696" x2="0.026" y2="0.726" gradientUnits="objectBoundingBox">
      <stop offset="0" stop-color="#9eb7e5"/>
      <stop offset="1" stop-color="#e7f9fa"/>
    </linearGradient>
  </defs>
  <g id="Grupo_148085" data-name="Grupo 148085" transform="translate(-5618 7722.107)">
    <g id="Grupo_147891" data-name="Grupo 147891">
      <g id="Grupo_147201" data-name="Grupo 147201" transform="translate(5618 -7662)">
        <g id="Grupo_147185" data-name="Grupo 147185">
          <path id="Rectángulo_5183" data-name="Rectángulo 5183" d="M0,0H269A131,131,0,0,1,400,131v30a0,0,0,0,1,0,0H0a0,0,0,0,1,0,0V0A0,0,0,0,1,0,0Z" fill="url(#linear-gradient)"/>
        </g>
      </g>
      <g id="XMLID_1_" transform="translate(5686 -7727.107)">
        <g id="XMLID_2407_" transform="translate(5 5)">
          <path id="XMLID_1225_" d="M106.5,384h53.735v54.176H106.5Z" transform="translate(-61.794 -217.068)" fill="#f7c9ab"/>
          <path id="XMLID_1221_" d="M283.5,384h53.735v54.176H283.5Z" transform="translate(-127.834 -217.068)" fill="#f7c9ab"/>
          <path id="XMLID_1833_" d="M106.5,384h53.735v24.665H106.5Z" transform="translate(-61.794 -217.068)" fill="#f3ab7d"/>
          <path id="XMLID_1832_" d="M283.5,384h53.735v24.665H283.5Z" transform="translate(-127.834 -217.068)" fill="#f3ab7d"/>
          <path id="XMLID_1228_" d="M93.047,22.618a6.3,6.3,0,0,0-6.3,6.3V65.122L83.665,19.843a6.975,6.975,0,0,0-6.959-6.475h-.264a6.974,6.974,0,0,0-6.959,6.959V65.122l-2.07-54.044A6.243,6.243,0,0,0,61.158,5h-.044a6.311,6.311,0,0,0-6.3,6.078L52.789,65.122V20.328a6.944,6.944,0,0,0-13.874-.44L35.611,74.9V93.575L17.685,73.094A7.249,7.249,0,1,0,7.114,83a27.21,27.21,0,0,1,5.594,8.1,168.109,168.109,0,0,0,7.928,15.328l12.553,21.186a34.157,34.157,0,0,0,5.858,7.4,34.563,34.563,0,0,1,10.659,24.886v25.238h53.735V121.588q0-46.71-4.14-93.244a6.279,6.279,0,0,0-6.254-5.726Z" transform="translate(-5 -5)" fill="#9cd3fc"/>
          <path id="XMLID_1227_" d="M151.366,397.214H94.107a6.607,6.607,0,1,1,0-13.214h57.259a6.607,6.607,0,0,1,0,13.214Z" transform="translate(-51.163 -217.068)" fill="#6abdfb"/>
          <path id="XMLID_1226_" d="M109.736,214.249l-1.189-2.467A37.691,37.691,0,0,0,74.5,190.333V178a34.461,34.461,0,0,1,33.959,28.629Z" transform="translate(-43.889 -101.802)" fill="#6abdfb"/>
          <path id="XMLID_1224_" d="M293.895,22.618a6.3,6.3,0,0,1,6.3,6.3V65.122l3.083-45.279a6.934,6.934,0,0,1,6.915-6.475h.264a6.974,6.974,0,0,1,6.959,6.959V65.122l2.07-54.044A6.311,6.311,0,0,1,325.783,5h.044a6.311,6.311,0,0,1,6.3,6.078l2.026,54.044V20.328a6.944,6.944,0,0,1,13.874-.44l3.3,55.013V93.575l17.926-20.481A7.249,7.249,0,1,1,379.827,83a27.21,27.21,0,0,0-5.594,8.1,168.119,168.119,0,0,1-7.928,15.328l-12.553,21.186a34.158,34.158,0,0,1-5.858,7.4,34.563,34.563,0,0,0-10.659,24.886v25.238H283.5V121.588q0-46.71,4.14-93.244a6.279,6.279,0,0,1,6.254-5.726Z" transform="translate(-127.834 -5)" fill="#9cd3fc"/>
          <g id="Grupo_147890" data-name="Grupo 147890" transform="translate(147.298 76.198)">
            <path id="XMLID_1223_" d="M271.107,397.214h57.259a6.607,6.607,0,1,0,0-13.214H271.107a6.607,6.607,0,1,0,0,13.214Z" transform="translate(-264.5 -293.267)" fill="#6abdfb"/>
            <path id="XMLID_1729_" d="M357.5,214.249l1.189-2.467a37.691,37.691,0,0,1,34.047-21.45V178a34.461,34.461,0,0,0-33.959,28.629Z" transform="translate(-316.538 -178)" fill="#6abdfb"/>
          </g>
        </g>
      </g>
    </g>
  </g>
</svg>
