<svg xmlns="http://www.w3.org/2000/svg" xmlns:xlink="http://www.w3.org/1999/xlink" width="102" height="102" viewBox="0 0 102 102">
  <defs>
    <radialGradient id="radial-gradient" cx="0.848" cy="0.188" r="0.5" gradientTransform="matrix(-1, 0, 0, 1, 1.695, 0)" gradientUnits="objectBoundingBox">
      <stop offset="0" stop-color="#84e8ed"/>
      <stop offset="1" stop-color="#9eb7e5"/>
    </radialGradient>
    <clipPath id="clip-path">
      <ellipse id="Elipse_5490" data-name="Elipse 5490" cx="51" cy="50.5" rx="51" ry="50.5" transform="translate(749 7562)" fill="#fff"/>
    </clipPath>
  </defs>
  <g id="Grupo_148081" data-name="Grupo 148081" transform="translate(-749 -7562)">
    <ellipse id="Elipse_1145" data-name="Elipse 1145" cx="51" cy="50.5" rx="51" ry="50.5" transform="translate(749 7563)" fill="#fff"/>
    <circle id="Elipse_5484" data-name="Elipse 5484" cx="41" cy="41" r="41" transform="translate(759 7573)" fill="url(#radial-gradient)"/>
    <g id="Enmascarar_grupo_67" data-name="Enmascarar grupo 67" clip-path="url(#clip-path)">
      <g id="refrigerador_1_" data-name="refrigerador (1)" transform="translate(706.018 7591.432) rotate(-17)">
        <path id="Trazado_190983" data-name="Trazado 190983" d="M134.8,256l-4.784,39.63a5.353,5.353,0,0,1-5.315,4.711H80.666a5.353,5.353,0,0,1-5.315-4.711L70.567,256Z" transform="translate(-17.035 -211.658)" fill="#649ed0"/>
        <path id="Trazado_190984" data-name="Trazado 190984" d="M154.227,256,149.5,295.149a1.339,1.339,0,0,1-1.329,1.178H98.95a5.354,5.354,0,0,0,5.183,4.015h44.04a5.353,5.353,0,0,0,5.315-4.711L158.271,256Z" transform="translate(-40.502 -211.658)" fill="#3177ba"/>
        <path id="Trazado_190985" data-name="Trazado 190985" d="M134.8,203.111H70.567v-3.926a5,5,0,0,1,5-5h54.245a5,5,0,0,1,5,5v3.926Z" transform="translate(-17.035 -160.554)" fill="#a9dad9"/>
        <g id="Grupo_147097" data-name="Grupo 147097" transform="translate(49.963 33.635)">
          <path id="Trazado_190986" data-name="Trazado 190986" d="M130.444,194.189H76.556a5,5,0,0,0-4.788,3.569h55.108A3.569,3.569,0,0,0,130.444,194.189Z" transform="translate(-67.991 -194.189)" fill="#dbeae1"/>
          <path id="Trazado_190987" data-name="Trazado 190987" d="M117.769,246.1H53.532a3.569,3.569,0,0,1-3.569-3.569v-3.569a3.569,3.569,0,0,1,3.569-3.569h64.237a3.569,3.569,0,0,1,3.569,3.569v3.569A3.569,3.569,0,0,1,117.769,246.1Z" transform="translate(-49.963 -228.259)" fill="#dbeae1"/>
        </g>
        <path id="Trazado_190988" data-name="Trazado 190988" d="M53.533,246.1H117.77a3.569,3.569,0,0,0,3.569-3.569v-3.569a3.569,3.569,0,0,0-3.569-3.569v5.353a1.784,1.784,0,0,1-1.784,1.784H49.964A3.569,3.569,0,0,0,53.533,246.1Z" transform="translate(-0.001 -194.623)" fill="#a9dad9"/>
        <path id="Trazado_190989" data-name="Trazado 190989" d="M207.065,342.733l.943-.95a1.338,1.338,0,1,0-1.9-1.886l-1.486,1.5h-1.735l-2.3-4.015.767-1.338h1.881a1.338,1.338,0,1,0,0-2.676h-1.319v-1.338a1.338,1.338,0,1,0-2.676,0v2.32l-.971,1.695h-4.585l-.971-1.695v-2.32a1.338,1.338,0,1,0-2.676,0v1.338h-1.319a1.338,1.338,0,1,0,0,2.676H190.6l.767,1.338-2.3,4.015h-1.875l-1.486-1.5a1.338,1.338,0,0,0-1.9,1.886l.943.95-.943.95a1.338,1.338,0,0,0,1.9,1.886l1.486-1.5h1.875l2.3,4.015-.767,1.338h-1.881a1.338,1.338,0,0,0,0,2.676h1.319v1.338a1.338,1.338,0,0,0,2.676,0v-2.32l.971-1.695h4.585l.971,1.695v2.32a1.338,1.338,0,0,0,2.676,0V352.1h1.319a1.338,1.338,0,0,0,0-2.676h-1.881l-.767-1.338,2.3-4.015h1.735l1.486,1.5a1.338,1.338,0,1,0,1.9-1.886ZM199.8,341.4h-1.517l.758-1.324Zm-3.068-2.677-.758,1.323-.758-1.323Zm-3.826,1.353.758,1.324h-1.517Zm-.758,4h1.517l-.758,1.323Zm3.068,2.676.758-1.324.758,1.324Zm3.826-1.353-.758-1.323H199.8Z" transform="translate(-110.337 -273.41)" fill="#dbeae1"/>
        <path id="Trazado_190990" data-name="Trazado 190990" d="M243.224,47.554a2.677,2.677,0,0,1-2.677-2.677V2.677a2.677,2.677,0,0,1,5.353,0v42.2A2.677,2.677,0,0,1,243.224,47.554Z" transform="translate(-157.573 0)" fill="#a9dad9"/>
      </g>
    </g>
  </g>
</svg>
