<svg xmlns="http://www.w3.org/2000/svg" xmlns:xlink="http://www.w3.org/1999/xlink" width="102" height="102" viewBox="0 0 102 102">
  <defs>
    <radialGradient id="radial-gradient" cx="0.152" cy="0.188" r="0.5" gradientUnits="objectBoundingBox">
      <stop offset="0" stop-color="#84e8ed"/>
      <stop offset="1" stop-color="#9eb7e5"/>
    </radialGradient>
    <clipPath id="clip-path">
      <circle id="Elipse_5489" data-name="Elipse 5489" cx="51" cy="51" r="51" transform="translate(749 7725)" fill="#fff"/>
    </clipPath>
  </defs>
  <g id="Grupo_148082" data-name="Grupo 148082" transform="translate(-749 -7725)">
    <circle id="Elipse_1150" data-name="Elipse 1150" cx="51" cy="51" r="51" transform="translate(749 7725)" fill="#fff"/>
    <circle id="Elipse_5485" data-name="Elipse 5485" cx="41" cy="41" r="41" transform="translate(759 7735)" fill="url(#radial-gradient)"/>
    <g id="Enmascarar_grupo_66" data-name="Enmascarar grupo 66" clip-path="url(#clip-path)">
      <g id="lapiz" transform="translate(766.638 7738.966)">
        <path id="Trazado_190937" data-name="Trazado 190937" d="M354.994,24.6l-8.318-2.958L338.148,7.758,343.005,2.9A9.9,9.9,0,0,1,357,2.9l2.852,2.852a9.9,9.9,0,0,1,0,13.994Z" transform="translate(-290.298)" fill="#f01519"/>
        <path id="Trazado_190938" data-name="Trazado 190938" d="M360.688,7.023a10.09,10.09,0,0,0-.919-1.06l-2.687-2.687a10.012,10.012,0,0,0-14.159,0l-4.775,4.775,4.667,4.667,4.775-4.775A10.012,10.012,0,0,1,360.688,7.023Z" transform="translate(-290.298 -0.292)" fill="#c60e17"/>
        <path id="Trazado_190939" data-name="Trazado 190939" d="M73.331,149.406l-9.279-4.369L56.485,132.56,90.1,98.949l14.478,10.409,2.368,6.438Z" transform="translate(-48.493 -84.944)" fill="#f8c300"/>
        <rect id="Rect치ngulo_40034" data-name="Rect치ngulo 40034" width="9.838" height="47.533" transform="translate(14.95 54.573) rotate(-135)" fill="#d8a505"/>
        <rect id="Rect치ngulo_40035" data-name="Rect치ngulo 40035" width="9.838" height="47.533" transform="translate(19.893 59.517) rotate(-135)" fill="#fcd351"/>
        <path id="Trazado_190940" data-name="Trazado 190940" d="M306.2,73.252l-17.32-17.32a1.94,1.94,0,0,1,0-2.744l3.5-3.5a1.94,1.94,0,0,1,2.744,0l17.32,17.32a1.94,1.94,0,0,1,0,2.744l-3.5,3.5A1.941,1.941,0,0,1,306.2,73.252Z" transform="translate(-247.517 -42.164)" fill="#d0dbdd"/>
        <path id="Trazado_190941" data-name="Trazado 190941" d="M24.84,353.317l-8.722,3.174L3.3,361.156a2.436,2.436,0,0,1-2.844-.89,2.408,2.408,0,0,1-.3-2.257L4.82,345.193l3.174-8.722Z" transform="translate(-0.003 -288.855)" fill="#ffceb5"/>
        <path id="Trazado_190942" data-name="Trazado 190942" d="M.458,360.268a2.408,2.408,0,0,1-.3-2.257L4.82,345.195l3.174-8.722,4.946,4.945Z" transform="translate(-0.003 -288.857)" fill="#dba189"/>
        <path id="Trazado_190943" data-name="Trazado 190943" d="M16.116,409.4,3.3,414.068a2.446,2.446,0,0,1-2.97-1.082,2.408,2.408,0,0,1-.177-2.065L4.817,398.1Z" transform="translate(0 -341.766)" fill="#3e3d4c"/>
        <path id="Trazado_190944" data-name="Trazado 190944" d="M294.495,58.768l3.47-3.47a1.963,1.963,0,0,1,2.777,0L295.2,49.761a1.963,1.963,0,0,0-2.777,0l-3.47,3.47a1.963,1.963,0,0,0,0,2.777l5.537,5.537A1.964,1.964,0,0,1,294.495,58.768Z" transform="translate(-247.575 -42.223)" fill="#909899"/>
        <path id="Trazado_190945" data-name="Trazado 190945" d="M.33,412.987a2.408,2.408,0,0,1-.177-2.065L4.818,398.1,8.2,401.486Z" transform="translate(-0.001 -341.767)" fill="#2c3033"/>
      </g>
    </g>
  </g>
</svg>
